<svg width="320" height="580" viewBox="0 0 320 580" fill="none" xmlns="http://www.w3.org/2000/svg">
<path opacity="0.0344828" d="M15.5547 422.186C37.8896 398.519 64.9407 390.214 96.7079 397.272C128.475 404.33 155.526 396.025 177.861 372.358C200.196 348.691 227.247 340.387 259.014 347.445C290.782 354.502 317.833 346.198 340.167 322.531C362.502 298.864 389.553 290.559 421.321 297.617" stroke="#0D34A0" stroke-width="2"/>
<path opacity="0.0689655" d="M13.9644 417.006C36.2993 393.339 63.3503 385.034 95.1176 392.092C126.885 399.15 153.936 390.845 176.271 367.178C198.606 343.511 225.657 335.207 257.424 342.265C289.191 349.322 316.242 341.018 338.577 317.351C360.912 293.684 387.963 285.379 419.73 292.437" stroke="#0D34A0" stroke-width="2"/>
<path opacity="0.103448" d="M12.374 411.825C34.7089 388.159 61.76 379.854 93.5272 386.912C125.294 393.97 152.346 385.665 174.68 361.998C197.015 338.331 224.066 330.027 255.834 337.084C287.601 344.142 314.652 335.837 336.987 312.171C359.322 288.504 386.373 280.199 418.14 287.257" stroke="#0D34A0" stroke-width="2"/>
<path opacity="0.137931" d="M10.784 406.645C33.1188 382.978 60.1699 374.674 91.9372 381.731C123.704 388.789 150.755 380.485 173.09 356.818C195.425 333.151 222.476 324.846 254.244 331.904C286.011 338.962 313.062 330.657 335.397 306.99C357.732 283.323 384.783 275.019 416.55 282.077" stroke="#0D34A0" stroke-width="2"/>
<path opacity="0.172414" d="M9.19363 401.465C31.5285 377.798 58.5796 369.494 90.3468 376.551C122.114 383.609 149.165 375.305 171.5 351.638C193.835 327.971 220.886 319.666 252.653 326.724C284.42 333.782 311.472 325.477 333.806 301.81C356.141 278.143 383.192 269.839 414.96 276.897" stroke="#0D34A0" stroke-width="2"/>
<path opacity="0.206897" d="M7.6033 396.285C29.9382 372.618 56.9892 364.313 88.7565 371.371C120.524 378.429 147.575 370.124 169.91 346.457C192.245 322.79 219.296 314.486 251.063 321.544C282.83 328.601 309.881 320.297 332.216 296.63C354.551 272.963 381.602 264.658 413.369 271.716" stroke="#0D34A0" stroke-width="2"/>
<path opacity="0.241379" d="M6.01296 391.105C28.3478 367.438 55.3989 359.133 87.1662 366.191C118.933 373.249 145.984 364.944 168.319 341.277C190.654 317.61 217.705 309.306 249.473 316.363C281.24 323.421 308.291 315.117 330.626 291.45C352.961 267.783 380.012 259.478 411.779 266.536" stroke="#0D34A0" stroke-width="2"/>
<path opacity="0.275862" d="M4.42263 385.924C26.7575 362.257 53.8086 353.953 85.5758 361.011C117.343 368.068 144.394 359.764 166.729 336.097C189.064 312.43 216.115 304.125 247.882 311.183C279.649 318.241 306.701 309.936 329.035 286.269C351.37 262.603 378.421 254.298 410.189 261.356" stroke="#0D34A0" stroke-width="2"/>
<path opacity="0.310345" d="M2.8323 380.744C25.1672 357.077 52.2183 348.773 83.9855 355.83C115.753 362.888 142.804 354.584 165.139 330.917C187.474 307.25 214.525 298.945 246.292 306.003C278.059 313.061 305.11 304.756 327.445 281.089C349.78 257.422 376.831 249.118 408.598 256.176" stroke="#0D34A0" stroke-width="2"/>
<path opacity="0.344828" d="M1.24197 375.564C23.5769 351.897 50.6279 343.593 82.3952 350.65C114.162 357.708 141.213 349.404 163.548 325.737C185.883 302.07 212.934 293.765 244.702 300.823C276.469 307.881 303.52 299.576 325.855 275.909C348.19 252.242 375.241 243.938 407.008 250.996" stroke="#0D34A0" stroke-width="2"/>
<path opacity="0.37931" d="M-0.348121 370.384C21.9868 346.717 49.0378 338.412 80.8051 345.47C112.572 352.528 139.623 344.223 161.958 320.556C184.293 296.889 211.344 288.585 243.111 295.643C274.879 302.7 301.93 294.396 324.265 270.729C346.6 247.062 373.651 238.757 405.418 245.815" stroke="#0D34A0" stroke-width="2"/>
<path opacity="0.413793" d="M-1.93845 365.204C20.3964 341.537 47.4475 333.232 79.2147 340.29C110.982 347.348 138.033 339.043 160.368 315.376C182.703 291.709 209.754 283.405 241.521 290.462C273.288 297.52 300.339 289.216 322.674 265.549C345.009 241.882 372.06 233.577 403.828 240.635" stroke="#0D34A0" stroke-width="2"/>
<path opacity="0.448276" d="M-3.52878 360.023C18.8061 336.357 45.8572 328.052 77.6244 335.11C109.392 342.167 136.443 333.863 158.778 310.196C181.112 286.529 208.164 278.225 239.931 285.282C271.698 292.34 298.749 284.035 321.084 260.369C343.419 236.702 370.47 228.397 402.237 235.455" stroke="#0D34A0" stroke-width="2"/>
<path opacity="0.482759" d="M-5.11912 354.843C17.2158 331.176 44.2668 322.872 76.0341 329.93C107.801 336.987 134.852 328.683 157.187 305.016C179.522 281.349 206.573 273.044 238.34 280.102C270.108 287.16 297.159 278.855 319.494 255.188C341.829 231.521 368.88 223.217 400.647 230.275" stroke="#0D34A0" stroke-width="2"/>
<path opacity="0.517241" d="M-6.70945 349.663C15.6254 325.996 42.6765 317.692 74.4437 324.749C106.211 331.807 133.262 323.503 155.597 299.836C177.932 276.169 204.983 267.864 236.75 274.922C268.517 281.98 295.568 273.675 317.903 250.008C340.238 226.341 367.289 218.037 399.057 225.095" stroke="#0D34A0" stroke-width="2"/>
<path opacity="0.551724" d="M-8.29978 344.483C14.0351 320.816 41.0862 312.511 72.8534 319.569C104.621 326.627 131.672 318.322 154.007 294.655C176.341 270.988 203.393 262.684 235.16 269.742C266.927 276.799 293.978 268.495 316.313 244.828C338.648 221.161 365.699 212.856 397.466 219.914" stroke="#0D34A0" stroke-width="2"/>
<path opacity="0.586207" d="M-9.89011 339.303C12.4448 315.636 39.4958 307.331 71.2631 314.389C103.03 321.447 130.081 313.142 152.416 289.475C174.751 265.808 201.802 257.504 233.569 264.562C265.337 271.619 292.388 263.315 314.723 239.648C337.058 215.981 364.109 207.676 395.876 214.734" stroke="#0D34A0" stroke-width="2"/>
<path opacity="0.62069" d="M-11.4804 334.123C10.8544 310.456 37.9055 302.151 69.6727 309.209C101.44 316.267 128.491 307.962 150.826 284.295C173.161 260.628 200.212 252.324 231.979 259.381C263.746 266.439 290.797 258.135 313.132 234.468C335.467 210.801 362.518 202.496 394.286 209.554" stroke="#0D34A0" stroke-width="2"/>
<path opacity="0.655172" d="M-13.0705 328.942C9.26435 305.275 36.3154 296.971 68.0827 304.029C99.8499 311.086 126.901 302.782 149.236 279.115C171.571 255.448 198.622 247.143 230.389 254.201C262.156 261.259 289.207 252.954 311.542 229.287C333.877 205.62 360.928 197.316 392.695 204.374" stroke="#0D34A0" stroke-width="2"/>
<path opacity="0.689655" d="M-14.6609 323.762C7.67402 300.095 34.7251 291.791 66.4923 298.848C98.2596 305.906 125.311 297.602 147.646 273.935C169.98 250.268 197.031 241.963 228.799 249.021C260.566 256.079 287.617 247.774 309.952 224.107C332.287 200.44 359.338 192.136 391.105 199.193" stroke="#0D34A0" stroke-width="2"/>
<path opacity="0.724138" d="M-16.2512 318.582C6.08369 294.915 33.1348 286.611 64.902 293.668C96.6692 300.726 123.72 292.421 146.055 268.755C168.39 245.088 195.441 236.783 227.208 243.841C258.976 250.899 286.027 242.594 308.362 218.927C330.696 195.26 357.748 186.956 389.515 194.013" stroke="#0D34A0" stroke-width="2"/>
<path opacity="0.758621" d="M-17.8415 313.402C4.49336 289.735 31.5444 281.43 63.3117 288.488C95.0789 295.546 122.13 287.241 144.465 263.574C166.8 239.907 193.851 231.603 225.618 238.661C257.385 245.718 284.436 237.414 306.771 213.747C329.106 190.08 356.157 181.775 387.924 188.833" stroke="#0D34A0" stroke-width="2"/>
<path opacity="0.793103" d="M-19.4319 308.222C2.90303 284.555 29.9541 276.25 61.7213 283.308C93.4886 290.366 120.54 282.061 142.875 258.394C165.209 234.727 192.26 226.423 224.028 233.48C255.795 240.538 282.846 232.234 305.181 208.567C327.516 184.9 354.567 176.595 386.334 183.653" stroke="#0D34A0" stroke-width="2"/>
<path opacity="0.827586" d="M-21.0222 303.041C1.31269 279.374 28.3638 271.07 60.131 278.128C91.8982 285.185 118.949 276.881 141.284 253.214C163.619 229.547 190.67 221.242 222.437 228.3C254.205 235.358 281.256 227.053 303.591 203.387C325.925 179.72 352.977 171.415 384.744 178.473" stroke="#0D34A0" stroke-width="2"/>
<path opacity="0.862069" d="M-22.6125 297.861C-0.277639 274.194 26.7734 265.89 58.5407 272.947C90.3079 280.005 117.359 271.701 139.694 248.034C162.029 224.367 189.08 216.062 220.847 223.12C252.614 230.178 279.665 221.873 302 198.206C324.335 174.539 351.386 166.235 383.153 173.293" stroke="#0D34A0" stroke-width="2"/>
<path opacity="0.896552" d="M-24.2029 292.681C-1.86797 269.014 25.1831 260.71 56.9503 267.767C88.7176 274.825 115.769 266.521 138.104 242.854C160.438 219.187 187.489 210.882 219.257 217.94C251.024 224.998 278.075 216.693 300.41 193.026C322.745 169.359 349.796 161.055 381.563 168.112" stroke="#0D34A0" stroke-width="2"/>
<path opacity="0.931035" d="M-25.7932 287.501C-3.4583 263.834 23.5928 255.529 55.36 262.587C87.1272 269.645 114.178 261.34 136.513 237.673C158.848 214.007 185.899 205.702 217.666 212.76C249.434 219.817 276.485 211.513 298.82 187.846C321.154 164.179 348.206 155.875 379.973 162.932" stroke="#0D34A0" stroke-width="2"/>
<path opacity="0.965517" d="M-27.3833 282.321C-5.04839 258.654 22.0027 250.349 53.7699 257.407C85.5372 264.465 112.588 256.16 134.923 232.493C157.258 208.826 184.309 200.522 216.076 207.579C247.844 214.637 274.895 206.333 297.229 182.666C319.564 158.999 346.615 150.694 378.383 157.752" stroke="#0D34A0" stroke-width="2"/>
<path d="M-28.9736 277.14C-6.63873 253.474 20.4123 245.169 52.1796 252.227C83.9468 259.284 110.998 250.98 133.333 227.313C155.668 203.646 182.719 195.342 214.486 202.399C246.253 209.457 273.304 201.152 295.639 177.486C317.974 153.819 345.025 145.514 376.792 152.572" stroke="#0D34A0" stroke-width="2"/>
</svg>
