<svg width="737" height="870" viewBox="0 0 737 870" fill="none" xmlns="http://www.w3.org/2000/svg">
<path opacity="0.0344828" d="M47.9198 687.175C77.3579 644.439 117.968 624.765 169.751 628.155C221.534 631.545 262.145 611.871 291.583 569.135C321.021 526.399 361.631 506.726 413.414 510.116C465.197 513.505 505.808 493.832 535.246 451.096C564.684 408.36 605.295 388.687 657.077 392.077" stroke="#0D34A0" stroke-width="5"/>
<path opacity="0.0689655" d="M44.1523 679.398C73.5904 636.662 114.201 616.989 165.984 620.378C217.767 623.768 258.377 604.095 287.815 561.359C317.253 518.623 357.864 498.95 409.647 502.339C461.43 505.729 502.04 486.056 531.478 443.32C560.916 400.584 601.527 380.911 653.31 384.3" stroke="#0D34A0" stroke-width="5"/>
<path opacity="0.103448" d="M40.3847 671.621C69.8228 628.885 110.433 609.212 162.216 612.602C213.999 615.991 254.61 596.318 284.048 553.582C313.486 510.846 354.096 491.173 405.879 494.562C457.662 497.952 498.273 478.279 527.711 435.543C557.149 392.807 597.759 373.134 649.542 376.523" stroke="#0D34A0" stroke-width="5"/>
<path opacity="0.137931" d="M36.6176 663.844C66.0557 621.108 106.666 601.435 158.449 604.825C210.232 608.214 250.843 588.541 280.281 545.805C309.719 503.069 350.329 483.396 402.112 486.786C453.895 490.175 494.506 470.502 523.944 427.766C553.382 385.03 593.992 365.357 645.775 368.746" stroke="#0D34A0" stroke-width="5"/>
<path opacity="0.172414" d="M32.85 656.068C62.2881 613.332 102.899 593.658 154.682 597.048C206.464 600.438 247.075 580.764 276.513 538.028C305.951 495.293 346.562 475.619 398.345 479.009C450.128 482.399 490.738 462.725 520.176 419.989C549.614 377.253 590.225 357.58 642.008 360.97" stroke="#0D34A0" stroke-width="5"/>
<path opacity="0.206897" d="M29.0829 648.291C58.521 605.555 99.1315 585.882 150.914 589.271C202.697 592.661 243.308 572.988 272.746 530.252C302.184 487.516 342.795 467.843 394.577 471.232C446.36 474.622 486.971 454.948 516.409 412.213C545.847 369.477 586.458 349.803 638.241 353.193" stroke="#0D34A0" stroke-width="5"/>
<path opacity="0.241379" d="M25.3154 640.514C54.7534 597.778 95.3639 578.105 147.147 581.494C198.93 584.884 239.54 565.211 268.978 522.475C298.416 479.739 339.027 460.066 390.81 463.455C442.593 466.845 483.203 447.172 512.641 404.436C542.08 361.7 582.69 342.027 634.473 345.416" stroke="#0D34A0" stroke-width="5"/>
<path opacity="0.275862" d="M21.5483 632.737C50.9863 590.001 91.5969 570.328 143.38 573.717C195.163 577.107 235.773 557.434 265.211 514.698C294.649 471.962 335.26 452.289 387.043 455.678C438.826 459.068 479.436 439.395 508.874 396.659C538.312 353.923 578.923 334.25 630.706 337.639" stroke="#0D34A0" stroke-width="5"/>
<path opacity="0.310345" d="M17.7807 624.96C47.2188 582.224 87.8293 562.551 139.612 565.941C191.395 569.33 232.006 549.657 261.444 506.921C290.882 464.185 331.492 444.512 383.275 447.902C435.058 451.291 475.669 431.618 505.107 388.882C534.545 346.146 575.155 326.473 626.938 329.862" stroke="#0D34A0" stroke-width="5"/>
<path opacity="0.344828" d="M14.0136 617.184C43.4517 574.448 84.0622 554.774 135.845 558.164C187.628 561.554 228.239 541.88 257.677 499.144C287.115 456.409 327.725 436.735 379.508 440.125C431.291 443.515 471.902 423.841 501.34 381.105C530.778 338.369 571.388 318.696 623.171 322.086" stroke="#0D34A0" stroke-width="5"/>
<path opacity="0.37931" d="M10.246 609.407C39.6841 566.671 80.2946 546.998 132.078 550.387C183.86 553.777 224.471 534.104 253.909 491.368C283.347 448.632 323.958 428.958 375.741 432.348C427.524 435.738 468.134 416.064 497.572 373.329C527.01 330.593 567.621 310.919 619.404 314.309" stroke="#0D34A0" stroke-width="5"/>
<path opacity="0.413793" d="M6.47893 601.63C35.917 558.894 76.5275 539.221 128.31 542.611C180.093 546 220.704 526.327 250.142 483.591C279.58 440.855 320.191 421.182 371.973 424.571C423.756 427.961 464.367 408.288 493.805 365.552C523.243 322.816 563.854 303.143 615.637 306.532" stroke="#0D34A0" stroke-width="5"/>
<path opacity="0.448276" d="M2.71135 593.853C32.1494 551.117 72.7599 531.444 124.543 534.834C176.326 538.223 216.936 518.55 246.374 475.814C275.812 433.078 316.423 413.405 368.206 416.795C419.989 420.184 460.599 400.511 490.037 357.775C519.476 315.039 560.086 295.366 611.869 298.756" stroke="#0D34A0" stroke-width="5"/>
<path opacity="0.482759" d="M-1.05574 586.076C28.3823 543.34 68.9929 523.667 120.776 527.057C172.559 530.446 213.169 510.773 242.607 468.037C272.045 425.301 312.656 405.628 364.439 409.018C416.222 412.407 456.832 392.734 486.27 349.998C515.708 307.262 556.319 287.589 608.102 290.979" stroke="#0D34A0" stroke-width="5"/>
<path opacity="0.517241" d="M-4.82332 578.3C24.6148 535.564 65.2253 515.891 117.008 519.28C168.791 522.67 209.402 502.997 238.84 460.261C268.278 417.525 308.888 397.852 360.671 401.241C412.454 404.631 453.065 384.958 482.503 342.222C511.941 299.486 552.551 279.812 604.334 283.202" stroke="#0D34A0" stroke-width="5"/>
<path opacity="0.551724" d="M-8.59041 570.523C20.8477 527.787 61.4582 508.114 113.241 511.503C165.024 514.893 205.635 495.22 235.073 452.484C264.511 409.748 305.121 390.075 356.904 393.464C408.687 396.854 449.298 377.181 478.736 334.445C508.174 291.709 548.784 272.036 600.567 275.425" stroke="#0D34A0" stroke-width="5"/>
<path opacity="0.586207" d="M-12.358 562.746C17.0801 520.01 57.6906 500.337 109.474 503.727C161.256 507.116 201.867 487.443 231.305 444.707C260.743 401.971 301.354 382.298 353.137 385.687C404.92 389.077 445.53 369.404 474.968 326.668C504.406 283.932 545.017 264.259 596.8 267.648" stroke="#0D34A0" stroke-width="5"/>
<path opacity="0.62069" d="M-16.1251 554.969C13.313 512.233 53.9235 492.56 105.706 495.95C157.489 499.339 198.1 479.666 227.538 436.93C256.976 394.194 297.587 374.521 349.369 377.911C401.152 381.3 441.763 361.627 471.201 318.891C500.639 276.155 541.25 256.482 593.033 259.871" stroke="#0D34A0" stroke-width="5"/>
<path opacity="0.655172" d="M-19.8927 547.192C9.54543 504.456 50.1559 484.783 101.939 488.173C153.722 491.562 194.332 471.889 223.77 429.153C253.208 386.417 293.819 366.744 345.602 370.134C397.385 373.523 437.995 353.85 467.433 311.114C496.872 268.378 537.482 248.705 589.265 252.095" stroke="#0D34A0" stroke-width="5"/>
<path opacity="0.689655" d="M-23.6602 539.416C5.77785 496.68 46.3884 477.007 98.1713 480.396C149.954 483.786 190.565 464.113 220.003 421.377C249.441 378.641 290.051 358.968 341.834 362.357C393.617 365.747 434.228 346.073 463.666 303.338C493.104 260.602 533.714 240.928 585.497 244.318" stroke="#0D34A0" stroke-width="5"/>
<path opacity="0.724138" d="M-27.4273 531.639C2.01076 488.903 42.6213 469.23 94.4042 472.62C146.187 476.009 186.798 456.336 216.236 413.6C245.674 370.864 286.284 351.191 338.067 354.58C389.85 357.97 430.461 338.297 459.899 295.561C489.337 252.825 529.947 233.152 581.73 236.541" stroke="#0D34A0" stroke-width="5"/>
<path opacity="0.758621" d="M-31.1949 523.862C-1.75682 481.126 38.8537 461.453 90.6366 464.843C142.42 468.232 183.03 448.559 212.468 405.823C241.906 363.087 282.517 343.414 334.3 346.804C386.083 350.193 426.693 330.52 456.131 287.784C485.569 245.048 526.18 225.375 577.963 228.765" stroke="#0D34A0" stroke-width="5"/>
<path opacity="0.793103" d="M-34.962 516.085C-5.52391 473.349 35.0866 453.676 86.8695 457.066C138.652 460.455 179.263 440.782 208.701 398.046C238.139 355.31 278.75 335.637 330.533 339.027C382.316 342.416 422.926 322.743 452.364 280.007C481.802 237.271 522.413 217.598 574.196 220.988" stroke="#0D34A0" stroke-width="5"/>
<path opacity="0.827586" d="M-38.7296 508.309C-9.29149 465.573 31.319 445.9 83.102 449.289C134.885 452.679 175.495 433.006 204.933 390.27C234.372 347.534 274.982 327.861 326.765 331.25C378.548 334.64 419.158 314.967 448.597 272.231C478.035 229.495 518.645 209.821 570.428 213.211" stroke="#0D34A0" stroke-width="5"/>
<path opacity="0.862069" d="M-42.4967 500.532C-13.0586 457.796 27.5519 438.123 79.3349 441.512C131.118 444.902 171.728 425.229 201.166 382.493C230.604 339.757 271.215 320.084 322.998 323.473C374.781 326.863 415.391 307.19 444.829 264.454C474.268 221.718 514.878 202.045 566.661 205.434" stroke="#0D34A0" stroke-width="5"/>
<path opacity="0.896552" d="M-46.2642 492.755C-16.8262 450.019 23.7844 430.346 75.5673 433.736C127.35 437.125 167.961 417.452 197.399 374.716C226.837 331.98 267.447 312.307 319.23 315.696C371.013 319.086 411.624 299.413 441.062 256.677C470.5 213.941 511.11 194.268 562.893 197.657" stroke="#0D34A0" stroke-width="5"/>
<path opacity="0.931035" d="M-50.0313 484.978C-20.5932 442.242 20.0173 422.569 71.8002 425.959C123.583 429.348 164.194 409.675 193.632 366.939C223.07 324.203 263.68 304.53 315.463 307.92C367.246 311.309 407.857 291.636 437.295 248.9C466.733 206.164 507.343 186.491 559.126 189.881" stroke="#0D34A0" stroke-width="5"/>
<path opacity="0.965517" d="M-53.7989 477.201C-24.3608 434.465 16.2497 414.792 68.0326 418.182C119.816 421.571 160.426 401.898 189.864 359.162C219.302 316.426 259.913 296.753 311.696 300.143C363.479 303.532 404.089 283.859 433.527 241.123C462.965 198.387 503.576 178.714 555.359 182.104" stroke="#0D34A0" stroke-width="5"/>
<path d="M-57.566 469.425C-28.1279 426.689 12.4826 407.016 64.2655 410.405C116.048 413.795 156.659 394.122 186.097 351.386C215.535 308.65 256.146 288.977 307.929 292.366C359.711 295.756 400.322 276.083 429.76 233.347C459.198 190.611 499.809 170.937 551.592 174.327" stroke="#0D34A0" stroke-width="5"/>
</svg>
