<svg width="398" height="331" viewBox="0 0 398 331" fill="none" xmlns="http://www.w3.org/2000/svg">
<path d="M22.2 309.64L21.5001 310.354L21.5073 310.361L21.5146 310.368L22.2 309.64ZM23.08 23.2L23.7802 23.9139L23.08 23.2ZM215.8 24.08L215.052 24.7435L215.058 24.7505L215.8 24.08ZM214.48 309.2L213.78 308.486L213.773 308.493L214.48 309.2ZM74.56 263.88L73.8891 264.622L74.56 263.88ZM85.56 329.76C58.4491 329.76 37.6057 322.766 22.8854 308.912L21.5146 310.368C36.7143 324.674 58.1109 331.76 85.56 331.76V329.76ZM22.8999 308.926C8.48392 294.798 1.2 274.12 1.2 246.72H-0.799999C-0.799999 274.467 6.58275 295.735 21.5001 310.354L22.8999 308.926ZM1.2 246.72V88.32H-0.799999V246.72H1.2ZM1.2 88.32C1.2 60.0428 8.77583 38.6298 23.7802 23.9139L22.3798 22.486C6.87751 37.6902 -0.799999 59.6904 -0.799999 88.32H1.2ZM23.7802 23.9139C38.8026 9.18037 59.4997 1.75998 86 1.75998V-0.240021C59.1136 -0.240021 37.864 7.29958 22.3798 22.486L23.7802 23.9139ZM86 1.75998H153.76V-0.240021H86V1.75998ZM153.76 1.75998C181.146 1.75998 201.512 9.47497 215.052 24.7435L216.548 23.4165C202.515 7.59166 181.521 -0.240021 153.76 -0.240021V1.75998ZM215.058 24.7505C228.629 39.765 235.48 60.9086 235.48 88.32H237.48C237.48 60.5847 230.544 38.9016 216.542 23.4095L215.058 24.7505ZM235.48 88.32V246.72H237.48V88.32H235.48ZM235.48 246.72C235.48 273.823 228.198 294.356 213.78 308.486L215.18 309.914C230.095 295.297 237.48 274.177 237.48 246.72H235.48ZM213.773 308.493C199.636 322.629 179.68 329.76 153.76 329.76V331.76C180.053 331.76 200.577 324.517 215.187 309.907L213.773 308.493ZM153.76 329.76H85.56V331.76H153.76V329.76ZM100.96 273.24H136.16V271.24H100.96V273.24ZM136.16 273.24C148.047 273.24 157.147 270.267 163.267 264.147C169.387 258.027 172.36 248.927 172.36 237.04H170.36C170.36 248.619 167.466 257.12 161.853 262.733C156.24 268.346 147.739 271.24 136.16 271.24V273.24ZM172.36 237.04V94.48H170.36V237.04H172.36ZM172.36 94.48C172.36 81.4644 169.408 72.018 163.229 66.4567L161.891 67.9433C167.445 72.9419 170.36 81.6823 170.36 94.48H172.36ZM163.229 66.4567C157.134 60.9713 148.953 58.28 138.8 58.28V60.28C148.594 60.28 156.253 62.8687 161.891 67.9433L163.229 66.4567ZM138.8 58.28H98.76V60.28H138.8V58.28ZM98.76 58.28C87.4457 58.28 78.7797 61.26 72.955 67.3912C67.1394 73.5129 64.32 82.6049 64.32 94.48H66.32C66.32 82.8884 69.0739 74.3804 74.405 68.7687C79.727 63.1667 87.7809 60.28 98.76 60.28V58.28ZM64.32 94.48V236.6H66.32V94.48H64.32ZM64.32 236.6C64.32 249.35 67.4313 258.779 73.8891 264.622L75.2309 263.138C69.3688 257.835 66.32 249.077 66.32 236.6H64.32ZM73.8891 264.622C80.2925 270.415 89.3661 273.24 100.96 273.24V271.24C89.6739 271.24 81.1475 268.492 75.2309 263.138L73.8891 264.622ZM332.163 329H331.163V330H332.163V329ZM332.163 62.8H333.163V61.6618L332.034 61.8083L332.163 62.8ZM274.523 70.28H273.523V71.4182L274.652 71.2717L274.523 70.28ZM274.523 28.48L274.124 27.5631L273.523 27.8247V28.48H274.523ZM339.203 0.319984V-0.680016H338.995L338.804 -0.596886L339.203 0.319984ZM397.283 0.319984H398.283V-0.680016H397.283V0.319984ZM397.283 329V330H398.283V329H397.283ZM333.163 329V62.8H331.163V329H333.163ZM332.034 61.8083L274.394 69.2883L274.652 71.2717L332.292 63.7917L332.034 61.8083ZM275.523 70.28V28.48H273.523V70.28H275.523ZM274.922 29.3969L339.602 1.23685L338.804 -0.596886L274.124 27.5631L274.922 29.3969ZM339.203 1.31998H397.283V-0.680016H339.203V1.31998ZM396.283 0.319984V329H398.283V0.319984H396.283ZM397.283 328H332.163V330H397.283V328Z" fill="url(#paint0_linear_22_91)"/>
<defs>
<linearGradient id="paint0_linear_22_91" x1="200.5" y1="-112" x2="200.5" y2="473" gradientUnits="userSpaceOnUse">
<stop stop-color="#0044FF"/>
<stop offset="1" stop-color="#0044FF" stop-opacity="0"/>
</linearGradient>
</defs>
</svg>
