<?xml version="1.0" encoding="UTF-8" standalone="no"?>
<svg
   width="398"
   height="331"
   viewBox="0 0 398 331"
   fill="none"
   version="1.1"
   id="svg11"
   sodipodi:docname="01.svg"
   inkscape:version="1.1.1 (3bf5ae0d25, 2021-09-20)"
   xmlns:inkscape="http://www.inkscape.org/namespaces/inkscape"
   xmlns:sodipodi="http://sodipodi.sourceforge.net/DTD/sodipodi-0.dtd"
   xmlns="http://www.w3.org/2000/svg"
   xmlns:svg="http://www.w3.org/2000/svg">
  <sodipodi:namedview
     id="namedview13"
     pagecolor="#ffffff"
     bordercolor="#666666"
     borderopacity="1.0"
     inkscape:pageshadow="2"
     inkscape:pageopacity="0.0"
     inkscape:pagecheckerboard="0"
     showgrid="false"
     inkscape:zoom="1.7346547"
     inkscape:cx="215.31663"
     inkscape:cy="165.73904"
     inkscape:window-width="1920"
     inkscape:window-height="1001"
     inkscape:window-x="-9"
     inkscape:window-y="-9"
     inkscape:window-maximized="1"
     inkscape:current-layer="svg11" />
  <path
     d="m 26.590977,306.60304 -0.675635,0.70038 0.0069,0.007 0.007,0.007 z m 0.849492,-280.976135 0.675925,0.700282 z m 186.038681,0.863214 -0.72206,0.650844 0.006,0.0068 z m -1.27424,279.681321 -0.67572,-0.70039 -0.007,0.007 z m -135.069175,-44.45553 -0.647641,0.72785 z m 10.618646,64.62334 c -26.171005,0 -46.291796,-6.86059 -60.501766,-20.45033 l -1.323276,1.42823 C 40.602088,321.35027 61.2569,328.3011 87.754381,328.3011 Z M 27.266613,305.90266 C 13.350413,292.04415 6.3190155,271.76059 6.3190155,244.88324 h -1.930662 c 0,27.21773 7.1268005,48.08003 21.5269885,62.42018 z M 6.3190155,244.88324 V 89.504735 H 4.3883535 V 244.88324 Z m 0,-155.378505 c 0,-27.73781 7.3131875,-48.742354 21.7973785,-63.177548 l -1.35185,-1.400663 C 11.799695,39.840703 4.3883535,61.421248 4.3883535,89.504735 Z M 28.116394,26.327187 C 42.61799,11.8747 62.597553,4.5958549 88.179127,4.5958549 V 2.6340041 c -25.954288,0 -46.467197,7.3957829 -61.414583,22.2925199 z M 88.179127,4.5958549 H 153.58999 V 2.6340041 H 88.179127 Z m 65.410863,0 c 26.43657,0 46.09651,7.5678261 59.1671,22.5451081 l 1.44414,-1.301688 C 200.65473,10.316295 180.38855,2.6340041 153.58999,2.6340041 Z m 59.17289,22.5519741 c 13.10052,14.728097 19.714,35.468382 19.714,62.356906 h 1.93066 c 0,-27.206246 -6.69554,-48.475739 -20.2121,-63.672327 z m 19.714,62.356906 V 244.88324 h 1.93066 V 89.504735 Z m 0,155.378505 c 0,26.58601 -7.02954,46.72734 -20.94769,60.58781 l 1.35146,1.40077 c 14.39792,-14.33819 21.52689,-35.05532 21.52689,-61.98858 z m -20.95445,60.59468 c -13.64689,13.86635 -32.91105,20.86133 -57.93244,20.86133 v 1.96185 c 25.38146,0 45.19392,-7.10484 59.29742,-21.43615 z m -57.93244,20.86133 H 87.754381 v 1.96185 h 65.835609 z m -50.96951,-55.44188 h 33.97968 v -1.96185 h -33.97968 z m 33.97968,0 c 11.47489,0 20.2594,-2.91629 26.16724,-8.91955 5.90782,-6.00326 8.77775,-14.92968 8.77775,-26.58993 h -1.93065 c 0,11.35813 -2.79368,19.69698 -8.21208,25.20291 -5.41841,5.50592 -13.62469,8.34472 -24.80226,8.34472 z m 34.94499,-35.50948 V 95.547233 H 169.6145 V 235.38789 Z m 0,-139.840657 c 0,-12.767326 -2.84965,-22.033535 -8.81444,-27.488753 l -1.29161,1.458243 c 5.36145,4.903251 8.1754,13.476927 8.1754,26.03051 z M 162.73071,68.05848 c -5.88369,-5.380766 -13.78107,-8.020729 -23.58208,-8.020729 v 1.96185 c 9.45446,0 16.84794,2.53932 22.29047,7.517122 z m -23.58208,-8.020729 h -38.65188 v 1.96185 h 38.65188 z m -38.65188,0 c -10.922043,0 -19.287606,2.923157 -24.910372,8.937403 -5.613982,6.004928 -8.335638,14.923498 -8.335638,26.572079 h 1.930663 c 0,-11.370489 2.658427,-19.716199 7.804705,-25.220854 5.137494,-5.495142 12.912178,-8.326778 23.510642,-8.326778 z M 67.25074,95.547233 V 234.95628 h 1.930663 V 95.547233 Z m 0,139.409047 c 0,12.5068 3.003436,21.75594 9.237354,27.48748 l 1.295282,-1.45569 c -5.65887,-5.20184 -8.601973,-13.79279 -8.601973,-26.03179 z m 9.237354,27.48748 c 6.181403,5.6825 14.940435,8.45361 26.132386,8.45361 v -1.96185 c -10.894821,0 -19.125624,-2.69558 -24.837104,-7.94745 z m 249.319936,63.14999 h -0.96533 v 0.98092 h 0.96533 z m 0,-261.122218 h 0.96532 v -1.116489 l -1.08985,0.143706 z m -55.64172,7.337318 h -0.96532 v 1.116489 l 1.08986,-0.143706 z m 0,-41.002662 -0.38516,-0.89941 -0.58016,0.25661 v 0.6428 z M 332.60396,3.183327 V 2.202402 h -0.20079 l -0.18437,0.081544 z m 56.06645,0 h 0.96534 V 2.202402 h -0.96534 z m 0,322.410423 v 0.98092 h 0.96534 v -0.98092 z m -61.89706,0 V 64.471532 H 324.8427 V 325.59375 Z m -1.08985,-262.095001 -55.64171,7.337317 0.24906,1.945567 55.64171,-7.337318 z M 271.13165,71.80885 V 30.806188 h -1.93066 V 71.80885 Z M 270.55149,31.705598 332.98912,4.0827037 332.2188,2.2839463 269.78115,29.906778 Z m 62.05247,-27.54135 h 56.06645 V 2.202402 H 332.60396 Z M 387.70508,3.183327 V 325.59375 h 1.93067 V 3.183327 Z m 0.96533,321.429493 h -62.86238 v 1.96185 h 62.86238 z"
     fill="url(#paint0_linear_22_91)"
     id="path2"
     style="fill:url(#paint0_linear_22_91);stroke-width:0.973097" />
  <defs
     id="defs9">
    <linearGradient
       id="paint0_linear_22_91"
       x1="200.5"
       y1="-112"
       x2="200.5"
       y2="473"
       gradientUnits="userSpaceOnUse"
       gradientTransform="matrix(0.9653315,0,0,0.98092492,5.1606177,2.8694467)">
      <stop
         stop-color="#0044FF"
         id="stop4" />
      <stop
         offset="1"
         stop-color="#0044FF"
         stop-opacity="0"
         id="stop6" />
    </linearGradient>
  </defs>
</svg>
