<svg width="62" height="60" viewBox="0 0 62 60" fill="none" xmlns="http://www.w3.org/2000/svg">
<path d="M16.8861 21.2055L1.74325 20.9014L1.00005 57.9172L13.6191 58.1705L16.6057 56.1265M16.8861 21.2055L16.7678 27.0943M16.8861 21.2055C18.8884 19.2819 23.9885 15.3727 28.3699 15.124C32.7512 14.8753 36.8951 9.68434 37.8096 6.05574C38.5482 3.1249 41.3183 -1.02757 45.8354 4.53376C47.871 7.94101 43.8995 17.119 37.0765 21.6108C37.0765 21.6108 52.2278 21.4943 56.005 21.9909C59.7823 22.4875 62.2787 28.0922 57.4933 31.6992M57.4933 31.6992L53.287 31.6147M57.4933 31.6992C58.7074 34.1081 59.8685 39.153 54.8006 40.0612M54.8006 40.0612L51.0149 39.9852M54.8006 40.0612C57.2991 41.3738 57.344 47.5184 52.9492 48.4401M52.9492 48.4401L48.3222 48.3472M52.9492 48.4401C53.751 50.4199 54.4192 54.8658 50.6771 56.8105L16.6057 56.1265M16.6057 56.1265L17.0364 34.6741" stroke="url(#paint0_linear_22_155)" stroke-width="2" stroke-linecap="round" stroke-linejoin="round"/>
<defs>
<linearGradient id="paint0_linear_22_155" x1="31.3836" y1="1.58709" x2="30.2408" y2="58.5042" gradientUnits="userSpaceOnUse">
<stop stop-color="#0044FF"/>
<stop offset="1" stop-color="#00A3FF"/>
</linearGradient>
</defs>
</svg>
