<svg width="504" height="331" viewBox="0 0 504 331" fill="none" xmlns="http://www.w3.org/2000/svg">
<path d="M22.2 309.64L21.5001 310.354L21.5073 310.361L21.5146 310.368L22.2 309.64ZM23.08 23.2L23.7802 23.9139L23.08 23.2ZM215.8 24.08L215.052 24.7435L215.058 24.7505L215.8 24.08ZM214.48 309.2L213.78 308.486L213.773 308.493L214.48 309.2ZM74.56 263.88L73.8891 264.622L74.56 263.88ZM85.56 329.76C58.4491 329.76 37.6057 322.766 22.8854 308.912L21.5146 310.368C36.7143 324.674 58.1109 331.76 85.56 331.76V329.76ZM22.8999 308.926C8.48392 294.798 1.2 274.12 1.2 246.72H-0.799999C-0.799999 274.467 6.58275 295.735 21.5001 310.354L22.8999 308.926ZM1.2 246.72V88.32H-0.799999V246.72H1.2ZM1.2 88.32C1.2 60.0428 8.77583 38.6298 23.7802 23.9139L22.3798 22.486C6.87751 37.6902 -0.799999 59.6904 -0.799999 88.32H1.2ZM23.7802 23.9139C38.8026 9.18037 59.4997 1.75998 86 1.75998V-0.240021C59.1136 -0.240021 37.864 7.29958 22.3798 22.486L23.7802 23.9139ZM86 1.75998H153.76V-0.240021H86V1.75998ZM153.76 1.75998C181.146 1.75998 201.512 9.47497 215.052 24.7435L216.548 23.4165C202.515 7.59166 181.521 -0.240021 153.76 -0.240021V1.75998ZM215.058 24.7505C228.629 39.765 235.48 60.9086 235.48 88.32H237.48C237.48 60.5847 230.544 38.9016 216.542 23.4095L215.058 24.7505ZM235.48 88.32V246.72H237.48V88.32H235.48ZM235.48 246.72C235.48 273.823 228.198 294.356 213.78 308.486L215.18 309.914C230.095 295.297 237.48 274.177 237.48 246.72H235.48ZM213.773 308.493C199.636 322.629 179.68 329.76 153.76 329.76V331.76C180.053 331.76 200.577 324.517 215.187 309.907L213.773 308.493ZM153.76 329.76H85.56V331.76H153.76V329.76ZM100.96 273.24H136.16V271.24H100.96V273.24ZM136.16 273.24C148.047 273.24 157.147 270.267 163.267 264.147C169.387 258.027 172.36 248.927 172.36 237.04H170.36C170.36 248.619 167.466 257.12 161.853 262.733C156.24 268.346 147.739 271.24 136.16 271.24V273.24ZM172.36 237.04V94.48H170.36V237.04H172.36ZM172.36 94.48C172.36 81.4644 169.408 72.018 163.229 66.4567L161.891 67.9433C167.445 72.9419 170.36 81.6823 170.36 94.48H172.36ZM163.229 66.4567C157.134 60.9713 148.953 58.28 138.8 58.28V60.28C148.594 60.28 156.253 62.8687 161.891 67.9433L163.229 66.4567ZM138.8 58.28H98.76V60.28H138.8V58.28ZM98.76 58.28C87.4457 58.28 78.7797 61.26 72.955 67.3912C67.1394 73.5129 64.32 82.6049 64.32 94.48H66.32C66.32 82.8884 69.0739 74.3804 74.405 68.7687C79.727 63.1667 87.7809 60.28 98.76 60.28V58.28ZM64.32 94.48V236.6H66.32V94.48H64.32ZM64.32 236.6C64.32 249.35 67.4313 258.779 73.8891 264.622L75.2309 263.138C69.3688 257.835 66.32 249.077 66.32 236.6H64.32ZM73.8891 264.622C80.2925 270.415 89.3661 273.24 100.96 273.24V271.24C89.6739 271.24 81.1475 268.492 75.2309 263.138L73.8891 264.622ZM281.123 329H280.123V330H281.123V329ZM281.123 276.64L280.419 275.93L280.123 276.223V276.64H281.123ZM389.803 168.84L389.104 168.125L389.099 168.13L389.803 168.84ZM418.403 134.52L417.549 133.999L417.545 134.005L418.403 134.52ZM417.523 72.48L416.831 73.202L417.523 72.48ZM288.603 62.36H287.603V63.36H288.603V62.36ZM288.603 11.32L288.419 10.3371L287.603 10.49V11.32H288.603ZM335.243 4.27998L335.363 5.27278L335.37 5.2719L335.377 5.27092L335.243 4.27998ZM452.723 11.32L452.283 12.2181L452.29 12.2215L452.723 11.32ZM483.963 41.68L484.869 41.2571L483.963 41.68ZM480.003 147.28L480.884 147.752L480.003 147.28ZM440.843 197.44L440.142 196.727L440.138 196.731L440.843 197.44ZM367.803 270.04L367.098 269.331L365.378 271.04H367.803V270.04ZM503.323 270.04H504.323V269.04H503.323V270.04ZM503.323 329V330H504.323V329H503.323ZM282.123 329V276.64H280.123V329H282.123ZM281.827 277.35L390.507 169.55L389.099 168.13L280.419 275.93L281.827 277.35ZM390.502 169.555C403.442 156.909 413.04 145.402 419.26 135.034L417.545 134.005C411.446 144.172 401.977 155.544 389.104 168.125L390.502 169.555ZM419.256 135.041C425.805 124.325 429.083 112.705 429.083 100.2H427.083C427.083 112.335 423.907 123.595 417.55 133.999L419.256 135.041ZM429.083 100.2C429.083 88.2537 425.491 78.7309 418.215 71.758L416.831 73.202C423.635 79.7224 427.083 88.6796 427.083 100.2H429.083ZM418.215 71.758C410.885 64.7332 398.08 61.36 380.123 61.36V63.36C397.952 63.36 410.081 66.7334 416.831 73.202L418.215 71.758ZM380.123 61.36H288.603V63.36H380.123V61.36ZM289.603 62.36V11.32H287.603V62.36H289.603ZM288.787 12.3028C302.842 9.66756 318.367 7.32401 335.363 5.27278L335.123 3.28719C318.092 5.34265 302.524 7.69242 288.419 10.3371L288.787 12.3028ZM335.377 5.27092C352.631 2.93137 371.799 1.75998 392.883 1.75998V-0.240021C371.727 -0.240021 352.468 0.935249 335.108 3.28905L335.377 5.27092ZM392.883 1.75998C418.331 1.75998 438.104 5.27338 452.283 12.218L453.163 10.4219C438.595 3.28658 418.474 -0.240021 392.883 -0.240021V1.75998ZM452.29 12.2215C466.774 19.1739 477.006 29.137 483.057 42.1029L484.869 41.2571C478.6 27.823 468.005 17.5461 453.156 10.4184L452.29 12.2215ZM483.057 42.1029C489.14 55.138 492.203 70.9722 492.203 89.64H494.203C494.203 70.7612 491.106 54.6219 484.869 41.2571L483.057 42.1029ZM492.203 89.64C492.203 111.505 487.831 130.55 479.121 146.808L480.884 147.752C489.775 131.156 494.203 111.775 494.203 89.64H492.203ZM479.121 146.808C470.381 163.123 457.397 179.764 440.142 196.727L441.544 198.153C458.902 181.089 472.025 164.29 480.884 147.752L479.121 146.808ZM440.138 196.731L367.098 269.331L368.508 270.749L441.548 198.149L440.138 196.731ZM367.803 271.04H503.323V269.04H367.803V271.04ZM502.323 270.04V329H504.323V270.04H502.323ZM503.323 328H281.123V330H503.323V328Z" fill="url(#paint0_linear_22_93)"/>
<defs>
<linearGradient id="paint0_linear_22_93" x1="247.5" y1="-112" x2="247.5" y2="473" gradientUnits="userSpaceOnUse">
<stop stop-color="#0044FF"/>
<stop offset="1" stop-color="#0044FF" stop-opacity="0"/>
</linearGradient>
</defs>
</svg>
