<?xml version="1.0" encoding="UTF-8" standalone="no"?>
<svg
   width="504"
   height="331"
   viewBox="0 0 504 331"
   fill="none"
   version="1.1"
   id="svg11"
   sodipodi:docname="02.svg"
   inkscape:version="1.1.1 (3bf5ae0d25, 2021-09-20)"
   xmlns:inkscape="http://www.inkscape.org/namespaces/inkscape"
   xmlns:sodipodi="http://sodipodi.sourceforge.net/DTD/sodipodi-0.dtd"
   xmlns="http://www.w3.org/2000/svg"
   xmlns:svg="http://www.w3.org/2000/svg">
  <sodipodi:namedview
     id="namedview13"
     pagecolor="#ffffff"
     bordercolor="#666666"
     borderopacity="1.0"
     inkscape:pageshadow="2"
     inkscape:pageopacity="0.0"
     inkscape:pagecheckerboard="0"
     showgrid="false"
     inkscape:zoom="1.7346547"
     inkscape:cx="252.21158"
     inkscape:cy="165.16255"
     inkscape:window-width="1920"
     inkscape:window-height="1001"
     inkscape:window-x="-9"
     inkscape:window-y="-9"
     inkscape:window-maximized="1"
     inkscape:current-layer="svg11" />
  <path
     d="m 27.937585,305.14301 -0.681527,0.69168 0.007,0.007 0.0071,0.007 z m 0.856902,-277.487278 0.68182,0.691587 z m 187.661233,0.852495 -0.72837,0.642761 0.006,0.0068 z m -1.28535,276.208533 -0.68163,-0.69168 -0.007,0.007 z m -136.247198,-43.90351 -0.653288,0.7188 z m 10.711258,63.82091 c -26.399257,0 -46.695533,-6.77541 -61.029435,-20.1964 l -1.334818,1.4105 c 14.800719,13.85886 35.635673,20.72339 62.364253,20.72339 z M 28.619114,304.45133 C 14.581543,290.7649 7.4888211,270.73319 7.4888211,244.18958 H 5.5413207 c 0,26.87977 7.1889573,47.48303 21.7147373,61.64511 z M 7.4888211,244.18958 V 90.740396 H 5.5413207 V 244.18958 Z m 0,-153.449184 c 0,-27.393392 7.3769699,-48.137125 21.9874859,-62.393077 L 28.112666,26.964048 C 13.017301,41.693038 5.5413207,63.005619 5.5413207,90.740396 Z M 29.476307,28.347319 C 44.104379,14.074287 64.258195,6.8858222 90.062882,6.8858222 V 4.9483315 c -26.180652,0 -46.872466,7.3039495 -61.950216,22.0157165 z M 90.062882,6.8858222 H 156.04423 V 4.9483315 H 90.062882 Z m 65.981348,0 c 26.66714,0 46.49854,7.4738558 59.68312,22.2651658 l 1.45674,-1.285524 C 203.51944,12.535232 183.07652,4.9483315 156.04423,4.9483315 Z M 215.73321,29.15777 c 13.21477,14.545221 19.88593,35.027974 19.88593,61.582626 h 1.94749 c 0,-26.868428 -6.75394,-47.87382 -20.38838,-62.881712 z m 19.88593,61.582626 V 244.18958 h 1.94749 V 90.740396 Z m 0,153.449184 c 0,26.25589 -7.09085,46.14713 -21.1304,59.8355 l 1.36325,1.38337 c 14.5235,-14.16014 21.71464,-34.62003 21.71464,-61.21887 z m -21.13721,59.84228 c -13.76592,13.69417 -33.19808,20.6023 -58.4377,20.6023 v 1.93749 c 25.60282,0 45.58808,-7.01662 59.81459,-21.16998 z m -58.4377,20.6023 h -66.4098 v 1.93749 h 66.4098 z m -51.41404,-54.75347 h 34.27602 v -1.93748 h -34.27602 z m 34.27602,0 c 11.57498,0 20.43611,-2.88007 26.39547,-8.80879 5.95935,-5.92872 8.85431,-14.74429 8.85431,-26.25977 h -1.9475 c 0,11.2171 -2.81803,19.4524 -8.2837,24.88997 -5.46566,5.43756 -13.74351,8.24111 -25.01858,8.24111 z m 35.24978,-35.06856 V 96.707866 h -1.9475 V 234.81213 Z m 0,-138.104264 c 0,-12.608796 -2.87451,-21.759947 -8.89131,-27.147428 l -1.30288,1.440136 c 5.40821,4.842368 8.24669,13.309585 8.24669,25.707292 z m -8.89131,-27.147428 c -5.93502,-5.313953 -13.90127,-7.921137 -23.78776,-7.921137 v 1.93749 c 9.53692,0 16.99486,2.50779 22.48488,7.423783 z m -23.78776,-7.921137 h -38.98898 v 1.93749 h 38.98898 z m -38.98898,0 c -11.017308,0 -19.455832,2.88686 -25.127637,8.826429 -5.662945,5.930364 -8.408337,14.738193 -8.408337,26.242136 h 1.9475 c 0,-11.229304 2.681613,-19.471385 7.872775,-24.90769 5.182302,-5.426909 13.024792,-8.223385 23.715699,-8.223385 z M 68.951966,96.707866 V 234.38589 h 1.9475 V 96.707866 Z m 0,137.678024 c 0,12.3515 3.02963,21.48579 9.317918,27.14616 l 1.306578,-1.43761 c -5.708224,-5.13726 -8.676996,-13.62152 -8.676996,-25.70855 z m 9.317918,27.14616 c 6.235315,5.61194 15.070739,8.34864 26.360306,8.34864 v -1.93748 c -10.989847,0 -19.292434,-2.66211 -25.053728,-7.84877 z m 201.794166,62.36586 h -0.97376 v 0.96874 h 0.97376 z m 0,-50.72348 -0.68553,-0.68782 -0.28823,0.28386 v 0.40396 z m 105.82722,-104.4307 -0.68065,-0.69266 -0.005,0.005 z m 27.84927,-33.24731 -0.83159,-0.50473 -0.004,0.006 z m -0.8569,-60.100941 -0.67383,0.699433 z M 287.34769,65.59178 h -0.97375 v 0.968745 h 0.97375 z m 0,-49.444737 -0.17917,-0.952181 -0.79458,0.148123 v 0.804058 z m 45.41574,-6.8199845 0.11685,0.9617705 0.007,-8.53e-4 0.007,-9.49e-4 z m 114.39623,6.8199845 -0.42845,0.870029 0.007,0.0032 z m 30.41998,29.411094 0.88222,-0.409683 z m -3.85606,102.299463 0.85787,0.45724 z m -38.13207,48.59224 -0.6826,-0.69072 -0.004,0.004 z m -71.12277,70.33088 -0.68649,-0.68685 -1.67484,1.65559 h 2.36133 z m 131.9627,0 h 0.97376 v -0.96875 h -0.97376 z m 0,57.11719 v 0.96874 h 0.97376 v -0.96874 z m -215.39365,0 v -50.72348 h -1.9475 v 50.72348 z m -0.28823,-50.03568 105.82723,-104.43068 -1.37105,-1.37562 -105.82722,104.43068 z M 386.57191,169.43639 c 12.60034,-12.25075 21.9464,-23.3981 28.00313,-33.44204 l -1.66998,-0.99685 c -5.9389,9.84923 -15.15936,20.8658 -27.69444,33.05357 z m 27.99923,-33.43526 c 6.37711,-10.38108 9.56905,-21.63789 9.56905,-33.75204 h -1.9475 c 0,11.75572 -3.09264,22.66379 -9.28276,32.7426 z m 9.56905,-33.75204 c 0,-11.572921 -3.49771,-20.798084 -10.58272,-27.553046 l -1.34766,1.398868 c 6.62539,6.316604 9.98288,14.993846 9.98288,26.154178 z M 413.55747,74.696044 C 406.41988,67.890806 393.95101,64.623036 376.46536,64.623036 v 1.937489 c 17.361,0 29.17163,3.267964 35.74445,9.534387 z M 376.46536,64.623036 h -89.11767 v 1.937489 h 89.11767 z M 288.32145,65.59178 V 16.147043 h -1.94751 V 65.59178 Z m -0.79459,-48.492656 c 13.68606,-2.552874 28.80354,-4.823176 45.35342,-6.810295 l -0.2337,-1.9235299 c -16.58394,1.9912159 -31.7433,4.2675429 -45.47806,6.8295629 z m 45.36705,-6.812097 C 349.695,8.0205999 368.35986,6.8858222 388.89042,6.8858222 V 4.9483315 c -20.60067,0 -39.35413,1.1385367 -56.25845,3.4187688 z m 55.99651,-3.4012048 c 24.78001,0 44.03398,3.4035878 57.84079,10.1311528 l 0.8569,-1.739962 C 433.40251,8.3647078 413.80967,4.9483315 388.89042,4.9483315 Z m 57.8476,10.1345448 c 14.10381,6.735101 24.06723,16.386803 29.95939,28.947451 l 1.76445,-0.819364 C 472.35741,32.134239 462.04052,22.178545 447.58129,15.273622 Z m 29.95939,28.947451 c 5.92333,12.627687 8.90593,27.966987 8.90593,46.051323 h 1.9475 c 0,-18.288741 -3.0157,-33.923605 -9.08898,-46.870687 z m 8.90593,46.051323 c 0,21.181609 -4.25724,39.631349 -12.7386,55.381209 l 1.71671,0.91449 c 8.65762,-16.07729 12.96939,-34.85253 12.96939,-56.295699 z m -12.7386,55.381209 c -8.51059,15.80507 -21.15377,31.92595 -37.95583,48.35877 l 1.3652,1.38144 c 16.90236,-16.53067 29.68088,-32.80461 38.30734,-48.82572 z m -37.95974,48.36264 -71.12275,70.33088 1.37299,1.37368 71.12276,-70.33088 z m -70.43626,71.98647 h 131.9627 v -1.93749 h -131.9627 z m 130.98896,-0.96874 v 57.11719 h 1.9475 v -57.11719 z m 0.97374,56.14845 H 280.06405 v 1.93748 h 216.36739 z"
     fill="url(#paint0_linear_22_93)"
     id="path2"
     style="fill:url(#paint0_linear_22_93);stroke-width:0.971244" />
  <defs
     id="defs9">
    <linearGradient
       id="paint0_linear_22_93"
       x1="247.5"
       y1="-112"
       x2="247.5"
       y2="473"
       gradientUnits="userSpaceOnUse"
       gradientTransform="matrix(0.97375067,0,0,0.96874482,6.32032,5.1808503)">
      <stop
         stop-color="#0044FF"
         id="stop4" />
      <stop
         offset="1"
         stop-color="#0044FF"
         stop-opacity="0"
         id="stop6" />
    </linearGradient>
  </defs>
</svg>
