<svg width="496" height="332" viewBox="0 0 496 332" fill="none" xmlns="http://www.w3.org/2000/svg">
<path d="M22.575 309.64L21.8751 310.354L21.8823 310.361L21.8896 310.368L22.575 309.64ZM23.455 23.2L24.1552 23.9139L23.455 23.2ZM216.175 24.08L215.427 24.7435L215.433 24.7505L216.175 24.08ZM214.855 309.2L214.155 308.486L214.148 308.493L214.855 309.2ZM74.935 263.88L74.2641 264.622L74.935 263.88ZM85.935 329.76C58.8241 329.76 37.9807 322.766 23.2604 308.912L21.8896 310.368C37.0893 324.674 58.4859 331.76 85.935 331.76V329.76ZM23.2749 308.926C8.85892 294.798 1.575 274.12 1.575 246.72H-0.424999C-0.424999 274.467 6.95775 295.735 21.8751 310.354L23.2749 308.926ZM1.575 246.72V88.32H-0.424999V246.72H1.575ZM1.575 88.32C1.575 60.0428 9.15083 38.6298 24.1552 23.9139L22.7548 22.486C7.25251 37.6902 -0.424999 59.6904 -0.424999 88.32H1.575ZM24.1552 23.9139C39.1776 9.18037 59.8747 1.75998 86.375 1.75998V-0.240021C59.4886 -0.240021 38.239 7.29958 22.7548 22.486L24.1552 23.9139ZM86.375 1.75998H154.135V-0.240021H86.375V1.75998ZM154.135 1.75998C181.521 1.75998 201.887 9.47497 215.427 24.7435L216.923 23.4165C202.89 7.59166 181.896 -0.240021 154.135 -0.240021V1.75998ZM215.433 24.7505C229.004 39.765 235.855 60.9086 235.855 88.32H237.855C237.855 60.5847 230.919 38.9016 216.917 23.4095L215.433 24.7505ZM235.855 88.32V246.72H237.855V88.32H235.855ZM235.855 246.72C235.855 273.823 228.573 294.356 214.155 308.486L215.555 309.914C230.47 295.297 237.855 274.177 237.855 246.72H235.855ZM214.148 308.493C200.011 322.629 180.055 329.76 154.135 329.76V331.76C180.428 331.76 200.952 324.517 215.562 309.907L214.148 308.493ZM154.135 329.76H85.935V331.76H154.135V329.76ZM101.335 273.24H136.535V271.24H101.335V273.24ZM136.535 273.24C148.422 273.24 157.522 270.267 163.642 264.147C169.762 258.027 172.735 248.927 172.735 237.04H170.735C170.735 248.619 167.841 257.12 162.228 262.733C156.615 268.346 148.114 271.24 136.535 271.24V273.24ZM172.735 237.04V94.48H170.735V237.04H172.735ZM172.735 94.48C172.735 81.4644 169.783 72.018 163.604 66.4567L162.266 67.9433C167.82 72.9419 170.735 81.6823 170.735 94.48H172.735ZM163.604 66.4567C157.509 60.9713 149.328 58.28 139.175 58.28V60.28C148.969 60.28 156.628 62.8687 162.266 67.9433L163.604 66.4567ZM139.175 58.28H99.135V60.28H139.175V58.28ZM99.135 58.28C87.8207 58.28 79.1547 61.26 73.33 67.3912C67.5144 73.5129 64.695 82.6049 64.695 94.48H66.695C66.695 82.8884 69.4489 74.3804 74.78 68.7687C80.102 63.1667 88.1559 60.28 99.135 60.28V58.28ZM64.695 94.48V236.6H66.695V94.48H64.695ZM64.695 236.6C64.695 249.35 67.8063 258.779 74.2641 264.622L75.6059 263.138C69.7438 257.835 66.695 249.077 66.695 236.6H64.695ZM74.2641 264.622C80.6675 270.415 89.7411 273.24 101.335 273.24V271.24C90.0489 271.24 81.5225 268.492 75.6059 263.138L74.2641 264.622ZM335.178 329L335.26 328.003L335.247 328.002L335.178 329ZM277.978 322.4H276.978V323.242L277.808 323.385L277.978 322.4ZM277.978 270.04V269.04H276.978V270.04H277.978ZM417.018 263.88L416.583 262.979L416.571 262.986L417.018 263.88ZM387.098 193.48L387.147 192.481L387.136 192.481L387.098 193.48ZM307.018 190.4H306.018V191.362L306.979 191.399L307.018 190.4ZM307.018 140.24L306.961 139.242L306.018 139.295V140.24H307.018ZM384.458 135.84L384.413 134.841L384.401 134.842L384.458 135.84ZM414.378 70.72L413.788 71.5274L413.795 71.5327L413.802 71.5378L414.378 70.72ZM285.018 62.36H284.018V63.36H285.018V62.36ZM285.018 10.44L284.862 9.45222L284.018 9.58549V10.44H285.018ZM339.578 3.39999L339.682 4.39458L339.578 3.39999ZM401.618 0.759979L401.604 1.75989L401.608 1.75993L401.618 0.759979ZM467.178 21.88L466.507 22.6219L466.515 22.6286L466.522 22.6352L467.178 21.88ZM478.618 145.52L477.844 144.887L477.842 144.889L478.618 145.52ZM450.018 165.32L449.702 164.371L446.67 165.382L449.737 166.28L450.018 165.32ZM481.698 188.64L480.9 189.243L480.907 189.253L481.698 188.64ZM470.698 311.4L471.333 312.173L471.341 312.166L470.698 311.4ZM402.498 330.64C379.056 330.64 356.643 329.761 335.26 328.003L335.096 329.997C356.539 331.759 379.006 332.64 402.498 332.64V330.64ZM335.247 328.002C314.154 326.538 295.121 324.341 278.148 321.415L277.808 323.385C294.861 326.326 313.962 328.529 335.109 329.998L335.247 328.002ZM278.978 322.4V270.04H276.978V322.4H278.978ZM277.978 271.04H377.858V269.04H277.978V271.04ZM377.858 271.04C395.786 271.04 409.035 268.989 417.465 264.774L416.571 262.986C408.574 266.984 395.716 269.04 377.858 269.04V271.04ZM417.453 264.781C426.405 260.459 430.778 251.965 430.778 239.68H428.778C428.778 251.448 424.644 259.088 416.583 262.979L417.453 264.781ZM430.778 239.68V226.04H428.778V239.68H430.778ZM430.778 226.04C430.778 214.049 426.558 205.448 417.954 200.532L416.962 202.268C424.785 206.739 428.778 214.565 428.778 226.04H430.778ZM417.954 200.532C409.572 195.742 399.289 193.073 387.147 192.481L387.049 194.479C398.96 195.06 408.917 197.671 416.962 202.268L417.954 200.532ZM387.136 192.481L307.056 189.401L306.979 191.399L387.059 194.479L387.136 192.481ZM308.018 190.4V140.24H306.018V190.4H308.018ZM307.075 141.238L384.515 136.838L384.401 134.842L306.961 139.242L307.075 141.238ZM384.502 136.839C397.778 136.249 408.221 133.887 415.746 129.673L414.769 127.927C407.628 131.927 397.538 134.258 384.413 134.841L384.502 136.839ZM415.746 129.673C423.46 125.353 427.258 117.935 427.258 107.68H425.258C425.258 117.372 421.722 124.034 414.769 127.927L415.746 129.673ZM427.258 107.68V96.68H425.258V107.68H427.258ZM427.258 96.68C427.258 84.6993 423.197 75.7036 414.953 69.9022L413.802 71.5378C421.398 76.883 425.258 85.194 425.258 96.68H427.258ZM414.968 69.9126C407.072 64.1425 393.89 61.36 375.658 61.36V63.36C393.799 63.36 406.43 66.1508 413.788 71.5274L414.968 69.9126ZM375.658 61.36H285.018V63.36H375.658V61.36ZM286.018 62.36V10.44H284.018V62.36H286.018ZM285.174 11.4277C301.874 8.79088 320.043 6.44638 339.682 4.39458L339.474 2.40541C319.806 4.46026 301.602 6.80908 284.862 9.45222L285.174 11.4277ZM339.682 4.39458C359.292 2.34569 379.933 1.46703 401.604 1.75989L401.631 -0.239929C379.889 -0.533737 359.17 0.347618 339.474 2.40541L339.682 4.39458ZM401.608 1.75993C429.91 2.0517 451.494 9.05252 466.507 22.6219L467.848 21.1381C452.355 7.13411 430.232 0.0549088 401.628 -0.239967L401.608 1.75993ZM466.522 22.6352C481.794 35.8899 489.498 55.3795 489.498 81.28H491.498C491.498 54.9672 483.655 34.8567 467.833 21.1248L466.522 22.6352ZM489.498 81.28V105.48H491.498V81.28H489.498ZM489.498 105.48C489.498 122.345 485.573 135.44 477.844 144.887L479.392 146.153C487.503 136.24 491.498 122.641 491.498 105.48H489.498ZM477.842 144.889C470.335 154.129 460.961 160.618 449.702 164.371L450.334 166.269C461.955 162.395 471.648 155.684 479.394 146.151L477.842 144.889ZM449.737 166.28C461.518 169.728 471.909 177.352 480.9 189.243L482.495 188.037C473.3 175.875 462.571 167.952 450.299 164.36L449.737 166.28ZM480.907 189.253C489.83 200.766 494.338 215.931 494.338 234.84H496.338C496.338 215.615 491.752 199.98 482.488 188.027L480.907 189.253ZM494.338 234.84V251.56H496.338V234.84H494.338ZM494.338 251.56C494.338 277.442 486.206 297.078 470.055 310.634L471.341 312.166C488.043 298.148 496.338 277.892 496.338 251.56H494.338ZM470.063 310.627C453.871 323.928 431.391 330.64 402.498 330.64V332.64C431.685 332.64 454.671 325.859 471.333 312.173L470.063 310.627Z" fill="url(#paint0_linear_131_1087)"/>
<defs>
<linearGradient id="paint0_linear_131_1087" x1="246.375" y1="-112" x2="246.375" y2="473" gradientUnits="userSpaceOnUse">
<stop stop-color="#0044FF"/>
<stop offset="1" stop-color="#0044FF" stop-opacity="0"/>
</linearGradient>
</defs>
</svg>
