<svg width="57" height="46" viewBox="0 0 57 46" fill="none" xmlns="http://www.w3.org/2000/svg">
<path d="M8.595 45H7.595V46H8.595V45ZM8.595 8.7H9.595V7.56184L8.46631 7.70831L8.595 8.7ZM0.735 9.72H-0.265V10.8582L0.863692 10.7117L0.735 9.72ZM0.735 4.02L0.335818 3.10313L-0.265 3.36471V4.02H0.735ZM9.555 0.179997V-0.820003H9.34675L9.15582 -0.736874L9.555 0.179997ZM17.475 0.179997H18.475V-0.820003H17.475V0.179997ZM17.475 45V46H18.475V45H17.475ZM9.595 45V8.7H7.595V45H9.595ZM8.46631 7.70831L0.606308 8.72832L0.863692 10.7117L8.72369 9.69168L8.46631 7.70831ZM1.735 9.72V4.02H-0.265V9.72H1.735ZM1.13418 4.93687L9.95418 1.09687L9.15582 -0.736874L0.335818 3.10313L1.13418 4.93687ZM9.555 1.18H17.475V-0.820003H9.555V1.18ZM16.475 0.179997V45H18.475V0.179997H16.475ZM17.475 44H8.595V46H17.475V44ZM27.4992 42.36L26.7993 43.0742L26.8065 43.0813L26.8139 43.0882L27.4992 42.36ZM27.6192 3.3L28.3194 4.01394L27.6192 3.3ZM53.8992 3.42L53.151 4.08352L53.1573 4.09054L53.8992 3.42ZM53.7192 42.3L53.0193 41.5858L53.0121 41.5929L53.7192 42.3ZM34.6392 36.12L33.9683 36.8615L34.6392 36.12ZM36.1392 44.24C32.5883 44.24 29.9849 43.3262 28.1846 41.6318L26.8139 43.0882C29.0935 45.2338 32.2501 46.24 36.1392 46.24V44.24ZM28.1991 41.6458C26.4498 39.9314 25.4992 37.3665 25.4992 33.78H23.4992C23.4992 37.7135 24.5486 40.8686 26.7993 43.0742L28.1991 41.6458ZM25.4992 33.78V12.18H23.4992V33.78H25.4992ZM25.4992 12.18C25.4992 8.4762 26.4884 5.80977 28.3194 4.01394L26.919 2.58606C24.5901 4.87022 23.4992 8.12379 23.4992 12.18H25.4992ZM28.3194 4.01394C30.1685 2.20039 32.7523 1.24 36.1992 1.24V-0.760003C32.3661 -0.760003 29.2299 0.319601 26.919 2.58606L28.3194 4.01394ZM36.1992 1.24H45.4392V-0.760003H36.1992V1.24ZM45.4392 1.24C49.0119 1.24 51.5177 2.24165 53.151 4.08349L54.6474 2.75651C52.5207 0.358344 49.3866 -0.760003 45.4392 -0.760003V1.24ZM53.1573 4.09054C54.8215 5.93169 55.7192 8.58194 55.7192 12.18H57.7192C57.7192 8.25805 56.737 5.06831 54.6411 2.74946L53.1573 4.09054ZM55.7192 12.18V33.78H57.7192V12.18H55.7192ZM55.7192 33.78C55.7192 37.3229 54.7706 39.8695 53.0193 41.5858L54.4192 43.0142C56.6679 40.8105 57.7192 37.6771 57.7192 33.78H55.7192ZM53.0121 41.5929C51.2889 43.3161 48.8129 44.24 45.4392 44.24V46.24C49.1855 46.24 52.2295 45.2039 54.4263 43.0071L53.0121 41.5929ZM45.4392 44.24H36.1392V46.24H45.4392V44.24ZM38.2392 38.26H43.0392V36.26H38.2392V38.26ZM43.0392 38.26C44.7934 38.26 46.2926 37.8208 47.3463 36.7671C48.4 35.7134 48.8392 34.2141 48.8392 32.46H46.8392C46.8392 33.9059 46.4784 34.8066 45.9321 35.3529C45.3858 35.8992 44.4851 36.26 43.0392 36.26V38.26ZM48.8392 32.46V13.02H46.8392V32.46H48.8392ZM48.8392 13.02C48.8392 11.151 48.4208 9.55805 47.3082 8.5567L45.9703 10.0433C46.4577 10.482 46.8392 11.369 46.8392 13.02H48.8392ZM47.3082 8.5567C46.2799 7.63127 44.9388 7.22 43.3992 7.22V9.22C44.5796 9.22 45.3985 9.52872 45.9703 10.0433L47.3082 8.5567ZM43.3992 7.22H37.9392V9.22H43.3992V7.22ZM37.9392 7.22C36.2516 7.22 34.8056 7.66665 33.7942 8.73125C32.792 9.78625 32.3792 11.2783 32.3792 13.02H34.3792C34.3792 11.5617 34.7265 10.6538 35.2442 10.1087C35.7528 9.57335 36.5868 9.22 37.9392 9.22V7.22ZM32.3792 13.02V32.4H34.3792V13.02H32.3792ZM32.3792 32.4C32.3792 34.2562 32.8305 35.8321 33.9683 36.8615L35.3101 35.3785C34.768 34.8879 34.3792 33.9838 34.3792 32.4H32.3792ZM33.9683 36.8615C35.0517 37.8417 36.5253 38.26 38.2392 38.26V36.26C36.8331 36.26 35.9068 35.9183 35.3101 35.3785L33.9683 36.8615Z" fill="#0044FF"/>
</svg>
