<svg width="40" height="45" viewBox="0 0 40 45" fill="none" xmlns="http://www.w3.org/2000/svg">
<path d="M8.595 45H7.595V46H8.595V45ZM8.595 8.7H9.595V7.56184L8.46631 7.70831L8.595 8.7ZM0.735 9.72H-0.265V10.8582L0.863692 10.7117L0.735 9.72ZM0.735 4.02L0.335818 3.10313L-0.265 3.36471V4.02H0.735ZM9.555 0.179997V-0.820003H9.34675L9.15582 -0.736874L9.555 0.179997ZM17.475 0.179997H18.475V-0.820003H17.475V0.179997ZM17.475 45V46H18.475V45H17.475ZM9.595 45V8.7H7.595V45H9.595ZM8.46631 7.70831L0.606308 8.72832L0.863692 10.7117L8.72369 9.69168L8.46631 7.70831ZM1.735 9.72V4.02H-0.265V9.72H1.735ZM1.13418 4.93687L9.95418 1.09687L9.15582 -0.736874L0.335818 3.10313L1.13418 4.93687ZM9.555 1.18H17.475V-0.820003H9.555V1.18ZM16.475 0.179997V45H18.475V0.179997H16.475ZM17.475 44H8.595V46H17.475V44ZM30.9192 45H29.9192V46H30.9192V45ZM30.9192 8.7H31.9192V7.56184L30.7905 7.70831L30.9192 8.7ZM23.0592 9.72H22.0592V10.8582L23.1879 10.7117L23.0592 9.72ZM23.0592 4.02L22.66 3.10313L22.0592 3.36471V4.02H23.0592ZM31.8792 0.179997V-0.820003H31.671L31.48 -0.736874L31.8792 0.179997ZM39.7992 0.179997H40.7992V-0.820003H39.7992V0.179997ZM39.7992 45V46H40.7992V45H39.7992ZM31.9192 45V8.7H29.9192V45H31.9192ZM30.7905 7.70831L22.9305 8.72832L23.1879 10.7117L31.0479 9.69168L30.7905 7.70831ZM24.0592 9.72V4.02H22.0592V9.72H24.0592ZM23.4584 4.93687L32.2784 1.09687L31.48 -0.736874L22.66 3.10313L23.4584 4.93687ZM31.8792 1.18H39.7992V-0.820003H31.8792V1.18ZM38.7992 0.179997V45H40.7992V0.179997H38.7992ZM39.7992 44H30.9192V46H39.7992V44Z" fill="#0044FF"/>
</svg>
