<svg width="31" height="45" viewBox="0 0 31 45" fill="none" xmlns="http://www.w3.org/2000/svg">
<path d="M0.635 45H-0.365V46H0.635V45ZM0.635 37.86L-0.0692263 37.15L-0.365 37.4434V37.86H0.635ZM15.455 23.16L14.756 22.4448L14.7508 22.45L15.455 23.16ZM19.355 18.48L18.5017 17.9585L18.4975 17.9655L19.355 18.48ZM19.235 10.02L18.5431 10.742V10.742L19.235 10.02ZM1.655 8.64H0.655V9.64H1.655V8.64ZM1.655 1.68L1.47071 0.697124L0.655 0.850069V1.68H1.655ZM8.015 0.719997L8.13482 1.71279L8.1421 1.71191L8.14936 1.71093L8.015 0.719997ZM24.035 1.68L23.5951 2.57809L23.6023 2.58152L24.035 1.68ZM28.295 5.82L29.2012 5.39711V5.39711L28.295 5.82ZM27.755 20.22L28.6365 20.6922L27.755 20.22ZM22.415 27.06L21.714 26.3469L21.71 26.3508L22.415 27.06ZM12.455 36.96L11.75 36.2508L10.0304 37.96H12.455V36.96ZM30.935 36.96H31.935V35.96H30.935V36.96ZM30.935 45V46H31.935V45H30.935ZM1.635 45V37.86H-0.365V45H1.635ZM1.33923 38.57L16.1592 23.87L14.7508 22.45L-0.0692263 37.15L1.33923 38.57ZM16.1539 23.8752C17.9475 22.1223 19.3122 20.4949 20.2125 18.9945L18.4975 17.9655C17.7178 19.2651 16.4825 20.7577 14.7561 22.4448L16.1539 23.8752ZM20.2083 19.0014C21.1838 17.4052 21.675 15.6649 21.675 13.8H19.675C19.675 15.2951 19.2862 16.6748 18.5017 17.9585L20.2083 19.0014ZM21.675 13.8C21.675 11.9871 21.123 10.4443 19.9269 9.29801L18.5431 10.742C19.267 11.4357 19.675 12.4129 19.675 13.8H21.675ZM19.9269 9.29801C18.6767 8.0999 16.6392 7.64 14.135 7.64V9.64C16.5108 9.64 17.8733 10.1001 18.5431 10.742L19.9269 9.29801ZM14.135 7.64H1.655V9.64H14.135V7.64ZM2.655 8.64V1.68H0.655V8.64H2.655ZM1.83929 2.66287C3.73426 2.30756 5.83238 1.99067 8.13482 1.71279L7.89518 -0.272798C5.55762 0.00932217 3.41574 0.332434 1.47071 0.697124L1.83929 2.66287ZM8.14936 1.71093C10.4568 1.39806 13.031 1.24 15.875 1.24V-0.760003C12.959 -0.760003 10.2932 -0.598066 7.88064 -0.270934L8.14936 1.71093ZM15.875 1.24C19.2834 1.24 21.8298 1.7134 23.5951 2.57806L24.4749 0.781934C22.3202 -0.273405 19.4266 -0.760003 15.875 -0.760003V1.24ZM23.6023 2.58152C25.4198 3.45391 26.6581 4.67697 27.3888 6.24288L29.2012 5.39711C28.2519 3.36302 26.6502 1.82608 24.4677 0.778474L23.6023 2.58152ZM27.3888 6.24288C28.1519 7.87802 28.555 9.90549 28.555 12.36H30.555C30.555 9.6945 30.1181 7.36197 29.2012 5.39711L27.3888 6.24288ZM28.555 12.36C28.555 15.225 27.9828 17.6772 26.8735 19.7478L28.6365 20.6922C29.9272 18.2828 30.555 15.495 30.555 12.36H28.555ZM26.8735 19.7478C25.7331 21.8766 24.0225 24.0775 21.714 26.3469L23.116 27.7731C25.5275 25.4025 27.3769 23.0434 28.6365 20.6922L26.8735 19.7478ZM21.71 26.3508L11.75 36.2508L13.16 37.6692L23.12 27.7692L21.71 26.3508ZM12.455 37.96H30.935V35.96H12.455V37.96ZM29.935 36.96V45H31.935V36.96H29.935ZM30.935 44H0.635V46H30.935V44Z" fill="#0044FF"/>
</svg>
