<svg width="30" height="46" viewBox="0 0 30 46" fill="none" xmlns="http://www.w3.org/2000/svg">
<path d="M7.955 45L8.03692 44.0033L8.02428 44.0024L7.955 45ZM0.155 44.1H-0.845V44.9423L-0.0149069 45.0855L0.155 44.1ZM0.155 36.96V35.96H-0.845V36.96H0.155ZM19.115 36.12L18.6802 35.2194L18.6678 35.2256L19.115 36.12ZM15.035 26.52L15.0837 25.5211L15.0734 25.5207L15.035 26.52ZM4.115 26.1H3.115V27.0623L4.07657 27.0993L4.115 26.1ZM4.115 19.26L4.05827 18.2616L3.115 18.3152V19.26H4.115ZM14.675 18.66L14.6306 17.6609L14.6183 17.6616L14.675 18.66ZM18.755 9.78L18.165 10.5874L18.1722 10.5927L18.1795 10.5978L18.755 9.78ZM1.115 8.64H0.115V9.64H1.115V8.64ZM1.115 1.56L0.959038 0.572235L0.115 0.705503V1.56H1.115ZM8.555 0.599999L8.65891 1.59459H8.65891L8.555 0.599999ZM17.015 0.239997L17.0015 1.23991L17.0047 1.23994L17.015 0.239997ZM25.955 3.12L25.2845 3.86187L25.2919 3.86862L25.2995 3.87522L25.955 3.12ZM27.515 19.98L26.741 19.3468L26.7389 19.3494L27.515 19.98ZM23.615 22.68L23.2988 21.7313L20.2668 22.742L23.3341 23.6397L23.615 22.68ZM27.935 25.86L27.1373 26.4632L27.1446 26.4726L27.935 25.86ZM26.435 42.6L27.0698 43.3728L27.0779 43.366L26.435 42.6ZM17.135 44.36C13.9599 44.36 10.9273 44.2409 8.03692 44.0034L7.87309 45.9966C10.8227 46.2391 13.9101 46.36 17.135 46.36V44.36ZM8.02428 44.0024C5.17079 43.8042 2.60515 43.5077 0.324907 43.1145L-0.0149069 45.0855C2.34485 45.4923 4.97921 45.7958 7.88572 45.9976L8.02428 44.0024ZM1.155 44.1V36.96H-0.845V44.1H1.155ZM0.155 37.96H13.775V35.96H0.155V37.96ZM13.775 37.96C16.2498 37.96 18.2255 37.6828 19.5622 37.0144L18.6678 35.2256C17.7645 35.6772 16.1802 35.96 13.775 35.96V37.96ZM19.5497 37.0205C21.1556 36.2453 21.855 34.7183 21.855 32.82H19.855C19.855 34.2017 19.3944 34.8747 18.6803 35.2194L19.5497 37.0205ZM21.855 32.82V30.96H19.855V32.82H21.855ZM21.855 30.96C21.855 29.1021 21.1814 27.5948 19.6711 26.7318L18.6789 28.4682C19.4086 28.8852 19.855 29.6179 19.855 30.96H21.855ZM19.6711 26.7318C18.3822 25.9952 16.8393 25.6068 15.0837 25.5212L14.9863 27.5188C16.5107 27.5932 17.7278 27.9248 18.6789 28.4682L19.6711 26.7318ZM15.0734 25.5207L4.15343 25.1007L4.07657 27.0993L14.9966 27.5193L15.0734 25.5207ZM5.115 26.1V19.26H3.115V26.1H5.115ZM4.17173 20.2584L14.7317 19.6584L14.6183 17.6616L4.05827 18.2616L4.17173 20.2584ZM14.7194 19.659C16.5951 19.5756 18.1714 19.2401 19.3636 18.5725L18.3864 16.8275C17.5786 17.2799 16.3549 17.5844 14.6306 17.661L14.7194 19.659ZM19.3636 18.5725C20.7439 17.7995 21.375 16.4615 21.375 14.82H19.375C19.375 15.8985 19.0061 16.4805 18.3864 16.8275L19.3636 18.5725ZM21.375 14.82V13.32H19.375V14.82H21.375ZM21.375 13.32C21.375 11.4726 20.7347 9.95031 19.3305 8.96219L18.1795 10.5978C18.9353 11.1297 19.375 11.9674 19.375 13.32H21.375ZM19.345 8.97261C18.0358 8.01586 16.0003 7.64 13.475 7.64V9.64C15.9097 9.64 17.3942 10.0241 18.165 10.5874L19.345 8.97261ZM13.475 7.64H1.115V9.64H13.475V7.64ZM2.115 8.64V1.56H0.115V8.64H2.115ZM1.27096 2.54776C3.53111 2.1909 5.99353 1.87306 8.65891 1.59459L8.45109 -0.394588C5.75648 -0.113062 3.25889 0.2091 0.959038 0.572235L1.27096 2.54776ZM8.65891 1.59459C11.2963 1.31903 14.0769 1.20038 17.0015 1.23991L17.0285 -0.759912C14.0331 -0.80039 11.1737 -0.679038 8.45109 -0.394587L8.65891 1.59459ZM17.0047 1.23994C20.7344 1.27839 23.4449 2.1992 25.2845 3.86187L26.6255 2.37813C24.3051 0.28079 21.0556 -0.718401 17.0253 -0.75995L17.0047 1.23994ZM25.2995 3.87522C27.1446 5.4766 28.135 7.86616 28.135 11.22H30.135C30.135 7.45383 29.0054 4.4434 26.6105 2.36478L25.2995 3.87522ZM28.135 11.22V14.52H30.135V11.22H28.135ZM28.135 14.52C28.135 16.6921 27.6298 18.2605 26.741 19.3468L28.289 20.6132C29.5602 19.0595 30.135 16.9879 30.135 14.52H28.135ZM26.7389 19.3494C25.8184 20.4823 24.6778 21.2716 23.2988 21.7313L23.9312 23.6287C25.6722 23.0484 27.1316 22.0377 28.2911 20.6106L26.7389 19.3494ZM23.3341 23.6397C24.7288 24.048 25.9998 24.9587 27.1373 26.4631L28.7327 25.2569C27.3902 23.4813 25.7812 22.272 23.8959 21.7203L23.3341 23.6397ZM27.1446 26.4726C28.2143 27.8528 28.795 29.7181 28.795 32.16H30.795C30.795 29.4019 30.1357 27.0672 28.7254 25.2474L27.1446 26.4726ZM28.795 32.16V34.44H30.795V32.16H28.795ZM28.795 34.44C28.795 37.7749 27.7568 40.1851 25.7921 41.834L27.0779 43.366C29.5932 41.2549 30.795 38.2251 30.795 34.44H28.795ZM25.8003 41.8273C23.795 43.4744 20.9479 44.36 17.135 44.36V46.36C21.2421 46.36 24.595 45.4056 27.0697 43.3727L25.8003 41.8273Z" fill="#0044FF"/>
</svg>
