<svg width="35" height="45" viewBox="0 0 35 45" fill="none" xmlns="http://www.w3.org/2000/svg">
<path d="M21.375 44.94H20.375V45.94H21.375V44.94ZM21.375 35.58H22.375V34.58H21.375V35.58ZM1.935 35.58L1.00652 35.9514L1.25797 36.58H1.935V35.58ZM0.255 31.38L-0.650777 30.9562L-0.834474 31.3489L-0.673477 31.7514L0.255 31.38ZM14.655 0.599999V-0.400001H14.0188L13.7492 0.176244L14.655 0.599999ZM23.715 0.599999L24.6199 1.0257L25.2906 -0.400001H23.715V0.599999ZM10.815 28.02L9.91014 27.5943L9.2394 29.02H10.815V28.02ZM21.375 28.02V29.02H22.375V28.02H21.375ZM21.375 19.38L20.4286 19.0571L20.375 19.2141V19.38H21.375ZM23.115 14.28V13.28H22.3996L22.1686 13.9571L23.115 14.28ZM30.255 14.28H31.255V13.28H30.255V14.28ZM30.255 28.02H29.255V29.02H30.255V28.02ZM34.815 28.02H35.815V27.02H34.815V28.02ZM34.815 34.14L35.1161 35.0936L35.815 34.8729V34.14H34.815ZM30.255 35.58L29.9539 34.6264L29.255 34.8471V35.58H30.255ZM30.255 44.94V45.94H31.255V44.94H30.255ZM22.375 44.94V35.58H20.375V44.94H22.375ZM21.375 34.58H1.935V36.58H21.375V34.58ZM2.86348 35.2086L1.18348 31.0086L-0.673477 31.7514L1.00652 35.9514L2.86348 35.2086ZM1.16078 31.8038L15.5608 1.02375L13.7492 0.176244L-0.650777 30.9562L1.16078 31.8038ZM14.655 1.6H23.715V-0.400001H14.655V1.6ZM22.8101 0.174297L9.91014 27.5943L11.7199 28.4457L24.6199 1.0257L22.8101 0.174297ZM10.815 29.02H21.375V27.02H10.815V29.02ZM22.375 28.02V19.38H20.375V28.02H22.375ZM22.3214 19.7029L24.0614 14.6029L22.1686 13.9571L20.4286 19.0571L22.3214 19.7029ZM23.115 15.28H30.255V13.28H23.115V15.28ZM29.255 14.28V28.02H31.255V14.28H29.255ZM30.255 29.02H34.815V27.02H30.255V29.02ZM33.815 28.02V34.14H35.815V28.02H33.815ZM34.5139 33.1864L29.9539 34.6264L30.5561 36.5336L35.1161 35.0936L34.5139 33.1864ZM29.255 35.58V44.94H31.255V35.58H29.255ZM30.255 43.94H21.375V45.94H30.255V43.94Z" fill="#0044FF"/>
</svg>
