<svg width="31" height="46" viewBox="0 0 31 46" fill="none" xmlns="http://www.w3.org/2000/svg">
<path d="M7.975 45L7.90058 45.9972L7.90167 45.9973L7.975 45ZM0.415 44.34H-0.585V45.2435L0.313827 45.3349L0.415 44.34ZM0.415 37.32V36.32H-0.585V37.32H0.415ZM20.515 35.76L19.7224 35.1503L20.515 35.76ZM20.635 25.92L19.8578 26.5492L19.8742 26.5695L19.8917 26.589L20.635 25.92ZM10.675 25.5L11.3056 26.2761L11.3107 26.2719L10.675 25.5ZM9.415 27.96V28.96H10.2522L10.3994 28.1358L9.415 27.96ZM1.015 27.96L0.0160592 27.914L-0.0321121 28.96H1.015V27.96ZM2.275 0.599999V-0.400001H1.31999L1.27606 0.553995L2.275 0.599999ZM28.915 0.599999H29.915V-0.400001H28.915V0.599999ZM28.915 8.58V9.58H29.915V8.58H28.915ZM9.895 8.58V7.58H8.93942L8.89603 8.53459L9.895 8.58ZM9.415 19.14L8.41603 19.0946L8.29623 21.7302L10.1329 19.8361L9.415 19.14ZM28.075 20.16L28.8332 19.508L28.075 20.16ZM26.815 42.66L26.2485 41.836L26.815 42.66ZM15.715 44.3C13.3021 44.3 10.7467 44.2011 8.04833 44.0027L7.90167 45.9973C10.6433 46.1989 13.2479 46.3 15.715 46.3V44.3ZM8.04942 44.0028C5.3772 43.8034 2.86619 43.5841 0.516173 43.3451L0.313827 45.3349C2.68381 45.5759 5.2128 45.7966 7.90058 45.9972L8.04942 44.0028ZM1.415 44.34V37.32H-0.585V44.34H1.415ZM0.415 38.32H16.075V36.32H0.415V38.32ZM16.075 38.32C18.3464 38.32 20.2233 37.7793 21.3076 36.3697L19.7224 35.1503C19.2067 35.8207 18.1236 36.32 16.075 36.32V38.32ZM21.3076 36.3697C22.2385 35.1596 22.715 33.7864 22.715 32.28H20.715C20.715 33.3336 20.3915 34.2804 19.7224 35.1503L21.3076 36.3697ZM22.715 32.28V29.22H20.715V32.28H22.715ZM22.715 29.22C22.715 27.6492 22.3083 26.2844 21.3783 25.251L19.8917 26.589C20.4017 27.1556 20.715 27.9908 20.715 29.22H22.715ZM21.4122 25.2908C20.461 24.1157 18.9378 23.66 17.155 23.66V25.66C18.6522 25.66 19.449 26.0443 19.8578 26.5492L21.4122 25.2908ZM17.155 23.66H13.675V25.66H17.155V23.66ZM13.675 23.66C12.2343 23.66 10.9686 23.9627 10.0393 24.7281L11.3107 26.2719C11.7414 25.9173 12.4757 25.66 13.675 25.66V23.66ZM10.0444 24.7239C9.15815 25.444 8.65674 26.5177 8.43057 27.7842L10.3994 28.1358C10.5733 27.1623 10.9119 26.596 11.3056 26.2761L10.0444 24.7239ZM9.415 26.96H1.015V28.96H9.415V26.96ZM2.01394 28.006L3.27394 0.646004L1.27606 0.553995L0.0160592 27.914L2.01394 28.006ZM2.275 1.6H28.915V-0.400001H2.275V1.6ZM27.915 0.599999V8.58H29.915V0.599999H27.915ZM28.915 7.58H9.895V9.58H28.915V7.58ZM8.89603 8.53459L8.41603 19.0946L10.414 19.1854L10.894 8.6254L8.89603 8.53459ZM10.1329 19.8361C11.1479 18.7894 12.851 18.16 15.475 18.16V16.16C12.579 16.16 10.2421 16.8506 8.6971 18.4439L10.1329 19.8361ZM15.475 18.16H20.335V16.16H15.475V18.16ZM20.335 18.16C23.5782 18.16 25.8408 19.0957 27.3168 20.812L28.8332 19.508C26.8692 17.2243 23.9718 16.16 20.335 16.16V18.16ZM27.3168 20.812C28.8616 22.6083 29.655 24.8481 29.655 27.6H31.655C31.655 24.4319 30.7284 21.7117 28.8332 19.508L27.3168 20.812ZM29.655 27.6V34.14H31.655V27.6H29.655ZM29.655 34.14C29.655 37.8276 28.466 40.3114 26.2485 41.836L27.3815 43.484C30.284 41.4886 31.655 38.2924 31.655 34.14H29.655ZM26.2485 41.836C23.9245 43.4337 20.4574 44.3 15.715 44.3V46.3C20.6526 46.3 24.5855 45.4063 27.3815 43.484L26.2485 41.836Z" fill="#0044FF"/>
</svg>
