<svg width="32" height="46" viewBox="0 0 32 46" fill="none" xmlns="http://www.w3.org/2000/svg">
<path d="M8.495 44.34L8.11199 45.2637L8.12168 45.2678L8.13146 45.2716L8.495 44.34ZM4.295 40.92L3.4692 41.484L3.47713 41.4956L3.48539 41.507L4.295 40.92ZM1.775 34.2L2.75611 34.0065L1.775 34.2ZM2.915 9.66L3.84576 10.0257L3.84721 10.0219L2.915 9.66ZM8.615 2.4L8.11885 1.53173L8.11286 1.53521L8.615 2.4ZM23.555 0.479998L23.4736 1.47668L23.4753 1.47681L23.555 0.479998ZM29.015 1.2H30.015V0.376263L29.2065 0.218509L29.015 1.2ZM29.015 8.22V9.22H30.015V8.22H29.015ZM11.915 11.04L12.7109 11.6456L12.717 11.6373L11.915 11.04ZM9.815 19.26H8.815V20.5857L10.0897 20.2215L9.815 19.26ZM14.375 18.48L14.448 19.4773L14.4601 19.4764L14.4721 19.4753L14.375 18.48ZM29.015 21L28.2845 21.6829L28.2921 21.6911L28.3 21.6991L29.015 21ZM28.535 42.9L29.1521 43.6869L29.1542 43.6853L28.535 42.9ZM21.455 26.64L20.9181 27.4837L21.455 26.64ZM9.815 25.8V24.8H8.815V25.8H9.815ZM10.475 32.88L9.50761 33.1334L9.50916 33.1391L10.475 32.88ZM12.455 36.36L11.8436 37.1513L11.8634 37.1666L11.8839 37.1809L12.455 36.36ZM14.195 44.3C12.132 44.3 10.3597 43.9942 8.85854 43.4084L8.13146 45.2716C9.91033 45.9658 11.938 46.3 14.195 46.3V44.3ZM8.87802 43.4163C7.42741 42.8148 6.16885 41.801 5.10461 40.333L3.48539 41.507C4.74115 43.239 6.28259 44.5052 8.11199 45.2637L8.87802 43.4163ZM5.1208 40.356C4.10366 38.8667 3.30092 36.7695 2.75611 34.0065L0.793892 34.3935C1.36908 37.3105 2.24634 39.6933 3.4692 41.484L5.1208 40.356ZM2.75611 34.0065C2.21327 31.2536 1.935 27.7241 1.935 23.4H-0.0649998C-0.0649998 27.7959 0.216733 31.4664 0.793892 34.3935L2.75611 34.0065ZM1.935 23.4C1.935 17.6584 2.59082 13.22 3.84575 10.0257L1.98425 9.29435C0.599182 12.82 -0.0649998 17.5416 -0.0649998 23.4H1.935ZM3.84721 10.0219C5.10778 6.77498 6.88155 4.56287 9.11714 3.26479L8.11286 1.53521C5.38845 3.11713 3.36222 5.74501 1.98279 9.29808L3.84721 10.0219ZM9.11114 3.26824C11.4509 1.93122 14.2921 1.24 17.675 1.24V-0.760003C14.0179 -0.760003 10.8191 -0.0112209 8.11886 1.53176L9.11114 3.26824ZM17.675 1.24C19.6078 1.24 21.5406 1.31888 23.4736 1.47668L23.6364 -0.516687C21.6494 -0.678889 19.6622 -0.760003 17.675 -0.760003V1.24ZM23.4753 1.47681C25.4449 1.63439 27.2269 1.86995 28.8235 2.18149L29.2065 0.218509C27.5231 -0.109958 25.6651 -0.35439 23.6347 -0.516818L23.4753 1.47681ZM28.015 1.2V8.22H30.015V1.2H28.015ZM29.015 7.22H18.515V9.22H29.015V7.22ZM18.515 7.22C15.2965 7.22 12.7531 8.24022 11.113 10.4427L12.717 11.6373C13.8769 10.0798 15.7335 9.22 18.515 9.22V7.22ZM11.1192 10.4345C9.52993 12.5232 8.815 15.5186 8.815 19.26H10.815C10.815 15.7214 11.5001 13.2368 12.7108 11.6455L11.1192 10.4345ZM10.0897 20.2215C11.4161 19.8426 12.8677 19.593 14.448 19.4773L14.302 17.4827C12.6023 17.607 11.0139 17.8774 9.54028 18.2985L10.0897 20.2215ZM14.4721 19.4753C16.0739 19.319 17.8608 19.24 19.835 19.24V17.24C17.8092 17.24 15.9561 17.321 14.2779 17.4847L14.4721 19.4753ZM19.835 19.24C24.1516 19.24 26.8542 20.1528 28.2845 21.6829L29.7455 20.3171C27.7358 18.1672 24.3184 17.24 19.835 17.24V19.24ZM28.3 21.6991C29.8335 23.2675 30.655 25.4712 30.655 28.44H32.655C32.655 25.0888 31.7165 22.3325 29.73 20.3009L28.3 21.6991ZM30.655 28.44V34.8H32.655V28.44H30.655ZM30.655 34.8C30.655 38.3887 29.6663 40.7346 27.9158 42.1147L29.1542 43.6853C31.5637 41.7854 32.655 38.7313 32.655 34.8H30.655ZM27.9179 42.1131C26.092 43.5452 23.705 44.3 20.675 44.3V46.3C24.045 46.3 26.898 45.4548 29.1521 43.6869L27.9179 42.1131ZM20.675 44.3H14.195V46.3H20.675V44.3ZM15.995 38.32H18.635V36.32H15.995V38.32ZM18.635 38.32C20.1087 38.32 21.398 37.9619 22.3594 37.1074L21.0306 35.6126C20.552 36.0381 19.8013 36.32 18.635 36.32V38.32ZM22.3594 37.1074C23.3946 36.1872 23.775 34.7331 23.775 33.06H21.775C21.775 34.5069 21.4354 35.2528 21.0306 35.6126L22.3594 37.1074ZM23.775 33.06V30.12H21.775V33.06H23.775ZM23.775 30.12C23.775 28.2565 23.316 26.639 21.9919 25.7963L20.9181 27.4837C21.354 27.761 21.775 28.4635 21.775 30.12H23.775ZM21.9919 25.7963C20.8704 25.0827 19.2784 24.8 17.375 24.8V26.8C19.1516 26.8 20.2796 27.0773 20.9181 27.4837L21.9919 25.7963ZM17.375 24.8H9.815V26.8H17.375V24.8ZM8.815 25.8C8.815 28.8719 9.03564 31.3312 9.50763 33.1334L11.4424 32.6266C11.0344 31.0688 10.815 28.8081 10.815 25.8H8.815ZM9.50916 33.1391C9.97762 34.8852 10.7204 36.2834 11.8436 37.1513L13.0664 35.5687C12.4296 35.0766 11.8524 34.1548 11.4408 32.6209L9.50916 33.1391ZM11.8839 37.1809C13.0136 37.9667 14.4088 38.32 15.995 38.32V36.32C14.7012 36.32 13.7364 36.0333 13.0261 35.5391L11.8839 37.1809Z" fill="#0044FF"/>
</svg>
