<svg width="31" height="45" viewBox="0 0 31 45" fill="none" xmlns="http://www.w3.org/2000/svg">
<path d="M5.955 45L5.01763 44.6517L4.51656 46H5.955V45ZM19.155 9.48L20.0924 9.82834L20.5934 8.48H19.155V9.48ZM0.255 9.48H-0.745V10.48H0.255V9.48ZM0.255 0.599999V-0.400001H-0.745V0.599999H0.255ZM28.275 0.599999L29.1253 0.0736446L28.8321 -0.400001H28.275V0.599999ZM30.615 4.38L31.5553 4.72029L31.72 4.26517L31.4653 3.85364L30.615 4.38ZM15.915 45V46H16.6166L16.8553 45.3403L15.915 45ZM6.89237 45.3483L20.0924 9.82834L18.2176 9.13165L5.01763 44.6517L6.89237 45.3483ZM19.155 8.48H0.255V10.48H19.155V8.48ZM1.255 9.48V0.599999H-0.745V9.48H1.255ZM0.255 1.6H28.275V-0.400001H0.255V1.6ZM27.4247 1.12635L29.7647 4.90635L31.4653 3.85364L29.1253 0.0736446L27.4247 1.12635ZM29.6747 4.03971L14.9747 44.6597L16.8553 45.3403L31.5553 4.72029L29.6747 4.03971ZM15.915 44H5.955V46H15.915V44Z" fill="#0044FF"/>
</svg>
