<svg width="32" height="46" viewBox="0 0 32 46" fill="none" xmlns="http://www.w3.org/2000/svg">
<path d="M6.295 44.46L6.01165 45.419L6.01746 45.4207L6.295 44.46ZM1.975 41.64L1.18322 42.2508L1.19295 42.2634L1.20307 42.2757L1.975 41.64ZM1.675 24.96L2.50713 25.5148L2.51457 25.5033L1.675 24.96ZM5.275 22.38L5.50547 23.3531L8.18702 22.718L5.72221 21.4856L5.275 22.38ZM1.855 19.02L0.895635 19.3022L0.900672 19.3193L0.906317 19.3362L1.855 19.02ZM2.635 4.14L1.81802 3.5633L1.8146 3.5682L2.635 4.14ZM6.415 1.2L6.77401 2.13343L6.78639 2.12848L6.415 1.2ZM25.135 1.2L24.7469 2.12163L24.7614 2.12772L24.776 2.13334L25.135 1.2ZM28.855 4.14L28.0266 4.70036L28.0346 4.71179L28.855 4.14ZM29.875 17.16L28.9006 16.9351V16.9351L29.875 17.16ZM28.675 20.04L29.5071 20.5947L29.513 20.5858L29.5187 20.5769L28.675 20.04ZM26.275 21.66L26.0501 20.6856L26.0675 22.6382L26.275 21.66ZM29.275 23.46L28.4708 24.0544L28.4855 24.0742L28.501 24.0932L29.275 23.46ZM30.715 26.4L29.7388 26.6169V26.6169L30.715 26.4ZM29.575 41.58L28.7613 40.9988L28.7557 41.0066L28.7503 41.0145L29.575 41.58ZM25.675 44.46L25.9772 45.4132L25.675 44.46ZM20.815 17.4L19.9575 16.8855L19.9535 16.8922L19.9496 16.899L20.815 17.4ZM20.575 8.52L21.175 7.72H21.175L20.575 8.52ZM10.795 8.58L10.1401 7.82431L10.1401 7.82431L10.795 8.58ZM10.735 17.64L9.98242 18.2985L10.0043 18.3236L10.0279 18.3471L10.735 17.64ZM21.355 36.78L22.1076 37.4385L22.1174 37.4272L22.1269 37.4157L21.355 36.78ZM10.615 27.06L11.1861 27.8809L10.615 27.06ZM10.375 36.9L9.7818 37.7051H9.7818L10.375 36.9ZM12.055 44.24C10.1006 44.24 8.27471 43.991 6.57254 43.4993L6.01746 45.4207C7.91529 45.969 9.92938 46.24 12.055 46.24V44.24ZM6.57835 43.501C5.00139 43.0351 3.73451 42.2035 2.74693 41.0043L1.20307 42.2757C2.45549 43.7965 4.06861 44.8449 6.01165 45.419L6.57835 43.501ZM2.76678 41.0292C1.87394 39.8718 1.355 38.1031 1.355 35.58H-0.645C-0.645 38.3369 -0.0839417 40.6082 1.18322 42.2508L2.76678 41.0292ZM1.355 35.58V29.52H-0.645V35.58H1.355ZM1.355 29.52C1.355 27.98 1.74582 26.6565 2.50705 25.5147L0.84295 24.4053C-0.155821 25.9035 -0.645 27.62 -0.645 29.52H1.355ZM2.51457 25.5033C3.26028 24.3508 4.24643 23.6513 5.50547 23.3531L5.04453 21.4069C3.26357 21.8287 1.84972 22.8492 0.83543 24.4167L2.51457 25.5033ZM5.72221 21.4856C4.00662 20.6278 3.12694 19.6735 2.80368 18.7038L0.906317 19.3362C1.46306 21.0065 2.86338 22.2922 4.82779 23.2744L5.72221 21.4856ZM2.81437 18.7378C2.44453 17.4804 2.255 16.0966 2.255 14.58H0.255C0.255 16.2634 0.465476 17.8396 0.895635 19.3022L2.81437 18.7378ZM2.255 14.58V9.54H0.255V14.58H2.255ZM2.255 9.54C2.255 7.38232 2.69183 5.80734 3.4554 4.71179L1.8146 3.5682C0.738166 5.11266 0.255 7.13767 0.255 9.54H2.255ZM3.45197 4.71668C4.29744 3.51893 5.39775 2.66266 6.77398 2.13334L6.05602 0.266653C4.31225 0.937335 2.89256 2.04106 1.81803 3.56331L3.45197 4.71668ZM6.78639 2.12848C8.25794 1.53985 9.8706 1.24 11.635 1.24V-0.760003C9.6394 -0.760003 7.77206 -0.41986 6.04361 0.271523L6.78639 2.12848ZM11.635 1.24H20.035V-0.760003H11.635V1.24ZM20.035 1.24C21.8003 1.24 23.3658 1.54009 24.7469 2.12163L25.5231 0.278364C23.8642 -0.4201 22.0297 -0.760003 20.035 -0.760003V1.24ZM24.776 2.13334C26.1488 2.66133 27.2235 3.51294 28.0267 4.70031L29.6833 3.57969C28.6465 2.04705 27.2412 0.938669 25.494 0.266653L24.776 2.13334ZM28.0346 4.71179C28.7982 5.80734 29.235 7.38232 29.235 9.54H31.235C31.235 7.13767 30.7518 5.11266 29.6754 3.5682L28.0346 4.71179ZM29.235 9.54V14.58H31.235V9.54H29.235ZM29.235 14.58C29.235 15.1542 29.1321 15.9322 28.9006 16.9351L30.8494 17.3849C31.0979 16.3078 31.235 15.3658 31.235 14.58H29.235ZM28.9006 16.9351C28.6855 17.8671 28.3289 18.7212 27.8313 19.5031L29.5187 20.5769C30.1411 19.5988 30.5845 18.5329 30.8494 17.3849L28.9006 16.9351ZM27.843 19.4853C27.4331 20.1001 26.8573 20.4993 26.0501 20.6856L26.4999 22.6344C27.7727 22.3407 28.7969 21.6599 29.5071 20.5947L27.843 19.4853ZM26.0675 22.6382C27.1937 22.8771 27.9615 23.3653 28.4708 24.0544L30.0792 22.8656C29.2285 21.7147 27.9963 21.0029 26.4825 20.6818L26.0675 22.6382ZM28.501 24.0932C29.1248 24.8557 29.5337 25.6939 29.7388 26.6169L31.6912 26.1831C31.4163 24.9461 30.8652 23.8243 30.049 22.8268L28.501 24.0932ZM29.7388 26.6169C29.9668 27.643 30.075 28.5488 30.075 29.34H32.075C32.075 28.3712 31.9432 27.317 31.6912 26.1831L29.7388 26.6169ZM30.075 29.34V35.58H32.075V29.34H30.075ZM30.075 35.58C30.075 38.072 29.5925 39.835 28.7613 40.9988L30.3887 42.1612C31.5575 40.525 32.075 38.288 32.075 35.58H30.075ZM28.7503 41.0145C27.9182 42.2279 26.8034 43.0532 25.3728 43.5068L25.9772 45.4132C27.8266 44.8268 29.3118 43.7321 30.3997 42.1455L28.7503 41.0145ZM25.3728 43.5068C23.8467 43.9906 22.1109 44.24 20.155 44.24V46.24C22.2791 46.24 24.2233 45.9694 25.9772 45.4132L25.3728 43.5068ZM20.155 44.24H12.055V46.24H20.155V44.24ZM13.555 19.54H17.935V17.54H13.555V19.54ZM17.935 19.54C19.5194 19.54 20.9636 19.1391 21.6804 17.901L19.9496 16.899C19.7864 17.1809 19.3106 17.54 17.935 17.54V19.54ZM21.6725 17.9145C22.266 16.9254 22.535 15.7574 22.535 14.46H20.535C20.535 15.4826 20.324 16.2746 19.9575 16.8855L21.6725 17.9145ZM22.535 14.46V11.64H20.535V14.46H22.535ZM22.535 11.64C22.535 10.7826 22.4504 10.0146 22.2508 9.36591C22.0506 8.71539 21.7154 8.12532 21.175 7.72L19.975 9.32C20.0746 9.39468 20.2194 9.5646 20.3392 9.95408C20.4596 10.3454 20.535 10.8974 20.535 11.64H22.535ZM21.175 7.72C20.3162 7.07594 19.2463 6.8 18.055 6.8V8.8C18.9437 8.8 19.5538 9.00406 19.975 9.32L21.175 7.72ZM18.055 6.8H13.615V8.8H18.055V6.8ZM13.615 6.8C12.2328 6.8 11.0046 7.07507 10.1401 7.82431L11.4499 9.33569C11.7854 9.04493 12.4372 8.8 13.615 8.8V6.8ZM10.1401 7.82431C9.18834 8.64915 8.895 10.0703 8.895 11.64H10.895C10.895 10.1697 11.2017 9.55085 11.4499 9.33569L10.1401 7.82431ZM8.895 11.64V14.46H10.895V11.64H8.895ZM8.895 14.46C8.895 16.019 9.18096 17.3825 9.98242 18.2985L11.4876 16.9815C11.169 16.6175 10.895 15.861 10.895 14.46H8.895ZM10.0279 18.3471C10.8922 19.2114 12.1428 19.54 13.555 19.54V17.54C12.4072 17.54 11.7778 17.2686 11.4421 16.9329L10.0279 18.3471ZM13.615 38.74H18.055V36.74H13.615V38.74ZM18.055 38.74C19.742 38.74 21.242 38.4277 22.1076 37.4385L20.6024 36.1215C20.348 36.4123 19.648 36.74 18.055 36.74V38.74ZM22.1269 37.4157C22.8801 36.5012 23.195 35.3082 23.195 33.96H21.195C21.195 35.0118 20.9499 35.6988 20.5831 36.1443L22.1269 37.4157ZM23.195 33.96V30H21.195V33.96H23.195ZM23.195 30C23.195 28.5301 22.802 27.248 21.8457 26.3471C20.9006 25.4568 19.5748 25.1 18.055 25.1V27.1C19.2952 27.1 20.0394 27.3932 20.4743 27.8029C20.898 28.202 21.195 28.8699 21.195 30H23.195ZM18.055 25.1H13.555V27.1H18.055V25.1ZM13.555 25.1C12.2948 25.1 11.1179 25.492 10.0439 26.2391L11.1861 27.8809C11.9521 27.348 12.7352 27.1 13.555 27.1V25.1ZM10.0439 26.2391C8.80472 27.1012 8.235 28.4194 8.235 30H10.235C10.235 28.9406 10.5853 28.2988 11.1861 27.8809L10.0439 26.2391ZM8.235 30V33.96H10.235V30H8.235ZM8.235 33.96C8.235 35.5174 8.65977 36.8783 9.7818 37.7051L10.9682 36.0949C10.5702 35.8017 10.235 35.2026 10.235 33.96H8.235ZM9.7818 37.7051C10.7787 38.4396 12.0998 38.74 13.615 38.74V36.74C12.3302 36.74 11.4913 36.4804 10.9682 36.0949L9.7818 37.7051Z" fill="#0044FF"/>
</svg>
