<svg width="32" height="46" viewBox="0 0 32 46" fill="none" xmlns="http://www.w3.org/2000/svg">
<path d="M8.675 45.06L8.59364 46.0567L8.59525 46.0568L8.675 45.06ZM3.335 44.34H2.335V45.1598L3.13888 45.3206L3.335 44.34ZM3.335 37.32V36.32H2.335V37.32H3.335ZM20.375 34.56L21.1709 35.1656L21.177 35.1573L20.375 34.56ZM22.475 26.28H23.475V24.9435L22.1928 25.3206L22.475 26.28ZM17.915 27.12L17.988 28.1173L17.9989 28.1165L18.0098 28.1155L17.915 27.12ZM3.275 24.6L2.54443 25.2829L2.55201 25.2909L3.275 24.6ZM3.755 2.7L4.37214 3.48685L3.755 2.7ZM23.795 1.32L23.412 2.24374L23.4254 2.24931L23.439 2.25448L23.795 1.32ZM27.995 4.74L27.1691 5.304L27.1758 5.31346L27.995 4.74ZM30.515 11.4L29.5338 11.5935L29.5366 11.6067L30.515 11.4ZM29.375 35.94L28.448 35.5648L28.4443 35.5743L29.375 35.94ZM23.615 43.14L23.1189 42.2717L23.1129 42.2752L23.615 43.14ZM22.475 19.74V20.74H23.475V19.74H22.475ZM21.815 12.72L20.8476 12.9734L20.8492 12.9791L21.815 12.72ZM19.775 9.24L19.1868 10.0487L19.1953 10.0549L19.2039 10.0609L19.775 9.24ZM10.655 9.24L11.3194 9.98741L11.3194 9.98741L10.655 9.24ZM10.835 18.9L10.2803 19.732L10.2892 19.7379L10.2981 19.7437L10.835 18.9ZM14.615 44.3C12.6822 44.3 10.7288 44.2211 8.75475 44.0632L8.59525 46.0568C10.6212 46.2189 12.6278 46.3 14.615 46.3V44.3ZM8.75636 44.0633C6.82737 43.9058 5.08646 43.6705 3.53112 43.3594L3.13888 45.3206C4.78354 45.6495 6.60263 45.8942 8.59364 46.0567L8.75636 44.0633ZM4.335 44.34V37.32H2.335V44.34H4.335ZM3.335 38.32H13.775V36.32H3.335V38.32ZM13.775 38.32C16.9858 38.32 19.5277 37.325 21.1708 35.1655L19.5792 33.9545C18.4223 35.475 16.5642 36.32 13.775 36.32V38.32ZM21.177 35.1573C22.7591 33.0327 23.475 30.0238 23.475 26.28H21.475C21.475 29.8162 20.7909 32.3273 19.573 33.9627L21.177 35.1573ZM22.1928 25.3206C20.9042 25.6996 19.4483 25.9694 17.8202 26.1245L18.0098 28.1155C19.7417 27.9506 21.3258 27.6604 22.7572 27.2394L22.1928 25.3206ZM17.842 26.1227C16.2308 26.2406 14.4356 26.3 12.455 26.3V28.3C14.4744 28.3 16.3192 28.2394 17.988 28.1173L17.842 26.1227ZM12.455 26.3C8.13378 26.3 5.42766 25.4053 3.99799 23.9091L2.55201 25.2909C4.56234 27.3947 7.97622 28.3 12.455 28.3V26.3ZM4.00553 23.9171C2.49979 22.3063 1.695 20.0739 1.695 17.1H-0.305C-0.305 20.4461 0.610205 23.2137 2.54447 25.2829L4.00553 23.9171ZM1.695 17.1V10.74H-0.305V17.1H1.695ZM1.695 10.74C1.695 7.143 2.66822 4.82326 4.37214 3.48685L3.13786 1.91315C0.761785 3.77673 -0.305 6.817 -0.305 10.74H1.695ZM4.37214 3.48685C6.19591 2.05644 8.60173 1.3 11.675 1.3V-0.700004C8.26827 -0.700004 5.39409 0.143549 3.13786 1.91315L4.37214 3.48685ZM11.675 1.3H18.095V-0.700004H11.675V1.3ZM18.095 1.3C20.1513 1.3 21.9166 1.62372 23.412 2.24374L24.178 0.396255C22.3934 -0.343725 20.3587 -0.700004 18.095 -0.700004V1.3ZM23.439 2.25448C24.9084 2.81426 26.1517 3.81409 27.1692 5.30396L28.8208 4.17604C27.5983 2.38591 26.0416 1.10574 24.151 0.385509L23.439 2.25448ZM27.1758 5.31346C28.187 6.75814 28.989 8.82992 29.5339 11.5935L31.4961 11.2065C30.921 8.29007 30.043 5.92185 28.8142 4.16654L27.1758 5.31346ZM29.5366 11.6067C30.117 14.354 30.415 17.8785 30.415 22.2H32.415C32.415 17.8015 32.113 14.126 31.4934 11.1933L29.5366 11.6067ZM30.415 22.2C30.415 27.9394 29.7396 32.374 28.4481 35.5648L30.3019 36.3152C31.7304 32.786 32.415 28.0606 32.415 22.2H30.415ZM28.4443 35.5743C27.1868 38.7752 25.3966 40.9702 23.1189 42.2718L24.1111 44.0082C26.8734 42.4298 28.9232 39.8248 30.3058 36.3057L28.4443 35.5743ZM23.1129 42.2752C20.8165 43.6086 17.9985 44.3 14.615 44.3V46.3C18.2715 46.3 21.4535 45.5514 24.1171 44.0048L23.1129 42.2752ZM14.975 20.74H22.475V18.74H14.975V20.74ZM23.475 19.74C23.475 16.6698 23.2547 14.227 22.7808 12.4609L20.8492 12.9791C21.2553 14.493 21.475 16.7302 21.475 19.74H23.475ZM22.7824 12.4666C22.3137 10.677 21.5441 9.25248 20.3461 8.41909L19.2039 10.0609C19.8459 10.5075 20.4363 11.403 20.8476 12.9734L22.7824 12.4666ZM20.3632 8.43126C19.269 7.63548 17.9057 7.28 16.355 7.28V9.28C17.6043 9.28 18.521 9.56452 19.1868 10.0487L20.3632 8.43126ZM16.355 7.28H13.655V9.28H16.355V7.28ZM13.655 7.28C12.2119 7.28 10.9468 7.64267 9.99064 8.49259L11.3194 9.98741C11.8032 9.55733 12.5381 9.28 13.655 9.28V7.28ZM9.99064 8.49259C8.9554 9.4128 8.575 10.8669 8.575 12.54H10.575C10.575 11.0931 10.9146 10.3472 11.3194 9.98741L9.99064 8.49259ZM8.575 12.54V15.42H10.575V12.54H8.575ZM8.575 15.42C8.575 17.2681 9.00586 18.8824 10.2803 19.732L11.3897 18.0679C10.9841 17.7976 10.575 17.0919 10.575 15.42H8.575ZM10.2981 19.7437C11.422 20.4589 13.0367 20.74 14.975 20.74V18.74C13.1533 18.74 12.008 18.4611 11.3719 18.0563L10.2981 19.7437Z" fill="#0044FF"/>
</svg>
