<svg width="175" height="163" viewBox="0 0 175 163" fill="none" xmlns="http://www.w3.org/2000/svg">
<path d="M0.578125 5.90527C0.578125 4.3637 1.19051 2.88527 2.28057 1.79522C3.37062 0.705161 4.84905 0.0927734 6.39062 0.0927734H23.8281C25.1247 0.0931316 26.3839 0.526975 27.4055 1.32531C28.4271 2.12365 29.1525 3.24064 29.4662 4.49865L34.1744 23.3428H169.141C170.024 23.343 170.895 23.5444 171.688 23.9316C172.482 24.3188 173.177 24.8817 173.72 25.5776C174.263 26.2734 174.641 27.0839 174.825 27.9475C175.008 28.8112 174.992 29.7052 174.779 30.5619L157.341 100.312C157.027 101.57 156.302 102.687 155.281 103.485C154.259 104.284 153 104.717 151.703 104.718H47.0781C45.7816 104.717 44.5224 104.284 43.5008 103.485C42.4791 102.687 41.7538 101.57 41.44 100.312L19.2944 11.7178H6.39062C4.84905 11.7178 3.37062 11.1054 2.28057 10.0153C1.19051 8.92527 0.578125 7.44684 0.578125 5.90527ZM37.0806 34.9678L42.8931 58.2178H58.7031V34.9678H37.0806ZM70.3281 34.9678V58.2178H93.5781V34.9678H70.3281ZM105.203 34.9678V58.2178H128.453V34.9678H105.203ZM140.078 34.9678V58.2178H155.888L161.701 34.9678H140.078ZM152.982 69.8428H140.078V93.0928H147.169L152.982 69.8428ZM128.453 69.8428H105.203V93.0928H128.453V69.8428ZM93.5781 69.8428H70.3281V93.0928H93.5781V69.8428ZM58.7031 69.8428H45.7994L51.6119 93.0928H58.7031V69.8428ZM58.7031 127.968C55.62 127.968 52.6631 129.193 50.483 131.373C48.3029 133.553 47.0781 136.51 47.0781 139.593C47.0781 142.676 48.3029 145.633 50.483 147.813C52.6631 149.993 55.62 151.218 58.7031 151.218C61.7863 151.218 64.7431 149.993 66.9232 147.813C69.1033 145.633 70.3281 142.676 70.3281 139.593C70.3281 136.51 69.1033 133.553 66.9232 131.373C64.7431 129.193 61.7863 127.968 58.7031 127.968ZM35.4531 139.593C35.4531 133.426 37.9027 127.513 42.2629 123.153C46.6231 118.792 52.5368 116.343 58.7031 116.343C64.8694 116.343 70.7831 118.792 75.1434 123.153C79.5036 127.513 81.9531 133.426 81.9531 139.593C81.9531 145.759 79.5036 151.673 75.1434 156.033C70.7831 160.393 64.8694 162.843 58.7031 162.843C52.5368 162.843 46.6231 160.393 42.2629 156.033C37.9027 151.673 35.4531 145.759 35.4531 139.593ZM140.078 127.968C136.995 127.968 134.038 129.193 131.858 131.373C129.678 133.553 128.453 136.51 128.453 139.593C128.453 142.676 129.678 145.633 131.858 147.813C134.038 149.993 136.995 151.218 140.078 151.218C143.161 151.218 146.118 149.993 148.298 147.813C150.478 145.633 151.703 142.676 151.703 139.593C151.703 136.51 150.478 133.553 148.298 131.373C146.118 129.193 143.161 127.968 140.078 127.968ZM116.828 139.593C116.828 133.426 119.278 127.513 123.638 123.153C127.998 118.792 133.912 116.343 140.078 116.343C146.244 116.343 152.158 118.792 156.518 123.153C160.879 127.513 163.328 133.426 163.328 139.593C163.328 145.759 160.879 151.673 156.518 156.033C152.158 160.393 146.244 162.843 140.078 162.843C133.912 162.843 127.998 160.393 123.638 156.033C119.278 151.673 116.828 145.759 116.828 139.593Z" fill="url(#paint0_linear_185_1052)"/>
<defs>
<linearGradient id="paint0_linear_185_1052" x1="87.7648" y1="0.0927734" x2="87.7648" y2="162.843" gradientUnits="userSpaceOnUse">
<stop stop-color="#0044FF"/>
<stop offset="1" stop-color="#00A3FF"/>
</linearGradient>
</defs>
</svg>
