<?xml version="1.0" encoding="UTF-8" standalone="no"?>
<svg
   width="193"
   height="14.727945"
   viewBox="0 0 193 14.727945"
   fill="none"
   version="1.1"
   id="svg11"
   sodipodi:docname="blue-arrow.svg"
   inkscape:version="1.1.1 (3bf5ae0d25, 2021-09-20)"
   xmlns:inkscape="http://www.inkscape.org/namespaces/inkscape"
   xmlns:sodipodi="http://sodipodi.sourceforge.net/DTD/sodipodi-0.dtd"
   xmlns="http://www.w3.org/2000/svg"
   xmlns:svg="http://www.w3.org/2000/svg">
  <sodipodi:namedview
     id="namedview13"
     pagecolor="#ffffff"
     bordercolor="#666666"
     borderopacity="1.0"
     inkscape:pageshadow="2"
     inkscape:pageopacity="0.0"
     inkscape:pagecheckerboard="0"
     showgrid="false"
     showguides="false"
     inkscape:zoom="4.2072539"
     inkscape:cx="96.381158"
     inkscape:cy="-30.542488"
     inkscape:window-width="1920"
     inkscape:window-height="1001"
     inkscape:window-x="-9"
     inkscape:window-y="-9"
     inkscape:window-maximized="1"
     inkscape:current-layer="svg11">
    <inkscape:grid
       type="xygrid"
       id="grid830"
       originx="88.499995"
       originy="-89.136028" />
  </sodipodi:namedview>
  <path
     d="m 192.70711,8.071069 c 0.39051,-0.39053 0.39051,-1.02369 0,-1.41422 l -6.36397,-6.363956 c -0.39052,-0.390524 -1.02368,-0.390524 -1.41422,0 -0.39051,0.390526 -0.39051,1.023686 0,1.414216 l 5.65685,5.65685 -5.65685,5.656811 c -0.39051,0.3906 -0.39051,1.0237 0,1.4143 0.39054,0.3905 1.0237,0.3905 1.41422,0 z M 1,6.363969 c -0.552,0 -1,0.44772 -1,1 0,0.55228 0.448,1 1,1 z m 191,-10e-6 -191,10e-6 v 2 l 191,-1e-5 z"
     fill="url(#paint0_linear_22_202)"
     id="path2"
     style="fill:url(#paint0_linear_22_202)" />
  <defs
     id="defs9">
    <linearGradient
       id="paint0_linear_22_202"
       x1="7.9284"
       y1="187.964"
       x2="6.8843498"
       y2="187.96201"
       gradientUnits="userSpaceOnUse"
       gradientTransform="rotate(90,96.818015,96.181985)">
      <stop
         stop-color="#0044FF"
         id="stop4" />
      <stop
         offset="1"
         stop-color="#00A3FF"
         id="stop6" />
    </linearGradient>
  </defs>
</svg>
