<svg width="53" height="47" viewBox="0 0 53 47" fill="none" xmlns="http://www.w3.org/2000/svg">
<path d="M1 1.83136L12.4675 2.96415L14.1971 10.8937L18.0269 28.4518H48.0473L51.3829 10.8937H21.7549" stroke="#F6F6F6" stroke-width="2" stroke-linecap="round" stroke-linejoin="round"/>
<path d="M28.5961 39.5437C28.5961 42.7463 26.2242 45.1989 23.4684 45.1989C20.7127 45.1989 18.3408 42.7463 18.3408 39.5437C18.3408 36.3411 20.7127 33.8885 23.4684 33.8885C26.2242 33.8885 28.5961 36.3411 28.5961 39.5437Z" stroke="#F6F6F6" stroke-width="2" stroke-linecap="round" stroke-linejoin="round"/>
<path d="M47.6597 39.5437C47.6597 42.7463 45.2878 45.1989 42.532 45.1989C39.7762 45.1989 37.4043 42.7463 37.4043 39.5437C37.4043 36.3411 39.7762 33.8885 42.532 33.8885C45.2878 33.8885 47.6597 36.3411 47.6597 39.5437Z" stroke="#F6F6F6" stroke-width="2" stroke-linecap="round" stroke-linejoin="round"/>
</svg>
