<svg width="505" height="416" viewBox="0 0 505 416" fill="none" xmlns="http://www.w3.org/2000/svg">
<path d="M487.593 1.93771L439.777 19.2277L446.34 44.1348L504 24.4428M455.716 415L436.388 335.763L504 316.071M469.31 1.93771L447.746 10.3771L443.996 1M437.902 1L441.652 12.2525L363.366 39.4462L354.459 1M334.302 1.93771L436.027 415M504 30.0691L447.746 48.8233L473.549 152.909L504 144.47M504 275.75L484.59 197.451L504 192.293M504 188.074L483.544 193.231L474.827 158.067L504 149.159M504 294.035L499.781 277.625L427.925 301.068L435.244 331.075L504 310.914M296.331 1C318.676 77.8924 362.71 238.054 360.085 263.559C360.085 284.658 371.336 283.251 383.055 331.075C392.431 369.333 401.025 402.966 404.15 415M417.276 415C410.088 382.024 394.118 314.008 387.743 305.757C379.774 295.442 385.868 276.687 376.492 260.277C368.992 247.149 371.222 214.758 360.085 188.074C356.962 180.591 353.053 178.228 351.178 169.319C350.071 164.058 344.229 126.439 333.833 84.9253C326.627 56.1467 314.594 25.7402 311.332 1.93771M176.792 1.93771L282.736 415M270.548 415L164.604 1.93771L266.329 415M254.61 415L235.677 339.514L217.107 345.631L239.14 415M151.009 1.93771L127.57 10.3771L129.445 14.5968L151.832 5.21971L188.757 152.441L173.511 149.627L96.1837 105.555L90.5368 76.4858H81.1612C74.5983 76.4858 72.2544 66.6399 72.2544 66.6399C72.2544 66.6399 66.9046 42.4041 64.2296 34.7576L82.0988 1.93771M77.411 1.93771L38.3406 72.5873L12.2757 57.7316L1 16.4723M1 34.7576L32.877 154.316C34.2711 159.336 36.7599 164.621 41.315 168.948C40.2212 187.826 42.065 231.959 58.1911 257.464L92.4119 382.18L93.3495 386.4L99.4436 413.593M235.677 415L213.826 346.712L197.418 352.117L215.232 415M211.482 415L193.668 353.353L114.913 379.296L125.695 415M120.07 415L110.694 380.686L96.1622 385.473L103.663 413.593M1.46878 114.463L81.1612 413.593M1.46878 134.155L8.18034 159.005L1.46878 159.473M76.9422 413.593L21.0969 206.828M1.46878 162.755L8.96924 161.925L13.7522 179.634L1.46878 182.447M1.46878 185.729L14.6386 182.916L19.1974 199.795M19.1974 199.795L14.6386 209.172C16.8116 247.149 30.9081 341.202 69.9105 413.593M19.1974 199.795L21.0969 206.828M21.0969 206.828L19.1974 211.516C20.4758 243.242 33.1582 328.074 73.6608 413.593M365.71 46.0102L435.089 20.9228L498.843 272.937L426.553 295.442L365.71 46.0102ZM42.3795 74.8893L90.5368 102.336L86.3178 82.581C80.5362 81.7995 71.0564 82.581 68.973 68.5153C67.4729 58.388 63.8587 44.2277 62.2392 38.4135L42.3795 74.8893ZM39.4399 157.129C43.1901 167.444 66.6291 181.885 121.007 162.755L110.401 118.683L13.9414 63.8267L39.4399 157.129ZM121.007 167.444L136.477 224.644L138.821 222.769L114.913 121.249L169.76 152.441C163.823 159.942 150.072 175.696 142.571 178.696C135.071 181.697 143.509 207.14 148.665 219.487L152.416 217.612L143.978 188.542C143.353 186.511 144.446 181.228 153.822 176.352C163.198 171.476 170.854 159.942 173.511 154.785L189.933 157.129L234.501 334.826L215.232 341.247L195.543 270.123C190.387 261.371 176.98 242.93 164.604 239.179C152.228 235.428 89.7555 248.869 60.0662 256.058C45.4403 232.427 43.258 189.636 43.9951 171.195C55.6323 179.792 77.9402 182.776 121.007 167.444ZM211.482 342.497L191.324 270.123C185.074 257.933 166.854 235.522 143.978 243.399L91.9431 253.627C94.4028 256.111 99.7369 261.361 104.267 265.435L170.229 251.838L197.418 347.184L211.482 342.497ZM62.8788 259.34L95.2246 381.243L103.663 378.431L93.3495 334.826C93.037 332.638 94.6621 326.574 103.663 319.822C112.663 313.071 107.413 282.626 103.663 268.248L87.2554 254.548L62.8788 259.34ZM106.944 377.337L96.1622 334.826C97.256 331.387 100.944 324.229 106.944 323.104C114.083 321.765 113.153 277.525 107.792 268.818L167.417 255.12L193.668 348.434L106.944 377.337Z" stroke="url(#paint0_linear_145_2366)" stroke-width="2" stroke-linecap="round"/>
<path d="M170.667 195.358C170.667 196.466 170.157 197.959 169.328 199.628C168.507 201.28 167.408 203.039 166.301 204.656C165.196 206.27 164.089 207.734 163.258 208.794C162.846 209.321 162.502 209.748 162.26 210.043C162.019 209.748 161.675 209.321 161.262 208.794C160.432 207.734 159.325 206.27 158.219 204.656C157.113 203.039 156.014 201.28 155.193 199.628C154.364 197.959 153.854 196.466 153.854 195.358C153.854 190.716 157.617 186.952 162.26 186.952C166.903 186.952 170.667 190.716 170.667 195.358Z" fill="url(#paint1_linear_145_2366)" stroke="url(#paint2_linear_145_2366)"/>
<circle cx="162.26" cy="195.359" r="3.28145" fill="#15151D"/>
<defs>
<linearGradient id="paint0_linear_145_2366" x1="446.74" y1="-0.937207" x2="472.786" y2="-0.937207" gradientUnits="userSpaceOnUse">
<stop stop-color="#0044FF"/>
<stop offset="1" stop-color="#00A3FF"/>
</linearGradient>
<linearGradient id="paint1_linear_145_2366" x1="162.26" y1="186.452" x2="162.26" y2="210.828" gradientUnits="userSpaceOnUse">
<stop stop-color="#0044FF"/>
<stop offset="1" stop-color="#00A3FF"/>
</linearGradient>
<linearGradient id="paint2_linear_145_2366" x1="162.26" y1="186.452" x2="162.26" y2="204.265" gradientUnits="userSpaceOnUse">
<stop stop-color="#0044FF"/>
<stop offset="1" stop-color="#00A3FF"/>
</linearGradient>
</defs>
</svg>
