<svg width="32" height="30" viewBox="0 0 32 30" fill="none" xmlns="http://www.w3.org/2000/svg">
<path d="M15.6026 1.08156C15.7523 0.620906 16.404 0.620902 16.5537 1.08156L19.5316 10.2467C19.7324 10.8647 20.3083 11.2832 20.9582 11.2832H30.595C31.0793 11.2832 31.2807 11.903 30.8889 12.1877L23.0925 17.8521C22.5668 18.234 22.3468 18.9111 22.5476 19.5291L25.5256 28.6943C25.6752 29.1549 25.148 29.538 24.7561 29.2533L16.9598 23.5889C16.4341 23.2069 15.7222 23.2069 15.1964 23.5889L7.4001 29.2533C7.00825 29.538 6.48101 29.1549 6.63068 28.6943L9.60862 19.5291C9.80943 18.9111 9.58944 18.234 9.06371 17.8521L1.26737 12.1877C0.875514 11.903 1.0769 11.2832 1.56126 11.2832H11.1981C11.8479 11.2832 12.4238 10.8647 12.6247 10.2467L15.6026 1.08156Z" stroke="url(#paint0_linear_209_8023)"/>
<defs>
<linearGradient id="paint0_linear_209_8023" x1="16.0781" y1="-2" x2="16.0781" y2="35" gradientUnits="userSpaceOnUse">
<stop stop-color="#0044FF"/>
<stop offset="1" stop-color="#00A3FF"/>
</linearGradient>
</defs>
</svg>
