<svg width="1624" height="723" viewBox="0 0 1624 723" fill="none" xmlns="http://www.w3.org/2000/svg">
<mask id="mask0_22_312" style="mask-type:alpha" maskUnits="userSpaceOnUse" x="-27" y="0" width="1651" height="723">
<path d="M645.5 723H1624V151.5L678 44.5L636.5 76.5L539.5 85.5L-27 0V596L239 440L645.5 723Z" fill="#C4C4C4"/>
</mask>
<g mask="url(#mask0_22_312)">
<path opacity="0.010101" d="M1312.73 743.015L1271.78 662.28C1230.83 581.545 1148.93 420.076 993.56 306.453C838.187 192.831 609.34 127.055 511.115 -23.7814C412.889 -174.618 445.285 -410.516 330.731 -550.72C216.178 -690.924 -45.3241 -735.435 -176.075 -757.69L-306.826 -779.945" stroke="url(#paint0_linear_22_312)" stroke-width="9.90909"/>
<path opacity="0.020202" d="M1282.47 752.972L1243.3 672.289C1204.13 591.605 1125.8 430.238 973.847 315.002C821.896 199.766 596.326 130.661 501.633 -20.4549C406.939 -171.571 443.123 -404.697 332.07 -545.562C221.017 -686.426 -37.2717 -735.028 -166.416 -759.329L-295.56 -783.631" stroke="url(#paint1_linear_22_312)" stroke-width="9.81818"/>
<path opacity="0.030303" d="M1252.22 762.441L1214.82 681.846C1177.42 601.251 1102.62 440.061 954.101 323.296C805.579 206.531 583.332 134.191 492.151 -17.1273C400.97 -168.445 440.854 -398.74 333.289 -540.186C225.725 -681.632 -29.2882 -734.228 -156.795 -760.526L-284.301 -786.824" stroke="url(#paint2_linear_22_312)" stroke-width="9.72727"/>
<path opacity="0.040404" d="M1222 771.423L1186.35 690.954C1150.71 610.484 1079.41 449.545 934.327 331.335C789.241 213.125 570.361 137.644 482.669 -13.7999C394.978 -165.244 438.475 -392.65 334.385 -534.599C230.295 -676.547 -21.3817 -733.037 -147.22 -761.283L-273.059 -789.528" stroke="url(#paint3_linear_22_312)" stroke-width="9.63636"/>
<path opacity="0.050505" d="M1191.81 779.922L1157.91 699.614C1124 619.306 1056.18 458.691 914.531 339.12C772.885 219.549 557.413 141.022 473.188 -10.4722C388.963 -161.967 435.985 -386.429 335.354 -528.803C234.723 -671.176 -13.5607 -731.461 -137.702 -761.603L-261.844 -791.745" stroke="url(#paint4_linear_22_312)" stroke-width="9.54545"/>
<path opacity="0.0606061" d="M1161.68 787.937L1129.49 707.827C1097.3 627.717 1032.92 467.497 894.717 346.649C756.515 225.801 544.49 144.325 463.706 -7.14589C382.922 -158.617 433.379 -380.082 336.19 -522.804C239.001 -665.525 -5.83411 -729.502 -128.252 -761.491L-250.669 -793.48" stroke="url(#paint5_linear_22_312)" stroke-width="9.45455"/>
<path opacity="0.0707071" d="M1131.6 795.476L1101.11 715.599C1070.62 635.722 1009.65 475.968 874.893 353.927C740.136 231.885 531.595 147.555 454.225 -3.81813C376.856 -155.192 430.657 -373.609 336.891 -516.602C243.125 -659.595 1.79121 -727.164 -118.876 -760.948L-239.543 -794.732" stroke="url(#paint6_linear_22_312)" stroke-width="9.36364"/>
<path opacity="0.0808081" d="M1101.58 802.54L1072.78 722.931C1043.98 643.322 986.377 484.104 855.064 360.951C723.75 237.799 518.727 150.712 444.744 -0.491175C370.76 -151.695 427.816 -367.016 337.453 -510.205C247.089 -653.394 9.30631 -724.451 -109.585 -759.979L-228.477 -795.508" stroke="url(#paint7_linear_22_312)" stroke-width="9.27273"/>
<path opacity="0.0909091" d="M1071.65 809.134L1044.51 729.827C1017.38 650.52 963.107 491.905 835.235 367.725C707.363 243.545 505.89 153.798 435.263 2.83611C364.635 -148.126 424.854 -360.304 337.871 -503.614C250.888 -646.924 16.704 -721.367 -100.388 -758.588L-217.48 -795.81" stroke="url(#paint8_linear_22_312)" stroke-width="9.18182"/>
<path opacity="0.10101" d="M1041.8 815.261L1016.31 736.29C990.825 657.318 939.847 499.376 815.412 374.25C690.976 249.123 493.083 156.814 425.781 6.16387C358.479 -144.486 421.768 -353.477 338.143 -496.835C254.517 -640.192 23.9763 -717.916 -91.2941 -756.779L-206.564 -795.641" stroke="url(#paint9_linear_22_312)" stroke-width="9.09091"/>
<path opacity="0.111111" d="M1012.05 820.925L988.193 742.323C964.33 663.72 916.605 506.515 795.6 380.525C674.595 254.535 480.31 159.76 416.3 9.49127C352.291 -140.777 418.558 -346.539 338.264 -489.871C257.97 -633.202 31.1159 -714.104 -82.3113 -754.555L-195.739 -795.006" stroke="url(#paint10_linear_22_312)" stroke-width="9"/>
<path opacity="0.121212" d="M982.415 826.131L960.158 747.929C937.902 669.728 893.389 513.326 775.806 386.553C658.223 259.78 467.57 162.637 406.819 12.8186C346.069 -136.999 415.22 -339.492 338.232 -482.726C261.243 -625.96 38.1149 -709.934 -73.4493 -751.922L-185.013 -793.909" stroke="url(#paint11_linear_22_312)" stroke-width="8.90909"/>
<path opacity="0.131313" d="M952.892 830.882L932.22 753.114C911.548 675.346 870.204 519.81 756.034 392.335C641.863 264.86 454.866 165.446 397.338 16.1456C339.811 -133.155 411.753 -332.342 338.042 -475.406C264.331 -618.471 44.966 -705.413 -64.7163 -748.884L-174.399 -792.355" stroke="url(#paint12_linear_22_312)" stroke-width="8.81818"/>
<path opacity="0.141414" d="M923.497 835.185L904.387 757.881C885.278 680.578 847.06 525.97 736.29 397.873C625.52 269.776 442.199 168.19 387.858 19.4735C333.517 -129.243 408.156 -325.088 337.692 -467.913C267.228 -610.738 51.6621 -700.542 -56.121 -745.445L-163.904 -790.347" stroke="url(#paint13_linear_22_312)" stroke-width="8.72727"/>
<path opacity="0.151515" d="M894.239 839.044L876.67 762.235C859.101 685.426 823.962 531.809 716.58 403.169C609.197 274.53 429.57 170.868 378.377 22.8013C327.185 -125.265 404.426 -317.737 337.179 -460.253C269.932 -602.769 58.1966 -695.33 -47.671 -741.61L-153.539 -787.89" stroke="url(#paint14_linear_22_312)" stroke-width="8.63636"/>
<path opacity="0.161616" d="M865.127 842.463L849.075 766.179C833.022 689.895 800.918 537.328 696.907 408.225C592.897 279.121 416.98 173.482 368.896 26.1289C320.813 -121.224 400.561 -310.291 336.499 -452.43C272.436 -594.569 64.5612 -689.78 -39.376 -737.385L-143.313 -784.991" stroke="url(#paint15_linear_22_312)" stroke-width="8.54545"/>
<path opacity="0.171717" d="M836.171 845.448L821.612 769.718C807.053 693.989 777.934 542.53 677.279 413.041C576.624 283.552 404.432 176.033 359.416 29.4565C314.401 -117.12 396.562 -302.754 335.649 -444.449C274.737 -586.143 70.7502 -683.898 -31.243 -732.775L-133.236 -781.653" stroke="url(#paint16_linear_22_312)" stroke-width="8.45455"/>
<path opacity="0.181818" d="M807.38 848.005L794.29 772.858C781.199 697.712 755.019 547.419 657.7 417.622C560.381 287.824 391.925 178.523 349.936 32.7843C307.947 -112.954 392.425 -295.129 334.627 -436.313C276.83 -577.497 76.7564 -677.689 -23.2803 -727.786L-123.317 -777.882" stroke="url(#paint17_linear_22_312)" stroke-width="8.36364"/>
<path opacity="0.191919" d="M778.762 850.14L767.116 775.604C755.47 701.068 732.177 551.997 638.175 421.968C544.173 291.939 379.461 180.952 340.455 36.1124C301.449 -108.727 388.15 -287.42 333.43 -428.028C278.711 -568.636 82.5732 -671.16 -15.4959 -722.421L-113.565 -773.683" stroke="url(#paint18_linear_22_312)" stroke-width="8.27273"/>
<path opacity="0.20202" d="M750.328 851.857L740.1 777.96C729.873 704.062 709.417 556.267 618.71 426.082C528.002 295.897 367.042 183.322 330.975 39.4403C294.909 -104.441 383.735 -279.63 332.056 -419.599C280.378 -559.567 88.1947 -664.315 -7.89695 -716.689L-103.989 -769.063" stroke="url(#paint19_linear_22_312)" stroke-width="8.18182"/>
<path opacity="0.212121" d="M722.084 853.163L713.249 779.93C704.414 706.697 686.745 560.231 599.308 429.965C511.872 299.699 354.668 185.633 321.495 42.7674C288.322 -100.098 379.178 -271.764 330.501 -411.03C281.824 -550.296 93.6134 -657.162 -0.492119 -710.595L-94.5976 -764.028" stroke="url(#paint20_linear_22_312)" stroke-width="8.09091"/>
<path opacity="0.222222" d="M694.04 854.066L686.572 781.523C679.103 708.981 664.167 563.896 579.976 433.623C495.786 303.35 342.341 187.889 312.015 46.096C281.689 -95.6972 374.481 -263.823 328.764 -402.324C283.048 -540.826 98.8244 -649.704 6.7124 -704.143L-85.3996 -758.582" stroke="url(#paint21_linear_22_312)" stroke-width="8"/>
<path opacity="0.232323" d="M666.204 854.57L660.075 782.743C653.947 710.917 641.69 567.263 560.718 437.057C479.747 306.85 330.062 190.09 302.535 49.4248C275.008 -91.2404 369.639 -255.811 326.842 -393.488C284.046 -531.165 103.821 -641.949 13.7086 -697.34L-76.4037 -752.732" stroke="url(#paint22_linear_22_312)" stroke-width="7.90909"/>
<path opacity="0.242424" d="M638.584 854.681L633.768 783.595C628.952 712.508 619.319 570.335 541.539 440.266C463.759 310.198 317.831 192.235 293.055 52.7519C268.279 -86.7314 364.654 -247.735 324.733 -384.528C284.813 -521.321 108.597 -633.904 20.4894 -690.196L-67.6184 -746.487" stroke="url(#paint23_linear_22_312)" stroke-width="7.81818"/>
<path opacity="0.252525" d="M611.189 854.41L607.658 784.087C604.126 713.764 597.063 573.118 522.444 443.26C447.826 313.401 305.651 194.33 283.575 56.0814C261.5 -82.1672 359.524 -239.593 322.436 -375.445C285.348 -511.296 113.148 -625.573 27.0488 -682.711L-59.0509 -739.85" stroke="url(#paint24_linear_22_312)" stroke-width="7.72727"/>
<path opacity="0.262626" d="M584.026 853.758L581.751 784.222C579.476 714.686 574.926 575.614 503.437 446.035C431.948 316.457 293.521 196.372 274.095 59.4092C254.67 -77.5534 354.247 -231.394 319.947 -366.247C285.646 -501.1 117.468 -616.965 33.3786 -674.898L-50.7105 -732.83" stroke="url(#paint25_linear_22_312)" stroke-width="7.63636"/>
<path opacity="0.272727" d="M557.103 852.736L556.056 784.009C555.009 715.281 552.915 577.826 484.523 448.597C416.131 319.368 281.442 198.364 264.615 62.7369C247.789 -72.8899 348.824 -223.14 317.265 -356.939C285.705 -490.738 121.55 -608.086 39.4728 -666.76L-42.6046 -725.434" stroke="url(#paint26_linear_22_312)" stroke-width="7.54545"/>
<path opacity="0.282828" d="M530.427 851.35L530.579 783.453C530.731 715.556 531.035 579.762 465.707 450.95C400.378 322.138 269.417 200.308 255.136 66.0654C240.855 -68.1771 343.254 -214.832 314.388 -347.523C285.522 -480.214 125.391 -598.941 45.3255 -658.304L-34.7402 -717.668" stroke="url(#paint27_linear_22_312)" stroke-width="7.45455"/>
<path opacity="0.292929" d="M504.006 849.608L505.328 782.562C506.65 715.515 509.293 581.423 446.992 453.096C384.691 324.768 257.445 202.205 245.656 69.3939C233.868 -63.4173 337.537 -206.477 311.316 -338.007C285.095 -469.537 128.985 -589.538 50.9297 -649.538L-27.1255 -709.539" stroke="url(#paint28_linear_22_312)" stroke-width="7.36364"/>
<path opacity="0.30303" d="M477.847 847.517L480.309 781.342C482.771 715.166 487.694 582.816 428.384 455.039C369.073 327.261 245.527 204.057 236.177 72.7232C226.826 -58.611 331.671 -198.076 308.046 -328.393C284.421 -458.711 132.327 -579.883 56.2796 -640.469L-19.7676 -701.054" stroke="url(#paint29_linear_22_312)" stroke-width="7.27273"/>
<path opacity="0.313131" d="M451.957 845.083L455.529 779.798C459.101 714.513 466.245 583.942 409.886 456.78C353.527 329.618 233.665 205.864 226.698 76.0511C219.73 -53.762 325.657 -189.635 304.577 -318.69C283.498 -447.746 135.412 -569.985 61.3693 -631.104L-12.6734 -692.223" stroke="url(#paint30_linear_22_312)" stroke-width="7.18182"/>
<path opacity="0.323232" d="M426.342 842.317L430.994 777.94C435.646 713.563 444.95 584.809 391.503 458.326C338.056 331.842 221.859 207.63 217.218 79.3803C212.577 -48.8691 319.493 -181.155 300.908 -308.9C282.322 -436.645 138.236 -559.848 66.1928 -621.45L-5.85042 -683.052" stroke="url(#paint31_linear_22_312)" stroke-width="7.09091"/>
<path opacity="0.333333" d="M401.009 839.225L406.71 775.774C412.412 712.322 423.814 585.42 373.238 459.678C322.663 333.936 210.109 209.354 207.738 82.7094C205.368 -43.9351 313.18 -172.642 297.037 -299.029C280.893 -425.415 140.794 -549.482 70.7444 -611.515L0.694753 -673.548" stroke="url(#paint32_linear_22_312)" stroke-width="7"/>
<path opacity="0.343434" d="M375.966 835.814L382.685 773.305C389.405 710.797 402.844 585.779 355.097 460.84C307.35 335.9 198.417 211.037 198.26 86.0375C198.102 -38.9624 306.719 -164.1 292.964 -289.082C279.209 -414.065 143.083 -538.893 75.0195 -601.307L6.95632 -663.721" stroke="url(#paint33_linear_22_312)" stroke-width="6.90909"/>
<path opacity="0.353535" d="M351.217 832.094L358.924 770.544C366.63 708.994 382.044 585.894 337.082 461.817C292.12 337.739 186.783 212.684 188.78 89.3668C190.777 -33.9504 300.107 -155.53 288.687 -279.064C277.267 -402.598 145.097 -528.088 79.0117 -590.833L12.9267 -653.578" stroke="url(#paint34_linear_22_312)" stroke-width="6.81818"/>
<path opacity="0.363636" d="M326.769 828.072L335.431 767.496C344.094 706.92 361.419 585.768 319.198 462.611C276.976 339.454 175.208 214.294 179.301 92.6959C183.393 -28.9019 293.346 -146.937 284.206 -268.98C275.066 -391.023 146.833 -517.075 82.7168 -580.1L18.6003 -643.126" stroke="url(#paint35_linear_22_312)" stroke-width="6.72727"/>
<path opacity="0.373737" d="M302.627 823.758L312.214 764.17C321.801 704.581 340.974 585.405 301.447 463.227C261.92 341.049 163.693 215.868 169.821 96.0249C175.95 -23.8185 286.436 -138.325 279.52 -258.835C272.605 -379.346 148.288 -505.861 86.1295 -569.118L23.9711 -632.375" stroke="url(#paint36_linear_22_312)" stroke-width="6.63636"/>
<path opacity="0.383838" d="M278.799 819.159L289.278 760.572C299.757 701.986 320.715 584.813 283.835 463.669C246.956 342.525 152.237 217.41 160.343 99.3544C168.448 -18.701 279.377 -129.697 274.63 -248.635C269.882 -367.573 149.458 -494.452 89.2458 -557.892L29.0338 -621.332" stroke="url(#paint37_linear_22_312)" stroke-width="6.54545"/>
<path opacity="0.393939" d="M255.287 814.283L266.627 756.711C277.967 699.139 300.646 583.995 266.365 463.94C232.084 343.885 140.842 218.919 150.864 102.683C160.885 -13.552 272.169 -121.057 269.533 -238.384C266.896 -355.711 150.339 -482.859 92.0606 -546.433L33.7821 -610.008" stroke="url(#paint38_linear_22_312)" stroke-width="6.45455"/>
<path opacity="0.40404" d="M232.099 809.141L244.267 752.595C256.434 696.049 280.77 582.958 249.038 464.045C217.307 345.132 129.508 220.398 141.384 106.013C153.261 -8.37208 264.812 -112.408 264.229 -228.087C263.646 -343.766 150.928 -471.087 94.5692 -534.748L38.2104 -598.408" stroke="url(#paint39_linear_22_312)" stroke-width="6.36364"/>
<path opacity="0.414141" d="M209.238 803.739L222.202 748.231C235.166 692.723 261.094 581.706 231.861 463.988C202.628 346.269 118.236 221.848 131.905 109.342C145.575 -3.16357 257.307 -103.755 258.719 -217.75C260.131 -331.745 151.223 -459.145 96.7686 -522.844L42.3144 -586.544" stroke="url(#paint40_linear_22_312)" stroke-width="6.27273"/>
<path opacity="0.424242" d="M186.711 798.088L200.438 743.628C214.165 689.167 241.62 580.246 214.835 463.772C188.05 347.298 107.025 223.271 122.426 112.671C137.828 2.07201 249.655 -95.0999 253.003 -207.378C256.351 -319.656 151.22 -447.04 98.6542 -510.732L46.0886 -574.424" stroke="url(#paint41_linear_22_312)" stroke-width="6.18182"/>
<path opacity="0.434343" d="M164.521 792.197L178.979 738.793C193.437 685.39 222.353 578.583 197.963 463.403C173.573 348.223 95.877 224.668 112.948 116.001C130.018 7.33365 241.856 -86.4468 247.08 -196.975C252.305 -307.503 150.917 -434.779 100.223 -498.417L49.5287 -562.055" stroke="url(#paint42_linear_22_312)" stroke-width="6.09091"/>
<path opacity="0.444444" d="M142.672 786.074L157.829 733.736C172.985 681.399 203.298 576.724 181.25 462.885C159.201 349.046 84.7918 226.042 103.469 119.331C122.146 12.62 233.91 -77.7987 240.951 -186.546C247.992 -295.294 150.311 -422.371 101.47 -485.909L52.6297 -549.448" stroke="url(#paint43_linear_22_312)" stroke-width="6"/>
<path opacity="0.454545" d="M121.169 779.727L136.991 728.463C152.813 677.2 184.457 574.673 164.696 462.221C144.935 349.769 73.7691 227.393 93.9898 122.66C114.21 17.9276 225.818 -69.1609 234.615 -176.099C243.413 -283.037 149.4 -409.825 102.393 -473.218L55.3869 -536.612" stroke="url(#paint44_linear_22_312)" stroke-width="5.90909"/>
<path opacity="0.464646" d="M100.016 773.168L116.471 722.985C132.926 672.803 165.835 572.437 148.306 461.418C130.778 350.398 62.81 228.724 84.511 125.991C106.212 23.2576 217.581 -60.5341 228.074 -165.635C238.566 -270.735 148.182 -397.145 102.989 -460.35L57.797 -523.555" stroke="url(#paint45_linear_22_312)" stroke-width="5.81818"/>
<path opacity="0.474747" d="M79.2172 766.405L96.2719 717.309C113.327 668.214 147.436 570.022 132.083 460.478C116.73 350.933 51.9146 230.035 75.0323 129.321C98.1501 28.6064 209.201 -51.9238 221.327 -155.161C233.453 -258.398 146.654 -384.342 103.255 -447.314L59.8558 -510.287" stroke="url(#paint46_linear_22_312)" stroke-width="5.72727"/>
<path opacity="0.484848" d="M58.7749 759.447L76.3966 711.443C94.0184 663.44 129.262 567.434 116.028 459.406C102.794 351.378 41.0827 231.328 65.5535 132.651C90.0242 33.9729 200.677 -43.3328 214.375 -144.682C228.073 -246.031 144.816 -371.424 103.188 -434.12L61.5593 -496.817" stroke="url(#paint47_linear_22_312)" stroke-width="5.63636"/>
<path opacity="0.494949" d="M38.6926 752.303L56.8486 705.397C75.0046 658.491 111.317 564.679 100.144 458.207C88.9716 351.736 30.3146 232.606 56.0744 135.981C81.8343 39.3554 192.011 -34.7647 207.219 -134.203C222.427 -233.641 142.665 -358.398 102.785 -420.776L62.9041 -483.155" stroke="url(#paint48_linear_22_312)" stroke-width="5.54545"/>
<path opacity="0.50505" d="M18.9746 744.983L37.632 699.178C56.2894 653.373 93.6041 561.762 84.4346 456.886C75.2651 352.01 19.6112 233.869 46.5962 139.311C73.5811 44.7524 183.205 -26.2225 199.86 -123.729C216.515 -221.235 140.201 -345.272 102.045 -407.291L63.8879 -469.31" stroke="url(#paint49_linear_22_312)" stroke-width="5.45455"/>
<path opacity="0.515152" d="M-0.37791 737.497L18.7481 692.796C37.874 648.094 76.126 558.692 68.9003 455.448C61.6746 352.204 8.97133 235.119 37.1171 142.641C65.2629 50.1625 174.258 -17.7095 192.298 -113.264C210.337 -208.818 137.422 -332.054 100.964 -393.673L64.506 -455.291" stroke="url(#paint50_linear_22_312)" stroke-width="5.36364"/>
<path opacity="0.525253" d="M-19.3613 729.854L0.200533 686.259C19.7623 642.663 58.886 555.473 53.5444 453.897C48.2027 352.32 -1.60416 236.359 27.6383 145.971C56.8808 55.584 165.173 -9.22908 184.534 -102.813C203.895 -196.397 134.326 -318.753 99.5413 -379.93L64.7567 -441.108" stroke="url(#paint51_linear_22_312)" stroke-width="5.27273"/>
<path opacity="0.535354" d="M-37.9728 722.064L-18.0078 679.576C1.95718 637.088 41.8872 552.112 38.3692 452.237C34.8511 352.363 -12.1148 237.589 18.16 149.302C48.4349 61.0153 155.951 -0.784329 176.57 -92.3819C197.19 -183.98 130.914 -305.375 97.7759 -366.073L64.6378 -426.771" stroke="url(#paint52_linear_22_312)" stroke-width="5.18182"/>
<path opacity="0.545455" d="M-56.2117 714.135L-35.8761 672.755C-15.5405 631.375 25.1306 548.615 23.3752 450.474C21.6198 352.333 -22.5622 238.81 8.68083 152.632C39.9238 66.454 146.592 7.62056 168.407 -81.9755C190.222 -171.572 127.183 -291.93 95.6643 -352.11L64.1452 -412.289" stroke="url(#paint53_linear_22_312)" stroke-width="5.09091"/>
<path opacity="0.555556" d="M-74.0744 706.079L-53.4007 665.807C-32.727 625.534 8.62031 544.99 8.5659 448.613C8.5115 352.236 -32.9447 240.026 -0.797707 155.963C31.3492 71.8998 137.099 15.9839 160.046 -71.5974C182.992 -159.179 123.136 -278.425 93.207 -338.049L63.2786 -397.672" stroke="url(#paint54_linear_22_312)" stroke-width="5"/>
<path opacity="0.565657" d="M-91.5601 697.905L-70.5807 658.739C-49.6012 619.574 -7.64239 541.242 -6.0579 446.658C-4.4734 352.074 -43.2632 241.237 -10.2765 159.294C22.7103 77.3508 127.474 24.3021 151.488 -61.2527C175.503 -146.807 118.769 -264.868 90.4021 -323.899L62.0351 -382.929" stroke="url(#paint55_linear_22_312)" stroke-width="4.90909"/>
<path opacity="0.575758" d="M-108.667 689.621L-87.4137 651.561C-66.1607 613.5 -23.6548 537.378 -20.494 444.615C-17.3332 351.851 -53.5175 242.444 -19.7549 162.625C14.0077 82.8048 117.717 32.5715 142.736 -50.9466C167.755 -134.465 114.084 -251.268 87.249 -309.669L60.4135 -368.071" stroke="url(#paint56_linear_22_312)" stroke-width="4.81818"/>
<path opacity="0.585859" d="M-125.393 681.238L-103.899 644.28C-82.4045 607.321 -39.4156 533.404 -34.7415 442.486C-30.0674 351.568 -63.7081 243.65 -29.2336 165.955C5.24092 88.2598 107.831 40.7886 133.791 -40.6844C159.751 -122.157 109.081 -237.632 83.7466 -295.369L58.4118 -353.107" stroke="url(#paint57_linear_22_312)" stroke-width="4.72727"/>
<path opacity="0.59596" d="M-141.739 672.767L-120.035 636.907C-98.3305 601.048 -54.9224 529.328 -48.7984 440.281C-42.6745 351.233 -73.8348 244.856 -38.712 169.286C-3.58926 93.7161 97.8165 48.9524 124.654 -30.4684C151.491 -109.889 103.76 -223.967 79.8947 -281.006L56.0292 -338.045" stroke="url(#paint58_linear_22_312)" stroke-width="4.63636"/>
<path opacity="0.606061" d="M-157.702 664.216L-135.82 629.451C-113.938 594.686 -70.1742 525.156 -62.6643 438C-55.1543 350.845 -83.8984 246.064 -48.1908 172.617C-12.4832 99.1705 87.676 57.0582 115.327 -20.3052C142.978 -97.6687 98.1212 -210.283 75.6927 -266.591L53.2642 -322.898" stroke="url(#paint59_linear_22_312)" stroke-width="4.54545"/>
<path opacity="0.616162" d="M-173.283 655.595L-151.255 621.919C-129.226 588.244 -85.1692 520.894 -76.3374 435.652C-67.5055 350.409 -93.8987 247.275 -57.6695 175.948C-21.4404 104.622 77.4112 65.1038 105.813 -10.1986C134.214 -85.501 92.1651 -196.587 71.1407 -252.131L50.1163 -307.674" stroke="url(#paint60_linear_22_312)" stroke-width="4.45455"/>
<path opacity="0.626263" d="M-188.481 646.913L-166.337 614.322C-144.193 581.731 -99.9058 516.549 -89.8165 433.238C-79.7271 349.928 -103.836 248.49 -67.148 179.279C-30.4602 110.069 67.0244 73.0857 96.1127 -0.153387C125.201 -73.3925 85.893 -182.888 66.239 -237.635L46.5851 -292.383" stroke="url(#paint61_linear_22_312)" stroke-width="4.36364"/>
<path opacity="0.636364" d="M-203.295 638.182L-181.067 606.668C-158.839 575.155 -114.383 512.128 -103.101 430.767C-91.8191 349.406 -113.711 249.712 -76.6268 182.611C-39.5428 115.51 56.5169 81.0022 86.229 9.8269C115.941 -61.3484 79.3054 -169.191 60.9875 -223.113L42.6697 -277.034" stroke="url(#paint62_linear_22_312)" stroke-width="4.27273"/>
<path opacity="0.646465" d="M-217.726 629.409L-195.445 598.966C-173.163 568.523 -128.6 507.637 -116.19 428.242C-103.78 348.846 -123.523 250.941 -86.1054 185.942C-48.6874 120.943 45.8914 88.8494 76.1642 19.7369C106.437 -49.3755 72.4038 -155.507 55.3872 -208.572L38.3706 -261.638" stroke="url(#paint63_linear_22_312)" stroke-width="4.18182"/>
<path opacity="0.656566" d="M-231.774 620.606L-209.47 591.226C-187.165 561.845 -142.556 503.084 -129.083 425.668C-115.61 348.252 -133.274 252.181 -95.5839 189.274C-57.8938 126.367 35.1498 96.6254 65.9206 29.5732C96.6914 -37.479 65.1895 -141.841 49.4385 -194.023L33.6876 -246.204" stroke="url(#paint64_linear_22_312)" stroke-width="4.09091"/>
<path opacity="0.666667" d="M-245.44 611.781L-223.143 583.455C-200.845 555.128 -156.25 498.475 -141.78 423.05C-127.309 347.626 -142.964 253.43 -105.063 192.606C-67.1621 131.781 24.2936 104.327 55.5 39.331C86.7063 -25.6651 57.6634 -128.203 43.1419 -179.472L28.6204 -230.742" stroke="url(#paint65_linear_22_312)" stroke-width="4"/>
<path opacity="0.676768" d="M-258.725 602.945L-236.464 575.663C-214.203 548.38 -169.682 493.816 -154.279 420.394C-138.876 346.972 -152.592 254.692 -114.542 195.937C-76.4911 137.182 13.3259 111.952 44.9056 49.0059C76.4854 -13.9397 49.8279 -114.6 36.4992 -164.931L23.1705 -215.261" stroke="url(#paint66_linear_22_312)" stroke-width="3.90909"/>
<path opacity="0.686869" d="M-271.628 594.106L-249.433 567.858C-227.239 541.611 -182.85 489.115 -166.581 417.704C-150.311 346.293 -162.16 255.968 -124.02 199.269C-85.8804 142.57 2.24862 119.497 34.1399 58.5946C66.0312 -2.30785 41.6847 -101.04 29.5115 -150.406L17.3383 -199.772" stroke="url(#paint67_linear_22_312)" stroke-width="3.81818"/>
<path opacity="0.69697" d="M-284.151 585.275L-262.052 560.05C-239.953 534.826 -195.756 484.377 -178.685 414.985C-161.613 345.593 -171.668 257.258 -133.499 202.6C-95.3296 147.942 -8.93571 126.96 23.2057 68.0917C55.347 9.22375 33.2359 -87.5301 22.1804 -135.907L11.1248 -184.284" stroke="url(#paint68_linear_22_312)" stroke-width="3.72727"/>
<path opacity="0.707071" d="M-296.296 576.461L-274.321 552.248C-252.347 528.036 -208.398 479.611 -190.591 412.244C-172.783 344.876 -181.117 258.567 -142.978 205.932C-104.838 153.298 -20.225 134.339 12.1054 77.4953C44.4358 20.6515 24.4834 -74.0771 14.5072 -121.441L4.53101 -168.806" stroke="url(#paint69_linear_22_312)" stroke-width="3.63636"/>
<path opacity="0.717172" d="M-308.064 567.673L-286.242 544.461C-264.42 521.248 -220.777 474.823 -202.299 409.484C-183.821 344.145 -190.507 259.893 -152.456 209.264C-114.405 158.636 -31.6165 141.632 0.84228 86.8002C33.3011 31.9689 15.4299 -60.6892 6.49427 -107.018L-2.44134 -153.347" stroke="url(#paint70_linear_22_312)" stroke-width="3.54545"/>
<path opacity="0.727273" d="M-319.457 558.921L-297.816 536.695C-276.175 514.469 -232.893 470.018 -213.81 406.71C-194.726 343.402 -199.84 261.238 -161.935 212.596C-124.031 163.954 -43.1081 148.834 -10.581 96.0022C21.9461 43.17 6.07753 -47.3746 -1.85672 -92.647L-9.79098 -137.919" stroke="url(#paint71_linear_22_312)" stroke-width="3.45455"/>
<path opacity="0.737374" d="M-330.477 550.215L-309.044 528.962C-287.612 507.71 -244.747 465.204 -225.123 403.928C-205.498 342.652 -209.114 262.605 -171.414 215.928C-133.714 169.252 -54.6971 155.946 -22.1613 105.099C10.3744 54.2507 -3.57073 -34.1394 -10.5433 -78.3345L-17.5159 -122.53" stroke="url(#paint72_linear_22_312)" stroke-width="3.36364"/>
<path opacity="0.747475" d="M-341.126 541.563L-319.93 521.269C-298.733 500.976 -256.339 460.389 -236.239 401.143C-216.139 341.898 -218.333 263.994 -180.893 219.26C-143.454 174.527 -66.3813 162.965 -33.896 114.085C-1.41066 65.2056 -13.5126 -20.9913 -19.5636 -64.0897L-25.6146 -107.188" stroke="url(#paint73_linear_22_312)" stroke-width="3.27273"/>
<path opacity="0.757576" d="M-351.407 532.974L-330.472 513.625C-309.538 494.276 -267.669 455.577 -247.158 398.36C-226.647 341.143 -227.494 265.406 -190.372 222.592C-153.249 179.779 -78.1567 169.887 -45.7803 122.958C-13.4039 76.0292 -23.7435 -7.93782 -28.9134 -49.9213L-34.0832 -91.9048" stroke="url(#paint74_linear_22_312)" stroke-width="3.18182"/>
<path opacity="0.767677" d="M-361.322 524.46L-340.676 506.039C-320.03 487.618 -278.739 450.777 -257.882 395.584C-237.024 340.39 -236.601 266.844 -199.851 225.925C-163.1 185.006 -90.0223 176.713 -57.8127 131.715C-25.6031 86.7172 -34.262 5.01466 -38.5915 -35.8366L-42.9209 -76.6878" stroke="url(#paint75_linear_22_312)" stroke-width="3.09091"/>
<path opacity="0.777778" d="M-370.874 516.027L-350.543 498.519C-330.212 481.011 -289.549 445.995 -268.41 392.819C-247.27 339.644 -245.654 268.309 -209.33 229.258C-173.006 190.206 -101.974 183.438 -69.989 140.351C-38.0035 97.2644 -45.0639 17.8587 -48.5941 -21.8442L-52.1243 -61.547" stroke="url(#paint76_linear_22_312)" stroke-width="3"/>
<path opacity="0.787879" d="M-380.066 507.685L-360.075 491.073C-340.084 474.46 -300.101 441.236 -278.744 390.071C-257.386 338.906 -254.653 269.801 -218.809 232.59C-182.966 195.379 -114.011 190.061 -82.3061 148.864C-50.6013 107.666 -56.1461 30.5868 -58.9185 -7.95253L-61.6909 -46.4919" stroke="url(#paint77_linear_22_312)" stroke-width="2.90909"/>
<path opacity="0.79798" d="M-388.902 499.443L-369.275 483.709C-349.649 467.975 -310.396 436.508 -288.883 387.344C-267.371 338.181 -263.599 271.322 -228.288 235.922C-192.978 200.522 -126.128 196.581 -94.76 157.249C-63.3917 117.916 -67.5043 43.1927 -69.5606 5.8308L-71.6169 -31.5311" stroke="url(#paint78_linear_22_312)" stroke-width="2.81818"/>
<path opacity="0.808081" d="M-397.384 491.311L-378.147 476.437C-358.909 461.564 -320.435 431.817 -298.83 384.645C-277.226 337.473 -272.493 272.874 -237.767 239.255C-203.041 205.636 -138.324 202.996 -107.347 165.505C-76.3704 128.013 -79.1348 55.6704 -80.517 19.4988L-81.8991 -16.6727" stroke="url(#paint79_linear_22_312)" stroke-width="2.72727"/>
<path opacity="0.818182" d="M-405.517 483.295L-386.692 469.264C-367.868 455.233 -330.22 427.17 -308.586 381.976C-286.953 336.782 -281.336 274.457 -247.246 242.587C-213.157 210.718 -150.595 209.303 -120.064 173.627C-89.5337 137.95 -91.0341 68.0115 -91.7843 33.0421L-92.5345 -1.92734" stroke="url(#paint80_linear_22_312)" stroke-width="2.63636"/>
</g>
<defs>
<linearGradient id="paint0_linear_22_312" x1="282.528" y1="125.076" x2="740.107" y2="-172.903" gradientUnits="userSpaceOnUse">
<stop stop-color="#0D34A0"/>
<stop offset="1" stop-color="#0044FF"/>
</linearGradient>
<linearGradient id="paint1_linear_22_312" x1="272.599" y1="123.064" x2="731.073" y2="-164.228" gradientUnits="userSpaceOnUse">
<stop stop-color="#0D34A0"/>
<stop offset="1" stop-color="#0044FF"/>
</linearGradient>
<linearGradient id="paint2_linear_22_312" x1="262.787" y1="121.083" x2="721.922" y2="-155.583" gradientUnits="userSpaceOnUse">
<stop stop-color="#0D34A0"/>
<stop offset="1" stop-color="#0044FF"/>
</linearGradient>
<linearGradient id="paint3_linear_22_312" x1="253.09" y1="119.135" x2="712.656" y2="-146.971" gradientUnits="userSpaceOnUse">
<stop stop-color="#0D34A0"/>
<stop offset="1" stop-color="#0044FF"/>
</linearGradient>
<linearGradient id="paint4_linear_22_312" x1="243.506" y1="117.222" x2="703.277" y2="-138.393" gradientUnits="userSpaceOnUse">
<stop stop-color="#0D34A0"/>
<stop offset="1" stop-color="#0044FF"/>
</linearGradient>
<linearGradient id="paint5_linear_22_312" x1="234.035" y1="115.345" x2="693.785" y2="-129.854" gradientUnits="userSpaceOnUse">
<stop stop-color="#0D34A0"/>
<stop offset="1" stop-color="#0044FF"/>
</linearGradient>
<linearGradient id="paint6_linear_22_312" x1="224.675" y1="113.509" x2="684.182" y2="-121.353" gradientUnits="userSpaceOnUse">
<stop stop-color="#0D34A0"/>
<stop offset="1" stop-color="#0044FF"/>
</linearGradient>
<linearGradient id="paint7_linear_22_312" x1="215.425" y1="111.714" x2="674.47" y2="-112.895" gradientUnits="userSpaceOnUse">
<stop stop-color="#0D34A0"/>
<stop offset="1" stop-color="#0044FF"/>
</linearGradient>
<linearGradient id="paint8_linear_22_312" x1="206.282" y1="109.964" x2="664.649" y2="-104.481" gradientUnits="userSpaceOnUse">
<stop stop-color="#0D34A0"/>
<stop offset="1" stop-color="#0044FF"/>
</linearGradient>
<linearGradient id="paint9_linear_22_312" x1="197.247" y1="108.26" x2="654.721" y2="-96.1133" gradientUnits="userSpaceOnUse">
<stop stop-color="#0D34A0"/>
<stop offset="1" stop-color="#0044FF"/>
</linearGradient>
<linearGradient id="paint10_linear_22_312" x1="188.317" y1="106.604" x2="644.688" y2="-87.7942" gradientUnits="userSpaceOnUse">
<stop stop-color="#0D34A0"/>
<stop offset="1" stop-color="#0044FF"/>
</linearGradient>
<linearGradient id="paint11_linear_22_312" x1="179.491" y1="105" x2="634.551" y2="-79.5258" gradientUnits="userSpaceOnUse">
<stop stop-color="#0D34A0"/>
<stop offset="1" stop-color="#0044FF"/>
</linearGradient>
<linearGradient id="paint12_linear_22_312" x1="170.766" y1="103.447" x2="624.312" y2="-71.3106" gradientUnits="userSpaceOnUse">
<stop stop-color="#0D34A0"/>
<stop offset="1" stop-color="#0044FF"/>
</linearGradient>
<linearGradient id="paint13_linear_22_312" x1="162.142" y1="101.95" x2="613.973" y2="-63.1494" gradientUnits="userSpaceOnUse">
<stop stop-color="#0D34A0"/>
<stop offset="1" stop-color="#0044FF"/>
</linearGradient>
<linearGradient id="paint14_linear_22_312" x1="153.618" y1="100.51" x2="603.536" y2="-55.0451" gradientUnits="userSpaceOnUse">
<stop stop-color="#0D34A0"/>
<stop offset="1" stop-color="#0044FF"/>
</linearGradient>
<linearGradient id="paint15_linear_22_312" x1="145.19" y1="99.1282" x2="593" y2="-46.9999" gradientUnits="userSpaceOnUse">
<stop stop-color="#0D34A0"/>
<stop offset="1" stop-color="#0044FF"/>
</linearGradient>
<linearGradient id="paint16_linear_22_312" x1="136.857" y1="97.8072" x2="582.37" y2="-39.0154" gradientUnits="userSpaceOnUse">
<stop stop-color="#0D34A0"/>
<stop offset="1" stop-color="#0044FF"/>
</linearGradient>
<linearGradient id="paint17_linear_22_312" x1="128.618" y1="96.5489" x2="571.646" y2="-31.0934" gradientUnits="userSpaceOnUse">
<stop stop-color="#0D34A0"/>
<stop offset="1" stop-color="#0044FF"/>
</linearGradient>
<linearGradient id="paint18_linear_22_312" x1="120.47" y1="95.3552" x2="560.831" y2="-23.2355" gradientUnits="userSpaceOnUse">
<stop stop-color="#0D34A0"/>
<stop offset="1" stop-color="#0044FF"/>
</linearGradient>
<linearGradient id="paint19_linear_22_312" x1="112.413" y1="94.2275" x2="549.926" y2="-15.444" gradientUnits="userSpaceOnUse">
<stop stop-color="#0D34A0"/>
<stop offset="1" stop-color="#0044FF"/>
</linearGradient>
<linearGradient id="paint20_linear_22_312" x1="104.442" y1="93.1669" x2="538.933" y2="-7.72138" gradientUnits="userSpaceOnUse">
<stop stop-color="#0D34A0"/>
<stop offset="1" stop-color="#0044FF"/>
</linearGradient>
<linearGradient id="paint21_linear_22_312" x1="96.5584" y1="92.1773" x2="527.854" y2="-0.0669546" gradientUnits="userSpaceOnUse">
<stop stop-color="#0D34A0"/>
<stop offset="1" stop-color="#0044FF"/>
</linearGradient>
<linearGradient id="paint22_linear_22_312" x1="88.7582" y1="91.2591" x2="516.691" y2="7.51628" gradientUnits="userSpaceOnUse">
<stop stop-color="#0D34A0"/>
<stop offset="1" stop-color="#0044FF"/>
</linearGradient>
<linearGradient id="paint23_linear_22_312" x1="81.0398" y1="90.412" x2="505.446" y2="15.0249" gradientUnits="userSpaceOnUse">
<stop stop-color="#0D34A0"/>
<stop offset="1" stop-color="#0044FF"/>
</linearGradient>
<linearGradient id="paint24_linear_22_312" x1="73.4019" y1="89.6418" x2="494.122" y2="22.4614" gradientUnits="userSpaceOnUse">
<stop stop-color="#0D34A0"/>
<stop offset="1" stop-color="#0044FF"/>
</linearGradient>
<linearGradient id="paint25_linear_22_312" x1="65.8413" y1="88.9457" x2="482.719" y2="29.8203" gradientUnits="userSpaceOnUse">
<stop stop-color="#0D34A0"/>
<stop offset="1" stop-color="#0044FF"/>
</linearGradient>
<linearGradient id="paint26_linear_22_312" x1="58.3563" y1="88.3269" x2="471.24" y2="37.1016" gradientUnits="userSpaceOnUse">
<stop stop-color="#0D34A0"/>
<stop offset="1" stop-color="#0044FF"/>
</linearGradient>
<linearGradient id="paint27_linear_22_312" x1="50.9453" y1="87.7875" x2="459.689" y2="44.3048" gradientUnits="userSpaceOnUse">
<stop stop-color="#0D34A0"/>
<stop offset="1" stop-color="#0044FF"/>
</linearGradient>
<linearGradient id="paint28_linear_22_312" x1="43.6057" y1="87.3283" x2="448.065" y2="51.4278" gradientUnits="userSpaceOnUse">
<stop stop-color="#0D34A0"/>
<stop offset="1" stop-color="#0044FF"/>
</linearGradient>
<linearGradient id="paint29_linear_22_312" x1="36.3354" y1="86.9512" x2="436.373" y2="58.47" gradientUnits="userSpaceOnUse">
<stop stop-color="#0D34A0"/>
<stop offset="1" stop-color="#0044FF"/>
</linearGradient>
<linearGradient id="paint30_linear_22_312" x1="29.1325" y1="86.6553" x2="424.613" y2="65.4281" gradientUnits="userSpaceOnUse">
<stop stop-color="#0D34A0"/>
<stop offset="1" stop-color="#0044FF"/>
</linearGradient>
<linearGradient id="paint31_linear_22_312" x1="21.9942" y1="86.4445" x2="412.788" y2="72.3034" gradientUnits="userSpaceOnUse">
<stop stop-color="#0D34A0"/>
<stop offset="1" stop-color="#0044FF"/>
</linearGradient>
<linearGradient id="paint32_linear_22_312" x1="14.9184" y1="86.3187" x2="400.9" y2="79.0936" gradientUnits="userSpaceOnUse">
<stop stop-color="#0D34A0"/>
<stop offset="1" stop-color="#0044FF"/>
</linearGradient>
<linearGradient id="paint33_linear_22_312" x1="7.9037" y1="86.2779" x2="388.953" y2="85.7966" gradientUnits="userSpaceOnUse">
<stop stop-color="#0D34A0"/>
<stop offset="1" stop-color="#0044FF"/>
</linearGradient>
<linearGradient id="paint34_linear_22_312" x1="0.94648" y1="86.3255" x2="376.947" y2="92.4135" gradientUnits="userSpaceOnUse">
<stop stop-color="#0D34A0"/>
<stop offset="1" stop-color="#0044FF"/>
</linearGradient>
<linearGradient id="paint35_linear_22_312" x1="-5.95471" y1="86.4609" x2="364.885" y2="98.942" gradientUnits="userSpaceOnUse">
<stop stop-color="#0D34A0"/>
<stop offset="1" stop-color="#0044FF"/>
</linearGradient>
<linearGradient id="paint36_linear_22_312" x1="-12.8025" y1="86.6853" x2="352.769" y2="105.381" gradientUnits="userSpaceOnUse">
<stop stop-color="#0D34A0"/>
<stop offset="1" stop-color="#0044FF"/>
</linearGradient>
<linearGradient id="paint37_linear_22_312" x1="-19.5986" y1="87" x2="340.603" y2="111.731" gradientUnits="userSpaceOnUse">
<stop stop-color="#0D34A0"/>
<stop offset="1" stop-color="#0044FF"/>
</linearGradient>
<linearGradient id="paint38_linear_22_312" x1="-26.346" y1="87.4051" x2="328.388" y2="117.989" gradientUnits="userSpaceOnUse">
<stop stop-color="#0D34A0"/>
<stop offset="1" stop-color="#0044FF"/>
</linearGradient>
<linearGradient id="paint39_linear_22_312" x1="-33.0474" y1="87.9022" x2="316.125" y2="124.156" gradientUnits="userSpaceOnUse">
<stop stop-color="#0D34A0"/>
<stop offset="1" stop-color="#0044FF"/>
</linearGradient>
<linearGradient id="paint40_linear_22_312" x1="-39.7041" y1="88.4914" x2="303.819" y2="130.23" gradientUnits="userSpaceOnUse">
<stop stop-color="#0D34A0"/>
<stop offset="1" stop-color="#0044FF"/>
</linearGradient>
<linearGradient id="paint41_linear_22_312" x1="-46.3192" y1="89.1732" x2="291.471" y2="136.211" gradientUnits="userSpaceOnUse">
<stop stop-color="#0D34A0"/>
<stop offset="1" stop-color="#0044FF"/>
</linearGradient>
<linearGradient id="paint42_linear_22_312" x1="-52.8946" y1="89.9489" x2="279.084" y2="142.099" gradientUnits="userSpaceOnUse">
<stop stop-color="#0D34A0"/>
<stop offset="1" stop-color="#0044FF"/>
</linearGradient>
<linearGradient id="paint43_linear_22_312" x1="-59.433" y1="90.8193" x2="266.66" y2="147.894" gradientUnits="userSpaceOnUse">
<stop stop-color="#0D34A0"/>
<stop offset="1" stop-color="#0044FF"/>
</linearGradient>
<linearGradient id="paint44_linear_22_312" x1="-65.9371" y1="91.7831" x2="254.2" y2="153.592" gradientUnits="userSpaceOnUse">
<stop stop-color="#0D34A0"/>
<stop offset="1" stop-color="#0044FF"/>
</linearGradient>
<linearGradient id="paint45_linear_22_312" x1="-72.4089" y1="92.8433" x2="241.709" y2="159.197" gradientUnits="userSpaceOnUse">
<stop stop-color="#0D34A0"/>
<stop offset="1" stop-color="#0044FF"/>
</linearGradient>
<linearGradient id="paint46_linear_22_312" x1="-78.8507" y1="93.9985" x2="229.188" y2="164.705" gradientUnits="userSpaceOnUse">
<stop stop-color="#0D34A0"/>
<stop offset="1" stop-color="#0044FF"/>
</linearGradient>
<linearGradient id="paint47_linear_22_312" x1="-85.2653" y1="95.2496" x2="216.64" y2="170.118" gradientUnits="userSpaceOnUse">
<stop stop-color="#0D34A0"/>
<stop offset="1" stop-color="#0044FF"/>
</linearGradient>
<linearGradient id="paint48_linear_22_312" x1="-91.6551" y1="96.5965" x2="204.066" y2="175.434" gradientUnits="userSpaceOnUse">
<stop stop-color="#0D34A0"/>
<stop offset="1" stop-color="#0044FF"/>
</linearGradient>
<linearGradient id="paint49_linear_22_312" x1="-98.0217" y1="98.0398" x2="191.47" y2="180.655" gradientUnits="userSpaceOnUse">
<stop stop-color="#0D34A0"/>
<stop offset="1" stop-color="#0044FF"/>
</linearGradient>
<linearGradient id="paint50_linear_22_312" x1="-104.369" y1="99.5797" x2="178.854" y2="185.779" gradientUnits="userSpaceOnUse">
<stop stop-color="#0D34A0"/>
<stop offset="1" stop-color="#0044FF"/>
</linearGradient>
<linearGradient id="paint51_linear_22_312" x1="-110.698" y1="101.216" x2="166.22" y2="190.806" gradientUnits="userSpaceOnUse">
<stop stop-color="#0D34A0"/>
<stop offset="1" stop-color="#0044FF"/>
</linearGradient>
<linearGradient id="paint52_linear_22_312" x1="-117.011" y1="102.95" x2="153.571" y2="195.737" gradientUnits="userSpaceOnUse">
<stop stop-color="#0D34A0"/>
<stop offset="1" stop-color="#0044FF"/>
</linearGradient>
<linearGradient id="paint53_linear_22_312" x1="-123.313" y1="104.779" x2="140.909" y2="200.57" gradientUnits="userSpaceOnUse">
<stop stop-color="#0D34A0"/>
<stop offset="1" stop-color="#0044FF"/>
</linearGradient>
<linearGradient id="paint54_linear_22_312" x1="-129.603" y1="106.706" x2="128.236" y2="205.307" gradientUnits="userSpaceOnUse">
<stop stop-color="#0D34A0"/>
<stop offset="1" stop-color="#0044FF"/>
</linearGradient>
<linearGradient id="paint55_linear_22_312" x1="-135.886" y1="108.729" x2="115.555" y2="209.948" gradientUnits="userSpaceOnUse">
<stop stop-color="#0D34A0"/>
<stop offset="1" stop-color="#0044FF"/>
</linearGradient>
<linearGradient id="paint56_linear_22_312" x1="-142.162" y1="110.848" x2="102.869" y2="214.493" gradientUnits="userSpaceOnUse">
<stop stop-color="#0D34A0"/>
<stop offset="1" stop-color="#0044FF"/>
</linearGradient>
<linearGradient id="paint57_linear_22_312" x1="-148.435" y1="113.063" x2="90.1794" y2="218.94" gradientUnits="userSpaceOnUse">
<stop stop-color="#0D34A0"/>
<stop offset="1" stop-color="#0044FF"/>
</linearGradient>
<linearGradient id="paint58_linear_22_312" x1="-154.707" y1="115.375" x2="77.489" y2="223.293" gradientUnits="userSpaceOnUse">
<stop stop-color="#0D34A0"/>
<stop offset="1" stop-color="#0044FF"/>
</linearGradient>
<linearGradient id="paint59_linear_22_312" x1="-160.981" y1="117.782" x2="64.7996" y2="227.55" gradientUnits="userSpaceOnUse">
<stop stop-color="#0D34A0"/>
<stop offset="1" stop-color="#0044FF"/>
</linearGradient>
<linearGradient id="paint60_linear_22_312" x1="-167.259" y1="120.284" x2="52.114" y2="231.711" gradientUnits="userSpaceOnUse">
<stop stop-color="#0D34A0"/>
<stop offset="1" stop-color="#0044FF"/>
</linearGradient>
<linearGradient id="paint61_linear_22_312" x1="-173.542" y1="122.881" x2="39.4348" y2="235.778" gradientUnits="userSpaceOnUse">
<stop stop-color="#0D34A0"/>
<stop offset="1" stop-color="#0044FF"/>
</linearGradient>
<linearGradient id="paint62_linear_22_312" x1="-179.834" y1="125.572" x2="26.7637" y2="239.751" gradientUnits="userSpaceOnUse">
<stop stop-color="#0D34A0"/>
<stop offset="1" stop-color="#0044FF"/>
</linearGradient>
<linearGradient id="paint63_linear_22_312" x1="-186.137" y1="128.357" x2="14.1037" y2="243.629" gradientUnits="userSpaceOnUse">
<stop stop-color="#0D34A0"/>
<stop offset="1" stop-color="#0044FF"/>
</linearGradient>
<linearGradient id="paint64_linear_22_312" x1="-192.453" y1="131.236" x2="1.45669" y2="247.415" gradientUnits="userSpaceOnUse">
<stop stop-color="#0D34A0"/>
<stop offset="1" stop-color="#0044FF"/>
</linearGradient>
<linearGradient id="paint65_linear_22_312" x1="-198.784" y1="134.207" x2="-11.1755" y2="251.108" gradientUnits="userSpaceOnUse">
<stop stop-color="#0D34A0"/>
<stop offset="1" stop-color="#0044FF"/>
</linearGradient>
<linearGradient id="paint66_linear_22_312" x1="-205.133" y1="137.269" x2="-23.7898" y2="254.709" gradientUnits="userSpaceOnUse">
<stop stop-color="#0D34A0"/>
<stop offset="1" stop-color="#0044FF"/>
</linearGradient>
<linearGradient id="paint67_linear_22_312" x1="-211.501" y1="140.423" x2="-36.3843" y2="258.219" gradientUnits="userSpaceOnUse">
<stop stop-color="#0D34A0"/>
<stop offset="1" stop-color="#0044FF"/>
</linearGradient>
<linearGradient id="paint68_linear_22_312" x1="-217.892" y1="143.666" x2="-48.9566" y2="261.638" gradientUnits="userSpaceOnUse">
<stop stop-color="#0D34A0"/>
<stop offset="1" stop-color="#0044FF"/>
</linearGradient>
<linearGradient id="paint69_linear_22_312" x1="-224.307" y1="147" x2="-61.5048" y2="264.969" gradientUnits="userSpaceOnUse">
<stop stop-color="#0D34A0"/>
<stop offset="1" stop-color="#0044FF"/>
</linearGradient>
<linearGradient id="paint70_linear_22_312" x1="-230.748" y1="150.423" x2="-74.0264" y2="268.21" gradientUnits="userSpaceOnUse">
<stop stop-color="#0D34A0"/>
<stop offset="1" stop-color="#0044FF"/>
</linearGradient>
<linearGradient id="paint71_linear_22_312" x1="-237.217" y1="153.932" x2="-86.5196" y2="271.364" gradientUnits="userSpaceOnUse">
<stop stop-color="#0D34A0"/>
<stop offset="1" stop-color="#0044FF"/>
</linearGradient>
<linearGradient id="paint72_linear_22_312" x1="-243.718" y1="157.529" x2="-98.9822" y2="274.431" gradientUnits="userSpaceOnUse">
<stop stop-color="#0D34A0"/>
<stop offset="1" stop-color="#0044FF"/>
</linearGradient>
<linearGradient id="paint73_linear_22_312" x1="-250.251" y1="161.211" x2="-111.412" y2="277.413" gradientUnits="userSpaceOnUse">
<stop stop-color="#0D34A0"/>
<stop offset="1" stop-color="#0044FF"/>
</linearGradient>
<linearGradient id="paint74_linear_22_312" x1="-256.819" y1="164.978" x2="-123.807" y2="280.309" gradientUnits="userSpaceOnUse">
<stop stop-color="#0D34A0"/>
<stop offset="1" stop-color="#0044FF"/>
</linearGradient>
<linearGradient id="paint75_linear_22_312" x1="-263.424" y1="168.829" x2="-136.165" y2="283.123" gradientUnits="userSpaceOnUse">
<stop stop-color="#0D34A0"/>
<stop offset="1" stop-color="#0044FF"/>
</linearGradient>
<linearGradient id="paint76_linear_22_312" x1="-270.068" y1="172.762" x2="-148.484" y2="285.854" gradientUnits="userSpaceOnUse">
<stop stop-color="#0D34A0"/>
<stop offset="1" stop-color="#0044FF"/>
</linearGradient>
<linearGradient id="paint77_linear_22_312" x1="-276.753" y1="176.775" x2="-160.763" y2="288.503" gradientUnits="userSpaceOnUse">
<stop stop-color="#0D34A0"/>
<stop offset="1" stop-color="#0044FF"/>
</linearGradient>
<linearGradient id="paint78_linear_22_312" x1="-283.481" y1="180.869" x2="-172.998" y2="291.073" gradientUnits="userSpaceOnUse">
<stop stop-color="#0D34A0"/>
<stop offset="1" stop-color="#0044FF"/>
</linearGradient>
<linearGradient id="paint79_linear_22_312" x1="-290.253" y1="185.042" x2="-185.188" y2="293.565" gradientUnits="userSpaceOnUse">
<stop stop-color="#0D34A0"/>
<stop offset="1" stop-color="#0044FF"/>
</linearGradient>
<linearGradient id="paint80_linear_22_312" x1="-297.072" y1="189.291" x2="-197.332" y2="295.979" gradientUnits="userSpaceOnUse">
<stop stop-color="#0D34A0"/>
<stop offset="1" stop-color="#0044FF"/>
</linearGradient>
</defs>
</svg>
