<svg width="320" height="396" viewBox="0 0 320 396" fill="none" xmlns="http://www.w3.org/2000/svg">
<path opacity="0.010101" d="M322.564 406.835L300.142 362.629C277.721 318.423 232.878 230.011 147.804 167.797C62.7303 105.584 -62.5741 69.5686 -116.357 -13.0216C-170.14 -95.6118 -152.402 -224.777 -215.126 -301.545C-277.849 -378.314 -421.034 -402.685 -492.626 -414.871L-564.218 -427.057" stroke="url(#paint0_linear_188_1193)" stroke-width="2"/>
<path opacity="0.020202" d="M305.994 412.288L284.548 368.11C263.103 323.932 220.211 235.576 137.011 172.478C53.8099 109.381 -69.7001 71.543 -121.549 -11.2C-173.398 -93.9429 -153.586 -221.591 -214.393 -298.72C-275.199 -375.85 -416.624 -402.462 -487.337 -415.768L-558.05 -429.075" stroke="url(#paint1_linear_188_1193)" stroke-width="2"/>
<path opacity="0.030303" d="M289.433 417.472L268.955 373.343C248.477 329.213 207.522 240.954 126.199 177.02C44.8757 113.085 -76.8147 73.4755 -126.741 -9.37808C-176.667 -92.2317 -154.828 -218.329 -213.725 -295.777C-272.622 -373.225 -412.253 -402.024 -482.069 -416.424L-551.885 -430.823" stroke="url(#paint2_linear_188_1193)" stroke-width="2"/>
<path opacity="0.040404" d="M272.885 422.391L253.367 378.33C233.849 334.269 194.813 246.147 115.371 181.421C35.9299 116.696 -83.9171 75.3665 -131.932 -7.5561C-179.947 -90.4787 -156.131 -214.994 -213.125 -292.718C-270.119 -370.441 -407.924 -401.372 -476.826 -416.838L-545.729 -432.304" stroke="url(#paint3_linear_188_1193)" stroke-width="2"/>
<path opacity="0.050505" d="M256.358 427.044L237.791 383.071C219.224 339.099 182.09 251.155 104.532 185.684C26.9744 120.213 -91.0065 77.2165 -137.124 -5.73387C-183.241 -88.6842 -157.494 -211.588 -212.595 -289.544C-267.695 -367.5 -403.642 -400.509 -471.615 -417.013L-539.588 -433.517" stroke="url(#paint4_linear_188_1193)" stroke-width="2"/>
<path opacity="0.0606061" d="M239.856 431.432L222.231 387.568C204.606 343.704 169.355 255.976 93.6834 189.806C18.0114 123.636 -98.0821 79.0246 -142.315 -3.91275C-186.548 -86.8501 -158.921 -208.113 -212.136 -286.26C-265.352 -364.406 -399.411 -399.437 -466.44 -416.952L-533.469 -434.467" stroke="url(#paint5_linear_188_1193)" stroke-width="2"/>
<path opacity="0.0707071" d="M223.386 435.561L206.693 391.824C190 348.088 156.615 260.615 82.8287 193.791C9.04281 126.968 -105.143 80.7935 -147.507 -2.0906C-189.87 -84.9747 -160.411 -204.569 -211.753 -282.864C-263.094 -361.159 -395.236 -398.156 -461.306 -416.655L-527.377 -435.153" stroke="url(#paint6_linear_188_1193)" stroke-width="2"/>
<path opacity="0.0808081" d="M206.953 439.428L191.182 395.839C175.412 352.249 143.871 265.069 71.9711 197.638C0.0708959 130.206 -112.189 82.5221 -152.698 -0.268967C-193.208 -83.0601 -161.967 -200.958 -211.445 -279.361C-260.923 -357.764 -391.121 -396.671 -456.219 -416.124L-521.318 -435.578" stroke="url(#paint7_linear_188_1193)" stroke-width="2"/>
<path opacity="0.0909091" d="M190.562 443.039L175.704 399.614C160.846 356.19 131.13 269.341 61.1138 201.347C-8.9022 133.352 -119.218 84.2118 -157.89 1.55289C-196.561 -81.106 -163.589 -197.283 -211.216 -275.752C-258.843 -354.222 -387.07 -394.982 -451.184 -415.363L-515.297 -435.743" stroke="url(#paint8_linear_188_1193)" stroke-width="2"/>
<path opacity="0.10101" d="M174.22 446.394L160.263 403.153C146.307 359.913 118.394 273.432 50.2598 204.919C-17.8745 136.407 -126.23 85.8631 -163.081 3.3751C-199.932 -79.1129 -165.278 -193.545 -211.067 -272.04C-256.856 -350.535 -383.088 -393.093 -446.204 -414.372L-509.32 -435.651" stroke="url(#paint9_linear_188_1193)" stroke-width="2"/>
<path opacity="0.111111" d="M157.931 449.495L144.865 406.456C131.8 363.418 105.668 277.341 39.4121 208.355C-26.8439 139.37 -133.224 87.4759 -168.272 5.19687C-203.32 -77.0821 -167.036 -189.746 -211.001 -268.227C-254.965 -346.708 -379.179 -391.006 -441.286 -413.154L-503.392 -435.303" stroke="url(#paint10_linear_188_1193)" stroke-width="2"/>
<path opacity="0.121212" d="M141.702 452.345L129.515 409.527C117.329 366.708 92.956 281.07 28.5739 211.656C-35.8083 142.242 -140.2 89.0514 -173.464 7.01894C-206.727 -75.0135 -168.864 -185.888 -211.019 -264.315C-253.173 -342.742 -375.347 -388.722 -436.433 -411.712L-497.52 -434.702" stroke="url(#paint11_linear_188_1193)" stroke-width="2"/>
<path opacity="0.131313" d="M125.537 454.947L114.218 412.365C102.899 369.784 80.2614 284.62 17.7476 214.822C-44.7661 145.023 -147.156 90.5894 -178.655 8.84047C-210.154 -72.9085 -170.762 -181.973 -211.123 -260.307C-251.483 -338.642 -371.595 -386.247 -431.652 -410.049L-491.708 -433.852" stroke="url(#paint12_linear_188_1193)" stroke-width="2"/>
<path opacity="0.141414" d="M109.442 457.303L98.9783 414.976C88.5151 372.648 67.5886 287.993 6.93693 217.854C-53.7148 147.715 -154.092 92.0918 -183.846 10.6627C-213.6 -70.7664 -172.732 -178.001 -211.314 -256.204C-249.896 -334.408 -367.929 -383.58 -426.945 -408.166L-485.961 -432.752" stroke="url(#paint13_linear_188_1193)" stroke-width="2"/>
<path opacity="0.151515" d="M93.4217 459.416L83.8017 417.359C74.1817 375.303 54.9417 291.19 -3.85533 220.754C-62.6524 150.318 -161.006 93.5584 -189.037 12.485C-217.067 -68.5885 -174.774 -173.976 -211.595 -252.01C-248.416 -330.044 -364.351 -380.725 -422.318 -406.066L-480.286 -431.407" stroke="url(#paint14_linear_188_1193)" stroke-width="2"/>
<path opacity="0.161616" d="M77.4816 461.288L68.6921 419.519C59.9027 377.75 42.3238 294.212 -14.6268 223.522C-71.5775 152.832 -167.9 94.9896 -194.228 14.3069C-220.556 -66.3759 -176.89 -169.899 -211.967 -247.727C-247.045 -325.554 -360.866 -377.687 -417.776 -403.753L-474.687 -429.819" stroke="url(#paint15_linear_188_1193)" stroke-width="2"/>
<path opacity="0.171717" d="M61.6267 462.922L53.6548 421.457C45.683 379.992 29.7393 297.061 -25.3742 226.159C-80.4877 155.258 -174.771 96.3864 -199.419 16.1288C-224.067 -64.1288 -179.08 -165.772 -212.433 -243.357C-245.785 -320.941 -357.477 -374.466 -413.323 -401.229L-469.169 -427.992" stroke="url(#paint16_linear_188_1193)" stroke-width="2"/>
<path opacity="0.181818" d="M45.8622 464.323L38.6946 423.176C31.527 382.03 17.1918 299.738 -36.0947 228.668C-89.3812 157.597 -181.619 97.7497 -204.61 17.951C-227.601 -61.8476 -181.345 -161.597 -212.992 -238.902C-244.639 -316.207 -354.189 -371.067 -408.963 -398.497L-463.738 -425.927" stroke="url(#paint17_linear_188_1193)" stroke-width="2"/>
<path opacity="0.191919" d="M30.1926 465.491L23.8157 424.68C17.4388 383.868 4.68504 302.244 -46.7856 231.047C-98.2562 159.85 -188.444 99.0798 -209.801 19.7732C-231.159 -59.5333 -183.686 -157.376 -213.648 -234.366C-243.609 -311.355 -351.004 -367.491 -404.701 -395.56L-458.399 -423.628" stroke="url(#paint18_linear_188_1193)" stroke-width="2"/>
<path opacity="0.20202" d="M14.6235 466.432L9.02338 425.969C3.42328 385.507 -7.77691 304.582 -57.4436 233.3C-107.11 162.017 -195.243 100.377 -214.992 21.5955C-234.74 -57.1866 -186.103 -153.111 -214.4 -229.75C-242.696 -306.389 -347.926 -363.744 -400.54 -392.421L-453.155 -421.098" stroke="url(#paint19_linear_188_1193)" stroke-width="2"/>
<path opacity="0.212121" d="M-0.841353 467.147L-5.67881 427.048C-10.5163 386.95 -20.1912 306.753 -68.0668 235.426C-115.942 164.099 -202.019 101.643 -220.183 23.4171C-238.346 -54.8086 -188.598 -148.804 -215.251 -225.058C-241.904 -301.313 -344.958 -359.827 -396.486 -389.084L-448.013 -418.341" stroke="url(#paint20_linear_188_1193)" stroke-width="2"/>
<path opacity="0.222222" d="M-16.1969 467.641L-20.2861 427.921C-24.3754 388.2 -32.5538 308.76 -78.6521 237.429C-124.75 166.099 -208.768 102.878 -225.373 25.2397C-241.979 -52.3987 -191.171 -144.455 -216.202 -220.291C-241.234 -296.128 -342.105 -355.743 -392.541 -385.551L-442.977 -415.359" stroke="url(#paint21_linear_188_1193)" stroke-width="2"/>
<defs>
<linearGradient id="paint0_linear_188_1193" x1="-241.519" y1="68.4847" x2="9.02695" y2="-94.6724" gradientUnits="userSpaceOnUse">
<stop stop-color="#0D34A0"/>
<stop offset="1" stop-color="#0044FF"/>
</linearGradient>
<linearGradient id="paint1_linear_188_1193" x1="-246.956" y1="67.3833" x2="4.08006" y2="-89.9226" gradientUnits="userSpaceOnUse">
<stop stop-color="#0D34A0"/>
<stop offset="1" stop-color="#0044FF"/>
</linearGradient>
<linearGradient id="paint2_linear_188_1193" x1="-252.328" y1="66.2987" x2="-0.930352" y2="-85.1891" gradientUnits="userSpaceOnUse">
<stop stop-color="#0D34A0"/>
<stop offset="1" stop-color="#0044FF"/>
</linearGradient>
<linearGradient id="paint3_linear_188_1193" x1="-257.638" y1="65.232" x2="-6.00362" y2="-80.4733" gradientUnits="userSpaceOnUse">
<stop stop-color="#0D34A0"/>
<stop offset="1" stop-color="#0044FF"/>
</linearGradient>
<linearGradient id="paint4_linear_188_1193" x1="-262.885" y1="64.1847" x2="-11.1391" y2="-75.7765" gradientUnits="userSpaceOnUse">
<stop stop-color="#0D34A0"/>
<stop offset="1" stop-color="#0044FF"/>
</linearGradient>
<linearGradient id="paint5_linear_188_1193" x1="-268.071" y1="63.1567" x2="-16.3363" y2="-71.1012" gradientUnits="userSpaceOnUse">
<stop stop-color="#0D34A0"/>
<stop offset="1" stop-color="#0044FF"/>
</linearGradient>
<linearGradient id="paint6_linear_188_1193" x1="-273.196" y1="62.1515" x2="-21.5944" y2="-66.4466" gradientUnits="userSpaceOnUse">
<stop stop-color="#0D34A0"/>
<stop offset="1" stop-color="#0044FF"/>
</linearGradient>
<linearGradient id="paint7_linear_188_1193" x1="-278.261" y1="61.1687" x2="-26.9126" y2="-61.8156" gradientUnits="userSpaceOnUse">
<stop stop-color="#0D34A0"/>
<stop offset="1" stop-color="#0044FF"/>
</linearGradient>
<linearGradient id="paint8_linear_188_1193" x1="-283.267" y1="60.2102" x2="-32.29" y2="-57.2085" gradientUnits="userSpaceOnUse">
<stop stop-color="#0D34A0"/>
<stop offset="1" stop-color="#0044FF"/>
</linearGradient>
<linearGradient id="paint9_linear_188_1193" x1="-288.214" y1="59.2775" x2="-37.7259" y2="-52.6265" gradientUnits="userSpaceOnUse">
<stop stop-color="#0D34A0"/>
<stop offset="1" stop-color="#0044FF"/>
</linearGradient>
<linearGradient id="paint10_linear_188_1193" x1="-293.104" y1="58.3709" x2="-43.2194" y2="-48.0715" gradientUnits="userSpaceOnUse">
<stop stop-color="#0D34A0"/>
<stop offset="1" stop-color="#0044FF"/>
</linearGradient>
<linearGradient id="paint11_linear_188_1193" x1="-297.937" y1="57.4924" x2="-48.7696" y2="-43.544" gradientUnits="userSpaceOnUse">
<stop stop-color="#0D34A0"/>
<stop offset="1" stop-color="#0044FF"/>
</linearGradient>
<linearGradient id="paint12_linear_188_1193" x1="-302.714" y1="56.6421" x2="-54.376" y2="-39.0459" gradientUnits="userSpaceOnUse">
<stop stop-color="#0D34A0"/>
<stop offset="1" stop-color="#0044FF"/>
</linearGradient>
<linearGradient id="paint13_linear_188_1193" x1="-307.436" y1="55.8225" x2="-60.0372" y2="-34.5772" gradientUnits="userSpaceOnUse">
<stop stop-color="#0D34A0"/>
<stop offset="1" stop-color="#0044FF"/>
</linearGradient>
<linearGradient id="paint14_linear_188_1193" x1="-312.103" y1="55.0341" x2="-65.7522" y2="-30.1396" gradientUnits="userSpaceOnUse">
<stop stop-color="#0D34A0"/>
<stop offset="1" stop-color="#0044FF"/>
</linearGradient>
<linearGradient id="paint15_linear_188_1193" x1="-316.718" y1="54.2775" x2="-71.5208" y2="-25.7346" gradientUnits="userSpaceOnUse">
<stop stop-color="#0D34A0"/>
<stop offset="1" stop-color="#0044FF"/>
</linearGradient>
<linearGradient id="paint16_linear_188_1193" x1="-321.281" y1="53.554" x2="-77.3414" y2="-21.3628" gradientUnits="userSpaceOnUse">
<stop stop-color="#0D34A0"/>
<stop offset="1" stop-color="#0044FF"/>
</linearGradient>
<linearGradient id="paint17_linear_188_1193" x1="-325.792" y1="52.8652" x2="-83.2132" y2="-17.025" gradientUnits="userSpaceOnUse">
<stop stop-color="#0D34A0"/>
<stop offset="1" stop-color="#0044FF"/>
</linearGradient>
<linearGradient id="paint18_linear_188_1193" x1="-330.253" y1="52.2115" x2="-89.1352" y2="-12.7225" gradientUnits="userSpaceOnUse">
<stop stop-color="#0D34A0"/>
<stop offset="1" stop-color="#0044FF"/>
</linearGradient>
<linearGradient id="paint19_linear_188_1193" x1="-334.665" y1="51.594" x2="-95.1059" y2="-8.45628" gradientUnits="userSpaceOnUse">
<stop stop-color="#0D34A0"/>
<stop offset="1" stop-color="#0044FF"/>
</linearGradient>
<linearGradient id="paint20_linear_188_1193" x1="-339.029" y1="51.0132" x2="-101.125" y2="-4.22785" gradientUnits="userSpaceOnUse">
<stop stop-color="#0D34A0"/>
<stop offset="1" stop-color="#0044FF"/>
</linearGradient>
<linearGradient id="paint21_linear_188_1193" x1="-343.346" y1="50.4714" x2="-107.192" y2="-0.0366746" gradientUnits="userSpaceOnUse">
<stop stop-color="#0D34A0"/>
<stop offset="1" stop-color="#0044FF"/>
</linearGradient>
</defs>
</svg>
