<svg width="32" height="30" viewBox="0 0 32 30" fill="none" xmlns="http://www.w3.org/2000/svg">
<path d="M15.1271 0.927051C15.4264 0.00573993 16.7298 0.00574017 17.0292 0.927051L20.0071 10.0922C20.141 10.5042 20.525 10.7832 20.9582 10.7832H30.595C31.5637 10.7832 31.9665 12.0228 31.1828 12.5922L23.3864 18.2566C23.0359 18.5112 22.8893 18.9626 23.0232 19.3746L26.0011 28.5398C26.3004 29.4611 25.246 30.2272 24.4623 29.6578L16.6659 23.9934C16.3154 23.7388 15.8408 23.7388 15.4903 23.9934L7.69399 29.6578C6.91028 30.2272 5.8558 29.4611 6.15515 28.5398L9.13309 19.3746C9.26697 18.9626 9.12031 18.5112 8.76982 18.2566L0.973478 12.5922C0.189764 12.0228 0.59254 10.7832 1.56126 10.7832H11.1981C11.6313 10.7832 12.0153 10.5042 12.1491 10.0922L15.1271 0.927051Z" fill="url(#paint0_linear_209_8020)"/>
<defs>
<linearGradient id="paint0_linear_209_8020" x1="16.0781" y1="-2" x2="16.0781" y2="35" gradientUnits="userSpaceOnUse">
<stop stop-color="#0044FF"/>
<stop offset="1" stop-color="#00A3FF"/>
</linearGradient>
</defs>
</svg>
