<svg width="320" height="461" viewBox="0 0 320 461" fill="none" xmlns="http://www.w3.org/2000/svg">
<g opacity="0.15">
<path opacity="0.0344828" d="M-18.8549 240.183C8.58285 223.318 36.5715 222.348 65.111 237.273C93.6504 252.198 121.639 251.228 149.077 234.363C176.515 217.498 204.503 216.528 233.043 231.453C261.582 246.378 289.571 245.408 317.009 228.543C344.446 211.679 372.435 210.709 400.975 225.633" stroke="#0D34A0" stroke-width="2"/>
<path opacity="0.0689655" d="M-19.0405 234.823C8.39731 217.959 36.3859 216.989 64.9254 231.913C93.4649 246.838 121.454 245.868 148.891 229.003C176.329 212.139 204.318 211.169 232.857 226.094C261.397 241.018 289.385 240.048 316.823 223.184C344.261 206.319 372.25 205.349 400.789 220.274" stroke="#0D34A0" stroke-width="2"/>
<path opacity="0.103448" d="M-19.2263 229.463C8.21152 212.599 36.2001 211.629 64.7396 226.553C93.2791 241.478 121.268 240.508 148.706 223.644C176.143 206.779 204.132 205.809 232.671 220.734C261.211 235.659 289.2 234.689 316.637 217.824C344.075 200.959 372.064 199.989 400.603 214.914" stroke="#0D34A0" stroke-width="2"/>
<path opacity="0.137931" d="M-19.4121 224.104C8.02572 207.239 36.0144 206.269 64.5538 221.194C93.0933 236.119 121.082 235.149 148.52 218.284C175.958 201.419 203.946 200.449 232.486 215.374C261.025 230.299 289.014 229.329 316.452 212.464C343.889 195.599 371.878 194.629 400.417 209.554" stroke="#0D34A0" stroke-width="2"/>
<path opacity="0.172414" d="M-19.5976 218.744C7.84018 201.879 35.8288 200.909 64.3683 215.834C92.9078 230.759 120.896 229.789 148.334 212.924C175.772 196.059 203.761 195.089 232.3 210.014C260.84 224.939 288.828 223.969 316.266 207.104C343.704 190.24 371.692 189.27 400.232 204.195" stroke="#0D34A0" stroke-width="2"/>
<path opacity="0.206897" d="M-19.7834 213.384C7.65439 196.519 35.643 195.55 64.1825 210.474C92.722 225.399 120.711 224.429 148.148 207.564C175.586 190.7 203.575 189.73 232.114 204.655C260.654 219.579 288.642 218.609 316.08 201.745C343.518 184.88 371.507 183.91 400.046 198.835" stroke="#0D34A0" stroke-width="2"/>
<path opacity="0.241379" d="M-19.9689 208.024C7.46884 191.16 35.4575 190.19 63.9969 205.115C92.5364 220.039 120.525 219.069 147.963 202.205C175.401 185.34 203.389 184.37 231.929 199.295C260.468 214.22 288.457 213.25 315.895 196.385C343.332 179.52 371.321 178.55 399.861 193.475" stroke="#0D34A0" stroke-width="2"/>
<path opacity="0.275862" d="M-20.1552 202.665C7.28256 185.8 35.2712 184.83 63.8107 199.755C92.3501 214.68 120.339 213.71 147.777 196.845C175.214 179.98 203.203 179.01 231.742 193.935C260.282 208.86 288.271 207.89 315.708 191.025C343.146 174.161 371.135 173.191 399.674 188.115" stroke="#0D34A0" stroke-width="2"/>
<path opacity="0.310345" d="M-20.3405 197.305C7.09726 180.44 35.0859 179.47 63.6254 194.395C92.1648 209.32 120.153 208.35 147.591 191.485C175.029 174.62 203.018 173.65 231.557 188.575C260.097 203.5 288.085 202.53 315.523 185.665C342.961 168.801 370.949 167.831 399.489 182.755" stroke="#0D34A0" stroke-width="2"/>
<path opacity="0.344828" d="M-20.5266 191.945C6.91122 175.081 34.8999 174.111 63.4393 189.035C91.9788 203.96 119.967 202.99 147.405 186.126C174.843 169.261 202.832 168.291 231.371 183.216C259.911 198.14 287.899 197.171 315.337 180.306C342.775 163.441 370.763 162.471 399.303 177.396" stroke="#0D34A0" stroke-width="2"/>
<path opacity="0.37931" d="M-20.7119 186.586C6.72592 169.721 34.7146 168.751 63.254 183.676C91.7935 198.6 119.782 197.63 147.22 180.766C174.658 163.901 202.646 162.931 231.186 177.856C259.725 192.781 287.714 191.811 315.152 174.946C342.59 158.081 370.578 157.111 399.118 172.036" stroke="#0D34A0" stroke-width="2"/>
<path opacity="0.413793" d="M-20.8981 181.226C6.53964 164.361 34.5283 163.391 63.0677 178.316C91.6072 193.241 119.596 192.271 147.034 175.406C174.471 158.541 202.46 157.571 231 172.496C259.539 187.421 287.528 186.451 314.965 169.586C342.403 152.722 370.392 151.752 398.931 166.676" stroke="#0D34A0" stroke-width="2"/>
<path opacity="0.448276" d="M-21.0837 175.866C6.35409 159.001 34.3427 158.031 62.8822 172.956C91.4217 187.881 119.41 186.911 146.848 170.046C174.286 153.182 202.275 152.212 230.814 167.136C259.353 182.061 287.342 181.091 314.78 164.227C342.218 147.362 370.206 146.392 398.746 161.317" stroke="#0D34A0" stroke-width="2"/>
<path opacity="0.482759" d="M-21.2695 170.506C6.1683 153.642 34.1569 152.672 62.6964 167.596C91.2359 182.521 119.225 181.551 146.662 164.687C174.1 147.822 202.089 146.852 230.628 161.777C259.168 176.702 287.156 175.732 314.594 158.867C342.032 142.002 370.021 141.032 398.56 155.957" stroke="#0D34A0" stroke-width="2"/>
<path opacity="0.517241" d="M-21.4553 165.147C5.98251 148.282 33.9711 147.312 62.5106 162.237C91.0501 177.162 119.039 176.192 146.477 159.327C173.914 142.462 201.903 141.492 230.442 156.417C258.982 171.342 286.971 170.372 314.408 153.507C341.846 136.642 369.835 135.672 398.374 150.597" stroke="#0D34A0" stroke-width="2"/>
<path opacity="0.551724" d="M-21.6403 159.787C5.79745 142.922 33.7861 141.952 62.3256 156.877C90.865 171.802 118.854 170.832 146.291 153.967C173.729 137.102 201.718 136.132 230.257 151.057C258.797 165.982 286.785 165.012 314.223 148.147C341.661 131.282 369.65 130.313 398.189 145.237" stroke="#0D34A0" stroke-width="2"/>
<path opacity="0.586207" d="M-21.8266 154.427C5.61117 137.562 33.5998 136.592 62.1393 151.517C90.6788 166.442 118.667 165.472 146.105 148.607C173.543 131.743 201.532 130.773 230.071 145.697C258.611 160.622 286.599 159.652 314.037 142.788C341.475 125.923 369.463 124.953 398.003 139.878" stroke="#0D34A0" stroke-width="2"/>
<path opacity="0.62069" d="M-22.0124 149.067C5.42538 132.203 33.414 131.233 61.9535 146.158C90.493 161.082 118.482 160.112 145.919 143.248C173.357 126.383 201.346 125.413 229.885 140.338C258.425 155.263 286.413 154.293 313.851 137.428C341.289 120.563 369.278 119.593 397.817 134.518" stroke="#0D34A0" stroke-width="2"/>
<path opacity="0.655172" d="M-22.198 143.708C5.23984 126.843 33.2285 125.873 61.7679 140.798C90.3074 155.723 118.296 154.753 145.734 137.888C173.172 121.023 201.16 120.053 229.7 134.978C258.239 149.903 286.228 148.933 313.666 132.068C341.103 115.203 369.092 114.233 397.632 129.158" stroke="#0D34A0" stroke-width="2"/>
<path opacity="0.689655" d="M-22.3837 138.348C5.05405 121.483 33.0427 120.513 61.5822 135.438C90.1216 150.363 118.11 149.393 145.548 132.528C172.986 115.663 200.974 114.693 229.514 129.618C258.053 144.543 286.042 143.573 313.48 126.708C340.918 109.844 368.906 108.874 397.446 123.799" stroke="#0D34A0" stroke-width="2"/>
<path opacity="0.724138" d="M-22.5698 132.988C4.86801 116.124 32.8566 115.154 61.3961 130.078C89.9356 145.003 117.924 144.033 145.362 127.169C172.8 110.304 200.788 109.334 229.328 124.259C257.867 139.184 285.856 138.214 313.294 121.349C340.732 104.484 368.72 103.514 397.26 118.439" stroke="#0D34A0" stroke-width="2"/>
<path opacity="0.758621" d="M-22.7556 127.629C4.68222 110.764 32.6709 109.794 61.2103 124.719C89.7498 139.644 117.738 138.674 145.176 121.809C172.614 104.944 200.603 103.974 229.142 118.899C257.682 133.824 285.67 132.854 313.108 115.989C340.546 99.1243 368.534 98.1544 397.074 113.079" stroke="#0D34A0" stroke-width="2"/>
<path opacity="0.793103" d="M-22.9409 122.269C4.49692 105.404 32.4855 104.434 61.025 119.359C89.5645 134.284 117.553 133.314 144.991 116.449C172.429 99.5842 200.417 98.6142 228.957 113.539C257.496 128.464 285.485 127.494 312.923 110.629C340.36 93.7644 368.349 92.7944 396.889 107.719" stroke="#0D34A0" stroke-width="2"/>
<path opacity="0.827586" d="M-23.1264 116.909C4.31137 100.044 32.3 99.0743 60.8395 113.999C89.3789 128.924 117.368 127.954 144.805 111.089C172.243 94.2245 200.232 93.2545 228.771 108.179C257.311 123.104 285.299 122.134 312.737 105.269C340.175 88.4047 368.164 87.4348 396.703 102.36" stroke="#0D34A0" stroke-width="2"/>
<path opacity="0.862069" d="M-23.3127 111.549C4.12509 94.6846 32.1137 93.7146 60.6532 108.639C89.1927 123.564 117.181 122.594 144.619 105.73C172.057 88.8648 200.046 87.8948 228.585 102.82C257.124 117.744 285.113 116.775 312.551 99.9098C339.989 83.045 367.977 82.0751 396.517 96.9999" stroke="#0D34A0" stroke-width="2"/>
<path opacity="0.896552" d="M-23.4985 106.19C3.9393 89.3249 31.9279 88.3549 60.4674 103.28C89.0069 118.205 116.996 117.235 144.433 100.37C171.871 83.5051 199.86 82.5352 228.399 97.46C256.939 112.385 284.927 111.415 312.365 94.5501C339.803 77.6854 367.792 76.7154 396.331 91.6402" stroke="#0D34A0" stroke-width="2"/>
<path opacity="0.931035" d="M-23.684 100.83C3.75375 83.9652 31.7424 82.9952 60.2819 97.92C88.8213 112.845 116.81 111.875 144.248 95.0101C171.686 78.1454 199.674 77.1754 228.214 92.1002C256.753 107.025 284.742 106.055 312.18 89.1904C339.617 72.3256 367.606 71.3557 396.145 86.2805" stroke="#0D34A0" stroke-width="2"/>
<path opacity="0.965517" d="M-23.8698 95.4701C3.56796 78.6054 31.5566 77.6354 60.0961 92.5602C88.6355 107.485 116.624 106.515 144.062 89.6503C171.5 72.7856 199.488 71.8156 228.028 86.7404C256.567 101.665 284.556 100.695 311.994 83.8306C339.432 66.9658 367.42 65.9959 395.96 80.9207" stroke="#0D34A0" stroke-width="2"/>
<path d="M-24.0559 90.1105C3.38192 73.2458 31.3706 72.2758 59.91 87.2007C88.4495 102.125 116.438 101.156 143.876 84.2908C171.314 67.426 199.302 66.4561 227.842 81.3809C256.381 96.3057 284.37 95.3357 311.808 78.471C339.245 61.6063 367.234 60.6363 395.774 75.5611" stroke="#0D34A0" stroke-width="2"/>
</g>
</svg>
