<svg width="1016" height="969" viewBox="0 0 1016 969" fill="none" xmlns="http://www.w3.org/2000/svg">
<g opacity="0.15">
<path opacity="0.0344828" d="M157.932 421.002C221.625 398.66 279.38 409.118 331.195 452.374C383.011 495.631 440.766 506.088 504.459 483.747C568.153 461.406 625.907 471.863 677.723 515.12C729.539 558.376 787.293 568.834 850.987 546.492C914.68 524.151 972.435 534.609 1024.25 577.865" stroke="#0D34A0" stroke-width="5"/>
<path opacity="0.0689655" d="M159.934 409.942C223.628 387.601 281.382 398.058 333.198 441.315C385.014 484.571 442.768 495.029 506.462 472.687C570.155 450.346 627.91 460.804 679.726 504.06C731.541 547.316 789.296 557.774 852.989 535.433C916.683 513.091 974.437 523.549 1026.25 566.805" stroke="#0D34A0" stroke-width="5"/>
<path opacity="0.103448" d="M161.937 398.882C225.63 376.541 283.385 386.998 335.201 430.255C387.016 473.511 444.771 483.969 508.464 461.627C572.158 439.286 629.912 449.744 681.728 493C733.544 536.257 791.298 546.714 854.992 524.373C918.685 502.031 976.44 512.489 1028.26 555.745" stroke="#0D34A0" stroke-width="5"/>
<path opacity="0.137931" d="M163.94 387.822C227.633 365.481 285.388 375.938 337.204 419.195C389.019 462.451 446.774 472.909 510.467 450.568C574.161 428.226 631.915 438.684 683.731 481.94C735.547 525.197 793.301 535.654 856.995 513.313C920.688 490.972 978.443 501.429 1030.26 544.686" stroke="#0D34A0" stroke-width="5"/>
<path opacity="0.172414" d="M165.942 376.762C229.636 354.421 287.39 364.879 339.206 408.135C391.022 451.392 448.776 461.849 512.47 439.508C576.163 417.166 633.918 427.624 685.734 470.88C737.549 514.137 795.304 524.594 858.997 502.253C922.691 479.912 980.446 490.369 1032.26 533.626" stroke="#0D34A0" stroke-width="5"/>
<path opacity="0.206897" d="M167.945 365.703C231.638 343.361 289.393 353.819 341.209 397.075C393.024 440.332 450.779 450.789 514.472 428.448C578.166 406.107 635.92 416.564 687.736 459.821C739.552 503.077 797.306 513.535 861 491.193C924.693 468.852 982.448 479.31 1034.26 522.566" stroke="#0D34A0" stroke-width="5"/>
<path opacity="0.241379" d="M169.947 354.643C233.641 332.302 291.395 342.759 343.211 386.016C395.027 429.272 452.781 439.73 516.475 417.388C580.168 395.047 637.923 405.504 689.739 448.761C741.554 492.017 799.309 502.475 863.002 480.134C926.696 457.792 984.451 468.25 1036.27 511.506" stroke="#0D34A0" stroke-width="5"/>
<path opacity="0.275862" d="M171.95 343.583C235.643 321.242 293.398 331.699 345.214 374.956C397.029 418.212 454.784 428.67 518.477 406.328C582.171 383.987 639.925 394.445 691.741 437.701C743.557 480.957 801.311 491.415 865.005 469.074C928.698 446.732 986.453 457.19 1038.27 500.446" stroke="#0D34A0" stroke-width="5"/>
<path opacity="0.310345" d="M173.953 332.523C237.646 310.182 295.401 320.639 347.217 363.896C399.032 407.152 456.787 417.61 520.481 395.268C584.174 372.927 641.929 383.385 693.744 426.641C745.56 469.898 803.315 480.355 867.008 458.014C930.702 435.672 988.456 446.13 1040.27 489.387" stroke="#0D34A0" stroke-width="5"/>
<path opacity="0.344828" d="M175.955 321.463C239.648 299.122 297.403 309.58 349.219 352.836C401.034 396.093 458.789 406.55 522.482 384.209C586.176 361.867 643.93 372.325 695.746 415.581C747.562 458.838 805.316 469.295 869.01 446.954C932.703 424.613 990.458 435.07 1042.27 478.327" stroke="#0D34A0" stroke-width="5"/>
<path opacity="0.37931" d="M177.958 310.403C241.651 288.062 299.406 298.52 351.222 341.776C403.037 385.033 460.792 395.49 524.486 373.149C588.179 350.808 645.934 361.265 697.749 404.522C749.565 447.778 807.32 458.236 871.013 435.894C934.707 413.553 992.461 424.011 1044.28 467.267" stroke="#0D34A0" stroke-width="5"/>
<path opacity="0.413793" d="M179.96 299.344C243.654 277.002 301.408 287.46 353.224 330.716C405.04 373.973 462.795 384.43 526.488 362.089C590.181 339.748 647.936 350.205 699.752 393.462C751.567 436.718 809.322 447.176 873.016 424.835C936.709 402.493 994.464 412.951 1046.28 456.207" stroke="#0D34A0" stroke-width="5"/>
<path opacity="0.448276" d="M181.963 288.284C245.656 265.943 303.411 276.4 355.227 319.657C407.042 362.913 464.797 373.371 528.49 351.029C592.184 328.688 649.938 339.145 701.754 382.402C753.57 425.658 811.325 436.116 875.018 413.775C938.711 391.433 996.466 401.891 1048.28 445.147" stroke="#0D34A0" stroke-width="5"/>
<path opacity="0.482759" d="M183.965 277.224C247.659 254.883 305.413 265.34 357.229 308.597C409.045 351.853 466.8 362.311 530.493 339.969C594.186 317.628 651.941 328.086 703.757 371.342C755.572 414.599 813.327 425.056 877.021 402.715C940.714 380.373 998.469 390.831 1050.28 434.087" stroke="#0D34A0" stroke-width="5"/>
<path opacity="0.517241" d="M185.968 266.164C249.661 243.823 307.416 254.28 359.232 297.537C411.047 340.793 468.802 351.251 532.495 328.91C596.189 306.568 653.943 317.026 705.759 360.282C757.575 403.539 815.33 413.996 879.023 391.655C942.716 369.314 1000.47 379.771 1052.29 423.028" stroke="#0D34A0" stroke-width="5"/>
<path opacity="0.551724" d="M187.971 255.104C251.664 232.763 309.419 243.221 361.235 286.477C413.051 329.734 470.805 340.191 534.499 317.85C598.192 295.508 655.947 305.966 707.762 349.222C759.578 392.479 817.333 402.936 881.026 380.595C944.72 358.254 1002.47 368.711 1054.29 411.968" stroke="#0D34A0" stroke-width="5"/>
<path opacity="0.586207" d="M189.973 244.045C253.667 221.703 311.422 232.161 363.237 275.417C415.053 318.674 472.808 329.131 536.501 306.79C600.194 284.449 657.949 294.906 709.765 338.163C761.581 381.419 819.335 391.877 883.029 369.535C946.722 347.194 1004.48 357.652 1056.29 400.908" stroke="#0D34A0" stroke-width="5"/>
<path opacity="0.62069" d="M191.976 232.985C255.669 210.643 313.424 221.101 365.24 264.357C417.056 307.614 474.81 318.071 538.504 295.73C602.197 273.389 659.952 283.846 711.767 327.103C763.583 370.359 821.338 380.817 885.031 358.476C948.725 336.134 1006.48 346.592 1058.29 389.848" stroke="#0D34A0" stroke-width="5"/>
<path opacity="0.655172" d="M193.978 221.925C257.672 199.584 315.427 210.041 367.242 253.298C419.058 296.554 476.813 307.012 540.506 284.67C604.199 262.329 661.954 272.787 713.77 316.043C765.586 359.299 823.34 369.757 887.034 347.416C950.727 325.074 1008.48 335.532 1060.3 378.788" stroke="#0D34A0" stroke-width="5"/>
<path opacity="0.689655" d="M195.981 210.865C259.674 188.524 317.429 198.981 369.245 242.238C421.061 285.494 478.815 295.952 542.509 273.61C606.202 251.269 663.957 261.727 715.772 304.983C767.588 348.24 825.343 358.697 889.036 336.356C952.73 314.015 1010.48 324.472 1062.3 367.729" stroke="#0D34A0" stroke-width="5"/>
<path opacity="0.724138" d="M197.983 199.805C261.677 177.464 319.432 187.922 371.247 231.178C423.063 274.435 480.818 284.892 544.511 262.551C608.204 240.209 665.959 250.667 717.775 293.923C769.591 337.18 827.345 347.638 891.039 325.296C954.732 302.955 1012.49 313.412 1064.3 356.669" stroke="#0D34A0" stroke-width="5"/>
<path opacity="0.758621" d="M199.986 188.746C263.679 166.404 321.434 176.862 373.25 220.118C425.065 263.375 482.82 273.832 546.513 251.491C610.207 229.15 667.962 239.607 719.777 282.864C771.593 326.12 829.348 336.578 893.041 314.236C956.734 291.895 1014.49 302.353 1066.3 345.609" stroke="#0D34A0" stroke-width="5"/>
<path opacity="0.793103" d="M201.989 177.686C265.683 155.344 323.437 165.802 375.253 209.058C427.069 252.315 484.823 262.772 548.517 240.431C612.21 218.09 669.965 228.547 721.78 271.804C773.596 315.06 831.351 325.518 895.044 303.176C958.738 280.835 1016.49 291.293 1068.31 334.549" stroke="#0D34A0" stroke-width="5"/>
<path opacity="0.827586" d="M203.992 166.626C267.685 144.285 325.44 154.742 377.255 197.999C429.071 241.255 486.826 251.713 550.519 229.371C614.213 207.03 671.967 217.488 723.783 260.744C775.599 304.001 833.353 314.458 897.047 292.117C960.74 269.775 1018.49 280.233 1070.31 323.489" stroke="#0D34A0" stroke-width="5"/>
<path opacity="0.862069" d="M205.994 155.566C269.687 133.225 327.442 143.682 379.258 186.939C431.073 230.195 488.828 240.653 552.522 218.311C616.215 195.97 673.97 206.428 725.785 249.684C777.601 292.941 835.356 303.398 899.049 281.057C962.743 258.716 1020.5 269.173 1072.31 312.43" stroke="#0D34A0" stroke-width="5"/>
<path opacity="0.896552" d="M207.997 144.506C271.69 122.165 329.445 132.623 381.26 175.879C433.076 219.136 490.831 229.593 554.524 207.252C618.218 184.91 675.972 195.368 727.788 238.624C779.604 281.881 837.358 292.339 901.052 269.997C964.745 247.656 1022.5 258.113 1074.32 301.37" stroke="#0D34A0" stroke-width="5"/>
<path opacity="0.931035" d="M209.999 133.446C273.692 111.105 331.447 121.563 383.263 164.819C435.078 208.076 492.833 218.533 556.527 196.192C620.22 173.851 677.975 184.308 729.79 227.565C781.606 270.821 839.361 281.279 903.054 258.937C966.748 236.596 1024.5 247.053 1076.32 290.31" stroke="#0D34A0" stroke-width="5"/>
<path opacity="0.965517" d="M212.002 122.387C275.695 100.045 333.45 110.503 385.265 153.759C437.081 197.016 494.836 207.473 558.529 185.132C622.223 162.791 679.977 173.248 731.793 216.505C783.609 259.761 841.363 270.219 905.057 247.877C968.75 225.536 1026.5 235.994 1078.32 279.25" stroke="#0D34A0" stroke-width="5"/>
<path d="M214.004 111.327C277.697 88.9856 335.452 99.4431 387.268 142.7C439.083 185.956 496.838 196.414 560.532 174.072C624.225 151.731 681.98 162.189 733.795 205.445C785.611 248.701 843.366 259.159 907.059 236.818C970.753 214.476 1028.51 224.934 1080.32 268.19" stroke="#0D34A0" stroke-width="5"/>
</g>
</svg>
