<svg width="547" height="162" viewBox="0 0 547 162" fill="none" xmlns="http://www.w3.org/2000/svg">
<path d="M60.3139 3.82514C54.4727 11.2721 54.4262 22.573 55.1331 27.2926L66.8268 22.342C65.3663 17.8476 67.9743 6.90797 69.4608 1.99998L60.3139 3.82514Z" stroke="url(#paint0_linear_134_1271)" stroke-width="2" stroke-linecap="round"/>
<path d="M124.103 152.58C136.995 153.157 149.57 144.25 154.246 139.724L139.483 130.675C135.655 135.859 121.451 141.637 114.827 143.879L124.103 152.58Z" stroke="url(#paint1_linear_134_1271)" stroke-width="2" stroke-linecap="round"/>
<path d="M179.374 46.3621C188.064 44.7349 195.062 36.8309 197.475 33.0824L186.215 29.3502C184.47 33.4051 175.897 39.4767 171.829 42.0057L179.374 46.3621Z" stroke="url(#paint2_linear_134_1271)" stroke-width="2" stroke-linecap="round"/>
<path d="M107.744 42.2664C104.764 49.1868 107.028 57.8942 108.532 61.3829L116.525 55.1927C114.486 52.0307 114.267 43.0801 114.412 39L107.744 42.2664Z" stroke="url(#paint3_linear_134_1271)" stroke-width="2" stroke-linecap="round"/>
<path d="M3.51756 109.958C6.11499 117.031 13.748 121.794 17.2399 123.291L18.783 113.3C15.1282 112.407 8.81212 106.061 6.11094 103L3.51756 109.958Z" stroke="url(#paint4_linear_134_1271)" stroke-width="2" stroke-linecap="round"/>
<path d="M114.558 114.201C102.313 98.2955 75.1179 71.5249 64.3025 91.6879C50.7833 116.892 78.4535 123.039 84.7018 106.915C90.9502 90.7914 59.7049 60.0198 35.3953 66.5805C11.0857 73.1411 24.853 94.8887 38.556 88.3522C52.2591 81.8157 51.6928 50.0677 26.8005 49.1343" stroke="url(#paint5_linear_134_1271)" stroke-width="2" stroke-linecap="round"/>
<path d="M333.923 132.257C336.207 141.442 345.093 148.424 349.251 150.767L352.532 138.5C348.089 136.89 341.063 128.109 338.105 123.92L333.923 132.257Z" stroke="url(#paint6_linear_134_1271)" stroke-width="2" stroke-linecap="round"/>
<path d="M514.82 111.205C527.688 112.193 540.54 103.693 545.358 99.319L530.893 89.803C526.9 94.861 512.519 100.183 505.827 102.212L514.82 111.205Z" stroke="url(#paint7_linear_134_1271)" stroke-width="2" stroke-linecap="round"/>
<path d="M399.365 24.3259C386.498 23.3372 373.645 31.8376 368.827 36.2115L383.293 45.7275C387.285 40.6694 401.667 35.3476 408.358 33.319L399.365 24.3259Z" stroke="url(#paint8_linear_134_1271)" stroke-width="2" stroke-linecap="round"/>
<path d="M456.256 139.956C448.837 138.64 440.879 142.838 437.828 145.101L445.684 151.464C448.295 148.755 456.958 146.492 460.962 145.7L456.256 139.956Z" stroke="url(#paint9_linear_134_1271)" stroke-width="2" stroke-linecap="round"/>
<path d="M476.951 28.9007C483.826 25.8176 488.046 17.8719 489.297 14.2844L479.223 13.4398C478.586 17.1479 472.695 23.8899 469.829 26.7974L476.951 28.9007Z" stroke="url(#paint10_linear_134_1271)" stroke-width="2" stroke-linecap="round"/>
<path d="M495.616 48.9998C483.113 57.4817 461.777 76.6934 476.457 85.6849C494.809 96.9243 500.659 76.4519 488.813 71.0611C476.966 65.6703 452.442 87.7427 456.295 106.253C460.149 124.764 477.113 115.397 472.806 104.838C468.5 94.2799 444.603 93.3122 442.796 111.931" stroke="url(#paint11_linear_134_1271)" stroke-width="2" stroke-linecap="round"/>
<path d="M141.018 97.18C140.598 97.18 140.138 97.17 139.638 97.15C139.158 97.13 138.668 97.1 138.168 97.06C137.688 97.02 137.208 96.97 136.728 96.91C136.248 96.85 135.808 96.77 135.408 96.67V76.51C135.808 76.41 136.248 76.33 136.728 76.27C137.208 76.21 137.688 76.16 138.168 76.12C138.668 76.08 139.158 76.05 139.638 76.03C140.118 76.01 140.568 76 140.988 76C142.188 76 143.308 76.09 144.348 76.27C145.408 76.45 146.318 76.76 147.078 77.2C147.858 77.62 148.468 78.18 148.908 78.88C149.348 79.58 149.568 80.44 149.568 81.46C149.568 82.6 149.298 83.54 148.758 84.28C148.218 85 147.498 85.54 146.598 85.9C147.818 86.26 148.788 86.83 149.508 87.61C150.228 88.39 150.588 89.49 150.588 90.91C150.588 92.99 149.818 94.56 148.278 95.62C146.758 96.66 144.338 97.18 141.018 97.18ZM138.288 87.31V94.63C138.508 94.65 138.768 94.67 139.068 94.69C139.328 94.71 139.628 94.73 139.968 94.75C140.328 94.75 140.738 94.75 141.198 94.75C142.058 94.75 142.868 94.7 143.628 94.6C144.408 94.48 145.088 94.28 145.668 94C146.248 93.72 146.708 93.33 147.048 92.83C147.408 92.33 147.588 91.7 147.588 90.94C147.588 90.26 147.458 89.69 147.198 89.23C146.938 88.75 146.558 88.37 146.058 88.09C145.578 87.81 144.998 87.61 144.318 87.49C143.638 87.37 142.878 87.31 142.038 87.31H138.288ZM138.288 84.97H141.348C142.068 84.97 142.748 84.92 143.388 84.82C144.028 84.72 144.578 84.54 145.038 84.28C145.518 84.02 145.888 83.68 146.148 83.26C146.428 82.84 146.568 82.31 146.568 81.67C146.568 81.07 146.428 80.57 146.148 80.17C145.868 79.75 145.478 79.42 144.978 79.18C144.498 78.92 143.928 78.73 143.268 78.61C142.608 78.49 141.908 78.43 141.168 78.43C140.428 78.43 139.848 78.44 139.428 78.46C139.008 78.48 138.628 78.51 138.288 78.55V84.97ZM160.235 89.29C159.695 89.29 159.165 89.31 158.645 89.35C158.145 89.37 157.695 89.43 157.295 89.53V94.9C157.415 94.92 157.585 94.94 157.805 94.96C158.045 94.98 158.295 95 158.555 95.02C158.835 95.02 159.115 95.03 159.395 95.05C159.675 95.05 159.925 95.05 160.145 95.05C161.365 95.05 162.305 94.82 162.965 94.36C163.625 93.9 163.955 93.16 163.955 92.14C163.955 91.64 163.845 91.21 163.625 90.85C163.425 90.49 163.145 90.2 162.785 89.98C162.445 89.74 162.055 89.57 161.615 89.47C161.175 89.35 160.715 89.29 160.235 89.29ZM154.505 81.4H157.295V87.37C157.635 87.29 158.125 87.21 158.765 87.13C159.425 87.05 160.055 87.01 160.655 87.01C161.475 87.01 162.255 87.11 162.995 87.31C163.735 87.49 164.385 87.79 164.945 88.21C165.505 88.61 165.945 89.14 166.265 89.8C166.605 90.44 166.775 91.21 166.775 92.11C166.775 93.05 166.615 93.85 166.295 94.51C165.975 95.17 165.525 95.71 164.945 96.13C164.365 96.55 163.665 96.85 162.845 97.03C162.025 97.23 161.125 97.33 160.145 97.33C159.205 97.33 158.255 97.27 157.295 97.15C156.335 97.05 155.405 96.89 154.505 96.67V81.4ZM172.445 97H169.655V81.4H172.445V97ZM197.953 89.2C197.953 90.44 197.773 91.56 197.413 92.56C197.053 93.56 196.543 94.42 195.883 95.14C195.243 95.86 194.473 96.42 193.573 96.82C192.673 97.2 191.693 97.39 190.633 97.39C189.573 97.39 188.593 97.2 187.693 96.82C186.793 96.42 186.013 95.86 185.353 95.14C184.713 94.42 184.213 93.56 183.853 92.56C183.493 91.56 183.313 90.44 183.313 89.2C183.313 87.98 183.493 86.87 183.853 85.87C184.213 84.85 184.713 83.98 185.353 83.26C186.013 82.54 186.793 81.99 187.693 81.61C188.593 81.21 189.573 81.01 190.633 81.01C191.693 81.01 192.673 81.21 193.573 81.61C194.473 81.99 195.243 82.54 195.883 83.26C196.543 83.98 197.053 84.85 197.413 85.87C197.773 86.87 197.953 87.98 197.953 89.2ZM195.043 89.2C195.043 87.44 194.643 86.05 193.843 85.03C193.063 83.99 191.993 83.47 190.633 83.47C189.273 83.47 188.193 83.99 187.393 85.03C186.613 86.05 186.223 87.44 186.223 89.2C186.223 90.96 186.613 92.36 187.393 93.4C188.193 94.42 189.273 94.93 190.633 94.93C191.993 94.93 193.063 94.42 193.843 93.4C194.643 92.36 195.043 90.96 195.043 89.2ZM203.829 89.2C203.829 90.08 203.969 90.86 204.249 91.54C204.549 92.22 204.959 92.8 205.479 93.28C205.999 93.74 206.609 94.1 207.309 94.36C208.029 94.6 208.799 94.73 209.619 94.75V83.65C208.799 83.67 208.029 83.81 207.309 84.07C206.609 84.33 205.999 84.7 205.479 85.18C204.959 85.64 204.549 86.21 204.249 86.89C203.969 87.57 203.829 88.34 203.829 89.2ZM212.319 94.75C213.139 94.73 213.899 94.6 214.599 94.36C215.319 94.1 215.939 93.74 216.459 93.28C216.979 92.8 217.379 92.22 217.659 91.54C217.959 90.86 218.109 90.08 218.109 89.2C218.109 88.34 217.959 87.57 217.659 86.89C217.379 86.21 216.979 85.64 216.459 85.18C215.939 84.7 215.319 84.33 214.599 84.07C213.899 83.81 213.139 83.67 212.319 83.65V94.75ZM212.319 102.55H209.619V97.09C208.439 97.07 207.329 96.88 206.289 96.52C205.249 96.16 204.329 95.65 203.529 94.99C202.749 94.31 202.129 93.49 201.669 92.53C201.209 91.55 200.979 90.44 200.979 89.2C200.979 87.96 201.209 86.86 201.669 85.9C202.129 84.92 202.749 84.1 203.529 83.44C204.329 82.76 205.249 82.24 206.289 81.88C207.329 81.52 208.439 81.33 209.619 81.31V74.2L212.319 73.72V81.31C213.479 81.33 214.579 81.52 215.619 81.88C216.679 82.24 217.599 82.76 218.379 83.44C219.179 84.1 219.809 84.92 220.269 85.9C220.729 86.86 220.959 87.96 220.959 89.2C220.959 90.44 220.729 91.55 220.269 92.53C219.809 93.49 219.179 94.31 218.379 94.99C217.599 95.65 216.679 96.16 215.619 96.52C214.579 96.88 213.479 97.07 212.319 97.09V102.55ZM238.617 89.2C238.617 90.44 238.437 91.56 238.077 92.56C237.717 93.56 237.207 94.42 236.547 95.14C235.907 95.86 235.137 96.42 234.237 96.82C233.337 97.2 232.357 97.39 231.297 97.39C230.237 97.39 229.257 97.2 228.357 96.82C227.457 96.42 226.677 95.86 226.017 95.14C225.377 94.42 224.877 93.56 224.517 92.56C224.157 91.56 223.977 90.44 223.977 89.2C223.977 87.98 224.157 86.87 224.517 85.87C224.877 84.85 225.377 83.98 226.017 83.26C226.677 82.54 227.457 81.99 228.357 81.61C229.257 81.21 230.237 81.01 231.297 81.01C232.357 81.01 233.337 81.21 234.237 81.61C235.137 81.99 235.907 82.54 236.547 83.26C237.207 83.98 237.717 84.85 238.077 85.87C238.437 86.87 238.617 87.98 238.617 89.2ZM235.707 89.2C235.707 87.44 235.307 86.05 234.507 85.03C233.727 83.99 232.657 83.47 231.297 83.47C229.937 83.47 228.857 83.99 228.057 85.03C227.277 86.05 226.887 87.44 226.887 89.2C226.887 90.96 227.277 92.36 228.057 93.4C228.857 94.42 229.937 94.93 231.297 94.93C232.657 94.93 233.727 94.42 234.507 93.4C235.307 92.36 235.707 90.96 235.707 89.2ZM253.373 89.23C253.373 87.41 252.923 86.01 252.023 85.03C251.123 84.05 249.923 83.56 248.423 83.56C247.583 83.56 246.923 83.59 246.443 83.65C245.983 83.71 245.613 83.78 245.333 83.86V93.7C245.673 93.98 246.163 94.25 246.803 94.51C247.443 94.77 248.143 94.9 248.903 94.9C249.703 94.9 250.383 94.76 250.943 94.48C251.523 94.18 251.993 93.78 252.353 93.28C252.713 92.76 252.973 92.16 253.133 91.48C253.293 90.78 253.373 90.03 253.373 89.23ZM256.283 89.23C256.283 90.41 256.123 91.5 255.803 92.5C255.503 93.5 255.053 94.36 254.453 95.08C253.853 95.8 253.113 96.36 252.233 96.76C251.373 97.16 250.383 97.36 249.263 97.36C248.363 97.36 247.563 97.24 246.863 97C246.183 96.76 245.673 96.53 245.333 96.31V102.55H242.543V81.88C243.203 81.72 244.023 81.55 245.003 81.37C246.003 81.17 247.153 81.07 248.453 81.07C249.653 81.07 250.733 81.26 251.693 81.64C252.653 82.02 253.473 82.56 254.153 83.26C254.833 83.96 255.353 84.82 255.713 85.84C256.093 86.84 256.283 87.97 256.283 89.23ZM263.179 85.51C262.979 87.49 262.829 89.47 262.729 91.45C262.629 93.41 262.549 95.26 262.489 97H259.819C259.859 95.78 259.919 94.51 259.999 93.19C260.079 91.85 260.169 90.51 260.269 89.17C260.369 87.81 260.479 86.48 260.599 85.18C260.719 83.86 260.849 82.6 260.989 81.4H263.539C264.179 82.44 264.929 83.87 265.789 85.69C266.649 87.49 267.639 89.57 268.759 91.93C269.879 89.57 270.869 87.49 271.729 85.69C272.589 83.87 273.339 82.44 273.979 81.4H276.559C276.699 82.6 276.829 83.86 276.949 85.18C277.069 86.48 277.179 87.81 277.279 89.17C277.379 90.51 277.469 91.85 277.549 93.19C277.629 94.51 277.689 95.78 277.729 97H274.969C274.909 95.26 274.829 93.41 274.729 91.45C274.629 89.47 274.479 87.49 274.279 85.51C273.959 86.13 273.589 86.88 273.169 87.76C272.749 88.62 272.329 89.5 271.909 90.4C271.509 91.3 271.129 92.16 270.769 92.98C270.409 93.8 270.129 94.45 269.929 94.93H267.589C267.369 94.43 267.069 93.77 266.689 92.95C266.329 92.13 265.939 91.27 265.519 90.37C265.119 89.45 264.709 88.56 264.289 87.7C263.869 86.82 263.499 86.09 263.179 85.51ZM295.262 81.4V97H292.562V85.12C291.962 85.88 291.302 86.77 290.582 87.79C289.862 88.81 289.142 89.87 288.422 90.97C287.702 92.05 287.012 93.12 286.352 94.18C285.692 95.24 285.122 96.18 284.642 97H282.152V81.4H284.852V92.62C285.372 91.76 285.962 90.82 286.622 89.8C287.282 88.76 287.962 87.74 288.662 86.74C289.382 85.72 290.092 84.75 290.792 83.83C291.512 82.89 292.182 82.08 292.802 81.4H295.262ZM305.482 83.74C305.482 84.4 305.462 85.11 305.422 85.87C305.402 86.61 305.352 87.36 305.272 88.12C305.192 88.86 305.082 89.6 304.942 90.34C304.802 91.06 304.622 91.74 304.402 92.38C304.182 93.02 303.902 93.62 303.562 94.18C303.242 94.74 302.842 95.24 302.362 95.68C301.882 96.1 301.322 96.46 300.682 96.76C300.042 97.04 299.292 97.22 298.432 97.3L298.042 94.96C299.022 94.76 299.792 94.39 300.352 93.85C300.932 93.31 301.392 92.65 301.732 91.87C302.032 91.19 302.252 90.42 302.392 89.56C302.532 88.7 302.632 87.81 302.692 86.89C302.752 85.95 302.782 85.01 302.782 84.07C302.802 83.13 302.812 82.24 302.812 81.4H313.192V97H310.402V83.74H305.482ZM331.092 81.4V97H328.392V85.12C327.792 85.88 327.132 86.77 326.412 87.79C325.692 88.81 324.972 89.87 324.252 90.97C323.532 92.05 322.842 93.12 322.182 94.18C321.522 95.24 320.952 96.18 320.472 97H317.982V81.4H320.682V92.62C321.202 91.76 321.792 90.82 322.452 89.8C323.112 88.76 323.792 87.74 324.492 86.74C325.212 85.72 325.922 84.75 326.622 83.83C327.342 82.89 328.012 82.08 328.632 81.4H331.092ZM346.786 81.01C347.686 81.01 348.526 81.1 349.306 81.28C350.086 81.46 350.756 81.73 351.316 82.09C351.876 82.45 352.316 82.9 352.636 83.44C352.956 83.98 353.116 84.61 353.116 85.33C353.116 85.79 353.036 86.21 352.876 86.59C352.716 86.97 352.516 87.31 352.276 87.61C352.036 87.91 351.766 88.17 351.466 88.39C351.186 88.59 350.916 88.73 350.656 88.81C351.576 89.09 352.296 89.59 352.816 90.31C353.356 91.01 353.626 91.9 353.626 92.98C353.626 94.46 353.026 95.56 351.826 96.28C350.626 97 348.996 97.36 346.936 97.36C345.676 97.36 344.586 97.26 343.666 97.06C342.766 96.86 342.126 96.67 341.746 96.49L342.226 94.12C342.546 94.24 343.116 94.41 343.936 94.63C344.776 94.83 345.776 94.93 346.936 94.93C348.196 94.93 349.156 94.74 349.816 94.36C350.476 93.96 350.806 93.37 350.806 92.59C350.806 92.03 350.676 91.58 350.416 91.24C350.176 90.88 349.866 90.61 349.486 90.43C349.106 90.25 348.696 90.13 348.256 90.07C347.816 90.01 347.406 89.98 347.026 89.98H344.416V87.76H346.936C347.296 87.76 347.666 87.74 348.046 87.7C348.446 87.64 348.806 87.53 349.126 87.37C349.466 87.21 349.746 86.99 349.966 86.71C350.186 86.41 350.296 86.02 350.296 85.54C350.296 85.16 350.196 84.84 349.996 84.58C349.816 84.3 349.566 84.07 349.246 83.89C348.926 83.71 348.546 83.58 348.106 83.5C347.686 83.4 347.246 83.35 346.786 83.35C346.426 83.35 346.036 83.38 345.616 83.44C345.196 83.5 344.786 83.58 344.386 83.68C343.986 83.76 343.626 83.85 343.306 83.95C342.986 84.05 342.756 84.14 342.616 84.22L342.106 81.82C342.266 81.76 342.516 81.68 342.856 81.58C343.196 81.48 343.576 81.39 343.996 81.31C344.436 81.23 344.896 81.16 345.376 81.1C345.856 81.04 346.326 81.01 346.786 81.01ZM362.784 94.99C363.444 94.99 364.024 94.98 364.524 94.96C365.044 94.92 365.474 94.86 365.814 94.78V90.13C365.614 90.03 365.284 89.95 364.824 89.89C364.384 89.81 363.844 89.77 363.204 89.77C362.784 89.77 362.334 89.8 361.854 89.86C361.394 89.92 360.964 90.05 360.564 90.25C360.184 90.43 359.864 90.69 359.604 91.03C359.344 91.35 359.214 91.78 359.214 92.32C359.214 93.32 359.534 94.02 360.174 94.42C360.814 94.8 361.684 94.99 362.784 94.99ZM362.544 81.01C363.664 81.01 364.604 81.16 365.364 81.46C366.144 81.74 366.764 82.15 367.224 82.69C367.704 83.21 368.044 83.84 368.244 84.58C368.444 85.3 368.544 86.1 368.544 86.98V96.73C368.304 96.77 367.964 96.83 367.524 96.91C367.104 96.97 366.624 97.03 366.084 97.09C365.544 97.15 364.954 97.2 364.314 97.24C363.694 97.3 363.074 97.33 362.454 97.33C361.574 97.33 360.764 97.24 360.024 97.06C359.284 96.88 358.644 96.6 358.104 96.22C357.564 95.82 357.144 95.3 356.844 94.66C356.544 94.02 356.394 93.25 356.394 92.35C356.394 91.49 356.564 90.75 356.904 90.13C357.264 89.51 357.744 89.01 358.344 88.63C358.944 88.25 359.644 87.97 360.444 87.79C361.244 87.61 362.084 87.52 362.964 87.52C363.244 87.52 363.534 87.54 363.834 87.58C364.134 87.6 364.414 87.64 364.674 87.7C364.954 87.74 365.194 87.78 365.394 87.82C365.594 87.86 365.734 87.89 365.814 87.91V87.13C365.814 86.67 365.764 86.22 365.664 85.78C365.564 85.32 365.384 84.92 365.124 84.58C364.864 84.22 364.504 83.94 364.044 83.74C363.604 83.52 363.024 83.41 362.304 83.41C361.384 83.41 360.574 83.48 359.874 83.62C359.194 83.74 358.684 83.87 358.344 84.01L358.014 81.7C358.374 81.54 358.974 81.39 359.814 81.25C360.654 81.09 361.564 81.01 362.544 81.01ZM378.877 88.51C379.497 88.95 380.167 89.51 380.887 90.19C381.607 90.85 382.307 91.57 382.987 92.35C383.687 93.13 384.337 93.93 384.937 94.75C385.537 95.55 386.047 96.3 386.467 97H383.167C382.727 96.32 382.207 95.63 381.607 94.93C381.027 94.21 380.417 93.52 379.777 92.86C379.137 92.2 378.487 91.59 377.827 91.03C377.167 90.47 376.547 90 375.967 89.62V97H373.177V81.4H375.967V88.09C376.447 87.63 376.997 87.1 377.617 86.5C378.237 85.88 378.857 85.26 379.477 84.64C380.117 84 380.707 83.4 381.247 82.84C381.787 82.26 382.227 81.78 382.567 81.4H385.807C385.367 81.88 384.847 82.43 384.247 83.05C383.667 83.65 383.057 84.27 382.417 84.91C381.797 85.55 381.177 86.19 380.557 86.83C379.937 87.45 379.377 88.01 378.877 88.51ZM394.571 94.99C395.231 94.99 395.811 94.98 396.311 94.96C396.831 94.92 397.261 94.86 397.601 94.78V90.13C397.401 90.03 397.071 89.95 396.611 89.89C396.171 89.81 395.631 89.77 394.991 89.77C394.571 89.77 394.121 89.8 393.641 89.86C393.181 89.92 392.751 90.05 392.351 90.25C391.971 90.43 391.651 90.69 391.391 91.03C391.131 91.35 391.001 91.78 391.001 92.32C391.001 93.32 391.321 94.02 391.961 94.42C392.601 94.8 393.471 94.99 394.571 94.99ZM394.331 81.01C395.451 81.01 396.391 81.16 397.151 81.46C397.931 81.74 398.551 82.15 399.011 82.69C399.491 83.21 399.831 83.84 400.031 84.58C400.231 85.3 400.331 86.1 400.331 86.98V96.73C400.091 96.77 399.751 96.83 399.311 96.91C398.891 96.97 398.411 97.03 397.871 97.09C397.331 97.15 396.741 97.2 396.101 97.24C395.481 97.3 394.861 97.33 394.241 97.33C393.361 97.33 392.551 97.24 391.811 97.06C391.071 96.88 390.431 96.6 389.891 96.22C389.351 95.82 388.931 95.3 388.631 94.66C388.331 94.02 388.181 93.25 388.181 92.35C388.181 91.49 388.351 90.75 388.691 90.13C389.051 89.51 389.531 89.01 390.131 88.63C390.731 88.25 391.431 87.97 392.231 87.79C393.031 87.61 393.871 87.52 394.751 87.52C395.031 87.52 395.321 87.54 395.621 87.58C395.921 87.6 396.201 87.64 396.461 87.7C396.741 87.74 396.981 87.78 397.181 87.82C397.381 87.86 397.521 87.89 397.601 87.91V87.13C397.601 86.67 397.551 86.22 397.451 85.78C397.351 85.32 397.171 84.92 396.911 84.58C396.651 84.22 396.291 83.94 395.831 83.74C395.391 83.52 394.811 83.41 394.091 83.41C393.171 83.41 392.361 83.48 391.661 83.62C390.981 83.74 390.471 83.87 390.131 84.01L389.801 81.7C390.161 81.54 390.761 81.39 391.601 81.25C392.441 81.09 393.351 81.01 394.331 81.01ZM408.924 81.01C409.824 81.01 410.664 81.1 411.444 81.28C412.224 81.46 412.894 81.73 413.454 82.09C414.014 82.45 414.454 82.9 414.774 83.44C415.094 83.98 415.254 84.61 415.254 85.33C415.254 85.79 415.174 86.21 415.014 86.59C414.854 86.97 414.654 87.31 414.414 87.61C414.174 87.91 413.904 88.17 413.604 88.39C413.324 88.59 413.054 88.73 412.794 88.81C413.714 89.09 414.434 89.59 414.954 90.31C415.494 91.01 415.764 91.9 415.764 92.98C415.764 94.46 415.164 95.56 413.964 96.28C412.764 97 411.134 97.36 409.074 97.36C407.814 97.36 406.724 97.26 405.804 97.06C404.904 96.86 404.264 96.67 403.884 96.49L404.364 94.12C404.684 94.24 405.254 94.41 406.074 94.63C406.914 94.83 407.914 94.93 409.074 94.93C410.334 94.93 411.294 94.74 411.954 94.36C412.614 93.96 412.944 93.37 412.944 92.59C412.944 92.03 412.814 91.58 412.554 91.24C412.314 90.88 412.004 90.61 411.624 90.43C411.244 90.25 410.834 90.13 410.394 90.07C409.954 90.01 409.544 89.98 409.164 89.98H406.554V87.76H409.074C409.434 87.76 409.804 87.74 410.184 87.7C410.584 87.64 410.944 87.53 411.264 87.37C411.604 87.21 411.884 86.99 412.104 86.71C412.324 86.41 412.434 86.02 412.434 85.54C412.434 85.16 412.334 84.84 412.134 84.58C411.954 84.3 411.704 84.07 411.384 83.89C411.064 83.71 410.684 83.58 410.244 83.5C409.824 83.4 409.384 83.35 408.924 83.35C408.564 83.35 408.174 83.38 407.754 83.44C407.334 83.5 406.924 83.58 406.524 83.68C406.124 83.76 405.764 83.85 405.444 83.95C405.124 84.05 404.894 84.14 404.754 84.22L404.244 81.82C404.404 81.76 404.654 81.68 404.994 81.58C405.334 81.48 405.714 81.39 406.134 81.31C406.574 81.23 407.034 81.16 407.514 81.1C407.994 81.04 408.464 81.01 408.924 81.01ZM422.882 81.85C422.882 83.53 422.822 85.06 422.702 86.44C422.582 87.8 422.432 89.16 422.252 90.52H420.512C420.332 89.16 420.182 87.8 420.062 86.44C419.942 85.06 419.882 83.53 419.882 81.85V76.21H422.882V81.85ZM423.392 95.38C423.392 95.92 423.212 96.39 422.852 96.79C422.492 97.19 422.002 97.39 421.382 97.39C420.762 97.39 420.272 97.19 419.912 96.79C419.552 96.39 419.372 95.92 419.372 95.38C419.372 94.84 419.552 94.37 419.912 93.97C420.272 93.57 420.762 93.37 421.382 93.37C422.002 93.37 422.492 93.57 422.852 93.97C423.212 94.37 423.392 94.84 423.392 95.38Z" fill="url(#paint12_linear_134_1271)"/>
<defs>
<linearGradient id="paint0_linear_134_1271" x1="50.9821" y1="5.68716" x2="69.9228" y2="1.90779" gradientUnits="userSpaceOnUse">
<stop stop-color="#0044FF"/>
<stop offset="1" stop-color="#00A3FF"/>
</linearGradient>
<linearGradient id="paint1_linear_134_1271" x1="133.566" y1="161.457" x2="114.359" y2="143.439" gradientUnits="userSpaceOnUse">
<stop stop-color="#0044FF"/>
<stop offset="1" stop-color="#00A3FF"/>
</linearGradient>
<linearGradient id="paint2_linear_134_1271" x1="187.072" y1="50.8065" x2="171.448" y2="41.7857" gradientUnits="userSpaceOnUse">
<stop stop-color="#0044FF"/>
<stop offset="1" stop-color="#00A3FF"/>
</linearGradient>
<linearGradient id="paint3_linear_134_1271" x1="100.94" y1="45.5987" x2="114.749" y2="38.8351" gradientUnits="userSpaceOnUse">
<stop stop-color="#0044FF"/>
<stop offset="1" stop-color="#00A3FF"/>
</linearGradient>
<linearGradient id="paint4_linear_134_1271" x1="0.871778" y1="117.057" x2="6.24192" y2="102.649" gradientUnits="userSpaceOnUse">
<stop stop-color="#0044FF"/>
<stop offset="1" stop-color="#00A3FF"/>
</linearGradient>
<linearGradient id="paint5_linear_134_1271" x1="18.5361" y1="50.334" x2="105.62" y2="37.6916" gradientUnits="userSpaceOnUse">
<stop stop-color="#0044FF"/>
<stop offset="1" stop-color="#00A3FF"/>
</linearGradient>
<linearGradient id="paint6_linear_134_1271" x1="329.656" y1="140.763" x2="338.316" y2="123.499" gradientUnits="userSpaceOnUse">
<stop stop-color="#0044FF"/>
<stop offset="1" stop-color="#00A3FF"/>
</linearGradient>
<linearGradient id="paint7_linear_134_1271" x1="523.995" y1="120.379" x2="505.373" y2="101.757" gradientUnits="userSpaceOnUse">
<stop stop-color="#0044FF"/>
<stop offset="1" stop-color="#00A3FF"/>
</linearGradient>
<linearGradient id="paint8_linear_134_1271" x1="390.19" y1="15.1511" x2="408.812" y2="33.7731" gradientUnits="userSpaceOnUse">
<stop stop-color="#0044FF"/>
<stop offset="1" stop-color="#00A3FF"/>
</linearGradient>
<linearGradient id="paint9_linear_134_1271" x1="451.454" y1="134.097" x2="461.2" y2="145.99" gradientUnits="userSpaceOnUse">
<stop stop-color="#0044FF"/>
<stop offset="1" stop-color="#00A3FF"/>
</linearGradient>
<linearGradient id="paint10_linear_134_1271" x1="484.216" y1="31.0464" x2="469.469" y2="26.6912" gradientUnits="userSpaceOnUse">
<stop stop-color="#0044FF"/>
<stop offset="1" stop-color="#00A3FF"/>
</linearGradient>
<linearGradient id="paint11_linear_134_1271" x1="443.331" y1="118.179" x2="437.691" y2="52.3453" gradientUnits="userSpaceOnUse">
<stop stop-color="#0044FF"/>
<stop offset="1" stop-color="#00A3FF"/>
</linearGradient>
<linearGradient id="paint12_linear_134_1271" x1="279.328" y1="69" x2="279.328" y2="103" gradientUnits="userSpaceOnUse">
<stop stop-color="#0044FF"/>
<stop offset="1" stop-color="#00A3FF"/>
</linearGradient>
</defs>
</svg>
