<svg width="1430" height="1199" viewBox="0 0 1430 1199" fill="none" xmlns="http://www.w3.org/2000/svg">
<path opacity="0.01" fill-rule="evenodd" clip-rule="evenodd" d="M1002.34 552.204C1022.79 677.226 1126.37 822.977 1045.7 920.477C967.458 1015.05 809.794 917.846 688.399 931.66C575.601 944.496 471.592 1030.36 362.763 998.191C246.569 963.841 151.604 868.687 100.949 757.997C51.2845 649.469 54.2423 521.351 92.7419 408.137C127.536 305.821 222.423 244.722 300.704 170.587C376.054 99.2275 436.979 -13.3508 540.306 -15.7228C643.821 -18.0991 708.252 93.1305 788.021 159.4C848.1 209.311 910.444 254.193 947.948 322.93C986.451 393.499 989.34 472.719 1002.34 552.204Z" stroke="url(#paint0_linear_16_195)" stroke-width="3"/>
<path opacity="0.02" fill-rule="evenodd" clip-rule="evenodd" d="M1007.8 548.692C1030.36 672.922 1136.11 816.362 1057.42 914.924C981.09 1010.52 822.279 916.404 701.544 932.281C589.358 947.033 487.202 1034.41 378.189 1004.24C261.798 972.032 165.505 878.861 113.099 769.438C61.717 662.153 62.4352 534.432 98.8319 420.945C131.725 318.382 225.222 255.846 301.943 180.608C375.791 108.189 434.547 -5.05555 537.475 -9.21583C640.592 -13.3837 706.737 96.3368 787.384 160.987C848.124 209.679 911.033 253.321 949.604 321.166C989.203 390.819 993.459 469.711 1007.8 548.692Z" stroke="url(#paint1_linear_16_195)" stroke-width="3"/>
<path opacity="0.03" fill-rule="evenodd" clip-rule="evenodd" d="M1013.14 545.105C1037.78 668.507 1145.66 809.606 1068.96 909.19C994.557 1005.78 834.658 914.754 714.617 932.674C603.076 949.325 502.794 1038.17 393.634 1010C277.085 979.932 179.504 888.763 125.375 780.635C72.3045 674.619 70.7978 547.334 105.094 433.611C136.088 330.836 228.174 266.894 303.32 190.586C375.652 117.136 432.234 3.26742 534.734 -2.66801C637.422 -8.61431 705.246 99.5713 786.739 162.593C848.116 210.058 911.567 252.453 951.185 319.389C991.859 388.109 997.473 466.65 1013.14 545.105Z" stroke="url(#paint2_linear_16_195)" stroke-width="3"/>
<path opacity="0.04" fill-rule="evenodd" clip-rule="evenodd" d="M1018.36 541.447C1045.06 663.986 1155.02 802.712 1080.31 903.28C1007.85 1000.83 846.926 912.898 727.614 932.843C616.75 951.375 518.362 1041.65 409.091 1015.48C292.423 987.542 193.595 898.391 137.773 791.585C83.0415 686.865 79.3254 560.053 111.524 446.135C140.622 343.182 231.275 277.863 304.833 200.517C375.636 126.068 430.041 11.6161 532.081 3.91923C634.309 -3.79176 703.78 102.834 786.087 164.217C848.076 210.447 912.045 251.59 952.69 317.602C994.418 385.372 1001.38 463.54 1018.36 541.447Z" stroke="url(#paint3_linear_16_195)" stroke-width="3"/>
<path opacity="0.05" fill-rule="evenodd" clip-rule="evenodd" d="M1023.45 537.718C1052.19 659.36 1164.18 795.685 1091.49 897.196C1020.98 995.658 859.082 910.84 740.532 932.788C630.376 953.183 533.902 1044.85 424.556 1020.68C307.808 994.863 207.773 907.744 150.287 802.286C93.9247 698.887 88.0152 572.588 118.119 458.512C145.326 355.416 234.526 288.752 306.482 210.4C375.743 134.982 427.967 19.988 529.518 10.5438C631.255 1.08241 702.34 106.124 785.428 165.858C848.006 210.848 912.467 250.733 954.119 315.805C996.881 382.611 1005.18 460.381 1023.45 537.718Z" stroke="url(#paint4_linear_16_195)" stroke-width="3"/>
<path opacity="0.06" fill-rule="evenodd" clip-rule="evenodd" d="M1028.42 533.922C1059.18 654.634 1173.15 788.528 1102.48 890.944C1033.93 990.283 871.119 908.581 753.365 932.514C643.949 954.752 549.407 1047.77 440.022 1025.58C323.233 1001.89 222.032 916.823 162.913 812.737C104.948 710.685 96.862 584.936 124.876 470.74C150.194 367.536 237.923 299.557 308.264 220.231C375.972 143.876 426.012 28.3812 527.044 17.2046C628.261 6.00743 700.925 109.441 784.762 167.519C847.904 211.261 912.834 249.884 955.472 314.001C999.247 379.827 1008.87 457.177 1028.42 533.922Z" stroke="url(#paint5_linear_16_195)" stroke-width="3"/>
<path opacity="0.07" fill-rule="evenodd" clip-rule="evenodd" d="M1033.27 530.062C1066.02 649.81 1181.92 781.247 1113.27 884.528C1046.69 984.707 883.034 906.125 766.109 932.021C657.464 956.083 564.871 1050.42 455.483 1030.21C338.692 1008.63 236.365 925.626 175.643 822.939C116.106 722.257 105.86 597.095 131.79 482.818C155.223 379.541 241.463 310.277 310.177 230.01C376.319 152.749 424.175 36.7938 524.658 23.8999C625.326 10.9823 699.534 112.784 784.088 169.198C847.769 211.687 913.144 249.043 956.748 312.191C1001.51 377.022 1012.45 453.93 1033.27 530.062Z" stroke="url(#paint6_linear_16_195)" stroke-width="3"/>
<path opacity="0.08" fill-rule="evenodd" clip-rule="evenodd" d="M1037.99 526.141C1072.71 644.892 1190.49 773.845 1123.88 877.952C1059.27 978.931 894.824 903.476 778.761 931.313C670.916 957.178 580.289 1052.79 470.935 1034.55C354.179 1015.09 250.768 934.154 188.473 832.888C127.394 733.601 115.007 609.064 138.858 494.743C160.412 391.426 245.143 320.91 312.22 239.734C376.785 161.597 422.456 45.2235 522.362 30.628C622.451 16.0058 698.169 116.154 783.406 170.897C847.603 212.126 913.397 248.213 957.947 310.377C1003.68 374.198 1015.92 450.642 1037.99 526.141Z" stroke="url(#paint7_linear_16_195)" stroke-width="3"/>
<path opacity="0.09" fill-rule="evenodd" clip-rule="evenodd" d="M1042.58 522.16C1079.24 639.883 1198.85 766.326 1134.29 871.219C1071.67 972.961 906.485 900.636 791.315 930.392C684.301 958.04 595.657 1054.88 486.372 1038.62C369.689 1021.25 265.235 942.405 201.398 842.585C138.808 744.716 124.298 620.839 146.076 506.512C165.757 403.19 248.963 331.452 314.391 249.4C377.369 170.42 420.855 53.6682 520.154 37.3873C619.636 21.0766 696.829 119.55 782.718 172.614C847.405 212.58 913.595 247.393 959.069 308.56C1005.75 371.358 1019.27 447.316 1042.58 522.16Z" stroke="url(#paint8_linear_16_195)" stroke-width="3"/>
<path opacity="0.1" fill-rule="evenodd" clip-rule="evenodd" d="M1047.05 518.124C1085.62 634.787 1207.01 758.695 1144.5 864.335C1083.87 966.801 918.014 897.609 803.769 929.26C697.614 958.671 610.969 1056.71 501.787 1042.4C385.215 1027.13 279.76 950.38 214.412 852.029C150.341 755.599 133.729 632.419 153.441 518.124C171.255 414.83 252.919 341.903 316.688 259.007C378.07 179.215 419.37 62.1259 518.035 44.1764C616.881 26.194 695.514 122.972 782.022 174.352C847.175 213.049 913.737 246.586 960.113 306.742C1007.73 368.502 1022.52 443.953 1047.05 518.124Z" stroke="url(#paint9_linear_16_195)" stroke-width="3"/>
<path opacity="0.11" fill-rule="evenodd" clip-rule="evenodd" d="M1051.38 514.034C1091.85 629.606 1214.96 750.957 1154.51 857.304C1095.87 960.455 929.406 894.396 816.117 927.921C710.851 959.073 626.218 1058.26 517.175 1045.91C400.752 1032.71 294.336 958.08 227.51 861.219C161.989 766.251 143.293 643.803 160.948 529.576C176.902 426.345 257.007 352.259 319.109 268.553C378.885 187.981 418.002 70.5946 516.005 50.9936C614.187 31.3567 694.223 126.418 781.318 176.109C846.913 213.533 913.821 245.792 961.08 304.925C1009.6 365.635 1025.65 440.556 1051.38 514.034Z" stroke="url(#paint10_linear_16_195)" stroke-width="3"/>
<path opacity="0.12" fill-rule="evenodd" clip-rule="evenodd" d="M1055.58 509.893C1097.92 624.343 1222.7 743.115 1164.31 850.129C1107.68 953.928 940.659 891.003 828.357 926.378C724.008 959.247 641.402 1059.55 532.532 1049.14C416.294 1038.02 308.959 965.503 240.686 870.154C173.747 776.668 152.989 654.988 168.594 540.867C182.696 437.731 261.228 362.52 321.652 278.035C379.814 196.715 416.75 79.0721 514.063 57.8373C611.554 36.5636 692.958 129.89 780.607 177.886C846.619 214.034 913.85 245.012 961.969 303.11C1011.37 362.757 1028.67 437.128 1055.58 509.893Z" stroke="url(#paint11_linear_16_195)" stroke-width="3"/>
<path opacity="0.13" fill-rule="evenodd" clip-rule="evenodd" d="M1059.65 505.704C1103.83 619.004 1230.23 735.174 1173.91 842.816C1119.29 947.224 951.768 887.433 840.483 924.632C737.078 959.198 656.512 1060.58 547.85 1052.09C431.833 1043.03 323.621 972.65 253.935 878.835C185.609 786.852 162.809 665.974 176.373 551.995C188.632 448.987 265.575 372.683 324.314 287.453C380.854 205.416 415.612 87.5569 512.208 64.7064C608.98 41.814 691.717 133.386 779.887 179.683C846.292 214.553 913.821 244.249 962.778 301.299C1013.04 359.87 1031.57 433.672 1059.65 505.704Z" stroke="url(#paint12_linear_16_195)" stroke-width="3"/>
<path opacity="0.14" fill-rule="evenodd" clip-rule="evenodd" d="M1063.59 501.47C1109.58 613.589 1237.55 727.139 1183.31 835.369C1130.69 940.347 962.732 883.687 852.493 922.688C750.06 958.926 671.545 1061.34 563.125 1054.78C447.367 1047.77 338.319 979.522 267.251 887.26C197.571 796.8 172.751 676.758 184.284 562.957C194.708 460.111 270.048 382.745 327.095 296.804C382.005 214.081 414.59 96.0465 510.442 71.5987C606.469 47.1062 690.501 136.906 779.16 181.501C845.934 215.089 913.737 243.502 963.51 299.494C1014.61 356.978 1034.36 430.188 1063.59 501.47Z" stroke="url(#paint13_linear_16_195)" stroke-width="3"/>
<path opacity="0.15" fill-rule="evenodd" clip-rule="evenodd" d="M1067.4 497.194C1115.17 608.104 1244.65 719.014 1192.49 827.792C1141.89 933.303 973.546 879.772 864.382 920.547C762.947 958.436 686.495 1061.84 578.352 1057.19C462.889 1052.22 353.046 986.119 280.629 895.429C209.627 806.512 182.809 687.34 192.322 573.753C200.92 471.101 274.644 392.707 329.991 306.087C383.265 222.71 413.68 104.539 508.762 78.5135C604.018 52.4398 689.31 140.45 778.425 183.341C845.542 215.644 913.596 242.774 964.164 297.696C1016.08 354.081 1037.03 426.681 1067.4 497.194Z" stroke="url(#paint14_linear_16_195)" stroke-width="3"/>
<path opacity="0.16" fill-rule="evenodd" clip-rule="evenodd" d="M1071.07 492.879C1120.6 602.552 1251.54 710.803 1201.45 820.091C1152.87 926.095 984.208 875.689 876.147 918.214C775.737 957.728 701.359 1062.08 593.525 1059.33C478.392 1056.39 367.797 992.441 294.065 903.343C221.773 815.987 192.979 697.717 200.484 584.381C207.266 481.955 279.36 402.565 333.002 315.299C384.634 231.301 412.885 113.034 507.171 85.4488C601.63 57.8134 688.144 144.018 777.683 185.201C845.119 216.218 913.399 242.066 964.739 295.906C1017.45 351.182 1039.58 423.152 1071.07 492.879Z" stroke="url(#paint15_linear_16_195)" stroke-width="3"/>
<path opacity="0.17" fill-rule="evenodd" clip-rule="evenodd" d="M1074.61 488.527C1125.86 596.935 1258.21 702.511 1210.21 812.269C1163.64 918.729 994.714 871.442 887.783 915.691C788.424 956.807 716.13 1062.07 608.638 1061.21C493.871 1060.28 382.565 998.489 307.551 911.002C234.002 825.224 203.256 707.889 208.763 594.839C213.74 492.671 284.193 412.318 336.123 324.44C386.108 239.852 412.2 121.527 505.665 92.4033C599.302 63.2261 687.001 147.609 776.932 187.083C844.663 216.813 913.145 241.378 965.235 294.128C1018.71 348.283 1042.02 419.604 1074.61 488.527Z" stroke="url(#paint16_linear_16_195)" stroke-width="3"/>
<path opacity="0.18" fill-rule="evenodd" clip-rule="evenodd" d="M1078.01 484.141C1130.96 591.259 1264.66 694.142 1218.74 804.331C1174.2 911.21 1005.06 867.036 899.289 912.982C801.006 955.675 730.804 1061.81 623.689 1062.82C509.322 1063.89 397.347 1004.26 321.084 918.405C246.312 834.222 213.638 717.855 217.159 605.125C220.342 503.247 289.142 421.965 339.355 333.507C387.688 248.361 411.629 130.018 504.248 99.3755C597.036 68.6767 685.884 151.223 776.174 188.987C844.176 217.429 912.836 240.712 965.654 292.361C1019.88 345.387 1044.34 416.039 1078.01 484.141Z" stroke="url(#paint17_linear_16_195)" stroke-width="3"/>
<path opacity="0.19" fill-rule="evenodd" clip-rule="evenodd" d="M1081.27 479.725C1135.89 585.525 1270.9 685.702 1227.06 796.283C1184.54 903.541 1015.25 862.473 910.66 910.09C813.477 954.336 745.377 1061.3 638.669 1064.17C524.738 1067.22 412.134 1009.77 334.657 925.553C258.694 842.982 224.117 727.614 225.666 615.24C227.065 513.682 294.202 431.504 342.694 342.499C389.371 256.827 411.167 138.505 502.916 106.364C594.832 74.1646 684.791 154.86 775.408 190.913C843.657 218.067 912.471 240.069 965.994 290.609C1020.94 342.495 1046.54 412.46 1081.27 479.725Z" stroke="url(#paint18_linear_16_195)" stroke-width="3"/>
<path opacity="0.2" fill-rule="evenodd" clip-rule="evenodd" d="M1084.4 475.28C1140.66 579.738 1276.91 677.195 1235.16 788.128C1194.65 895.728 1025.27 857.758 921.892 907.018C825.834 952.79 759.842 1060.54 653.575 1065.25C540.114 1070.28 426.924 1015 348.267 932.445C271.146 851.503 234.69 737.164 234.28 625.179C233.909 523.975 299.371 440.933 346.139 351.414C391.156 265.248 410.815 146.986 501.67 113.368C592.69 79.6881 683.722 158.519 774.635 192.862C843.106 218.728 912.051 239.451 966.257 288.871C1021.91 339.609 1048.63 408.87 1084.4 475.28Z" stroke="url(#paint19_linear_16_195)" stroke-width="3"/>
<path opacity="0.21" fill-rule="evenodd" clip-rule="evenodd" d="M1087.39 470.811C1145.26 573.901 1282.7 668.624 1243.03 779.871C1204.55 887.775 1035.13 852.894 932.983 903.769C838.073 951.043 774.196 1059.54 668.401 1066.09C555.445 1073.07 441.709 1019.96 361.905 939.083C283.661 859.784 245.351 746.505 242.996 634.944C240.868 534.122 304.647 450.251 349.687 360.251C393.041 273.622 410.573 155.458 500.509 120.385C590.61 85.2466 682.678 162.2 773.853 194.833C842.523 219.412 911.575 238.858 966.44 287.151C1022.77 336.732 1050.6 405.27 1087.39 470.811Z" stroke="url(#paint20_linear_16_195)" stroke-width="3"/>
<path opacity="0.22" fill-rule="evenodd" clip-rule="evenodd" d="M1090.24 466.32C1149.69 568.018 1288.27 659.995 1250.68 771.517C1214.22 879.688 1044.81 847.885 943.929 900.348C850.191 949.097 788.435 1058.3 683.143 1066.66C570.724 1075.59 456.485 1024.66 375.57 945.467C296.235 867.825 256.098 755.636 251.813 644.533C247.94 544.125 310.026 459.456 353.336 369.009C395.025 281.95 410.438 163.922 499.433 127.414C588.592 90.8392 681.658 165.903 773.065 196.828C841.908 220.12 911.044 238.292 966.547 285.45C1023.53 333.865 1052.45 401.663 1090.24 466.32Z" stroke="url(#paint21_linear_16_195)" stroke-width="3"/>
<path opacity="0.23" fill-rule="evenodd" clip-rule="evenodd" d="M1092.95 461.809C1153.95 562.092 1293.62 651.314 1258.1 763.072C1223.65 871.472 1054.32 842.736 954.727 896.758C862.182 946.955 802.553 1056.83 697.795 1066.99C585.947 1077.83 471.245 1029.08 389.253 951.598C308.863 875.628 266.924 764.557 260.724 653.945C255.12 553.98 315.505 468.549 357.084 377.687C397.105 290.228 410.41 172.374 498.442 134.454C586.635 96.4651 680.662 169.628 772.268 198.847C841.261 220.853 910.457 237.754 966.574 283.77C1024.19 331.012 1054.18 398.053 1092.95 461.809Z" stroke="url(#paint22_linear_16_195)" stroke-width="3"/>
<path opacity="0.24" fill-rule="evenodd" clip-rule="evenodd" d="M1095.53 457.282C1158.04 556.126 1298.75 642.582 1265.3 754.538C1232.86 863.131 1063.66 837.449 965.374 893.002C874.045 944.62 816.546 1055.12 712.354 1067.06C601.109 1079.81 485.985 1033.24 402.951 957.476C321.539 883.19 277.825 773.267 269.726 663.178C262.407 563.687 321.083 477.526 360.928 386.282C399.281 298.455 410.489 180.813 497.535 141.504C584.741 102.122 679.69 173.374 771.464 200.889C840.584 221.612 909.816 237.245 966.525 282.112C1024.75 328.174 1055.79 394.44 1095.53 457.282Z" stroke="url(#paint23_linear_16_195)" stroke-width="3"/>
<path opacity="0.25" fill-rule="evenodd" clip-rule="evenodd" d="M1097.97 452.743C1161.96 550.126 1303.65 633.807 1272.27 745.923C1241.84 854.67 1072.82 832.03 975.867 889.084C885.775 942.097 830.41 1053.18 726.814 1066.89C616.205 1081.53 500.7 1037.14 416.659 963.103C334.259 890.514 288.799 781.766 278.816 672.234C269.795 573.245 326.756 486.387 364.867 394.794C401.551 306.631 410.673 189.237 496.712 148.562C582.909 107.811 678.742 177.142 770.653 202.956C839.875 222.398 909.122 236.767 966.399 280.478C1025.2 325.353 1057.28 390.829 1097.97 452.743Z" stroke="url(#paint24_linear_16_195)" stroke-width="3"/>
<path opacity="0.26" fill-rule="evenodd" clip-rule="evenodd" d="M1100.27 448.192C1165.72 544.093 1308.32 624.992 1279.01 737.23C1250.59 846.095 1081.81 826.482 986.202 885.007C897.368 939.388 844.14 1051.01 741.169 1066.48C631.228 1082.99 515.384 1040.77 430.37 968.478C347.017 897.598 299.837 790.053 287.989 681.109C277.281 582.651 332.52 495.131 368.897 403.222C403.912 314.754 410.96 197.645 495.971 155.626C581.138 113.53 677.818 180.931 769.833 205.047C839.135 223.211 908.372 236.321 966.195 278.869C1025.56 322.551 1058.65 387.221 1100.27 448.192Z" stroke="url(#paint25_linear_16_195)" stroke-width="3"/>
<path opacity="0.27" fill-rule="evenodd" clip-rule="evenodd" d="M1102.42 443.634C1169.29 538.032 1312.77 616.142 1285.52 728.463C1259.09 837.41 1090.61 820.809 996.378 880.776C908.822 936.496 857.733 1048.62 755.417 1065.82C646.175 1084.18 530.032 1044.14 444.081 973.604C359.809 904.444 310.937 798.128 297.241 689.804C284.863 591.907 338.374 503.757 373.018 411.564C406.364 322.822 411.351 206.036 495.313 162.697C579.429 119.278 676.918 184.74 769.007 207.164C838.365 224.052 907.57 235.907 965.915 277.287C1025.81 319.77 1059.91 383.619 1102.42 443.634Z" stroke="url(#paint26_linear_16_195)" stroke-width="3"/>
<path opacity="0.28" fill-rule="evenodd" clip-rule="evenodd" d="M1104.44 439.072C1172.7 531.947 1317 607.261 1291.8 719.629C1267.37 828.621 1099.22 815.016 1006.39 876.394C920.133 933.426 871.185 1046.02 769.553 1064.93C661.041 1085.12 544.639 1047.26 457.786 978.481C372.63 911.051 322.095 805.991 306.568 698.318C292.536 601.009 344.314 512.264 377.226 419.819C408.906 330.835 411.845 214.407 494.738 169.772C577.783 125.054 676.042 188.57 768.174 209.305C837.564 224.922 906.715 235.528 965.559 275.735C1025.97 317.013 1061.05 380.026 1104.44 439.072Z" stroke="url(#paint27_linear_16_195)" stroke-width="3"/>
<path opacity="0.29" fill-rule="evenodd" clip-rule="evenodd" d="M1106.33 434.509C1175.94 525.84 1321 598.355 1297.85 710.732C1275.4 819.732 1107.66 809.106 1016.24 871.865C931.298 930.181 884.491 1043.19 783.571 1063.8C675.82 1085.8 559.2 1050.11 471.48 983.111C385.474 917.421 333.305 813.642 315.967 706.651C300.297 609.958 350.338 520.652 381.52 427.987C411.534 338.792 412.439 222.757 494.244 176.85C576.198 130.858 675.189 192.421 767.334 211.473C836.733 225.823 905.807 235.184 965.127 274.213C1026.03 314.282 1062.07 376.443 1106.33 434.509Z" stroke="url(#paint28_linear_16_195)" stroke-width="3"/>
<path opacity="0.3" fill-rule="evenodd" clip-rule="evenodd" d="M1108.07 429.946C1179 519.715 1324.77 589.427 1303.66 701.776C1283.19 810.749 1115.9 803.084 1025.92 867.193C942.313 926.763 897.646 1040.16 797.467 1062.44C690.507 1086.24 573.709 1052.71 485.158 987.495C398.337 923.554 344.563 821.081 325.432 714.802C308.142 618.753 356.442 528.918 385.896 436.065C414.247 346.69 413.133 231.085 493.83 183.929C574.675 136.688 674.36 196.291 766.486 213.667C835.871 226.753 904.846 234.876 964.619 272.723C1025.99 311.578 1062.97 372.873 1108.07 429.946Z" stroke="url(#paint29_linear_16_195)" stroke-width="3"/>
<path opacity="0.31" fill-rule="evenodd" clip-rule="evenodd" d="M1109.67 425.388C1181.9 513.577 1328.32 580.484 1309.24 692.768C1290.74 801.678 1123.95 796.953 1035.43 862.383C953.176 923.179 910.648 1036.91 811.237 1060.86C705.097 1086.42 588.162 1055.06 498.815 991.634C411.214 929.451 355.865 828.308 334.96 722.771C316.068 627.393 362.624 537.062 390.352 444.055C417.043 354.53 413.926 239.389 493.497 191.01C573.213 142.543 673.554 200.182 765.631 215.887C834.98 227.715 903.833 234.606 964.037 271.267C1025.84 308.905 1063.75 369.32 1109.67 425.388Z" stroke="url(#paint30_linear_16_195)" stroke-width="3"/>
<path opacity="0.32" fill-rule="evenodd" clip-rule="evenodd" d="M1111.13 420.837C1184.61 507.428 1331.64 571.528 1314.59 683.71C1298.05 792.522 1131.81 790.719 1044.77 857.437C963.883 919.43 923.493 1033.46 824.878 1059.05C719.587 1086.36 602.554 1057.15 512.447 995.531C424.1 935.112 367.206 835.323 344.548 730.558C324.071 635.877 368.88 545.085 394.888 451.953C419.921 362.31 414.816 247.668 493.243 198.091C571.813 148.423 672.772 204.093 764.77 218.134C834.059 228.709 902.769 234.375 963.379 269.847C1025.6 306.263 1064.42 365.785 1111.13 420.837Z" stroke="url(#paint31_linear_16_195)" stroke-width="3"/>
<path opacity="0.33" fill-rule="evenodd" clip-rule="evenodd" d="M1112.46 416.297C1187.16 501.273 1334.74 562.565 1319.7 674.609C1305.11 783.287 1139.48 784.385 1053.93 852.36C974.432 915.521 936.178 1029.82 838.385 1057.02C733.972 1086.06 616.88 1059 526.048 999.185C436.991 940.539 378.582 842.127 354.191 738.162C332.149 644.204 375.209 552.984 399.499 459.761C422.88 370.029 415.804 255.92 493.069 205.17C570.475 154.327 672.014 208.023 763.903 220.408C833.11 229.737 901.655 234.185 962.649 268.463C1025.27 303.655 1064.96 362.271 1112.46 416.297Z" stroke="url(#paint32_linear_16_195)" stroke-width="3"/>
<path opacity="0.34" fill-rule="evenodd" clip-rule="evenodd" d="M1113.65 411.77C1189.54 495.115 1337.61 553.599 1324.57 665.47C1311.93 773.979 1146.96 777.957 1062.91 847.156C984.82 911.456 948.698 1025.97 851.753 1054.77C748.247 1085.52 631.135 1060.6 539.614 1002.6C449.881 945.732 389.988 848.721 363.886 745.584C340.296 652.375 381.607 560.76 404.185 467.476C425.917 377.686 416.886 264.144 492.973 212.246C569.198 160.253 671.278 211.973 763.03 222.711C832.132 230.798 900.491 234.035 961.845 267.119C1024.83 301.084 1065.4 358.781 1113.65 411.77Z" stroke="url(#paint33_linear_16_195)" stroke-width="3"/>
<path opacity="0.35" fill-rule="evenodd" clip-rule="evenodd" d="M1114.69 407.258C1191.74 488.957 1340.26 544.636 1329.21 656.297C1318.5 764.603 1154.24 771.437 1071.72 841.83C995.043 907.238 961.049 1021.94 864.979 1052.31C762.407 1084.74 645.315 1061.96 553.14 1005.78C462.766 950.694 401.419 855.103 373.627 752.824C348.51 660.389 388.07 568.412 408.941 475.099C429.03 385.281 418.063 272.339 492.954 219.319C567.982 166.202 670.566 215.943 762.15 225.041C831.126 231.894 899.276 233.928 960.968 265.814C1024.3 298.551 1065.71 355.317 1114.69 407.258Z" stroke="url(#paint34_linear_16_195)" stroke-width="3"/>
<path opacity="0.36" fill-rule="evenodd" clip-rule="evenodd" d="M1115.6 402.766C1193.77 482.804 1342.68 535.678 1333.62 647.095C1324.83 755.164 1161.32 764.831 1080.34 836.385C1005.1 902.872 973.229 1017.71 878.059 1049.64C776.447 1083.73 659.413 1063.08 566.621 1008.72C475.64 955.425 412.871 861.276 383.411 759.88C356.787 668.245 394.596 575.939 413.766 482.629C432.218 392.812 419.331 280.503 493.012 226.387C566.827 172.171 669.877 219.931 761.263 227.4C830.091 233.025 898.013 233.865 960.019 264.552C1023.68 296.057 1065.91 351.88 1115.6 402.766Z" stroke="url(#paint35_linear_16_195)" stroke-width="3"/>
<path opacity="0.37" fill-rule="evenodd" clip-rule="evenodd" d="M1116.38 398.295C1195.63 476.658 1344.88 526.732 1337.79 637.869C1330.91 745.666 1168.2 758.142 1088.78 830.825C1014.99 898.361 985.235 1013.31 890.989 1046.76C790.365 1082.49 673.428 1063.96 580.053 1011.43C488.501 959.926 424.342 867.24 393.236 766.755C365.124 675.943 401.183 583.342 418.658 490.064C435.479 400.279 420.693 288.635 493.147 233.449C565.733 178.161 669.211 223.939 760.372 229.787C829.029 234.192 896.701 233.846 958.999 263.333C1022.96 293.606 1065.99 348.475 1116.38 398.295Z" stroke="url(#paint36_linear_16_195)" stroke-width="3"/>
<path opacity="0.38" fill-rule="evenodd" clip-rule="evenodd" d="M1117.02 393.85C1197.32 470.524 1346.85 517.802 1341.72 628.624C1336.74 736.116 1174.89 751.376 1097.04 825.155C1024.7 893.71 997.063 1008.72 903.766 1043.69C804.155 1081.02 687.354 1064.6 593.431 1013.9C501.343 964.199 435.825 872.995 403.096 773.448C373.517 683.484 407.828 590.62 423.615 497.405C438.811 407.681 422.144 296.735 493.357 240.504C564.7 184.17 668.569 227.967 759.474 232.204C827.94 235.396 895.342 233.873 957.908 262.16C1022.14 291.2 1065.96 345.103 1117.02 393.85Z" stroke="url(#paint37_linear_16_195)" stroke-width="3"/>
<path opacity="0.39" fill-rule="evenodd" clip-rule="evenodd" d="M1117.52 389.432C1198.84 464.404 1348.6 508.892 1345.41 619.365C1342.32 726.519 1181.37 744.536 1105.11 819.379C1034.24 888.922 1008.71 1003.96 916.386 1040.41C817.813 1079.33 701.185 1065.01 606.75 1016.15C514.161 968.245 447.316 878.543 412.987 779.96C381.963 690.866 414.527 597.771 428.634 504.65C442.213 415.017 423.685 304.8 493.642 247.551C563.727 190.198 667.949 232.013 758.572 234.651C826.825 236.638 893.936 233.948 956.748 261.033C1021.23 288.84 1065.82 341.767 1117.52 389.432Z" stroke="url(#paint38_linear_16_195)" stroke-width="3"/>
<path opacity="0.4" fill-rule="evenodd" clip-rule="evenodd" d="M1117.88 385.044C1200.18 458.303 1350.13 500.007 1348.87 610.097C1347.65 716.879 1187.65 737.628 1112.98 813.502C1043.61 884.003 1020.17 999.028 928.845 1036.94C831.336 1077.43 714.918 1065.19 620.007 1018.17C526.95 972.066 458.812 883.884 422.906 786.29C390.457 698.09 421.277 604.798 433.712 511.801C445.681 422.286 425.313 312.829 494.001 254.59C562.815 196.244 667.352 236.078 757.664 237.128C825.683 237.918 892.483 234.07 955.518 259.954C1020.23 286.528 1065.56 338.468 1117.88 385.044Z" stroke="url(#paint39_linear_16_195)" stroke-width="3"/>
<path opacity="0.41" fill-rule="evenodd" clip-rule="evenodd" d="M1118.12 380.69C1201.36 452.224 1351.44 491.151 1352.1 600.825C1352.74 707.203 1193.72 730.655 1120.67 807.527C1052.8 878.955 1031.45 993.931 941.139 1033.29C844.719 1075.3 728.548 1065.14 633.196 1019.96C539.707 975.664 470.307 889.02 432.85 792.439C398.998 705.156 428.076 611.698 438.848 518.855C449.216 429.489 427.028 320.822 494.434 261.619C561.963 202.307 666.778 240.162 756.751 239.635C824.515 239.238 890.984 234.242 954.219 258.925C1019.14 284.267 1065.19 335.211 1118.12 380.69Z" stroke="url(#paint40_linear_16_195)" stroke-width="3"/>
<path opacity="0.42" fill-rule="evenodd" clip-rule="evenodd" d="M1118.21 376.372C1202.37 446.171 1352.53 482.328 1355.09 591.553C1357.57 697.495 1199.6 723.622 1128.17 801.458C1061.8 873.783 1042.53 988.671 953.267 1029.44C857.958 1072.97 742.072 1064.87 646.314 1021.53C552.427 979.041 481.799 893.951 442.813 798.409C407.58 712.063 434.921 618.473 444.039 525.813C452.814 436.623 428.829 328.777 494.939 268.637C561.17 208.386 666.227 244.265 755.834 242.173C823.322 240.598 889.441 234.464 952.854 257.948C1017.96 282.057 1064.71 331.996 1118.21 376.372Z" stroke="url(#paint41_linear_16_195)" stroke-width="3"/>
<path opacity="0.43" fill-rule="evenodd" clip-rule="evenodd" d="M1118.18 372.093C1203.21 440.147 1353.4 473.544 1357.85 582.286C1362.16 687.76 1205.26 716.534 1135.47 795.302C1070.62 868.492 1053.43 983.255 965.224 1025.42C871.05 1070.43 755.486 1064.39 659.357 1022.89C565.106 982.198 493.282 898.679 452.793 804.199C416.202 718.813 441.81 625.122 449.283 532.675C456.475 443.69 430.713 336.694 495.516 275.643C560.438 214.481 665.7 248.386 754.913 244.743C822.105 241.999 887.854 234.738 951.422 257.023C1016.68 279.902 1064.12 328.827 1118.18 372.093Z" stroke="url(#paint42_linear_16_195)" stroke-width="3"/>
<path opacity="0.44" fill-rule="evenodd" clip-rule="evenodd" d="M1118.01 367.856C1203.89 434.155 1354.05 464.803 1360.37 573.029C1366.49 678.004 1210.72 709.394 1142.58 789.06C1079.26 863.086 1064.13 977.686 977.007 1021.21C883.991 1067.69 768.784 1063.68 672.319 1024.02C577.739 985.137 504.752 903.205 462.786 809.81C424.859 725.405 448.739 631.645 454.577 539.44C460.196 450.687 432.68 344.571 496.165 282.637C559.765 220.59 665.194 252.526 753.988 247.344C820.863 243.44 886.223 235.064 949.923 256.153C1015.32 277.803 1063.41 325.705 1118.01 367.856Z" stroke="url(#paint43_linear_16_195)" stroke-width="3"/>
<path opacity="0.45" fill-rule="evenodd" clip-rule="evenodd" d="M1117.71 363.663C1204.39 428.199 1354.49 456.108 1362.66 563.788C1370.58 668.232 1215.98 702.208 1149.49 782.739C1087.71 857.569 1074.63 971.97 988.613 1016.84C896.777 1064.75 781.963 1062.76 685.197 1024.94C590.322 987.861 516.206 907.531 472.788 815.243C433.548 731.84 455.704 638.042 459.919 546.108C463.975 457.616 434.728 352.407 496.883 289.618C559.151 226.714 664.711 256.685 753.058 249.977C819.597 244.925 884.55 235.445 948.36 255.339C1013.87 275.763 1062.6 322.634 1117.71 363.663Z" stroke="url(#paint44_linear_16_195)" stroke-width="3"/>
<path opacity="0.46" fill-rule="evenodd" clip-rule="evenodd" d="M1117.28 359.518C1204.73 422.283 1354.71 447.465 1364.71 554.566C1374.41 658.449 1221.03 694.98 1156.21 776.343C1095.98 851.944 1084.93 966.11 1000.04 1012.3C909.405 1061.61 795.019 1061.63 697.987 1025.65C602.851 990.371 527.64 911.657 482.795 820.5C442.266 738.117 462.705 644.314 465.307 552.679C467.812 464.475 436.857 360.201 497.671 296.584C558.597 232.851 664.252 260.862 752.126 252.643C818.309 246.452 882.835 235.879 946.734 254.581C1012.34 273.782 1061.68 319.614 1117.28 359.518Z" stroke="url(#paint45_linear_16_195)" stroke-width="3"/>
<path opacity="0.47" fill-rule="evenodd" clip-rule="evenodd" d="M1116.72 355.423C1204.91 416.409 1354.72 438.877 1366.54 545.369C1378 648.661 1225.87 687.714 1162.73 769.875C1104.05 846.218 1095.03 960.112 1011.28 1007.59C921.871 1058.28 807.948 1060.29 710.685 1026.15C615.321 992.669 539.049 915.585 492.803 825.58C451.009 744.238 469.738 650.461 470.739 559.152C471.703 471.263 439.063 367.953 498.528 303.535C558.101 239 663.814 265.058 751.19 255.341C816.998 248.024 881.079 236.37 945.044 253.883C1010.71 271.863 1060.66 316.65 1116.72 355.423Z" stroke="url(#paint46_linear_16_195)" stroke-width="3"/>
<path opacity="0.48" fill-rule="evenodd" clip-rule="evenodd" d="M1116.04 351.381C1204.92 410.582 1354.51 430.35 1368.13 536.201C1381.34 638.872 1230.51 680.415 1169.04 763.34C1111.93 840.394 1104.92 953.981 1022.34 1002.72C934.173 1054.76 820.748 1058.75 723.287 1026.44C627.73 994.759 550.43 919.318 502.811 830.485C459.775 750.203 476.8 656.482 476.213 565.529C475.647 477.981 441.348 375.661 499.453 310.471C557.664 245.161 663.4 269.271 750.253 258.073C815.666 249.639 879.285 236.917 943.293 253.245C1009.01 270.008 1059.52 313.742 1116.04 351.381Z" stroke="url(#paint47_linear_16_195)" stroke-width="3"/>
<path opacity="0.49" fill-rule="evenodd" clip-rule="evenodd" d="M1115.22 347.394C1204.77 404.805 1354.09 421.886 1369.5 527.067C1384.43 629.087 1234.94 673.087 1175.16 756.743C1119.62 834.476 1114.61 947.72 1033.21 997.699C946.306 1051.06 833.413 1057.01 735.789 1026.53C640.072 996.642 561.779 922.856 512.812 835.216C468.559 756.012 483.888 662.378 481.725 571.808C479.643 484.629 443.708 383.325 500.445 317.39C557.285 251.334 663.008 273.504 749.312 260.839C814.312 251.3 877.45 237.522 941.481 252.668C1007.22 268.218 1058.29 310.893 1115.22 347.394Z" stroke="url(#paint48_linear_16_195)" stroke-width="3"/>
<path opacity="0.5" fill-rule="evenodd" clip-rule="evenodd" d="M1114.28 343.465C1204.46 399.081 1353.47 413.491 1370.63 517.972C1387.28 619.313 1239.16 665.735 1181.08 750.089C1127.11 828.47 1124.09 941.335 1043.89 992.527C958.268 1047.18 845.941 1055.07 748.188 1026.42C652.345 998.321 573.092 926.201 522.805 839.774C477.359 761.667 491.001 668.151 487.275 577.99C483.689 491.206 446.143 390.944 501.504 324.291C556.965 257.517 662.639 277.755 748.37 263.639C812.938 253.007 875.579 238.186 939.61 252.155C1005.35 266.496 1056.95 308.106 1114.28 343.465Z" stroke="url(#paint49_linear_16_195)" stroke-width="3"/>
<path opacity="0.51" fill-rule="evenodd" clip-rule="evenodd" d="M1113.22 339.597C1203.99 393.413 1352.64 405.169 1371.54 508.92C1389.88 609.553 1243.17 658.363 1186.8 743.381C1134.41 822.378 1133.36 934.831 1054.38 987.208C970.056 1043.13 858.327 1052.94 760.479 1026.11C664.543 999.797 584.364 929.356 532.785 844.161C486.17 767.167 498.134 673.799 492.859 584.075C487.782 497.711 448.651 398.516 502.627 331.175C556.702 263.71 662.293 282.023 747.426 266.472C811.544 254.76 873.67 238.909 937.68 251.705C1003.4 264.843 1055.51 305.383 1113.22 339.597Z" stroke="url(#paint50_linear_16_195)" stroke-width="3"/>
<path opacity="0.52" fill-rule="evenodd" clip-rule="evenodd" d="M1112.03 335.793C1203.37 387.805 1351.6 396.924 1372.23 499.916C1392.23 599.813 1246.98 650.976 1192.31 736.624C1141.51 816.207 1142.41 928.213 1064.67 981.748C981.666 1038.91 870.569 1050.63 772.659 1025.61C676.663 1001.08 595.593 932.321 542.749 848.378C494.991 772.514 505.285 679.324 498.475 590.063C491.921 504.145 451.231 406.042 503.816 338.039C556.497 269.912 661.969 286.311 746.481 269.341C810.131 256.561 871.725 239.694 935.693 251.322C1001.37 263.26 1053.96 302.725 1112.03 335.793Z" stroke="url(#paint51_linear_16_195)" stroke-width="3"/>
<path opacity="0.53" fill-rule="evenodd" clip-rule="evenodd" d="M1110.72 332.054C1202.58 382.26 1350.36 388.759 1372.68 490.964C1394.34 590.098 1250.58 643.579 1197.62 729.823C1148.42 809.96 1151.26 921.485 1074.76 976.152C993.095 1034.52 882.663 1048.12 784.725 1024.91C688.701 1002.16 606.775 935.1 552.693 852.425C503.817 777.708 512.452 684.726 504.122 595.955C496.104 510.507 453.881 413.521 505.068 344.884C556.348 276.122 661.668 290.616 745.535 272.246C808.699 258.41 869.745 240.54 933.65 251.006C999.257 261.751 1052.32 300.135 1110.72 332.054Z" stroke="url(#paint52_linear_16_195)" stroke-width="3"/>
<path opacity="0.54" fill-rule="evenodd" clip-rule="evenodd" d="M1109.29 328.385C1201.64 376.781 1348.91 380.679 1372.92 482.069C1396.21 580.413 1253.97 636.175 1202.73 722.982C1155.12 803.642 1159.88 914.653 1084.66 970.424C1004.34 1029.97 894.605 1045.44 796.673 1024.03C700.654 1003.04 617.906 937.694 562.615 856.305C512.647 782.751 519.632 690.006 509.797 601.75C500.33 516.798 456.6 420.951 506.383 351.71C556.257 282.341 661.389 294.94 744.588 275.185C807.25 260.307 867.732 241.448 931.552 250.758C997.072 260.315 1050.58 297.616 1109.29 328.385Z" stroke="url(#paint53_linear_16_195)" stroke-width="3"/>
<path opacity="0.55" fill-rule="evenodd" clip-rule="evenodd" d="M1107.74 324.786C1200.54 371.372 1347.27 372.689 1372.94 473.237C1397.83 570.763 1257.16 628.769 1207.64 716.105C1161.62 797.257 1168.29 907.721 1094.35 964.569C1015.4 1025.27 906.394 1042.58 808.5 1022.97C712.518 1003.74 628.983 940.105 572.511 860.02C521.475 787.644 526.823 695.165 515.498 607.449C504.596 523.018 459.387 428.333 507.76 358.514C556.223 288.567 661.134 299.282 743.642 278.161C805.784 262.254 865.685 242.421 929.4 250.58C994.812 258.956 1048.75 295.169 1107.74 324.786Z" stroke="url(#paint54_linear_16_195)" stroke-width="3"/>
<path opacity="0.56" fill-rule="evenodd" clip-rule="evenodd" d="M1106.08 321.261C1199.3 366.035 1345.43 364.791 1372.73 464.47C1399.22 561.153 1260.14 621.366 1212.34 709.198C1167.93 790.81 1176.49 900.694 1103.84 958.591C1026.28 1020.41 918.026 1039.55 820.203 1021.73C724.291 1004.25 640.002 942.335 582.378 863.57C530.301 792.386 534.022 700.202 521.223 613.052C508.903 529.165 462.24 435.665 509.2 365.297C556.245 294.799 660.901 303.643 742.697 281.173C804.301 264.25 863.608 243.457 927.196 250.472C992.479 257.674 1046.81 292.795 1106.08 321.261Z" stroke="url(#paint55_linear_16_195)" stroke-width="3"/>
<path opacity="0.57" fill-rule="evenodd" clip-rule="evenodd" d="M1104.3 317.812C1197.9 360.774 1343.39 356.99 1372.31 455.773C1400.36 551.588 1262.91 613.969 1216.84 702.264C1174.03 784.306 1184.46 893.577 1113.12 952.496C1036.96 1015.4 929.497 1036.35 831.777 1020.3C735.966 1004.57 650.959 944.387 592.212 866.957C539.12 796.98 541.226 705.12 526.969 618.56C513.245 535.241 465.158 442.948 510.698 372.058C556.323 301.038 660.691 308.022 741.752 284.222C802.803 266.298 861.498 244.559 924.94 250.437C990.073 256.472 1044.79 290.499 1104.3 317.812Z" stroke="url(#paint56_linear_16_195)" stroke-width="3"/>
<path opacity="0.58" fill-rule="evenodd" clip-rule="evenodd" d="M1102.4 314.442C1196.35 355.592 1341.16 349.29 1371.67 447.152C1401.26 542.073 1265.48 606.584 1221.14 695.308C1179.93 777.749 1192.21 886.376 1122.2 946.288C1047.45 1010.26 940.805 1032.99 843.22 1018.71C747.542 1004.71 661.851 946.262 602.01 870.183C547.929 801.427 548.432 709.919 532.734 623.973C517.624 541.245 468.139 450.18 512.257 378.797C556.456 307.283 660.504 312.419 740.808 287.308C801.29 268.396 859.36 245.727 922.635 250.475C987.597 255.35 1042.67 288.28 1102.4 314.442Z" stroke="url(#paint57_linear_16_195)" stroke-width="3"/>
<path opacity="0.59" fill-rule="evenodd" clip-rule="evenodd" d="M1100.39 311.153C1194.66 350.492 1338.74 341.694 1370.82 438.61C1401.93 532.613 1267.85 599.215 1225.23 688.334C1185.63 771.142 1199.74 879.095 1131.07 939.972C1057.74 1004.97 951.948 1029.46 854.531 1016.95C759.017 1004.67 672.676 947.964 611.77 873.25C556.726 805.728 555.64 714.599 538.518 629.291C522.037 547.178 471.183 457.361 513.875 385.512C556.646 313.532 660.34 316.834 739.868 290.431C799.764 270.546 857.194 246.962 920.282 250.588C985.052 254.311 1040.46 286.142 1100.39 311.153Z" stroke="url(#paint58_linear_16_195)" stroke-width="3"/>
<path opacity="0.6" fill-rule="evenodd" clip-rule="evenodd" d="M1098.27 307.947C1192.82 345.476 1336.14 334.207 1369.76 430.151C1402.37 523.212 1270.01 591.865 1229.12 681.347C1191.13 764.492 1207.05 871.74 1139.72 933.554C1067.84 999.552 962.922 1025.78 865.704 1015.01C770.385 1004.46 683.429 949.494 621.487 876.159C565.507 809.883 562.845 719.162 544.316 634.515C526.481 553.039 474.287 464.49 515.551 392.204C556.89 319.785 660.199 321.268 738.929 293.592C798.224 272.749 855 248.265 917.882 250.777C982.439 253.356 1038.17 284.086 1098.27 307.947Z" stroke="url(#paint59_linear_16_195)" stroke-width="3"/>
<path opacity="0.61" fill-rule="evenodd" clip-rule="evenodd" d="M1096.05 304.826C1190.83 340.549 1333.34 326.832 1368.48 421.78C1402.57 513.875 1271.97 584.54 1232.81 674.351C1196.42 757.803 1214.13 864.315 1148.17 927.037C1077.74 994.004 973.725 1021.95 876.737 1012.92C781.644 1004.07 694.107 950.856 631.159 878.913C574.27 813.895 570.046 723.608 550.128 639.646C530.957 558.829 477.45 471.568 517.283 398.872C557.189 326.043 660.08 325.72 737.992 296.792C796.672 275.005 852.779 249.637 915.435 251.043C979.761 252.486 1035.78 282.115 1096.05 304.826Z" stroke="url(#paint60_linear_16_195)" stroke-width="3"/>
<path opacity="0.62" fill-rule="evenodd" clip-rule="evenodd" d="M1093.71 301.794C1188.71 335.712 1330.37 319.572 1367 413.501C1402.54 504.607 1273.73 577.244 1236.29 667.351C1201.51 751.079 1220.99 856.825 1156.4 920.426C1087.44 988.333 984.355 1017.97 887.628 1010.67C792.791 1003.51 704.709 952.051 640.784 881.513C583.012 817.765 577.24 727.939 555.952 644.684C535.462 564.548 480.672 478.593 519.072 405.515C557.543 332.304 659.986 330.19 737.061 300.029C795.11 277.314 850.535 251.078 912.946 251.386C977.019 251.703 1033.31 280.229 1093.71 301.794Z" stroke="url(#paint61_linear_16_195)" stroke-width="3"/>
<path opacity="0.63" fill-rule="evenodd" clip-rule="evenodd" d="M1091.27 298.852C1186.45 330.97 1327.21 312.432 1365.32 405.318C1402.28 495.413 1275.29 569.98 1239.57 660.352C1206.39 744.324 1227.63 849.275 1164.42 913.728C1096.93 982.543 994.809 1013.85 898.374 1008.26C803.823 1002.79 715.229 953.083 650.357 883.962C591.73 821.495 584.425 732.156 561.785 649.63C539.993 570.196 483.95 485.565 520.916 412.134C557.951 338.568 659.914 334.679 736.132 303.306C793.536 279.677 848.267 252.589 910.412 251.809C974.214 251.009 1030.76 278.432 1091.27 298.852Z" stroke="url(#paint62_linear_16_195)" stroke-width="3"/>
<path opacity="0.64" fill-rule="evenodd" clip-rule="evenodd" d="M1088.73 296.002C1184.05 326.324 1323.88 305.415 1363.43 397.236C1401.79 486.297 1276.64 562.753 1242.66 653.356C1211.07 737.544 1234.04 841.671 1172.22 906.946C1106.22 976.639 1005.08 1009.59 908.972 1005.71C814.737 1001.9 725.666 953.953 659.877 886.261C600.421 825.085 591.598 736.259 567.626 654.485C544.55 575.773 487.283 492.485 522.815 418.727C558.413 344.834 659.865 339.186 735.208 306.622C791.953 282.095 845.976 254.171 907.838 252.313C971.349 250.405 1028.12 276.724 1088.73 296.002Z" stroke="url(#paint63_linear_16_195)" stroke-width="3"/>
<path opacity="0.65" fill-rule="evenodd" clip-rule="evenodd" d="M1086.08 293.247C1181.51 321.777 1320.37 298.524 1361.34 389.257C1401.08 477.264 1277.81 555.568 1245.54 646.37C1215.55 730.742 1240.22 834.017 1179.81 900.085C1115.3 970.626 1015.18 1005.19 919.42 1003C825.53 1000.85 736.016 954.665 669.34 888.412C609.083 828.537 598.758 740.251 573.471 659.249C549.132 581.28 490.669 499.35 524.768 425.294C558.929 351.102 659.84 343.712 734.29 309.976C790.362 284.569 843.664 255.825 905.224 252.897C968.425 249.891 1025.41 275.108 1086.08 293.247Z" stroke="url(#paint64_linear_16_195)" stroke-width="3"/>
<path opacity="0.66" fill-rule="evenodd" clip-rule="evenodd" d="M1083.34 290.588C1178.84 317.332 1316.69 291.762 1359.06 381.387C1400.15 468.319 1278.77 548.428 1248.22 639.396C1219.83 723.923 1246.18 826.319 1187.18 893.152C1124.18 964.508 1025.09 1000.67 929.715 1000.15C836.2 999.651 746.278 955.222 678.745 890.419C617.713 831.853 605.902 744.131 579.321 663.923C553.736 586.718 494.109 506.163 526.774 431.835C559.498 357.371 659.839 348.256 733.377 313.371C788.763 287.098 841.333 257.551 902.573 253.564C965.444 249.471 1022.61 273.585 1083.34 290.588Z" stroke="url(#paint65_linear_16_195)" stroke-width="3"/>
<path opacity="0.67" fill-rule="evenodd" clip-rule="evenodd" d="M1080.49 288.028C1176.04 312.992 1312.84 285.134 1356.57 373.629C1398.99 459.465 1279.54 541.338 1250.7 632.44C1223.9 717.092 1251.91 818.581 1194.33 886.149C1132.84 958.29 1034.82 996.016 939.856 997.166C846.743 998.294 756.446 955.625 688.086 892.281C626.307 835.035 613.027 747.902 585.173 668.507C558.361 592.085 497.599 512.921 528.831 438.349C560.12 363.641 659.861 352.819 732.47 316.806C787.156 289.683 838.983 259.349 899.884 254.314C962.407 249.144 1019.74 272.157 1080.49 288.028Z" stroke="url(#paint66_linear_16_195)" stroke-width="3"/>
<path opacity="0.68" fill-rule="evenodd" clip-rule="evenodd" d="M1077.56 285.57C1173.12 308.76 1308.83 278.642 1353.9 365.988C1397.62 450.708 1280.11 534.302 1252.98 625.506C1227.77 710.253 1257.42 810.809 1201.26 879.083C1141.3 951.978 1044.37 991.245 949.839 994.044C857.158 996.788 766.52 955.879 697.364 894.004C634.865 838.084 620.133 751.565 591.024 673.003C563.006 597.384 501.14 519.625 530.94 444.837C560.795 369.912 659.907 357.4 731.571 320.281C785.545 292.325 836.616 261.222 897.16 255.148C959.318 248.912 1016.8 270.826 1077.56 285.57Z" stroke="url(#paint67_linear_16_195)" stroke-width="3"/>
<path opacity="0.69" fill-rule="evenodd" clip-rule="evenodd" d="M1074.52 283.214C1170.06 304.639 1304.65 272.29 1351.04 358.466C1396.03 442.052 1280.5 527.323 1255.07 618.598C1231.44 703.41 1262.7 803.007 1207.97 871.958C1149.54 945.576 1053.72 986.358 959.663 990.791C867.441 995.137 776.496 955.986 706.574 895.587C643.383 841.002 627.215 755.121 596.873 677.412C567.668 602.614 504.728 526.275 533.099 451.297C561.521 376.183 659.977 362 730.678 323.797C783.928 295.024 834.233 263.169 894.403 256.067C956.176 248.776 1013.78 269.593 1074.52 283.214Z" stroke="url(#paint68_linear_16_195)" stroke-width="3"/>
<path opacity="0.7" fill-rule="evenodd" clip-rule="evenodd" d="M1071.4 280.963C1166.89 300.629 1300.31 266.081 1347.99 351.067C1394.23 433.501 1280.69 520.406 1256.96 611.72C1234.91 696.569 1267.75 795.181 1214.47 864.78C1157.58 939.089 1062.89 981.359 969.325 987.41C877.59 993.343 786.372 955.948 715.714 897.034C651.858 843.791 634.273 758.571 602.719 681.735C572.347 607.775 508.363 532.87 535.307 457.73C562.301 382.453 660.071 366.619 729.794 327.353C782.307 297.78 831.836 265.19 891.614 257.073C952.985 248.738 1010.7 268.46 1071.4 280.963Z" stroke="url(#paint69_linear_16_195)" stroke-width="3"/>
<path opacity="0.71" fill-rule="evenodd" clip-rule="evenodd" d="M1068.19 278.819C1163.59 296.735 1295.82 260.017 1344.75 343.796C1392.22 425.058 1280.7 513.555 1258.65 604.877C1238.17 689.732 1272.58 787.335 1220.74 857.553C1165.39 932.523 1071.86 976.254 978.824 983.906C887.603 991.41 796.145 955.77 724.782 898.348C660.289 846.453 641.305 761.917 608.559 685.971C577.04 612.869 512.044 539.41 537.564 464.135C563.131 388.722 660.189 371.256 728.919 330.951C780.683 300.595 829.425 267.287 888.795 258.165C949.746 248.799 1007.54 267.428 1068.19 278.819Z" stroke="url(#paint70_linear_16_195)" stroke-width="3"/>
<path opacity="0.72" fill-rule="evenodd" clip-rule="evenodd" d="M1064.9 276.784C1160.18 292.959 1291.17 254.103 1341.34 336.657C1390 416.73 1280.51 506.774 1260.15 598.072C1241.24 682.906 1277.19 779.475 1226.8 850.282C1173 925.881 1080.65 971.046 988.159 980.284C897.478 989.342 805.814 955.453 733.776 899.53C668.673 848.989 648.308 765.161 614.393 690.123C581.748 617.896 515.77 545.896 539.87 470.512C564.014 394.99 660.332 375.912 728.054 334.59C779.059 303.468 827.003 269.46 885.947 259.345C946.462 248.96 1004.32 266.5 1064.9 276.784Z" stroke="url(#paint71_linear_16_195)" stroke-width="3"/>
<path opacity="0.73" fill-rule="evenodd" clip-rule="evenodd" d="M1061.51 274.859C1156.64 289.303 1286.37 248.34 1337.75 329.651C1387.58 408.519 1280.15 500.066 1261.46 591.311C1244.1 676.094 1281.56 771.605 1232.63 842.972C1180.39 919.17 1089.24 965.74 997.326 976.547C907.212 987.144 815.374 955.002 742.693 900.583C677.007 851.402 655.281 768.303 620.217 694.192C586.467 622.856 519.539 552.327 542.222 476.86C564.947 401.256 660.499 380.587 727.198 338.271C777.432 306.4 824.57 271.71 883.073 260.613C943.134 249.221 1001.03 265.676 1061.51 274.859Z" stroke="url(#paint72_linear_16_195)" stroke-width="3"/>
<path opacity="0.74" fill-rule="evenodd" clip-rule="evenodd" d="M1058.05 273.046C1153 285.77 1281.43 242.732 1333.98 322.784C1384.95 400.43 1279.6 493.436 1262.58 584.596C1246.77 669.301 1285.72 763.73 1238.24 835.628C1187.56 912.394 1097.63 960.341 1006.33 972.7C916.804 984.817 824.826 954.419 751.53 901.509C685.29 853.693 662.221 771.346 626.031 698.178C591.197 627.75 523.35 558.703 544.621 483.18C565.931 407.52 660.691 385.28 726.353 341.993C775.807 309.391 822.129 274.036 880.173 261.971C939.764 249.585 997.687 264.957 1058.05 273.046Z" stroke="url(#paint73_linear_16_195)" stroke-width="3"/>
<path opacity="0.75" fill-rule="evenodd" clip-rule="evenodd" d="M1054.51 271.348C1149.25 282.361 1276.34 237.282 1330.04 316.058C1382.13 392.466 1278.87 486.887 1263.51 577.932C1249.24 662.53 1289.65 755.855 1243.64 828.256C1194.51 905.557 1105.83 954.854 1015.15 968.746C926.252 982.367 834.166 953.707 760.287 902.312C693.519 855.864 669.127 774.29 631.833 702.082C595.936 632.578 527.201 565.024 547.066 489.472C566.966 413.782 660.908 389.993 725.52 345.758C774.182 312.442 819.68 276.44 877.25 263.419C936.355 250.051 994.28 264.346 1054.51 271.348Z" stroke="url(#paint74_linear_16_195)" stroke-width="3"/>
<path opacity="0.76" fill-rule="evenodd" clip-rule="evenodd" d="M1050.89 269.765C1145.38 279.08 1271.11 231.992 1325.94 309.476C1379.11 384.632 1277.96 480.422 1264.25 571.323C1251.51 655.786 1293.35 747.986 1248.81 820.859C1201.25 898.666 1113.83 949.283 1023.81 964.69C935.552 979.797 843.391 952.87 768.959 902.993C701.692 857.918 675.996 777.138 637.621 705.906C600.683 637.342 531.091 571.289 549.554 495.734C568.051 420.04 661.149 394.724 724.698 349.564C772.56 315.552 817.224 278.922 874.305 264.958C932.907 250.621 990.814 263.843 1050.89 269.765Z" stroke="url(#paint75_linear_16_195)" stroke-width="3"/>
<path opacity="0.77" fill-rule="evenodd" clip-rule="evenodd" d="M1047.2 268.3C1141.42 275.927 1265.75 226.866 1321.66 303.043C1375.9 376.932 1276.87 474.047 1264.8 564.773C1253.59 649.074 1296.84 740.126 1253.76 813.443C1207.77 891.724 1121.63 943.632 1032.29 960.537C944.704 977.111 852.5 951.911 777.545 903.556C709.806 859.857 682.828 779.891 643.394 709.651C605.437 642.041 535.019 577.501 552.087 501.967C569.186 426.296 661.416 399.474 723.889 353.414C770.941 318.723 814.765 281.482 871.34 266.588C929.424 251.297 987.294 263.45 1047.2 268.3Z" stroke="url(#paint76_linear_16_195)" stroke-width="3"/>
<path opacity="0.78" fill-rule="evenodd" clip-rule="evenodd" d="M1043.43 266.953C1137.35 272.906 1260.26 221.905 1317.23 296.761C1372.5 369.369 1275.61 467.764 1265.17 558.286C1255.47 642.397 1300.1 732.281 1258.5 806.014C1214.08 884.737 1129.23 937.908 1040.6 956.29C953.706 974.313 861.491 950.832 786.045 904.003C717.861 861.682 689.62 782.551 649.15 713.318C610.196 646.678 538.985 583.657 554.663 508.171C570.37 432.548 661.709 404.243 723.094 357.306C769.327 321.955 812.302 284.121 868.357 268.31C925.907 252.078 983.721 263.169 1043.43 266.953Z" stroke="url(#paint77_linear_16_195)" stroke-width="3"/>
<path opacity="0.79" fill-rule="evenodd" clip-rule="evenodd" d="M1039.59 265.727C1133.18 270.018 1254.63 217.112 1312.64 290.634C1368.91 361.946 1274.18 461.577 1265.36 551.865C1257.16 635.76 1303.14 724.455 1263.01 798.574C1220.17 877.71 1136.64 932.114 1048.74 951.954C962.557 971.407 870.363 949.638 794.455 904.337C725.853 863.396 696.371 785.119 654.888 716.908C614.959 651.251 542.985 589.758 557.282 514.346C571.604 438.795 662.028 409.031 722.314 361.241C767.718 325.247 809.837 286.838 865.358 270.124C922.359 252.965 980.097 262.999 1039.59 265.727Z" stroke="url(#paint78_linear_16_195)" stroke-width="3"/>
<path opacity="0.8" fill-rule="evenodd" clip-rule="evenodd" d="M1035.69 264.623C1128.91 267.266 1248.88 212.489 1307.9 284.664C1365.14 354.669 1272.58 455.489 1265.37 545.516C1258.67 629.167 1305.97 716.654 1267.31 791.13C1226.04 870.647 1143.84 926.254 1056.7 947.533C971.255 968.396 879.113 948.332 802.773 904.56C733.782 865.002 703.08 787.598 660.607 720.422C619.725 655.762 547.021 595.805 559.942 520.491C572.887 445.039 662.372 413.838 721.548 365.219C766.116 328.601 807.373 289.636 862.345 272.032C918.782 253.96 976.424 262.943 1035.69 264.623Z" stroke="url(#paint79_linear_16_195)" stroke-width="3"/>
<path opacity="0.81" fill-rule="evenodd" clip-rule="evenodd" d="M1031.72 263.643C1124.55 264.651 1243.01 208.04 1303 278.854C1361.19 347.54 1270.82 449.505 1265.2 539.241C1259.98 622.622 1308.58 708.882 1271.39 783.686C1231.69 863.554 1150.84 920.334 1064.48 943.031C979.797 965.285 887.74 946.917 810.998 904.675C741.644 866.5 709.743 789.989 666.304 723.862C624.492 660.212 551.088 601.798 562.643 526.607C574.218 451.278 662.743 418.664 720.798 369.239C764.522 332.015 804.909 292.512 859.318 274.034C915.177 255.063 972.705 263.002 1031.72 263.643Z" stroke="url(#paint80_linear_16_195)" stroke-width="3"/>
<path opacity="0.82" fill-rule="evenodd" clip-rule="evenodd" d="M1027.69 262.787C1120.1 262.176 1237.02 203.766 1297.96 273.207C1357.06 340.562 1268.88 443.627 1264.85 533.044C1261.1 616.129 1310.97 701.143 1275.25 776.247C1237.13 856.435 1157.65 914.359 1072.08 938.453C988.184 962.077 896.241 945.396 819.128 904.686C749.438 867.894 716.36 792.293 671.979 727.229C629.26 664.602 555.188 607.736 565.384 532.692C575.598 457.512 663.14 423.509 720.064 373.304C762.937 335.491 802.448 295.469 856.281 276.13C911.548 256.275 968.942 263.176 1027.69 262.787Z" stroke="url(#paint81_linear_16_195)" stroke-width="3"/>
<path opacity="0.83" fill-rule="evenodd" clip-rule="evenodd" d="M1023.61 262.058C1115.57 259.841 1230.92 199.67 1292.77 267.727C1352.76 333.74 1266.79 437.858 1264.33 526.929C1262.04 609.693 1313.14 693.442 1278.9 768.818C1242.35 849.296 1164.25 908.333 1079.5 933.803C996.414 958.776 904.617 943.773 827.162 904.594C757.164 869.187 722.931 794.513 677.631 730.525C634.027 668.932 559.32 613.62 568.165 538.749C577.027 463.741 663.565 428.373 719.348 377.411C761.362 339.029 799.993 298.506 853.235 278.32C907.896 257.597 965.139 263.467 1023.61 262.058Z" stroke="url(#paint82_linear_16_195)" stroke-width="3"/>
<path opacity="0.84" fill-rule="evenodd" clip-rule="evenodd" d="M1019.46 261.456C1110.95 257.65 1224.7 195.753 1287.44 262.416C1348.3 327.076 1264.54 432.203 1263.63 520.9C1262.79 603.316 1315.1 685.785 1282.33 761.404C1247.35 842.141 1170.64 902.26 1086.74 929.086C1004.48 955.388 912.863 942.051 835.097 904.403C764.817 870.379 729.451 796.65 683.256 733.749C638.791 673.204 563.479 619.45 570.984 544.775C578.502 469.964 664.015 433.257 718.649 381.563C759.798 342.629 797.542 301.624 850.18 280.606C904.222 259.028 961.295 263.875 1019.46 261.456Z" stroke="url(#paint83_linear_16_195)" stroke-width="3"/>
<path opacity="0.85" fill-rule="evenodd" clip-rule="evenodd" d="M1015.26 260.982C1106.24 255.603 1218.39 192.018 1281.98 257.276C1343.67 320.574 1262.13 426.664 1262.77 514.96C1263.36 597.004 1316.86 678.175 1285.55 754.008C1252.13 834.975 1176.84 896.145 1093.81 924.305C1012.4 951.914 920.981 940.234 842.933 904.115C772.398 871.474 735.922 798.706 688.856 736.905C643.553 677.417 567.668 625.226 573.841 550.772C580.026 476.181 664.494 438.159 717.971 385.757C758.247 346.291 795.099 304.822 847.122 282.987C900.531 260.571 957.415 264.402 1015.26 260.982Z" stroke="url(#paint84_linear_16_195)" stroke-width="3"/>
<path opacity="0.86" fill-rule="evenodd" clip-rule="evenodd" d="M1011.01 260.638C1101.46 253.702 1211.96 188.466 1276.39 252.311C1338.87 314.237 1259.57 421.244 1261.74 509.113C1263.75 590.759 1318.4 670.616 1288.56 746.637C1256.71 827.802 1182.83 889.994 1100.69 919.465C1020.15 948.36 928.968 938.325 850.668 903.734C779.905 872.474 742.341 800.684 694.429 739.993C648.311 681.574 571.884 630.949 576.736 556.738C581.597 482.392 665 443.08 717.311 389.996C756.709 350.015 792.665 308.101 844.06 285.464C896.824 262.225 953.501 265.048 1011.01 260.638Z" stroke="url(#paint85_linear_16_195)" stroke-width="3"/>
<path opacity="0.87" fill-rule="evenodd" clip-rule="evenodd" d="M1006.71 260.426C1096.61 251.949 1205.44 185.101 1270.66 247.522C1333.93 308.068 1256.86 415.947 1260.54 503.362C1263.96 584.586 1319.73 663.115 1291.36 739.293C1261.06 820.629 1188.63 883.811 1107.39 914.57C1027.74 944.729 936.822 936.327 858.3 903.263C787.336 873.381 748.707 802.585 699.973 743.014C653.064 685.675 576.127 636.618 579.668 562.675C583.215 488.597 665.534 448.021 716.672 394.278C755.186 353.802 790.242 311.46 840.996 288.037C893.102 263.99 949.556 265.815 1006.71 260.426Z" stroke="url(#paint86_linear_16_195)" stroke-width="3"/>
<path opacity="0.88" fill-rule="evenodd" clip-rule="evenodd" d="M1002.36 260.345C1091.68 250.345 1198.83 181.922 1264.82 242.912C1328.82 302.07 1254 410.776 1259.18 497.711C1263.99 578.489 1320.86 655.674 1293.94 731.984C1265.21 813.458 1194.22 877.599 1113.91 909.625C1035.16 941.026 944.544 934.245 865.827 902.704C794.688 874.198 755.018 804.411 705.487 745.971C657.809 689.72 580.394 642.235 582.635 568.583C584.879 494.796 666.096 452.98 716.053 398.605C753.679 357.651 787.83 314.901 837.932 290.707C889.369 265.868 945.581 266.703 1002.36 260.345Z" stroke="url(#paint87_linear_16_195)" stroke-width="3"/>
<path opacity="0.89" fill-rule="evenodd" clip-rule="evenodd" d="M997.977 260.397C1086.68 248.892 1192.12 178.933 1258.85 238.484C1323.57 296.246 1251 405.734 1257.66 492.162C1263.85 572.471 1321.78 648.298 1296.32 724.711C1269.14 806.296 1199.61 871.365 1120.24 904.634C1042.43 937.254 952.131 932.082 873.25 902.06C801.963 874.927 761.275 806.164 710.97 748.865C662.549 693.712 584.686 647.8 585.637 574.46C586.591 500.987 666.686 457.959 715.457 402.974C752.189 361.562 785.432 318.423 834.871 293.474C885.626 267.859 941.579 267.712 997.977 260.397Z" stroke="url(#paint88_linear_16_195)" stroke-width="3"/>
<path opacity="0.9" fill-rule="evenodd" clip-rule="evenodd" d="M993.549 260.583C1081.62 247.591 1185.33 176.134 1252.77 234.24C1318.17 290.599 1247.86 400.823 1255.99 486.721C1263.54 566.536 1322.5 640.992 1298.49 717.481C1272.86 799.147 1204.8 865.112 1126.4 899.602C1049.53 933.418 959.583 929.84 880.567 901.334C809.157 875.571 767.475 807.845 716.421 751.696C667.279 697.649 589.001 653.312 588.675 580.308C588.348 507.17 667.306 462.957 714.884 407.388C750.718 365.536 783.05 322.026 831.814 296.337C881.877 269.963 937.554 268.843 993.549 260.583Z" stroke="url(#paint89_linear_16_195)" stroke-width="3"/>
<path opacity="0.91" fill-rule="evenodd" clip-rule="evenodd" d="M989.082 260.904C1076.5 246.443 1178.46 173.528 1246.57 230.181C1312.63 285.131 1244.58 396.046 1254.16 481.388C1263.06 560.688 1323.02 633.76 1300.46 710.297C1276.37 792.015 1209.78 858.845 1132.37 894.532C1056.46 929.521 966.898 927.524 887.776 900.529C816.269 876.132 773.616 809.457 721.839 754.467C672.001 701.535 593.337 658.772 591.746 586.126C590.151 513.347 667.954 467.974 714.334 411.846C749.266 369.573 780.684 325.711 828.762 299.297C878.122 272.18 933.506 270.098 989.082 260.904Z" stroke="url(#paint90_linear_16_195)" stroke-width="3"/>
<path opacity="0.92" fill-rule="evenodd" clip-rule="evenodd" d="M984.582 261.361C1071.32 245.45 1171.51 171.116 1240.27 226.31C1306.96 279.846 1241.16 391.407 1252.17 476.169C1262.41 554.93 1323.34 626.605 1302.22 703.164C1279.67 784.905 1214.57 852.569 1138.16 889.428C1063.23 925.568 974.077 925.138 894.876 899.649C823.299 876.613 779.699 811.002 727.223 757.178C676.712 705.369 597.694 664.181 594.85 591.915C592.001 519.516 668.632 473.01 713.809 416.347C747.835 373.672 778.336 329.476 825.719 302.355C874.364 274.511 929.439 271.476 984.582 261.361Z" stroke="url(#paint91_linear_16_195)" stroke-width="3"/>
<path opacity="0.93" fill-rule="evenodd" clip-rule="evenodd" d="M980.05 261.953C1066.08 244.613 1164.48 168.899 1233.86 222.629C1301.15 274.745 1237.62 386.907 1250.04 471.066C1261.59 549.265 1323.47 619.533 1303.78 696.086C1282.76 777.821 1219.16 846.288 1143.77 884.296C1069.84 921.562 981.118 922.684 901.868 898.695C830.246 877.016 785.723 812.483 732.573 759.832C681.413 709.154 602.072 669.539 597.988 597.673C593.896 525.676 669.34 478.065 713.31 420.893C746.426 377.834 776.009 333.322 822.686 305.509C870.607 276.955 925.356 272.978 980.05 261.953Z" stroke="url(#paint92_linear_16_195)" stroke-width="3"/>
<path opacity="0.94" fill-rule="evenodd" clip-rule="evenodd" d="M975.489 262.684C1060.79 243.933 1157.39 166.878 1227.35 219.141C1295.21 269.832 1233.94 382.55 1247.77 466.081C1260.62 543.698 1323.41 612.547 1305.14 689.068C1285.65 770.769 1223.55 840.007 1149.19 879.14C1076.28 917.508 988.021 920.166 908.749 897.672C837.107 877.344 791.686 813.9 737.887 762.43C686.102 712.888 606.469 674.847 601.157 603.403C595.836 531.829 670.077 483.139 712.836 425.482C745.04 382.058 773.703 337.25 819.665 308.762C866.851 279.514 921.259 274.605 975.489 262.684Z" stroke="url(#paint93_linear_16_195)" stroke-width="3"/>
<path opacity="0.95" fill-rule="evenodd" clip-rule="evenodd" d="M970.902 263.551C1055.45 243.41 1150.23 165.055 1220.75 215.845C1289.15 265.109 1230.14 378.338 1245.35 461.219C1259.48 538.231 1323.15 605.651 1306.31 682.114C1288.33 763.753 1227.75 833.729 1154.44 873.962C1082.56 913.409 994.785 917.589 915.519 896.583C843.883 877.599 797.588 815.255 743.164 764.974C690.779 716.575 610.883 680.104 604.358 609.103C597.821 537.973 670.846 488.232 712.39 430.115C743.678 386.344 771.421 341.258 816.658 312.111C863.1 282.187 917.15 276.357 970.902 263.551Z" stroke="url(#paint94_linear_16_195)" stroke-width="3"/>
<path opacity="0.96" fill-rule="evenodd" clip-rule="evenodd" d="M966.292 264.558C1050.06 243.047 1143.01 163.432 1214.05 212.746C1282.96 260.578 1226.22 374.274 1242.79 456.482C1258.19 532.869 1322.71 598.85 1307.28 675.228C1290.8 756.777 1231.74 827.461 1159.5 868.769C1088.67 909.271 1001.41 914.954 922.177 895.43C850.572 877.784 803.427 816.552 748.405 767.464C695.442 720.214 615.316 685.311 607.591 614.774C599.852 544.108 671.646 493.344 711.971 434.792C742.343 390.693 769.163 345.347 813.667 315.558C859.356 284.975 913.033 278.234 966.292 264.558Z" stroke="url(#paint95_linear_16_195)" stroke-width="3"/>
<path opacity="0.97" fill-rule="evenodd" clip-rule="evenodd" d="M961.661 265.703C1044.64 242.843 1135.73 162.007 1207.27 209.843C1276.66 256.241 1222.18 370.359 1240.1 451.872C1256.74 527.613 1322.08 592.146 1308.05 668.415C1293.08 749.845 1235.54 821.205 1164.38 863.564C1094.61 905.095 1007.89 912.267 928.722 894.215C857.173 877.901 809.203 817.792 753.606 769.903C700.091 723.808 619.764 690.469 610.853 620.416C601.926 550.235 672.476 498.474 711.582 439.512C741.034 395.104 766.931 349.517 810.693 319.102C855.621 287.876 908.909 280.236 961.661 265.703Z" stroke="url(#paint96_linear_16_195)" stroke-width="3"/>
<path opacity="0.98" fill-rule="evenodd" clip-rule="evenodd" d="M957.014 266.987C1039.17 242.799 1128.4 160.784 1200.4 207.139C1270.25 252.1 1218.03 366.597 1237.27 447.393C1255.14 522.468 1321.27 585.545 1308.64 661.677C1295.15 742.963 1239.15 814.967 1169.09 858.351C1100.39 900.888 1014.24 909.53 935.155 892.944C863.685 877.954 814.916 818.977 758.77 772.292C704.726 727.356 624.227 695.579 614.146 626.029C604.045 556.352 673.338 503.624 711.222 444.275C739.753 399.577 764.727 353.767 807.739 322.743C851.896 290.893 904.781 282.365 957.014 266.987Z" stroke="url(#paint97_linear_16_195)" stroke-width="3"/>
<path opacity="0.99" fill-rule="evenodd" clip-rule="evenodd" d="M952.352 268.411C1033.67 242.918 1121.01 159.763 1193.46 204.635C1263.73 248.158 1213.76 362.99 1234.31 443.047C1253.4 517.436 1320.28 579.049 1309.04 655.02C1297.03 736.134 1242.56 808.75 1173.61 853.135C1106.01 896.652 1020.44 906.747 941.474 891.617C870.109 877.944 820.564 820.109 763.894 774.633C709.345 730.86 628.706 700.64 617.468 631.614C606.209 562.46 674.233 508.792 710.892 449.082C738.503 404.112 762.554 358.097 804.807 326.482C848.186 294.023 900.653 284.619 952.352 268.411Z" stroke="url(#paint98_linear_16_195)" stroke-width="3"/>
<path fill-rule="evenodd" clip-rule="evenodd" d="M947.679 269.976C1028.14 243.198 1113.59 158.944 1186.45 202.332C1257.11 244.417 1209.39 359.539 1231.22 438.837C1251.5 512.521 1319.12 572.663 1309.25 648.447C1298.71 729.362 1245.79 802.56 1177.96 847.919C1111.45 892.391 1026.5 903.922 947.679 890.24C876.442 877.874 826.147 821.191 768.977 776.927C713.949 734.321 633.197 705.654 620.818 637.169C608.417 568.559 675.16 513.979 710.594 453.933C737.282 408.709 760.411 362.507 801.898 330.317C844.492 297.268 896.526 287 947.679 269.976Z" stroke="url(#paint99_linear_16_195)" stroke-width="3"/>
<defs>
<linearGradient id="paint0_linear_16_195" x1="1115.43" y1="595.978" x2="80.7929" y2="432.107" gradientUnits="userSpaceOnUse">
<stop stop-color="#00A3FF"/>
<stop offset="1" stop-color="#0D34A0"/>
</linearGradient>
<linearGradient id="paint1_linear_16_195" x1="1121.26" y1="590.347" x2="87.3413" y2="445.039" gradientUnits="userSpaceOnUse">
<stop stop-color="#00A3FF"/>
<stop offset="1" stop-color="#0D34A0"/>
</linearGradient>
<linearGradient id="paint2_linear_16_195" x1="1126.93" y1="584.641" x2="94.0622" y2="457.821" gradientUnits="userSpaceOnUse">
<stop stop-color="#00A3FF"/>
<stop offset="1" stop-color="#0D34A0"/>
</linearGradient>
<linearGradient id="paint3_linear_16_195" x1="1132.44" y1="578.864" x2="100.952" y2="470.45" gradientUnits="userSpaceOnUse">
<stop stop-color="#00A3FF"/>
<stop offset="1" stop-color="#0D34A0"/>
</linearGradient>
<linearGradient id="paint4_linear_16_195" x1="1137.79" y1="573.02" x2="108.007" y2="482.925" gradientUnits="userSpaceOnUse">
<stop stop-color="#00A3FF"/>
<stop offset="1" stop-color="#0D34A0"/>
</linearGradient>
<linearGradient id="paint5_linear_16_195" x1="1142.98" y1="567.111" x2="115.224" y2="495.243" gradientUnits="userSpaceOnUse">
<stop stop-color="#00A3FF"/>
<stop offset="1" stop-color="#0D34A0"/>
</linearGradient>
<linearGradient id="paint6_linear_16_195" x1="1148" y1="561.141" x2="122.598" y2="507.402" gradientUnits="userSpaceOnUse">
<stop stop-color="#00A3FF"/>
<stop offset="1" stop-color="#0D34A0"/>
</linearGradient>
<linearGradient id="paint7_linear_16_195" x1="1152.86" y1="555.113" x2="130.126" y2="519.399" gradientUnits="userSpaceOnUse">
<stop stop-color="#00A3FF"/>
<stop offset="1" stop-color="#0D34A0"/>
</linearGradient>
<linearGradient id="paint8_linear_16_195" x1="1157.55" y1="549.031" x2="137.804" y2="531.232" gradientUnits="userSpaceOnUse">
<stop stop-color="#00A3FF"/>
<stop offset="1" stop-color="#0D34A0"/>
</linearGradient>
<linearGradient id="paint9_linear_16_195" x1="1162.07" y1="542.899" x2="145.628" y2="542.899" gradientUnits="userSpaceOnUse">
<stop stop-color="#00A3FF"/>
<stop offset="1" stop-color="#0D34A0"/>
</linearGradient>
<linearGradient id="paint10_linear_16_195" x1="1166.43" y1="536.719" x2="153.593" y2="554.398" gradientUnits="userSpaceOnUse">
<stop stop-color="#00A3FF"/>
<stop offset="1" stop-color="#0D34A0"/>
</linearGradient>
<linearGradient id="paint11_linear_16_195" x1="1170.62" y1="530.495" x2="161.697" y2="565.727" gradientUnits="userSpaceOnUse">
<stop stop-color="#00A3FF"/>
<stop offset="1" stop-color="#0D34A0"/>
</linearGradient>
<linearGradient id="paint12_linear_16_195" x1="1174.63" y1="524.231" x2="169.934" y2="576.885" gradientUnits="userSpaceOnUse">
<stop stop-color="#00A3FF"/>
<stop offset="1" stop-color="#0D34A0"/>
</linearGradient>
<linearGradient id="paint13_linear_16_195" x1="1178.48" y1="517.929" x2="178.301" y2="587.869" gradientUnits="userSpaceOnUse">
<stop stop-color="#00A3FF"/>
<stop offset="1" stop-color="#0D34A0"/>
</linearGradient>
<linearGradient id="paint14_linear_16_195" x1="1182.16" y1="511.595" x2="186.793" y2="598.678" gradientUnits="userSpaceOnUse">
<stop stop-color="#00A3FF"/>
<stop offset="1" stop-color="#0D34A0"/>
</linearGradient>
<linearGradient id="paint15_linear_16_195" x1="1185.67" y1="505.23" x2="195.408" y2="609.311" gradientUnits="userSpaceOnUse">
<stop stop-color="#00A3FF"/>
<stop offset="1" stop-color="#0D34A0"/>
</linearGradient>
<linearGradient id="paint16_linear_16_195" x1="1189" y1="498.839" x2="204.139" y2="619.765" gradientUnits="userSpaceOnUse">
<stop stop-color="#00A3FF"/>
<stop offset="1" stop-color="#0D34A0"/>
</linearGradient>
<linearGradient id="paint17_linear_16_195" x1="1192.17" y1="492.425" x2="212.985" y2="630.04" gradientUnits="userSpaceOnUse">
<stop stop-color="#00A3FF"/>
<stop offset="1" stop-color="#0D34A0"/>
</linearGradient>
<linearGradient id="paint18_linear_16_195" x1="1195.16" y1="485.992" x2="221.94" y2="640.135" gradientUnits="userSpaceOnUse">
<stop stop-color="#00A3FF"/>
<stop offset="1" stop-color="#0D34A0"/>
</linearGradient>
<linearGradient id="paint19_linear_16_195" x1="1197.98" y1="479.543" x2="231" y2="650.047" gradientUnits="userSpaceOnUse">
<stop stop-color="#00A3FF"/>
<stop offset="1" stop-color="#0D34A0"/>
</linearGradient>
<linearGradient id="paint20_linear_16_195" x1="1200.63" y1="473.081" x2="240.162" y2="659.777" gradientUnits="userSpaceOnUse">
<stop stop-color="#00A3FF"/>
<stop offset="1" stop-color="#0D34A0"/>
</linearGradient>
<linearGradient id="paint21_linear_16_195" x1="1203.1" y1="466.611" x2="249.42" y2="669.322" gradientUnits="userSpaceOnUse">
<stop stop-color="#00A3FF"/>
<stop offset="1" stop-color="#0D34A0"/>
</linearGradient>
<linearGradient id="paint22_linear_16_195" x1="1205.4" y1="460.135" x2="258.771" y2="678.683" gradientUnits="userSpaceOnUse">
<stop stop-color="#00A3FF"/>
<stop offset="1" stop-color="#0D34A0"/>
</linearGradient>
<linearGradient id="paint23_linear_16_195" x1="1207.53" y1="453.658" x2="268.21" y2="687.857" gradientUnits="userSpaceOnUse">
<stop stop-color="#00A3FF"/>
<stop offset="1" stop-color="#0D34A0"/>
</linearGradient>
<linearGradient id="paint24_linear_16_195" x1="1209.49" y1="447.183" x2="277.735" y2="696.846" gradientUnits="userSpaceOnUse">
<stop stop-color="#00A3FF"/>
<stop offset="1" stop-color="#0D34A0"/>
</linearGradient>
<linearGradient id="paint25_linear_16_195" x1="1211.27" y1="440.712" x2="287.339" y2="705.647" gradientUnits="userSpaceOnUse">
<stop stop-color="#00A3FF"/>
<stop offset="1" stop-color="#0D34A0"/>
</linearGradient>
<linearGradient id="paint26_linear_16_195" x1="1212.89" y1="434.251" x2="297.02" y2="714.26" gradientUnits="userSpaceOnUse">
<stop stop-color="#00A3FF"/>
<stop offset="1" stop-color="#0D34A0"/>
</linearGradient>
<linearGradient id="paint27_linear_16_195" x1="1214.33" y1="427.802" x2="306.773" y2="722.685" gradientUnits="userSpaceOnUse">
<stop stop-color="#00A3FF"/>
<stop offset="1" stop-color="#0D34A0"/>
</linearGradient>
<linearGradient id="paint28_linear_16_195" x1="1215.6" y1="421.369" x2="316.594" y2="730.921" gradientUnits="userSpaceOnUse">
<stop stop-color="#00A3FF"/>
<stop offset="1" stop-color="#0D34A0"/>
</linearGradient>
<linearGradient id="paint29_linear_16_195" x1="1216.7" y1="414.954" x2="326.478" y2="738.968" gradientUnits="userSpaceOnUse">
<stop stop-color="#00A3FF"/>
<stop offset="1" stop-color="#0D34A0"/>
</linearGradient>
<linearGradient id="paint30_linear_16_195" x1="1217.63" y1="408.563" x2="336.422" y2="746.826" gradientUnits="userSpaceOnUse">
<stop stop-color="#00A3FF"/>
<stop offset="1" stop-color="#0D34A0"/>
</linearGradient>
<linearGradient id="paint31_linear_16_195" x1="1218.39" y1="402.198" x2="346.422" y2="754.494" gradientUnits="userSpaceOnUse">
<stop stop-color="#00A3FF"/>
<stop offset="1" stop-color="#0D34A0"/>
</linearGradient>
<linearGradient id="paint32_linear_16_195" x1="1218.98" y1="395.863" x2="356.474" y2="761.973" gradientUnits="userSpaceOnUse">
<stop stop-color="#00A3FF"/>
<stop offset="1" stop-color="#0D34A0"/>
</linearGradient>
<linearGradient id="paint33_linear_16_195" x1="1219.4" y1="389.561" x2="366.573" y2="769.263" gradientUnits="userSpaceOnUse">
<stop stop-color="#00A3FF"/>
<stop offset="1" stop-color="#0D34A0"/>
</linearGradient>
<linearGradient id="paint34_linear_16_195" x1="1219.65" y1="383.295" x2="376.715" y2="776.363" gradientUnits="userSpaceOnUse">
<stop stop-color="#00A3FF"/>
<stop offset="1" stop-color="#0D34A0"/>
</linearGradient>
<linearGradient id="paint35_linear_16_195" x1="1219.74" y1="377.069" x2="386.896" y2="783.274" gradientUnits="userSpaceOnUse">
<stop stop-color="#00A3FF"/>
<stop offset="1" stop-color="#0D34A0"/>
</linearGradient>
<linearGradient id="paint36_linear_16_195" x1="1219.66" y1="370.886" x2="397.113" y2="789.996" gradientUnits="userSpaceOnUse">
<stop stop-color="#00A3FF"/>
<stop offset="1" stop-color="#0D34A0"/>
</linearGradient>
<linearGradient id="paint37_linear_16_195" x1="1219.42" y1="364.751" x2="407.362" y2="796.53" gradientUnits="userSpaceOnUse">
<stop stop-color="#00A3FF"/>
<stop offset="1" stop-color="#0D34A0"/>
</linearGradient>
<linearGradient id="paint38_linear_16_195" x1="1219.02" y1="358.664" x2="417.637" y2="802.876" gradientUnits="userSpaceOnUse">
<stop stop-color="#00A3FF"/>
<stop offset="1" stop-color="#0D34A0"/>
</linearGradient>
<linearGradient id="paint39_linear_16_195" x1="1218.45" y1="352.632" x2="427.936" y2="809.034" gradientUnits="userSpaceOnUse">
<stop stop-color="#00A3FF"/>
<stop offset="1" stop-color="#0D34A0"/>
</linearGradient>
<linearGradient id="paint40_linear_16_195" x1="1217.72" y1="346.655" x2="438.254" y2="815.006" gradientUnits="userSpaceOnUse">
<stop stop-color="#00A3FF"/>
<stop offset="1" stop-color="#0D34A0"/>
</linearGradient>
<linearGradient id="paint41_linear_16_195" x1="1216.83" y1="340.739" x2="448.588" y2="820.791" gradientUnits="userSpaceOnUse">
<stop stop-color="#00A3FF"/>
<stop offset="1" stop-color="#0D34A0"/>
</linearGradient>
<linearGradient id="paint42_linear_16_195" x1="1215.78" y1="334.886" x2="458.934" y2="826.391" gradientUnits="userSpaceOnUse">
<stop stop-color="#00A3FF"/>
<stop offset="1" stop-color="#0D34A0"/>
</linearGradient>
<linearGradient id="paint43_linear_16_195" x1="1214.58" y1="329.098" x2="469.287" y2="831.806" gradientUnits="userSpaceOnUse">
<stop stop-color="#00A3FF"/>
<stop offset="1" stop-color="#0D34A0"/>
</linearGradient>
<linearGradient id="paint44_linear_16_195" x1="1213.22" y1="323.381" x2="479.644" y2="837.037" gradientUnits="userSpaceOnUse">
<stop stop-color="#00A3FF"/>
<stop offset="1" stop-color="#0D34A0"/>
</linearGradient>
<linearGradient id="paint45_linear_16_195" x1="1211.71" y1="317.735" x2="490.002" y2="842.085" gradientUnits="userSpaceOnUse">
<stop stop-color="#00A3FF"/>
<stop offset="1" stop-color="#0D34A0"/>
</linearGradient>
<linearGradient id="paint46_linear_16_195" x1="1210.04" y1="312.166" x2="500.356" y2="846.952" gradientUnits="userSpaceOnUse">
<stop stop-color="#00A3FF"/>
<stop offset="1" stop-color="#0D34A0"/>
</linearGradient>
<linearGradient id="paint47_linear_16_195" x1="1208.23" y1="306.675" x2="510.703" y2="851.639" gradientUnits="userSpaceOnUse">
<stop stop-color="#00A3FF"/>
<stop offset="1" stop-color="#0D34A0"/>
</linearGradient>
<linearGradient id="paint48_linear_16_195" x1="1206.26" y1="301.265" x2="521.04" y2="856.146" gradientUnits="userSpaceOnUse">
<stop stop-color="#00A3FF"/>
<stop offset="1" stop-color="#0D34A0"/>
</linearGradient>
<linearGradient id="paint49_linear_16_195" x1="1204.15" y1="295.941" x2="531.362" y2="860.475" gradientUnits="userSpaceOnUse">
<stop stop-color="#00A3FF"/>
<stop offset="1" stop-color="#0D34A0"/>
</linearGradient>
<linearGradient id="paint50_linear_16_195" x1="1201.89" y1="290.704" x2="541.666" y2="864.627" gradientUnits="userSpaceOnUse">
<stop stop-color="#00A3FF"/>
<stop offset="1" stop-color="#0D34A0"/>
</linearGradient>
<linearGradient id="paint51_linear_16_195" x1="1199.49" y1="285.557" x2="551.948" y2="868.604" gradientUnits="userSpaceOnUse">
<stop stop-color="#00A3FF"/>
<stop offset="1" stop-color="#0D34A0"/>
</linearGradient>
<linearGradient id="paint52_linear_16_195" x1="1196.94" y1="280.504" x2="562.205" y2="872.408" gradientUnits="userSpaceOnUse">
<stop stop-color="#00A3FF"/>
<stop offset="1" stop-color="#0D34A0"/>
</linearGradient>
<linearGradient id="paint53_linear_16_195" x1="1194.26" y1="275.548" x2="572.434" y2="876.039" gradientUnits="userSpaceOnUse">
<stop stop-color="#00A3FF"/>
<stop offset="1" stop-color="#0D34A0"/>
</linearGradient>
<linearGradient id="paint54_linear_16_195" x1="1191.44" y1="270.691" x2="582.632" y2="879.5" gradientUnits="userSpaceOnUse">
<stop stop-color="#00A3FF"/>
<stop offset="1" stop-color="#0D34A0"/>
</linearGradient>
<linearGradient id="paint55_linear_16_195" x1="1188.49" y1="265.935" x2="592.794" y2="882.791" gradientUnits="userSpaceOnUse">
<stop stop-color="#00A3FF"/>
<stop offset="1" stop-color="#0D34A0"/>
</linearGradient>
<linearGradient id="paint56_linear_16_195" x1="1185.4" y1="261.284" x2="602.917" y2="885.916" gradientUnits="userSpaceOnUse">
<stop stop-color="#00A3FF"/>
<stop offset="1" stop-color="#0D34A0"/>
</linearGradient>
<linearGradient id="paint57_linear_16_195" x1="1182.18" y1="256.74" x2="612.999" y2="888.876" gradientUnits="userSpaceOnUse">
<stop stop-color="#00A3FF"/>
<stop offset="1" stop-color="#0D34A0"/>
</linearGradient>
<linearGradient id="paint58_linear_16_195" x1="1178.83" y1="252.306" x2="623.036" y2="891.672" gradientUnits="userSpaceOnUse">
<stop stop-color="#00A3FF"/>
<stop offset="1" stop-color="#0D34A0"/>
</linearGradient>
<linearGradient id="paint59_linear_16_195" x1="1175.35" y1="247.985" x2="633.025" y2="894.307" gradientUnits="userSpaceOnUse">
<stop stop-color="#00A3FF"/>
<stop offset="1" stop-color="#0D34A0"/>
</linearGradient>
<linearGradient id="paint60_linear_16_195" x1="1171.75" y1="243.779" x2="642.962" y2="896.782" gradientUnits="userSpaceOnUse">
<stop stop-color="#00A3FF"/>
<stop offset="1" stop-color="#0D34A0"/>
</linearGradient>
<linearGradient id="paint61_linear_16_195" x1="1168.03" y1="239.69" x2="652.846" y2="899.1" gradientUnits="userSpaceOnUse">
<stop stop-color="#00A3FF"/>
<stop offset="1" stop-color="#0D34A0"/>
</linearGradient>
<linearGradient id="paint62_linear_16_195" x1="1164.19" y1="235.721" x2="662.672" y2="901.263" gradientUnits="userSpaceOnUse">
<stop stop-color="#00A3FF"/>
<stop offset="1" stop-color="#0D34A0"/>
</linearGradient>
<linearGradient id="paint63_linear_16_195" x1="1160.24" y1="231.874" x2="672.439" y2="903.273" gradientUnits="userSpaceOnUse">
<stop stop-color="#00A3FF"/>
<stop offset="1" stop-color="#0D34A0"/>
</linearGradient>
<linearGradient id="paint64_linear_16_195" x1="1156.17" y1="228.151" x2="682.142" y2="905.131" gradientUnits="userSpaceOnUse">
<stop stop-color="#00A3FF"/>
<stop offset="1" stop-color="#0D34A0"/>
</linearGradient>
<linearGradient id="paint65_linear_16_195" x1="1151.99" y1="224.556" x2="691.78" y2="906.842" gradientUnits="userSpaceOnUse">
<stop stop-color="#00A3FF"/>
<stop offset="1" stop-color="#0D34A0"/>
</linearGradient>
<linearGradient id="paint66_linear_16_195" x1="1147.7" y1="221.09" x2="701.35" y2="908.406" gradientUnits="userSpaceOnUse">
<stop stop-color="#00A3FF"/>
<stop offset="1" stop-color="#0D34A0"/>
</linearGradient>
<linearGradient id="paint67_linear_16_195" x1="1143.3" y1="217.755" x2="710.848" y2="909.826" gradientUnits="userSpaceOnUse">
<stop stop-color="#00A3FF"/>
<stop offset="1" stop-color="#0D34A0"/>
</linearGradient>
<linearGradient id="paint68_linear_16_195" x1="1138.8" y1="214.553" x2="720.273" y2="911.105" gradientUnits="userSpaceOnUse">
<stop stop-color="#00A3FF"/>
<stop offset="1" stop-color="#0D34A0"/>
</linearGradient>
<linearGradient id="paint69_linear_16_195" x1="1134.2" y1="211.486" x2="729.621" y2="912.245" gradientUnits="userSpaceOnUse">
<stop stop-color="#00A3FF"/>
<stop offset="1" stop-color="#0D34A0"/>
</linearGradient>
<linearGradient id="paint70_linear_16_195" x1="1129.51" y1="208.557" x2="738.891" y2="913.249" gradientUnits="userSpaceOnUse">
<stop stop-color="#00A3FF"/>
<stop offset="1" stop-color="#0D34A0"/>
</linearGradient>
<linearGradient id="paint71_linear_16_195" x1="1124.72" y1="205.768" x2="748.079" y2="914.119" gradientUnits="userSpaceOnUse">
<stop stop-color="#00A3FF"/>
<stop offset="1" stop-color="#0D34A0"/>
</linearGradient>
<linearGradient id="paint72_linear_16_195" x1="1119.83" y1="203.119" x2="757.184" y2="914.858" gradientUnits="userSpaceOnUse">
<stop stop-color="#00A3FF"/>
<stop offset="1" stop-color="#0D34A0"/>
</linearGradient>
<linearGradient id="paint73_linear_16_195" x1="1114.86" y1="200.614" x2="766.204" y2="915.468" gradientUnits="userSpaceOnUse">
<stop stop-color="#00A3FF"/>
<stop offset="1" stop-color="#0D34A0"/>
</linearGradient>
<linearGradient id="paint74_linear_16_195" x1="1109.8" y1="198.253" x2="775.135" y2="915.953" gradientUnits="userSpaceOnUse">
<stop stop-color="#00A3FF"/>
<stop offset="1" stop-color="#0D34A0"/>
</linearGradient>
<linearGradient id="paint75_linear_16_195" x1="1104.66" y1="196.039" x2="783.976" y2="916.314" gradientUnits="userSpaceOnUse">
<stop stop-color="#00A3FF"/>
<stop offset="1" stop-color="#0D34A0"/>
</linearGradient>
<linearGradient id="paint76_linear_16_195" x1="1099.44" y1="193.972" x2="792.724" y2="916.555" gradientUnits="userSpaceOnUse">
<stop stop-color="#00A3FF"/>
<stop offset="1" stop-color="#0D34A0"/>
</linearGradient>
<linearGradient id="paint77_linear_16_195" x1="1094.15" y1="192.056" x2="801.379" y2="916.678" gradientUnits="userSpaceOnUse">
<stop stop-color="#00A3FF"/>
<stop offset="1" stop-color="#0D34A0"/>
</linearGradient>
<linearGradient id="paint78_linear_16_195" x1="1088.78" y1="190.291" x2="809.938" y2="916.687" gradientUnits="userSpaceOnUse">
<stop stop-color="#00A3FF"/>
<stop offset="1" stop-color="#0D34A0"/>
</linearGradient>
<linearGradient id="paint79_linear_16_195" x1="1083.33" y1="188.678" x2="818.398" y2="916.584" gradientUnits="userSpaceOnUse">
<stop stop-color="#00A3FF"/>
<stop offset="1" stop-color="#0D34A0"/>
</linearGradient>
<linearGradient id="paint80_linear_16_195" x1="1077.83" y1="187.22" x2="826.758" y2="916.371" gradientUnits="userSpaceOnUse">
<stop stop-color="#00A3FF"/>
<stop offset="1" stop-color="#0D34A0"/>
</linearGradient>
<linearGradient id="paint81_linear_16_195" x1="1072.25" y1="185.916" x2="835.017" y2="916.053" gradientUnits="userSpaceOnUse">
<stop stop-color="#00A3FF"/>
<stop offset="1" stop-color="#0D34A0"/>
</linearGradient>
<linearGradient id="paint82_linear_16_195" x1="1066.62" y1="184.77" x2="843.173" y2="915.632" gradientUnits="userSpaceOnUse">
<stop stop-color="#00A3FF"/>
<stop offset="1" stop-color="#0D34A0"/>
</linearGradient>
<linearGradient id="paint83_linear_16_195" x1="1060.93" y1="183.781" x2="851.223" y2="915.111" gradientUnits="userSpaceOnUse">
<stop stop-color="#00A3FF"/>
<stop offset="1" stop-color="#0D34A0"/>
</linearGradient>
<linearGradient id="paint84_linear_16_195" x1="1055.18" y1="182.951" x2="859.168" y2="914.492" gradientUnits="userSpaceOnUse">
<stop stop-color="#00A3FF"/>
<stop offset="1" stop-color="#0D34A0"/>
</linearGradient>
<linearGradient id="paint85_linear_16_195" x1="1049.39" y1="182.281" x2="867.005" y2="913.78" gradientUnits="userSpaceOnUse">
<stop stop-color="#00A3FF"/>
<stop offset="1" stop-color="#0D34A0"/>
</linearGradient>
<linearGradient id="paint86_linear_16_195" x1="1043.54" y1="181.772" x2="874.733" y2="912.977" gradientUnits="userSpaceOnUse">
<stop stop-color="#00A3FF"/>
<stop offset="1" stop-color="#0D34A0"/>
</linearGradient>
<linearGradient id="paint87_linear_16_195" x1="1037.66" y1="181.425" x2="882.349" y2="912.086" gradientUnits="userSpaceOnUse">
<stop stop-color="#00A3FF"/>
<stop offset="1" stop-color="#0D34A0"/>
</linearGradient>
<linearGradient id="paint88_linear_16_195" x1="1031.73" y1="181.241" x2="889.855" y2="911.109" gradientUnits="userSpaceOnUse">
<stop stop-color="#00A3FF"/>
<stop offset="1" stop-color="#0D34A0"/>
</linearGradient>
<linearGradient id="paint89_linear_16_195" x1="1025.76" y1="181.22" x2="897.247" y2="910.051" gradientUnits="userSpaceOnUse">
<stop stop-color="#00A3FF"/>
<stop offset="1" stop-color="#0D34A0"/>
</linearGradient>
<linearGradient id="paint90_linear_16_195" x1="1019.76" y1="181.364" x2="904.525" y2="908.915" gradientUnits="userSpaceOnUse">
<stop stop-color="#00A3FF"/>
<stop offset="1" stop-color="#0D34A0"/>
</linearGradient>
<linearGradient id="paint91_linear_16_195" x1="1013.73" y1="181.672" x2="911.689" y2="907.702" gradientUnits="userSpaceOnUse">
<stop stop-color="#00A3FF"/>
<stop offset="1" stop-color="#0D34A0"/>
</linearGradient>
<linearGradient id="paint92_linear_16_195" x1="1007.67" y1="182.146" x2="918.737" y2="906.418" gradientUnits="userSpaceOnUse">
<stop stop-color="#00A3FF"/>
<stop offset="1" stop-color="#0D34A0"/>
</linearGradient>
<linearGradient id="paint93_linear_16_195" x1="1001.58" y1="182.787" x2="925.667" y2="905.064" gradientUnits="userSpaceOnUse">
<stop stop-color="#00A3FF"/>
<stop offset="1" stop-color="#0D34A0"/>
</linearGradient>
<linearGradient id="paint94_linear_16_195" x1="995.477" y1="183.593" x2="932.481" y2="903.644" gradientUnits="userSpaceOnUse">
<stop stop-color="#00A3FF"/>
<stop offset="1" stop-color="#0D34A0"/>
</linearGradient>
<linearGradient id="paint95_linear_16_195" x1="989.356" y1="184.567" x2="939.177" y2="902.161" gradientUnits="userSpaceOnUse">
<stop stop-color="#00A3FF"/>
<stop offset="1" stop-color="#0D34A0"/>
</linearGradient>
<linearGradient id="paint96_linear_16_195" x1="983.22" y1="185.707" x2="945.753" y2="900.618" gradientUnits="userSpaceOnUse">
<stop stop-color="#00A3FF"/>
<stop offset="1" stop-color="#0D34A0"/>
</linearGradient>
<linearGradient id="paint97_linear_16_195" x1="977.074" y1="187.015" x2="952.21" y2="899.019" gradientUnits="userSpaceOnUse">
<stop stop-color="#00A3FF"/>
<stop offset="1" stop-color="#0D34A0"/>
</linearGradient>
<linearGradient id="paint98_linear_16_195" x1="970.921" y1="188.491" x2="958.548" y2="897.366" gradientUnits="userSpaceOnUse">
<stop stop-color="#00A3FF"/>
<stop offset="1" stop-color="#0D34A0"/>
</linearGradient>
<linearGradient id="paint99_linear_16_195" x1="964.765" y1="190.135" x2="964.765" y2="895.663" gradientUnits="userSpaceOnUse">
<stop stop-color="#00A3FF"/>
<stop offset="1" stop-color="#0D34A0"/>
</linearGradient>
</defs>
</svg>
