<svg width="660" height="989" viewBox="0 0 660 989" fill="none" xmlns="http://www.w3.org/2000/svg">
<mask id="mask0_222_1678" style="mask-type:alpha" maskUnits="userSpaceOnUse" x="0" y="0" width="809" height="989">
<path d="M42.5 238L225.5 0.5L611.5 71.5L808.5 572L419 989L129.5 791.5L0 645.5L42.5 238Z" fill="url(#paint0_linear_222_1678)"/>
</mask>
<g mask="url(#mask0_222_1678)">
<path opacity="0.01" fill-rule="evenodd" clip-rule="evenodd" d="M232.343 450.204C252.795 575.226 356.367 720.977 275.7 818.477C197.458 913.047 39.794 815.846 -81.6006 829.66C-194.399 842.496 -298.408 928.363 -407.237 896.191C-523.431 861.841 -618.396 766.687 -669.051 655.997C-718.715 547.469 -715.758 419.351 -677.258 306.137C-642.464 203.821 -547.577 142.722 -469.296 68.5867C-393.946 -2.77254 -333.021 -115.351 -229.694 -117.723C-126.179 -120.099 -61.7479 -8.8695 18.0214 57.3997C78.1 107.311 140.444 152.193 177.948 220.93C216.451 291.499 219.34 370.719 232.343 450.204Z" stroke="url(#paint1_linear_222_1678)" stroke-width="3"/>
<path opacity="0.02" fill-rule="evenodd" clip-rule="evenodd" d="M237.801 446.692C260.358 570.922 366.108 714.362 287.417 812.924C211.09 908.524 52.2792 814.404 -68.4561 830.281C-180.642 845.033 -282.798 932.408 -391.811 902.241C-508.202 870.032 -604.495 776.861 -656.901 667.438C-708.283 560.153 -707.565 432.432 -671.168 318.945C-638.275 216.382 -544.778 153.846 -468.057 78.6085C-394.209 6.18858 -335.453 -107.056 -232.525 -111.216C-129.408 -115.384 -63.2634 -5.6632 17.3838 58.9874C78.1236 107.679 141.033 151.321 179.604 219.166C219.203 288.819 223.459 367.711 237.801 446.692Z" stroke="url(#paint2_linear_222_1678)" stroke-width="3"/>
<path opacity="0.03" fill-rule="evenodd" clip-rule="evenodd" d="M243.139 443.105C267.78 566.507 375.66 707.606 298.956 807.19C224.557 903.782 64.6582 812.754 -55.3829 830.674C-166.924 847.325 -267.206 936.171 -376.366 908.005C-492.915 877.932 -590.496 786.763 -644.625 678.635C-697.696 572.619 -699.202 445.334 -664.906 331.611C-633.912 228.836 -541.826 164.894 -466.68 88.5861C-394.348 15.1361 -337.766 -98.7326 -235.266 -104.668C-132.578 -110.614 -64.7539 -2.42866 16.7391 60.5929C78.1159 108.058 141.567 150.453 181.185 217.389C221.859 286.109 227.473 364.65 243.139 443.105Z" stroke="url(#paint3_linear_222_1678)" stroke-width="3"/>
<path opacity="0.04" fill-rule="evenodd" clip-rule="evenodd" d="M248.356 439.447C275.059 561.986 385.019 700.712 310.314 801.28C237.854 898.825 76.9265 810.898 -42.386 830.843C-153.25 849.375 -251.638 939.652 -360.909 913.483C-477.577 885.542 -576.405 796.391 -632.227 689.585C-686.958 584.865 -690.675 458.053 -658.476 344.135C-629.378 241.182 -538.725 175.863 -465.167 98.5175C-394.364 24.0681 -339.959 -90.3839 -237.919 -98.0808C-135.691 -105.792 -66.2199 0.833893 16.0866 62.2167C78.0762 108.447 142.045 149.59 182.69 215.602C224.418 283.372 231.38 361.54 248.356 439.447Z" stroke="url(#paint4_linear_222_1678)" stroke-width="3"/>
<path opacity="0.05" fill-rule="evenodd" clip-rule="evenodd" d="M253.452 435.718C282.193 557.36 394.184 693.685 321.489 795.196C250.979 893.658 89.0817 808.84 -29.4683 830.788C-139.624 851.183 -236.098 942.852 -345.444 918.675C-462.192 892.863 -562.227 805.744 -619.713 700.286C-676.075 596.887 -681.985 470.588 -651.881 356.512C-624.674 253.416 -535.474 186.752 -463.518 108.4C-394.257 32.982 -342.033 -82.012 -240.482 -91.4562C-138.745 -100.918 -67.66 4.12364 15.4279 63.8585C78.0058 108.848 142.467 148.733 184.119 213.805C226.881 280.611 235.179 358.381 253.452 435.718Z" stroke="url(#paint5_linear_222_1678)" stroke-width="3"/>
<path opacity="0.06" fill-rule="evenodd" clip-rule="evenodd" d="M258.423 431.922C289.181 552.634 403.152 686.528 332.477 788.944C263.926 888.283 101.119 806.581 -16.6348 830.514C-126.051 852.752 -220.593 945.773 -329.978 923.584C-446.767 899.893 -547.968 814.823 -607.087 710.737C-665.052 608.685 -673.138 482.936 -645.124 368.74C-619.806 265.536 -532.077 197.557 -461.736 118.231C-394.028 41.8762 -343.988 -73.6188 -242.956 -84.7954C-141.739 -95.9926 -69.0749 7.44051 14.7618 65.5189C77.9039 109.261 142.834 147.884 185.472 212.001C229.247 277.827 238.869 355.177 258.423 431.922Z" stroke="url(#paint6_linear_222_1678)" stroke-width="3"/>
<path opacity="0.07" fill-rule="evenodd" clip-rule="evenodd" d="M263.269 428.062C296.018 547.81 411.92 679.247 343.274 782.528C276.691 882.707 113.034 804.125 -3.89096 830.021C-112.536 854.083 -205.129 948.418 -314.517 928.21C-431.308 906.634 -533.635 823.626 -594.357 720.939C-653.894 620.257 -664.14 495.095 -638.21 380.818C-614.777 277.541 -528.537 208.277 -459.823 128.01C-393.681 50.7487 -345.825 -65.2062 -245.342 -78.1001C-144.674 -91.0177 -70.4657 10.7842 14.0875 67.1983C77.7692 109.687 143.144 147.043 186.748 210.191C231.515 275.022 242.448 351.93 263.269 428.062Z" stroke="url(#paint7_linear_222_1678)" stroke-width="3"/>
<path opacity="0.08" fill-rule="evenodd" clip-rule="evenodd" d="M267.989 424.141C302.706 542.892 420.487 671.845 353.879 775.952C289.273 876.931 124.824 801.476 8.76053 829.313C-99.0842 855.178 -189.711 950.788 -299.065 932.554C-415.821 913.086 -519.232 832.154 -581.527 730.888C-642.606 631.601 -654.993 507.064 -631.142 392.743C-609.588 289.426 -524.857 218.91 -457.78 137.734C-393.215 59.5973 -347.544 -56.7765 -247.638 -71.372C-147.549 -85.9942 -71.8311 14.1543 13.4062 68.8968C77.603 110.126 143.397 146.213 187.947 208.377C233.684 272.198 245.917 348.642 267.989 424.141Z" stroke="url(#paint8_linear_222_1678)" stroke-width="3"/>
<path opacity="0.09" fill-rule="evenodd" clip-rule="evenodd" d="M272.582 420.16C309.242 537.883 428.85 664.326 364.288 769.219C301.666 870.961 136.485 798.636 21.3153 828.392C-85.6991 856.04 -174.343 952.884 -283.628 936.617C-400.311 919.25 -504.765 840.405 -568.602 740.585C-631.192 642.716 -645.702 518.839 -623.924 404.512C-604.243 301.19 -521.037 229.452 -455.609 147.4C-392.631 68.42 -349.145 -48.3318 -249.846 -64.6127C-150.364 -80.9234 -73.1712 17.5501 12.7176 70.6144C77.4052 110.58 143.595 145.393 189.069 206.56C235.755 269.358 249.274 345.316 272.582 420.16Z" stroke="url(#paint9_linear_222_1678)" stroke-width="3"/>
<path opacity="0.1" fill-rule="evenodd" clip-rule="evenodd" d="M277.046 416.124C315.624 532.787 437.008 656.695 374.499 762.335C313.868 864.801 148.014 795.609 33.7691 827.26C-72.3857 856.671 -159.031 954.709 -268.213 940.402C-384.785 925.126 -490.24 848.38 -555.588 750.029C-619.659 653.599 -636.271 530.419 -616.559 416.124C-598.745 312.83 -517.081 239.903 -453.312 157.007C-391.93 77.2151 -350.63 -39.8741 -251.965 -57.8236C-153.119 -75.806 -74.4862 20.9715 12.0216 72.3516C77.1754 111.049 143.737 144.586 190.113 204.742C237.726 266.502 252.519 341.953 277.046 416.124Z" stroke="url(#paint10_linear_222_1678)" stroke-width="3"/>
<path opacity="0.11" fill-rule="evenodd" clip-rule="evenodd" d="M281.38 412.034C321.85 527.606 444.958 648.957 384.508 755.304C325.875 858.455 159.406 792.396 46.1174 825.921C-59.1489 857.073 -143.782 956.265 -252.825 943.908C-369.248 930.714 -475.664 856.08 -542.49 759.219C-608.011 664.251 -626.707 541.803 -609.052 427.576C-593.098 324.345 -512.993 250.259 -450.891 166.553C-391.115 85.9806 -351.998 -31.4054 -253.995 -51.0064C-155.813 -70.6433 -75.7767 24.4182 11.3176 74.1087C76.913 111.533 143.821 143.792 191.08 202.925C239.597 263.635 255.65 338.556 281.38 412.034Z" stroke="url(#paint11_linear_222_1678)" stroke-width="3"/>
<path opacity="0.12" fill-rule="evenodd" clip-rule="evenodd" d="M285.584 407.893C327.92 522.343 452.7 641.115 394.315 748.129C337.684 851.928 170.659 789.003 58.3574 824.378C-45.9922 857.247 -128.598 957.553 -237.468 947.137C-353.706 936.017 -461.041 863.503 -529.314 768.154C-596.253 674.668 -617.011 552.988 -601.406 438.867C-587.304 335.731 -508.772 260.52 -448.348 176.035C-390.186 94.7146 -353.25 -22.9279 -255.937 -44.1627C-158.446 -65.4364 -77.0415 27.8896 10.6067 75.8857C76.6193 112.034 143.85 143.012 191.969 201.11C241.369 260.757 258.668 335.128 285.584 407.893Z" stroke="url(#paint12_linear_222_1678)" stroke-width="3"/>
<path opacity="0.13" fill-rule="evenodd" clip-rule="evenodd" d="M289.655 403.704C333.83 517.004 460.229 633.174 403.914 740.816C349.291 845.224 181.768 785.433 70.4832 822.632C-32.9219 857.198 -113.488 958.577 -222.15 950.093C-338.167 941.034 -446.379 870.65 -516.065 776.835C-584.391 684.852 -607.191 563.974 -593.627 449.995C-581.368 346.987 -504.425 270.683 -445.686 185.453C-389.146 103.416 -354.388 -14.4431 -257.792 -37.2936C-161.02 -60.186 -78.2828 31.3857 9.88683 77.6833C76.2922 112.553 143.821 142.249 192.778 199.299C243.04 257.87 261.569 331.672 289.655 403.704Z" stroke="url(#paint13_linear_222_1678)" stroke-width="3"/>
<path opacity="0.14" fill-rule="evenodd" clip-rule="evenodd" d="M293.594 399.47C339.581 511.589 467.547 625.139 413.305 733.369C360.694 838.347 192.732 781.687 82.4929 820.688C-19.9403 856.926 -98.4552 959.338 -206.875 952.775C-322.633 945.768 -431.681 877.522 -502.749 785.26C-572.429 694.8 -597.249 574.758 -585.716 460.957C-575.292 358.111 -499.952 280.745 -442.905 194.804C-387.995 112.081 -355.41 -5.95348 -259.558 -30.4013C-163.531 -54.8938 -79.4986 34.9058 9.15995 79.5013C75.9335 113.089 143.737 141.502 193.51 197.494C244.61 254.978 264.357 328.188 293.594 399.47Z" stroke="url(#paint14_linear_222_1678)" stroke-width="3"/>
<path opacity="0.15" fill-rule="evenodd" clip-rule="evenodd" d="M297.399 395.194C345.17 506.104 474.65 617.014 422.486 725.792C371.889 831.303 203.546 777.772 94.3817 818.547C-7.05292 856.436 -83.5046 959.84 -191.648 955.187C-307.111 950.219 -416.954 884.119 -489.371 793.429C-560.373 704.512 -587.191 585.34 -577.678 471.753C-569.08 369.101 -495.356 290.707 -440.009 204.087C-386.735 120.71 -356.32 2.5395 -261.238 -23.4865C-165.982 -49.5602 -80.6901 38.45 8.4249 81.3406C75.5422 113.644 143.596 140.774 194.164 195.696C246.079 252.081 267.028 324.681 297.399 395.194Z" stroke="url(#paint15_linear_222_1678)" stroke-width="3"/>
<path opacity="0.16" fill-rule="evenodd" clip-rule="evenodd" d="M301.071 390.879C350.597 500.552 481.539 608.803 431.454 718.091C382.874 824.095 214.208 773.689 106.147 816.214C5.73715 855.728 -68.6407 960.084 -176.475 957.329C-291.608 954.388 -402.203 890.441 -475.935 801.343C-548.227 713.987 -577.021 595.717 -569.516 482.381C-562.734 379.955 -490.64 300.565 -436.998 213.299C-385.366 129.301 -357.115 11.0336 -262.829 -16.5512C-168.37 -44.1866 -81.8563 42.0177 7.68274 83.201C75.1194 114.218 143.399 140.066 194.739 193.906C247.448 249.182 269.583 321.152 301.071 390.879Z" stroke="url(#paint16_linear_222_1678)" stroke-width="3"/>
<path opacity="0.17" fill-rule="evenodd" clip-rule="evenodd" d="M304.606 386.527C355.86 494.935 488.209 600.511 440.206 710.269C393.645 816.729 224.714 769.442 117.783 813.691C18.4239 854.807 -53.8703 960.074 -161.362 959.205C-276.129 958.278 -387.435 896.489 -462.449 809.002C-535.998 723.224 -566.744 605.889 -561.237 492.839C-556.26 390.671 -485.807 310.318 -433.877 222.44C-383.892 137.852 -357.8 19.5272 -264.335 -9.5967C-170.698 -38.7739 -82.9992 45.6087 6.93154 85.0831C74.6633 114.813 143.145 139.378 195.235 192.128C248.714 246.283 272.02 317.604 304.606 386.527Z" stroke="url(#paint17_linear_222_1678)" stroke-width="3"/>
<path opacity="0.18" fill-rule="evenodd" clip-rule="evenodd" d="M308.007 382.141C360.96 489.259 494.663 592.142 448.742 702.331C404.201 809.21 235.062 765.036 129.289 810.982C31.0059 853.675 -39.1955 959.812 -146.311 960.817C-260.678 961.889 -372.653 902.265 -448.916 816.405C-523.688 732.222 -556.362 615.855 -552.841 503.125C-549.658 401.247 -480.858 319.965 -430.645 231.507C-382.312 146.361 -358.371 28.0182 -265.752 -2.6245C-172.964 -33.3233 -84.1161 49.2227 6.17408 86.9869C74.1765 115.429 142.836 138.712 195.654 190.361C249.88 243.387 274.341 314.039 308.007 382.141Z" stroke="url(#paint18_linear_222_1678)" stroke-width="3"/>
<path opacity="0.19" fill-rule="evenodd" clip-rule="evenodd" d="M311.271 377.725C365.893 483.525 500.897 583.702 457.059 694.283C414.538 801.541 245.248 760.473 140.66 808.09C43.477 852.336 -24.6234 959.301 -131.331 962.166C-245.262 965.224 -357.866 907.769 -435.343 823.553C-511.306 740.982 -545.883 625.614 -544.334 513.24C-542.935 411.682 -475.798 329.504 -427.306 240.499C-380.629 154.827 -358.833 36.5051 -267.084 4.36428C-175.168 -27.8354 -85.2092 52.8596 5.40814 88.9133C73.657 116.067 142.471 138.069 195.994 188.609C250.944 240.495 276.544 310.46 311.271 377.725Z" stroke="url(#paint19_linear_222_1678)" stroke-width="3"/>
<path opacity="0.2" fill-rule="evenodd" clip-rule="evenodd" d="M314.399 373.28C370.659 477.738 506.911 575.195 465.156 686.128C424.655 793.728 255.27 755.758 151.892 805.018C55.8343 850.79 -10.1576 958.544 -116.425 963.255C-229.886 968.284 -343.076 913.001 -421.733 830.445C-498.854 749.503 -535.31 635.164 -535.72 523.179C-536.091 421.975 -470.629 338.933 -423.861 249.414C-378.844 163.248 -359.185 44.9856 -268.33 11.3676C-177.31 -22.3119 -86.2777 56.5185 4.63479 90.8619C73.1059 116.728 142.051 137.451 196.257 186.871C251.907 237.609 278.63 306.87 314.399 373.28Z" stroke="url(#paint20_linear_222_1678)" stroke-width="3"/>
<path opacity="0.21" fill-rule="evenodd" clip-rule="evenodd" d="M317.389 368.811C375.258 471.901 512.704 566.624 473.03 677.871C434.548 785.775 265.125 750.894 162.983 801.769C68.0732 849.043 4.19645 957.544 -101.599 964.086C-214.555 971.071 -328.291 917.963 -408.095 837.083C-486.339 757.784 -524.649 644.505 -527.004 532.944C-529.132 432.122 -465.353 348.251 -420.313 258.251C-376.959 171.622 -359.427 53.4584 -269.491 18.3846C-179.39 -16.7534 -87.3222 60.1998 3.8534 92.8334C72.5227 117.412 141.575 136.858 196.44 185.151C252.768 234.732 280.597 303.27 317.389 368.811Z" stroke="url(#paint21_linear_222_1678)" stroke-width="3"/>
<path opacity="0.22" fill-rule="evenodd" clip-rule="evenodd" d="M320.241 364.32C379.689 466.018 518.274 557.995 480.68 669.517C444.215 777.688 274.811 745.885 173.929 798.348C80.1907 847.097 18.4351 956.304 -86.8568 964.662C-199.276 973.587 -313.515 922.656 -394.43 843.467C-473.765 765.825 -513.902 653.636 -518.187 542.533C-522.06 442.125 -459.974 357.456 -416.664 267.009C-374.975 179.95 -359.562 61.9216 -270.567 25.4138C-181.408 -11.1608 -88.3421 63.903 3.06474 94.8282C71.9082 118.12 141.044 136.292 196.547 183.45C253.529 231.865 282.446 299.663 320.241 364.32Z" stroke="url(#paint22_linear_222_1678)" stroke-width="3"/>
<path opacity="0.23" fill-rule="evenodd" clip-rule="evenodd" d="M322.955 359.809C383.951 460.092 523.622 549.314 488.105 661.072C453.655 769.472 284.324 740.736 184.727 794.758C92.1821 844.955 32.5526 954.828 -72.2046 964.987C-184.053 975.834 -298.755 927.083 -380.747 849.598C-461.137 773.628 -503.076 662.557 -509.276 551.945C-514.88 451.98 -454.495 366.549 -412.916 275.687C-372.895 188.228 -359.59 70.3738 -271.558 32.4542C-183.365 -5.53491 -89.3385 67.6281 2.26779 96.8469C71.2614 118.853 140.457 135.754 196.574 181.77C254.187 229.012 284.176 296.053 322.955 359.809Z" stroke="url(#paint23_linear_222_1678)" stroke-width="3"/>
<path opacity="0.24" fill-rule="evenodd" clip-rule="evenodd" d="M325.531 355.282C388.043 454.126 528.746 540.582 495.303 652.538C462.864 761.131 293.662 735.449 195.374 791.002C104.045 842.62 46.5458 953.118 -57.6462 965.062C-168.891 977.815 -284.015 931.242 -367.049 855.476C-448.461 781.19 -492.175 671.267 -500.274 561.178C-507.593 461.687 -448.917 375.526 -409.072 284.282C-370.719 196.455 -359.511 78.8126 -272.465 39.5035C-185.259 0.122497 -90.3104 71.3742 1.46372 98.8891C70.5838 119.612 139.816 135.245 196.525 180.112C254.745 226.174 285.787 292.44 325.531 355.282Z" stroke="url(#paint24_linear_222_1678)" stroke-width="3"/>
<path opacity="0.25" fill-rule="evenodd" clip-rule="evenodd" d="M327.968 350.743C391.965 448.126 533.646 531.807 502.273 643.923C471.842 752.67 302.824 730.03 205.867 787.084C115.775 840.097 60.4103 951.178 -43.1862 964.891C-153.795 979.532 -269.3 935.138 -353.341 861.103C-435.741 788.514 -481.201 679.766 -491.184 570.234C-500.205 471.245 -443.244 384.387 -405.133 292.794C-368.449 204.631 -359.327 87.2372 -273.288 46.5616C-187.091 5.81146 -91.2578 75.1421 0.652654 100.956C69.8754 120.398 139.122 134.767 196.399 178.478C255.203 223.353 287.281 288.829 327.968 350.743Z" stroke="url(#paint25_linear_222_1678)" stroke-width="3"/>
<path opacity="0.26" fill-rule="evenodd" clip-rule="evenodd" d="M330.265 346.192C395.715 442.093 538.321 522.992 509.013 635.23C480.586 744.095 311.806 724.482 216.202 783.007C127.368 837.388 74.1403 949.012 -28.8308 964.476C-138.772 980.986 -254.616 938.771 -339.63 866.478C-422.983 795.598 -470.163 688.053 -482.011 579.109C-492.719 480.651 -437.48 393.131 -401.103 301.222C-366.088 212.754 -359.04 95.6454 -274.029 53.6262C-188.862 11.5302 -92.1824 78.9306 -0.166883 103.047C69.135 121.211 138.372 134.321 196.195 176.869C255.558 220.551 288.654 285.221 330.265 346.192Z" stroke="url(#paint26_linear_222_1678)" stroke-width="3"/>
<path opacity="0.27" fill-rule="evenodd" clip-rule="evenodd" d="M332.424 341.634C399.295 436.032 542.772 514.142 515.524 626.463C489.094 735.41 320.607 718.809 226.378 778.776C138.822 834.496 87.7334 946.623 -14.5829 963.82C-123.825 982.181 -239.968 942.143 -325.919 871.604C-410.191 802.444 -459.063 696.128 -472.759 587.804C-485.137 489.907 -431.626 401.757 -396.982 309.564C-363.636 220.822 -358.649 104.036 -274.687 60.6966C-190.571 17.2781 -93.0824 82.74 -0.992971 105.164C68.3646 122.052 137.57 133.907 195.915 175.287C255.815 217.77 289.91 281.619 332.424 341.634Z" stroke="url(#paint27_linear_222_1678)" stroke-width="3"/>
<path opacity="0.28" fill-rule="evenodd" clip-rule="evenodd" d="M334.445 337.072C402.703 429.947 546.997 505.261 521.803 617.629C497.366 726.621 329.224 713.016 236.392 774.394C150.133 831.426 101.185 944.015 -0.447393 962.927C-108.959 983.12 -225.361 945.255 -312.214 876.481C-397.37 809.051 -447.905 703.991 -463.432 596.318C-477.464 499.009 -425.686 410.264 -392.774 317.819C-361.094 228.835 -358.155 112.407 -275.262 67.7715C-192.217 23.0544 -93.9584 86.5701 -1.82603 107.305C67.5639 122.922 136.715 133.528 195.559 173.735C255.971 215.013 291.048 278.026 334.445 337.072Z" stroke="url(#paint28_linear_222_1678)" stroke-width="3"/>
<path opacity="0.29" fill-rule="evenodd" clip-rule="evenodd" d="M336.325 332.509C405.94 423.84 550.997 496.355 527.85 608.732C505.398 717.732 337.655 707.106 246.24 769.865C161.298 828.181 114.491 941.191 13.5707 961.8C-94.1803 983.804 -210.8 948.11 -298.52 881.111C-384.526 815.421 -436.695 711.642 -454.033 604.651C-469.703 507.958 -419.662 418.652 -388.48 325.987C-358.466 236.792 -357.561 120.757 -275.756 74.8496C-193.802 28.858 -94.811 90.4206 -2.66649 109.473C66.7326 123.823 135.807 133.184 195.127 172.213C256.028 212.282 292.067 274.443 336.325 332.509Z" stroke="url(#paint29_linear_222_1678)" stroke-width="3"/>
<path opacity="0.3" fill-rule="evenodd" clip-rule="evenodd" d="M338.067 327.946C409.004 417.715 554.77 487.427 533.663 599.776C513.19 708.749 345.899 701.084 255.92 765.193C172.313 824.763 127.646 938.156 27.467 960.442C-79.4933 984.237 -196.291 950.71 -284.842 885.495C-371.663 821.554 -425.437 719.081 -444.568 612.802C-461.858 516.753 -413.558 426.918 -384.104 334.065C-355.753 244.69 -356.867 129.085 -276.17 81.9294C-195.325 34.6877 -95.6402 94.2911 -3.51406 111.667C65.8711 124.753 134.846 132.876 194.619 170.723C255.986 209.578 292.967 270.873 338.067 327.946Z" stroke="url(#paint30_linear_222_1678)" stroke-width="3"/>
<path opacity="0.31" fill-rule="evenodd" clip-rule="evenodd" d="M339.669 323.388C411.895 411.577 558.318 478.484 539.243 590.768C520.74 699.678 353.952 694.953 265.43 760.383C183.176 821.179 140.648 934.912 41.2374 958.857C-64.9025 984.422 -181.838 953.057 -271.185 889.634C-358.786 827.451 -414.135 726.308 -435.04 620.771C-453.932 525.393 -407.376 435.062 -379.648 342.055C-352.957 252.53 -356.074 137.389 -276.503 89.0102C-196.787 40.543 -96.446 98.1819 -4.36863 113.887C64.9798 125.715 133.833 132.606 194.037 169.267C255.844 206.905 293.75 267.32 339.669 323.388Z" stroke="url(#paint31_linear_222_1678)" stroke-width="3"/>
<path opacity="0.32" fill-rule="evenodd" clip-rule="evenodd" d="M341.133 318.837C414.615 405.428 561.64 469.528 544.588 581.71C528.048 690.522 361.815 688.719 274.767 755.437C193.883 817.43 153.493 931.464 54.8779 957.047C-50.4125 984.361 -167.446 955.153 -257.553 893.531C-345.9 833.112 -402.794 733.323 -425.452 628.558C-445.929 533.877 -401.12 443.085 -375.112 349.953C-350.079 260.31 -355.184 145.668 -276.757 96.0906C-198.187 46.4229 -97.2281 102.093 -5.22969 116.134C64.0593 126.709 132.769 132.375 193.379 167.847C255.605 204.263 294.415 263.785 341.133 318.837Z" stroke="url(#paint32_linear_222_1678)" stroke-width="3"/>
<path opacity="0.33" fill-rule="evenodd" clip-rule="evenodd" d="M342.458 314.297C417.162 399.273 564.738 460.565 549.699 572.609C535.112 681.287 369.485 682.385 283.929 750.36C204.432 813.521 166.178 927.817 68.3848 955.017C-36.0277 984.058 -153.12 957.001 -243.952 897.185C-333.009 838.539 -391.418 740.127 -415.809 636.162C-437.851 542.204 -394.791 450.984 -370.501 357.761C-347.12 268.029 -354.196 153.92 -276.931 103.17C-199.525 52.3265 -97.9864 106.023 -6.09674 118.408C63.1103 127.737 131.655 132.185 192.649 166.463C255.268 201.655 294.964 260.271 342.458 314.297Z" stroke="url(#paint33_linear_222_1678)" stroke-width="3"/>
<path opacity="0.34" fill-rule="evenodd" clip-rule="evenodd" d="M343.645 309.77C419.538 393.115 567.609 451.599 554.574 563.47C541.931 671.979 376.96 675.957 292.914 745.156C214.82 809.456 178.698 923.973 81.7533 952.77C-21.753 983.516 -138.865 958.602 -230.386 900.601C-320.119 843.732 -380.012 746.721 -406.114 643.584C-429.704 550.375 -388.393 458.76 -365.815 365.476C-344.083 275.686 -353.114 162.144 -277.027 110.246C-200.802 58.2531 -98.7215 109.973 -6.97036 120.711C62.1324 128.798 130.491 132.035 191.845 165.119C254.835 199.084 295.395 256.781 343.645 309.77Z" stroke="url(#paint34_linear_222_1678)" stroke-width="3"/>
<path opacity="0.35" fill-rule="evenodd" clip-rule="evenodd" d="M344.694 305.258C421.74 386.957 570.256 442.636 559.214 554.297C548.504 662.603 384.239 669.437 301.72 739.83C225.043 805.238 191.049 919.938 94.9793 950.31C-7.59332 982.738 -124.685 959.96 -216.86 903.778C-307.234 848.694 -368.581 753.103 -396.373 650.824C-421.49 558.389 -381.93 466.412 -361.059 373.099C-340.97 283.281 -351.937 170.339 -277.046 117.319C-202.018 64.2016 -99.4337 113.943 -7.85049 123.041C61.1258 129.894 129.276 131.928 190.968 163.814C254.304 196.551 295.71 253.317 344.694 305.258Z" stroke="url(#paint35_linear_222_1678)" stroke-width="3"/>
<path opacity="0.36" fill-rule="evenodd" clip-rule="evenodd" d="M345.605 300.766C423.771 380.804 572.678 433.678 563.617 545.095C554.829 653.164 391.32 662.831 310.343 734.385C235.1 800.872 203.229 915.714 108.059 947.64C6.447 981.727 -110.587 961.077 -203.379 906.72C-294.36 853.425 -357.129 759.276 -386.589 657.88C-413.213 566.245 -375.404 473.939 -356.234 380.629C-337.782 290.812 -350.669 178.503 -276.988 124.387C-203.173 70.1711 -100.123 117.931 -8.73694 125.4C60.0909 131.025 128.013 131.865 190.019 162.552C253.678 194.057 295.909 249.88 345.605 300.766Z" stroke="url(#paint36_linear_222_1678)" stroke-width="3"/>
<path opacity="0.37" fill-rule="evenodd" clip-rule="evenodd" d="M346.379 296.295C425.631 374.658 574.876 424.732 567.785 535.869C560.908 643.666 398.203 656.142 318.783 728.825C244.987 796.361 215.235 911.307 120.989 944.765C20.3648 980.487 -96.5718 961.956 -189.947 909.427C-281.499 857.926 -345.658 765.24 -376.764 664.755C-404.876 573.943 -368.817 481.342 -351.342 388.064C-334.521 298.279 -349.307 186.635 -276.853 131.449C-204.267 76.1609 -100.789 121.939 -9.62846 127.787C59.0292 132.192 126.701 131.846 188.999 161.333C252.957 191.606 295.993 246.475 346.379 296.295Z" stroke="url(#paint37_linear_222_1678)" stroke-width="3"/>
<path opacity="0.38" fill-rule="evenodd" clip-rule="evenodd" d="M347.017 291.85C427.319 368.524 576.851 415.802 571.717 526.624C566.738 634.116 404.886 649.376 327.038 723.155C254.703 791.71 227.063 906.721 133.766 941.688C34.1551 979.021 -82.6464 962.599 -176.569 911.904C-268.657 862.199 -334.175 770.995 -366.904 671.448C-396.483 581.484 -362.172 488.62 -346.385 395.405C-331.189 305.681 -347.856 194.735 -276.643 138.504C-205.3 82.1703 -101.431 125.967 -10.5256 130.204C57.9403 133.396 125.342 131.873 187.908 160.16C252.142 189.2 295.962 243.103 347.017 291.85Z" stroke="url(#paint38_linear_222_1678)" stroke-width="3"/>
<path opacity="0.39" fill-rule="evenodd" clip-rule="evenodd" d="M347.518 287.432C428.837 362.404 578.603 406.892 575.414 517.365C572.32 624.519 411.367 642.536 335.106 717.379C264.245 786.922 238.709 901.96 146.386 938.413C47.8135 977.333 -68.8151 963.009 -163.25 914.15C-255.839 866.245 -322.684 776.543 -357.013 677.96C-388.037 588.866 -355.473 495.771 -341.366 402.65C-327.787 313.017 -346.315 202.8 -276.358 145.551C-206.273 88.1983 -102.051 130.013 -11.4281 132.651C56.8247 134.638 123.936 131.948 186.748 159.033C251.234 186.84 295.818 239.767 347.518 287.432Z" stroke="url(#paint39_linear_222_1678)" stroke-width="3"/>
<path opacity="0.4" fill-rule="evenodd" clip-rule="evenodd" d="M347.884 283.044C430.185 356.303 580.133 398.007 578.874 508.097C577.653 614.879 417.647 635.628 342.985 711.502C273.61 782.003 250.172 897.028 158.845 934.944C61.336 975.426 -55.082 963.19 -149.993 916.169C-243.05 870.066 -311.188 781.884 -347.094 684.29C-379.543 596.09 -348.723 502.798 -336.288 409.801C-324.319 320.286 -344.687 210.829 -275.999 152.59C-207.185 94.2441 -102.648 134.078 -12.3359 135.128C55.6827 135.918 122.483 132.07 185.518 157.954C250.233 184.528 295.56 236.468 347.884 283.044Z" stroke="url(#paint40_linear_222_1678)" stroke-width="3"/>
<path opacity="0.41" fill-rule="evenodd" clip-rule="evenodd" d="M348.116 278.69C431.362 350.224 581.442 389.151 582.099 498.825C582.737 605.203 423.723 628.655 350.673 705.527C282.796 776.955 261.447 891.931 171.139 931.286C74.7188 973.305 -41.4515 963.144 -136.804 917.963C-230.293 873.664 -299.693 787.02 -337.15 690.439C-371.002 603.156 -341.924 509.698 -331.152 416.855C-320.784 327.489 -342.972 218.822 -275.566 159.619C-208.037 100.307 -103.222 138.162 -13.2487 137.635C54.5149 137.238 120.984 132.242 184.219 156.925C249.14 182.267 295.19 233.211 348.116 278.69Z" stroke="url(#paint41_linear_222_1678)" stroke-width="3"/>
<path opacity="0.42" fill-rule="evenodd" clip-rule="evenodd" d="M348.213 274.372C432.371 344.171 582.531 380.328 585.09 489.553C587.571 595.495 429.595 621.622 358.17 699.458C291.802 771.783 272.533 886.671 183.267 927.442C87.9582 970.972 -27.9276 962.875 -123.686 919.534C-217.573 877.041 -288.201 791.951 -327.187 696.409C-362.42 610.063 -335.079 516.473 -325.961 423.813C-317.186 334.623 -341.171 226.777 -275.061 166.637C-208.83 106.386 -103.773 142.265 -14.1658 140.173C53.3219 138.598 119.441 132.464 182.854 155.948C247.956 180.057 294.708 229.996 348.213 274.372Z" stroke="url(#paint42_linear_222_1678)" stroke-width="3"/>
<path opacity="0.43" fill-rule="evenodd" clip-rule="evenodd" d="M348.178 270.093C433.212 338.147 583.402 371.544 587.846 480.286C592.156 585.76 435.263 614.534 365.473 693.302C300.625 766.492 283.427 881.255 195.224 923.417C101.05 968.432 -14.5143 962.385 -110.643 920.886C-204.894 880.198 -276.718 796.679 -317.207 702.199C-353.798 616.813 -328.19 523.122 -320.717 430.675C-313.525 341.69 -339.287 234.694 -274.484 173.643C-209.562 112.481 -104.3 146.386 -15.0869 142.743C52.1047 139.999 117.854 132.738 181.422 155.023C246.683 177.902 294.115 226.827 348.178 270.093Z" stroke="url(#paint43_linear_222_1678)" stroke-width="3"/>
<path opacity="0.44" fill-rule="evenodd" clip-rule="evenodd" d="M348.01 265.856C433.886 332.155 584.054 362.803 590.368 471.029C596.491 576.004 440.725 607.394 372.581 687.06C309.263 761.086 294.126 875.686 207.007 919.214C113.991 965.688 -1.21625 961.678 -97.681 922.02C-192.261 883.137 -265.248 801.205 -307.214 707.81C-345.141 623.405 -321.261 529.645 -315.423 437.44C-309.804 348.687 -337.32 242.571 -273.835 180.637C-210.235 118.59 -104.806 150.526 -16.0123 145.344C50.863 141.44 116.223 133.064 179.923 154.153C245.322 175.803 293.413 223.705 348.01 265.856Z" stroke="url(#paint44_linear_222_1678)" stroke-width="3"/>
<path opacity="0.45" fill-rule="evenodd" clip-rule="evenodd" d="M347.711 261.663C434.392 326.199 584.49 354.108 592.656 461.788C600.577 566.232 445.981 600.208 379.493 680.739C317.714 755.569 304.626 869.97 218.613 914.839C126.777 962.745 11.9626 960.758 -84.8031 922.94C-179.678 885.861 -253.794 805.531 -297.212 713.243C-336.452 629.84 -314.296 536.042 -310.081 444.108C-306.025 355.616 -335.272 250.407 -273.117 187.618C-210.849 124.714 -105.289 154.685 -16.9416 147.977C49.5974 142.925 114.55 133.445 178.36 153.339C243.872 173.763 292.601 220.634 347.711 261.663Z" stroke="url(#paint45_linear_222_1678)" stroke-width="3"/>
<path opacity="0.46" fill-rule="evenodd" clip-rule="evenodd" d="M347.282 257.518C434.734 320.283 584.71 345.465 594.713 452.566C604.414 556.449 451.031 592.98 386.209 674.343C325.977 749.944 314.928 864.11 230.04 910.296C139.405 959.607 25.0192 959.627 -72.0127 923.648C-167.149 888.371 -242.36 809.657 -287.205 718.5C-327.734 636.117 -307.295 542.314 -304.693 450.679C-302.188 362.475 -333.143 258.201 -272.329 194.584C-211.403 130.851 -105.748 158.862 -17.8738 150.643C48.3093 144.452 112.835 133.879 176.734 152.581C242.336 171.782 291.682 217.614 347.282 257.518Z" stroke="url(#paint46_linear_222_1678)" stroke-width="3"/>
<path opacity="0.47" fill-rule="evenodd" clip-rule="evenodd" d="M346.722 253.423C434.91 314.409 584.717 336.877 596.537 443.369C608.002 546.661 455.873 585.714 392.725 667.875C334.049 744.218 325.026 858.112 241.283 905.588C151.871 956.277 37.9483 958.29 -59.3153 924.146C-154.679 890.669 -230.951 813.585 -277.197 723.58C-318.991 642.238 -300.262 548.461 -299.261 457.152C-298.297 369.263 -330.937 265.953 -271.472 201.535C-211.899 137 -106.186 163.058 -18.8098 153.341C46.9981 146.024 111.079 134.37 175.044 151.883C240.713 169.863 290.656 214.65 346.722 253.423Z" stroke="url(#paint47_linear_222_1678)" stroke-width="3"/>
<path opacity="0.48" fill-rule="evenodd" clip-rule="evenodd" d="M346.036 249.381C434.923 308.582 584.511 328.35 598.132 434.201C611.342 536.872 460.51 578.415 399.044 661.34C341.931 738.394 334.921 851.981 252.342 900.721C164.173 952.761 50.748 956.749 -46.7129 924.438C-142.27 892.759 -219.57 817.318 -267.189 728.485C-310.225 648.203 -293.2 554.482 -293.787 463.529C-294.353 375.981 -328.652 273.661 -270.547 208.471C-212.336 143.161 -106.6 167.271 -19.7474 156.073C45.666 147.639 109.285 134.917 173.293 151.245C239.008 168.008 289.524 211.742 346.036 249.381Z" stroke="url(#paint48_linear_222_1678)" stroke-width="3"/>
<path opacity="0.49" fill-rule="evenodd" clip-rule="evenodd" d="M345.222 245.394C434.774 302.805 584.095 319.886 599.496 425.067C614.435 527.087 464.938 571.087 405.162 654.743C349.619 732.476 344.608 845.72 263.212 895.699C176.306 949.061 63.4129 955.008 -34.211 924.527C-129.928 894.642 -208.221 820.856 -257.188 733.216C-301.441 654.012 -286.112 560.378 -288.275 469.808C-290.357 382.629 -326.292 281.325 -269.555 215.39C-212.715 149.334 -106.992 171.504 -20.6881 158.839C44.3122 149.3 107.45 135.522 171.481 150.668C237.219 166.218 288.288 208.893 345.222 245.394Z" stroke="url(#paint49_linear_222_1678)" stroke-width="3"/>
<path opacity="0.5" fill-rule="evenodd" clip-rule="evenodd" d="M344.283 241.465C434.464 297.081 583.47 311.491 600.633 415.972C617.28 517.313 469.16 563.735 411.08 648.089C357.113 726.47 354.088 839.335 273.893 890.527C188.268 945.183 75.9409 953.072 -21.8119 924.416C-117.655 896.321 -196.908 824.201 -247.195 737.774C-292.641 659.667 -278.999 566.151 -282.725 475.99C-286.311 389.206 -323.857 288.944 -268.496 222.291C-213.035 155.517 -107.361 175.755 -21.63 161.639C42.9385 151.007 105.579 136.186 169.61 150.155C235.348 164.496 286.949 206.106 344.283 241.465Z" stroke="url(#paint50_linear_222_1678)" stroke-width="3"/>
<path opacity="0.51" fill-rule="evenodd" clip-rule="evenodd" d="M343.219 237.597C433.994 291.413 582.637 303.169 601.542 406.92C619.879 507.553 473.173 556.363 416.796 641.381C364.411 720.378 363.357 832.831 284.379 885.208C200.056 941.13 88.3269 950.943 -9.52102 924.108C-105.457 897.797 -185.636 827.356 -237.215 742.161C-283.83 665.167 -271.866 571.799 -277.141 482.075C-282.218 395.711 -321.349 296.516 -267.373 229.175C-213.298 161.71 -107.707 180.023 -22.5742 164.472C41.5442 152.76 103.67 136.909 167.68 149.705C233.397 162.843 285.507 203.383 343.219 237.597Z" stroke="url(#paint51_linear_222_1678)" stroke-width="3"/>
<path opacity="0.52" fill-rule="evenodd" clip-rule="evenodd" d="M342.032 233.793C433.366 285.805 581.598 294.924 602.226 397.916C622.233 497.813 476.98 548.976 422.311 634.624C371.513 714.207 372.414 826.213 294.671 879.748C211.666 936.908 100.569 948.626 2.65945 923.606C-93.3372 899.075 -174.407 830.321 -227.251 746.378C-275.009 670.514 -264.715 577.324 -271.525 488.063C-278.079 402.145 -318.769 304.042 -266.184 236.039C-213.503 167.912 -108.031 184.311 -23.5192 167.341C40.1312 154.561 101.725 137.694 165.693 149.322C231.366 161.26 283.964 200.725 342.032 233.793Z" stroke="url(#paint52_linear_222_1678)" stroke-width="3"/>
<path opacity="0.53" fill-rule="evenodd" clip-rule="evenodd" d="M340.723 230.054C432.58 280.26 580.356 286.759 602.685 388.964C624.342 488.098 480.579 541.579 427.622 627.823C378.416 707.96 381.256 819.485 304.765 874.152C223.095 932.52 112.663 946.124 14.7251 922.913C-81.299 900.156 -163.225 833.1 -217.307 750.425C-266.183 675.708 -257.548 582.726 -265.878 493.955C-273.896 408.507 -316.119 311.521 -264.932 242.884C-213.652 174.122 -108.332 188.616 -24.4653 170.246C38.6994 156.41 99.7455 138.54 163.65 149.006C229.257 159.751 282.322 198.135 340.723 230.054Z" stroke="url(#paint53_linear_222_1678)" stroke-width="3"/>
<path opacity="0.54" fill-rule="evenodd" clip-rule="evenodd" d="M339.293 226.385C431.639 274.781 578.912 278.679 602.921 380.069C626.208 478.413 483.971 534.175 432.732 620.982C385.12 701.642 389.884 812.653 314.659 868.424C234.342 927.971 124.605 943.441 26.6733 922.034C-69.3457 901.044 -152.094 835.694 -207.385 754.305C-257.353 680.751 -250.368 588.006 -260.203 499.75C-269.67 414.798 -313.4 318.951 -263.617 249.71C-213.743 180.341 -108.611 192.94 -25.4116 173.185C37.2501 158.307 97.7319 139.448 161.552 148.758C227.072 158.315 280.582 195.616 339.293 226.385Z" stroke="url(#paint54_linear_222_1678)" stroke-width="3"/>
<path opacity="0.55" fill-rule="evenodd" clip-rule="evenodd" d="M337.745 222.786C430.544 269.372 577.269 270.689 602.936 371.237C627.832 468.763 487.157 526.769 437.638 614.105C391.625 695.257 398.294 805.721 324.351 862.569C245.404 923.265 136.394 940.583 38.4999 920.97C-57.4816 901.74 -141.017 838.105 -197.489 758.02C-248.525 685.644 -243.177 593.165 -254.502 505.449C-265.404 421.018 -310.613 326.333 -262.24 256.514C-213.777 186.567 -108.866 197.282 -26.3579 176.161C35.7836 160.254 95.6854 140.421 159.4 148.58C224.812 156.956 278.745 193.169 337.745 222.786Z" stroke="url(#paint55_linear_222_1678)" stroke-width="3"/>
<path opacity="0.56" fill-rule="evenodd" clip-rule="evenodd" d="M336.079 219.261C429.297 264.035 575.429 262.791 602.732 362.47C629.216 459.153 490.138 519.366 442.341 607.198C397.929 688.81 406.486 798.694 333.841 856.591C256.277 918.408 148.026 937.551 50.2026 919.726C-45.7095 902.248 -129.998 840.335 -187.622 761.57C-239.699 690.386 -235.978 598.202 -248.777 511.052C-261.097 427.165 -307.76 333.665 -260.8 263.297C-213.755 192.799 -109.099 201.643 -27.3032 179.173C34.3014 162.25 93.6076 141.457 157.196 148.472C222.479 155.674 276.814 190.795 336.079 219.261Z" stroke="url(#paint56_linear_222_1678)" stroke-width="3"/>
<path opacity="0.57" fill-rule="evenodd" clip-rule="evenodd" d="M334.297 215.812C427.898 258.774 573.392 254.99 602.31 353.773C630.359 449.588 492.912 511.969 446.84 600.264C404.031 682.306 414.459 791.577 343.123 850.496C266.96 913.403 159.497 934.351 61.7768 918.304C-34.034 902.571 -119.041 842.387 -177.788 764.957C-230.88 694.98 -228.774 603.12 -243.031 516.56C-256.755 433.241 -304.842 340.948 -259.302 270.058C-213.677 199.038 -109.309 206.022 -28.2482 182.222C32.803 164.298 91.4985 142.559 154.94 148.437C220.073 154.472 274.788 188.499 334.297 215.812Z" stroke="url(#paint57_linear_222_1678)" stroke-width="3"/>
<path opacity="0.58" fill-rule="evenodd" clip-rule="evenodd" d="M332.401 212.442C426.351 253.592 571.163 247.29 601.672 345.152C631.264 440.073 495.481 504.584 451.137 593.308C409.932 675.749 422.211 784.376 352.199 844.288C277.449 908.256 170.805 930.987 73.2205 916.71C-22.4575 902.712 -108.149 844.262 -167.99 768.183C-222.071 699.427 -221.568 607.919 -237.266 521.973C-252.376 439.245 -301.861 348.18 -257.743 276.797C-213.544 205.283 -109.496 210.419 -29.1916 185.308C31.2902 166.396 89.36 143.727 152.635 148.475C217.597 153.35 272.67 186.28 332.401 212.442Z" stroke="url(#paint58_linear_222_1678)" stroke-width="3"/>
<path opacity="0.59" fill-rule="evenodd" clip-rule="evenodd" d="M330.393 209.153C424.658 248.492 568.745 239.694 600.821 336.61C631.933 430.613 497.847 497.215 455.23 586.334C415.631 669.142 429.741 777.095 361.067 837.972C287.744 902.97 181.948 927.462 84.5307 914.945C-10.9832 902.673 -97.324 845.964 -158.23 771.25C-213.274 703.728 -214.36 612.599 -231.482 527.291C-247.963 445.178 -298.817 355.361 -256.125 283.512C-213.354 211.532 -109.66 214.834 -30.1324 188.431C29.7641 168.546 87.1937 144.962 150.282 148.588C215.052 152.311 270.463 184.142 330.393 209.153Z" stroke="url(#paint59_linear_222_1678)" stroke-width="3"/>
<path opacity="0.6" fill-rule="evenodd" clip-rule="evenodd" d="M328.274 205.947C422.818 243.476 566.137 232.207 599.757 328.151C632.368 421.212 500.009 489.865 459.12 579.347C421.126 662.492 437.049 769.74 369.724 831.554C297.842 897.552 192.922 923.781 95.7036 913.015C0.384734 902.458 -86.571 847.494 -148.513 774.159C-204.493 707.883 -207.155 617.162 -225.684 532.515C-243.519 451.039 -295.713 362.49 -254.449 290.204C-213.11 217.785 -109.801 219.268 -31.0714 191.592C28.2244 170.749 84.9996 146.265 147.882 148.777C212.439 151.356 268.165 182.086 328.274 205.947Z" stroke="url(#paint60_linear_222_1678)" stroke-width="3"/>
<path opacity="0.61" fill-rule="evenodd" clip-rule="evenodd" d="M326.045 202.826C420.835 238.549 563.344 224.832 598.484 319.78C632.569 411.875 501.969 482.54 462.807 572.351C426.418 655.803 444.133 762.315 378.169 825.037C307.74 892.004 203.725 919.949 106.737 910.922C11.6436 902.07 -75.8925 848.856 -138.841 776.913C-195.73 711.895 -199.954 621.608 -219.872 537.646C-239.043 456.829 -292.55 369.568 -252.717 296.872C-212.811 224.043 -109.92 223.72 -32.0076 194.792C26.6724 173.005 82.7795 147.637 145.435 149.043C209.761 150.486 265.781 180.115 326.045 202.826Z" stroke="url(#paint61_linear_222_1678)" stroke-width="3"/>
<path opacity="0.62" fill-rule="evenodd" clip-rule="evenodd" d="M323.71 199.794C418.711 233.712 560.368 217.572 597.004 311.501C632.539 402.607 503.728 475.244 466.292 565.351C431.507 649.079 450.993 754.825 386.401 818.426C317.437 886.333 214.355 915.97 117.628 908.67C22.7912 901.513 -65.2908 850.051 -129.216 779.513C-186.988 715.765 -192.76 625.939 -214.048 542.684C-234.538 462.548 -289.328 376.593 -250.928 303.515C-212.457 230.304 -110.014 228.19 -32.9394 198.029C25.1098 175.314 80.5352 149.078 142.946 149.386C207.019 149.703 263.312 178.229 323.71 199.794Z" stroke="url(#paint62_linear_222_1678)" stroke-width="3"/>
<path opacity="0.63" fill-rule="evenodd" clip-rule="evenodd" d="M321.27 196.852C416.448 228.97 557.212 210.432 595.318 303.318C632.28 393.413 505.285 467.98 469.575 558.352C436.393 642.324 457.628 747.275 394.419 811.728C326.931 880.543 224.809 911.847 128.374 906.263C33.8229 900.789 -54.7706 851.083 -119.643 781.962C-178.27 719.495 -185.575 630.156 -208.215 547.63C-230.007 468.196 -286.05 383.565 -249.084 310.134C-212.049 236.568 -110.086 232.679 -33.868 201.306C23.5362 177.677 78.2668 150.589 140.412 149.809C204.214 149.009 260.758 176.432 321.27 196.852Z" stroke="url(#paint63_linear_222_1678)" stroke-width="3"/>
<path opacity="0.64" fill-rule="evenodd" clip-rule="evenodd" d="M318.726 194.002C414.047 224.324 553.878 203.415 593.43 295.236C631.794 384.297 506.644 460.753 472.656 551.356C441.075 635.544 464.038 739.671 402.222 804.946C336.22 874.639 235.085 907.586 138.972 903.706C44.737 899.901 -44.3337 851.953 -110.123 784.261C-169.579 723.085 -178.402 634.259 -202.374 552.485C-225.45 473.773 -282.717 390.485 -247.185 316.727C-211.587 242.834 -110.135 237.186 -34.7917 204.622C21.9532 180.095 75.9761 152.171 137.838 150.313C201.349 148.405 258.123 174.724 318.726 194.002Z" stroke="url(#paint64_linear_222_1678)" stroke-width="3"/>
<path opacity="0.65" fill-rule="evenodd" clip-rule="evenodd" d="M316.08 191.247C411.512 219.777 550.37 196.524 591.342 287.257C631.082 375.264 507.805 453.568 475.537 544.37C445.553 628.742 470.223 732.017 409.808 798.085C345.303 868.626 245.18 903.191 149.42 901.001C55.53 898.854 -33.9836 852.665 -100.66 786.412C-160.917 726.537 -171.242 638.251 -196.529 557.249C-220.868 479.28 -279.331 397.35 -245.232 323.294C-211.071 249.102 -110.16 241.712 -35.7104 207.976C20.3615 182.569 73.6644 153.825 135.224 150.897C198.425 147.891 255.407 173.108 316.08 191.247Z" stroke="url(#paint65_linear_222_1678)" stroke-width="3"/>
<path opacity="0.66" fill-rule="evenodd" clip-rule="evenodd" d="M313.335 188.588C408.844 215.332 546.69 189.762 589.056 279.387C630.149 366.319 508.77 446.428 478.218 537.396C449.829 621.923 476.182 724.319 417.177 791.152C354.179 862.508 255.094 898.666 159.715 898.153C66.2 897.651 -23.7224 853.222 -91.2553 788.419C-152.287 729.853 -164.098 642.131 -190.679 561.923C-216.264 484.718 -275.891 404.163 -243.226 329.835C-210.502 255.371 -110.161 246.256 -36.623 211.371C18.7625 185.098 71.3333 155.551 132.573 151.564C195.444 147.471 252.614 171.585 313.335 188.588Z" stroke="url(#paint66_linear_222_1678)" stroke-width="3"/>
<path opacity="0.67" fill-rule="evenodd" clip-rule="evenodd" d="M310.493 186.028C406.044 210.992 542.841 183.134 586.574 271.629C628.994 357.465 509.539 439.338 480.699 530.44C453.901 615.092 481.914 716.581 424.328 784.149C362.845 856.29 264.823 894.016 169.856 895.166C76.743 896.294 -13.5541 853.625 -81.9136 790.281C-143.693 733.035 -156.973 645.902 -184.827 566.507C-211.639 490.085 -272.401 410.921 -241.169 336.349C-209.88 261.641 -110.139 250.819 -37.5298 214.806C17.1562 187.683 68.9831 157.349 129.884 152.314C192.407 147.144 249.744 170.157 310.493 186.028Z" stroke="url(#paint67_linear_222_1678)" stroke-width="3"/>
<path opacity="0.68" fill-rule="evenodd" clip-rule="evenodd" d="M307.556 183.57C403.118 206.76 538.826 176.642 583.901 263.988C627.622 348.708 510.115 432.302 482.983 523.506C457.771 608.253 487.42 708.809 431.261 777.083C371.301 849.978 274.367 889.245 179.839 892.044C87.1578 894.788 -3.48005 853.879 -72.6359 792.004C-135.135 736.084 -149.867 649.565 -178.976 571.003C-206.994 495.384 -268.86 417.625 -239.06 342.837C-209.205 267.912 -110.093 255.4 -38.4292 218.281C15.5447 190.325 66.6163 159.222 127.16 153.148C189.318 146.912 246.8 168.826 307.556 183.57Z" stroke="url(#paint68_linear_222_1678)" stroke-width="3"/>
<path opacity="0.69" fill-rule="evenodd" clip-rule="evenodd" d="M304.525 181.214C400.065 202.639 534.648 170.29 581.038 256.466C626.034 340.052 510.498 425.323 485.068 516.598C461.439 601.41 492.7 701.007 437.974 769.958C379.545 843.576 283.722 884.358 189.663 888.791C97.4407 893.137 6.49581 853.986 -63.426 793.587C-126.617 739.002 -142.785 653.121 -173.127 575.412C-202.332 500.614 -265.272 424.275 -236.901 349.297C-208.479 274.183 -110.023 260 -39.3216 221.797C13.9277 193.024 64.2331 161.169 124.403 154.067C186.176 146.776 243.783 167.593 304.525 181.214Z" stroke="url(#paint69_linear_222_1678)" stroke-width="3"/>
<path opacity="0.7" fill-rule="evenodd" clip-rule="evenodd" d="M301.403 178.963C396.889 198.629 530.31 164.081 577.988 249.067C624.233 331.501 510.692 418.406 486.958 509.72C464.905 594.569 497.754 693.181 444.469 762.78C387.576 837.089 292.889 879.359 199.325 885.41C107.59 891.343 16.3719 853.948 -54.2856 795.034C-118.142 741.791 -135.727 656.571 -167.281 579.735C-197.653 505.775 -261.637 430.87 -234.693 355.73C-207.699 280.453 -109.929 264.619 -40.2055 225.353C12.3072 195.78 61.8357 163.19 121.614 155.073C182.985 146.738 240.697 166.46 301.403 178.963Z" stroke="url(#paint70_linear_222_1678)" stroke-width="3"/>
<path opacity="0.71" fill-rule="evenodd" clip-rule="evenodd" d="M298.193 176.819C393.591 194.735 525.816 158.017 574.754 241.796C622.221 323.058 510.696 411.555 488.653 502.877C468.17 587.732 502.582 685.335 450.742 755.553C395.394 830.523 301.864 874.254 208.824 881.906C117.603 889.41 26.1449 853.77 -45.2177 796.348C-109.711 744.453 -128.695 659.917 -161.441 583.971C-192.96 510.869 -257.956 437.41 -232.436 362.135C-206.869 286.722 -109.811 269.256 -41.081 228.951C10.6835 198.595 59.4249 165.287 118.795 156.165C179.746 146.799 237.541 165.428 298.193 176.819Z" stroke="url(#paint71_linear_222_1678)" stroke-width="3"/>
<path opacity="0.72" fill-rule="evenodd" clip-rule="evenodd" d="M294.896 174.784C390.176 190.959 521.169 152.103 571.34 234.657C620.003 314.73 510.515 404.774 490.154 496.072C471.235 580.906 507.185 677.475 456.797 748.282C402.997 823.881 310.647 869.046 218.159 878.284C127.478 887.342 35.8136 853.453 -36.2238 797.53C-101.327 746.989 -121.692 663.161 -155.607 588.123C-188.252 515.896 -254.23 443.896 -230.13 368.512C-205.986 292.99 -109.668 273.912 -41.9465 232.59C9.05858 201.468 57.003 167.46 115.947 157.345C176.462 146.96 234.32 164.5 294.896 174.784Z" stroke="url(#paint72_linear_222_1678)" stroke-width="3"/>
<path opacity="0.73" fill-rule="evenodd" clip-rule="evenodd" d="M291.515 172.859C386.645 187.303 516.372 146.34 567.747 227.651C617.579 306.519 510.148 398.066 491.463 489.311C474.101 574.094 511.563 669.605 462.63 740.972C410.385 817.17 319.235 863.74 227.326 874.547C137.212 885.144 45.3744 853.002 -27.3073 798.583C-92.9927 749.402 -114.719 666.303 -149.783 592.192C-183.533 520.856 -250.461 450.327 -227.778 374.86C-205.053 299.256 -109.501 278.587 -42.8024 236.271C7.43237 204.4 54.5702 169.71 113.073 158.613C173.134 147.221 231.034 163.676 291.515 172.859Z" stroke="url(#paint73_linear_222_1678)" stroke-width="3"/>
<path opacity="0.74" fill-rule="evenodd" clip-rule="evenodd" d="M288.052 171.046C383.001 183.77 511.428 140.732 563.981 220.784C614.954 298.43 509.598 391.436 492.581 482.596C476.768 567.301 515.717 661.73 468.244 733.628C417.558 810.394 327.63 858.341 236.325 870.7C146.804 882.817 54.826 852.419 -18.4695 799.509C-84.7097 751.693 -107.779 669.346 -143.969 596.178C-178.803 525.75 -246.65 456.703 -225.379 381.18C-204.069 305.52 -109.309 283.28 -43.647 239.993C5.80682 207.391 52.1289 172.036 110.173 159.971C169.764 147.585 227.687 162.957 288.052 171.046Z" stroke="url(#paint74_linear_222_1678)" stroke-width="3"/>
<path opacity="0.75" fill-rule="evenodd" clip-rule="evenodd" d="M284.51 169.348C379.246 180.361 506.341 135.282 560.043 214.058C612.13 290.466 508.868 384.887 493.509 475.932C479.238 560.53 519.647 653.855 473.638 726.256C424.514 803.557 335.828 852.854 245.154 866.746C156.252 880.367 64.1655 851.707 -9.71335 800.312C-76.4807 753.864 -100.873 672.29 -138.167 600.082C-174.064 530.578 -242.799 463.024 -222.934 387.472C-203.034 311.782 -109.092 287.993 -44.4804 243.758C4.18242 210.442 49.68 174.44 107.25 161.419C166.355 148.051 224.28 162.346 284.51 169.348Z" stroke="url(#paint75_linear_222_1678)" stroke-width="3"/>
<path opacity="0.76" fill-rule="evenodd" clip-rule="evenodd" d="M280.89 167.765C375.383 177.08 501.114 129.992 555.936 207.476C609.11 282.632 507.958 378.422 494.249 469.323C481.511 553.786 523.353 645.986 478.81 718.859C431.253 796.666 343.828 847.283 253.81 862.69C165.552 877.797 73.3906 850.87 -1.04126 800.993C-68.3083 755.918 -94.0038 675.138 -132.379 603.906C-169.317 535.342 -238.909 469.289 -220.446 393.734C-201.949 318.04 -108.851 292.724 -45.3023 247.564C2.55974 213.552 47.2244 176.922 104.305 162.958C162.907 148.621 220.814 161.843 280.89 167.765Z" stroke="url(#paint76_linear_222_1678)" stroke-width="3"/>
<path opacity="0.77" fill-rule="evenodd" clip-rule="evenodd" d="M277.196 166.3C371.415 173.927 495.751 124.866 551.664 201.043C605.897 274.932 506.873 372.047 494.803 462.773C483.588 547.074 526.838 638.126 483.764 711.443C437.775 789.724 351.63 841.632 262.294 858.537C174.704 875.111 82.4998 849.911 7.54544 801.556C-60.1938 757.857 -87.1722 677.891 -126.606 607.651C-164.563 540.041 -234.981 475.501 -217.913 399.967C-200.814 324.296 -108.584 297.474 -46.111 251.414C0.94075 216.723 44.7645 179.482 101.34 164.588C159.424 149.297 217.294 161.45 277.196 166.3Z" stroke="url(#paint77_linear_222_1678)" stroke-width="3"/>
<path opacity="0.78" fill-rule="evenodd" clip-rule="evenodd" d="M273.43 164.953C367.346 170.906 490.255 119.905 547.232 194.761C602.496 267.369 505.614 365.764 495.174 456.286C485.473 540.397 530.101 630.281 488.498 704.014C444.08 782.737 359.234 835.908 270.604 854.29C183.706 872.313 91.4914 848.832 16.0449 802.003C-52.1391 759.682 -80.3798 680.551 -120.85 611.318C-159.804 544.678 -231.015 481.657 -215.337 406.171C-199.63 330.548 -108.291 302.243 -46.9059 255.306C-0.673401 219.955 42.3018 182.121 98.3575 166.31C155.907 150.078 213.721 161.169 273.43 164.953Z" stroke="url(#paint78_linear_222_1678)" stroke-width="3"/>
<path opacity="0.79" fill-rule="evenodd" clip-rule="evenodd" d="M269.594 163.727C363.177 168.018 484.631 115.112 542.641 188.634C598.908 259.946 504.183 359.577 495.361 449.865C487.165 533.76 533.145 622.455 493.014 696.574C450.167 775.71 366.638 830.114 278.739 849.954C192.557 869.407 100.363 847.638 24.4549 802.337C-44.1466 761.396 -73.6287 683.119 -115.112 614.908C-155.041 549.251 -227.015 487.758 -212.718 412.346C-198.396 336.795 -107.972 307.031 -47.6865 259.241C-2.28191 223.247 39.8374 184.838 95.3585 168.124C152.359 150.965 210.097 160.999 269.594 163.727Z" stroke="url(#paint79_linear_222_1678)" stroke-width="3"/>
<path opacity="0.8" fill-rule="evenodd" clip-rule="evenodd" d="M265.691 162.623C358.912 165.266 478.882 110.489 537.896 182.664C595.138 252.669 502.583 353.489 495.368 443.516C488.665 527.167 535.969 614.654 497.312 689.13C456.038 768.647 373.841 824.254 286.697 845.533C201.255 866.396 109.113 846.332 32.7734 802.56C-36.2181 763.002 -66.9204 685.598 -109.393 618.422C-150.275 553.762 -222.979 493.805 -210.058 418.491C-197.113 343.039 -107.628 311.838 -48.452 263.219C-3.88363 226.601 37.3729 187.636 92.345 170.032C148.782 151.96 206.424 160.943 265.691 162.623Z" stroke="url(#paint80_linear_222_1678)" stroke-width="3"/>
<path opacity="0.81" fill-rule="evenodd" clip-rule="evenodd" d="M261.723 161.643C354.553 162.651 473.01 106.04 533 176.854C591.188 245.54 500.815 347.505 495.197 437.241C489.976 520.622 538.576 606.882 501.391 681.686C461.69 761.554 380.844 818.334 294.477 841.031C209.797 863.285 117.74 844.917 40.9982 802.675C-28.3561 764.5 -60.2572 687.989 -103.696 621.862C-145.508 558.212 -218.912 499.798 -207.357 424.607C-195.782 349.278 -107.257 316.664 -49.2023 267.239C-5.47809 230.015 34.9091 190.512 89.3182 172.034C145.177 153.063 202.705 161.002 261.723 161.643Z" stroke="url(#paint81_linear_222_1678)" stroke-width="3"/>
<path opacity="0.82" fill-rule="evenodd" clip-rule="evenodd" d="M257.694 160.787C350.104 160.176 467.021 101.766 527.957 171.207C587.062 238.562 498.884 341.627 494.848 431.044C491.099 514.129 540.966 599.143 505.255 674.247C467.126 754.435 387.645 812.359 302.079 836.453C218.184 860.077 126.241 843.396 49.1283 802.686C-20.5617 765.894 -53.6399 690.293 -98.0211 625.229C-140.74 562.602 -214.812 505.736 -204.616 430.692C-194.402 355.512 -106.86 321.509 -49.936 271.304C-7.0634 233.491 32.4483 193.469 86.2806 174.13C141.548 154.275 198.942 161.176 257.694 160.787Z" stroke="url(#paint82_linear_222_1678)" stroke-width="3"/>
<path opacity="0.83" fill-rule="evenodd" clip-rule="evenodd" d="M253.606 160.058C345.568 157.841 460.919 97.6696 522.771 165.727C582.765 231.74 496.792 335.858 494.327 424.929C492.036 507.693 543.143 591.442 508.903 666.818C472.345 747.296 394.246 806.333 309.502 831.803C226.414 856.776 134.617 841.773 57.1624 802.594C-12.8361 767.187 -47.0693 692.513 -92.3693 628.525C-135.973 566.932 -210.68 511.62 -201.835 436.749C-192.973 361.741 -106.435 326.373 -50.6516 275.411C-8.63784 237.029 29.9927 196.506 83.2348 176.32C137.896 155.597 195.139 161.467 253.606 160.058Z" stroke="url(#paint83_linear_222_1678)" stroke-width="3"/>
<path opacity="0.84" fill-rule="evenodd" clip-rule="evenodd" d="M249.459 159.456C340.946 155.65 454.705 93.7529 517.444 160.416C578.298 225.076 494.54 330.203 493.631 418.9C492.788 501.316 545.104 583.785 512.335 659.404C477.347 740.141 400.643 800.26 316.744 827.086C234.484 853.388 142.863 840.051 65.0971 802.403C-5.18306 768.379 -40.5491 694.65 -86.7439 631.749C-131.209 571.204 -206.521 517.45 -199.016 442.775C-191.498 367.964 -105.985 331.257 -51.3506 279.563C-10.2023 240.629 27.5415 199.624 80.1804 178.606C134.222 157.028 191.295 161.875 249.459 159.456Z" stroke="url(#paint84_linear_222_1678)" stroke-width="3"/>
<path opacity="0.85" fill-rule="evenodd" clip-rule="evenodd" d="M245.26 158.982C336.244 153.603 448.386 90.0177 511.982 155.276C573.667 218.574 492.133 324.664 492.768 412.96C493.358 495.004 546.855 576.175 515.554 652.008C482.135 732.975 406.84 794.145 323.807 822.305C242.396 849.914 150.981 838.234 72.9332 802.115C2.39832 769.474 -34.078 696.706 -81.1436 634.905C-126.447 575.417 -202.332 523.226 -196.159 448.772C-189.974 374.181 -105.506 336.159 -52.0295 283.757C-11.7532 244.291 25.099 202.822 77.1219 180.987C130.531 158.571 187.415 162.402 245.26 158.982Z" stroke="url(#paint85_linear_222_1678)" stroke-width="3"/>
<path opacity="0.86" fill-rule="evenodd" clip-rule="evenodd" d="M241.01 158.638C331.464 151.702 441.964 86.4663 506.387 150.311C568.875 212.237 489.572 319.244 491.736 407.113C493.747 488.759 548.396 568.616 518.561 644.637C486.706 725.802 412.834 787.994 330.688 817.465C250.147 846.36 158.968 836.325 80.6676 801.734C9.90483 770.474 -27.659 698.684 -75.5711 637.993C-121.689 579.574 -198.116 528.949 -193.264 454.738C-188.403 380.392 -105 341.08 -52.6891 287.996C-13.2908 248.015 22.6651 206.101 74.0596 183.464C126.824 160.225 183.501 163.048 241.01 158.638Z" stroke="url(#paint86_linear_222_1678)" stroke-width="3"/>
<path opacity="0.87" fill-rule="evenodd" clip-rule="evenodd" d="M236.71 158.426C326.608 149.949 435.444 83.1005 500.665 145.522C563.925 206.068 486.862 313.947 490.54 401.362C493.958 482.586 549.729 561.115 521.357 637.293C491.064 718.629 418.627 781.811 337.388 812.57C257.736 842.729 166.822 834.327 88.2997 801.263C17.3355 771.381 -21.293 700.585 -70.0271 641.014C-116.936 583.675 -193.873 534.618 -190.332 460.675C-186.785 386.597 -104.466 346.021 -53.3283 292.278C-14.8136 251.802 20.2418 209.46 70.9958 186.037C123.102 161.99 179.556 163.815 236.71 158.426Z" stroke="url(#paint87_linear_222_1678)" stroke-width="3"/>
<path opacity="0.88" fill-rule="evenodd" clip-rule="evenodd" d="M232.365 158.345C321.68 148.345 428.829 79.9223 494.817 140.912C558.822 200.07 484.004 308.776 489.181 395.711C493.991 476.489 550.856 553.674 523.942 629.984C495.208 711.458 424.217 775.599 343.906 807.625C265.163 839.026 174.544 832.245 95.8273 800.704C24.6883 772.198 -14.9816 702.411 -64.5135 643.971C-112.191 587.72 -189.606 540.235 -187.365 466.583C-185.121 392.796 -103.904 350.98 -53.9468 296.605C-16.3209 255.651 17.83 212.901 67.9319 188.707C119.369 163.868 175.581 164.703 232.365 158.345Z" stroke="url(#paint88_linear_222_1678)" stroke-width="3"/>
<path opacity="0.89" fill-rule="evenodd" clip-rule="evenodd" d="M227.977 158.397C316.684 146.892 422.125 76.933 488.85 136.484C553.57 194.246 481.002 303.734 487.662 390.162C493.851 470.471 551.778 546.298 526.32 622.711C499.139 704.296 429.607 769.365 350.242 802.634C272.427 835.254 182.131 830.082 103.25 800.06C31.9627 772.927 -8.72521 704.164 -59.0302 646.865C-107.451 591.712 -185.314 545.8 -184.363 472.46C-183.409 398.987 -103.314 355.959 -54.5427 300.974C-17.8105 259.562 15.4324 216.423 64.8707 191.474C115.626 165.859 171.579 165.712 227.977 158.397Z" stroke="url(#paint89_linear_222_1678)" stroke-width="3"/>
<path opacity="0.9" fill-rule="evenodd" clip-rule="evenodd" d="M223.549 158.583C311.623 145.591 415.334 74.1345 482.766 132.24C548.172 188.599 477.859 298.823 485.987 384.721C493.539 464.536 552.499 538.992 528.491 615.481C502.859 697.147 434.796 763.112 356.396 797.602C279.527 831.418 189.583 827.84 110.567 799.334C39.1569 773.571 -2.52542 705.845 -53.5789 649.696C-102.721 595.649 -180.999 551.312 -181.325 478.308C-181.652 405.17 -102.694 360.957 -55.1158 305.388C-19.2819 263.536 13.05 220.026 61.8136 194.337C111.877 167.963 167.554 166.843 223.549 158.583Z" stroke="url(#paint90_linear_222_1678)" stroke-width="3"/>
<path opacity="0.91" fill-rule="evenodd" clip-rule="evenodd" d="M219.082 158.904C306.499 144.443 408.46 71.5284 476.57 128.181C542.633 183.131 474.578 294.046 484.156 379.388C493.057 458.688 553.019 531.76 530.457 608.297C506.368 690.015 439.784 756.845 362.367 792.532C286.463 827.521 196.898 825.524 117.776 798.529C46.2693 774.132 3.61625 707.457 -48.161 652.467C-97.9993 599.535 -176.663 556.772 -178.254 484.126C-179.849 411.347 -102.046 365.974 -55.6658 309.846C-20.7341 267.573 10.6838 223.711 58.7622 197.297C108.122 170.18 163.506 168.098 219.082 158.904Z" stroke="url(#paint91_linear_222_1678)" stroke-width="3"/>
<path opacity="0.92" fill-rule="evenodd" clip-rule="evenodd" d="M214.582 159.361C301.316 143.45 401.508 69.116 470.265 124.31C536.956 177.846 471.162 289.407 482.175 374.169C492.407 452.93 553.342 524.605 532.22 601.164C509.667 682.905 444.572 750.569 368.157 787.428C293.235 823.568 204.077 823.138 124.876 797.649C53.2992 774.613 9.69946 709.002 -42.7767 655.178C-93.2877 603.369 -172.306 562.181 -175.15 489.915C-177.999 417.516 -101.368 371.01 -56.1909 314.347C-22.1653 271.672 8.33636 227.476 55.719 200.355C104.364 172.511 159.439 169.476 214.582 159.361Z" stroke="url(#paint92_linear_222_1678)" stroke-width="3"/>
<path opacity="0.93" fill-rule="evenodd" clip-rule="evenodd" d="M210.05 159.953C296.078 142.613 394.484 66.8989 463.858 120.629C531.147 172.745 467.615 284.907 480.045 369.066C491.594 447.265 553.47 517.533 533.781 594.086C512.76 675.821 449.162 744.288 373.765 782.296C299.841 819.562 211.118 820.684 131.868 796.695C60.2458 775.016 15.7234 710.483 -37.4268 657.832C-88.5867 607.154 -167.928 567.539 -172.012 495.673C-176.104 423.676 -100.66 376.065 -56.6903 318.893C-23.5741 275.834 6.00923 231.322 52.6862 203.509C100.607 174.955 155.356 170.978 210.05 159.953Z" stroke="url(#paint93_linear_222_1678)" stroke-width="3"/>
<path opacity="0.94" fill-rule="evenodd" clip-rule="evenodd" d="M205.489 160.684C290.787 141.933 387.388 64.8784 457.349 117.141C525.208 167.832 463.94 280.55 477.768 364.081C490.617 441.698 553.405 510.547 535.143 587.068C515.645 668.769 453.552 738.007 379.191 777.14C306.282 815.508 218.021 818.166 138.749 795.672C67.107 775.344 21.6862 711.9 -32.1131 660.43C-83.8979 610.888 -163.531 572.847 -168.843 501.403C-174.164 429.829 -99.9226 381.139 -57.164 323.482C-24.9602 280.058 3.70313 235.25 49.6649 206.762C96.8515 177.514 151.259 172.605 205.489 160.684Z" stroke="url(#paint94_linear_222_1678)" stroke-width="3"/>
<path opacity="0.95" fill-rule="evenodd" clip-rule="evenodd" d="M200.902 161.551C285.447 141.41 380.228 63.0554 450.746 113.845C519.145 163.109 460.14 276.338 475.349 359.219C489.481 436.231 553.15 503.651 536.308 580.114C518.326 661.753 457.745 731.729 384.436 771.962C312.558 811.409 224.785 815.589 145.519 794.583C73.8827 775.599 27.5879 713.255 -26.8357 662.974C-79.2212 614.575 -159.117 578.104 -165.642 507.103C-172.179 435.973 -99.1541 386.232 -57.6104 328.115C-26.3215 284.344 1.42051 239.258 46.6577 210.111C93.1004 180.187 147.15 174.357 200.902 161.551Z" stroke="url(#paint95_linear_222_1678)" stroke-width="3"/>
<path opacity="0.96" fill-rule="evenodd" clip-rule="evenodd" d="M196.292 162.558C280.063 141.047 373.006 61.4315 444.051 110.746C512.962 158.578 456.219 272.274 472.791 354.482C488.189 430.869 552.708 496.85 537.278 573.228C520.803 654.777 461.742 725.461 389.5 766.769C318.669 807.271 231.409 812.954 152.177 793.43C80.5718 775.784 33.4275 714.552 -21.5953 665.464C-74.5576 618.214 -154.684 583.311 -162.409 512.774C-170.148 442.108 -98.3544 391.344 -58.0285 332.792C-27.6569 288.693 -0.837099 243.347 43.6666 213.558C89.3562 182.975 143.033 176.234 196.292 162.558Z" stroke="url(#paint96_linear_222_1678)" stroke-width="3"/>
<path opacity="0.97" fill-rule="evenodd" clip-rule="evenodd" d="M191.661 163.703C274.635 140.843 365.727 60.0073 437.269 107.843C506.662 154.241 452.18 268.359 470.095 349.872C486.741 425.613 552.08 490.146 538.054 566.415C523.079 647.845 465.543 719.205 394.383 761.564C324.613 803.095 237.893 810.267 158.722 792.215C87.1726 775.901 39.2034 715.792 -16.3936 667.903C-69.9086 621.808 -150.236 588.469 -159.147 518.416C-168.074 448.235 -97.5239 396.474 -58.4184 337.512C-28.9659 293.104 -3.06889 247.517 40.6927 217.102C85.6205 185.876 138.909 178.236 191.661 163.703Z" stroke="url(#paint97_linear_222_1678)" stroke-width="3"/>
<path opacity="0.98" fill-rule="evenodd" clip-rule="evenodd" d="M187.014 164.987C269.17 140.799 358.395 58.784 430.405 105.139C500.251 150.1 448.027 264.597 467.266 345.393C485.143 420.468 551.271 483.545 538.64 559.677C525.154 640.963 469.15 712.967 399.087 756.351C330.392 798.888 244.237 807.53 165.155 790.944C93.6851 775.954 44.9158 716.977 -11.2304 670.292C-65.2741 625.356 -145.773 593.579 -155.854 524.029C-165.955 454.352 -96.6616 401.624 -58.7784 342.275C-30.2465 297.577 -5.27253 251.767 37.7388 220.743C81.8963 188.893 134.781 180.365 187.014 164.987Z" stroke="url(#paint98_linear_222_1678)" stroke-width="3"/>
<path opacity="0.99" fill-rule="evenodd" clip-rule="evenodd" d="M182.352 166.411C263.669 140.918 351.015 57.7626 423.462 102.635C493.733 146.158 443.763 260.99 464.307 341.047C483.397 415.436 550.282 477.049 539.038 553.02C527.032 634.134 472.565 706.75 403.612 751.135C336.006 794.652 250.441 804.747 171.474 789.617C100.109 775.944 50.564 718.109 -6.10634 672.633C-60.6546 628.86 -141.294 598.64 -152.532 529.614C-163.791 460.46 -95.7669 406.792 -59.1076 347.082C-31.4974 302.112 -7.44623 256.097 34.8069 224.482C78.1861 192.023 130.653 182.619 182.352 166.411Z" stroke="url(#paint99_linear_222_1678)" stroke-width="3"/>
<path fill-rule="evenodd" clip-rule="evenodd" d="M177.679 167.976C258.136 141.198 343.59 56.9437 416.445 100.332C487.111 142.417 439.392 257.539 461.221 336.837C481.504 410.521 549.117 470.663 539.25 546.447C528.714 627.362 475.787 700.56 407.958 745.919C341.455 790.391 256.503 801.922 177.679 788.24C106.442 775.874 56.1469 719.191 -1.02265 674.927C-56.0514 632.321 -136.803 603.654 -149.182 535.169C-161.583 466.559 -94.8401 411.979 -59.4055 351.933C-32.7178 306.709 -9.58906 260.507 31.8984 228.317C74.4916 195.268 126.526 185 177.679 167.976Z" stroke="url(#paint100_linear_222_1678)" stroke-width="3"/>
</g>
<defs>
<linearGradient id="paint0_linear_222_1678" x1="544.5" y1="468" x2="163" y2="524.5" gradientUnits="userSpaceOnUse">
<stop stop-color="#C4C4C4"/>
<stop offset="1" stop-color="#C4C4C4" stop-opacity="0"/>
</linearGradient>
<linearGradient id="paint1_linear_222_1678" x1="345.432" y1="493.978" x2="-689.207" y2="330.107" gradientUnits="userSpaceOnUse">
<stop stop-color="#00A3FF"/>
<stop offset="1" stop-color="#0D34A0"/>
</linearGradient>
<linearGradient id="paint2_linear_222_1678" x1="351.261" y1="488.347" x2="-682.659" y2="343.039" gradientUnits="userSpaceOnUse">
<stop stop-color="#00A3FF"/>
<stop offset="1" stop-color="#0D34A0"/>
</linearGradient>
<linearGradient id="paint3_linear_222_1678" x1="356.932" y1="482.641" x2="-675.938" y2="355.821" gradientUnits="userSpaceOnUse">
<stop stop-color="#00A3FF"/>
<stop offset="1" stop-color="#0D34A0"/>
</linearGradient>
<linearGradient id="paint4_linear_222_1678" x1="362.442" y1="476.864" x2="-669.048" y2="368.45" gradientUnits="userSpaceOnUse">
<stop stop-color="#00A3FF"/>
<stop offset="1" stop-color="#0D34A0"/>
</linearGradient>
<linearGradient id="paint5_linear_222_1678" x1="367.791" y1="471.02" x2="-661.993" y2="380.925" gradientUnits="userSpaceOnUse">
<stop stop-color="#00A3FF"/>
<stop offset="1" stop-color="#0D34A0"/>
</linearGradient>
<linearGradient id="paint6_linear_222_1678" x1="372.977" y1="465.111" x2="-654.776" y2="393.243" gradientUnits="userSpaceOnUse">
<stop stop-color="#00A3FF"/>
<stop offset="1" stop-color="#0D34A0"/>
</linearGradient>
<linearGradient id="paint7_linear_222_1678" x1="377.999" y1="459.141" x2="-647.402" y2="405.402" gradientUnits="userSpaceOnUse">
<stop stop-color="#00A3FF"/>
<stop offset="1" stop-color="#0D34A0"/>
</linearGradient>
<linearGradient id="paint8_linear_222_1678" x1="382.856" y1="453.113" x2="-639.874" y2="417.399" gradientUnits="userSpaceOnUse">
<stop stop-color="#00A3FF"/>
<stop offset="1" stop-color="#0D34A0"/>
</linearGradient>
<linearGradient id="paint9_linear_222_1678" x1="387.547" y1="447.031" x2="-632.196" y2="429.232" gradientUnits="userSpaceOnUse">
<stop stop-color="#00A3FF"/>
<stop offset="1" stop-color="#0D34A0"/>
</linearGradient>
<linearGradient id="paint10_linear_222_1678" x1="392.072" y1="440.899" x2="-624.372" y2="440.899" gradientUnits="userSpaceOnUse">
<stop stop-color="#00A3FF"/>
<stop offset="1" stop-color="#0D34A0"/>
</linearGradient>
<linearGradient id="paint11_linear_222_1678" x1="396.428" y1="434.719" x2="-616.407" y2="452.398" gradientUnits="userSpaceOnUse">
<stop stop-color="#00A3FF"/>
<stop offset="1" stop-color="#0D34A0"/>
</linearGradient>
<linearGradient id="paint12_linear_222_1678" x1="400.617" y1="428.495" x2="-608.303" y2="463.727" gradientUnits="userSpaceOnUse">
<stop stop-color="#00A3FF"/>
<stop offset="1" stop-color="#0D34A0"/>
</linearGradient>
<linearGradient id="paint13_linear_222_1678" x1="404.635" y1="422.231" x2="-600.066" y2="474.885" gradientUnits="userSpaceOnUse">
<stop stop-color="#00A3FF"/>
<stop offset="1" stop-color="#0D34A0"/>
</linearGradient>
<linearGradient id="paint14_linear_222_1678" x1="408.484" y1="415.929" x2="-591.699" y2="485.869" gradientUnits="userSpaceOnUse">
<stop stop-color="#00A3FF"/>
<stop offset="1" stop-color="#0D34A0"/>
</linearGradient>
<linearGradient id="paint15_linear_222_1678" x1="412.162" y1="409.595" x2="-583.207" y2="496.678" gradientUnits="userSpaceOnUse">
<stop stop-color="#00A3FF"/>
<stop offset="1" stop-color="#0D34A0"/>
</linearGradient>
<linearGradient id="paint16_linear_222_1678" x1="415.67" y1="403.23" x2="-574.592" y2="507.311" gradientUnits="userSpaceOnUse">
<stop stop-color="#00A3FF"/>
<stop offset="1" stop-color="#0D34A0"/>
</linearGradient>
<linearGradient id="paint17_linear_222_1678" x1="419.005" y1="396.839" x2="-565.861" y2="517.765" gradientUnits="userSpaceOnUse">
<stop stop-color="#00A3FF"/>
<stop offset="1" stop-color="#0D34A0"/>
</linearGradient>
<linearGradient id="paint18_linear_222_1678" x1="422.169" y1="390.425" x2="-557.015" y2="528.04" gradientUnits="userSpaceOnUse">
<stop stop-color="#00A3FF"/>
<stop offset="1" stop-color="#0D34A0"/>
</linearGradient>
<linearGradient id="paint19_linear_222_1678" x1="425.161" y1="383.992" x2="-548.06" y2="538.135" gradientUnits="userSpaceOnUse">
<stop stop-color="#00A3FF"/>
<stop offset="1" stop-color="#0D34A0"/>
</linearGradient>
<linearGradient id="paint20_linear_222_1678" x1="427.981" y1="377.543" x2="-539" y2="548.047" gradientUnits="userSpaceOnUse">
<stop stop-color="#00A3FF"/>
<stop offset="1" stop-color="#0D34A0"/>
</linearGradient>
<linearGradient id="paint21_linear_222_1678" x1="430.628" y1="371.081" x2="-529.838" y2="557.777" gradientUnits="userSpaceOnUse">
<stop stop-color="#00A3FF"/>
<stop offset="1" stop-color="#0D34A0"/>
</linearGradient>
<linearGradient id="paint22_linear_222_1678" x1="433.103" y1="364.611" x2="-520.58" y2="567.322" gradientUnits="userSpaceOnUse">
<stop stop-color="#00A3FF"/>
<stop offset="1" stop-color="#0D34A0"/>
</linearGradient>
<linearGradient id="paint23_linear_222_1678" x1="435.404" y1="358.135" x2="-511.229" y2="576.683" gradientUnits="userSpaceOnUse">
<stop stop-color="#00A3FF"/>
<stop offset="1" stop-color="#0D34A0"/>
</linearGradient>
<linearGradient id="paint24_linear_222_1678" x1="437.533" y1="351.658" x2="-501.79" y2="585.857" gradientUnits="userSpaceOnUse">
<stop stop-color="#00A3FF"/>
<stop offset="1" stop-color="#0D34A0"/>
</linearGradient>
<linearGradient id="paint25_linear_222_1678" x1="439.491" y1="345.183" x2="-492.265" y2="594.846" gradientUnits="userSpaceOnUse">
<stop stop-color="#00A3FF"/>
<stop offset="1" stop-color="#0D34A0"/>
</linearGradient>
<linearGradient id="paint26_linear_222_1678" x1="441.275" y1="338.712" x2="-482.661" y2="603.647" gradientUnits="userSpaceOnUse">
<stop stop-color="#00A3FF"/>
<stop offset="1" stop-color="#0D34A0"/>
</linearGradient>
<linearGradient id="paint27_linear_222_1678" x1="442.888" y1="332.251" x2="-472.98" y2="612.26" gradientUnits="userSpaceOnUse">
<stop stop-color="#00A3FF"/>
<stop offset="1" stop-color="#0D34A0"/>
</linearGradient>
<linearGradient id="paint28_linear_222_1678" x1="444.329" y1="325.802" x2="-463.227" y2="620.685" gradientUnits="userSpaceOnUse">
<stop stop-color="#00A3FF"/>
<stop offset="1" stop-color="#0D34A0"/>
</linearGradient>
<linearGradient id="paint29_linear_222_1678" x1="445.599" y1="319.369" x2="-453.406" y2="628.921" gradientUnits="userSpaceOnUse">
<stop stop-color="#00A3FF"/>
<stop offset="1" stop-color="#0D34A0"/>
</linearGradient>
<linearGradient id="paint30_linear_222_1678" x1="446.698" y1="312.954" x2="-443.522" y2="636.968" gradientUnits="userSpaceOnUse">
<stop stop-color="#00A3FF"/>
<stop offset="1" stop-color="#0D34A0"/>
</linearGradient>
<linearGradient id="paint31_linear_222_1678" x1="447.626" y1="306.563" x2="-433.578" y2="644.826" gradientUnits="userSpaceOnUse">
<stop stop-color="#00A3FF"/>
<stop offset="1" stop-color="#0D34A0"/>
</linearGradient>
<linearGradient id="paint32_linear_222_1678" x1="448.385" y1="300.198" x2="-423.578" y2="652.494" gradientUnits="userSpaceOnUse">
<stop stop-color="#00A3FF"/>
<stop offset="1" stop-color="#0D34A0"/>
</linearGradient>
<linearGradient id="paint33_linear_222_1678" x1="448.976" y1="293.863" x2="-413.526" y2="659.973" gradientUnits="userSpaceOnUse">
<stop stop-color="#00A3FF"/>
<stop offset="1" stop-color="#0D34A0"/>
</linearGradient>
<linearGradient id="paint34_linear_222_1678" x1="449.398" y1="287.561" x2="-403.427" y2="667.263" gradientUnits="userSpaceOnUse">
<stop stop-color="#00A3FF"/>
<stop offset="1" stop-color="#0D34A0"/>
</linearGradient>
<linearGradient id="paint35_linear_222_1678" x1="449.653" y1="281.295" x2="-393.285" y2="674.363" gradientUnits="userSpaceOnUse">
<stop stop-color="#00A3FF"/>
<stop offset="1" stop-color="#0D34A0"/>
</linearGradient>
<linearGradient id="paint36_linear_222_1678" x1="449.74" y1="275.069" x2="-383.104" y2="681.274" gradientUnits="userSpaceOnUse">
<stop stop-color="#00A3FF"/>
<stop offset="1" stop-color="#0D34A0"/>
</linearGradient>
<linearGradient id="paint37_linear_222_1678" x1="449.663" y1="268.886" x2="-372.887" y2="687.996" gradientUnits="userSpaceOnUse">
<stop stop-color="#00A3FF"/>
<stop offset="1" stop-color="#0D34A0"/>
</linearGradient>
<linearGradient id="paint38_linear_222_1678" x1="449.422" y1="262.751" x2="-362.638" y2="694.53" gradientUnits="userSpaceOnUse">
<stop stop-color="#00A3FF"/>
<stop offset="1" stop-color="#0D34A0"/>
</linearGradient>
<linearGradient id="paint39_linear_222_1678" x1="449.016" y1="256.664" x2="-352.363" y2="700.876" gradientUnits="userSpaceOnUse">
<stop stop-color="#00A3FF"/>
<stop offset="1" stop-color="#0D34A0"/>
</linearGradient>
<linearGradient id="paint40_linear_222_1678" x1="448.449" y1="250.632" x2="-342.064" y2="707.034" gradientUnits="userSpaceOnUse">
<stop stop-color="#00A3FF"/>
<stop offset="1" stop-color="#0D34A0"/>
</linearGradient>
<linearGradient id="paint41_linear_222_1678" x1="447.72" y1="244.655" x2="-331.746" y2="713.006" gradientUnits="userSpaceOnUse">
<stop stop-color="#00A3FF"/>
<stop offset="1" stop-color="#0D34A0"/>
</linearGradient>
<linearGradient id="paint42_linear_222_1678" x1="446.831" y1="238.739" x2="-321.412" y2="718.791" gradientUnits="userSpaceOnUse">
<stop stop-color="#00A3FF"/>
<stop offset="1" stop-color="#0D34A0"/>
</linearGradient>
<linearGradient id="paint43_linear_222_1678" x1="445.785" y1="232.886" x2="-311.066" y2="724.391" gradientUnits="userSpaceOnUse">
<stop stop-color="#00A3FF"/>
<stop offset="1" stop-color="#0D34A0"/>
</linearGradient>
<linearGradient id="paint44_linear_222_1678" x1="444.581" y1="227.098" x2="-300.713" y2="729.806" gradientUnits="userSpaceOnUse">
<stop stop-color="#00A3FF"/>
<stop offset="1" stop-color="#0D34A0"/>
</linearGradient>
<linearGradient id="paint45_linear_222_1678" x1="443.221" y1="221.381" x2="-290.356" y2="735.037" gradientUnits="userSpaceOnUse">
<stop stop-color="#00A3FF"/>
<stop offset="1" stop-color="#0D34A0"/>
</linearGradient>
<linearGradient id="paint46_linear_222_1678" x1="441.708" y1="215.735" x2="-279.998" y2="740.085" gradientUnits="userSpaceOnUse">
<stop stop-color="#00A3FF"/>
<stop offset="1" stop-color="#0D34A0"/>
</linearGradient>
<linearGradient id="paint47_linear_222_1678" x1="440.042" y1="210.166" x2="-269.644" y2="744.952" gradientUnits="userSpaceOnUse">
<stop stop-color="#00A3FF"/>
<stop offset="1" stop-color="#0D34A0"/>
</linearGradient>
<linearGradient id="paint48_linear_222_1678" x1="438.226" y1="204.675" x2="-259.297" y2="749.639" gradientUnits="userSpaceOnUse">
<stop stop-color="#00A3FF"/>
<stop offset="1" stop-color="#0D34A0"/>
</linearGradient>
<linearGradient id="paint49_linear_222_1678" x1="436.26" y1="199.265" x2="-248.96" y2="754.146" gradientUnits="userSpaceOnUse">
<stop stop-color="#00A3FF"/>
<stop offset="1" stop-color="#0D34A0"/>
</linearGradient>
<linearGradient id="paint50_linear_222_1678" x1="434.148" y1="193.941" x2="-238.638" y2="758.475" gradientUnits="userSpaceOnUse">
<stop stop-color="#00A3FF"/>
<stop offset="1" stop-color="#0D34A0"/>
</linearGradient>
<linearGradient id="paint51_linear_222_1678" x1="431.889" y1="188.704" x2="-228.334" y2="762.627" gradientUnits="userSpaceOnUse">
<stop stop-color="#00A3FF"/>
<stop offset="1" stop-color="#0D34A0"/>
</linearGradient>
<linearGradient id="paint52_linear_222_1678" x1="429.487" y1="183.557" x2="-218.052" y2="766.604" gradientUnits="userSpaceOnUse">
<stop stop-color="#00A3FF"/>
<stop offset="1" stop-color="#0D34A0"/>
</linearGradient>
<linearGradient id="paint53_linear_222_1678" x1="426.944" y1="178.504" x2="-207.795" y2="770.408" gradientUnits="userSpaceOnUse">
<stop stop-color="#00A3FF"/>
<stop offset="1" stop-color="#0D34A0"/>
</linearGradient>
<linearGradient id="paint54_linear_222_1678" x1="424.261" y1="173.548" x2="-197.566" y2="774.039" gradientUnits="userSpaceOnUse">
<stop stop-color="#00A3FF"/>
<stop offset="1" stop-color="#0D34A0"/>
</linearGradient>
<linearGradient id="paint55_linear_222_1678" x1="421.441" y1="168.691" x2="-187.368" y2="777.5" gradientUnits="userSpaceOnUse">
<stop stop-color="#00A3FF"/>
<stop offset="1" stop-color="#0D34A0"/>
</linearGradient>
<linearGradient id="paint56_linear_222_1678" x1="418.485" y1="163.935" x2="-177.206" y2="780.791" gradientUnits="userSpaceOnUse">
<stop stop-color="#00A3FF"/>
<stop offset="1" stop-color="#0D34A0"/>
</linearGradient>
<linearGradient id="paint57_linear_222_1678" x1="415.396" y1="159.284" x2="-167.083" y2="783.916" gradientUnits="userSpaceOnUse">
<stop stop-color="#00A3FF"/>
<stop offset="1" stop-color="#0D34A0"/>
</linearGradient>
<linearGradient id="paint58_linear_222_1678" x1="412.176" y1="154.74" x2="-157.001" y2="786.876" gradientUnits="userSpaceOnUse">
<stop stop-color="#00A3FF"/>
<stop offset="1" stop-color="#0D34A0"/>
</linearGradient>
<linearGradient id="paint59_linear_222_1678" x1="408.828" y1="150.306" x2="-146.964" y2="789.672" gradientUnits="userSpaceOnUse">
<stop stop-color="#00A3FF"/>
<stop offset="1" stop-color="#0D34A0"/>
</linearGradient>
<linearGradient id="paint60_linear_222_1678" x1="405.353" y1="145.985" x2="-136.975" y2="792.307" gradientUnits="userSpaceOnUse">
<stop stop-color="#00A3FF"/>
<stop offset="1" stop-color="#0D34A0"/>
</linearGradient>
<linearGradient id="paint61_linear_222_1678" x1="401.754" y1="141.779" x2="-127.038" y2="794.782" gradientUnits="userSpaceOnUse">
<stop stop-color="#00A3FF"/>
<stop offset="1" stop-color="#0D34A0"/>
</linearGradient>
<linearGradient id="paint62_linear_222_1678" x1="398.034" y1="137.69" x2="-117.154" y2="797.1" gradientUnits="userSpaceOnUse">
<stop stop-color="#00A3FF"/>
<stop offset="1" stop-color="#0D34A0"/>
</linearGradient>
<linearGradient id="paint63_linear_222_1678" x1="394.194" y1="133.721" x2="-107.328" y2="799.263" gradientUnits="userSpaceOnUse">
<stop stop-color="#00A3FF"/>
<stop offset="1" stop-color="#0D34A0"/>
</linearGradient>
<linearGradient id="paint64_linear_222_1678" x1="390.239" y1="129.874" x2="-97.5611" y2="801.273" gradientUnits="userSpaceOnUse">
<stop stop-color="#00A3FF"/>
<stop offset="1" stop-color="#0D34A0"/>
</linearGradient>
<linearGradient id="paint65_linear_222_1678" x1="386.169" y1="126.151" x2="-87.8577" y2="803.131" gradientUnits="userSpaceOnUse">
<stop stop-color="#00A3FF"/>
<stop offset="1" stop-color="#0D34A0"/>
</linearGradient>
<linearGradient id="paint66_linear_222_1678" x1="381.988" y1="122.556" x2="-78.2195" y2="804.842" gradientUnits="userSpaceOnUse">
<stop stop-color="#00A3FF"/>
<stop offset="1" stop-color="#0D34A0"/>
</linearGradient>
<linearGradient id="paint67_linear_222_1678" x1="377.698" y1="119.09" x2="-68.6504" y2="806.406" gradientUnits="userSpaceOnUse">
<stop stop-color="#00A3FF"/>
<stop offset="1" stop-color="#0D34A0"/>
</linearGradient>
<linearGradient id="paint68_linear_222_1678" x1="373.303" y1="115.755" x2="-59.1517" y2="807.826" gradientUnits="userSpaceOnUse">
<stop stop-color="#00A3FF"/>
<stop offset="1" stop-color="#0D34A0"/>
</linearGradient>
<linearGradient id="paint69_linear_222_1678" x1="368.804" y1="112.553" x2="-49.7273" y2="809.105" gradientUnits="userSpaceOnUse">
<stop stop-color="#00A3FF"/>
<stop offset="1" stop-color="#0D34A0"/>
</linearGradient>
<linearGradient id="paint70_linear_222_1678" x1="364.205" y1="109.486" x2="-40.3789" y2="810.245" gradientUnits="userSpaceOnUse">
<stop stop-color="#00A3FF"/>
<stop offset="1" stop-color="#0D34A0"/>
</linearGradient>
<linearGradient id="paint71_linear_222_1678" x1="359.508" y1="106.557" x2="-31.1095" y2="811.249" gradientUnits="userSpaceOnUse">
<stop stop-color="#00A3FF"/>
<stop offset="1" stop-color="#0D34A0"/>
</linearGradient>
<linearGradient id="paint72_linear_222_1678" x1="354.717" y1="103.768" x2="-21.9206" y2="812.119" gradientUnits="userSpaceOnUse">
<stop stop-color="#00A3FF"/>
<stop offset="1" stop-color="#0D34A0"/>
</linearGradient>
<linearGradient id="paint73_linear_222_1678" x1="349.833" y1="101.119" x2="-12.8157" y2="812.858" gradientUnits="userSpaceOnUse">
<stop stop-color="#00A3FF"/>
<stop offset="1" stop-color="#0D34A0"/>
</linearGradient>
<linearGradient id="paint74_linear_222_1678" x1="344.862" y1="98.6137" x2="-3.79613" y2="813.468" gradientUnits="userSpaceOnUse">
<stop stop-color="#00A3FF"/>
<stop offset="1" stop-color="#0D34A0"/>
</linearGradient>
<linearGradient id="paint75_linear_222_1678" x1="339.804" y1="96.253" x2="5.13519" y2="813.953" gradientUnits="userSpaceOnUse">
<stop stop-color="#00A3FF"/>
<stop offset="1" stop-color="#0D34A0"/>
</linearGradient>
<linearGradient id="paint76_linear_222_1678" x1="334.663" y1="94.0387" x2="13.9758" y2="814.314" gradientUnits="userSpaceOnUse">
<stop stop-color="#00A3FF"/>
<stop offset="1" stop-color="#0D34A0"/>
</linearGradient>
<linearGradient id="paint77_linear_222_1678" x1="329.442" y1="91.9724" x2="22.7245" y2="814.555" gradientUnits="userSpaceOnUse">
<stop stop-color="#00A3FF"/>
<stop offset="1" stop-color="#0D34A0"/>
</linearGradient>
<linearGradient id="paint78_linear_222_1678" x1="324.145" y1="90.0562" x2="31.3793" y2="814.678" gradientUnits="userSpaceOnUse">
<stop stop-color="#00A3FF"/>
<stop offset="1" stop-color="#0D34A0"/>
</linearGradient>
<linearGradient id="paint79_linear_222_1678" x1="318.775" y1="88.2908" x2="39.9378" y2="814.687" gradientUnits="userSpaceOnUse">
<stop stop-color="#00A3FF"/>
<stop offset="1" stop-color="#0D34A0"/>
</linearGradient>
<linearGradient id="paint80_linear_222_1678" x1="313.334" y1="86.6782" x2="48.3984" y2="814.584" gradientUnits="userSpaceOnUse">
<stop stop-color="#00A3FF"/>
<stop offset="1" stop-color="#0D34A0"/>
</linearGradient>
<linearGradient id="paint81_linear_222_1678" x1="307.826" y1="85.2196" x2="56.7585" y2="814.371" gradientUnits="userSpaceOnUse">
<stop stop-color="#00A3FF"/>
<stop offset="1" stop-color="#0D34A0"/>
</linearGradient>
<linearGradient id="paint82_linear_222_1678" x1="302.253" y1="83.9163" x2="65.0172" y2="814.053" gradientUnits="userSpaceOnUse">
<stop stop-color="#00A3FF"/>
<stop offset="1" stop-color="#0D34A0"/>
</linearGradient>
<linearGradient id="paint83_linear_222_1678" x1="296.62" y1="82.7697" x2="73.1734" y2="813.632" gradientUnits="userSpaceOnUse">
<stop stop-color="#00A3FF"/>
<stop offset="1" stop-color="#0D34A0"/>
</linearGradient>
<linearGradient id="paint84_linear_222_1678" x1="290.929" y1="81.781" x2="81.2234" y2="813.111" gradientUnits="userSpaceOnUse">
<stop stop-color="#00A3FF"/>
<stop offset="1" stop-color="#0D34A0"/>
</linearGradient>
<linearGradient id="paint85_linear_222_1678" x1="285.184" y1="80.9509" x2="89.1683" y2="812.492" gradientUnits="userSpaceOnUse">
<stop stop-color="#00A3FF"/>
<stop offset="1" stop-color="#0D34A0"/>
</linearGradient>
<linearGradient id="paint86_linear_222_1678" x1="279.388" y1="80.281" x2="97.0049" y2="811.78" gradientUnits="userSpaceOnUse">
<stop stop-color="#00A3FF"/>
<stop offset="1" stop-color="#0D34A0"/>
</linearGradient>
<linearGradient id="paint87_linear_222_1678" x1="273.544" y1="79.7721" x2="104.733" y2="810.977" gradientUnits="userSpaceOnUse">
<stop stop-color="#00A3FF"/>
<stop offset="1" stop-color="#0D34A0"/>
</linearGradient>
<linearGradient id="paint88_linear_222_1678" x1="267.656" y1="79.4253" x2="112.349" y2="810.086" gradientUnits="userSpaceOnUse">
<stop stop-color="#00A3FF"/>
<stop offset="1" stop-color="#0D34A0"/>
</linearGradient>
<linearGradient id="paint89_linear_222_1678" x1="261.727" y1="79.2409" x2="119.855" y2="809.109" gradientUnits="userSpaceOnUse">
<stop stop-color="#00A3FF"/>
<stop offset="1" stop-color="#0D34A0"/>
</linearGradient>
<linearGradient id="paint90_linear_222_1678" x1="255.76" y1="79.2202" x2="127.247" y2="808.051" gradientUnits="userSpaceOnUse">
<stop stop-color="#00A3FF"/>
<stop offset="1" stop-color="#0D34A0"/>
</linearGradient>
<linearGradient id="paint91_linear_222_1678" x1="249.758" y1="79.3638" x2="134.525" y2="806.915" gradientUnits="userSpaceOnUse">
<stop stop-color="#00A3FF"/>
<stop offset="1" stop-color="#0D34A0"/>
</linearGradient>
<linearGradient id="paint92_linear_222_1678" x1="243.726" y1="79.6723" x2="141.689" y2="805.702" gradientUnits="userSpaceOnUse">
<stop stop-color="#00A3FF"/>
<stop offset="1" stop-color="#0D34A0"/>
</linearGradient>
<linearGradient id="paint93_linear_222_1678" x1="237.666" y1="80.1464" x2="148.737" y2="804.418" gradientUnits="userSpaceOnUse">
<stop stop-color="#00A3FF"/>
<stop offset="1" stop-color="#0D34A0"/>
</linearGradient>
<linearGradient id="paint94_linear_222_1678" x1="231.582" y1="80.7866" x2="155.667" y2="803.064" gradientUnits="userSpaceOnUse">
<stop stop-color="#00A3FF"/>
<stop offset="1" stop-color="#0D34A0"/>
</linearGradient>
<linearGradient id="paint95_linear_222_1678" x1="225.477" y1="81.5931" x2="162.481" y2="801.644" gradientUnits="userSpaceOnUse">
<stop stop-color="#00A3FF"/>
<stop offset="1" stop-color="#0D34A0"/>
</linearGradient>
<linearGradient id="paint96_linear_222_1678" x1="219.356" y1="82.5667" x2="169.177" y2="800.161" gradientUnits="userSpaceOnUse">
<stop stop-color="#00A3FF"/>
<stop offset="1" stop-color="#0D34A0"/>
</linearGradient>
<linearGradient id="paint97_linear_222_1678" x1="213.22" y1="83.7073" x2="175.753" y2="798.618" gradientUnits="userSpaceOnUse">
<stop stop-color="#00A3FF"/>
<stop offset="1" stop-color="#0D34A0"/>
</linearGradient>
<linearGradient id="paint98_linear_222_1678" x1="207.074" y1="85.0153" x2="182.21" y2="797.019" gradientUnits="userSpaceOnUse">
<stop stop-color="#00A3FF"/>
<stop offset="1" stop-color="#0D34A0"/>
</linearGradient>
<linearGradient id="paint99_linear_222_1678" x1="200.921" y1="86.4912" x2="188.548" y2="795.366" gradientUnits="userSpaceOnUse">
<stop stop-color="#00A3FF"/>
<stop offset="1" stop-color="#0D34A0"/>
</linearGradient>
<linearGradient id="paint100_linear_222_1678" x1="194.765" y1="88.1346" x2="194.765" y2="793.663" gradientUnits="userSpaceOnUse">
<stop stop-color="#00A3FF"/>
<stop offset="1" stop-color="#0D34A0"/>
</linearGradient>
</defs>
</svg>
