<svg width="320" height="1090" viewBox="0 0 320 1090" fill="none" xmlns="http://www.w3.org/2000/svg">
<path opacity="0.01" fill-rule="evenodd" clip-rule="evenodd" d="M-63.4689 289.2C-68.972 166.938 -164.319 8.04706 -60.8419 -67.4768C39.5254 -140.731 201.929 -16.5911 339.249 -4.72945C466.844 6.29224 594.747 -53.457 711.682 -0.746252C836.533 55.5324 929.285 164.876 970.46 279.8C1010.83 392.479 989.794 512.861 931.176 611.876C878.2 701.36 763.9 739.591 666.319 793.54C572.392 845.468 488.848 939.282 373.267 920.322C257.474 901.328 201.006 783.068 121.205 704.12C61.102 644.659 -2.22338 589.483 -34.5395 516.876C-67.7169 442.334 -59.9702 366.93 -63.4689 289.2Z" stroke="url(#paint0_linear_188_719)" stroke-width="3"/>
<path opacity="0.02" fill-rule="evenodd" clip-rule="evenodd" d="M-70.0428 291.396C-78.0037 169.451 -176.1 12.2949 -74.6797 -64.6369C23.6935 -139.257 187.804 -17.7911 324.673 -8.01246C451.851 1.07375 577.895 -60.4801 695.314 -9.62472C820.681 44.673 915.188 152.416 958.493 266.502C1000.95 378.36 982.467 498.826 926.156 598.531C875.266 688.639 762.319 728.512 666.325 783.821C573.926 837.06 492.71 931.948 377.325 914.758C261.728 897.537 203.141 780.351 122.136 702.751C61.1271 644.307 -3.00129 590.186 -36.6308 518.202C-71.1565 444.301 -64.9816 368.925 -70.0428 291.396Z" stroke="url(#paint1_linear_188_719)" stroke-width="3"/>
<path opacity="0.03" fill-rule="evenodd" clip-rule="evenodd" d="M-76.494 293.688C-86.8935 172.097 -187.69 16.7158 -88.3446 -61.5896C8.01571 -137.542 173.768 -18.7722 310.146 -11.0659C436.867 -3.90537 561.025 -67.2318 678.885 -18.2361C804.723 34.076 900.945 140.193 946.35 253.41C990.868 364.415 974.926 484.927 920.926 585.285C872.124 675.983 760.556 717.473 666.171 774.117C575.32 828.639 496.442 924.562 381.289 909.137C265.926 893.684 205.251 777.602 123.078 701.367C61.1883 643.951 -3.71685 590.896 -38.64 519.556C-74.4939 446.315 -69.8823 370.992 -76.494 293.688Z" stroke="url(#paint2_linear_188_719)" stroke-width="3"/>
<path opacity="0.04" fill-rule="evenodd" clip-rule="evenodd" d="M-82.8201 296.073C-95.6385 174.874 -199.084 21.3056 -101.832 -58.3386C-7.50267 -135.59 159.826 -19.537 295.672 -13.8919C421.898 -8.64656 544.141 -73.7132 662.402 -26.5808C788.668 23.7419 886.56 128.21 934.037 240.526C980.587 350.648 967.174 471.166 915.487 572.139C868.775 663.393 758.615 706.478 665.858 764.427C576.575 820.207 500.044 917.128 385.16 903.461C270.065 889.768 207.338 774.822 124.03 699.968C61.2861 643.591 -4.36952 591.613 -40.5663 520.935C-77.7278 448.374 -74.6705 373.128 -82.8201 296.073Z" stroke="url(#paint3_linear_188_719)" stroke-width="3"/>
<path opacity="0.05" fill-rule="evenodd" clip-rule="evenodd" d="M-89.0197 298.549C-104.237 177.778 -210.28 26.0615 -115.139 -54.8866C-22.8572 -133.402 145.983 -20.0867 281.255 -16.4909C406.949 -13.1497 527.251 -79.9237 645.871 -34.6577C772.521 13.6724 872.04 116.468 921.56 227.853C970.112 337.062 959.217 457.546 909.844 559.098C865.223 650.875 756.497 695.528 665.387 754.757C577.689 811.767 503.517 909.648 388.936 897.731C274.146 885.792 209.4 772.011 124.992 698.553C61.4203 643.227 -4.95939 592.336 -42.4095 522.339C-80.8576 450.476 -79.3452 375.331 -89.0197 298.549Z" stroke="url(#paint4_linear_188_719)" stroke-width="3"/>
<path opacity="0.06" fill-rule="evenodd" clip-rule="evenodd" d="M-95.091 301.113C-112.685 180.808 -221.274 30.9798 -128.261 -51.2371C-38.0433 -130.984 132.243 -20.4235 266.903 -18.8645C392.027 -17.4159 510.361 -85.8639 629.299 -42.4665C756.288 3.86834 857.392 104.969 908.925 215.392C959.45 323.658 951.059 444.07 904 546.164C861.471 638.43 754.204 684.627 664.76 745.106C578.666 803.321 506.859 902.123 392.618 891.948C278.167 881.755 211.437 769.169 125.965 697.121C61.5911 642.858 -5.48615 593.062 -44.1688 523.765C-83.8825 452.62 -83.905 377.6 -95.091 301.113Z" stroke="url(#paint5_linear_188_719)" stroke-width="3"/>
<path opacity="0.07" fill-rule="evenodd" clip-rule="evenodd" d="M-101.03 303.764C-120.98 183.96 -232.062 36.0571 -141.193 -47.3932C-53.0544 -128.336 118.613 -20.5494 252.619 -21.014C377.137 -21.4458 493.478 -91.5344 612.694 -50.0074C739.978 -5.66945 842.623 93.7144 896.137 203.147C948.606 310.441 942.705 430.741 897.96 533.339C857.523 626.062 751.74 673.777 663.98 735.479C579.507 794.871 510.073 894.555 396.206 886.115C282.13 877.659 213.451 766.296 126.95 695.673C61.8002 642.483 -5.94796 593.793 -45.8423 525.212C-86.7998 454.804 -88.3469 379.932 -101.03 303.764Z" stroke="url(#paint6_linear_188_719)" stroke-width="3"/>
<path opacity="0.08" fill-rule="evenodd" clip-rule="evenodd" d="M-106.838 306.499C-129.121 187.232 -242.642 41.2897 -153.932 -43.3586C-67.8875 -125.463 105.096 -20.4665 238.41 -22.9411C362.284 -25.2404 476.608 -96.9357 596.06 -57.28C723.597 -14.94 827.739 82.7063 883.204 191.118C937.586 297.412 934.16 417.562 891.728 520.628C853.381 613.773 749.106 662.981 663.048 725.878C580.212 786.419 513.158 886.947 399.699 880.232C286.033 873.505 215.441 763.394 127.945 694.209C62.0465 642.102 -6.3459 594.525 -47.4306 526.679C-89.6103 457.025 -92.6711 382.325 -106.838 306.499Z" stroke="url(#paint7_linear_188_719)" stroke-width="3"/>
<path opacity="0.09" fill-rule="evenodd" clip-rule="evenodd" d="M-112.512 309.315C-137.104 190.621 -253.012 46.674 -166.475 -39.1363C-82.5382 -122.368 91.6955 -20.1769 224.278 -24.6471C347.473 -28.8007 459.757 -102.068 579.404 -64.2842C707.151 -23.9427 812.744 71.9459 870.13 179.309C926.394 284.575 925.427 404.535 885.306 508.033C849.048 601.567 746.306 652.242 661.965 716.304C580.782 777.968 516.113 879.301 403.098 874.302C289.875 869.294 217.406 760.462 128.951 692.729C62.33 641.715 -6.68001 595.258 -48.9336 528.165C-92.3133 459.283 -96.8765 384.778 -112.512 309.315Z" stroke="url(#paint8_linear_188_719)" stroke-width="3"/>
<path opacity="0.1" fill-rule="evenodd" clip-rule="evenodd" d="M-118.05 312.212C-144.929 194.125 -263.167 52.2064 -178.817 -34.7301C-97.0014 -119.054 78.417 -19.683 210.23 -26.1338C332.71 -32.1277 442.93 -106.933 562.734 -71.0204C690.646 -32.6769 797.648 61.4344 856.921 167.721C915.036 271.93 916.511 391.665 878.699 495.556C844.527 589.447 743.34 641.561 660.733 706.76C581.219 769.518 518.94 871.618 406.401 868.326C293.656 865.027 219.347 757.501 129.968 691.231C62.6513 641.319 -6.94948 595.992 -50.3502 529.667C-94.9076 461.575 -100.961 387.288 -118.05 312.212Z" stroke="url(#paint9_linear_188_719)" stroke-width="3"/>
<path opacity="0.11" fill-rule="evenodd" clip-rule="evenodd" d="M-123.45 315.185C-152.591 197.74 -273.107 57.883 -190.955 -30.1436C-111.273 -115.525 65.2651 -18.9873 196.271 -27.4031C318.001 -35.223 426.136 -111.531 546.054 -77.489C674.09 -41.1426 782.455 51.1727 843.584 156.355C903.518 259.482 907.419 378.952 871.911 483.2C839.822 577.414 740.213 630.942 659.354 697.249C581.523 761.073 521.638 863.902 409.61 862.304C297.376 860.704 221.263 754.511 130.996 689.716C63.0109 640.915 -7.15388 596.724 -51.6796 531.185C-97.392 463.899 -104.924 389.853 -123.45 315.185Z" stroke="url(#paint10_linear_188_719)" stroke-width="3"/>
<path opacity="0.12" fill-rule="evenodd" clip-rule="evenodd" d="M-128.713 318.233C-160.09 201.465 -282.828 63.7003 -202.887 -25.3802C-125.349 -111.784 52.2429 -18.0917 182.405 -28.4564C303.35 -38.0872 409.379 -115.863 529.372 -83.6897C657.488 -49.3387 767.172 41.1626 830.123 145.213C891.845 247.231 898.153 366.4 864.946 470.969C834.936 565.473 736.927 620.386 657.831 687.772C581.697 752.635 524.208 856.153 412.723 856.24C301.034 856.327 223.155 751.492 132.035 688.184C63.4078 640.503 -7.29412 597.454 -52.9226 532.717C-99.7671 466.253 -108.765 392.471 -128.713 318.233Z" stroke="url(#paint11_linear_188_719)" stroke-width="3"/>
<path opacity="0.13" fill-rule="evenodd" clip-rule="evenodd" d="M-133.834 321.353C-167.421 205.294 -292.326 69.654 -214.607 -20.4439C-139.224 -107.835 39.3567 -16.9992 168.637 -29.2962C288.764 -40.7224 392.666 -119.93 512.695 -89.6237C640.849 -57.2657 751.806 31.4043 816.547 134.297C880.024 235.18 888.72 354.01 857.809 458.864C829.873 553.625 733.485 609.897 656.165 678.332C581.741 744.204 526.652 848.373 415.743 850.134C304.631 851.897 225.023 748.445 133.087 686.634C63.8443 640.08 -7.36803 598.181 -54.0767 534.26C-102.03 468.636 -112.48 395.14 -133.834 321.353Z" stroke="url(#paint12_linear_188_719)" stroke-width="3"/>
<path opacity="0.14" fill-rule="evenodd" clip-rule="evenodd" d="M-138.814 324.543C-174.585 209.228 -301.601 75.741 -226.113 -15.3378C-152.894 -103.68 26.6092 -15.7118 154.973 -29.9237C274.247 -43.1293 376.003 -123.734 496.028 -95.2908C624.178 -64.9227 736.363 21.8995 802.861 123.609C868.059 223.332 879.124 341.786 850.503 446.888C824.636 541.873 729.889 599.476 654.359 668.931C581.657 735.785 528.969 840.566 418.668 843.987C308.166 847.415 226.867 745.371 134.149 685.066C64.3189 639.647 -7.3769 598.903 -55.1429 535.815C-104.182 471.046 -116.071 397.857 -138.814 324.543Z" stroke="url(#paint13_linear_188_719)" stroke-width="3"/>
<path opacity="0.15" fill-rule="evenodd" clip-rule="evenodd" d="M-143.65 327.801C-181.579 213.261 -310.649 81.9569 -237.402 -10.0663C-166.357 -99.3244 14.0047 -14.2326 141.415 -30.3417C259.804 -45.31 359.397 -127.275 479.378 -100.692C607.481 -72.3103 720.85 12.6483 789.069 113.149C855.956 211.687 869.37 329.73 843.032 435.044C819.229 530.221 726.142 589.126 652.413 659.571C581.446 727.377 531.159 832.732 421.499 837.802C311.638 842.881 228.687 742.268 135.224 683.48C64.8321 639.204 -7.32036 599.62 -56.1207 537.379C-106.222 473.48 -119.536 400.622 -143.65 327.801Z" stroke="url(#paint14_linear_188_719)" stroke-width="3"/>
<path opacity="0.16" fill-rule="evenodd" clip-rule="evenodd" d="M-148.343 331.123C-188.402 217.39 -319.469 88.2973 -248.472 -4.63359C-179.608 -94.7721 1.54642 -12.5646 127.969 -30.5525C245.439 -47.2666 342.851 -130.555 462.75 -105.829C590.765 -79.429 705.272 3.65108 775.178 102.919C843.719 200.247 859.462 317.843 835.399 423.333C813.653 518.669 722.245 578.849 650.33 650.253C581.108 718.984 533.222 824.874 424.234 831.579C315.046 838.296 230.481 739.138 136.309 681.875C65.383 638.748 -7.19919 600.329 -57.0107 538.951C-108.15 475.937 -122.875 403.43 -148.343 331.123Z" stroke="url(#paint15_linear_188_719)" stroke-width="3"/>
<path opacity="0.17" fill-rule="evenodd" clip-rule="evenodd" d="M-152.889 334.507C-195.05 221.615 -328.058 94.7593 -259.317 0.957437C-192.642 -90.0258 -10.7592 -10.7097 114.641 -30.5574C231.161 -48.9997 326.374 -133.576 446.152 -110.701C574.038 -86.2781 689.637 -5.09079 761.196 92.9195C831.358 189.015 849.407 306.129 827.612 411.759C807.916 507.221 718.205 568.647 648.114 640.981C580.648 710.606 535.162 816.993 426.876 825.32C318.392 833.662 232.253 735.981 137.408 680.252C65.9745 638.279 -7.01076 601.031 -57.81 540.529C-109.963 478.414 -126.085 406.281 -152.889 334.507Z" stroke="url(#paint16_linear_188_719)" stroke-width="3"/>
<path opacity="0.18" fill-rule="evenodd" clip-rule="evenodd" d="M-157.29 337.951C-201.524 225.929 -336.415 101.338 -269.938 6.70181C-205.458 -85.0905 -22.9121 -8.67166 101.431 -30.3599C216.97 -50.5123 309.969 -136.339 429.588 -115.311C557.303 -92.8588 673.949 -13.5778 747.126 83.1517C818.874 177.992 839.207 294.587 819.672 400.322C802.016 495.878 714.021 558.521 645.764 631.755C580.064 702.246 536.975 809.092 429.423 819.027C321.673 828.98 233.999 732.798 138.516 678.61C66.6027 637.798 -6.7588 601.723 -58.5221 542.111C-111.665 480.911 -129.168 409.171 -157.29 337.951Z" stroke="url(#paint17_linear_188_719)" stroke-width="3"/>
<path opacity="0.19" fill-rule="evenodd" clip-rule="evenodd" d="M-161.543 341.452C-207.82 230.332 -344.538 108.029 -280.329 12.5963C-218.05 -79.9692 -34.9059 -6.45266 88.3476 -29.9614C202.874 -51.8054 293.644 -138.847 413.065 -119.658C540.57 -99.1708 658.216 -21.8089 732.976 73.617C806.275 167.179 828.87 283.222 811.583 389.025C795.961 484.644 709.697 548.475 643.284 622.578C579.359 693.906 538.665 801.172 431.876 812.7C324.892 824.249 235.722 729.588 139.637 676.948C67.2703 637.302 -6.44065 602.405 -59.1443 543.697C-113.252 483.423 -132.121 412.098 -161.543 341.452Z" stroke="url(#paint18_linear_188_719)" stroke-width="3"/>
<path opacity="0.2" fill-rule="evenodd" clip-rule="evenodd" d="M-165.647 345.007C-213.939 234.819 -352.424 114.83 -290.49 18.6362C-230.416 -74.6667 -46.7378 -4.05629 75.3931 -29.3651C188.876 -52.8817 277.404 -141.1 396.589 -123.745C523.842 -105.215 642.444 -29.7846 718.75 64.3155C793.565 156.577 818.399 272.034 803.351 377.871C789.752 473.52 705.237 538.51 640.676 613.452C578.533 685.588 540.231 793.236 434.235 806.342C328.045 819.473 237.421 726.351 140.769 675.266C67.9763 636.791 -6.05738 603.076 -59.6773 545.283C-114.726 485.951 -134.944 415.061 -165.647 345.007Z" stroke="url(#paint19_linear_188_719)" stroke-width="3"/>
<path opacity="0.21" fill-rule="evenodd" clip-rule="evenodd" d="M-169.6 348.614C-219.876 239.387 -360.071 121.735 -300.415 24.8182C-242.552 -69.1864 -58.4032 -1.48487 62.573 -28.5728C174.983 -53.7426 261.255 -143.1 380.167 -127.572C507.129 -110.992 626.64 -37.5041 704.456 55.2486C780.753 146.189 807.8 261.025 794.981 366.861C783.396 462.509 700.643 528.629 637.943 604.379C577.591 677.292 541.675 785.284 436.502 799.954C331.136 814.65 239.096 723.089 141.914 673.565C68.722 636.265 -5.60785 603.733 -60.12 546.87C-116.085 488.491 -137.636 418.057 -169.6 348.614Z" stroke="url(#paint20_linear_188_719)" stroke-width="3"/>
<path opacity="0.22" fill-rule="evenodd" clip-rule="evenodd" d="M-173.404 352.27C-225.633 244.034 -367.48 128.74 -310.106 31.1373C-254.455 -63.533 -69.9004 1.25777 49.8894 -27.5878C161.197 -54.3909 245.201 -144.851 363.803 -131.141C490.434 -116.504 610.808 -44.968 690.099 46.4161C767.84 136.015 797.077 250.197 786.474 355.997C776.892 451.613 695.917 518.831 635.085 595.359C576.531 669.022 542.997 777.32 438.674 793.536C334.161 809.783 240.746 719.801 143.07 671.843C69.5053 635.722 -5.09416 604.377 -60.4742 548.454C-117.33 491.042 -140.198 421.084 -173.404 352.27Z" stroke="url(#paint21_linear_188_719)" stroke-width="3"/>
<path opacity="0.23" fill-rule="evenodd" clip-rule="evenodd" d="M-177.055 355.973C-231.207 248.756 -374.646 135.842 -319.556 37.5896C-266.121 -57.7105 -81.2237 4.16872 37.3489 -26.4127C147.525 -54.8286 229.25 -146.353 347.505 -134.454C473.765 -121.749 594.958 -52.1764 675.685 37.8189C754.836 126.056 786.238 239.551 777.839 345.28C770.248 440.832 691.065 509.121 632.107 586.396C575.357 660.777 544.199 769.343 440.756 787.091C337.123 804.872 242.373 716.488 144.239 670.1C70.3287 635.162 -4.51393 605.005 -60.7374 550.036C-118.459 493.601 -142.627 424.138 -177.055 355.973Z" stroke="url(#paint22_linear_188_719)" stroke-width="3"/>
<path opacity="0.24" fill-rule="evenodd" clip-rule="evenodd" d="M-180.555 359.72C-236.597 253.55 -381.571 143.036 -328.767 44.1714C-277.549 -51.7228 -92.3727 7.24518 24.9524 -25.0497C133.97 -55.0577 213.404 -147.609 331.276 -137.512C457.127 -126.73 579.091 -59.129 661.219 29.4576C741.743 116.314 775.283 229.089 769.075 334.714C763.464 430.171 686.086 499.499 629.008 577.49C574.069 652.561 545.279 761.358 442.743 780.62C340.019 799.918 243.976 713.15 145.418 668.336C71.189 634.585 -3.87033 605.617 -60.9126 551.612C-119.475 496.168 -144.925 427.219 -180.555 359.72Z" stroke="url(#paint23_linear_188_719)" stroke-width="3"/>
<path opacity="0.25" fill-rule="evenodd" clip-rule="evenodd" d="M-183.902 363.507C-241.803 258.412 -388.252 150.318 -337.734 50.8772C-288.735 -45.5753 -103.342 10.4828 12.7056 -23.5027C120.536 -55.0816 197.671 -148.623 315.124 -140.317C440.527 -131.449 563.217 -65.8273 646.708 21.3316C728.569 106.788 764.22 218.812 760.189 324.297C756.546 419.629 680.985 489.967 625.793 568.644C572.669 644.374 546.24 753.364 444.638 774.124C342.85 794.921 245.554 709.786 146.609 666.551C72.0881 633.988 -3.16162 606.211 -60.998 553.181C-120.376 498.738 -147.091 430.323 -183.902 363.507Z" stroke="url(#paint24_linear_188_719)" stroke-width="3"/>
<path opacity="0.26" fill-rule="evenodd" clip-rule="evenodd" d="M-187.095 367.333C-246.821 263.339 -394.687 157.683 -346.456 57.7041C-299.675 -39.2709 -114.129 13.8795 0.612959 -21.7733C107.23 -54.9015 182.056 -149.394 299.054 -142.87C423.971 -135.905 547.341 -72.2704 632.159 13.4421C715.319 97.4801 753.055 208.721 751.187 314.034C749.498 409.21 675.766 480.527 622.465 559.858C571.159 636.219 547.083 745.365 446.443 767.604C345.617 789.884 247.11 706.398 147.813 664.744C73.0265 633.372 -2.38746 606.786 -60.9932 554.742C-121.161 501.311 -149.123 433.448 -187.095 367.333Z" stroke="url(#paint25_linear_188_719)" stroke-width="3"/>
<path opacity="0.27" fill-rule="evenodd" clip-rule="evenodd" d="M-190.134 371.194C-251.654 268.329 -400.877 165.128 -354.932 64.6466C-310.368 -32.8152 -124.731 17.431 -11.3235 -19.8655C94.0534 -54.521 166.564 -149.927 283.071 -145.174C407.464 -140.1 531.469 -78.4599 617.575 5.78836C701.998 88.3908 741.791 198.818 742.071 303.925C742.323 398.914 670.431 471.179 619.024 551.135C569.541 628.097 547.809 737.361 448.155 761.062C348.319 784.806 248.641 702.985 149.027 662.915C74.0023 632.736 -1.54979 607.341 -60.8999 556.293C-121.832 503.884 -151.022 436.592 -190.134 371.194Z" stroke="url(#paint26_linear_188_719)" stroke-width="3"/>
<path opacity="0.28" fill-rule="evenodd" clip-rule="evenodd" d="M-193.019 375.088C-256.298 273.376 -406.819 172.647 -363.159 71.7009C-320.811 -26.2121 -135.145 21.134 -23.0996 -17.782C81.0116 -53.9424 151.198 -150.224 267.18 -147.231C391.012 -144.037 515.607 -84.3963 602.963 -1.62942C688.613 79.5205 730.434 189.103 732.845 293.971C735.024 388.744 664.983 461.927 615.472 542.476C567.816 620.008 548.418 729.355 449.777 754.499C350.955 779.689 250.149 699.548 150.253 661.063C75.0162 632.078 -0.648138 607.875 -60.7175 557.832C-122.388 506.455 -152.789 439.753 -193.019 375.088Z" stroke="url(#paint27_linear_188_719)" stroke-width="3"/>
<path opacity="0.29" fill-rule="evenodd" clip-rule="evenodd" d="M-195.749 379.011C-260.753 278.479 -412.514 180.237 -371.136 78.8624C-331.001 -19.4662 -145.368 24.9852 -34.7119 -15.5259C68.1084 -53.1684 135.966 -150.287 251.388 -149.043C374.622 -147.715 499.761 -90.0801 588.329 -8.81141C675.167 70.8696 718.989 179.578 723.516 284.173C727.606 378.7 659.425 452.77 611.814 533.882C565.986 611.955 548.91 721.347 451.308 747.916C353.526 774.534 251.633 696.086 151.49 659.188C76.0677 631.399 0.317 608.386 -60.4466 559.358C-122.83 509.023 -154.421 442.927 -195.749 379.011Z" stroke="url(#paint28_linear_188_719)" stroke-width="3"/>
<path opacity="0.3" fill-rule="evenodd" clip-rule="evenodd" d="M-198.323 382.963C-265.019 283.634 -417.959 187.894 -378.86 86.1269C-340.936 -12.5819 -155.396 28.9811 -46.1561 -13.1002C55.3488 -52.2016 120.871 -150.12 235.699 -150.612C358.3 -151.138 483.937 -95.5123 573.68 -15.7576C661.669 62.439 707.462 170.243 714.086 274.534C720.073 368.785 653.761 443.712 608.051 525.354C564.054 603.94 549.29 713.341 452.749 741.315C356.032 769.341 253.094 692.601 152.74 657.291C77.1575 630.697 1.34607 608.874 -60.0866 560.869C-123.156 511.585 -155.92 446.113 -198.323 382.963Z" stroke="url(#paint29_linear_188_719)" stroke-width="3"/>
<path opacity="0.31" fill-rule="evenodd" clip-rule="evenodd" d="M-200.741 386.938C-269.094 288.838 -423.154 195.612 -386.331 93.4896C-350.614 -5.5641 -165.228 33.1177 -57.4295 -10.5083C42.7362 -51.0452 105.919 -149.724 220.12 -151.94C342.051 -154.306 468.141 -100.694 559.019 -22.4687C648.122 54.2285 695.857 161.099 704.562 265.053C712.429 359 647.993 434.752 604.187 516.895C562.02 595.963 549.555 705.336 454.102 734.697C358.474 764.112 254.531 689.093 154 655.37C78.285 629.971 2.43838 609.336 -59.6381 562.364C-123.369 514.139 -157.285 449.308 -200.741 386.938Z" stroke="url(#paint30_linear_188_719)" stroke-width="3"/>
<path opacity="0.32" fill-rule="evenodd" clip-rule="evenodd" d="M-203.004 390.936C-272.979 294.086 -428.1 203.388 -393.547 100.946C-360.033 1.5829 -174.862 37.3918 -68.5291 -7.75338C30.2741 -49.7018 91.1144 -149.104 204.654 -153.03C325.88 -157.221 452.378 -105.626 544.354 -28.9449C634.532 46.2383 684.178 152.147 694.945 255.732C704.677 349.346 642.125 425.893 600.221 508.506C559.887 588.025 549.708 697.335 455.365 728.062C360.849 758.846 255.945 685.56 155.272 653.424C79.4492 629.221 3.59287 609.773 -59.102 563.84C-123.468 516.683 -158.516 452.509 -203.004 390.936Z" stroke="url(#paint31_linear_188_719)" stroke-width="3"/>
<path opacity="0.33" fill-rule="evenodd" clip-rule="evenodd" d="M-205.111 394.952C-276.673 299.376 -432.796 211.217 -400.508 108.492C-369.191 8.85435 -184.294 41.7995 -79.4518 -4.83881C17.9663 -48.1747 76.461 -148.262 189.308 -153.884C309.793 -159.887 436.654 -110.31 529.689 -35.187C620.905 38.4685 672.431 143.388 685.242 246.573C696.82 339.825 636.16 417.134 596.159 500.186C557.655 580.128 549.75 689.34 456.54 721.413C363.159 753.545 257.335 682.004 156.554 651.454C80.6503 628.445 4.80932 610.181 -58.4787 565.296C-123.453 519.214 -159.615 455.715 -205.111 394.952Z" stroke="url(#paint32_linear_188_719)" stroke-width="3"/>
<path opacity="0.34" fill-rule="evenodd" clip-rule="evenodd" d="M-207.062 398.983C-280.175 304.704 -437.24 219.094 -407.212 116.123C-378.085 16.2451 -193.522 46.3367 -90.1946 -1.76832C5.8164 -46.467 61.9636 -147.201 174.085 -154.505C293.795 -162.304 420.975 -114.748 515.029 -41.1958C607.246 30.919 660.621 134.821 675.456 237.574C688.863 330.437 630.1 408.478 592 491.939C555.328 572.274 549.68 681.351 457.626 714.75C365.404 748.211 258.702 678.424 157.847 649.459C81.8878 627.644 6.08722 610.561 -57.7684 566.731C-123.326 521.732 -160.579 458.923 -207.062 398.983Z" stroke="url(#paint33_linear_188_719)" stroke-width="3"/>
<path opacity="0.35" fill-rule="evenodd" clip-rule="evenodd" d="M-208.856 403.028C-283.484 310.067 -441.433 227.016 -413.657 123.833C-386.715 23.7512 -202.544 51.0003 -100.753 1.45527C-6.17062 -44.5815 47.6281 -145.924 158.992 -154.895C277.894 -164.474 405.347 -118.939 500.383 -46.9716C593.561 23.5899 648.754 126.448 665.593 228.739C680.811 321.184 623.95 399.926 587.751 483.764C552.907 564.463 549.503 673.371 458.627 708.075C367.584 742.843 260.046 674.822 159.152 647.439C83.1626 626.816 7.42732 610.912 -56.9706 568.142C-123.085 524.233 -161.41 462.13 -208.856 403.028Z" stroke="url(#paint34_linear_188_719)" stroke-width="3"/>
<path opacity="0.36" fill-rule="evenodd" clip-rule="evenodd" d="M-210.494 407.084C-286.602 315.462 -445.375 234.978 -419.843 131.62C-395.078 31.3677 -211.357 55.7863 -111.126 4.82832C-17.9926 -42.5213 33.4574 -144.434 144.033 -155.058C262.093 -166.4 389.776 -122.886 485.753 -52.5153C579.856 16.4811 636.834 118.269 655.656 220.067C672.667 312.066 617.713 391.478 583.411 475.664C550.394 556.697 549.218 665.4 459.541 701.388C369.699 737.442 261.367 671.196 160.467 645.393C84.4731 625.96 8.82776 611.231 -56.0869 569.529C-122.732 526.716 -162.108 465.334 -210.494 407.084Z" stroke="url(#paint35_linear_188_719)" stroke-width="3"/>
<path opacity="0.37" fill-rule="evenodd" clip-rule="evenodd" d="M-211.977 411.147C-289.527 320.884 -449.065 242.975 -425.769 139.477C-403.173 39.0894 -219.96 60.6905 -121.31 8.34693C-29.646 -40.2902 19.4558 -142.736 129.212 -154.995C246.397 -168.084 374.265 -126.592 471.146 -57.8281C566.134 9.59192 624.866 110.284 645.65 211.559C664.433 303.086 611.39 383.136 578.984 467.639C547.79 548.977 548.826 657.442 460.368 694.692C371.749 732.01 262.664 667.548 161.792 643.322C85.8192 625.076 10.2883 611.518 -55.1177 570.889C-122.267 529.178 -162.673 468.533 -211.977 411.147Z" stroke="url(#paint36_linear_188_719)" stroke-width="3"/>
<path opacity="0.38" fill-rule="evenodd" clip-rule="evenodd" d="M-213.304 415.214C-292.26 326.331 -452.505 251.003 -431.435 147.401C-410.999 46.9115 -228.351 65.7089 -131.303 12.0075C-41.1274 -37.8914 5.62772 -140.832 114.534 -154.711C230.812 -169.529 358.821 -130.056 456.566 -62.9113C552.401 2.92183 612.854 102.493 635.578 203.216C656.115 294.243 604.986 374.9 574.471 459.689C545.098 541.303 548.328 649.495 461.11 687.986C373.733 726.547 263.939 663.877 163.127 641.223C87.2005 624.162 11.8082 611.771 -54.0636 572.221C-121.691 531.618 -163.106 471.724 -213.304 415.214Z" stroke="url(#paint37_linear_188_719)" stroke-width="3"/>
<path opacity="0.39" fill-rule="evenodd" clip-rule="evenodd" d="M-214.475 419.284C-294.8 331.798 -455.693 259.058 -436.84 155.386C-418.553 54.8298 -236.528 70.8383 -141.102 15.8069C-52.433 -35.3277 -8.02234 -138.725 100.004 -154.207C215.343 -170.737 343.45 -133.281 442.02 -67.7652C538.664 -3.529 600.805 94.8963 625.447 195.037C647.717 285.539 598.505 366.772 569.876 451.817C542.32 533.677 547.726 641.563 461.768 681.272C375.652 721.054 265.19 660.183 164.473 639.098C88.6169 623.218 13.3872 611.989 -52.925 573.524C-121.004 534.033 -163.407 474.904 -214.475 419.284Z" stroke="url(#paint38_linear_188_719)" stroke-width="3"/>
<path opacity="0.4" fill-rule="evenodd" clip-rule="evenodd" d="M-215.491 423.352C-297.148 337.283 -458.63 267.135 -441.983 163.429C-425.837 62.8387 -244.489 76.0739 -150.704 19.7408C-63.5602 -32.6034 -21.4909 -136.42 85.6271 -153.488C199.996 -171.711 328.157 -136.27 427.513 -72.392C524.928 -9.76194 588.722 87.4935 615.259 187.024C639.242 276.974 591.948 358.752 565.202 444.023C539.457 526.101 547.021 633.646 462.342 674.552C377.507 715.532 266.419 656.466 165.828 636.945C90.0679 622.243 15.0248 612.171 -51.7024 574.795C-120.208 536.422 -163.576 478.072 -215.491 423.352Z" stroke="url(#paint39_linear_188_719)" stroke-width="3"/>
<path opacity="0.41" fill-rule="evenodd" clip-rule="evenodd" d="M-216.351 427.416C-299.303 342.782 -461.316 275.23 -446.864 171.523C-432.847 70.9336 -252.232 81.4121 -160.107 23.8058C-74.5056 -29.7214 -34.7737 -133.919 71.4068 -152.556C184.774 -172.453 312.947 -139.023 413.05 -76.7924C511.196 -15.7772 576.61 80.2851 605.02 179.177C630.694 268.549 585.319 350.84 560.45 436.307C536.512 518.574 546.215 625.746 462.833 667.825C379.297 709.981 267.624 652.727 167.193 634.765C91.5533 621.236 16.7203 612.317 -50.3965 576.033C-119.302 538.782 -163.613 481.224 -216.351 427.416Z" stroke="url(#paint40_linear_188_719)" stroke-width="3"/>
<path opacity="0.42" fill-rule="evenodd" clip-rule="evenodd" d="M-217.058 431.474C-301.266 348.292 -463.752 283.338 -451.483 179.666C-439.583 79.1101 -259.755 86.8492 -169.308 27.9986C-85.2664 -26.6849 -47.8672 -131.227 57.3477 -151.413C169.684 -172.966 297.825 -141.543 398.635 -80.9677C497.476 -21.5753 564.476 73.2708 594.733 171.496C622.077 260.265 578.622 343.038 555.624 428.671C533.486 511.098 545.309 617.864 463.241 661.094C381.023 704.403 268.807 648.966 168.568 632.556C93.0723 620.197 18.4727 612.424 -49.0082 577.236C-118.287 541.111 -163.521 484.359 -217.058 431.474Z" stroke="url(#paint41_linear_188_719)" stroke-width="3"/>
<path opacity="0.43" fill-rule="evenodd" clip-rule="evenodd" d="M-217.611 435.522C-303.039 353.809 -465.94 291.454 -455.841 187.852C-446.045 87.3621 -267.059 92.3801 -178.307 32.314C-95.8406 -23.4988 -60.7685 -128.347 43.453 -150.066C154.729 -173.254 282.796 -143.833 384.274 -84.9204C483.771 -27.1583 552.322 66.4495 584.402 163.98C613.395 252.122 571.859 335.345 550.725 421.115C530.381 503.673 544.303 610.001 463.567 654.359C382.683 698.797 269.967 645.182 169.951 630.319C94.6239 619.124 20.2807 612.49 -47.539 578.403C-117.166 543.407 -163.299 487.473 -217.611 435.522Z" stroke="url(#paint42_linear_188_719)" stroke-width="3"/>
<path opacity="0.44" fill-rule="evenodd" clip-rule="evenodd" d="M-218.011 439.558C-304.619 359.329 -467.878 299.576 -459.935 196.076C-452.232 95.6857 -274.14 98.0018 -187.1 36.7495C-106.224 -20.1655 -73.473 -125.284 29.728 -148.515C139.915 -173.318 267.865 -145.894 369.973 -88.651C470.086 -32.5259 540.154 59.8219 574.033 156.631C604.651 244.12 565.034 327.764 545.756 413.641C527.2 496.302 543.199 602.159 463.812 647.621C384.28 693.166 271.103 641.376 171.343 628.052C96.2085 618.017 22.1447 612.517 -45.9886 579.532C-115.938 545.668 -162.948 490.565 -218.011 439.558Z" stroke="url(#paint43_linear_188_719)" stroke-width="3"/>
<path opacity="0.45" fill-rule="evenodd" clip-rule="evenodd" d="M-218.257 443.578C-306.009 364.849 -469.567 307.697 -463.767 204.333C-458.142 104.075 -280.997 103.709 -195.685 41.3005C-116.415 -16.6892 -85.9772 -122.04 16.1767 -146.765C125.245 -173.163 253.037 -147.729 355.736 -92.1617C456.428 -37.6797 527.976 53.387 563.629 149.447C595.85 236.261 558.15 320.293 540.72 406.248C523.943 488.983 542 594.339 463.977 640.881C385.812 687.509 272.218 637.548 172.744 625.756C97.8257 616.875 24.0638 612.501 -44.3578 580.622C-114.603 547.893 -162.468 493.632 -218.257 443.578Z" stroke="url(#paint44_linear_188_719)" stroke-width="3"/>
<path opacity="0.46" fill-rule="evenodd" clip-rule="evenodd" d="M-218.352 447.581C-307.209 370.366 -471.01 315.814 -467.338 212.62C-463.776 112.527 -287.631 109.5 -204.061 45.9636C-126.41 -13.0733 -98.2785 -118.62 2.80244 -144.818C110.725 -172.79 238.317 -149.34 341.568 -95.454C442.801 -42.6206 515.794 47.1446 553.195 142.43C586.995 228.544 551.209 312.934 535.62 398.937C520.614 481.719 540.705 586.542 464.063 634.141C387.28 681.828 273.309 633.698 174.154 623.43C99.4742 615.697 26.0366 612.443 -42.6483 581.671C-113.164 550.079 -161.86 496.672 -218.352 447.581Z" stroke="url(#paint45_linear_188_719)" stroke-width="3"/>
<path opacity="0.47" fill-rule="evenodd" clip-rule="evenodd" d="M-218.296 451.563C-308.219 375.877 -472.206 323.922 -470.646 220.931C-469.134 121.035 -294.038 115.368 -212.226 50.7344C-136.207 -9.32206 -110.373 -115.027 -10.3909 -142.68C96.3591 -172.203 223.71 -150.73 327.473 -98.53C429.209 -47.35 503.612 41.0938 542.734 135.58C578.09 220.97 544.216 305.687 530.457 391.709C517.214 474.51 539.316 578.768 464.07 627.401C388.685 676.122 274.378 629.825 175.571 621.073C101.154 614.482 28.0626 612.34 -40.8604 582.677C-111.62 552.224 -161.126 499.682 -218.296 451.563Z" stroke="url(#paint46_linear_188_719)" stroke-width="3"/>
<path opacity="0.48" fill-rule="evenodd" clip-rule="evenodd" d="M-218.09 455.521C-309.04 381.376 -473.157 332.018 -473.694 229.262C-474.215 129.593 -300.22 121.309 -220.179 55.6089C-145.805 -5.43914 -122.259 -111.267 -23.3998 -140.352C82.1507 -171.406 209.22 -151.901 313.457 -101.392C415.657 -51.8694 491.434 35.2339 532.251 128.894C569.139 213.539 537.173 298.552 525.235 384.564C513.744 467.356 537.836 571.02 463.998 620.661C390.025 670.393 275.423 625.931 176.995 618.686C102.864 613.23 30.1405 612.191 -38.9956 583.639C-109.974 554.326 -160.266 502.66 -218.09 455.521Z" stroke="url(#paint47_linear_188_719)" stroke-width="3"/>
<path opacity="0.49" fill-rule="evenodd" clip-rule="evenodd" d="M-217.734 459.453C-309.674 386.863 -473.865 340.096 -476.481 237.608C-479.019 138.199 -306.174 127.321 -227.916 60.5835C-155.2 -1.42797 -133.932 -107.342 -36.2204 -137.84C68.1048 -170.402 194.852 -152.855 299.524 -104.041C402.151 -56.1796 479.265 29.5645 521.75 122.374C560.145 206.251 530.082 291.529 519.955 377.504C510.207 460.259 536.264 563.299 463.849 613.924C391.302 664.642 276.446 622.014 178.427 616.267C104.604 611.939 32.2699 611.996 -37.0546 584.555C-108.227 556.383 -159.282 505.604 -217.734 459.453Z" stroke="url(#paint48_linear_188_719)" stroke-width="3"/>
<path opacity="0.5" fill-rule="evenodd" clip-rule="evenodd" d="M-217.231 463.356C-310.121 392.332 -474.33 348.152 -479.008 245.964C-483.546 146.846 -311.901 133.397 -235.439 65.6535C-164.391 2.70672 -145.39 -103.258 -48.8496 -135.147C54.225 -169.194 180.61 -153.597 285.679 -106.48C388.694 -60.2831 467.11 24.0839 511.235 116.019C551.113 199.105 522.948 284.618 514.621 370.527C506.605 453.218 534.603 555.604 463.624 607.189C392.516 658.869 277.446 618.076 179.866 613.817C106.372 610.609 34.4494 611.753 -35.0387 585.424C-106.379 558.393 -158.174 508.511 -217.231 463.356Z" stroke="url(#paint49_linear_188_719)" stroke-width="3"/>
<path opacity="0.51" fill-rule="evenodd" clip-rule="evenodd" d="M-216.579 467.227C-310.381 397.781 -474.553 356.182 -481.276 254.325C-487.796 155.53 -317.399 139.535 -242.743 70.8155C-173.375 6.96179 -156.629 -99.0174 -61.2832 -132.276C40.516 -167.785 166.5 -154.128 271.926 -108.71C375.293 -64.1804 454.973 18.7921 500.711 109.829C542.045 192.103 515.774 277.821 509.235 363.635C502.941 446.235 532.854 547.938 463.324 600.458C393.666 653.074 278.424 614.115 181.311 611.334C108.17 609.239 36.6788 611.461 -32.9482 586.244C-104.431 560.355 -156.943 511.379 -216.579 467.227Z" stroke="url(#paint50_linear_188_719)" stroke-width="3"/>
<path opacity="0.52" fill-rule="evenodd" clip-rule="evenodd" d="M-215.782 471.063C-310.457 403.206 -474.536 364.181 -483.285 262.688C-491.771 164.245 -322.667 145.73 -249.83 76.0648C-182.15 11.3326 -167.647 -94.6256 -73.5188 -129.231C26.9811 -166.18 152.524 -154.451 258.27 -110.736C361.951 -67.8739 442.858 13.6875 490.18 103.803C532.947 185.244 508.562 271.136 503.799 356.827C499.214 439.309 531.018 540.302 462.949 593.732C394.754 647.26 279.378 610.133 182.762 608.819C109.996 607.828 38.9566 611.12 -30.7848 587.014C-102.385 562.266 -155.59 514.205 -215.782 471.063Z" stroke="url(#paint51_linear_188_719)" stroke-width="3"/>
<path opacity="0.53" fill-rule="evenodd" clip-rule="evenodd" d="M-214.839 474.863C-310.348 408.604 -474.281 372.147 -485.036 271.048C-495.468 172.987 -327.706 151.978 -256.696 81.398C-190.715 15.816 -178.442 -90.0861 -85.5522 -126.017C13.6249 -164.381 138.688 -154.57 244.716 -112.557C348.673 -71.3646 430.771 8.76948 479.649 97.9402C523.821 178.527 501.316 264.564 498.317 350.105C495.43 432.443 529.098 532.696 462.5 587.011C395.78 641.425 280.311 606.129 184.22 606.27C111.849 606.377 41.2823 610.727 -28.5493 587.732C-100.242 564.124 -154.117 516.988 -214.839 474.863Z" stroke="url(#paint52_linear_188_719)" stroke-width="3"/>
<path opacity="0.54" fill-rule="evenodd" clip-rule="evenodd" d="M-213.74 478.621C-310.045 413.971 -473.777 380.073 -486.519 279.398C-498.878 181.749 -332.503 158.273 -263.331 86.8097C-199.056 20.4065 -188.999 -85.4044 -97.3697 -122.638C0.461831 -162.393 125.007 -154.488 231.279 -114.178C335.475 -74.6554 418.726 4.036 469.131 92.2399C514.683 171.953 494.05 258.104 492.801 343.468C491.599 425.635 527.106 525.121 461.99 580.295C396.754 635.571 281.232 602.103 185.695 603.688C113.74 604.882 43.6661 610.282 -26.2312 588.396C-97.9913 565.928 -152.513 519.724 -213.74 478.621Z" stroke="url(#paint53_linear_188_719)" stroke-width="3"/>
<path opacity="0.55" fill-rule="evenodd" clip-rule="evenodd" d="M-212.511 482.337C-309.572 419.303 -473.05 387.956 -487.759 287.737C-502.026 190.529 -337.082 164.613 -269.755 92.2969C-207.195 25.1013 -199.34 -80.5838 -108.992 -119.098C-12.5277 -160.219 111.462 -154.207 217.94 -115.6C322.338 -77.7473 406.705 -0.513431 458.607 86.7018C505.512 165.522 486.744 251.758 487.231 336.916C487.701 418.886 525.02 517.578 461.396 573.587C397.655 629.699 282.118 598.055 187.162 601.072C115.646 603.344 46.0836 609.784 -23.8555 589.006C-95.6585 567.675 -150.803 522.412 -212.511 482.337Z" stroke="url(#paint54_linear_188_719)" stroke-width="3"/>
<path opacity="0.56" fill-rule="evenodd" clip-rule="evenodd" d="M-211.142 486.008C-308.92 424.599 -472.091 395.792 -488.745 296.058C-504.899 199.32 -341.432 170.993 -275.958 97.8553C-215.12 29.8961 -209.451 -75.6287 -120.404 -115.4C-25.3289 -157.863 98.068 -153.73 204.714 -116.826C309.277 -80.6423 394.723 -4.88019 448.092 81.3251C496.325 159.232 479.411 245.523 481.621 330.45C483.749 412.197 522.852 510.068 460.729 566.886C398.493 623.808 282.981 593.984 188.633 598.421C117.575 601.763 48.5446 609.231 -21.4123 589.56C-93.2335 569.364 -148.977 525.049 -211.142 486.008Z" stroke="url(#paint55_linear_188_719)" stroke-width="3"/>
<path opacity="0.57" fill-rule="evenodd" clip-rule="evenodd" d="M-209.631 489.63C-308.088 429.855 -470.9 403.576 -489.478 304.357C-507.498 208.119 -345.55 177.409 -281.936 103.48C-222.827 34.7867 -219.329 -70.5439 -131.602 -111.548C-37.9372 -155.328 84.83 -153.062 191.607 -117.858C296.299 -83.3427 382.785 -9.06579 437.593 76.1088C487.124 153.085 472.057 239.401 475.975 324.07C479.746 405.569 520.606 502.592 459.994 560.194C399.27 617.901 283.822 589.893 190.11 595.736C119.53 600.137 51.0499 608.623 -18.9011 590.056C-90.7162 570.993 -147.035 527.634 -209.631 489.63Z" stroke="url(#paint56_linear_188_719)" stroke-width="3"/>
<path opacity="0.58" fill-rule="evenodd" clip-rule="evenodd" d="M-207.983 493.202C-307.08 435.066 -469.48 411.305 -489.961 312.629C-509.826 216.918 -349.439 183.856 -287.691 109.168C-230.316 39.7686 -228.972 -65.3339 -142.585 -107.548C-50.3504 -152.619 71.7508 -152.204 178.622 -118.7C283.406 -85.8506 370.895 -13.0718 427.11 71.0519C477.914 147.078 464.682 233.391 470.293 317.776C475.693 399 518.282 495.151 459.188 553.51C399.986 611.977 284.64 585.779 191.589 593.015C121.508 598.466 53.5967 607.959 -16.3247 590.493C-88.1096 572.561 -144.981 530.163 -207.983 493.202Z" stroke="url(#paint57_linear_188_719)" stroke-width="3"/>
<path opacity="0.59" fill-rule="evenodd" clip-rule="evenodd" d="M-206.199 496.72C-305.897 440.23 -467.834 418.975 -490.194 320.871C-511.883 225.715 -353.098 190.33 -293.223 114.914C-237.588 44.8378 -238.38 -60.0033 -153.351 -103.403C-62.5657 -149.74 58.8336 -151.162 165.762 -119.355C270.601 -88.1683 359.056 -16.8999 416.648 66.1532C468.697 141.212 457.291 227.492 464.578 311.567C471.592 392.492 515.881 487.745 458.313 546.837C400.639 606.036 285.434 581.643 193.071 590.259C123.508 596.748 56.184 607.237 -13.6845 590.869C-85.4151 574.064 -142.814 532.635 -206.199 496.72Z" stroke="url(#paint58_linear_188_719)" stroke-width="3"/>
<path opacity="0.6" fill-rule="evenodd" clip-rule="evenodd" d="M-204.279 500.183C-304.54 445.343 -465.962 426.58 -490.179 329.077C-513.668 234.504 -356.527 196.827 -298.529 120.714C-244.638 49.9902 -247.549 -54.5564 -163.895 -99.1174C-74.5784 -146.695 46.0836 -149.938 153.032 -119.824C257.892 -90.2978 347.274 -20.5515 406.213 61.4119C459.478 135.486 449.886 221.705 458.834 305.443C467.446 386.045 513.406 480.376 457.371 540.173C401.233 600.08 286.205 577.485 194.556 587.466C125.53 594.984 58.8119 606.457 -10.9805 591.183C-82.6328 575.502 -140.536 535.048 -204.279 500.183Z" stroke="url(#paint59_linear_188_719)" stroke-width="3"/>
<path opacity="0.61" fill-rule="evenodd" clip-rule="evenodd" d="M-202.225 503.587C-303.01 450.403 -463.867 434.118 -489.918 337.244C-515.185 243.28 -359.727 203.342 -303.61 126.564C-251.467 55.2215 -256.479 -48.9979 -174.217 -94.6958C-86.3869 -143.487 33.5032 -148.536 140.436 -120.111C245.28 -92.2418 335.552 -24.0283 395.805 56.8267C450.259 129.899 442.47 216.029 453.061 299.405C463.256 379.659 510.857 473.043 456.362 533.521C401.766 594.11 286.954 573.304 196.043 584.637C127.574 593.172 61.4783 605.617 -8.21498 591.434C-79.7656 576.873 -138.149 537.399 -202.225 503.587Z" stroke="url(#paint60_linear_188_719)" stroke-width="3"/>
<path opacity="0.62" fill-rule="evenodd" clip-rule="evenodd" d="M-200.041 506.93C-301.311 455.407 -461.554 441.584 -489.413 345.366C-516.436 252.038 -362.699 209.872 -308.467 132.459C-258.075 60.5275 -265.169 -43.3322 -184.315 -90.1423C-97.989 -140.121 21.0949 -146.959 127.976 -120.219C232.768 -94.0022 323.892 -27.3321 385.429 52.3965C441.043 124.45 435.044 210.463 447.263 293.452C459.023 373.334 508.236 465.748 455.285 526.88C402.238 588.124 287.678 569.102 197.531 581.771C129.636 591.312 64.1809 604.717 -5.39041 591.62C-76.8158 578.175 -135.656 539.686 -200.041 506.93Z" stroke="url(#paint61_linear_188_719)" stroke-width="3"/>
<path opacity="0.63" fill-rule="evenodd" clip-rule="evenodd" d="M-197.726 510.209C-299.443 460.35 -459.021 448.975 -488.666 353.439C-517.419 260.774 -365.442 216.412 -313.097 138.396C-264.459 65.9039 -273.615 -37.5643 -194.186 -85.4616C-109.38 -136.601 8.86379 -145.21 115.656 -120.151C220.363 -95.5818 312.3 -30.4647 375.09 48.1199C431.836 119.14 427.614 205.007 441.441 287.585C454.751 367.071 505.546 458.491 454.145 520.252C402.65 582.125 288.38 564.878 199.02 578.867C131.719 589.403 66.9205 603.755 -2.5063 591.74C-73.7833 579.406 -133.057 541.908 -197.726 510.209Z" stroke="url(#paint62_linear_188_719)" stroke-width="3"/>
<path opacity="0.64" fill-rule="evenodd" clip-rule="evenodd" d="M-195.282 513.422C-297.409 465.23 -456.275 456.285 -487.679 361.459C-518.139 269.482 -367.959 222.957 -317.503 144.37C-270.62 71.3464 -281.818 -31.6986 -203.828 -80.6581C-120.559 -132.931 -3.18838 -143.295 103.481 -119.911C208.066 -96.9834 300.779 -33.4282 364.79 43.9955C422.638 113.966 420.181 199.66 435.599 281.802C450.439 360.869 502.786 451.272 452.94 513.636C403.002 576.113 289.058 560.631 200.51 575.926C133.819 587.444 69.6945 602.731 0.434588 591.793C-70.6711 580.564 -130.354 544.061 -195.282 513.422Z" stroke="url(#paint63_linear_188_719)" stroke-width="3"/>
<path opacity="0.65" fill-rule="evenodd" clip-rule="evenodd" d="M-192.713 516.567C-295.21 470.044 -453.315 463.513 -486.454 369.422C-518.596 278.158 -370.248 229.505 -321.684 150.376C-276.558 76.8511 -289.775 -25.7395 -213.24 -75.7357C-131.523 -129.116 -15.0578 -141.216 91.4527 -119.5C195.882 -98.2087 289.333 -36.224 354.532 40.0223C413.455 108.929 412.748 194.421 429.738 276.104C446.092 354.728 499.959 444.094 451.671 507.034C403.295 570.088 289.713 556.363 201.999 572.946C135.937 585.436 72.5022 601.644 3.4313 591.778C-67.4803 581.649 -127.549 546.144 -192.713 516.567Z" stroke="url(#paint64_linear_188_719)" stroke-width="3"/>
<path opacity="0.66" fill-rule="evenodd" clip-rule="evenodd" d="M-190.02 519.64C-292.849 474.789 -450.147 470.653 -484.994 377.323C-518.794 286.797 -372.313 236.049 -325.64 156.412C-282.271 82.4129 -297.488 -19.6925 -222.42 -70.6999C-142.271 -125.16 -26.7428 -138.977 79.5742 -118.923C183.814 -99.2617 277.964 -38.8551 344.32 36.1981C404.288 104.027 405.316 189.291 423.86 270.49C441.709 348.648 497.065 436.955 450.339 500.445C403.528 564.051 290.343 552.071 203.487 569.927C138.071 583.375 75.3412 600.492 6.48125 591.692C-64.2138 582.658 -124.644 548.156 -190.02 519.64Z" stroke="url(#paint65_linear_188_719)" stroke-width="3"/>
<path opacity="0.67" fill-rule="evenodd" clip-rule="evenodd" d="M-187.203 522.64C-290.328 479.461 -446.771 477.702 -483.3 385.158C-518.731 295.395 -374.153 242.587 -329.37 162.471C-287.759 88.0285 -304.953 -13.5614 -231.366 -65.5541C-152.797 -121.066 -38.2386 -136.581 67.8501 -118.183C171.866 -100.144 266.678 -41.3225 334.158 32.5221C395.142 99.2585 397.891 184.268 417.968 264.96C437.293 342.63 494.108 429.856 448.947 493.871C403.703 558.002 290.95 547.758 204.974 566.869C140.221 581.263 78.2118 599.275 9.58444 591.536C-60.8718 583.59 -121.64 550.093 -187.203 522.64Z" stroke="url(#paint66_linear_188_719)" stroke-width="3"/>
<path opacity="0.68" fill-rule="evenodd" clip-rule="evenodd" d="M-184.268 525.565C-287.649 484.058 -443.191 484.656 -481.376 392.923C-518.413 303.946 -375.769 249.114 -332.878 168.551C-293.023 93.6929 -312.171 -7.35136 -240.077 -60.3037C-163.103 -116.84 -49.5445 -134.034 56.2819 -117.283C160.041 -100.859 255.477 -43.6291 324.048 28.9923C386.018 94.6231 390.472 179.351 412.063 259.513C432.846 336.674 491.087 422.799 447.492 487.311C403.818 551.942 291.533 543.422 206.458 563.772C142.384 579.099 81.111 597.992 12.7376 591.307C-57.4579 584.442 -118.541 551.954 -184.268 525.565Z" stroke="url(#paint67_linear_188_719)" stroke-width="3"/>
<path opacity="0.69" fill-rule="evenodd" clip-rule="evenodd" d="M-181.213 528.411C-284.814 488.577 -439.41 491.512 -479.223 400.614C-517.84 312.447 -377.163 255.625 -336.16 174.647C-298.061 99.402 -319.14 -1.06713 -248.552 -54.953C-173.185 -112.486 -60.6561 -131.339 44.8741 -116.226C148.343 -101.409 244.364 -45.7769 313.994 25.6071C376.922 90.1196 383.065 174.539 406.15 254.149C428.37 330.778 488.006 415.783 445.979 480.767C403.876 545.871 292.092 539.064 207.941 560.635C144.561 576.882 84.039 596.643 15.9408 591.004C-53.9723 585.215 -115.346 553.737 -181.213 528.411Z" stroke="url(#paint68_linear_188_719)" stroke-width="3"/>
<path opacity="0.7" fill-rule="evenodd" clip-rule="evenodd" d="M-178.043 531.178C-281.827 493.015 -435.432 498.266 -476.846 408.227C-517.015 320.892 -378.336 262.118 -339.22 180.754C-302.874 105.152 -325.862 5.28701 -256.789 -49.5061C-183.042 -108.008 -71.5724 -128.499 33.6281 -115.016C136.773 -101.797 233.343 -47.7677 303.999 22.3652C367.854 85.7471 375.67 169.833 400.228 248.868C423.866 324.944 484.863 408.809 444.406 474.24C403.875 539.79 292.627 534.683 209.419 557.458C146.751 574.611 86.993 595.226 19.1909 590.627C-50.4182 585.906 -112.06 555.441 -178.043 531.178Z" stroke="url(#paint69_linear_188_719)" stroke-width="3"/>
<path opacity="0.71" fill-rule="evenodd" clip-rule="evenodd" d="M-174.759 533.861C-278.688 497.369 -431.259 504.915 -474.246 415.756C-515.941 329.277 -379.29 268.587 -342.058 186.869C-307.463 110.938 -332.333 11.7057 -264.788 -43.9684C-192.671 -103.411 -82.2903 -125.518 22.5474 -113.656C125.337 -102.026 222.417 -49.6043 294.066 19.2645C358.819 81.504 368.29 165.231 394.3 243.669C419.336 319.171 481.663 401.877 442.775 467.728C403.816 533.699 293.137 530.28 210.894 554.24C148.951 572.287 89.9722 593.74 22.4868 590.174C-46.7972 586.513 -108.683 557.062 -174.759 533.861Z" stroke="url(#paint70_linear_188_719)" stroke-width="3"/>
<path opacity="0.72" fill-rule="evenodd" clip-rule="evenodd" d="M-171.363 536.46C-275.401 501.635 -426.894 511.453 -471.426 423.199C-514.619 337.597 -380.026 275.028 -344.675 192.987C-311.827 116.755 -338.556 18.1843 -272.548 -38.3443C-202.072 -98.6991 -92.8081 -122.402 11.634 -112.151C114.036 -102.1 211.589 -51.2893 284.198 16.303C349.818 77.3888 360.927 160.731 388.368 238.551C414.781 313.458 478.405 394.988 441.086 461.233C403.699 527.599 293.623 525.853 212.363 550.981C151.161 569.907 92.9746 592.185 25.8262 589.644C-43.1118 587.035 -105.219 558.6 -171.363 536.46Z" stroke="url(#paint71_linear_188_719)" stroke-width="3"/>
<path opacity="0.73" fill-rule="evenodd" clip-rule="evenodd" d="M-167.858 538.971C-271.969 505.812 -422.341 517.879 -468.389 430.552C-513.053 345.849 -380.546 281.438 -347.071 199.104C-315.966 122.6 -344.529 24.7181 -280.067 -32.6384C-211.242 -93.8772 -103.123 -119.154 0.891286 -110.503C102.874 -102.021 200.862 -52.8249 274.398 13.4789C340.856 73.4003 353.585 156.333 382.435 233.514C410.204 307.805 475.092 388.142 439.342 454.755C403.526 521.49 294.084 521.404 213.827 547.681C153.381 567.471 95.9996 590.56 29.2083 589.035C-39.3631 587.471 -101.668 560.052 -167.858 538.971Z" stroke="url(#paint72_linear_188_719)" stroke-width="3"/>
<path opacity="0.74" fill-rule="evenodd" clip-rule="evenodd" d="M-164.247 541.393C-268.393 509.897 -417.603 524.19 -465.138 437.81C-511.245 354.026 -380.851 287.812 -349.248 205.216C-319.882 128.469 -350.253 31.3025 -287.346 -26.8552C-220.18 -88.9494 -113.234 -115.778 -9.67927 -108.716C91.8521 -101.792 190.238 -54.2133 264.668 10.7906C331.934 69.5374 346.265 152.036 376.501 228.557C405.605 302.213 471.723 381.339 437.541 448.294C403.295 515.372 294.519 516.933 215.284 544.339C155.609 564.98 99.0447 588.864 32.6302 588.348C-35.5542 587.819 -98.0342 561.418 -164.247 541.393Z" stroke="url(#paint73_linear_188_719)" stroke-width="3"/>
<path opacity="0.75" fill-rule="evenodd" clip-rule="evenodd" d="M-160.531 543.724C-264.677 513.886 -412.683 530.38 -461.676 444.97C-509.197 362.126 -380.943 294.147 -351.206 211.319C-323.574 134.356 -355.726 37.9329 -294.382 -20.9992C-228.886 -83.9203 -123.137 -112.278 -20.074 -106.793C80.9757 -101.416 179.723 -55.4572 255.013 8.23616C323.056 65.7985 338.97 147.838 370.57 223.68C400.987 296.681 468.303 374.58 435.685 441.852C403.008 509.247 294.93 512.438 216.736 540.955C157.843 562.433 102.109 587.096 36.0913 587.581C-31.6861 588.078 -94.318 562.694 -160.531 543.724Z" stroke="url(#paint74_linear_188_719)" stroke-width="3"/>
<path opacity="0.76" fill-rule="evenodd" clip-rule="evenodd" d="M-156.713 545.961C-260.823 517.778 -407.585 536.448 -458.007 452.028C-506.913 370.144 -380.824 300.438 -352.946 217.408C-327.043 140.258 -360.95 44.6041 -301.176 -15.0756C-237.357 -78.7949 -132.832 -108.658 -30.2917 -104.739C70.2458 -100.897 169.317 -56.5593 245.434 5.81333C314.224 62.182 331.701 143.739 364.644 218.881C396.352 291.209 464.831 367.864 433.776 435.427C402.665 503.114 295.315 507.921 218.179 537.529C160.084 559.828 105.192 585.256 39.5892 586.732C-27.7616 588.247 -90.5226 563.88 -156.713 545.961Z" stroke="url(#paint75_linear_188_719)" stroke-width="3"/>
<path opacity="0.77" fill-rule="evenodd" clip-rule="evenodd" d="M-152.795 548.103C-256.834 521.569 -402.313 542.39 -454.133 458.979C-504.396 378.075 -380.496 306.681 -354.471 223.48C-330.29 146.17 -365.925 51.3113 -307.728 -9.08908C-245.592 -73.5779 -142.317 -104.924 -40.3296 -102.558C59.6657 -100.239 159.023 -57.5226 235.934 3.51967C305.442 58.6861 324.463 139.737 358.723 214.16C391.701 285.795 461.31 361.192 431.815 429.021C402.265 496.974 295.675 503.38 219.614 534.059C162.329 557.166 108.29 583.343 43.1221 585.801C-23.7827 588.324 -86.6501 564.973 -152.795 548.103Z" stroke="url(#paint76_linear_188_719)" stroke-width="3"/>
<path opacity="0.78" fill-rule="evenodd" clip-rule="evenodd" d="M-148.78 550.147C-252.713 525.257 -396.87 548.202 -450.059 465.821C-501.649 385.915 -379.961 312.872 -355.783 229.53C-333.316 152.089 -370.651 58.0503 -314.038 -3.04381C-253.592 -68.2732 -151.591 -101.077 -50.1868 -100.252C49.2367 -99.4436 148.844 -58.349 226.516 1.35384C296.71 55.3098 317.254 135.832 352.81 209.516C387.034 280.441 457.739 354.565 429.8 422.634C401.809 490.827 296.009 498.816 221.04 530.547C164.576 554.445 111.402 581.357 46.6874 584.786C-19.7523 588.308 -82.7035 565.972 -148.78 550.147Z" stroke="url(#paint77_linear_188_719)" stroke-width="3"/>
<path opacity="0.79" fill-rule="evenodd" clip-rule="evenodd" d="M-144.672 552.092C-248.463 528.839 -391.261 553.883 -445.787 472.55C-498.675 393.66 -379.222 319.009 -356.881 235.554C-336.123 158.009 -375.13 64.8159 -320.105 3.05518C-261.356 -62.886 -160.652 -97.1246 -59.8608 -97.8265C38.9617 -98.5147 138.783 -59.0417 217.181 -0.686652C288.032 52.0511 310.08 132.021 346.906 204.948C382.354 275.145 454.121 347.982 427.734 416.265C401.298 484.674 296.316 494.229 222.455 526.991C166.826 551.666 114.528 579.296 50.2838 583.688C-15.6721 588.198 -78.6847 566.876 -144.672 552.092Z" stroke="url(#paint78_linear_188_719)" stroke-width="3"/>
<path opacity="0.8" fill-rule="evenodd" clip-rule="evenodd" d="M-140.471 553.935C-244.086 532.313 -385.488 559.427 -441.321 479.161C-495.477 401.307 -378.279 325.086 -357.768 241.549C-338.709 163.928 -379.361 71.6036 -325.929 9.20328C-268.882 -57.4208 -169.499 -93.0692 -69.3494 -95.2842C28.8434 -97.456 128.842 -59.6034 207.933 -2.60418C279.411 48.9083 302.94 128.304 341.014 200.456C377.663 269.906 450.458 341.444 425.617 409.916C400.731 478.514 296.597 489.619 223.86 523.392C169.077 548.828 117.664 577.16 53.9093 582.505C-11.5443 587.992 -74.596 567.682 -140.471 553.935Z" stroke="url(#paint79_linear_188_719)" stroke-width="3"/>
<path opacity="0.81" fill-rule="evenodd" clip-rule="evenodd" d="M-136.181 555.675C-239.587 535.677 -379.554 564.834 -436.664 485.652C-492.058 408.85 -377.137 331.1 -358.445 247.51C-341.077 169.84 -383.344 78.4088 -331.511 15.396C-276.169 -51.882 -178.129 -88.9154 -78.6509 -92.6291C18.8841 -96.2702 119.024 -60.0365 198.775 -4.40042C270.849 45.8802 295.839 124.68 335.136 196.039C372.961 264.726 446.75 334.951 423.451 403.587C400.11 472.349 296.852 484.985 225.253 519.748C171.328 545.93 120.81 574.949 57.5624 581.236C-7.37081 587.69 -70.4396 568.39 -136.181 555.675Z" stroke="url(#paint80_linear_188_719)" stroke-width="3"/>
<path opacity="0.82" fill-rule="evenodd" clip-rule="evenodd" d="M-131.805 557.31C-234.966 538.928 -373.466 570.099 -431.821 492.019C-488.422 416.285 -375.796 337.048 -358.915 253.434C-343.229 175.741 -387.082 85.2264 -336.85 21.6282C-283.217 -46.2748 -186.543 -84.668 -87.7639 -89.8656C9.08528 -94.9617 109.331 -60.3447 189.708 -6.07838C262.348 42.9643 288.777 121.146 329.272 191.695C368.251 259.602 442.999 328.502 421.237 397.277C399.434 466.179 297.08 480.328 226.634 516.061C173.578 542.973 123.964 572.661 61.2407 579.88C-3.15441 587.29 -66.2183 568.998 -131.805 557.31Z" stroke="url(#paint81_linear_188_719)" stroke-width="3"/>
<path opacity="0.83" fill-rule="evenodd" clip-rule="evenodd" d="M-127.346 558.838C-230.23 542.063 -367.226 575.219 -426.795 498.258C-484.573 423.61 -374.261 342.924 -359.18 259.315C-345.166 181.627 -390.576 92.0517 -341.947 27.8953C-290.028 -40.6038 -194.74 -80.3313 -96.6878 -86.9976C-0.551526 -93.5336 99.7638 -60.5305 180.734 -7.64026C253.909 40.1588 281.755 117.701 323.424 187.423C363.533 254.534 439.206 322.097 418.973 390.987C398.703 460.004 297.28 475.648 228.001 512.328C175.824 539.955 127.124 570.297 64.9414 578.436C1.10183 586.791 -61.9354 569.503 -127.346 558.838Z" stroke="url(#paint82_linear_188_719)" stroke-width="3"/>
<path opacity="0.84" fill-rule="evenodd" clip-rule="evenodd" d="M-122.804 560.257C-225.378 545.081 -360.837 580.193 -421.588 504.367C-480.513 430.819 -372.532 348.727 -359.239 265.152C-346.887 187.495 -393.824 98.8807 -346.802 34.1931C-296.598 -34.8731 -202.716 -75.9091 -105.419 -84.0284C-10.0222 -91.989 90.3276 -60.5964 171.857 -9.08783C245.538 37.4625 274.778 114.345 317.596 183.224C358.811 249.523 435.373 315.738 416.664 384.718C397.92 453.824 297.454 470.944 229.356 508.552C178.068 536.876 130.29 567.856 68.665 576.904C5.39802 586.193 -57.5911 569.906 -122.804 560.257Z" stroke="url(#paint83_linear_188_719)" stroke-width="3"/>
<path opacity="0.85" fill-rule="evenodd" clip-rule="evenodd" d="M-118.186 561.566C-220.417 547.979 -354.306 585.017 -416.207 510.341C-476.248 437.91 -370.615 354.452 -359.098 270.939C-348.397 193.339 -396.831 105.708 -351.417 40.5166C-302.93 -29.0878 -210.475 -71.4062 -113.959 -80.9624C-19.3285 -90.3318 81.0208 -60.5457 163.076 -10.4239C237.233 34.8733 267.845 111.075 311.786 179.095C354.082 244.567 431.5 309.424 414.306 378.469C397.08 447.64 297.598 466.216 230.694 504.73C180.304 533.736 133.457 565.337 72.406 575.283C9.72831 585.494 -53.1912 570.205 -118.186 561.566Z" stroke="url(#paint84_linear_188_719)" stroke-width="3"/>
<path opacity="0.86" fill-rule="evenodd" clip-rule="evenodd" d="M-113.492 562.763C-215.348 550.755 -347.634 589.688 -410.654 516.178C-471.78 444.877 -368.509 360.095 -358.757 276.672C-349.695 199.156 -399.596 112.53 -355.791 46.8611C-309.022 -23.2526 -218.012 -66.8272 -122.304 -77.8037C-28.4657 -88.5657 71.8482 -60.3817 154.397 -11.651C228.999 32.3888 260.959 107.891 305.998 175.035C349.351 239.666 427.59 303.155 411.903 372.24C396.188 441.452 297.715 461.465 232.017 500.862C182.535 530.535 136.626 562.74 76.1651 573.572C14.093 584.693 -48.7358 570.397 -113.492 562.763Z" stroke="url(#paint85_linear_188_719)" stroke-width="3"/>
<path opacity="0.87" fill-rule="evenodd" clip-rule="evenodd" d="M-108.726 563.846C-210.174 553.406 -340.828 594.204 -404.934 521.875C-467.114 451.719 -366.219 365.653 -358.219 282.348C-350.785 204.942 -402.121 119.341 -359.927 53.2219C-314.876 -17.3721 -225.33 -62.1761 -130.455 -74.5561C-37.434 -86.6942 62.8101 -60.1071 145.818 -12.7715C220.836 30.0075 254.121 104.79 300.233 171.044C344.618 234.818 423.643 296.93 409.456 366.032C395.242 435.261 297.804 456.69 233.322 496.949C184.758 527.271 139.794 560.064 79.9388 571.771C18.4883 583.789 -44.2288 570.483 -108.726 563.846Z" stroke="url(#paint86_linear_188_719)" stroke-width="3"/>
<path opacity="0.88" fill-rule="evenodd" clip-rule="evenodd" d="M-103.891 564.813C-204.9 555.932 -333.89 598.563 -399.05 527.428C-462.252 458.43 -363.747 371.123 -357.485 287.964C-351.667 210.693 -404.408 126.136 -363.823 59.5945C-320.491 -11.4512 -232.426 -57.4578 -138.41 -71.2239C-46.2309 -84.721 53.9093 -59.7252 137.344 -13.7881C212.748 27.7271 247.334 101.77 294.492 167.121C339.884 230.024 419.66 290.75 406.964 359.845C394.244 429.066 297.864 451.89 234.611 492.991C186.972 523.946 142.96 557.31 83.7258 569.878C22.9126 582.781 -39.672 570.46 -103.891 564.813Z" stroke="url(#paint87_linear_188_719)" stroke-width="3"/>
<path opacity="0.89" fill-rule="evenodd" clip-rule="evenodd" d="M-98.9885 565.665C-199.528 558.329 -326.825 602.762 -393.007 532.834C-457.2 465.007 -361.096 376.501 -356.559 293.515C-352.343 216.405 -406.458 132.912 -367.482 65.9746C-325.867 -5.49387 -239.301 -52.6759 -146.168 -67.8105C-54.8554 -82.6494 45.1469 -59.2385 128.976 -14.7027C204.735 25.5461 240.599 98.8317 288.777 163.263C335.151 225.282 415.644 284.615 404.429 353.678C393.193 422.868 297.895 447.068 235.881 488.986C189.176 520.558 146.123 554.476 87.5238 567.894C27.363 581.669 -35.0686 570.328 -98.9885 565.665Z" stroke="url(#paint88_linear_188_719)" stroke-width="3"/>
<path opacity="0.9" fill-rule="evenodd" clip-rule="evenodd" d="M-94.0235 566.398C-194.063 560.596 -319.638 606.798 -386.809 538.091C-451.961 471.448 -358.271 381.784 -355.444 298.998C-352.817 222.074 -408.273 139.664 -370.905 72.3573C-331.006 0.494709 -245.954 -47.8354 -153.73 -64.3203C-63.3068 -80.4832 36.5242 -58.6505 120.714 -15.5182C196.799 23.4622 233.916 95.9719 283.088 159.471C330.419 220.593 411.594 278.524 401.85 347.533C392.088 416.668 297.895 442.221 237.131 484.936C191.367 517.107 149.279 551.562 91.3299 565.817C31.8366 580.452 -30.4217 570.086 -94.0235 566.398Z" stroke="url(#paint89_linear_188_719)" stroke-width="3"/>
<path opacity="0.91" fill-rule="evenodd" clip-rule="evenodd" d="M-88.9975 567.011C-188.506 562.731 -312.332 610.669 -380.459 543.195C-446.539 477.748 -355.272 386.968 -354.141 304.409C-353.089 227.696 -409.855 146.387 -374.092 78.7381C-335.908 6.50989 -252.386 -42.9407 -161.093 -60.7576C-71.5828 -78.2264 28.0436 -57.9646 112.561 -16.2375C188.944 21.4729 227.288 93.1891 277.428 155.743C325.691 215.955 407.513 272.478 399.23 341.408C390.932 410.465 297.867 437.35 238.362 480.839C193.545 513.593 152.428 548.568 95.1433 563.647C36.3318 579.129 -25.7331 569.731 -88.9975 567.011Z" stroke="url(#paint90_linear_188_719)" stroke-width="3"/>
<path opacity="0.92" fill-rule="evenodd" clip-rule="evenodd" d="M-83.9143 567.503C-182.862 564.733 -304.912 614.373 -373.963 548.143C-440.939 483.903 -352.105 392.05 -352.653 309.744C-353.162 233.267 -411.206 153.077 -377.045 85.1124C-340.573 12.5471 -258.596 -37.9963 -168.257 -57.1263C-79.6831 -75.8825 19.7059 -57.1838 104.519 -16.8631C181.169 19.5764 220.717 90.4817 271.798 152.078C320.966 211.367 403.402 266.476 396.569 335.305C389.723 404.26 297.808 432.455 239.571 476.696C195.709 510.015 155.568 545.494 98.961 561.384C40.8455 577.698 -21.0061 569.264 -83.9143 567.503Z" stroke="url(#paint91_linear_188_719)" stroke-width="3"/>
<path opacity="0.93" fill-rule="evenodd" clip-rule="evenodd" d="M-78.777 567.873C-177.135 566.598 -297.383 617.909 -367.325 552.934C-435.166 489.912 -348.771 397.027 -350.983 315.001C-353.038 238.783 -412.328 159.73 -379.767 91.4758C-345.003 18.6019 -264.584 -33.0064 -175.223 -53.4303C-87.6069 -73.4552 11.5123 -56.311 96.5891 -17.3973C173.476 17.7707 214.203 87.8482 266.198 148.474C316.247 206.829 399.261 260.518 393.867 329.223C388.463 398.053 297.719 427.536 240.758 472.506C197.857 506.374 158.696 542.339 102.781 559.027C45.3752 576.161 -16.2437 568.683 -78.777 567.873Z" stroke="url(#paint92_linear_188_719)" stroke-width="3"/>
<path opacity="0.94" fill-rule="evenodd" clip-rule="evenodd" d="M-73.5883 568.119C-171.328 568.326 -289.748 621.272 -360.549 557.564C-429.222 495.77 -345.275 401.895 -349.134 320.175C-352.72 244.241 -413.223 166.34 -382.258 97.8238C-349.198 24.6695 -270.351 -27.9754 -181.989 -49.6738C-95.3528 -70.9483 3.46438 -55.3498 88.7723 -17.843C165.868 16.0534 207.748 85.2866 260.631 144.93C311.533 202.34 395.092 254.604 391.125 323.162C387.15 391.845 297.598 422.593 241.921 468.269C199.988 502.67 161.812 539.103 106.601 556.576C49.9185 574.515 -11.4482 567.988 -73.5883 568.119Z" stroke="url(#paint93_linear_188_719)" stroke-width="3"/>
<path opacity="0.95" fill-rule="evenodd" clip-rule="evenodd" d="M-68.3516 568.241C-165.445 569.915 -282.014 624.463 -353.639 562.031C-423.113 501.475 -341.62 406.653 -347.109 325.263C-352.21 249.636 -413.893 172.905 -384.52 104.152C-353.159 30.7454 -275.898 -22.9079 -188.556 -45.861C-102.92 -68.3656 -4.43668 -54.3034 81.0702 -18.2031C158.346 14.4222 201.353 82.7952 255.096 141.445C306.828 197.899 390.895 248.733 388.343 317.122C385.787 385.636 297.446 417.626 243.061 463.985C202.1 498.901 164.913 535.786 110.419 554.03C54.4728 572.76 -6.6227 567.177 -68.3516 568.241Z" stroke="url(#paint94_linear_188_719)" stroke-width="3"/>
<path opacity="0.96" fill-rule="evenodd" clip-rule="evenodd" d="M-63.0703 568.236C-159.489 571.363 -274.183 627.478 -346.601 566.332C-416.843 507.022 -337.809 411.295 -344.911 330.261C-351.51 254.966 -414.341 179.418 -386.555 110.456C-356.888 36.8249 -281.224 -17.8083 -194.924 -41.9958C-110.309 -65.7108 -12.1904 -53.1749 73.4836 -18.4801C150.911 12.875 195.019 80.3724 249.596 138.018C302.13 193.505 386.672 242.906 385.523 311.103C384.371 379.425 297.262 412.634 244.175 459.655C204.192 495.068 167.998 532.388 114.233 551.389C59.0351 570.896 -1.77033 566.249 -63.0703 568.236Z" stroke="url(#paint95_linear_188_719)" stroke-width="3"/>
<path opacity="0.97" fill-rule="evenodd" clip-rule="evenodd" d="M-57.747 568.105C-153.464 572.669 -266.261 630.317 -339.438 570.464C-410.417 512.411 -333.846 415.82 -342.543 335.168C-350.624 260.226 -414.57 185.878 -388.365 116.731C-360.386 42.9039 -286.33 -12.6806 -201.091 -38.0823C-117.518 -62.9876 -19.7952 -51.9675 66.0144 -18.6766C143.564 11.4098 188.748 78.0164 244.131 134.648C297.441 189.158 382.425 237.122 382.665 305.106C382.905 373.214 297.046 407.619 245.263 455.277C206.262 491.171 171.064 528.908 118.04 548.652C63.6035 568.922 3.10664 565.204 -57.747 568.105Z" stroke="url(#paint96_linear_188_719)" stroke-width="3"/>
<path opacity="0.98" fill-rule="evenodd" clip-rule="evenodd" d="M-52.385 567.846C-147.373 573.831 -258.252 632.976 -332.156 574.427C-403.839 517.636 -329.734 420.225 -340.008 339.978C-349.554 265.413 -414.58 192.278 -389.951 122.973C-363.654 48.9777 -291.217 -7.52943 -207.06 -34.1244C-124.546 -60.1998 -27.2501 -50.6844 58.6635 -18.7953C136.307 10.0241 182.54 75.7254 238.703 131.332C292.763 184.857 378.154 231.381 379.77 299.13C381.388 367.002 296.797 402.579 246.324 450.853C208.31 487.21 174.111 525.347 121.84 545.819C68.1753 566.838 8.0053 564.041 -52.385 567.846Z" stroke="url(#paint97_linear_188_719)" stroke-width="3"/>
<path opacity="0.99" fill-rule="evenodd" clip-rule="evenodd" d="M-46.988 567.457C-141.221 574.848 -250.162 635.455 -324.758 578.216C-397.114 522.696 -325.478 424.507 -337.309 344.689C-348.302 270.523 -414.377 198.615 -391.316 129.178C-366.695 55.0417 -295.886 -2.35917 -212.829 -30.1264C-131.395 -57.3511 -34.5551 -49.3292 51.4314 -18.8393C129.141 8.71564 176.397 73.4975 233.312 128.07C288.096 180.6 373.859 225.683 376.837 293.174C379.821 360.79 296.515 397.515 247.357 446.381C210.333 483.184 177.135 521.703 125.628 542.891C72.7473 564.643 12.9221 562.758 -46.988 567.457Z" stroke="url(#paint98_linear_188_719)" stroke-width="3"/>
<path fill-rule="evenodd" clip-rule="evenodd" d="M-41.5588 566.939C-135.01 575.719 -241.993 637.752 -317.25 581.83C-390.246 527.588 -321.08 428.663 -334.449 349.298C-346.872 275.553 -413.962 204.885 -392.463 135.342C-369.509 61.0915 -300.337 2.82581 -218.399 -26.0924C-138.062 -54.4456 -41.7088 -47.9051 44.3196 -18.8113C122.067 7.48197 170.319 71.3308 227.959 124.861C283.44 176.386 369.543 220.026 373.869 287.24C378.203 354.577 296.199 392.426 248.361 441.861C212.331 479.093 180.136 517.978 129.403 539.866C77.3174 562.336 17.8549 561.357 -41.5588 566.939Z" stroke="url(#paint99_linear_188_719)" stroke-width="3"/>
<defs>
<linearGradient id="paint0_linear_188_719" x1="-183.55" y1="224.659" x2="940.43" y2="613.084" gradientUnits="userSpaceOnUse">
<stop stop-color="#00A3FF"/>
<stop offset="1" stop-color="#0D34A0"/>
</linearGradient>
<linearGradient id="paint1_linear_188_719" x1="-190.832" y1="228.78" x2="937.625" y2="592.661" gradientUnits="userSpaceOnUse">
<stop stop-color="#00A3FF"/>
<stop offset="1" stop-color="#0D34A0"/>
</linearGradient>
<linearGradient id="paint2_linear_188_719" x1="-197.947" y1="233.005" x2="934.311" y2="572.267" gradientUnits="userSpaceOnUse">
<stop stop-color="#00A3FF"/>
<stop offset="1" stop-color="#0D34A0"/>
</linearGradient>
<linearGradient id="paint3_linear_188_719" x1="-204.893" y1="237.33" x2="930.486" y2="551.925" gradientUnits="userSpaceOnUse">
<stop stop-color="#00A3FF"/>
<stop offset="1" stop-color="#0D34A0"/>
</linearGradient>
<linearGradient id="paint4_linear_188_719" x1="-211.668" y1="241.752" x2="926.149" y2="531.66" gradientUnits="userSpaceOnUse">
<stop stop-color="#00A3FF"/>
<stop offset="1" stop-color="#0D34A0"/>
</linearGradient>
<linearGradient id="paint5_linear_188_719" x1="-218.272" y1="246.268" x2="921.303" y2="511.495" gradientUnits="userSpaceOnUse">
<stop stop-color="#00A3FF"/>
<stop offset="1" stop-color="#0D34A0"/>
</linearGradient>
<linearGradient id="paint6_linear_188_719" x1="-224.7" y1="250.875" x2="915.952" y2="491.456" gradientUnits="userSpaceOnUse">
<stop stop-color="#00A3FF"/>
<stop offset="1" stop-color="#0D34A0"/>
</linearGradient>
<linearGradient id="paint7_linear_188_719" x1="-230.952" y1="255.571" x2="910.1" y2="471.567" gradientUnits="userSpaceOnUse">
<stop stop-color="#00A3FF"/>
<stop offset="1" stop-color="#0D34A0"/>
</linearGradient>
<linearGradient id="paint8_linear_188_719" x1="-237.027" y1="260.352" x2="903.753" y2="451.85" gradientUnits="userSpaceOnUse">
<stop stop-color="#00A3FF"/>
<stop offset="1" stop-color="#0D34A0"/>
</linearGradient>
<linearGradient id="paint9_linear_188_719" x1="-242.922" y1="265.215" x2="896.919" y2="432.33" gradientUnits="userSpaceOnUse">
<stop stop-color="#00A3FF"/>
<stop offset="1" stop-color="#0D34A0"/>
</linearGradient>
<linearGradient id="paint10_linear_188_719" x1="-248.637" y1="270.157" x2="889.606" y2="413.029" gradientUnits="userSpaceOnUse">
<stop stop-color="#00A3FF"/>
<stop offset="1" stop-color="#0D34A0"/>
</linearGradient>
<linearGradient id="paint11_linear_188_719" x1="-254.171" y1="275.175" x2="881.826" y2="393.97" gradientUnits="userSpaceOnUse">
<stop stop-color="#00A3FF"/>
<stop offset="1" stop-color="#0D34A0"/>
</linearGradient>
<linearGradient id="paint12_linear_188_719" x1="-259.521" y1="280.266" x2="873.59" y2="375.173" gradientUnits="userSpaceOnUse">
<stop stop-color="#00A3FF"/>
<stop offset="1" stop-color="#0D34A0"/>
</linearGradient>
<linearGradient id="paint13_linear_188_719" x1="-264.686" y1="285.428" x2="864.91" y2="356.661" gradientUnits="userSpaceOnUse">
<stop stop-color="#00A3FF"/>
<stop offset="1" stop-color="#0D34A0"/>
</linearGradient>
<linearGradient id="paint14_linear_188_719" x1="-269.666" y1="290.655" x2="855.801" y2="338.452" gradientUnits="userSpaceOnUse">
<stop stop-color="#00A3FF"/>
<stop offset="1" stop-color="#0D34A0"/>
</linearGradient>
<linearGradient id="paint15_linear_188_719" x1="-274.46" y1="295.946" x2="846.276" y2="320.565" gradientUnits="userSpaceOnUse">
<stop stop-color="#00A3FF"/>
<stop offset="1" stop-color="#0D34A0"/>
</linearGradient>
<linearGradient id="paint16_linear_188_719" x1="-279.065" y1="301.297" x2="836.354" y2="303.02" gradientUnits="userSpaceOnUse">
<stop stop-color="#00A3FF"/>
<stop offset="1" stop-color="#0D34A0"/>
</linearGradient>
<linearGradient id="paint17_linear_188_719" x1="-283.483" y1="306.705" x2="826.05" y2="285.832" gradientUnits="userSpaceOnUse">
<stop stop-color="#00A3FF"/>
<stop offset="1" stop-color="#0D34A0"/>
</linearGradient>
<linearGradient id="paint18_linear_188_719" x1="-287.711" y1="312.166" x2="815.381" y2="269.017" gradientUnits="userSpaceOnUse">
<stop stop-color="#00A3FF"/>
<stop offset="1" stop-color="#0D34A0"/>
</linearGradient>
<linearGradient id="paint19_linear_188_719" x1="-291.749" y1="317.678" x2="804.367" y2="252.59" gradientUnits="userSpaceOnUse">
<stop stop-color="#00A3FF"/>
<stop offset="1" stop-color="#0D34A0"/>
</linearGradient>
<linearGradient id="paint20_linear_188_719" x1="-295.596" y1="323.237" x2="793.028" y2="236.564" gradientUnits="userSpaceOnUse">
<stop stop-color="#00A3FF"/>
<stop offset="1" stop-color="#0D34A0"/>
</linearGradient>
<linearGradient id="paint21_linear_188_719" x1="-299.252" y1="328.839" x2="781.381" y2="220.952" gradientUnits="userSpaceOnUse">
<stop stop-color="#00A3FF"/>
<stop offset="1" stop-color="#0D34A0"/>
</linearGradient>
<linearGradient id="paint22_linear_188_719" x1="-302.715" y1="334.482" x2="769.449" y2="205.763" gradientUnits="userSpaceOnUse">
<stop stop-color="#00A3FF"/>
<stop offset="1" stop-color="#0D34A0"/>
</linearGradient>
<linearGradient id="paint23_linear_188_719" x1="-305.988" y1="340.162" x2="757.249" y2="191.01" gradientUnits="userSpaceOnUse">
<stop stop-color="#00A3FF"/>
<stop offset="1" stop-color="#0D34A0"/>
</linearGradient>
<linearGradient id="paint24_linear_188_719" x1="-309.068" y1="345.876" x2="744.805" y2="176.698" gradientUnits="userSpaceOnUse">
<stop stop-color="#00A3FF"/>
<stop offset="1" stop-color="#0D34A0"/>
</linearGradient>
<linearGradient id="paint25_linear_188_719" x1="-311.953" y1="351.62" x2="732.136" y2="162.836" gradientUnits="userSpaceOnUse">
<stop stop-color="#00A3FF"/>
<stop offset="1" stop-color="#0D34A0"/>
</linearGradient>
<linearGradient id="paint26_linear_188_719" x1="-314.647" y1="357.391" x2="719.264" y2="149.43" gradientUnits="userSpaceOnUse">
<stop stop-color="#00A3FF"/>
<stop offset="1" stop-color="#0D34A0"/>
</linearGradient>
<linearGradient id="paint27_linear_188_719" x1="-317.147" y1="363.186" x2="706.21" y2="136.484" gradientUnits="userSpaceOnUse">
<stop stop-color="#00A3FF"/>
<stop offset="1" stop-color="#0D34A0"/>
</linearGradient>
<linearGradient id="paint28_linear_188_719" x1="-319.455" y1="369" x2="692.994" y2="124.001" gradientUnits="userSpaceOnUse">
<stop stop-color="#00A3FF"/>
<stop offset="1" stop-color="#0D34A0"/>
</linearGradient>
<linearGradient id="paint29_linear_188_719" x1="-321.568" y1="374.832" x2="679.639" y2="111.985" gradientUnits="userSpaceOnUse">
<stop stop-color="#00A3FF"/>
<stop offset="1" stop-color="#0D34A0"/>
</linearGradient>
<linearGradient id="paint30_linear_188_719" x1="-323.489" y1="380.677" x2="666.164" y2="100.436" gradientUnits="userSpaceOnUse">
<stop stop-color="#00A3FF"/>
<stop offset="1" stop-color="#0D34A0"/>
</linearGradient>
<linearGradient id="paint31_linear_188_719" x1="-325.217" y1="386.532" x2="652.589" y2="89.3535" gradientUnits="userSpaceOnUse">
<stop stop-color="#00A3FF"/>
<stop offset="1" stop-color="#0D34A0"/>
</linearGradient>
<linearGradient id="paint32_linear_188_719" x1="-326.753" y1="392.394" x2="638.935" y2="78.7373" gradientUnits="userSpaceOnUse">
<stop stop-color="#00A3FF"/>
<stop offset="1" stop-color="#0D34A0"/>
</linearGradient>
<linearGradient id="paint33_linear_188_719" x1="-328.097" y1="398.259" x2="625.221" y2="68.5852" gradientUnits="userSpaceOnUse">
<stop stop-color="#00A3FF"/>
<stop offset="1" stop-color="#0D34A0"/>
</linearGradient>
<linearGradient id="paint34_linear_188_719" x1="-329.248" y1="404.124" x2="611.468" y2="58.8942" gradientUnits="userSpaceOnUse">
<stop stop-color="#00A3FF"/>
<stop offset="1" stop-color="#0D34A0"/>
</linearGradient>
<linearGradient id="paint35_linear_188_719" x1="-330.208" y1="409.985" x2="597.692" y2="49.6604" gradientUnits="userSpaceOnUse">
<stop stop-color="#00A3FF"/>
<stop offset="1" stop-color="#0D34A0"/>
</linearGradient>
<linearGradient id="paint36_linear_188_719" x1="-330.978" y1="415.84" x2="583.911" y2="40.879" gradientUnits="userSpaceOnUse">
<stop stop-color="#00A3FF"/>
<stop offset="1" stop-color="#0D34A0"/>
</linearGradient>
<linearGradient id="paint37_linear_188_719" x1="-331.558" y1="421.684" x2="570.145" y2="32.5438" gradientUnits="userSpaceOnUse">
<stop stop-color="#00A3FF"/>
<stop offset="1" stop-color="#0D34A0"/>
</linearGradient>
<linearGradient id="paint38_linear_188_719" x1="-331.948" y1="427.514" x2="556.41" y2="24.6492" gradientUnits="userSpaceOnUse">
<stop stop-color="#00A3FF"/>
<stop offset="1" stop-color="#0D34A0"/>
</linearGradient>
<linearGradient id="paint39_linear_188_719" x1="-332.15" y1="433.328" x2="542.721" y2="17.1875" gradientUnits="userSpaceOnUse">
<stop stop-color="#00A3FF"/>
<stop offset="1" stop-color="#0D34A0"/>
</linearGradient>
<linearGradient id="paint40_linear_188_719" x1="-332.165" y1="439.121" x2="529.095" y2="10.1511" gradientUnits="userSpaceOnUse">
<stop stop-color="#00A3FF"/>
<stop offset="1" stop-color="#0D34A0"/>
</linearGradient>
<linearGradient id="paint41_linear_188_719" x1="-331.993" y1="444.891" x2="515.547" y2="3.53182" gradientUnits="userSpaceOnUse">
<stop stop-color="#00A3FF"/>
<stop offset="1" stop-color="#0D34A0"/>
</linearGradient>
<linearGradient id="paint42_linear_188_719" x1="-331.636" y1="450.633" x2="502.089" y2="-2.68009" gradientUnits="userSpaceOnUse">
<stop stop-color="#00A3FF"/>
<stop offset="1" stop-color="#0D34A0"/>
</linearGradient>
<linearGradient id="paint43_linear_188_719" x1="-331.095" y1="456.345" x2="488.737" y2="-8.49289" gradientUnits="userSpaceOnUse">
<stop stop-color="#00A3FF"/>
<stop offset="1" stop-color="#0D34A0"/>
</linearGradient>
<linearGradient id="paint44_linear_188_719" x1="-330.37" y1="462.023" x2="475.503" y2="-13.917" gradientUnits="userSpaceOnUse">
<stop stop-color="#00A3FF"/>
<stop offset="1" stop-color="#0D34A0"/>
</linearGradient>
<linearGradient id="paint45_linear_188_719" x1="-329.463" y1="467.665" x2="462.398" y2="-18.9627" gradientUnits="userSpaceOnUse">
<stop stop-color="#00A3FF"/>
<stop offset="1" stop-color="#0D34A0"/>
</linearGradient>
<linearGradient id="paint46_linear_188_719" x1="-328.376" y1="473.267" x2="449.435" y2="-23.6405" gradientUnits="userSpaceOnUse">
<stop stop-color="#00A3FF"/>
<stop offset="1" stop-color="#0D34A0"/>
</linearGradient>
<linearGradient id="paint47_linear_188_719" x1="-327.11" y1="478.825" x2="436.623" y2="-27.9615" gradientUnits="userSpaceOnUse">
<stop stop-color="#00A3FF"/>
<stop offset="1" stop-color="#0D34A0"/>
</linearGradient>
<linearGradient id="paint48_linear_188_719" x1="-325.667" y1="484.337" x2="423.972" y2="-31.9364" gradientUnits="userSpaceOnUse">
<stop stop-color="#00A3FF"/>
<stop offset="1" stop-color="#0D34A0"/>
</linearGradient>
<linearGradient id="paint49_linear_188_719" x1="-324.048" y1="489.798" x2="411.492" y2="-35.5776" gradientUnits="userSpaceOnUse">
<stop stop-color="#00A3FF"/>
<stop offset="1" stop-color="#0D34A0"/>
</linearGradient>
<linearGradient id="paint50_linear_188_719" x1="-322.254" y1="495.207" x2="399.191" y2="-38.8955" gradientUnits="userSpaceOnUse">
<stop stop-color="#00A3FF"/>
<stop offset="1" stop-color="#0D34A0"/>
</linearGradient>
<linearGradient id="paint51_linear_188_719" x1="-320.287" y1="500.56" x2="387.077" y2="-41.9024" gradientUnits="userSpaceOnUse">
<stop stop-color="#00A3FF"/>
<stop offset="1" stop-color="#0D34A0"/>
</linearGradient>
<linearGradient id="paint52_linear_188_719" x1="-318.15" y1="505.854" x2="375.157" y2="-44.6096" gradientUnits="userSpaceOnUse">
<stop stop-color="#00A3FF"/>
<stop offset="1" stop-color="#0D34A0"/>
</linearGradient>
<linearGradient id="paint53_linear_188_719" x1="-315.831" y1="511.085" x2="363.449" y2="-47.0297" gradientUnits="userSpaceOnUse">
<stop stop-color="#00A3FF"/>
<stop offset="1" stop-color="#0D34A0"/>
</linearGradient>
<linearGradient id="paint54_linear_188_719" x1="-313.358" y1="516.25" x2="351.936" y2="-49.1739" gradientUnits="userSpaceOnUse">
<stop stop-color="#00A3FF"/>
<stop offset="1" stop-color="#0D34A0"/>
</linearGradient>
<linearGradient id="paint55_linear_188_719" x1="-310.72" y1="521.348" x2="340.632" y2="-51.0541" gradientUnits="userSpaceOnUse">
<stop stop-color="#00A3FF"/>
<stop offset="1" stop-color="#0D34A0"/>
</linearGradient>
<linearGradient id="paint56_linear_188_719" x1="-307.918" y1="526.374" x2="329.545" y2="-52.6822" gradientUnits="userSpaceOnUse">
<stop stop-color="#00A3FF"/>
<stop offset="1" stop-color="#0D34A0"/>
</linearGradient>
<linearGradient id="paint57_linear_188_719" x1="-304.956" y1="531.325" x2="318.678" y2="-54.0701" gradientUnits="userSpaceOnUse">
<stop stop-color="#00A3FF"/>
<stop offset="1" stop-color="#0D34A0"/>
</linearGradient>
<linearGradient id="paint58_linear_188_719" x1="-301.835" y1="536.199" x2="308.032" y2="-55.2296" gradientUnits="userSpaceOnUse">
<stop stop-color="#00A3FF"/>
<stop offset="1" stop-color="#0D34A0"/>
</linearGradient>
<linearGradient id="paint59_linear_188_719" x1="-298.557" y1="540.993" x2="297.613" y2="-56.1719" gradientUnits="userSpaceOnUse">
<stop stop-color="#00A3FF"/>
<stop offset="1" stop-color="#0D34A0"/>
</linearGradient>
<linearGradient id="paint60_linear_188_719" x1="-295.125" y1="545.704" x2="287.422" y2="-56.9087" gradientUnits="userSpaceOnUse">
<stop stop-color="#00A3FF"/>
<stop offset="1" stop-color="#0D34A0"/>
</linearGradient>
<linearGradient id="paint61_linear_188_719" x1="-291.542" y1="550.329" x2="277.459" y2="-57.4513" gradientUnits="userSpaceOnUse">
<stop stop-color="#00A3FF"/>
<stop offset="1" stop-color="#0D34A0"/>
</linearGradient>
<linearGradient id="paint62_linear_188_719" x1="-287.809" y1="554.865" x2="267.728" y2="-57.8106" gradientUnits="userSpaceOnUse">
<stop stop-color="#00A3FF"/>
<stop offset="1" stop-color="#0D34A0"/>
</linearGradient>
<linearGradient id="paint63_linear_188_719" x1="-283.929" y1="559.309" x2="258.229" y2="-57.998" gradientUnits="userSpaceOnUse">
<stop stop-color="#00A3FF"/>
<stop offset="1" stop-color="#0D34A0"/>
</linearGradient>
<linearGradient id="paint64_linear_188_719" x1="-279.904" y1="563.659" x2="248.961" y2="-58.0238" gradientUnits="userSpaceOnUse">
<stop stop-color="#00A3FF"/>
<stop offset="1" stop-color="#0D34A0"/>
</linearGradient>
<linearGradient id="paint65_linear_188_719" x1="-275.739" y1="567.912" x2="239.925" y2="-57.8992" gradientUnits="userSpaceOnUse">
<stop stop-color="#00A3FF"/>
<stop offset="1" stop-color="#0D34A0"/>
</linearGradient>
<linearGradient id="paint66_linear_188_719" x1="-271.434" y1="572.066" x2="231.121" y2="-57.6339" gradientUnits="userSpaceOnUse">
<stop stop-color="#00A3FF"/>
<stop offset="1" stop-color="#0D34A0"/>
</linearGradient>
<linearGradient id="paint67_linear_188_719" x1="-266.993" y1="576.117" x2="222.546" y2="-57.2385" gradientUnits="userSpaceOnUse">
<stop stop-color="#00A3FF"/>
<stop offset="1" stop-color="#0D34A0"/>
</linearGradient>
<linearGradient id="paint68_linear_188_719" x1="-262.418" y1="580.064" x2="214.201" y2="-56.7228" gradientUnits="userSpaceOnUse">
<stop stop-color="#00A3FF"/>
<stop offset="1" stop-color="#0D34A0"/>
</linearGradient>
<linearGradient id="paint69_linear_188_719" x1="-257.712" y1="583.903" x2="206.083" y2="-56.0961" gradientUnits="userSpaceOnUse">
<stop stop-color="#00A3FF"/>
<stop offset="1" stop-color="#0D34A0"/>
</linearGradient>
<linearGradient id="paint70_linear_188_719" x1="-252.879" y1="587.633" x2="198.19" y2="-55.3681" gradientUnits="userSpaceOnUse">
<stop stop-color="#00A3FF"/>
<stop offset="1" stop-color="#0D34A0"/>
</linearGradient>
<linearGradient id="paint71_linear_188_719" x1="-247.921" y1="591.251" x2="190.52" y2="-54.5482" gradientUnits="userSpaceOnUse">
<stop stop-color="#00A3FF"/>
<stop offset="1" stop-color="#0D34A0"/>
</linearGradient>
<linearGradient id="paint72_linear_188_719" x1="-242.841" y1="594.754" x2="183.071" y2="-53.6453" gradientUnits="userSpaceOnUse">
<stop stop-color="#00A3FF"/>
<stop offset="1" stop-color="#0D34A0"/>
</linearGradient>
<linearGradient id="paint73_linear_188_719" x1="-237.642" y1="598.14" x2="175.839" y2="-52.6676" gradientUnits="userSpaceOnUse">
<stop stop-color="#00A3FF"/>
<stop offset="1" stop-color="#0D34A0"/>
</linearGradient>
<linearGradient id="paint74_linear_188_719" x1="-232.327" y1="601.407" x2="168.823" y2="-51.6237" gradientUnits="userSpaceOnUse">
<stop stop-color="#00A3FF"/>
<stop offset="1" stop-color="#0D34A0"/>
</linearGradient>
<linearGradient id="paint75_linear_188_719" x1="-226.9" y1="604.553" x2="162.017" y2="-50.5216" gradientUnits="userSpaceOnUse">
<stop stop-color="#00A3FF"/>
<stop offset="1" stop-color="#0D34A0"/>
</linearGradient>
<linearGradient id="paint76_linear_188_719" x1="-221.363" y1="607.575" x2="155.419" y2="-49.3698" gradientUnits="userSpaceOnUse">
<stop stop-color="#00A3FF"/>
<stop offset="1" stop-color="#0D34A0"/>
</linearGradient>
<linearGradient id="paint77_linear_188_719" x1="-215.72" y1="610.471" x2="149.023" y2="-48.1751" gradientUnits="userSpaceOnUse">
<stop stop-color="#00A3FF"/>
<stop offset="1" stop-color="#0D34A0"/>
</linearGradient>
<linearGradient id="paint78_linear_188_719" x1="-209.974" y1="613.24" x2="142.827" y2="-46.945" gradientUnits="userSpaceOnUse">
<stop stop-color="#00A3FF"/>
<stop offset="1" stop-color="#0D34A0"/>
</linearGradient>
<linearGradient id="paint79_linear_188_719" x1="-204.128" y1="615.88" x2="136.827" y2="-45.6867" gradientUnits="userSpaceOnUse">
<stop stop-color="#00A3FF"/>
<stop offset="1" stop-color="#0D34A0"/>
</linearGradient>
<linearGradient id="paint80_linear_188_719" x1="-198.186" y1="618.387" x2="131.017" y2="-44.4066" gradientUnits="userSpaceOnUse">
<stop stop-color="#00A3FF"/>
<stop offset="1" stop-color="#0D34A0"/>
</linearGradient>
<linearGradient id="paint81_linear_188_719" x1="-192.151" y1="620.761" x2="125.394" y2="-43.1116" gradientUnits="userSpaceOnUse">
<stop stop-color="#00A3FF"/>
<stop offset="1" stop-color="#0D34A0"/>
</linearGradient>
<linearGradient id="paint82_linear_188_719" x1="-186.027" y1="623" x2="119.951" y2="-41.8081" gradientUnits="userSpaceOnUse">
<stop stop-color="#00A3FF"/>
<stop offset="1" stop-color="#0D34A0"/>
</linearGradient>
<linearGradient id="paint83_linear_188_719" x1="-179.815" y1="625.101" x2="114.687" y2="-40.5013" gradientUnits="userSpaceOnUse">
<stop stop-color="#00A3FF"/>
<stop offset="1" stop-color="#0D34A0"/>
</linearGradient>
<linearGradient id="paint84_linear_188_719" x1="-173.522" y1="627.064" x2="109.592" y2="-39.1971" gradientUnits="userSpaceOnUse">
<stop stop-color="#00A3FF"/>
<stop offset="1" stop-color="#0D34A0"/>
</linearGradient>
<linearGradient id="paint85_linear_188_719" x1="-167.15" y1="628.886" x2="104.665" y2="-37.9014" gradientUnits="userSpaceOnUse">
<stop stop-color="#00A3FF"/>
<stop offset="1" stop-color="#0D34A0"/>
</linearGradient>
<linearGradient id="paint86_linear_188_719" x1="-160.702" y1="630.565" x2="99.8976" y2="-36.6189" gradientUnits="userSpaceOnUse">
<stop stop-color="#00A3FF"/>
<stop offset="1" stop-color="#0D34A0"/>
</linearGradient>
<linearGradient id="paint87_linear_188_719" x1="-154.182" y1="632.101" x2="95.287" y2="-35.3547" gradientUnits="userSpaceOnUse">
<stop stop-color="#00A3FF"/>
<stop offset="1" stop-color="#0D34A0"/>
</linearGradient>
<linearGradient id="paint88_linear_188_719" x1="-147.593" y1="633.492" x2="90.8267" y2="-34.113" gradientUnits="userSpaceOnUse">
<stop stop-color="#00A3FF"/>
<stop offset="1" stop-color="#0D34A0"/>
</linearGradient>
<linearGradient id="paint89_linear_188_719" x1="-140.941" y1="634.735" x2="86.5107" y2="-32.8983" gradientUnits="userSpaceOnUse">
<stop stop-color="#00A3FF"/>
<stop offset="1" stop-color="#0D34A0"/>
</linearGradient>
<linearGradient id="paint90_linear_188_719" x1="-134.227" y1="635.831" x2="82.3344" y2="-31.7149" gradientUnits="userSpaceOnUse">
<stop stop-color="#00A3FF"/>
<stop offset="1" stop-color="#0D34A0"/>
</linearGradient>
<linearGradient id="paint91_linear_188_719" x1="-127.455" y1="636.777" x2="78.2918" y2="-30.5666" gradientUnits="userSpaceOnUse">
<stop stop-color="#00A3FF"/>
<stop offset="1" stop-color="#0D34A0"/>
</linearGradient>
<linearGradient id="paint92_linear_188_719" x1="-120.63" y1="637.573" x2="74.3767" y2="-29.4566" gradientUnits="userSpaceOnUse">
<stop stop-color="#00A3FF"/>
<stop offset="1" stop-color="#0D34A0"/>
</linearGradient>
<linearGradient id="paint93_linear_188_719" x1="-113.756" y1="638.217" x2="70.584" y2="-28.3886" gradientUnits="userSpaceOnUse">
<stop stop-color="#00A3FF"/>
<stop offset="1" stop-color="#0D34A0"/>
</linearGradient>
<linearGradient id="paint94_linear_188_719" x1="-106.835" y1="638.708" x2="66.9078" y2="-27.3656" gradientUnits="userSpaceOnUse">
<stop stop-color="#00A3FF"/>
<stop offset="1" stop-color="#0D34A0"/>
</linearGradient>
<linearGradient id="paint95_linear_188_719" x1="-99.8716" y1="639.044" x2="63.3418" y2="-26.3903" gradientUnits="userSpaceOnUse">
<stop stop-color="#00A3FF"/>
<stop offset="1" stop-color="#0D34A0"/>
</linearGradient>
<linearGradient id="paint96_linear_188_719" x1="-92.8699" y1="639.226" x2="59.881" y2="-25.4652" gradientUnits="userSpaceOnUse">
<stop stop-color="#00A3FF"/>
<stop offset="1" stop-color="#0D34A0"/>
</linearGradient>
<linearGradient id="paint97_linear_188_719" x1="-85.8332" y1="639.252" x2="56.5194" y2="-24.5925" gradientUnits="userSpaceOnUse">
<stop stop-color="#00A3FF"/>
<stop offset="1" stop-color="#0D34A0"/>
</linearGradient>
<linearGradient id="paint98_linear_188_719" x1="-78.766" y1="639.12" x2="53.2506" y2="-23.7746" gradientUnits="userSpaceOnUse">
<stop stop-color="#00A3FF"/>
<stop offset="1" stop-color="#0D34A0"/>
</linearGradient>
<linearGradient id="paint99_linear_188_719" x1="-71.6716" y1="638.832" x2="50.0696" y2="-23.0132" gradientUnits="userSpaceOnUse">
<stop stop-color="#00A3FF"/>
<stop offset="1" stop-color="#0D34A0"/>
</linearGradient>
</defs>
</svg>
