<svg width="500" height="668" viewBox="0 0 500 668" fill="none" xmlns="http://www.w3.org/2000/svg">
<path opacity="0.01" d="M451.276 588.09L459.495 565.387C467.713 542.683 484.151 497.277 444.922 447C405.693 396.723 310.798 341.575 314.866 295.086C318.933 248.597 421.963 210.766 413.659 163.195C405.356 115.624 285.721 58.3118 225.903 29.6559L166.085 1.00009" stroke="#0D34A0" stroke-width="2"/>
<path opacity="0.0621053" d="M470.017 578.279L476.136 555.154C482.256 532.029 494.495 485.779 451.658 439.529C408.821 393.279 310.908 347.029 310.908 300.779C310.908 254.529 408.821 208.279 396.582 162.029C384.343 115.779 261.951 69.5288 200.756 46.4038L139.56 23.2788" stroke="#0D34A0" stroke-width="2"/>
<path opacity="0.114211" d="M487.206 567.538L491.216 544.183C495.226 520.828 503.246 474.118 457.199 432.138C411.153 390.158 311.039 352.909 307.045 307.25C303.05 261.591 395.174 207.522 379.165 162.915C363.155 118.307 239.012 83.1596 176.941 65.586L114.869 48.0123" stroke="#0D34A0" stroke-width="2"/>
<path opacity="0.166316" d="M502.803 556.003L504.711 532.608C506.619 509.213 510.434 462.423 461.591 424.918C412.748 387.413 311.247 359.193 303.361 314.466C295.474 269.739 381.202 208.506 361.614 165.842C342.026 123.179 217.121 99.0859 154.669 87.0393L92.2165 74.9926" stroke="#0D34A0" stroke-width="2"/>
<path opacity="0.218421" d="M516.784 543.809L516.613 520.561C516.442 497.313 516.1 450.817 464.885 417.953C413.671 385.088 311.583 365.855 299.936 322.388C288.289 278.922 367.083 211.222 344.131 170.784C321.179 130.347 196.481 117.172 134.132 110.585L71.7834 103.997" stroke="#0D34A0" stroke-width="2"/>
<path opacity="0.270526" d="M529.13 531.09L526.921 508.172C524.712 485.254 520.294 439.417 467.139 411.319C413.984 383.222 312.092 372.862 296.844 330.968C281.596 289.073 352.991 215.643 326.912 177.69C300.833 139.738 177.28 137.263 115.504 136.025L53.7277 134.787" stroke="#0D34A0" stroke-width="2"/>
<path opacity="0.322632" d="M539.837 517.978L535.646 495.566C531.456 473.154 523.074 428.33 468.414 405.086C413.755 381.842 312.818 380.177 294.152 340.148C275.486 300.12 339.092 221.727 310.143 186.494C281.193 151.261 159.688 159.187 98.9355 163.15L38.183 167.113" stroke="#0D34A0" stroke-width="2"/>
<path opacity="0.374737" d="M548.911 504.603L542.81 482.866C536.708 461.13 524.506 417.657 468.777 399.314C413.049 380.97 313.795 387.756 291.92 349.868C270.045 311.979 325.549 229.416 294.002 197.111C262.455 164.807 143.856 182.762 84.5568 191.739L25.2576 200.717" stroke="#0D34A0" stroke-width="2"/>
<path opacity="0.426842" d="M556.366 491.088L548.44 470.188C540.514 449.287 524.662 407.487 468.297 394.054C411.933 380.62 315.056 395.554 290.201 360.057C265.347 324.56 312.513 238.634 278.655 209.441C244.798 180.248 129.916 207.789 72.4749 221.56L15.0339 235.33" stroke="#0D34A0" stroke-width="2"/>
<path opacity="0.478947" d="M562.227 477.554L552.575 457.641C542.923 437.729 523.619 397.903 467.044 389.351C410.47 380.799 316.625 403.52 289.038 370.644C261.452 337.768 300.125 249.294 264.256 223.368C228.387 197.442 117.977 234.063 62.7725 252.373L7.56763 270.684" stroke="#0D34A0" stroke-width="2"/>
<path opacity="0.531053" d="M566.525 464.118L555.259 445.332C543.992 426.547 521.459 388.976 465.091 385.24C408.722 381.504 318.519 411.604 288.467 381.552C258.414 351.5 288.514 261.296 250.943 238.763C213.372 216.23 108.13 261.368 55.5096 283.937L2.88869 306.505" stroke="#0D34A0" stroke-width="2"/>
<path opacity="0.583158" d="M569.302 450.889L556.543 433.359C543.785 415.829 518.267 380.769 462.508 381.75C406.75 382.731 320.749 419.753 288.511 392.702C256.274 365.651 277.799 274.529 238.841 255.487C199.883 236.445 100.441 289.485 50.7207 316.004L1.00011 342.524" stroke="#0D34A0" stroke-width="2"/>
<path opacity="0.635263" d="M570.605 437.969L556.486 421.811C542.368 405.652 514.131 373.335 459.369 378.899C404.607 384.464 323.32 427.909 289.189 404.01C255.058 380.111 268.082 288.867 228.056 273.387C188.03 257.906 94.9548 318.188 48.4171 348.329L1.8793 378.47" stroke="#0D34A0" stroke-width="2"/>
<path opacity="0.687368" d="M570.486 425.458L555.149 410.773C539.812 396.088 509.138 366.718 455.742 376.701C402.347 386.685 326.23 436.022 290.507 415.397C254.783 394.772 259.453 304.185 218.68 292.305C177.907 280.425 91.6928 347.253 48.5856 380.667L5.47833 414.081" stroke="#0D34A0" stroke-width="2"/>
<path opacity="0.739474" d="M569.007 413.446L552.599 400.322C536.191 387.198 503.376 360.951 451.696 375.16C400.015 389.37 329.469 444.036 292.462 426.779C255.454 409.522 251.985 320.342 210.785 312.076C169.585 303.809 90.6547 376.456 51.1895 412.779L11.7244 449.103" stroke="#0D34A0" stroke-width="2"/>
<path opacity="0.791579" d="M566.23 402.015L548.906 390.526C531.582 379.037 496.935 356.06 447.294 374.275C397.654 392.491 333.021 451.898 295.042 438.075C257.062 424.252 245.737 337.197 204.426 332.528C163.115 327.859 91.8184 405.574 56.1701 444.432L20.5218 483.29" stroke="#0D34A0" stroke-width="2"/>
<path opacity="0.843684" d="M562.224 391.242L544.143 381.447C526.062 371.652 489.9 352.063 442.6 374.04C395.3 396.017 336.863 459.561 298.226 449.208C259.589 438.855 240.752 354.606 199.64 353.49C158.528 352.374 95.1403 434.393 63.4464 475.402L31.7525 516.411" stroke="#0D34A0" stroke-width="2"/>
<path opacity="0.895789" d="M557.06 381.197L538.384 373.139C519.708 365.081 482.356 348.966 437.67 374.439C392.985 399.912 340.966 466.975 301.984 460.101C263.002 453.227 237.057 372.418 196.445 374.787C155.833 377.155 100.555 462.701 72.9163 505.474L45.2773 548.247" stroke="#0D34A0" stroke-width="2"/>
<path opacity="0.947895" d="M550.814 371.942L531.706 365.649C512.599 359.357 474.383 346.772 432.557 375.457C390.731 404.143 345.295 474.098 306.277 470.684C267.26 467.271 234.661 390.488 194.841 396.246C155.021 402.003 107.98 490.301 84.459 534.449L60.9384 578.598" stroke="#0D34A0" stroke-width="2"/>
<path d="M543.56 363.531L524.185 359.017C504.81 354.503 466.06 345.475 427.31 377.072C388.56 408.669 349.81 480.891 311.06 480.891C272.31 480.891 233.56 408.669 194.81 417.697C156.06 426.725 117.31 517.002 97.9348 562.14L78.5598 607.279" stroke="#0D34A0" stroke-width="2"/>
</svg>
