<svg width="227" height="499" viewBox="0 0 227 499" fill="none" xmlns="http://www.w3.org/2000/svg">
<path opacity="0.01" d="M408.348 302.64L403.805 289.726C399.262 276.813 390.175 250.986 354.912 243.005C319.649 235.024 258.209 244.889 243.305 223.028C228.401 201.167 260.034 147.58 239.313 129.685C218.592 111.789 145.519 129.586 108.982 138.484L72.4447 147.382" stroke="#0D34A0" stroke-width="2"/>
<path opacity="0.0621053" d="M413.051 291.607L407.435 279.262C401.819 266.917 390.587 242.227 355.186 237.309C319.785 232.39 260.215 247.243 243.612 226.947C227.009 206.651 253.374 151.206 231.4 135.303C209.427 119.401 139.115 143.041 103.958 154.861L68.8024 166.68" stroke="#0D34A0" stroke-width="2"/>
<path opacity="0.114211" d="M416.738 280.723L410.114 269.034C403.489 257.346 390.241 233.969 354.964 232.076C319.688 230.184 262.383 249.776 244.239 231.173C226.096 212.57 247.114 155.773 224.075 141.945C201.036 128.116 133.941 157.257 100.394 171.827L66.846 186.398" stroke="#0D34A0" stroke-width="2"/>
<path opacity="0.166316" d="M419.442 270.061L411.881 259.11C404.319 248.159 389.197 226.256 354.3 227.331C319.402 228.406 264.73 252.459 245.213 235.662C225.697 218.866 241.335 161.22 217.424 149.53C193.513 137.839 130.052 172.104 98.3211 189.237L66.5905 206.369" stroke="#0D34A0" stroke-width="2"/>
<path opacity="0.218421" d="M421.199 259.692L412.779 249.551C404.358 239.41 387.517 219.129 353.245 223.092C318.973 227.055 267.269 255.262 246.554 240.368C225.84 225.475 236.114 167.48 211.526 157.974C186.938 148.468 127.487 187.45 97.7613 206.942L68.0358 226.433" stroke="#0D34A0" stroke-width="2"/>
<path opacity="0.270526" d="M422.052 249.678L412.855 240.414C403.659 231.15 385.265 212.621 351.853 219.372C318.44 226.123 270.008 258.154 248.277 245.243C226.547 232.332 231.517 174.48 206.449 167.186C181.38 159.893 126.273 203.16 98.7191 224.793L71.1653 246.426" stroke="#0D34A0" stroke-width="2"/>
<path opacity="0.322632" d="M422.044 240.081L412.159 231.75C402.275 223.419 382.506 206.758 350.175 216.179C317.844 225.6 272.952 261.104 250.392 250.238C227.831 239.373 227.602 182.139 202.25 177.069C176.898 172 126.423 219.096 101.186 242.644L75.9481 266.192" stroke="#0D34A0" stroke-width="2"/>
<path opacity="0.374737" d="M421.224 230.954L410.744 223.605C400.263 216.257 379.302 201.56 348.262 213.516C317.222 225.471 276.102 264.079 252.901 255.305C229.701 246.53 224.419 190.374 198.979 187.523C173.538 184.671 127.938 235.125 105.139 260.352L82.3388 285.578" stroke="#0D34A0" stroke-width="2"/>
<path opacity="0.426842" d="M419.644 222.347L408.663 216.02C397.682 209.694 375.72 197.041 346.163 211.38C316.606 225.718 279.454 267.048 255.805 260.393C232.155 253.739 222.008 199.099 196.67 198.443C171.333 197.786 130.805 251.112 110.541 277.775L90.2777 304.438" stroke="#0D34A0" stroke-width="2"/>
<path opacity="0.478947" d="M417.358 214.304L405.974 209.03C394.59 203.757 371.822 193.209 343.925 209.765C316.028 226.321 283.003 269.981 259.095 265.456C235.187 260.932 220.398 208.224 195.351 209.723C170.303 211.222 134.998 266.927 117.345 294.78L99.6927 322.632" stroke="#0D34A0" stroke-width="2"/>
<path opacity="0.531053" d="M414.42 206.864L402.733 202.665C391.045 198.466 367.67 190.067 341.592 208.663C315.515 227.259 286.735 272.849 262.76 270.449C238.784 268.049 219.611 217.659 195.035 221.258C170.459 224.857 140.479 282.444 125.488 311.238L110.498 340.032" stroke="#0D34A0" stroke-width="2"/>
<path opacity="0.583158" d="M410.89 200.062L398.998 196.95C387.106 193.837 363.323 187.612 339.206 208.059C315.089 228.505 290.639 275.624 266.782 275.326C242.924 275.028 219.659 227.313 195.728 232.942C171.796 238.571 147.198 297.543 134.899 327.03L122.599 356.516" stroke="#0D34A0" stroke-width="2"/>
<path opacity="0.635263" d="M406.824 193.925L394.828 191.902C382.831 189.88 358.839 185.834 336.805 207.934C314.771 230.034 294.696 278.28 271.139 280.045C247.582 281.809 220.543 237.093 197.421 244.668C174.299 252.243 155.094 312.109 145.491 342.041L135.889 371.974" stroke="#0D34A0" stroke-width="2"/>
<path opacity="0.687368" d="M402.281 188.478L390.279 187.539C378.276 186.6 354.272 184.723 334.424 208.272C314.577 231.821 298.885 280.796 275.804 284.569C252.724 288.342 222.254 246.913 200.097 256.336C177.94 265.759 164.096 326.035 157.174 356.172L150.252 386.31" stroke="#0D34A0" stroke-width="2"/>
<path opacity="0.739474" d="M397.319 183.737L385.408 183.868C373.496 183.999 349.674 184.26 332.095 209.048C314.517 233.836 303.183 283.149 280.748 288.861C258.313 294.573 224.777 256.684 203.73 267.846C182.682 279.008 174.124 339.222 169.844 369.329L165.565 399.436" stroke="#0D34A0" stroke-width="2"/>
<path opacity="0.791579" d="M391.997 179.718L380.271 180.895C368.544 182.072 345.091 184.427 329.846 210.24C314.601 236.053 307.564 285.325 285.935 292.893C264.307 300.46 228.086 266.323 208.281 279.104C188.476 291.885 185.087 351.583 183.393 381.432L181.698 411.281" stroke="#0D34A0" stroke-width="2"/>
<path opacity="0.843684" d="M386.372 176.428L374.922 178.621C363.471 180.813 340.569 185.198 327.702 211.821C314.835 238.445 312.001 287.308 291.329 296.635C270.658 305.962 232.148 275.752 213.706 290.021C195.264 304.289 196.89 363.037 197.703 392.41L198.516 421.784" stroke="#0D34A0" stroke-width="2"/>
<path opacity="0.895789" d="M380.5 173.874L369.412 177.042C358.324 180.21 336.147 186.547 325.682 213.766C315.217 240.986 316.463 289.089 296.889 300.066C277.315 311.043 236.92 284.895 219.949 300.513C202.977 316.131 209.429 373.515 212.654 402.207L215.88 430.899" stroke="#0D34A0" stroke-width="2"/>
<path opacity="0.947895" d="M374.436 172.055L363.793 176.152C353.149 180.25 331.861 188.446 323.804 216.049C315.746 243.651 320.92 290.661 302.572 303.169C284.224 315.678 242.356 293.685 226.948 310.506C211.541 327.327 222.594 382.962 228.121 410.779L233.648 438.597" stroke="#0D34A0" stroke-width="2"/>
<path d="M368.234 170.967L358.111 175.942C347.988 180.916 327.743 190.865 322.081 218.641C316.418 246.417 325.34 292.021 308.335 305.931C291.33 319.842 248.399 302.059 234.635 319.931C220.871 337.803 236.274 391.33 243.975 418.093L251.676 444.857" stroke="#0D34A0" stroke-width="2"/>
</svg>
