<svg width="115" height="54" viewBox="0 0 115 54" fill="none" xmlns="http://www.w3.org/2000/svg">
<path d="M4 19.853L23.0588 47.25L40.9265 19.853" stroke="url(#paint0_linear_18_4)" stroke-width="7.14706" stroke-linecap="round" stroke-linejoin="round"/>
<circle cx="23.059" cy="22.2353" r="3.97059" fill="url(#paint1_linear_18_4)"/>
<circle cx="23.0588" cy="5.55882" r="5.55882" fill="url(#paint2_linear_18_4)"/>
<path d="M65.4724 15.0776C65.5677 14.8394 65.6391 14.6806 65.6868 14.6012C65.7344 14.5059 65.8535 14.4026 66.0441 14.2915C66.2506 14.1644 66.5127 14.1009 66.8303 14.1009C67.5927 14.1009 67.9738 14.752 67.9738 16.0544V23.94C67.9738 25.2582 67.6006 25.9173 66.8541 25.9173C66.4729 25.9173 66.1871 25.8459 65.9965 25.7029C65.8059 25.5441 65.6312 25.282 65.4724 24.9168C64.3765 25.7268 63.1615 26.1318 61.8274 26.1318C60.1279 26.1318 58.6747 25.5362 57.4677 24.345C56.2606 23.1379 55.6571 21.6847 55.6571 19.9853C55.6571 18.2859 56.2606 16.8406 57.4677 15.6494C58.6747 14.4423 60.1279 13.8388 61.8274 13.8388C63.1456 13.8388 64.3606 14.2517 65.4724 15.0776ZM59.3259 17.4838C58.6429 18.1667 58.3015 19.0006 58.3015 19.9853C58.3015 20.97 58.6429 21.8038 59.3259 22.4867C60.0088 23.1697 60.8427 23.5112 61.8274 23.5112C62.8121 23.5112 63.6379 23.1697 64.305 22.4867C64.9879 21.8038 65.3294 20.97 65.3294 19.9853C65.3294 19.0006 64.9879 18.1667 64.305 17.4838C63.6379 16.8009 62.8121 16.4594 61.8274 16.4594C60.8427 16.4594 60.0088 16.8009 59.3259 17.4838ZM81.0764 15.0538C81.2829 14.3073 81.6879 13.9341 82.2914 13.9341C82.6567 13.9341 82.9664 14.077 83.2205 14.3629C83.4746 14.6329 83.6017 14.9744 83.6017 15.3873V29.3241C83.6017 29.7688 83.4826 30.1262 83.2443 30.3962C83.0061 30.6662 82.6805 30.8012 82.2676 30.8012C81.9023 30.8012 81.5926 30.6662 81.3385 30.3962C81.0843 30.1262 80.9573 29.7688 80.9573 29.3241V24.9644C79.9408 25.7268 78.7655 26.1079 77.4314 26.1079C75.732 26.1079 74.2788 25.5123 73.0717 24.3212C71.8805 23.13 71.2849 21.6847 71.2849 19.9853C71.2849 18.2859 71.8805 16.8406 73.0717 15.6494C74.2788 14.4423 75.732 13.8388 77.4314 13.8388C78.8132 13.8388 80.0282 14.2438 81.0764 15.0538ZM74.9299 17.4838C74.247 18.1667 73.9055 19.0006 73.9055 19.9853C73.9055 20.97 74.247 21.8038 74.9299 22.4867C75.6129 23.1697 76.4467 23.5112 77.4314 23.5112C78.4161 23.5112 79.2499 23.1697 79.9329 22.4867C80.6158 21.8038 80.9573 20.97 80.9573 19.9853C80.9573 19.0006 80.6158 18.1667 79.9329 17.4838C79.2499 16.8009 78.4161 16.4594 77.4314 16.4594C76.4467 16.4594 75.6129 16.8009 74.9299 17.4838ZM89.7711 15.4112V20.8667C89.7711 21.5815 90.0331 22.2009 90.5572 22.725C91.0814 23.2332 91.6928 23.4873 92.3916 23.4873C93.1381 23.4873 93.7575 23.2809 94.2499 22.8679C94.7581 22.455 95.0122 21.8356 95.0122 21.0097V16.0067C95.0122 14.625 95.4411 13.9341 96.2987 13.9341C96.8228 13.9341 97.1643 14.1009 97.3231 14.4344C97.4978 14.7679 97.609 15.3 97.6566 16.0306V24.0115C97.6566 25.3773 97.2119 26.0603 96.3225 26.0603C95.7508 26.0603 95.3696 25.7982 95.179 25.2741C94.4166 25.8459 93.4955 26.1318 92.4155 26.1318C90.8749 26.1318 89.6122 25.6632 88.6275 24.7262C87.6428 23.7732 87.1505 22.5423 87.1505 21.0335V16.0306C87.1505 15.3635 87.2378 14.8473 87.4125 14.482C87.6031 14.1167 87.9446 13.9341 88.4369 13.9341C88.8181 13.9341 89.1358 14.0691 89.3899 14.3391C89.644 14.5932 89.7711 14.9506 89.7711 15.4112ZM110.747 15.0776C110.843 14.8394 110.914 14.6806 110.962 14.6012C111.009 14.5059 111.128 14.4026 111.319 14.2915C111.526 14.1644 111.788 14.1009 112.105 14.1009C112.868 14.1009 113.249 14.752 113.249 16.0544V23.94C113.249 25.2582 112.876 25.9173 112.129 25.9173C111.748 25.9173 111.462 25.8459 111.271 25.7029C111.081 25.5441 110.906 25.282 110.747 24.9168C109.651 25.7268 108.436 26.1318 107.102 26.1318C105.403 26.1318 103.95 25.5362 102.743 24.345C101.536 23.1379 100.932 21.6847 100.932 19.9853C100.932 18.2859 101.536 16.8406 102.743 15.6494C103.95 14.4423 105.403 13.8388 107.102 13.8388C108.421 13.8388 109.636 14.2517 110.747 15.0776ZM104.601 17.4838C103.918 18.1667 103.576 19.0006 103.576 19.9853C103.576 20.97 103.918 21.8038 104.601 22.4867C105.284 23.1697 106.118 23.5112 107.102 23.5112C108.087 23.5112 108.913 23.1697 109.58 22.4867C110.263 21.8038 110.604 20.97 110.604 19.9853C110.604 19.0006 110.263 18.1667 109.58 17.4838C108.913 16.8009 108.087 16.4594 107.102 16.4594C106.118 16.4594 105.284 16.8009 104.601 17.4838Z" fill="url(#paint3_linear_18_4)"/>
<path d="M59.1591 47.3665C58.7938 46.3182 58.2379 44.7459 57.4915 42.6494C56.7609 40.537 56.2129 38.9567 55.8477 37.9085C55.7841 37.7179 55.7524 37.567 55.7524 37.4559C55.7524 37.0906 55.8794 36.7809 56.1335 36.5267C56.4035 36.2726 56.7212 36.1456 57.0865 36.1456C57.4677 36.1456 57.7615 36.2726 57.9679 36.5267C58.1744 36.7809 58.3571 37.1462 58.5159 37.6226L60.1359 42.7923C60.2788 43.2688 60.3979 43.6262 60.4932 43.8644C60.7156 43.2609 60.93 42.6176 61.1365 41.9347C61.3588 41.2359 61.5971 40.4497 61.8512 39.5762C62.1212 38.7026 62.3197 38.0515 62.4468 37.6226C62.6056 37.1462 62.7882 36.7809 62.9947 36.5267C63.2012 36.2726 63.495 36.1456 63.8762 36.1456C64.2415 36.1456 64.5591 36.2806 64.8291 36.5506C65.0991 36.8047 65.2341 37.1065 65.2341 37.4559C65.2341 37.567 65.2024 37.7179 65.1388 37.9085L61.8274 47.3665C61.605 47.97 61.1603 48.2717 60.4932 48.2717C59.8103 48.2717 59.3656 47.97 59.1591 47.3665ZM68.7086 46.8185V37.6465C68.7086 37.2017 68.8357 36.8444 69.0898 36.5744C69.3439 36.3044 69.6616 36.1694 70.0428 36.1694C70.408 36.1694 70.7178 36.3044 70.9719 36.5744C71.226 36.8444 71.353 37.2017 71.353 37.6465V46.8185C71.353 47.2632 71.226 47.6206 70.9719 47.8906C70.7178 48.1447 70.408 48.2717 70.0428 48.2717C69.6616 48.2717 69.3439 48.1447 69.0898 47.8906C68.8357 47.6206 68.7086 47.2632 68.7086 46.8185ZM70.0428 34.9782C69.6775 34.9782 69.3598 34.8512 69.0898 34.597C68.8357 34.327 68.7086 34.0094 68.7086 33.6441C68.7086 33.2947 68.8357 32.9929 69.0898 32.7388C69.3598 32.4847 69.6775 32.3576 70.0428 32.3576C70.3922 32.3576 70.6939 32.4926 70.948 32.7626C71.218 33.0167 71.353 33.3106 71.353 33.6441C71.353 34.0094 71.218 34.327 70.948 34.597C70.6939 34.8512 70.3922 34.9782 70.0428 34.9782ZM82.7742 44.9603C82.7742 45.8815 82.4089 46.6835 81.6783 47.3665C80.9636 48.0335 79.9551 48.367 78.6527 48.367C77.5568 48.367 76.6357 48.1288 75.8892 47.6523C75.1586 47.16 74.7933 46.6041 74.7933 45.9847C74.7933 45.667 74.9045 45.405 75.1268 45.1985C75.3492 44.9762 75.6351 44.865 75.9845 44.865C76.318 44.865 76.7468 45.0476 77.271 45.4129C77.7951 45.7623 78.2874 45.937 78.748 45.937C79.1768 45.937 79.5024 45.8417 79.7248 45.6512C79.9471 45.4606 80.0583 45.2382 80.0583 44.9841C80.0583 44.46 79.5342 43.9279 78.486 43.3879L77.3663 42.8162C76.4768 42.3715 75.8416 41.8791 75.4604 41.3391C75.0951 40.7832 74.9124 40.14 74.9124 39.4094C74.9124 38.52 75.2777 37.7497 76.0083 37.0985C76.7548 36.4315 77.7157 36.0979 78.891 36.0979C80.0345 36.0979 80.916 36.36 81.5354 36.8841C82.1707 37.4082 82.4883 37.9085 82.4883 38.385C82.4883 38.6867 82.3771 38.9409 82.1548 39.1473C81.9483 39.3538 81.6704 39.457 81.321 39.457C81.0192 39.457 80.5904 39.322 80.0345 39.052C79.4945 38.7662 79.018 38.6232 78.6051 38.6232C78.3192 38.6232 78.0889 38.7106 77.9142 38.8853C77.7554 39.0441 77.676 39.2267 77.676 39.4332C77.676 39.6873 77.7554 39.9017 77.9142 40.0765C78.0889 40.2512 78.4383 40.4894 78.9624 40.7912L79.2483 40.9579C79.3754 41.0373 79.5818 41.1485 79.8677 41.2915C80.1695 41.4344 80.3839 41.5456 80.511 41.625C82.0198 42.435 82.7742 43.5467 82.7742 44.9603ZM95.9739 37.3129C96.0692 37.0747 96.1407 36.9159 96.1883 36.8365C96.236 36.7412 96.3551 36.6379 96.5457 36.5267C96.7522 36.3997 97.0142 36.3362 97.3319 36.3362C98.0942 36.3362 98.4754 36.9873 98.4754 38.2897V46.1753C98.4754 47.4935 98.1022 48.1526 97.3557 48.1526C96.9745 48.1526 96.6886 48.0812 96.498 47.9382C96.3075 47.7794 96.1327 47.5173 95.9739 47.152C94.878 47.962 93.663 48.367 92.3289 48.367C90.6295 48.367 89.1763 47.7715 87.9692 46.5803C86.7622 45.3732 86.1586 43.92 86.1586 42.2206C86.1586 40.5212 86.7622 39.0759 87.9692 37.8847C89.1763 36.6776 90.6295 36.0741 92.3289 36.0741C93.6472 36.0741 94.8622 36.487 95.9739 37.3129ZM89.8275 39.7191C89.1445 40.402 88.803 41.2359 88.803 42.2206C88.803 43.2053 89.1445 44.0391 89.8275 44.722C90.5104 45.405 91.3442 45.7465 92.3289 45.7465C93.3136 45.7465 94.1395 45.405 94.8066 44.722C95.4895 44.0391 95.831 43.2053 95.831 42.2206C95.831 41.2359 95.4895 40.402 94.8066 39.7191C94.1395 39.0362 93.3136 38.6947 92.3289 38.6947C91.3442 38.6947 90.5104 39.0362 89.8275 39.7191Z" fill="url(#paint4_linear_18_4)"/>
<defs>
<linearGradient id="paint0_linear_18_4" x1="22.4632" y1="19.853" x2="22.4632" y2="47.25" gradientUnits="userSpaceOnUse">
<stop stop-color="#0044FF"/>
<stop offset="1" stop-color="#00A3FF"/>
</linearGradient>
<linearGradient id="paint1_linear_18_4" x1="23.059" y1="18.2647" x2="23.059" y2="26.2059" gradientUnits="userSpaceOnUse">
<stop stop-color="#0044FF"/>
<stop offset="1" stop-color="#00A3FF"/>
</linearGradient>
<linearGradient id="paint2_linear_18_4" x1="23.0588" y1="0" x2="23.0588" y2="11.1176" gradientUnits="userSpaceOnUse">
<stop stop-color="#0044FF"/>
<stop offset="1" stop-color="#00A3FF"/>
</linearGradient>
<linearGradient id="paint3_linear_18_4" x1="84.6027" y1="7.94116" x2="84.6027" y2="31.7647" gradientUnits="userSpaceOnUse">
<stop stop-color="#0044FF"/>
<stop offset="1" stop-color="#00A3FF"/>
</linearGradient>
<linearGradient id="paint4_linear_18_4" x1="77.0585" y1="30.1765" x2="77.0585" y2="54" gradientUnits="userSpaceOnUse">
<stop stop-color="#0044FF"/>
<stop offset="1" stop-color="#00A3FF"/>
</linearGradient>
</defs>
</svg>
