<svg width="375" height="537" viewBox="0 0 375 537" fill="none" xmlns="http://www.w3.org/2000/svg">
<g opacity="0.7">
<path opacity="0.0526316" d="M11.7226 457.453L13.9319 439.043C16.1411 420.632 20.5597 383.811 5.09487 346.99C-10.3699 310.169 -45.718 273.348 -45.718 236.527C-45.718 199.707 -10.3699 162.886 -14.7884 126.065C-19.2069 89.2438 -63.392 52.4228 -85.4846 34.0124L-107.577 15.6019" stroke="#0044FF"/>
<path opacity="0.105263" d="M3.29503 472.66L7.10046 454.512C10.9059 436.364 18.5167 400.068 6.31996 362.04C-5.87683 324.011 -37.8812 284.249 -34.6721 247.569C-31.4629 210.888 6.95979 177.288 5.76725 140.222C4.57471 103.156 -36.2331 62.6241 -56.637 42.3582L-77.0409 22.0923" stroke="#0044FF"/>
<path opacity="0.157895" d="M-5.42475 486.154L-0.0521168 468.407C5.32052 450.66 16.0658 415.166 7.22983 376.219C-1.60612 337.272 -30.0233 294.872 -23.6294 258.611C-17.2355 222.349 23.9694 192.226 26.0119 155.197C28.0544 118.168 -9.06552 74.2338 -27.6255 52.2667L-46.1855 30.2996" stroke="#0044FF"/>
<path opacity="0.210526" d="M-14.276 497.916L-7.37704 480.705C-0.478082 463.494 13.3198 429.071 7.91195 389.502C2.50407 349.933 -22.1096 305.218 -12.5796 269.652C-3.04969 234.086 40.6239 207.668 45.8859 170.958C51.1479 134.248 17.9983 87.2461 1.42354 63.745L-15.1513 40.2439" stroke="#0044FF"/>
<path opacity="0.263158" d="M-23.1146 507.942L-14.7418 491.397C-6.36906 474.853 10.3765 441.763 8.43784 401.874C6.49919 361.984 -14.1236 315.294 -1.53015 280.694C11.0634 246.093 56.8732 223.583 65.3146 187.471C73.7561 151.36 44.8292 101.647 30.3657 76.7909L15.9023 51.9346" stroke="#0044FF"/>
<path opacity="0.315789" d="M-31.7917 516.238L-22.0089 500.486C-12.226 484.734 7.33972 453.23 8.88506 413.323C10.4304 373.417 -6.04465 325.107 9.51655 291.736C25.0777 258.365 72.6752 239.932 84.2318 204.694C95.7885 169.455 71.3044 117.411 59.0623 91.3886L46.8203 65.3664" stroke="#0044FF"/>
<path opacity="0.368421" d="M-40.1531 522.825L-29.0346 507.986C-17.9161 493.146 4.32092 463.468 9.33849 423.847C14.3561 384.227 2.15418 334.665 20.5646 302.777C38.9751 270.89 87.9979 256.676 102.582 222.579C117.166 188.482 97.3108 134.501 87.3833 107.511L77.4558 80.5208" stroke="#0044FF"/>
<path opacity="0.421053" d="M-48.0507 527.738L-35.6812 513.924C-23.3117 500.111 1.42737 472.483 9.87897 433.451C18.3306 394.419 10.4947 343.982 31.6143 313.82C52.734 283.658 102.809 273.771 120.309 241.075C137.809 208.378 122.735 152.873 115.197 125.12L107.66 97.3674" stroke="#0044FF"/>
<path opacity="0.473684" d="M-55.3415 531.023L-41.8151 518.34C-28.2887 505.657 -1.23592 480.29 10.5854 442.143C22.4067 403.996 18.9966 353.069 42.6646 324.862C66.3326 296.656 117.079 291.171 137.362 260.124C157.645 229.077 147.466 172.469 142.376 144.165L137.286 115.861" stroke="#0044FF"/>
<path opacity="0.526316" d="M-61.8874 532.74L-47.3071 521.284C-32.7267 509.828 -3.56606 486.916 11.535 449.944C26.6361 412.973 27.6775 361.942 53.7139 335.905C79.7502 309.869 130.781 308.828 153.693 279.667C176.605 250.506 171.398 193.226 168.794 164.586L166.191 135.946" stroke="#0044FF"/>
<path opacity="0.578947" d="M-67.5519 532.958L-52.0286 522.817C-36.5053 512.675 -5.45865 492.392 12.8072 456.877C31.0731 421.362 36.5583 370.616 64.7648 346.948C92.9712 323.28 143.899 326.69 169.265 299.637C194.632 272.585 194.436 215.069 194.339 186.311L194.241 157.553" stroke="#0044FF"/>
<path opacity="0.631579" d="M-72.2092 531.762L-55.861 523.011C-39.5129 514.261 -6.81659 496.761 14.4751 462.974C35.7668 429.186 45.6539 379.111 75.8158 357.991C105.978 336.872 156.415 344.707 184.042 319.968C211.67 295.229 216.488 237.915 218.897 209.258L221.307 180.601" stroke="#0044FF"/>
<path opacity="0.684211" d="M-75.7388 529.243L-58.6902 521.951C-41.6417 514.659 -7.54456 500.075 16.6109 468.272C40.7664 436.468 54.9802 387.446 86.868 369.035C118.756 350.625 168.318 362.827 197.996 340.589C227.675 318.352 237.47 261.677 242.368 233.339L247.266 205.001" stroke="#0044FF"/>
<path opacity="0.736842" d="M-78.0388 525.505L-60.4195 519.727C-42.8003 513.949 -7.56189 502.392 19.2735 472.815C46.1089 443.238 64.5412 395.641 97.9123 380.079C131.283 364.518 179.593 380.993 211.097 361.427C242.601 341.862 257.298 286.255 264.647 258.452L271.996 230.649" stroke="#0044FF"/>
<path opacity="0.789474" d="M-78.991 520.661L-60.9352 516.441C-42.8794 512.22 -6.76787 503.778 22.5432 476.653C51.8543 449.527 74.3649 403.717 108.965 391.124C143.566 378.53 190.256 399.153 223.345 382.408C256.434 365.662 275.922 311.548 285.666 284.491L295.41 257.434" stroke="#0044FF"/>
<path opacity="0.842105" d="M-78.5165 514.831L-60.1616 512.2C-41.8066 509.569 -5.09674 504.307 26.467 479.84C58.0307 455.372 84.4482 411.698 120.014 402.168C155.581 392.638 200.296 417.252 234.718 403.454C269.141 389.656 293.272 337.447 305.337 311.342L317.402 285.237" stroke="#0044FF"/>
<path opacity="0.894737" d="M-76.526 508.145L-58.0116 507.124C-39.4972 506.103 -2.4684 504.06 31.1077 482.437C64.6838 460.813 94.8072 419.608 131.069 413.214C167.33 406.82 209.73 435.237 245.224 424.492C280.718 413.747 309.307 363.839 323.602 338.885L337.896 313.931" stroke="#0044FF"/>
<path opacity="0.947368" d="M-72.9627 500.736L-54.4297 501.332C-35.8968 501.929 1.16913 503.121 36.5021 484.506C71.8351 465.891 105.435 427.468 142.116 424.259C178.797 421.05 218.558 453.054 254.854 445.444C291.15 437.833 323.98 390.607 340.394 366.994L356.809 343.381" stroke="#0044FF"/>
<path d="M-67.7588 492.746L-49.3483 494.955C-30.9379 497.164 5.88306 501.583 42.704 486.118C79.5249 470.653 116.346 435.305 153.167 435.305C189.988 435.305 226.809 470.653 263.63 466.235C300.45 461.816 337.271 417.631 355.682 395.539L374.092 373.446" stroke="#0044FF"/>
</g>
</svg>
