<svg width="156" height="18" viewBox="0 0 156 18" fill="none" xmlns="http://www.w3.org/2000/svg">
<path fill-rule="evenodd" clip-rule="evenodd" d="M98.2641 14.0271C98.2641 15.1 97.9558 15.944 97.3393 16.5592C96.7227 17.1744 95.8778 17.482 94.8044 17.482C93.7279 17.482 92.883 17.1707 92.2696 16.548C91.6563 15.9254 91.3496 15.0851 91.3496 14.0271C91.3496 12.9602 91.6563 12.117 92.2696 11.4973C92.883 10.8777 93.7279 10.5679 94.8044 10.5679C95.8778 10.5679 96.7227 10.8762 97.3393 11.4929C97.9558 12.1095 98.2641 12.9543 98.2641 14.0271ZM96.4145 14.0227C96.4145 13.6274 96.3705 13.2909 96.2827 13.013C96.1948 12.7351 96.0775 12.507 95.9305 12.3287C95.7772 12.1474 95.6039 12.0174 95.4106 11.9387C95.2173 11.8599 95.0169 11.8205 94.8092 11.8205C94.5888 11.8205 94.3892 11.8569 94.2103 11.9297C94.0314 12.0025 93.8589 12.1326 93.6928 12.3198C93.5458 12.4922 93.4268 12.721 93.3358 13.0063C93.2447 13.2916 93.1992 13.6319 93.1992 14.0271C93.1992 14.4343 93.2423 14.7723 93.3286 15.0413C93.4148 15.3103 93.533 15.5354 93.6832 15.7167C93.8365 15.9009 94.0106 16.0324 94.2055 16.1112C94.4003 16.1899 94.6016 16.2293 94.8092 16.2293C95.0201 16.2293 95.2245 16.187 95.4226 16.1023C95.6206 16.0176 95.7915 15.8861 95.9353 15.7077C96.0886 15.5146 96.2068 15.2895 96.2899 15.0324C96.3729 14.7753 96.4145 14.4388 96.4145 14.0227Z" fill="#747478"/>
<path fill-rule="evenodd" clip-rule="evenodd" d="M90.7242 15.2218C90.7242 15.5458 90.6579 15.8437 90.5253 16.1156C90.3927 16.3876 90.2115 16.6097 89.9814 16.7821C89.7067 16.9871 89.4104 17.132 89.0926 17.2167C88.7747 17.3014 88.3874 17.3438 87.9306 17.3438H84.998V10.7061H90.1827V11.9721H86.7806V13.198H87.9593C88.3874 13.198 88.7707 13.227 89.1094 13.2849C89.448 13.3429 89.7514 13.4699 90.0198 13.6661C90.2658 13.8444 90.4446 14.068 90.5565 14.337C90.6683 14.6059 90.7242 14.9009 90.7242 15.2218ZM88.8746 15.2709C88.8746 15.1609 88.8618 15.0569 88.8362 14.9588C88.8107 14.8607 88.7548 14.7701 88.6685 14.6869C88.5823 14.6067 88.4641 14.5428 88.3139 14.4952C88.1638 14.4477 87.9561 14.4239 87.691 14.4239H86.7806V16.1134H87.691C88.0584 16.1134 88.3475 16.0406 88.5583 15.895C88.7691 15.7493 88.8746 15.5413 88.8746 15.2709Z" fill="#747478"/>
<path fill-rule="evenodd" clip-rule="evenodd" d="M81.6455 17.4729C80.5754 17.4729 79.7256 17.172 79.0963 16.5702C78.467 15.9684 78.1523 15.1222 78.1523 14.0315C78.1523 12.9794 78.4678 12.1406 79.0987 11.515C79.7296 10.8894 80.5802 10.5767 81.6503 10.5767C81.9346 10.5767 82.1902 10.5915 82.417 10.6212C82.6438 10.651 82.861 10.6926 83.0687 10.7461C83.2316 10.7906 83.4089 10.8516 83.6005 10.9288C83.7922 11.0061 83.9471 11.073 84.0653 11.1294V12.712H83.8833C83.797 12.6406 83.6884 12.5552 83.5574 12.4556C83.4264 12.3561 83.2779 12.2587 83.1118 12.1636C82.9457 12.0685 82.7628 11.9876 82.5631 11.9207C82.3635 11.8538 82.155 11.8204 81.9378 11.8204C81.6791 11.8204 81.4419 11.8583 81.2262 11.9341C81.0106 12.0099 80.8054 12.1414 80.6105 12.3286C80.4316 12.498 80.2855 12.7268 80.1721 13.0151C80.0587 13.3034 80.002 13.6436 80.002 14.0359C80.002 14.449 80.0611 14.796 80.1792 15.0768C80.2974 15.3577 80.4524 15.5843 80.644 15.7567C80.8293 15.9231 81.0362 16.0434 81.2646 16.1177C81.493 16.192 81.7206 16.2292 81.9474 16.2292C82.1838 16.2292 82.409 16.1928 82.623 16.12C82.8371 16.0472 83.0176 15.9662 83.1645 15.877C83.3242 15.7849 83.4648 15.6913 83.5862 15.5962C83.7076 15.5011 83.813 15.4164 83.9024 15.3421H84.0653V16.9023C83.9344 16.9588 83.7826 17.0234 83.6101 17.0962C83.4376 17.169 83.2603 17.2307 83.0782 17.2812C82.8546 17.3436 82.6454 17.3912 82.4505 17.4239C82.2557 17.4566 81.9873 17.4729 81.6455 17.4729Z" fill="#747478"/>
<path fill-rule="evenodd" clip-rule="evenodd" d="M93.5258 4.26787C93.5258 5.34072 93.2175 6.18473 92.601 6.79991C91.9844 7.4151 91.1395 7.72268 90.0662 7.72268C88.9896 7.72268 88.1447 7.41138 87.5313 6.78877C86.918 6.16616 86.6113 5.32586 86.6113 4.26787C86.6113 3.20096 86.918 2.35769 87.5313 1.73805C88.1447 1.11841 88.9896 0.808594 90.0662 0.808594C91.1395 0.808594 91.9844 1.11692 92.601 1.73359C93.2175 2.35026 93.5258 3.19501 93.5258 4.26787ZM91.6762 4.26341C91.6762 3.86815 91.6322 3.53158 91.5444 3.25371C91.4565 2.97584 91.3392 2.74775 91.1922 2.56944C91.0389 2.38815 90.8656 2.25813 90.6723 2.17938C90.479 2.10062 90.2786 2.06124 90.0709 2.06124C89.8505 2.06124 89.6509 2.09765 89.472 2.17046C89.2931 2.24327 89.1206 2.37329 88.9545 2.56052C88.8075 2.73289 88.6885 2.96172 88.5975 3.24703C88.5065 3.53233 88.4609 3.8726 88.4609 4.26787C88.4609 4.67502 88.5041 5.01307 88.5903 5.28202C88.6766 5.55098 88.7948 5.7761 88.9449 5.95738C89.0982 6.14164 89.2723 6.27315 89.4672 6.3519C89.6621 6.43066 89.8633 6.47003 90.0709 6.47003C90.2818 6.47003 90.4862 6.42768 90.6843 6.34299C90.8823 6.25829 91.0532 6.12678 91.197 5.94847C91.3503 5.75529 91.4685 5.53018 91.5516 5.27311C91.6346 5.01604 91.6762 4.67948 91.6762 4.26341Z" fill="#747478"/>
<path fill-rule="evenodd" clip-rule="evenodd" d="M97.5498 7.71364C96.4797 7.71364 95.6299 7.41274 95.0006 6.81093C94.3713 6.20912 94.0566 5.36289 94.0566 4.2722C94.0566 3.22015 94.3721 2.38134 95.003 1.75576C95.6339 1.13017 96.4844 0.817383 97.5546 0.817383C97.8389 0.817383 98.0945 0.832242 98.3213 0.861961C98.5481 0.89168 98.7653 0.933286 98.9729 0.98678C99.1359 1.03136 99.3132 1.09228 99.5048 1.16955C99.6965 1.24682 99.8514 1.31369 99.9696 1.37015V2.95268H99.7875C99.7013 2.88136 99.5927 2.79592 99.4617 2.69636C99.3307 2.5968 99.1822 2.49947 99.0161 2.40437C98.85 2.30927 98.6671 2.22829 98.4674 2.16142C98.2678 2.09455 98.0593 2.06112 97.8421 2.06112C97.5833 2.06112 97.3462 2.09901 97.1305 2.17479C96.9149 2.25057 96.7097 2.38208 96.5148 2.56931C96.3359 2.73871 96.1898 2.96754 96.0764 3.25581C95.9629 3.54409 95.9062 3.88437 95.9062 4.27666C95.9062 4.68975 95.9653 5.03672 96.0835 5.31756C96.2017 5.5984 96.3567 5.82501 96.5483 5.99738C96.7336 6.16381 96.9405 6.28416 97.1689 6.35846C97.3973 6.43276 97.6249 6.46991 97.8517 6.46991C98.0881 6.46991 98.3133 6.4335 98.5273 6.36069C98.7414 6.28788 98.9218 6.2069 99.0688 6.11774C99.2285 6.02561 99.3691 5.932 99.4905 5.8369C99.6118 5.7418 99.7173 5.6571 99.8067 5.5828H99.9696V7.14304C99.8387 7.19951 99.6869 7.26414 99.5144 7.33696C99.3419 7.40977 99.1646 7.47143 98.9825 7.52196C98.7589 7.58437 98.5497 7.63192 98.3548 7.66461C98.16 7.6973 97.8916 7.71364 97.5498 7.71364Z" fill="#747478"/>
<path fill-rule="evenodd" clip-rule="evenodd" d="M86.1781 9.10906H84.5346V7.56219H80.5479V9.10906H78.9043V6.314H79.3835C79.7189 5.66613 79.984 4.87784 80.1789 3.94912C80.3738 3.02041 80.4712 2.01963 80.4712 0.946777H85.5025V6.314H86.1781V9.10906ZM83.7104 6.314V2.2128H82.1483C82.0876 3.01521 81.9678 3.76784 81.7889 4.47069C81.61 5.17354 81.3848 5.78798 81.1133 6.314H83.7104Z" fill="#747478"/>
<path fill-rule="evenodd" clip-rule="evenodd" d="M102.612 7.58448V2.2128H100.504V0.946777H106.513V2.2128H104.404V7.58448H102.612Z" fill="#747478"/>
<path fill-rule="evenodd" clip-rule="evenodd" d="M105.889 7.58448L108.299 0.946777H110.254L112.664 7.58448H110.819L110.374 6.2293H108.131L107.686 7.58448H105.889ZM109.981 5.02569L109.252 2.8369L108.524 5.02569H109.981Z" fill="#747478"/>
<path fill-rule="evenodd" clip-rule="evenodd" d="M119.131 5.55171C119.131 5.88159 119.064 6.17135 118.93 6.42099C118.795 6.67063 118.615 6.87717 118.388 7.04063C118.12 7.23677 117.825 7.37645 117.504 7.45966C117.183 7.54288 116.775 7.58448 116.28 7.58448H113.424V0.946777H115.944C116.468 0.946777 116.865 0.965351 117.135 1.0025C117.405 1.03965 117.658 1.11766 117.895 1.23654C118.15 1.36433 118.341 1.53521 118.467 1.74919C118.593 1.96316 118.656 2.20983 118.656 2.48919C118.656 2.81312 118.569 3.10139 118.395 3.354C118.221 3.60662 117.981 3.79236 117.674 3.91123V3.94689C118.115 4.03308 118.468 4.20916 118.733 4.47515C118.998 4.74113 119.131 5.09998 119.131 5.55171ZM116.836 2.82352C116.836 2.71653 116.806 2.60658 116.747 2.49364C116.688 2.38071 116.596 2.29899 116.471 2.24846C116.353 2.20091 116.213 2.17491 116.052 2.17045C115.891 2.16599 115.65 2.16376 115.331 2.16376H115.206V3.56798H115.432C115.738 3.56798 115.953 3.56501 116.076 3.55906C116.199 3.55312 116.326 3.52192 116.457 3.46545C116.601 3.40304 116.7 3.31686 116.754 3.2069C116.808 3.09694 116.836 2.96915 116.836 2.82352ZM117.286 5.52051C117.286 5.31545 117.241 5.15497 117.152 5.03906C117.062 4.92316 116.928 4.83549 116.749 4.77605C116.641 4.73742 116.491 4.71587 116.301 4.71141C116.111 4.70695 115.856 4.70473 115.537 4.70473H115.206V6.36749H115.302C115.769 6.36749 116.091 6.36452 116.27 6.35858C116.449 6.35264 116.631 6.31252 116.816 6.23822C116.979 6.17284 117.098 6.07699 117.173 5.95069C117.248 5.82438 117.286 5.68099 117.286 5.52051Z" fill="#747478"/>
<path fill-rule="evenodd" clip-rule="evenodd" d="M126.335 7.58448H124.543V2.2128H122.742C122.729 2.47136 122.717 2.71282 122.706 2.9372C122.694 3.16158 122.682 3.37481 122.67 3.5769C122.634 4.15642 122.577 4.65643 122.497 5.07695C122.417 5.49748 122.326 5.84147 122.224 6.10894C122.112 6.39424 121.999 6.61862 121.884 6.78207C121.769 6.94553 121.66 7.0748 121.558 7.1699C121.405 7.31255 121.213 7.42474 120.983 7.50647C120.753 7.5882 120.526 7.62906 120.303 7.62906C120.152 7.62906 119.988 7.62312 119.809 7.61123C119.63 7.59934 119.517 7.59043 119.469 7.58448V6.11786H119.536C119.568 6.12083 119.599 6.1238 119.629 6.12677C119.66 6.12974 119.699 6.13123 119.747 6.13123C119.827 6.13123 119.929 6.11934 120.053 6.09557C120.178 6.07179 120.272 6.03167 120.336 5.97521C120.566 5.77312 120.723 5.46033 120.808 5.03683C120.893 4.61334 120.957 4.00188 121.002 3.20244C121.021 2.83689 121.033 2.5085 121.038 2.21726C121.043 1.92601 121.055 1.50252 121.074 0.946777H126.335V7.58448Z" fill="#747478"/>
<path fill-rule="evenodd" clip-rule="evenodd" d="M147.784 7.58448H146.002V3.18461L144.703 6.02424H143.481L142.183 3.18461V7.58448H140.496V0.946777H142.561L144.143 4.22328L145.719 0.946777H147.784V7.58448Z" fill="#747478"/>
<path fill-rule="evenodd" clip-rule="evenodd" d="M133.189 7.58448H131.407V5.15051H130.731L128.934 7.58448H126.807L128.934 4.834C128.497 4.65866 128.159 4.412 127.921 4.094C127.683 3.77601 127.564 3.36589 127.564 2.86364C127.564 2.52485 127.644 2.22915 127.806 1.97654C127.967 1.72392 128.172 1.51738 128.421 1.3569C128.639 1.21722 128.903 1.11395 129.214 1.04708C129.526 0.980211 129.883 0.946777 130.285 0.946777H133.189V7.58448ZM131.407 3.95581V2.16822H130.832C130.554 2.16822 130.34 2.17639 130.19 2.19274C130.039 2.20909 129.894 2.26629 129.754 2.36437C129.645 2.43866 129.562 2.53599 129.504 2.65635C129.447 2.77672 129.418 2.90971 129.418 3.05533C129.418 3.2069 129.448 3.34286 129.509 3.46322C129.57 3.58358 129.655 3.6824 129.763 3.75967C129.885 3.84882 130.027 3.9038 130.192 3.92461C130.357 3.94541 130.573 3.95581 130.841 3.95581H131.407Z" fill="#747478"/>
<path fill-rule="evenodd" clip-rule="evenodd" d="M134.404 7.58448V0.946777H139.23V2.2128H136.187V3.37629H138.99V4.64232H136.187V6.31846H139.23V7.58448H134.404Z" fill="#747478"/>
<path fill-rule="evenodd" clip-rule="evenodd" d="M104.702 12.8012C104.702 13.1103 104.65 13.4045 104.544 13.6839C104.439 13.9632 104.287 14.1965 104.089 14.3838C103.968 14.4997 103.834 14.6067 103.689 14.7047C103.543 14.8028 103.383 14.886 103.207 14.9544C103.032 15.0227 102.841 15.0762 102.635 15.1148C102.429 15.1535 102.198 15.1728 101.942 15.1728H101.003V17.3438H99.2109V10.7061H101.981C102.393 10.7061 102.748 10.741 103.047 10.8108C103.345 10.8807 103.616 10.9914 103.859 11.1429C104.127 11.3093 104.335 11.5315 104.482 11.8094C104.629 12.0872 104.702 12.4179 104.702 12.8012ZM102.862 12.8414C102.862 12.6541 102.814 12.4929 102.718 12.3577C102.623 12.2225 102.508 12.1296 102.373 12.0791C102.204 12.0107 102.042 11.9713 101.887 11.9609C101.732 11.9505 101.522 11.9453 101.257 11.9453H101.003V13.9335H101.128C101.297 13.9335 101.457 13.932 101.607 13.9291C101.757 13.9261 101.888 13.9157 102 13.8979C102.096 13.883 102.197 13.854 102.304 13.8109C102.411 13.7678 102.493 13.7195 102.551 13.6661C102.672 13.5561 102.754 13.4417 102.798 13.3228C102.841 13.2039 102.862 13.0434 102.862 12.8414Z" fill="#747478"/>
<path fill-rule="evenodd" clip-rule="evenodd" d="M111.664 17.3438H109.872V14.4016H107.433V17.3438H105.641V10.7061H107.433V13.1356H109.872V10.7061H111.664V17.3438Z" fill="#747478"/>
<path fill-rule="evenodd" clip-rule="evenodd" d="M128.045 17.3436H126.282V12.9705L123.541 17.3436H121.883V10.7059H123.646V14.66L126.181 10.7059H128.045V17.3436ZM127.503 8.51709C127.5 9.05203 127.293 9.47998 126.883 9.80094C126.472 10.1219 125.836 10.2824 124.973 10.2824C124.127 10.2824 123.494 10.1197 123.076 9.79426C122.657 9.46883 122.447 9.04312 122.443 8.51709H124.015C124.022 8.84103 124.095 9.07655 124.236 9.22366C124.376 9.37076 124.622 9.44432 124.973 9.44432C125.325 9.44432 125.571 9.37002 125.711 9.22143C125.852 9.07283 125.925 8.83806 125.932 8.51709H127.503Z" fill="#747478"/>
<path fill-rule="evenodd" clip-rule="evenodd" d="M118.374 15.2218C118.374 15.5458 118.307 15.8437 118.175 16.1156C118.042 16.3876 117.861 16.6097 117.631 16.7821C117.356 16.9871 117.06 17.132 116.742 17.2167C116.424 17.3014 116.037 17.3438 115.58 17.3438H112.748V10.7061H114.535V13.198H115.609C116.027 13.198 116.406 13.2255 116.744 13.2804C117.083 13.3354 117.391 13.464 117.669 13.6661C117.915 13.8444 118.094 14.068 118.206 14.337C118.318 14.6059 118.374 14.9009 118.374 15.2218ZM116.524 15.2709C116.524 15.1609 116.511 15.0569 116.486 14.9588C116.46 14.8607 116.404 14.7701 116.318 14.6869C116.232 14.6037 116.113 14.539 115.963 14.493C115.813 14.4469 115.606 14.4239 115.34 14.4239H114.535V16.1134H115.34C115.705 16.1134 115.993 16.0413 116.205 15.8972C116.418 15.7531 116.524 15.5443 116.524 15.2709ZM120.698 17.3438H118.905V10.7061H120.698V17.3438Z" fill="#747478"/>
<path fill-rule="evenodd" clip-rule="evenodd" d="M136.508 11.9721H133.489V17.3438H131.697V10.7061H136.508V11.9721Z" fill="#747478"/>
<path fill-rule="evenodd" clip-rule="evenodd" d="M142.941 12.8012C142.941 13.1103 142.888 13.4045 142.782 13.6839C142.677 13.9632 142.525 14.1965 142.327 14.3838C142.206 14.4997 142.072 14.6067 141.927 14.7047C141.782 14.8028 141.621 14.886 141.446 14.9544C141.27 15.0227 141.079 15.0762 140.873 15.1148C140.667 15.1535 140.436 15.1728 140.181 15.1728H139.241V17.3438H137.449V10.7061H140.219C140.631 10.7061 140.986 10.741 141.285 10.8108C141.584 10.8807 141.854 10.9914 142.097 11.1429C142.366 11.3093 142.573 11.5315 142.72 11.8094C142.867 12.0872 142.941 12.4179 142.941 12.8012ZM141.101 12.8414C141.101 12.6541 141.053 12.4929 140.957 12.3577C140.861 12.2225 140.746 12.1296 140.612 12.0791C140.442 12.0107 140.28 11.9713 140.125 11.9609C139.97 11.9505 139.76 11.9453 139.495 11.9453H139.241V13.9335H139.366C139.535 13.9335 139.695 13.932 139.845 13.9291C139.995 13.9261 140.126 13.9157 140.238 13.8979C140.334 13.883 140.435 13.854 140.542 13.8109C140.649 13.7678 140.732 13.7195 140.789 13.6661C140.91 13.5561 140.993 13.4417 141.036 13.3228C141.079 13.2039 141.101 13.0434 141.101 12.8414Z" fill="#747478"/>
<path fill-rule="evenodd" clip-rule="evenodd" d="M149.773 10.7061L147.391 16.0153C147.251 16.3244 147.093 16.5681 146.919 16.7464C146.745 16.9247 146.562 17.0599 146.37 17.1521C146.179 17.2442 145.987 17.3059 145.795 17.3371C145.604 17.3683 145.403 17.3839 145.192 17.3839C144.971 17.3839 144.715 17.3794 144.423 17.3705C144.13 17.3616 143.935 17.3527 143.836 17.3438V15.9351H143.946C143.975 15.941 144.019 15.9485 144.08 15.9574C144.141 15.9663 144.217 15.9752 144.31 15.9841C144.387 15.9901 144.47 15.996 144.559 16.002C144.649 16.0079 144.73 16.0109 144.804 16.0109C145.018 16.0109 145.22 15.9864 145.41 15.9373C145.6 15.8883 145.727 15.8043 145.791 15.6854L143.15 10.7061H145.086L146.615 13.8176L147.909 10.7061H149.773Z" fill="#747478"/>
<path fill-rule="evenodd" clip-rule="evenodd" d="M155.262 14.2009C155.422 14.3287 155.55 14.4869 155.646 14.6756C155.742 14.8643 155.79 15.0939 155.79 15.3644C155.79 16.0271 155.516 16.5442 154.968 16.9157C154.42 17.2872 153.633 17.4729 152.608 17.4729C152.141 17.4729 151.697 17.4343 151.273 17.357C150.85 17.2797 150.463 17.1742 150.111 17.0405V15.5561H150.274C150.514 15.7106 150.829 15.8614 151.221 16.0085C151.612 16.1556 151.994 16.2292 152.368 16.2292C152.851 16.2292 153.234 16.1489 153.518 15.9885C153.803 15.828 153.945 15.5813 153.945 15.2485C153.945 14.9602 153.841 14.747 153.633 14.6088C153.426 14.4706 153.052 14.4015 152.512 14.4015H151.487V13.2157H152.464C152.911 13.2157 153.239 13.1525 153.446 13.0262C153.654 12.8999 153.758 12.7105 153.758 12.4579C153.758 12.235 153.644 12.073 153.415 11.972C153.187 11.8709 152.883 11.8204 152.502 11.8204C152.288 11.8204 152.085 11.8412 151.891 11.8828C151.698 11.9244 151.509 11.9764 151.324 12.0388C151.151 12.0983 150.992 12.1636 150.847 12.235C150.702 12.3063 150.591 12.3598 150.514 12.3955H150.346V11.0135C150.554 10.9333 150.893 10.8404 151.364 10.7349C151.836 10.6294 152.33 10.5767 152.847 10.5767C153.767 10.5767 154.456 10.7186 154.913 11.0024C155.369 11.2862 155.598 11.6807 155.598 12.1859C155.598 12.5634 155.472 12.8888 155.222 13.1622C154.971 13.4356 154.648 13.6184 154.251 13.7105V13.7774C154.398 13.8012 154.569 13.8502 154.764 13.9245C154.959 13.9988 155.125 14.0909 155.262 14.2009Z" fill="#747478"/>
<path fill-rule="evenodd" clip-rule="evenodd" d="M66.6641 0.9735C67.6895 0.834266 68.7611 0.764648 69.8788 0.764648C70.9965 0.764648 72.0681 0.834266 73.0936 0.9735V6.01054H66.6641V0.9735Z" fill="#747478"/>
<path fill-rule="evenodd" clip-rule="evenodd" d="M66.6641 17.4498C67.6895 17.5891 68.7611 17.6587 69.8788 17.6587C70.9965 17.6587 72.0681 17.5891 73.0936 17.4498V12.4128H66.6641V17.4498Z" fill="#747478"/>
<path fill-rule="evenodd" clip-rule="evenodd" d="M43.6172 1.1543V17.3152H49.7125V11.1202H52.0185L57.0823 17.3152H64.6369L57.0823 8.73998L64.2934 1.1543H57.0823L52.0185 7.10913H49.7125V1.1543H43.6172Z" fill="#747478"/>
<path fill-rule="evenodd" clip-rule="evenodd" d="M22.0371 1.08283L22.836 5.36173C25.5555 5.1912 27.8119 5.10594 29.6052 5.10594C31.3984 5.10594 33.1776 5.1912 34.9426 5.36173L35.2501 7.01163H27.2144V11.2653H35.2501L34.9426 13.1165C33.4043 13.2369 31.549 13.2971 29.3765 13.2971C27.204 13.2971 25.0238 13.2369 22.836 13.1165L22.0371 17.2839C25.2743 17.4479 28.3012 17.5299 31.1178 17.5299C33.9344 17.5299 36.7326 17.4479 39.5125 17.2839C40.5431 14.7019 41.0584 12.0546 41.0584 9.342C41.0584 6.62939 40.5431 3.87633 39.5125 1.08283C37.3665 0.933208 34.7177 0.858398 31.5661 0.858398C28.4145 0.858398 25.2382 0.933208 22.0371 1.08283Z" fill="#747478"/>
<path fill-rule="evenodd" clip-rule="evenodd" d="M0.203125 1.14551V17.2566H6.43237V5.6062H13.5898V17.2566H19.8783V1.14551H0.203125Z" fill="#747478"/>
</svg>
