<svg width="444" height="145" viewBox="0 0 444 145" fill="none" xmlns="http://www.w3.org/2000/svg">
<g clip-path="url(#clip0_145_2318)">
<path d="M52.3172 140.27V108.546H40.8066V101.033H73.6248V108.546H62.1141V140.27H52.3172Z" fill="#747478"/>
<path d="M114 120.686C114.054 124.112 113.237 127.495 111.625 130.512C110.206 133.206 108.136 135.494 105.607 137.167C103.615 138.477 101.371 139.344 99.0215 139.712C96.5074 140.099 93.9672 140.285 91.4242 140.27H79.2793V101.02H91.4242C93.9885 101.008 96.5503 101.185 99.089 101.55C101.497 101.894 103.8 102.768 105.836 104.109C108.397 105.762 110.486 108.061 111.895 110.778C113.438 113.839 114.203 117.239 114.122 120.672V120.672L114 120.686ZM103.906 120.604C103.95 118.326 103.489 116.066 102.557 113.99C101.684 112.166 100.269 110.663 98.5087 109.689C97.2672 108.982 95.8832 108.568 94.4604 108.478C93.0165 108.41 91.2892 108.383 89.2651 108.383H89.0627V132.88H89.2381C91.4242 132.88 93.2864 132.88 94.7708 132.771C96.2929 132.694 97.7701 132.226 99.062 131.41C100.655 130.398 101.917 128.936 102.692 127.205C103.578 125.123 103.993 122.868 103.906 120.604V120.604Z" fill="#747478"/>
<path fill-rule="evenodd" clip-rule="evenodd" d="M20.8215 99.6587C25.8962 99.6533 30.7973 101.522 34.5992 104.912L28.4727 111.908C26.84 110.455 24.8338 109.497 22.685 109.143C20.5362 108.789 18.332 109.054 16.326 109.908C14.32 110.762 12.5937 112.169 11.3458 113.969C10.0978 115.768 9.37879 117.886 9.27152 120.079C9.16426 122.273 9.67306 124.452 10.7394 126.366C11.8057 128.281 13.3863 129.853 15.2992 130.902C17.2122 131.95 19.3798 132.433 21.5527 132.294C23.7256 132.156 25.8156 131.401 27.5821 130.118V125.694H20.835V117.801H36.0161V135.044C33.6526 137.579 30.7016 139.482 27.4283 140.582C24.155 141.682 20.6621 141.944 17.2634 141.345C13.8647 140.746 10.6669 139.305 7.95731 137.151C5.24773 134.997 3.11137 132.197 1.74024 129.004C0.369118 125.811 -0.19379 122.324 0.102118 118.858C0.398027 115.391 1.54348 112.052 3.4355 109.143C5.32753 106.233 7.90683 103.843 10.9416 102.187C13.9763 100.532 17.3713 99.663 20.8215 99.6587V99.6587Z" fill="#747478"/>
</g>
<g clip-path="url(#clip1_145_2318)">
<path fill-rule="evenodd" clip-rule="evenodd" d="M402.159 69.4737C388.184 75.6792 376.584 83.925 366.453 94.8747C364.968 96.4813 364.946 96.5161 365.025 97.1975C365.069 97.573 365.223 98.8873 365.36 100.116C366.911 113.594 371.734 127.689 379.059 140.141C380.222 142.111 379.825 141.897 383.637 142.657C397.426 145.337 411.622 145.337 425.411 142.657C429.324 141.883 428.886 142.129 430.122 140.029C437.842 126.907 442.637 112.212 443.884 97.844L443.999 96.5297L443.259 95.6896C433.752 84.8734 420.12 75.1063 406.471 69.3188C404.349 68.4187 404.555 68.411 402.159 69.4737V69.4737ZM409.189 73.672C420.777 79.295 429.368 85.5064 438.695 95.0006L441.046 97.3949L440.946 98.5853C439.943 110.693 434.97 125.99 428.335 137.379C427.002 139.665 427.41 139.388 424.566 139.936C411.275 142.483 398.231 142.477 384.613 139.92L381.949 139.421L381.219 138.203C374.773 127.451 370.038 113.544 368.367 100.459C367.919 96.9555 367.562 97.6562 372.063 93.2411C380.966 84.5076 390.431 77.9381 401.423 72.8726C404.761 71.3241 404.237 71.2777 409.189 73.6797V73.672ZM402.895 85.2605C402.895 85.7812 402.93 85.8199 403.41 85.8199H403.926L403.837 87.6955C403.726 90.0415 403.063 92.25 402.448 92.341C402.093 92.3913 402.079 92.4533 402.079 94.0579V95.7129H403.878V93.634L405.965 93.6785L408.05 93.723L407.998 94.7218L407.945 95.7187H409.768V92.5481L409.319 92.4978L408.869 92.4455L408.814 89.9718C408.742 86.4316 408.835 85.8219 409.446 85.8219C409.885 85.8219 409.926 85.7735 409.926 85.2625V84.7031H402.895V85.2605ZM392.715 86.2864L392.179 86.7529L392.229 88.3478C392.274 89.8479 392.254 89.9563 391.907 90.1944C391.453 90.5041 391.376 90.4286 391.05 89.3427C390.713 88.224 390.721 88.1098 391.132 88.0033C391.445 87.9239 391.477 87.1071 391.179 86.7897C391.034 86.6368 387.845 87.6239 387.845 87.8233C387.845 88.4175 388.152 88.8124 388.557 88.7369C389.039 88.6459 389.848 90.6977 389.434 90.9629C388.956 91.2668 388.573 90.9938 388.007 89.9467C387.117 88.2956 386.42 87.8175 385.405 88.1291C384.857 88.2995 384.907 89.484 385.46 89.484C385.948 89.484 386.341 89.8499 386.651 90.5951C386.96 91.3403 387.486 91.8784 387.867 91.8784C388.031 91.8784 388.166 91.95 388.166 92.0371C388.168 92.0771 388.154 92.1162 388.127 92.1463C388.1 92.1763 388.062 92.1948 388.021 92.1978C387.682 92.1978 387.468 93.1888 387.571 94.2863C387.674 95.3509 387.658 95.4206 387.246 95.7922L386.815 96.1793L387.246 96.731C387.728 97.3485 388.297 97.3117 388.928 96.6342C389.235 96.3013 389.305 94.6541 389.069 93.3669C388.965 92.8094 389.289 92.3526 389.789 92.3526C390.465 92.3526 390.925 95.0509 390.251 95.0625C390.08 95.0625 390.102 95.7342 390.283 96.0129C390.586 96.4794 393.75 95.4496 393.621 94.9251C393.472 94.3115 393.423 94.267 392.935 94.267C392.522 94.267 392.465 94.1857 392.207 93.2411C392.054 92.6759 391.883 92.1049 391.832 91.9694C391.699 91.6345 392.494 91.4429 392.843 91.7255C392.986 91.8397 393.389 92.4997 393.738 93.1675C394.46 94.5689 394.845 94.9096 395.734 94.9096C396.392 94.9096 396.43 94.8651 396.565 93.9205C396.646 93.3572 396.628 93.3282 396.136 93.2817C395.694 93.2391 395.541 93.0882 395.025 92.1958C394.629 91.5048 394.232 91.05 393.849 90.8409C393.308 90.5409 393.284 90.4964 393.512 90.2022C393.696 89.9641 393.738 89.5905 393.683 88.7001C393.615 87.6007 393.639 87.4884 394.01 87.1516C394.381 86.8148 394.407 86.7839 394.117 86.3019C393.746 85.6902 393.389 85.6864 392.709 86.2806L392.715 86.2864ZM406.949 89.1318L406.903 92.2849L406.423 92.3371C406.033 92.3632 405.642 92.3476 405.255 92.2907L404.569 92.19L404.878 91.3926C405.196 90.5815 405.505 88.3343 405.511 86.8168V85.9806H406.991L406.949 89.1318ZM418.488 86.4509C418.264 86.5438 418.065 86.8381 417.964 87.2078C417.522 88.853 417.494 88.7563 418.46 88.9324C419.043 89.0389 419.055 89.0311 419.275 88.3517C419.751 86.8845 421.804 88.0943 421.779 89.8247C421.763 90.9203 421.713 90.9319 419.478 90.3551C419.188 90.2815 419.093 90.3551 418.934 90.8351C418.682 91.5803 418.736 91.6481 419.882 91.8842C421.293 92.1765 421.324 92.2094 420.997 93.0456C420.303 94.8225 417.323 95.4651 417.714 93.754C417.913 92.8811 417.883 92.7998 417.317 92.6527C416.524 92.4436 416.389 92.552 416.155 93.6205C415.885 94.8631 415.957 95.0102 417.089 95.527C418.359 96.1077 420.136 96.131 421.19 95.587C423.461 94.4257 424.334 89.2363 422.556 87.4807C421.711 86.6464 419.418 86.0677 418.492 86.4529L418.488 86.4509ZM398.324 92.3584C398.103 92.6014 397.982 92.9162 397.986 93.2413C397.99 93.5664 398.119 93.8784 398.346 94.116C399.429 95.1012 401.201 93.7018 400.33 92.552C399.893 91.9713 398.824 91.8765 398.33 92.3584H398.324ZM411.95 92.6159C411.611 92.9469 411.553 93.1249 411.63 93.5334C411.93 95.0431 414.183 94.9347 414.183 93.4095C414.183 92.2752 412.795 91.7836 411.95 92.6159V92.6159ZM373.612 99.197C373.747 99.2783 380.753 102.271 389.194 105.846L404.531 112.359L420.067 105.778C428.612 102.153 435.589 99.1699 435.569 99.1505C435.549 99.1312 434.484 99.2879 433.204 99.4989C426.99 100.525 419.071 101.516 413.285 101.996C411.839 102.116 408.242 102.189 404.531 102.189C398.003 102.189 396.14 102.089 389.654 101.384C385.028 100.881 376.135 99.6267 373.811 99.1505C373.503 99.0866 373.448 99.1041 373.612 99.2086V99.197ZM393.435 125.676C387.39 132.921 382.449 138.877 382.477 138.902C382.505 138.927 387.424 135.691 393.407 131.71C399.389 127.728 404.38 124.466 404.497 124.463C404.67 124.463 409.756 127.796 425.92 138.534C426.301 138.788 426.615 138.96 426.615 138.922C426.615 138.804 404.7 112.57 404.561 112.524C404.493 112.5 399.487 118.418 393.433 125.67" fill="#747478"/>
</g>
<g clip-path="url(#clip2_145_2318)">
<path fill-rule="evenodd" clip-rule="evenodd" d="M196.964 132.478C192.446 132.478 190.389 133.728 189.578 136.345L187 144.659H274.823C279.342 144.659 281.399 143.409 282.21 140.792L284.788 132.478H196.964ZM207.537 120.88H203.192C196.414 120.88 201.338 106.432 207.044 106.432H213.909C215.01 106.432 216.95 106.635 217.906 103.903L219.383 99.6587H209.97C204.872 99.6587 200.903 101.461 198.036 104.484C193.083 109.659 191.403 117.731 192.59 121.606C193.72 125.182 196.79 127.537 201.599 127.595L205.335 127.624H209.941L211.07 124.223C211.91 121.81 210.028 120.88 207.537 120.88V120.88ZM260.428 114.891L261.847 110.269H246.698C244.178 110.269 243.048 110.967 242.614 112.42L241.194 117.042H256.343C258.863 117.042 259.993 116.345 260.428 114.891V114.891ZM238.935 123.031L237.516 127.653H252.665C255.156 127.653 256.314 126.955 256.749 125.502L258.168 120.88H243.019C240.528 120.88 239.399 121.577 238.935 123.031V123.031ZM263.961 104.31L265.381 99.6878H250.232C247.712 99.6878 246.582 100.385 246.148 101.839L244.728 106.461H259.877C262.368 106.461 263.498 105.763 263.961 104.31ZM241.079 105.24C240.441 100.938 238.153 99.6878 232.592 99.6878H222.454L216.545 117.042H220.281C222.512 117.042 223.641 117.071 224.829 113.874L227.291 106.432H231.057C234.272 106.432 233.548 110.473 231.926 114.397C230.477 117.856 227.957 120.909 224.916 120.909H218.63C216.11 120.909 214.952 121.606 214.488 123.06L212.924 127.682H217.53L222.048 127.653C226.046 127.624 229.319 127.333 233.142 123.874C237.197 120.182 241.89 110.705 241.079 105.24V105.24ZM292 99.6587H283.223L274.968 108.467C274.012 109.484 273.028 110.502 272.072 111.694H271.985L276.098 99.6587H268.943L259.298 127.653H266.452L269.523 118.845L272.709 116.141L275.229 124.106C276.011 126.577 276.822 127.653 278.56 127.653H284.034L278.415 112.013L292 99.6587V99.6587Z" fill="#747478"/>
<path d="M196.558 139.397V141.693H195.283V135.327H197.803C198.422 135.285 199.034 135.483 199.512 135.88C199.718 136.067 199.881 136.296 199.991 136.552C200.101 136.807 200.155 137.084 200.149 137.362C200.161 137.641 200.11 137.92 200 138.176C199.889 138.433 199.723 138.662 199.512 138.845C199.034 139.241 198.422 139.439 197.803 139.397H196.558ZM196.558 138.409H197.803C197.951 138.419 198.099 138.398 198.239 138.348C198.379 138.298 198.506 138.22 198.614 138.118C198.789 137.917 198.882 137.658 198.875 137.391C198.887 137.115 198.794 136.845 198.614 136.635C198.508 136.531 198.38 136.451 198.24 136.401C198.1 136.351 197.951 136.332 197.803 136.345H196.558V138.409ZM203.77 140.327H201.54L201.105 141.693H199.831L202.003 135.327H203.307L205.479 141.693H204.205L203.77 140.327ZM201.858 139.31H203.451L202.669 136.81H202.64L201.858 139.31ZM210.143 136.316H207.333V137.566H208.434C209.064 137.538 209.683 137.745 210.171 138.147C210.373 138.337 210.534 138.567 210.644 138.822C210.754 139.077 210.81 139.352 210.81 139.63C210.81 139.907 210.754 140.182 210.644 140.437C210.534 140.692 210.373 140.922 210.171 141.112C209.683 141.514 209.064 141.721 208.434 141.693H206V135.327H210.143V136.316ZM207.333 138.554V140.696H208.434C208.584 140.705 208.734 140.681 208.874 140.625C209.014 140.57 209.14 140.485 209.245 140.377C209.433 140.159 209.536 139.88 209.534 139.592C209.539 139.453 209.516 139.314 209.467 139.184C209.417 139.054 209.341 138.936 209.245 138.836C209.139 138.729 209.012 138.646 208.872 138.591C208.733 138.536 208.583 138.511 208.434 138.516H207.333V138.554ZM216.776 139.077C216.789 139.434 216.732 139.789 216.608 140.124C216.483 140.458 216.294 140.764 216.051 141.025C215.805 141.28 215.507 141.48 215.177 141.61C214.847 141.74 214.494 141.799 214.14 141.781C213.787 141.791 213.435 141.73 213.107 141.6C212.778 141.47 212.479 141.274 212.228 141.025C211.983 140.766 211.792 140.46 211.668 140.125C211.544 139.79 211.488 139.434 211.504 139.077V137.943C211.49 137.587 211.547 137.231 211.672 136.897C211.796 136.563 211.985 136.256 212.228 135.996C212.475 135.74 212.773 135.541 213.103 135.411C213.432 135.28 213.786 135.222 214.14 135.24C214.493 135.229 214.844 135.291 215.173 135.421C215.502 135.551 215.8 135.746 216.051 135.996C216.301 136.253 216.496 136.558 216.625 136.893C216.755 137.227 216.816 137.585 216.805 137.943V139.077H216.776ZM215.501 137.943C215.523 137.505 215.39 137.072 215.125 136.723C215.005 136.569 214.851 136.447 214.674 136.366C214.498 136.285 214.305 136.248 214.111 136.257C213.917 136.245 213.722 136.281 213.545 136.362C213.369 136.443 213.214 136.567 213.097 136.723C212.854 137.082 212.733 137.51 212.749 137.943V139.106C212.727 139.541 212.85 139.97 213.097 140.327C213.223 140.473 213.379 140.59 213.553 140.67C213.728 140.751 213.918 140.792 214.111 140.792C214.303 140.792 214.493 140.751 214.668 140.67C214.843 140.59 214.999 140.473 215.125 140.327C215.377 139.971 215.51 139.543 215.501 139.106V137.943ZM221.989 136.316H220.194V141.693H218.919V136.316H217.123V135.327H221.96V136.316H221.989ZM225.668 140.327H223.438L223.003 141.693H221.729L223.901 135.327H225.205L227.377 141.693H226.103L225.668 140.327ZM223.756 139.31H225.349L224.567 136.81H224.538L223.756 139.31ZM231.896 138.903H229.26V140.696H232.33V141.685H227.985V135.318H232.33V136.307H229.26V137.906H231.896V138.894V138.903ZM234.763 135.327L236.385 140.007H236.414L238.036 135.327H239.687V141.693H238.413V139.804L238.529 136.984H238.5L236.791 141.693H235.951L234.271 137.013H234.242L234.358 139.804V141.693H233.083V135.327H234.763ZM243.105 141.693V135.327H245.249C245.859 135.289 246.466 135.441 246.987 135.763C247.193 135.911 247.36 136.107 247.471 136.336C247.582 136.564 247.635 136.817 247.624 137.071C247.623 137.35 247.543 137.622 247.392 137.856C247.232 138.098 246.998 138.281 246.726 138.38C247.063 138.437 247.368 138.617 247.581 138.885C247.795 139.153 247.903 139.49 247.885 139.833C247.901 140.097 247.854 140.362 247.748 140.604C247.643 140.847 247.481 141.061 247.276 141.228C246.871 141.548 246.32 141.693 245.567 141.693H243.105ZM244.38 138.002H245.307C245.583 138.026 245.859 137.954 246.089 137.798C246.176 137.723 246.245 137.629 246.29 137.523C246.335 137.418 246.356 137.303 246.349 137.188C246.363 137.065 246.344 136.94 246.293 136.828C246.242 136.715 246.161 136.618 246.06 136.548C245.819 136.392 245.534 136.32 245.249 136.345H244.38V138.002V138.002ZM244.38 138.874V140.696H245.538C245.818 140.708 246.093 140.626 246.32 140.464C246.413 140.387 246.486 140.289 246.531 140.177C246.577 140.065 246.594 139.944 246.581 139.824C246.594 139.562 246.512 139.304 246.349 139.098C246.254 139.006 246.139 138.938 246.014 138.898C245.889 138.857 245.756 138.846 245.625 138.865L244.38 138.874ZM253.62 139.513C253.649 139.818 253.609 140.125 253.504 140.411C253.399 140.698 253.23 140.958 253.011 141.17C252.516 141.603 251.871 141.822 251.216 141.781C250.873 141.797 250.531 141.74 250.212 141.615C249.892 141.49 249.603 141.299 249.362 141.054C248.884 140.543 248.624 139.865 248.638 139.164V137.914C248.623 137.569 248.678 137.224 248.797 136.9C248.916 136.575 249.098 136.278 249.333 136.025C249.566 135.776 249.85 135.58 250.164 135.45C250.479 135.32 250.818 135.258 251.158 135.269C251.822 135.228 252.476 135.447 252.983 135.88C253.206 136.09 253.379 136.348 253.489 136.635C253.6 136.922 253.644 137.23 253.62 137.536V137.566H252.374C252.399 137.221 252.295 136.879 252.085 136.606C251.963 136.488 251.817 136.398 251.656 136.343C251.496 136.288 251.326 136.269 251.158 136.286C250.98 136.278 250.804 136.316 250.646 136.398C250.489 136.479 250.355 136.601 250.26 136.752C250.016 137.1 249.894 137.519 249.912 137.943V139.223C249.894 139.647 250.016 140.066 250.26 140.414C250.367 140.566 250.511 140.688 250.678 140.77C250.845 140.851 251.03 140.889 251.216 140.88C251.375 140.893 251.535 140.872 251.685 140.816C251.836 140.761 251.972 140.674 252.085 140.56C252.193 140.427 252.275 140.274 252.325 140.109C252.374 139.944 252.391 139.772 252.374 139.6H253.62V139.513ZM258.428 138.903H255.792V140.696H258.863V141.685H254.518V135.318H258.863V136.307H255.792V137.906H258.428V138.903ZM263.787 136.316H260.919V141.693H259.645V135.327H263.787V136.316ZM269.667 143.263H268.508V141.693H264.627V143.263H263.468L263.381 140.705H263.874C264.148 140.448 264.356 140.129 264.482 139.775C264.682 139.175 264.78 138.546 264.771 137.914L264.945 135.298H269.058V140.676H269.811L269.667 143.263V143.263ZM265.988 137.943C265.968 138.493 265.891 139.038 265.756 139.571C265.662 139.976 265.495 140.36 265.264 140.705H267.755V136.316H266.104L265.988 137.943V137.943ZM273.983 140.327H271.752L271.318 141.693H270.043L272.216 135.327H273.519L275.691 141.693H274.417L273.983 140.327V140.327ZM272.071 139.31H273.664L272.882 136.81H272.853L272.071 139.31ZM277.545 139.484H276.271V135.327H277.545V139.484ZM277.545 141.693H276.271V140.589H277.545V141.693Z" fill="#15151D"/>
</g>
<path d="M191.674 29.8502V21.1459H188.439V34.664H191.171L198.946 25.8832V34.664H202.17V21.1459H199.438L191.674 29.8502ZM226.31 29.9266V21.1459H223.081V34.664H225.813L233.599 25.8122V34.664H236.834V21.1459H233.971L226.31 29.9266ZM216.175 26.3969H209.071V21.1459H205.842V34.664H209.071V29.3748H216.175V34.664H219.409V21.1459H216.175V26.3969ZM176.8 21.1459L169.047 34.664H172.872L177.981 25.7357L183.122 34.664H187.128L179.369 21.1459H176.8ZM251.369 21.1459L243.719 29.9266V21.1459H240.49V34.664H243.222L251.008 25.8122V34.664H254.243V21.1459H251.369ZM172.828 21.1459H157.769V24.1183H171.107L172.828 21.1459ZM157.769 26.3969V29.3748H168.091L169.817 26.3969H157.769ZM86.3592 21.1459H71.3002V24.1183H84.6325L86.3592 21.1459ZM59.2793 18.168H56.6347L48.8866 31.6861H46.9414V38.6309H50.0231V34.664H65.8689V38.6309H68.9561V31.6861H67.0109L59.2793 18.168ZM52.7224 31.6861L57.8313 22.7633L62.973 31.6861H52.7224ZM108.789 20.8126C103.385 20.8126 100.817 24.091 100.817 27.8284C100.817 31.6861 103.314 34.8498 108.789 34.8498C111.177 34.8498 116.685 33.757 116.685 27.8284C116.701 23.9708 114.242 20.8126 108.806 20.8126H108.789ZM108.751 31.8719C105.631 31.8719 104.303 30.0687 104.303 27.8667C104.303 25.4406 105.811 23.8287 108.751 23.8287C112.057 23.8287 113.193 25.468 113.193 27.8667C113.21 30.7681 111.046 31.8719 108.767 31.8719H108.751ZM90.3261 21.1459L82.5781 34.664H86.4029L91.5063 25.7357L96.648 34.664H100.653L92.8888 21.1459H90.3261ZM150.901 34.664H154.086V21.1459H150.89L150.901 34.664ZM144.797 25.9925H139.88V21.1459H136.65V34.664H144.797C146.983 34.664 149.278 33.451 149.278 30.2545C149.251 26.069 146.311 25.9925 144.797 25.9925ZM144.612 31.8008H139.88V28.7847H144.617C145.164 28.7847 146.016 28.9322 146.016 30.2927C146.016 31.5385 145.344 31.8008 144.617 31.8008H144.612ZM71.2948 26.3969V29.3748H81.6164L83.343 26.3969H71.2948ZM157.764 34.664H165.075L166.768 31.6861H157.769L157.764 34.664ZM130.837 26.7028C131.336 26.5375 131.764 26.2085 132.053 25.7691C132.341 25.3298 132.473 24.8059 132.427 24.2823C132.427 21.4901 130.072 21.1623 128.422 21.1623H119.663V34.6804H128.569C132.645 34.6804 133.487 32.4401 133.487 30.3802C133.487 28.047 132.175 27.0908 130.837 26.7028ZM122.876 24.0255H128.05C128.82 24.0255 129.143 24.4298 129.143 25.2002C129.16 25.3535 129.144 25.5086 129.097 25.6554C129.05 25.8022 128.972 25.9373 128.869 26.0519C128.765 26.1665 128.639 26.2579 128.498 26.3202C128.357 26.3825 128.204 26.4142 128.05 26.4133H122.876V24.0255ZM128.569 31.8172H122.876V28.8885H128.569C129.487 28.8885 130.148 29.1125 130.148 30.3255C130.148 31.2817 129.744 31.8008 128.569 31.8008V31.8172ZM71.3002 34.6804H78.6057L80.2995 31.7025H71.3002V34.6804Z" fill="#747478"/>
<path d="M25.091 24.4736L11.6494 14.5016L8.37095 20.1897L23.7305 26.834L25.091 24.4736ZM27.1564 20.9001L15.6382 7.57866L12.3597 13.223L25.7959 23.2004L27.1564 20.9001ZM29.6262 16.6217L20.0258 0L16.3922 6.27822L27.9214 19.5996L29.6262 16.6217ZM3.62268 28.4186L0 34.6859H19.1953L20.9001 31.7353L3.62268 28.4186ZM20.8618 34.6859H25.9707L30.4567 26.9105L34.97 34.6859H40.0735L30.4567 18.0642L20.8618 34.6859ZM23.0037 28.0908L7.6497 21.4465L4.37125 27.0908L21.6486 30.413L23.0037 28.0908Z" fill="#747478"/>
<g clip-path="url(#clip3_145_2318)">
<path fill-rule="evenodd" clip-rule="evenodd" d="M385.264 31.0271C385.264 32.1 384.956 32.944 384.339 33.5592C383.723 34.1744 382.878 34.482 381.804 34.482C380.728 34.482 379.883 34.1707 379.27 33.548C378.656 32.9254 378.35 32.0851 378.35 31.0271C378.35 29.9602 378.656 29.117 379.27 28.4973C379.883 27.8777 380.728 27.5679 381.804 27.5679C382.878 27.5679 383.723 27.8762 384.339 28.4929C384.956 29.1095 385.264 29.9543 385.264 31.0271ZM383.414 31.0227C383.414 30.6274 383.371 30.2909 383.283 30.013C383.195 29.7351 383.077 29.507 382.931 29.3287C382.777 29.1474 382.604 29.0174 382.411 28.9387C382.217 28.8599 382.017 28.8205 381.809 28.8205C381.589 28.8205 381.389 28.8569 381.21 28.9297C381.031 29.0025 380.859 29.1326 380.693 29.3198C380.546 29.4922 380.427 29.721 380.336 30.0063C380.245 30.2916 380.199 30.6319 380.199 31.0271C380.199 31.4343 380.242 31.7723 380.329 32.0413C380.415 32.3103 380.533 32.5354 380.683 32.7167C380.837 32.9009 381.011 33.0324 381.205 33.1112C381.4 33.1899 381.602 33.2293 381.809 33.2293C382.02 33.2293 382.225 33.187 382.423 33.1023C382.621 33.0176 382.792 32.8861 382.935 32.7077C383.089 32.5146 383.207 32.2895 383.29 32.0324C383.373 31.7753 383.414 31.4388 383.414 31.0227Z" fill="#747478"/>
<path fill-rule="evenodd" clip-rule="evenodd" d="M377.724 32.2218C377.724 32.5458 377.658 32.8437 377.525 33.1156C377.393 33.3876 377.211 33.6097 376.981 33.7821C376.707 33.9871 376.41 34.132 376.093 34.2167C375.775 34.3014 375.387 34.3438 374.931 34.3438H371.998V27.7061H377.183V28.9721H373.781V30.198H374.959C375.387 30.198 375.771 30.227 376.109 30.2849C376.448 30.3429 376.751 30.4699 377.02 30.6661C377.266 30.8444 377.445 31.068 377.556 31.337C377.668 31.6059 377.724 31.9009 377.724 32.2218ZM375.875 32.2709C375.875 32.1609 375.862 32.0569 375.836 31.9588C375.811 31.8607 375.755 31.7701 375.669 31.6869C375.582 31.6067 375.464 31.5428 375.314 31.4952C375.164 31.4477 374.956 31.4239 374.691 31.4239H373.781V33.1134H374.691C375.058 33.1134 375.347 33.0406 375.558 32.895C375.769 32.7493 375.875 32.5413 375.875 32.2709Z" fill="#747478"/>
<path fill-rule="evenodd" clip-rule="evenodd" d="M368.646 34.4729C367.575 34.4729 366.726 34.172 366.096 33.5702C365.467 32.9684 365.152 32.1222 365.152 31.0315C365.152 29.9794 365.468 29.1406 366.099 28.515C366.73 27.8894 367.58 27.5767 368.65 27.5767C368.935 27.5767 369.19 27.5915 369.417 27.6212C369.644 27.651 369.861 27.6926 370.069 27.7461C370.232 27.7906 370.409 27.8516 370.601 27.9288C370.792 28.0061 370.947 28.073 371.065 28.1294V29.712H370.883C370.797 29.6406 370.688 29.5552 370.557 29.4556C370.426 29.3561 370.278 29.2587 370.112 29.1636C369.946 29.0685 369.763 28.9876 369.563 28.9207C369.363 28.8538 369.155 28.8204 368.938 28.8204C368.679 28.8204 368.442 28.8583 368.226 28.9341C368.011 29.0099 367.805 29.1414 367.611 29.3286C367.432 29.498 367.285 29.7268 367.172 30.0151C367.059 30.3034 367.002 30.6436 367.002 31.0359C367.002 31.449 367.061 31.796 367.179 32.0768C367.297 32.3577 367.452 32.5843 367.644 32.7567C367.829 32.9231 368.036 33.0434 368.265 33.1177C368.493 33.192 368.721 33.2292 368.947 33.2292C369.184 33.2292 369.409 33.1928 369.623 33.12C369.837 33.0472 370.018 32.9662 370.164 32.877C370.324 32.7849 370.465 32.6913 370.586 32.5962C370.708 32.5011 370.813 32.4164 370.902 32.3421H371.065V33.9023C370.934 33.9588 370.783 34.0234 370.61 34.0962C370.438 34.169 370.26 34.2307 370.078 34.2812C369.855 34.3436 369.645 34.3912 369.451 34.4239C369.256 34.4566 368.987 34.4729 368.646 34.4729Z" fill="#747478"/>
<path fill-rule="evenodd" clip-rule="evenodd" d="M380.526 21.2679C380.526 22.3407 380.218 23.1847 379.601 23.7999C378.984 24.4151 378.14 24.7227 377.066 24.7227C375.99 24.7227 375.145 24.4114 374.531 23.7888C373.918 23.1662 373.611 22.3259 373.611 21.2679C373.611 20.201 373.918 19.3577 374.531 18.7381C375.145 18.1184 375.99 17.8086 377.066 17.8086C378.14 17.8086 378.984 18.1169 379.601 18.7336C380.218 19.3503 380.526 20.195 380.526 21.2679ZM378.676 21.2634C378.676 20.8681 378.632 20.5316 378.544 20.2537C378.457 19.9758 378.339 19.7477 378.192 19.5694C378.039 19.3881 377.866 19.2581 377.672 19.1794C377.479 19.1006 377.279 19.0612 377.071 19.0612C376.851 19.0612 376.651 19.0976 376.472 19.1705C376.293 19.2433 376.121 19.3733 375.954 19.5605C375.808 19.7329 375.689 19.9617 375.597 20.247C375.506 20.5323 375.461 20.8726 375.461 21.2679C375.461 21.675 375.504 22.0131 375.59 22.282C375.677 22.551 375.795 22.7761 375.945 22.9574C376.098 23.1416 376.272 23.2731 376.467 23.3519C376.662 23.4307 376.863 23.47 377.071 23.47C377.282 23.47 377.486 23.4277 377.684 23.343C377.882 23.2583 378.053 23.1268 378.197 22.9485C378.35 22.7553 378.469 22.5302 378.552 22.2731C378.635 22.016 378.676 21.6795 378.676 21.2634Z" fill="#747478"/>
<path fill-rule="evenodd" clip-rule="evenodd" d="M384.55 24.7136C383.48 24.7136 382.63 24.4127 382.001 23.8109C381.371 23.2091 381.057 22.3629 381.057 21.2722C381.057 20.2201 381.372 19.3813 382.003 18.7558C382.634 18.1302 383.484 17.8174 384.555 17.8174C384.839 17.8174 385.094 17.8322 385.321 17.862C385.548 17.8917 385.765 17.9333 385.973 17.9868C386.136 18.0314 386.313 18.0923 386.505 18.1696C386.697 18.2468 386.851 18.3137 386.97 18.3702V19.9527H386.788C386.701 19.8814 386.593 19.7959 386.462 19.6964C386.331 19.5968 386.182 19.4995 386.016 19.4044C385.85 19.3093 385.667 19.2283 385.467 19.1614C385.268 19.0946 385.059 19.0611 384.842 19.0611C384.583 19.0611 384.346 19.099 384.131 19.1748C383.915 19.2506 383.71 19.3821 383.515 19.5693C383.336 19.7387 383.19 19.9675 383.076 20.2558C382.963 20.5441 382.906 20.8844 382.906 21.2767C382.906 21.6898 382.965 22.0367 383.084 22.3176C383.202 22.5984 383.357 22.825 383.548 22.9974C383.734 23.1638 383.94 23.2842 384.169 23.3585C384.397 23.4328 384.625 23.4699 384.852 23.4699C385.088 23.4699 385.313 23.4335 385.527 23.3607C385.741 23.2879 385.922 23.2069 386.069 23.1177C386.229 23.0256 386.369 22.932 386.49 22.8369C386.612 22.7418 386.717 22.6571 386.807 22.5828H386.97V24.143C386.839 24.1995 386.687 24.2641 386.514 24.337C386.342 24.4098 386.165 24.4714 385.983 24.522C385.759 24.5844 385.55 24.6319 385.355 24.6646C385.16 24.6973 384.892 24.7136 384.55 24.7136Z" fill="#747478"/>
<path fill-rule="evenodd" clip-rule="evenodd" d="M373.178 26.1091H371.535V24.5622H367.548V26.1091H365.904V23.314H366.383C366.719 22.6661 366.984 21.8778 367.179 20.9491C367.374 20.0204 367.471 19.0196 367.471 17.9468H372.503V23.314H373.178V26.1091ZM370.71 23.314V19.2128H369.148C369.088 20.0152 368.968 20.7678 368.789 21.4707C368.61 22.1735 368.385 22.788 368.113 23.314H370.71Z" fill="#747478"/>
<path fill-rule="evenodd" clip-rule="evenodd" d="M389.612 24.5845V19.2128H387.504V17.9468H393.513V19.2128H391.404V24.5845H389.612Z" fill="#747478"/>
<path fill-rule="evenodd" clip-rule="evenodd" d="M392.889 24.5845L395.299 17.9468H397.254L399.664 24.5845H397.819L397.374 23.2293H395.131L394.686 24.5845H392.889ZM396.981 22.0257L396.252 19.8369L395.524 22.0257H396.981Z" fill="#747478"/>
<path fill-rule="evenodd" clip-rule="evenodd" d="M406.131 22.5517C406.131 22.8816 406.064 23.1713 405.93 23.421C405.795 23.6706 405.615 23.8772 405.388 24.0406C405.12 24.2368 404.825 24.3764 404.504 24.4597C404.183 24.5429 403.775 24.5845 403.28 24.5845H400.424V17.9468H402.944C403.468 17.9468 403.865 17.9654 404.135 18.0025C404.405 18.0396 404.658 18.1177 404.895 18.2365C405.15 18.3643 405.341 18.5352 405.467 18.7492C405.593 18.9632 405.656 19.2098 405.656 19.4892C405.656 19.8131 405.569 20.1014 405.395 20.354C405.221 20.6066 404.981 20.7924 404.674 20.9112V20.9469C405.115 21.0331 405.468 21.2092 405.733 21.4751C405.998 21.7411 406.131 22.1 406.131 22.5517ZM403.836 19.8235C403.836 19.7165 403.806 19.6066 403.747 19.4936C403.688 19.3807 403.596 19.299 403.471 19.2485C403.353 19.2009 403.213 19.1749 403.052 19.1705C402.891 19.166 402.65 19.1638 402.331 19.1638H402.206V20.568H402.432C402.738 20.568 402.953 20.565 403.076 20.5591C403.199 20.5531 403.326 20.5219 403.457 20.4654C403.601 20.403 403.7 20.3169 403.754 20.2069C403.808 20.0969 403.836 19.9691 403.836 19.8235ZM404.286 22.5205C404.286 22.3154 404.241 22.155 404.152 22.0391C404.062 21.9232 403.928 21.8355 403.749 21.7761C403.641 21.7374 403.491 21.7159 403.301 21.7114C403.111 21.707 402.856 21.7047 402.537 21.7047H402.206V23.3675H402.302C402.769 23.3675 403.091 23.3645 403.27 23.3586C403.449 23.3526 403.631 23.3125 403.816 23.2382C403.979 23.1728 404.098 23.077 404.173 22.9507C404.248 22.8244 404.286 22.681 404.286 22.5205Z" fill="#747478"/>
<path fill-rule="evenodd" clip-rule="evenodd" d="M413.335 24.5845H411.543V19.2128H409.742C409.729 19.4714 409.717 19.7128 409.706 19.9372C409.694 20.1616 409.682 20.3748 409.67 20.5769C409.634 21.1564 409.577 21.6564 409.497 22.077C409.417 22.4975 409.326 22.8415 409.224 23.1089C409.112 23.3942 408.999 23.6186 408.884 23.7821C408.769 23.9455 408.66 24.0748 408.558 24.1699C408.405 24.3126 408.213 24.4247 407.983 24.5065C407.753 24.5882 407.526 24.6291 407.303 24.6291C407.152 24.6291 406.988 24.6231 406.809 24.6112C406.63 24.5993 406.517 24.5904 406.469 24.5845V23.1179H406.536C406.568 23.1208 406.599 23.1238 406.629 23.1268C406.66 23.1297 406.699 23.1312 406.747 23.1312C406.827 23.1312 406.929 23.1193 407.053 23.0956C407.178 23.0718 407.272 23.0317 407.336 22.9752C407.566 22.7731 407.723 22.4603 407.808 22.0368C407.893 21.6133 407.957 21.0019 408.002 20.2024C408.021 19.8369 408.033 19.5085 408.038 19.2173C408.043 18.926 408.055 18.5025 408.074 17.9468H413.335V24.5845Z" fill="#747478"/>
<path fill-rule="evenodd" clip-rule="evenodd" d="M434.784 24.5845H433.002V20.1846L431.703 23.0242H430.481L429.183 20.1846V24.5845H427.496V17.9468H429.561L431.143 21.2233L432.719 17.9468H434.784V24.5845Z" fill="#747478"/>
<path fill-rule="evenodd" clip-rule="evenodd" d="M420.189 24.5845H418.407V22.1505H417.731L415.934 24.5845H413.807L415.934 21.834C415.497 21.6587 415.159 21.412 414.921 21.094C414.683 20.776 414.564 20.3659 414.564 19.8636C414.564 19.5248 414.644 19.2291 414.806 18.9765C414.967 18.7239 415.172 18.5174 415.421 18.3569C415.639 18.2172 415.903 18.1139 416.214 18.0471C416.526 17.9802 416.883 17.9468 417.285 17.9468H420.189V24.5845ZM418.407 20.9558V19.1682H417.832C417.554 19.1682 417.34 19.1764 417.19 19.1927C417.039 19.2091 416.894 19.2663 416.754 19.3644C416.645 19.4387 416.562 19.536 416.504 19.6564C416.447 19.7767 416.418 19.9097 416.418 20.0553C416.418 20.2069 416.448 20.3429 416.509 20.4632C416.57 20.5836 416.655 20.6824 416.763 20.7597C416.885 20.8488 417.027 20.9038 417.192 20.9246C417.357 20.9454 417.573 20.9558 417.841 20.9558H418.407Z" fill="#747478"/>
<path fill-rule="evenodd" clip-rule="evenodd" d="M421.404 24.5845V17.9468H426.23V19.2128H423.187V20.3763H425.99V21.6423H423.187V23.3185H426.23V24.5845H421.404Z" fill="#747478"/>
<path fill-rule="evenodd" clip-rule="evenodd" d="M391.702 29.8012C391.702 30.1103 391.65 30.4045 391.544 30.6839C391.439 30.9632 391.287 31.1965 391.089 31.3838C390.968 31.4997 390.834 31.6067 390.689 31.7047C390.543 31.8028 390.383 31.886 390.207 31.9544C390.032 32.0227 389.841 32.0762 389.635 32.1148C389.429 32.1535 389.198 32.1728 388.942 32.1728H388.003V34.3438H386.211V27.7061H388.981C389.393 27.7061 389.748 27.741 390.047 27.8108C390.345 27.8807 390.616 27.9914 390.859 28.1429C391.127 28.3093 391.335 28.5315 391.482 28.8094C391.629 29.0872 391.702 29.4179 391.702 29.8012ZM389.862 29.8414C389.862 29.6541 389.814 29.4929 389.718 29.3577C389.623 29.2225 389.508 29.1296 389.373 29.0791C389.204 29.0107 389.042 28.9713 388.887 28.9609C388.732 28.9505 388.522 28.9453 388.257 28.9453H388.003V30.9335H388.128C388.297 30.9335 388.457 30.932 388.607 30.9291C388.757 30.9261 388.888 30.9157 389 30.8979C389.096 30.883 389.197 30.854 389.304 30.8109C389.411 30.7678 389.493 30.7195 389.551 30.6661C389.672 30.5561 389.754 30.4417 389.798 30.3228C389.841 30.2039 389.862 30.0434 389.862 29.8414Z" fill="#747478"/>
<path fill-rule="evenodd" clip-rule="evenodd" d="M398.664 34.3438H396.872V31.4016H394.433V34.3438H392.641V27.7061H394.433V30.1356H396.872V27.7061H398.664V34.3438Z" fill="#747478"/>
<path fill-rule="evenodd" clip-rule="evenodd" d="M415.045 34.3436H413.282V29.9705L410.541 34.3436H408.883V27.7059H410.646V31.66L413.181 27.7059H415.045V34.3436ZM414.503 25.5171C414.5 26.052 414.293 26.48 413.883 26.8009C413.472 27.1219 412.836 27.2824 411.973 27.2824C411.127 27.2824 410.494 27.1197 410.076 26.7943C409.657 26.4688 409.447 26.0431 409.443 25.5171H411.015C411.022 25.841 411.095 26.0765 411.236 26.2237C411.376 26.3708 411.622 26.4443 411.973 26.4443C412.325 26.4443 412.571 26.37 412.711 26.2214C412.852 26.0728 412.925 25.8381 412.932 25.5171H414.503Z" fill="#747478"/>
<path fill-rule="evenodd" clip-rule="evenodd" d="M405.374 32.2218C405.374 32.5458 405.307 32.8437 405.175 33.1156C405.042 33.3876 404.861 33.6097 404.631 33.7821C404.356 33.9871 404.06 34.132 403.742 34.2167C403.424 34.3014 403.037 34.3438 402.58 34.3438H399.748V27.7061H401.535V30.198H402.609C403.027 30.198 403.406 30.2255 403.744 30.2804C404.083 30.3354 404.391 30.464 404.669 30.6661C404.915 30.8444 405.094 31.068 405.206 31.337C405.318 31.6059 405.374 31.9009 405.374 32.2218ZM403.524 32.2709C403.524 32.1609 403.511 32.0569 403.486 31.9588C403.46 31.8607 403.404 31.7701 403.318 31.6869C403.232 31.6037 403.113 31.539 402.963 31.493C402.813 31.4469 402.606 31.4239 402.34 31.4239H401.535V33.1134H402.34C402.705 33.1134 402.993 33.0413 403.205 32.8972C403.418 32.7531 403.524 32.5443 403.524 32.2709ZM407.698 34.3438H405.905V27.7061H407.698V34.3438Z" fill="#747478"/>
<path fill-rule="evenodd" clip-rule="evenodd" d="M423.508 28.9721H420.489V34.3438H418.697V27.7061H423.508V28.9721Z" fill="#747478"/>
<path fill-rule="evenodd" clip-rule="evenodd" d="M429.941 29.8012C429.941 30.1103 429.888 30.4045 429.782 30.6839C429.677 30.9632 429.525 31.1965 429.327 31.3838C429.206 31.4997 429.072 31.6067 428.927 31.7047C428.782 31.8028 428.621 31.886 428.446 31.9544C428.27 32.0227 428.079 32.0762 427.873 32.1148C427.667 32.1535 427.436 32.1728 427.181 32.1728H426.241V34.3438H424.449V27.7061H427.219C427.631 27.7061 427.986 27.741 428.285 27.8108C428.584 27.8807 428.854 27.9914 429.097 28.1429C429.366 28.3093 429.573 28.5315 429.72 28.8094C429.867 29.0872 429.941 29.4179 429.941 29.8012ZM428.101 29.8414C428.101 29.6541 428.053 29.4929 427.957 29.3577C427.861 29.2225 427.746 29.1296 427.612 29.0791C427.442 29.0107 427.28 28.9713 427.125 28.9609C426.97 28.9505 426.76 28.9453 426.495 28.9453H426.241V30.9335H426.366C426.535 30.9335 426.695 30.932 426.845 30.9291C426.995 30.9261 427.126 30.9157 427.238 30.8979C427.334 30.883 427.435 30.854 427.542 30.8109C427.649 30.7678 427.732 30.7195 427.789 30.6661C427.91 30.5561 427.993 30.4417 428.036 30.3228C428.079 30.2039 428.101 30.0434 428.101 29.8414Z" fill="#747478"/>
<path fill-rule="evenodd" clip-rule="evenodd" d="M436.773 27.7061L434.391 33.0153C434.251 33.3244 434.093 33.5681 433.919 33.7464C433.745 33.9247 433.562 34.0599 433.37 34.1521C433.179 34.2442 432.987 34.3059 432.795 34.3371C432.604 34.3683 432.403 34.3839 432.192 34.3839C431.971 34.3839 431.715 34.3794 431.423 34.3705C431.13 34.3616 430.935 34.3527 430.836 34.3438V32.9351H430.946C430.975 32.941 431.019 32.9485 431.08 32.9574C431.141 32.9663 431.217 32.9752 431.31 32.9841C431.387 32.9901 431.47 32.996 431.559 33.002C431.649 33.0079 431.73 33.0109 431.804 33.0109C432.018 33.0109 432.22 32.9863 432.41 32.9373C432.6 32.8883 432.727 32.8043 432.791 32.6854L430.15 27.7061H432.086L433.615 30.8176L434.909 27.7061H436.773Z" fill="#747478"/>
<path fill-rule="evenodd" clip-rule="evenodd" d="M442.262 31.2009C442.422 31.3287 442.55 31.4869 442.646 31.6756C442.742 31.8643 442.79 32.0939 442.79 32.3644C442.79 33.0271 442.516 33.5442 441.968 33.9157C441.42 34.2872 440.633 34.4729 439.608 34.4729C439.141 34.4729 438.697 34.4343 438.273 34.357C437.85 34.2797 437.463 34.1742 437.111 34.0405V32.5561H437.274C437.514 32.7106 437.829 32.8614 438.221 33.0085C438.612 33.1556 438.994 33.2292 439.368 33.2292C439.851 33.2292 440.234 33.1489 440.518 32.9885C440.803 32.828 440.945 32.5813 440.945 32.2485C440.945 31.9602 440.841 31.747 440.633 31.6088C440.426 31.4706 440.052 31.4015 439.512 31.4015H438.487V30.2157H439.464C439.911 30.2157 440.239 30.1525 440.446 30.0262C440.654 29.8999 440.758 29.7105 440.758 29.4579C440.758 29.235 440.644 29.073 440.415 28.972C440.187 28.8709 439.883 28.8204 439.502 28.8204C439.288 28.8204 439.085 28.8412 438.891 28.8828C438.698 28.9244 438.509 28.9764 438.324 29.0388C438.151 29.0983 437.992 29.1636 437.847 29.235C437.702 29.3063 437.591 29.3598 437.514 29.3955H437.346V28.0135C437.554 27.9333 437.893 27.8404 438.364 27.7349C438.836 27.6294 439.33 27.5767 439.847 27.5767C440.767 27.5767 441.456 27.7186 441.913 28.0024C442.369 28.2862 442.598 28.6807 442.598 29.1859C442.598 29.5634 442.472 29.8888 442.222 30.1622C441.971 30.4356 441.648 30.6184 441.251 30.7105V30.7774C441.398 30.8012 441.569 30.8502 441.764 30.9245C441.959 30.9988 442.125 31.0909 442.262 31.2009Z" fill="#747478"/>
<path fill-rule="evenodd" clip-rule="evenodd" d="M353.664 17.9735C354.69 17.8343 355.761 17.7646 356.879 17.7646C357.997 17.7646 359.068 17.8343 360.094 17.9735V23.0105H353.664V17.9735Z" fill="#747478"/>
<path fill-rule="evenodd" clip-rule="evenodd" d="M353.664 34.4498C354.69 34.5891 355.761 34.6587 356.879 34.6587C357.997 34.6587 359.068 34.5891 360.094 34.4498V29.4128H353.664V34.4498Z" fill="#747478"/>
<path fill-rule="evenodd" clip-rule="evenodd" d="M330.617 18.1543V34.3152H336.712V28.1202H339.018L344.082 34.3152H351.637L344.082 25.74L351.293 18.1543H344.082L339.018 24.1091H336.712V18.1543H330.617Z" fill="#747478"/>
<path fill-rule="evenodd" clip-rule="evenodd" d="M309.037 18.0828L309.836 22.3617C312.556 22.1912 314.812 22.1059 316.605 22.1059C318.398 22.1059 320.178 22.1912 321.943 22.3617L322.25 24.0116H314.214V28.2653H322.25L321.943 30.1165C320.404 30.2369 318.549 30.2971 316.376 30.2971C314.204 30.2971 312.024 30.2369 309.836 30.1165L309.037 34.2839C312.274 34.4479 315.301 34.5299 318.118 34.5299C320.934 34.5299 323.733 34.4479 326.512 34.2839C327.543 31.7019 328.058 29.0546 328.058 26.342C328.058 23.6294 327.543 20.8763 326.512 18.0828C324.367 17.9332 321.718 17.8584 318.566 17.8584C315.415 17.8584 312.238 17.9332 309.037 18.0828Z" fill="#747478"/>
<path fill-rule="evenodd" clip-rule="evenodd" d="M287.203 18.1455V34.2566H293.432V22.6062H300.59V34.2566H306.878V18.1455H287.203Z" fill="#747478"/>
</g>
<defs>
<clipPath id="clip0_145_2318">
<rect width="114" height="42" fill="white" transform="translate(0 99.6587)"/>
</clipPath>
<clipPath id="clip1_145_2318">
<rect width="79" height="76" fill="white" transform="translate(365 68.6587)"/>
</clipPath>
<clipPath id="clip2_145_2318">
<rect width="105" height="45" fill="white" transform="translate(187 99.6587)"/>
</clipPath>
<clipPath id="clip3_145_2318">
<rect width="156" height="17" fill="white" transform="translate(287 17.6587)"/>
</clipPath>
</defs>
</svg>
