<svg width="114" height="43" viewBox="0 0 114 43" fill="none" xmlns="http://www.w3.org/2000/svg">
<path d="M52.3172 41.2704V9.54584H40.8066V2.0332H73.6248V9.54584H62.1141V41.2704H52.3172Z" fill="#747478"/>
<path d="M114 21.6858C114.054 25.1121 113.237 28.4952 111.625 31.5121C110.206 34.2055 108.136 36.4945 105.607 38.1673C103.615 39.4768 101.371 40.3443 99.0215 40.7124C96.5074 41.0987 93.9672 41.2852 91.4242 41.2704H79.2793V2.01958H91.4242C93.9885 2.00794 96.5503 2.18534 99.089 2.55037C101.497 2.89445 103.8 3.76793 105.836 5.10902C108.397 6.76204 110.486 9.0608 111.895 11.7778C113.438 14.8392 114.203 18.239 114.122 21.6722L114 21.6858ZM103.906 21.6042C103.95 19.3256 103.489 17.0659 102.557 14.9898C101.684 13.1663 100.269 11.6629 98.5087 10.6891C97.2672 9.98237 95.8832 9.56826 94.4604 9.47778C93.0165 9.40973 91.2892 9.38251 89.2651 9.38251H89.0627V33.8802H89.2381C91.4242 33.8802 93.2864 33.8802 94.7708 33.7714C96.2929 33.6943 97.7701 33.2258 99.062 32.4104C100.655 31.3981 101.917 29.9356 102.692 28.2049C103.578 26.1229 103.993 23.8681 103.906 21.6042Z" fill="#747478"/>
<path fill-rule="evenodd" clip-rule="evenodd" d="M20.8215 0.658703C25.8962 0.65328 30.7973 2.52204 34.5992 5.91211L28.4727 12.9076C26.84 11.4549 24.8338 10.4965 22.685 10.1428C20.5362 9.78905 18.332 10.0543 16.326 10.908C14.32 11.7618 12.5937 13.1693 11.3458 14.9687C10.0978 16.7681 9.37879 18.8862 9.27152 21.0795C9.16426 23.2727 9.67305 25.4519 10.7394 27.3665C11.8057 29.281 13.3863 30.853 15.2992 31.9017C17.2122 32.9504 19.3798 33.4332 21.5527 33.2944C23.7256 33.1557 25.8156 32.4011 27.5821 31.1175V26.6943H20.835V18.8006H36.0161V36.0443C33.6526 38.5793 30.7016 40.4823 27.4283 41.5821C24.155 42.682 20.6621 42.9442 17.2634 42.3453C13.8647 41.7464 10.6669 40.3051 7.9573 38.151C5.24774 35.9968 3.11137 33.1974 1.74024 30.0043C0.369118 26.8112 -0.19379 23.3245 0.102118 19.8576C0.398027 16.3907 1.54348 13.0523 3.4355 10.1425C5.32753 7.23272 7.90683 4.8427 10.9416 3.18729C13.9763 1.53189 17.3713 0.662991 20.8215 0.658703Z" fill="#747478"/>
</svg>
