<svg width="79" height="77" viewBox="0 0 79 77" fill="none" xmlns="http://www.w3.org/2000/svg">
<path fill-rule="evenodd" clip-rule="evenodd" d="M37.1586 1.47366C23.1839 7.67924 11.5837 15.925 1.45328 26.8747C-0.0324564 28.4813 -0.0542763 28.5161 0.0250688 29.1975C0.0687087 29.573 0.223432 30.8873 0.360302 32.1164C1.9115 45.5941 6.7337 59.6892 14.0592 72.141C15.2216 74.1115 14.8249 73.8966 18.6375 74.6573C32.4265 77.3372 46.6217 77.3372 60.4107 74.6573C64.3244 73.8831 63.886 74.1289 65.1218 72.0288C72.8421 58.9072 77.6365 44.212 78.8842 29.844L78.9993 28.5297L78.2594 27.6896C68.7518 16.8734 55.1203 7.1063 41.471 1.31881C39.3485 0.418746 39.5548 0.411004 37.1586 1.47366ZM44.1886 5.67201C55.7769 11.295 64.368 17.5064 73.6951 27.0006L76.0456 29.3949L75.9465 30.5853C74.9427 42.6926 69.9698 57.9898 63.3346 69.3789C62.0016 71.6649 62.4102 71.3881 59.5657 71.9359C46.2754 74.4831 33.231 74.4773 19.6134 71.9204L16.9494 71.421L16.2194 70.2035C9.77262 59.4511 5.0377 45.5438 3.36748 32.459C2.91918 28.9555 2.56213 29.6562 7.06298 25.2411C15.9655 16.5076 25.4314 9.9381 36.4227 4.8726C39.7611 3.32411 39.2374 3.27765 44.1886 5.67975V5.67201ZM37.8945 17.2605C37.8945 17.7812 37.9302 17.8199 38.4103 17.8199H38.926L38.8367 19.6955C38.7257 22.0415 38.0631 24.25 37.4482 24.341C37.0931 24.3913 37.0793 24.4533 37.0793 26.0579V27.7129H38.8784V25.634L40.9652 25.6785L43.05 25.723L42.9984 26.7218L42.9448 27.7187H44.7678V24.5481L44.3195 24.4978L43.8692 24.4455L43.8137 21.9718C43.7423 18.4316 43.8355 17.8219 44.4464 17.8219C44.8848 17.8219 44.9265 17.7735 44.9265 17.2625V16.7031H37.8945V17.2605ZM27.7145 18.2864L27.179 18.7529L27.2285 20.3478C27.2742 21.8479 27.2543 21.9563 26.9072 22.1944C26.453 22.5041 26.3756 22.4286 26.0503 21.3427C25.7131 20.224 25.721 20.1098 26.1316 20.0033C26.445 19.9239 26.4768 19.1071 26.1792 18.7897C26.0344 18.6368 22.8447 19.6239 22.8447 19.8233C22.8447 20.4175 23.1522 20.8124 23.5569 20.7369C24.0389 20.6459 24.8482 22.6977 24.4336 22.9629C23.9556 23.2668 23.5727 22.9938 23.0074 21.9467C22.1167 20.2956 21.4205 19.8175 20.4049 20.1291C19.8574 20.2995 19.907 21.484 20.4604 21.484C20.9484 21.484 21.3411 21.8499 21.6506 22.5951C21.96 23.3403 22.4857 23.8784 22.8666 23.8784C23.0312 23.8784 23.1661 23.95 23.1661 24.0371C23.1683 24.0771 23.1543 24.1162 23.1273 24.1463C23.1002 24.1763 23.0621 24.1948 23.0213 24.1978C22.6821 24.1978 22.4678 25.1888 22.571 26.2863C22.6741 27.3509 22.6583 27.4206 22.2457 27.7922L21.8152 28.1793L22.2457 28.731C22.7277 29.3485 23.297 29.3117 23.9278 28.6342C24.2353 28.3013 24.3047 26.6541 24.0686 25.3669C23.9655 24.8094 24.2888 24.3526 24.7887 24.3526C25.4651 24.3526 25.9253 27.0509 25.2509 27.0625C25.0803 27.0625 25.1021 27.7342 25.2826 28.0129C25.5861 28.4794 28.75 27.4496 28.6211 26.9251C28.4723 26.3115 28.4227 26.267 27.9347 26.267C27.5221 26.267 27.4646 26.1857 27.2067 25.2411C27.054 24.6759 26.8834 24.1049 26.8318 23.9694C26.6989 23.6345 27.4944 23.4429 27.8435 23.7255C27.9863 23.8397 28.389 24.4997 28.7381 25.1675C29.4601 26.5689 29.845 26.9096 30.7336 26.9096C31.3922 26.9096 31.4299 26.8651 31.5648 25.9205C31.6461 25.3572 31.6282 25.3282 31.1363 25.2817C30.6939 25.2391 30.5412 25.0882 30.0255 24.1958C29.6287 23.5048 29.232 23.05 28.8492 22.8409C28.3076 22.5409 28.2838 22.4964 28.512 22.2022C28.6964 21.9641 28.7381 21.5905 28.6826 20.7001C28.6151 19.6007 28.6389 19.4884 29.0098 19.1516C29.3808 18.8148 29.4066 18.7839 29.117 18.3019C28.746 17.6902 28.389 17.6864 27.7086 18.2806L27.7145 18.2864ZM41.9491 21.1318L41.9034 24.2849L41.4234 24.3371C41.0334 24.3632 40.6416 24.3476 40.255 24.2907L39.5687 24.19L39.8782 23.3926C40.1955 22.5815 40.505 20.3343 40.5109 18.8168V17.9806H41.9907L41.9491 21.1318ZM53.4878 18.4509C53.2637 18.5438 53.0653 18.8381 52.9641 19.2078C52.5218 20.853 52.494 20.7563 53.4601 20.9324C54.0432 21.0389 54.0551 21.0311 54.2753 20.3517C54.7514 18.8845 56.8044 20.0943 56.7787 21.8247C56.7628 22.9203 56.7132 22.9319 54.4777 22.3551C54.188 22.2815 54.0928 22.3551 53.9341 22.8351C53.6822 23.5803 53.7358 23.6481 54.8823 23.8842C56.2927 24.1765 56.3244 24.2094 55.9971 25.0456C55.3028 26.8225 52.3234 27.4651 52.7142 25.754C52.9126 24.8811 52.8828 24.7998 52.3175 24.6527C51.524 24.4436 51.3891 24.552 51.1551 25.6205C50.8853 26.8631 50.9567 27.0102 52.0894 27.527C53.3589 28.1077 55.1362 28.131 56.1895 27.587C58.4608 26.4257 59.3336 21.2363 57.5562 19.4807C56.7112 18.6464 54.4181 18.0677 53.4918 18.4529L53.4878 18.4509ZM33.3242 24.3584C33.1028 24.6014 32.9823 24.9162 32.9863 25.2413C32.9903 25.5664 33.1186 25.8784 33.3461 26.116C34.4291 27.1012 36.2005 25.7018 35.3297 24.552C34.8933 23.9713 33.8241 23.8765 33.3302 24.3584H33.3242ZM46.9498 24.6159C46.6106 24.9469 46.5531 25.1249 46.6304 25.5334C46.9299 27.0431 49.1834 26.9347 49.1834 25.4095C49.1834 24.2752 47.7948 23.7836 46.9498 24.6159ZM8.6122 31.197C8.74708 31.2783 15.7533 34.2707 24.1936 37.8458L39.531 44.3592L55.0668 37.7781C63.6123 34.1527 70.5887 31.1699 70.5689 31.1505C70.549 31.1312 69.4838 31.2879 68.2044 31.4989C61.9897 32.5248 54.071 33.5158 48.2848 33.9959C46.8387 34.1159 43.2424 34.1894 39.531 34.1894C33.0029 34.1894 31.1403 34.0888 24.6538 33.3842C20.028 32.881 11.1354 31.6267 8.81056 31.1505C8.5031 31.0866 8.44756 31.1041 8.6122 31.2086V31.197ZM28.4346 57.6762C22.3905 64.9212 17.4493 70.8771 17.477 70.9022C17.5048 70.9274 22.4242 67.6911 28.4068 63.7095C34.3895 59.7279 39.3803 56.4664 39.4973 56.4626C39.6699 56.4626 44.7559 59.7957 60.9205 70.5345C61.3013 70.788 61.6147 70.9603 61.6147 70.9216C61.6147 70.8035 39.6996 44.5701 39.5608 44.5237C39.4933 44.5005 34.4866 50.4176 28.4326 57.6704" fill="#747478"/>
</svg>
