<svg width="105" height="46" viewBox="0 0 105 46" fill="none" xmlns="http://www.w3.org/2000/svg">
<g clip-path="url(#clip0_145_2328)">
<path fill-rule="evenodd" clip-rule="evenodd" d="M9.96414 33.4785C5.44552 33.4785 3.38897 34.7285 2.57793 37.3447L0 45.6587H87.8235C92.3421 45.6587 94.3986 44.4087 95.2097 41.7924L97.7876 33.4785H9.96414ZM20.5366 21.8796H16.1917C9.41379 21.8796 14.3379 7.43195 20.0441 7.43195H26.909C28.0097 7.43195 29.9503 7.63544 30.9062 4.90288L32.3834 0.658691H22.9697C17.8717 0.658691 13.9034 2.46102 11.0359 5.48427C6.08276 10.6587 4.40276 18.7314 5.59035 22.6064C6.72 26.1819 9.79035 28.5366 14.5986 28.5947L18.3352 28.6238H22.9407L24.0703 25.2226C24.9103 22.8099 23.0276 21.8796 20.5366 21.8796ZM73.4276 15.8912L74.8469 11.2692H59.6979C57.1779 11.2692 56.0483 11.9668 55.6138 13.4203L54.1945 18.0424H69.3434C71.8634 18.0424 72.9931 17.3447 73.4276 15.8912ZM51.9352 24.0308L50.5159 28.6529H65.6648C68.1559 28.6529 69.3145 27.9552 69.749 26.5017L71.1683 21.8796H56.0193C53.5283 21.8796 52.3986 22.5773 51.9352 24.0308ZM76.9614 5.30985L78.3807 0.687761H63.2317C60.7117 0.687761 59.5821 1.38544 59.1476 2.83892L57.7283 7.46102H72.8772C75.3683 7.46102 76.4979 6.76334 76.9614 5.30985ZM54.0786 6.24009C53.4414 1.93776 51.1531 0.687761 45.5917 0.687761H35.4538L29.5448 18.0424H33.2814C35.5117 18.0424 36.6414 18.0715 37.829 14.8738L40.291 7.43195H44.0566C47.2717 7.43195 46.5476 11.4726 44.9255 15.3971C43.4772 18.8564 40.9572 21.9087 37.9159 21.9087H31.6303C29.1103 21.9087 27.9517 22.6064 27.4883 24.0599L25.9241 28.6819H30.5297L35.0483 28.6529C39.0455 28.6238 42.3186 28.3331 46.1421 24.8738C50.1972 21.1819 54.8897 11.7052 54.0786 6.24009ZM105 0.658691H96.2235L87.9683 9.46683C87.0124 10.4843 86.0276 11.5017 85.0717 12.6936H84.9848L89.0979 0.658691H81.9435L72.2979 28.6529H79.4524L82.5228 19.8447L85.709 17.1412L88.229 25.1064C89.011 27.5773 89.8221 28.6529 91.56 28.6529H97.0345L91.4152 13.0133L105 0.658691Z" fill="#747478"/>
<path d="M9.55769 40.397V42.6935H8.2832V36.3272H10.8032C11.4223 36.2853 12.0338 36.483 12.5122 36.8795C12.7177 37.0667 12.8809 37.2958 12.9908 37.5515C13.1007 37.8072 13.1548 38.0836 13.1494 38.3621C13.1612 38.6414 13.11 38.9198 12.9997 39.1765C12.8893 39.4332 12.7227 39.6616 12.5122 39.8446C12.0338 40.2412 11.4223 40.4388 10.8032 40.397H9.55769ZM9.55769 39.4086H10.8032C10.9511 39.4189 11.0994 39.3984 11.239 39.3483C11.3786 39.2983 11.5063 39.2199 11.6142 39.1179C11.7888 38.917 11.8818 38.6576 11.8749 38.3911C11.8869 38.1151 11.7937 37.8449 11.6142 37.6353C11.5079 37.5311 11.3804 37.4511 11.2404 37.4009C11.1004 37.3508 10.9513 37.3316 10.8032 37.3446H9.55769V39.4086ZM16.7701 41.3272H14.5398L14.1053 42.6935H12.8308L15.0032 36.3272H16.3067L18.4791 42.6935H17.2046L16.7701 41.3272ZM14.8584 40.3098H16.4515L15.6694 37.8098H15.6404L14.8584 40.3098ZM23.1425 37.3156H20.3329V38.5656H21.4335C22.0644 38.5382 22.6832 38.7452 23.1715 39.147C23.3731 39.3372 23.5338 39.5669 23.6437 39.8219C23.7536 40.0769 23.8102 40.3517 23.8102 40.6295C23.8102 40.9073 23.7536 41.1822 23.6437 41.4371C23.5338 41.6921 23.3731 41.9218 23.1715 42.1121C22.6832 42.5139 22.0644 42.7209 21.4335 42.6935H19.0004V36.3272H23.1425V37.3156ZM20.3329 39.5539V41.6964H21.4335C21.5837 41.7047 21.7339 41.6805 21.8738 41.6253C22.0138 41.5701 22.1403 41.4853 22.2446 41.3766C22.4334 41.1593 22.5365 40.8801 22.5342 40.5917C22.5394 40.4526 22.5164 40.3139 22.4666 40.184C22.4168 40.0541 22.3413 39.9357 22.2446 39.8359C22.1386 39.7295 22.0119 39.6461 21.8723 39.5911C21.7328 39.5361 21.5834 39.5105 21.4335 39.5161H20.3329V39.5539ZM29.7756 40.0772C29.7891 40.4338 29.7321 40.7895 29.6078 41.1238C29.4835 41.4581 29.2944 41.7643 29.0515 42.0249C28.8048 42.2802 28.5067 42.4797 28.177 42.6101C27.8473 42.7404 27.4937 42.7986 27.1398 42.7807C26.7867 42.7912 26.4352 42.7297 26.1066 42.5998C25.7779 42.4699 25.479 42.2743 25.228 42.0249C24.9829 41.7658 24.7925 41.4598 24.668 41.1251C24.5436 40.7905 24.4878 40.434 24.5039 40.0772V38.9435C24.4904 38.5869 24.5475 38.2312 24.6717 37.8969C24.796 37.5626 24.9851 37.2563 25.228 36.9958C25.4747 36.7405 25.7728 36.5409 26.1025 36.4106C26.4322 36.2802 26.7859 36.2221 27.1398 36.24C27.4928 36.2294 27.8443 36.291 28.1729 36.4209C28.5016 36.5508 28.8005 36.7464 29.0515 36.9958C29.3008 37.2531 29.496 37.5582 29.6254 37.8928C29.7548 38.2274 29.8157 38.5847 29.8046 38.9435V40.0772H29.7756ZM28.5011 38.9435C28.5235 38.5046 28.39 38.072 28.1246 37.7225C28.0051 37.5692 27.8506 37.4469 27.6742 37.3659C27.4978 37.285 27.3045 37.2478 27.1108 37.2574C26.9167 37.2447 26.7224 37.2806 26.5455 37.3618C26.3686 37.4429 26.2145 37.5669 26.097 37.7225C25.8543 38.0819 25.7325 38.5097 25.7494 38.9435V40.1063C25.7275 40.5406 25.8497 40.97 26.097 41.3272C26.2229 41.4731 26.3786 41.5901 26.5535 41.6703C26.7284 41.7505 26.9185 41.792 27.1108 41.792C27.3031 41.792 27.4932 41.7505 27.6681 41.6703C27.843 41.5901 27.9987 41.4731 28.1246 41.3272C28.3775 40.9714 28.5095 40.5433 28.5011 40.1063V38.9435ZM34.9894 37.3156H33.1935V42.6935H31.9191V37.3156H30.1232V36.3272H34.9604V37.3156H34.9894ZM38.668 41.3272H36.4377L36.0032 42.6935H34.7287L36.9011 36.3272H38.2046L40.377 42.6935H39.1025L38.668 41.3272ZM36.7563 40.3098H38.3494L37.5673 37.8098H37.5384L36.7563 40.3098ZM44.8956 39.9028H42.2598V41.6964H45.3301V42.6848H40.9853V36.3185H45.3301V37.3068H42.2598V38.9057H44.8956V39.8941V39.9028ZM47.7632 36.3272L49.3853 41.0074H49.4142L51.0363 36.3272H52.6873V42.6935H51.4129V40.8039L51.5287 37.9842H51.4998L49.7908 42.6935H48.9508L47.2708 38.0132H47.2418L47.3577 40.8039V42.6935H46.0832V36.3272H47.7632ZM56.1053 42.6935V36.3272H58.2487C58.859 36.2891 59.466 36.4414 59.9867 36.7632C60.1932 36.9106 60.3598 37.1074 60.4711 37.3359C60.5824 37.5644 60.6349 37.8173 60.6239 38.0714C60.6232 38.3499 60.5427 38.6223 60.3922 38.8563C60.2316 39.0977 59.9981 39.2811 59.726 39.3795C60.0632 39.4368 60.3676 39.6166 60.5813 39.8847C60.7949 40.1527 60.9029 40.4902 60.8846 40.833C60.9008 41.0973 60.8541 41.3618 60.7483 41.6044C60.6426 41.847 60.4808 42.0609 60.2763 42.2284C59.8708 42.5481 59.3204 42.6935 58.5673 42.6935H56.1053ZM57.3798 39.0016H58.3067C58.5829 39.0264 58.8592 38.9545 59.0887 38.7981C59.176 38.7233 59.2449 38.6293 59.2901 38.5234C59.3353 38.4176 59.3556 38.3027 59.3494 38.1877C59.3634 38.0647 59.3438 37.9403 59.2928 37.8277C59.2418 37.715 59.1612 37.6184 59.0598 37.5481C58.8194 37.392 58.5341 37.3204 58.2487 37.3446H57.3798V39.0016ZM57.3798 39.8737V41.6964H58.5384C58.8176 41.7083 59.0928 41.6264 59.3204 41.4638C59.4134 41.3873 59.4859 41.2888 59.5314 41.1771C59.5769 41.0655 59.594 40.9442 59.5811 40.8243C59.5939 40.5619 59.5116 40.3037 59.3494 40.0975C59.2542 40.0062 59.1395 39.9379 59.014 39.8976C58.8886 39.8573 58.7556 39.8461 58.6253 39.865L57.3798 39.8737ZM66.6198 40.5132C66.6489 40.8175 66.6094 41.1245 66.504 41.4114C66.3987 41.6983 66.2304 41.9576 66.0115 42.1702C65.5161 42.6028 64.8709 42.8221 64.2156 42.7807C63.8731 42.7968 63.5311 42.7404 63.2117 42.6152C62.8923 42.49 62.6028 42.2988 62.3618 42.0539C61.8839 41.5432 61.624 40.865 61.6377 40.1644V38.9144C61.6234 38.569 61.6775 38.2241 61.7968 37.8998C61.9161 37.5755 62.0983 37.2781 62.3329 37.0249C62.5663 36.7763 62.8497 36.5804 63.1643 36.4501C63.4789 36.3197 63.8175 36.2581 64.1577 36.2691C64.8217 36.228 65.4758 36.4468 65.9825 36.8795C66.2058 37.09 66.379 37.3483 66.4893 37.6351C66.5996 37.922 66.6442 38.23 66.6198 38.5365V38.5656H65.3742C65.3986 38.2209 65.2955 37.8794 65.0846 37.6063C64.9628 37.4882 64.8166 37.3984 64.6565 37.3432C64.4963 37.2879 64.3261 37.2686 64.1577 37.2865C63.9804 37.2776 63.804 37.3159 63.6462 37.3976C63.4885 37.4793 63.3552 37.6014 63.2598 37.7516C63.0164 38.0997 62.8943 38.5186 62.9122 38.9435V40.2225C62.8943 40.6474 63.0164 41.0663 63.2598 41.4144C63.3674 41.5662 63.5114 41.6883 63.6784 41.7696C63.8455 41.8509 64.0302 41.8887 64.2156 41.8795C64.3749 41.8931 64.5353 41.8716 64.6854 41.8163C64.8355 41.7611 64.9718 41.6735 65.0846 41.5598C65.1933 41.4268 65.2749 41.2737 65.3246 41.1091C65.3743 40.9444 65.3912 40.7716 65.3742 40.6005H66.6198V40.5132ZM71.428 39.9028H68.7922V41.6964H71.8625V42.6848H67.5177V36.3185H71.8625V37.3068H68.7922V38.9057H71.428V39.9028ZM76.7867 37.3156H73.9191V42.6935H72.6446V36.3272H76.7867V37.3156ZM82.6666 44.2632H81.508V42.6935H77.6266V44.2632H76.468L76.3811 41.7051H76.8735C77.1476 41.4484 77.3562 41.1294 77.4818 40.7749C77.6817 40.1754 77.7796 39.5465 77.7715 38.9144L77.9453 36.2981H82.0584V41.676H82.8115L82.6666 44.2632ZM78.988 38.9435C78.9682 39.4928 78.8905 40.0385 78.7563 40.5714C78.6623 40.9762 78.4954 41.3604 78.2639 41.7051H80.7549V37.3156H79.1039L78.988 38.9435ZM86.9825 41.3272H84.7522L84.3177 42.6935H83.0432L85.2156 36.3272H86.5191L88.6915 42.6935H87.417L86.9825 41.3272ZM85.0708 40.3098H86.6639L85.8818 37.8098H85.8529L85.0708 40.3098ZM90.5453 40.4842H89.2708V36.3272H90.5453V40.4842ZM90.5453 42.6935H89.2708V41.5888H90.5453V42.6935Z" fill="#15151D"/>
</g>
<defs>
<clipPath id="clip0_145_2328">
<rect width="105" height="45" fill="white" transform="translate(0 0.658691)"/>
</clipPath>
</defs>
</svg>
