<svg width="255" height="39" viewBox="0 0 255 39" fill="none" xmlns="http://www.w3.org/2000/svg">
<path d="M191.674 29.8502V21.1459H188.439V34.664H191.171L198.946 25.8832V34.664H202.17V21.1459H199.438L191.674 29.8502ZM226.31 29.9266V21.1459H223.081V34.664H225.813L233.599 25.8122V34.664H236.834V21.1459H233.971L226.31 29.9266ZM216.175 26.3969H209.071V21.1459H205.842V34.664H209.071V29.3748H216.175V34.664H219.409V21.1459H216.175V26.3969ZM176.8 21.1459L169.047 34.664H172.872L177.981 25.7357L183.122 34.664H187.128L179.369 21.1459H176.8ZM251.369 21.1459L243.719 29.9266V21.1459H240.49V34.664H243.222L251.008 25.8122V34.664H254.243V21.1459H251.369ZM172.828 21.1459H157.769V24.1183H171.107L172.828 21.1459ZM157.769 26.3969V29.3748H168.091L169.817 26.3969H157.769ZM86.3592 21.1459H71.3002V24.1183H84.6325L86.3592 21.1459ZM59.2793 18.168H56.6347L48.8866 31.6861H46.9414V38.6309H50.0231V34.664H65.8689V38.6309H68.9561V31.6861H67.0109L59.2793 18.168ZM52.7224 31.6861L57.8313 22.7633L62.973 31.6861H52.7224ZM108.789 20.8126C103.385 20.8126 100.817 24.091 100.817 27.8284C100.817 31.6861 103.314 34.8498 108.789 34.8498C111.177 34.8498 116.685 33.757 116.685 27.8284C116.701 23.9708 114.242 20.8126 108.806 20.8126H108.789ZM108.751 31.8719C105.631 31.8719 104.303 30.0687 104.303 27.8667C104.303 25.4406 105.811 23.8287 108.751 23.8287C112.057 23.8287 113.193 25.468 113.193 27.8667C113.21 30.7681 111.046 31.8719 108.767 31.8719H108.751ZM90.3261 21.1459L82.5781 34.664H86.4029L91.5063 25.7357L96.648 34.664H100.653L92.8888 21.1459H90.3261ZM150.901 34.664H154.086V21.1459H150.89L150.901 34.664ZM144.797 25.9925H139.88V21.1459H136.65V34.664H144.797C146.983 34.664 149.278 33.451 149.278 30.2545C149.251 26.069 146.311 25.9925 144.797 25.9925ZM144.612 31.8008H139.88V28.7847H144.617C145.164 28.7847 146.016 28.9322 146.016 30.2927C146.016 31.5385 145.344 31.8008 144.617 31.8008H144.612ZM71.2948 26.3969V29.3748H81.6164L83.343 26.3969H71.2948ZM157.764 34.664H165.075L166.768 31.6861H157.769L157.764 34.664ZM130.837 26.7028C131.336 26.5375 131.764 26.2085 132.053 25.7691C132.341 25.3298 132.473 24.8059 132.427 24.2823C132.427 21.4901 130.072 21.1623 128.422 21.1623H119.663V34.6804H128.569C132.645 34.6804 133.487 32.4401 133.487 30.3802C133.487 28.047 132.175 27.0908 130.837 26.7028ZM122.876 24.0255H128.05C128.82 24.0255 129.143 24.4298 129.143 25.2002C129.16 25.3535 129.144 25.5086 129.097 25.6554C129.05 25.8022 128.972 25.9373 128.869 26.0519C128.765 26.1665 128.639 26.2579 128.498 26.3202C128.357 26.3825 128.204 26.4142 128.05 26.4133H122.876V24.0255ZM128.569 31.8172H122.876V28.8885H128.569C129.487 28.8885 130.148 29.1125 130.148 30.3255C130.148 31.2817 129.744 31.8008 128.569 31.8008V31.8172ZM71.3002 34.6804H78.6057L80.2995 31.7025H71.3002V34.6804Z" fill="#747478"/>
<path d="M25.091 24.4736L11.6494 14.5016L8.37095 20.1897L23.7304 26.834L25.091 24.4736ZM27.1564 20.9001L15.6382 7.57866L12.3597 13.223L25.7959 23.2004L27.1564 20.9001ZM29.6262 16.6217L20.0258 0L16.3922 6.27821L27.9214 19.5996L29.6262 16.6217ZM3.62268 28.4186L0 34.6859H19.1953L20.9001 31.7353L3.62268 28.4186ZM20.8618 34.6859H25.9707L30.4567 26.9105L34.97 34.6859H40.0735L30.4567 18.0642L20.8618 34.6859ZM23.0037 28.0908L7.6497 21.4465L4.37125 27.0908L21.6486 30.413L23.0037 28.0908Z" fill="#747478"/>
</svg>
