<svg width="272" height="272" viewBox="0 0 272 272" fill="none" xmlns="http://www.w3.org/2000/svg">
<path d="M14.9737 78.5784C14.7846 78.0595 14.2106 77.7922 13.6917 77.9813L5.23569 81.0628C4.71679 81.2519 4.44943 81.8258 4.63853 82.3448C4.82763 82.8636 5.40157 83.131 5.92048 82.9419L13.4369 80.2028L16.1761 87.7192C16.3652 88.2381 16.9391 88.5055 17.458 88.3164C17.9769 88.1273 18.2443 87.5534 18.0552 87.0345L14.9737 78.5784ZM270.44 139.342L271.44 139.368L270.44 139.342ZM256.936 192.851C257.125 193.37 257.699 193.638 258.218 193.448L266.674 190.367C267.193 190.178 267.46 189.604 267.271 189.085C267.082 188.566 266.508 188.299 265.989 188.488L258.473 191.227L255.734 183.71C255.545 183.192 254.971 182.924 254.452 183.113C253.933 183.302 253.666 183.876 253.855 184.395L256.936 192.851ZM79.5832 256.729C12.7488 225.596 -16.1927 146.177 14.9406 79.3431L13.1276 78.4986C-18.472 146.334 10.903 226.942 78.7387 258.542L79.5832 256.729ZM78.9505 14.9934C113.572 -1.33166 154.92 -2.72467 192.327 14.7005L193.171 12.8875C155.203 -4.79895 113.233 -3.38309 78.0975 13.1845L78.9505 14.9934ZM192.327 14.7005C242.053 37.8645 270.805 87.7591 269.441 139.315L271.44 139.368C272.825 87.0442 243.646 36.3999 193.171 12.8875L192.327 14.7005ZM269.441 139.315C268.971 157.048 264.939 174.979 256.969 192.087L258.782 192.931C266.869 175.57 270.963 157.37 271.44 139.368L269.441 139.315ZM215.14 243.226C177.105 271.187 125.388 278.066 79.5832 256.729L78.7387 258.542C125.232 280.2 177.725 273.214 216.325 244.838L215.14 243.226Z" fill="url(#paint0_linear_142_1962)"/>
<defs>
<linearGradient id="paint0_linear_142_1962" x1="132.922" y1="-14.0752" x2="152.56" y2="298.998" gradientUnits="userSpaceOnUse">
<stop stop-color="#0044FF"/>
<stop offset="1" stop-color="#00A3FF"/>
</linearGradient>
</defs>
</svg>
