<svg width="153" height="157" viewBox="0 0 153 157" fill="none" xmlns="http://www.w3.org/2000/svg">
<path d="M30.125 110L11.125 130.5C3.73034 137.895 14.625 149.959 21.625 142L50.625 113M62.1249 110L24.6249 147.5C21.4582 149.833 13.3249 152.7 6.12491 145.5C-1.07509 138.3 3.12491 129.833 6.12491 126.5L50.625 81L58.125 88C54.9583 93 51.3248 104.4 62.1249 110ZM67.125 65L86.125 46C86.7917 45.3333 87.925 42.5 87.125 36.5C86.125 29 90.125 14 99.625 8.00001C109.125 2.00001 127.125 -2.49999 140.125 9.50001L108.625 29.5L118.625 47.5L151.625 32C152.792 38 151.625 52.2 137.625 61C120.125 72 110.625 63.5 107.125 66.5C104.325 68.9 98.9583 74.5 96.625 77C94.125 72.1667 86.125 64.5 74.125 72.5L67.125 65Z" stroke="url(#paint0_linear_110_597)" stroke-width="2" stroke-linejoin="round"/>
<path d="M81.6253 121.5L113.125 153C116.725 156.6 125.125 156.167 127.125 154.5C130.125 152 136.825 146.3 139.625 143.5C142.425 140.7 142.125 131.045 139.625 128.5C130.458 119.167 109.625 98.5 107.625 96.5C105.125 94 93.125 96 90.625 82C89.1218 73.5821 82.9583 74.8333 80.125 76.5L74.125 82C59.4583 67.8333 29.725 39.1 28.125 37.5C26.525 35.9 25.125 30.8333 24.625 28.5L8.625 15H6.125L1.125 19.5V22L15.125 39.5C18.725 39.9 21.2917 41.6669 22.125 42.5003L68.125 88.5003L61.1253 95.5C59.5253 99.9 63.1253 103.667 65.1253 105C67.6253 105 73.5253 105.9 77.1253 109.5C80.7253 113.1 79.625 119.5 81.6253 121.5Z" stroke="url(#paint1_linear_110_597)" stroke-width="2" stroke-linejoin="round"/>
<defs>
<linearGradient id="paint0_linear_110_597" x1="20.2782" y1="-3.83432" x2="144.584" y2="157.726" gradientUnits="userSpaceOnUse">
<stop stop-color="#0044FF"/>
<stop offset="1" stop-color="#00A3FF"/>
</linearGradient>
<linearGradient id="paint1_linear_110_597" x1="18.125" y1="9.5" x2="136.625" y2="161.5" gradientUnits="userSpaceOnUse">
<stop stop-color="#0044FF"/>
<stop offset="1" stop-color="#00A3FF"/>
</linearGradient>
</defs>
</svg>
