<svg width="185" height="179" viewBox="0 0 185 179" fill="none" xmlns="http://www.w3.org/2000/svg">
<path d="M31.125 77C27.6182 78.7674 29.2655 82.1509 23.625 83.5C17.9845 84.8491 21.7035 88.283 16.125 90C10.5465 91.717 13.2738 96.1321 8.625 96.5C3.97624 96.8679 4.41446 100.987 1.125 103" stroke="url(#paint0_linear_110_633)" stroke-width="2" stroke-linecap="round" stroke-linejoin="round"/>
<path d="M44.125 89C40.6182 90.7674 42.2655 94.1509 36.625 95.5C30.9845 96.8491 34.7035 100.283 29.125 102C23.5465 103.717 26.2738 108.132 21.625 108.5C16.9762 108.868 17.4145 112.987 14.125 115" stroke="url(#paint1_linear_110_633)" stroke-width="2" stroke-linecap="round" stroke-linejoin="round"/>
<path d="M57.125 100C53.6182 101.767 55.2655 105.151 49.625 106.5C43.9845 107.849 47.7035 111.283 42.125 113C36.5465 114.717 39.2738 119.132 34.625 119.5C29.9762 119.868 30.4145 123.987 27.125 126" stroke="url(#paint2_linear_110_633)" stroke-width="2" stroke-linecap="round" stroke-linejoin="round"/>
<path d="M70.125 110C66.6182 111.767 68.2655 115.151 62.625 116.5C56.9845 117.849 60.7035 121.283 55.125 123C49.5465 124.717 52.2738 129.132 47.625 129.5C42.9762 129.868 43.4145 133.987 40.125 136" stroke="url(#paint3_linear_110_633)" stroke-width="2" stroke-linecap="round" stroke-linejoin="round"/>
<path d="M81.125 120C77.6182 121.767 79.2655 125.151 73.625 126.5C67.9845 127.849 71.7035 131.283 66.125 133C60.5465 134.717 63.2738 139.132 58.625 139.5C53.9762 139.868 54.4145 143.987 51.125 146" stroke="url(#paint4_linear_110_633)" stroke-width="2" stroke-linecap="round" stroke-linejoin="round"/>
<path d="M93.125 130C89.6182 131.767 91.2655 135.151 85.625 136.5C79.9845 137.849 83.7035 141.283 78.125 143C72.5465 144.717 75.2738 149.132 70.625 149.5C65.9762 149.868 66.4145 153.987 63.125 156" stroke="url(#paint5_linear_110_633)" stroke-width="2" stroke-linecap="round" stroke-linejoin="round"/>
<path d="M106.625 141.5C103.118 143.267 105.265 146.151 99.625 147.5C93.9845 148.849 97.7035 152.283 92.125 154C86.5465 155.717 89.2738 160.132 84.625 160.5C79.9762 160.868 80.4145 164.987 77.125 167" stroke="url(#paint6_linear_110_633)" stroke-width="2" stroke-linecap="round" stroke-linejoin="round"/>
<path d="M119.125 152C115.618 153.767 117.265 157.151 111.625 158.5C105.985 159.849 109.704 163.283 104.125 165C98.5465 166.717 101.274 171.132 96.625 171.5C91.9762 171.868 92.4145 175.987 89.125 178" stroke="url(#paint7_linear_110_633)" stroke-width="2" stroke-linecap="round" stroke-linejoin="round"/>
<path d="M38.125 83C34.7351 84.7674 36.3275 88.1509 30.875 89.5C25.4225 90.8491 29.0176 94.283 23.625 96C18.2324 97.717 20.8688 102.132 16.375 102.5C11.8812 102.868 12.3048 106.987 9.125 109" stroke="url(#paint8_linear_110_633)" stroke-width="2" stroke-linecap="round" stroke-linejoin="round"/>
<path d="M50.125 94C46.7351 95.7674 48.3275 99.1509 42.875 100.5C37.4225 101.849 41.0176 105.283 35.625 107C30.2324 108.717 32.8688 113.132 28.375 113.5C23.8812 113.868 24.3048 117.987 21.125 120" stroke="url(#paint9_linear_110_633)" stroke-width="2" stroke-linecap="round" stroke-linejoin="round"/>
<path d="M63.125 105C59.7351 106.767 61.3275 110.151 55.875 111.5C50.4225 112.849 54.0176 116.283 48.625 118C43.2324 119.717 45.8688 124.132 41.375 124.5C36.8812 124.868 37.3048 128.987 34.125 131" stroke="url(#paint10_linear_110_633)" stroke-width="2" stroke-linecap="round" stroke-linejoin="round"/>
<path d="M76.125 115C72.7351 116.767 74.3275 120.151 68.875 121.5C63.4225 122.849 67.0176 126.283 61.625 128C56.2324 129.717 58.8688 134.132 54.375 134.5C49.8812 134.868 50.3048 138.987 47.125 141" stroke="url(#paint11_linear_110_633)" stroke-width="2" stroke-linecap="round" stroke-linejoin="round"/>
<path d="M87.125 125C83.7351 126.767 85.3275 130.151 79.875 131.5C74.4225 132.849 78.0176 136.283 72.625 138C67.2324 139.717 69.8688 144.132 65.375 144.5C60.8812 144.868 61.3048 148.987 58.125 151" stroke="url(#paint12_linear_110_633)" stroke-width="2" stroke-linecap="round" stroke-linejoin="round"/>
<path d="M99.125 136C95.7351 137.767 97.3275 141.151 91.875 142.5C86.4225 143.849 90.0176 147.283 84.625 149C79.2324 150.717 81.8688 155.132 77.375 155.5C72.8812 155.868 73.3048 159.987 70.125 162" stroke="url(#paint13_linear_110_633)" stroke-width="2" stroke-linecap="round" stroke-linejoin="round"/>
<path d="M112.125 147C108.735 148.767 110.327 152.151 104.875 153.5C99.4225 154.849 103.018 158.283 97.625 160C92.2324 161.717 94.8688 166.132 90.375 166.5C85.8812 166.868 86.3048 170.987 83.125 173" stroke="url(#paint14_linear_110_633)" stroke-width="2" stroke-linecap="round" stroke-linejoin="round"/>
<path d="M88.125 91.0688L177.125 2.06874C180.125 -0.931244 185.425 2.96874 182.625 6.56874C179.825 10.1687 122.125 67.4021 93.625 95.5688" stroke="url(#paint15_linear_110_633)" stroke-width="2" stroke-linejoin="round"/>
<path d="M41.625 66L31.125 76.5L119.625 152C120.625 150.5 124.025 146.1 129.625 140.5C135.225 134.9 129.958 127.167 126.625 124C105.958 106.333 63.325 69.7 58.125 64.5C52.925 59.3 44.9583 63.3333 41.625 66Z" stroke="url(#paint16_linear_110_633)" stroke-width="2" stroke-linejoin="round"/>
<defs>
<linearGradient id="paint0_linear_110_633" x1="4.75517" y1="75.984" x2="25.6831" y2="107.015" gradientUnits="userSpaceOnUse">
<stop stop-color="#0044FF"/>
<stop offset="1" stop-color="#00A3FF"/>
</linearGradient>
<linearGradient id="paint1_linear_110_633" x1="17.7552" y1="87.984" x2="38.6831" y2="119.015" gradientUnits="userSpaceOnUse">
<stop stop-color="#0044FF"/>
<stop offset="1" stop-color="#00A3FF"/>
</linearGradient>
<linearGradient id="paint2_linear_110_633" x1="30.7552" y1="98.984" x2="51.6831" y2="130.015" gradientUnits="userSpaceOnUse">
<stop stop-color="#0044FF"/>
<stop offset="1" stop-color="#00A3FF"/>
</linearGradient>
<linearGradient id="paint3_linear_110_633" x1="43.7552" y1="108.984" x2="64.6831" y2="140.015" gradientUnits="userSpaceOnUse">
<stop stop-color="#0044FF"/>
<stop offset="1" stop-color="#00A3FF"/>
</linearGradient>
<linearGradient id="paint4_linear_110_633" x1="54.7552" y1="118.984" x2="75.6831" y2="150.015" gradientUnits="userSpaceOnUse">
<stop stop-color="#0044FF"/>
<stop offset="1" stop-color="#00A3FF"/>
</linearGradient>
<linearGradient id="paint5_linear_110_633" x1="66.7552" y1="128.984" x2="87.6831" y2="160.015" gradientUnits="userSpaceOnUse">
<stop stop-color="#0044FF"/>
<stop offset="1" stop-color="#00A3FF"/>
</linearGradient>
<linearGradient id="paint6_linear_110_633" x1="80.7552" y1="139.984" x2="101.683" y2="171.015" gradientUnits="userSpaceOnUse">
<stop stop-color="#0044FF"/>
<stop offset="1" stop-color="#00A3FF"/>
</linearGradient>
<linearGradient id="paint7_linear_110_633" x1="92.7552" y1="150.984" x2="113.683" y2="182.015" gradientUnits="userSpaceOnUse">
<stop stop-color="#0044FF"/>
<stop offset="1" stop-color="#00A3FF"/>
</linearGradient>
<linearGradient id="paint8_linear_110_633" x1="12.6342" y1="81.984" x2="33.8191" y2="112.349" gradientUnits="userSpaceOnUse">
<stop stop-color="#0044FF"/>
<stop offset="1" stop-color="#00A3FF"/>
</linearGradient>
<linearGradient id="paint9_linear_110_633" x1="24.6342" y1="92.984" x2="45.8191" y2="123.349" gradientUnits="userSpaceOnUse">
<stop stop-color="#0044FF"/>
<stop offset="1" stop-color="#00A3FF"/>
</linearGradient>
<linearGradient id="paint10_linear_110_633" x1="37.6342" y1="103.984" x2="58.8191" y2="134.349" gradientUnits="userSpaceOnUse">
<stop stop-color="#0044FF"/>
<stop offset="1" stop-color="#00A3FF"/>
</linearGradient>
<linearGradient id="paint11_linear_110_633" x1="50.6342" y1="113.984" x2="71.8191" y2="144.349" gradientUnits="userSpaceOnUse">
<stop stop-color="#0044FF"/>
<stop offset="1" stop-color="#00A3FF"/>
</linearGradient>
<linearGradient id="paint12_linear_110_633" x1="61.6342" y1="123.984" x2="82.8191" y2="154.349" gradientUnits="userSpaceOnUse">
<stop stop-color="#0044FF"/>
<stop offset="1" stop-color="#00A3FF"/>
</linearGradient>
<linearGradient id="paint13_linear_110_633" x1="73.6342" y1="134.984" x2="94.8191" y2="165.349" gradientUnits="userSpaceOnUse">
<stop stop-color="#0044FF"/>
<stop offset="1" stop-color="#00A3FF"/>
</linearGradient>
<linearGradient id="paint14_linear_110_633" x1="86.6342" y1="145.984" x2="107.819" y2="176.349" gradientUnits="userSpaceOnUse">
<stop stop-color="#0044FF"/>
<stop offset="1" stop-color="#00A3FF"/>
</linearGradient>
<linearGradient id="paint15_linear_110_633" x1="104.895" y1="-7.4092" x2="179.794" y2="88.84" gradientUnits="userSpaceOnUse">
<stop stop-color="#0044FF"/>
<stop offset="1" stop-color="#00A3FF"/>
</linearGradient>
<linearGradient id="paint16_linear_110_633" x1="43.3414" y1="58.4607" x2="116.552" y2="163.969" gradientUnits="userSpaceOnUse">
<stop stop-color="#0044FF"/>
<stop offset="1" stop-color="#00A3FF"/>
</linearGradient>
</defs>
</svg>
