<svg width="197" height="139" viewBox="0 0 197 139" fill="none" xmlns="http://www.w3.org/2000/svg">
<path d="M127.188 80.6697L113.527 72.7219L33.5595 118.925C29.9408 121.2 22.4574 127.228 25.1365 131.344C28.7085 136.832 39.6129 137.761 45.6937 136.228L157.061 98.2686L133.24 83.9884L132.72 83.5515M127.188 80.6697L124.189 58.641C124.011 56.7178 124.649 53.2643 125.939 51.69M127.188 80.6697C125.082 83.7743 129.621 86.2633 132.72 83.5515M125.939 51.69C125.805 50.2476 124.722 48.8932 126.057 47.7997C128.252 45.6566 132.873 40.7671 133.798 38.3538M125.939 51.69C127.204 51.5728 129.72 52.2126 129.662 55.7093M133.798 38.3538C134.955 35.3371 168.397 3.62805 176.376 1.91889C184.355 0.209737 186.104 7.81051 186.106 8.77612C186.122 14.1088 172.434 26.5304 165.33 32.5227C159.647 37.3166 147.4 45.6605 141.987 49.2333M133.798 38.3538C137.506 37.0404 143.315 42.9032 141.987 49.2333M141.987 49.2333L131.086 55.5774C130.626 55.7817 129.698 56.094 129.662 55.7093M129.662 55.7093C129.232 56.2341 129.401 58.0611 129.722 61.5229L132.72 83.5515M146.125 41.5C157.125 32.8333 179.425 14.5 180.625 10.5C181.825 6.5 176.792 6.16667 174.125 6.5" stroke="url(#paint0_linear_110_677)" stroke-width="2" stroke-linecap="round" stroke-linejoin="round"/>
<rect x="1.49103" y="82.5495" width="14.367" height="25.0685" transform="rotate(-30 1.49103 82.5495)" stroke="url(#paint1_linear_110_677)" stroke-width="2"/>
<rect x="5.49103" y="31.4095" width="16.087" height="34.7387" transform="rotate(-30 5.49103 31.4095)" stroke="url(#paint2_linear_110_677)" stroke-width="2"/>
<rect x="49.491" y="54.2154" width="12.3093" height="27.2709" transform="rotate(-30 49.491 54.2154)" stroke="url(#paint3_linear_110_677)" stroke-width="2"/>
<rect x="64.491" y="29.7414" width="19.9171" height="42.2415" transform="rotate(-30 64.491 29.7414)" stroke="url(#paint4_linear_110_677)" stroke-width="2"/>
<rect x="34.491" y="19.8697" width="9.0074" height="16.2046" transform="rotate(-30 34.491 19.8697)" stroke="url(#paint5_linear_110_677)" stroke-width="2"/>
<rect x="30.491" y="75.8697" width="9.0074" height="16.2046" transform="rotate(-30 30.491 75.8697)" stroke="url(#paint6_linear_110_677)" stroke-width="2"/>
<defs>
<linearGradient id="paint0_linear_110_677" x1="69.8514" y1="33.0134" x2="33.148" y2="216.364" gradientUnits="userSpaceOnUse">
<stop stop-color="#0044FF"/>
<stop offset="1" stop-color="#00A3FF"/>
</linearGradient>
<linearGradient id="paint1_linear_110_677" x1="8.3085" y1="82.1834" x2="8.3085" y2="109.252" gradientUnits="userSpaceOnUse">
<stop stop-color="#0044FF"/>
<stop offset="1" stop-color="#0D34A0"/>
</linearGradient>
<linearGradient id="paint2_linear_110_677" x1="13.1685" y1="31.0435" x2="13.1685" y2="67.7822" gradientUnits="userSpaceOnUse">
<stop stop-color="#0044FF"/>
<stop offset="1" stop-color="#0D34A0"/>
</linearGradient>
<linearGradient id="paint3_linear_110_677" x1="55.2796" y1="53.8493" x2="55.2796" y2="83.1203" gradientUnits="userSpaceOnUse">
<stop stop-color="#0044FF"/>
<stop offset="1" stop-color="#0D34A0"/>
</linearGradient>
<linearGradient id="paint4_linear_110_677" x1="74.0836" y1="29.3754" x2="74.0836" y2="73.6169" gradientUnits="userSpaceOnUse">
<stop stop-color="#0044FF"/>
<stop offset="1" stop-color="#0D34A0"/>
</linearGradient>
<linearGradient id="paint5_linear_110_677" x1="38.6287" y1="19.5037" x2="38.6287" y2="37.7083" gradientUnits="userSpaceOnUse">
<stop stop-color="#0044FF"/>
<stop offset="1" stop-color="#0D34A0"/>
</linearGradient>
<linearGradient id="paint6_linear_110_677" x1="34.6287" y1="75.5036" x2="34.6287" y2="93.7082" gradientUnits="userSpaceOnUse">
<stop stop-color="#0044FF"/>
<stop offset="1" stop-color="#0D34A0"/>
</linearGradient>
</defs>
</svg>
