<svg width="175" height="159" viewBox="0 0 175 159" fill="none" xmlns="http://www.w3.org/2000/svg">
<path d="M121.492 50.989L143.924 28.5572C152.148 36.0344 169.316 52.1554 172.187 56.8213C175.058 61.4871 173.084 66.8408 171.738 68.9344L140.334 99.4417L109.378 68.9344H89.6379L80.2165 78.3558C77.824 79.2531 72.052 80.2401 68.104 77.0099C64.156 73.7797 66.1599 67.8876 67.6554 65.3454C71.394 61.9058 79.2302 54.6678 80.6658 53.2322C82.1015 51.7965 84.8531 51.1385 86.0495 50.989H121.492Z" stroke="url(#paint0_linear_110_612)" stroke-width="2" stroke-linejoin="round"/>
<path d="M87.0936 116.605C84.2023 119.771 81.2912 122.181 78.5658 123.261C77.2174 123.795 75.9497 123.99 74.7656 123.822C73.5904 123.656 72.4275 123.122 71.2919 122.085C69.7622 120.688 69.0397 119.405 68.8042 118.22C68.569 117.037 68.7925 115.818 69.41 114.495C70.033 113.161 71.0329 111.774 72.2754 110.293C73.2152 109.174 74.2615 108.038 75.355 106.851C75.7088 106.467 76.0676 106.077 76.4293 105.681C79.3731 102.458 82.0688 99.7303 84.7455 98.3831C86.0581 97.7225 87.319 97.4201 88.571 97.5299C89.8194 97.6395 91.1532 98.1671 92.601 99.3253C94.1349 100.552 94.8435 101.795 95.0595 103.017C95.2791 104.259 95.0143 105.621 94.3349 107.116C92.9556 110.152 90.0524 113.365 87.0936 116.605Z" stroke="url(#paint1_linear_110_612)" stroke-width="2"/>
<path d="M97.6826 127.844C95.0005 130.781 92.3064 133.008 89.7911 134.006C88.5478 134.498 87.3835 134.676 86.2991 134.523C85.2237 134.37 84.157 133.882 83.1121 132.928C81.6995 131.637 81.039 130.459 80.8241 129.378C80.6096 128.299 80.8123 127.182 81.3813 125.963C81.9558 124.733 82.8795 123.451 84.0318 122.078C84.9032 121.04 85.8731 119.987 86.8881 118.885C87.2168 118.528 87.5503 118.166 87.8866 117.798C90.6213 114.803 93.1158 112.281 95.5874 111.037C96.7975 110.428 97.9549 110.152 99.101 110.252C100.243 110.353 101.469 110.836 102.804 111.904C104.218 113.035 104.864 114.174 105.061 115.288C105.262 116.422 105.021 117.672 104.394 119.052C103.119 121.858 100.432 124.833 97.6826 127.844Z" stroke="url(#paint2_linear_110_612)" stroke-width="2"/>
<path d="M106.057 139.398C103.602 142.087 101.143 144.117 98.8558 145.024C97.7265 145.471 96.6743 145.631 95.6981 145.493C94.7309 145.355 93.7685 144.916 92.822 144.052C91.5365 142.878 90.9434 141.812 90.7508 140.844C90.5586 139.878 90.7388 138.873 91.2552 137.767C91.7771 136.649 92.6181 135.48 93.6725 134.224C94.4697 133.274 95.3568 132.311 96.2866 131.302C96.5881 130.975 96.8941 130.642 97.203 130.304C99.7108 127.558 101.987 125.259 104.236 124.127C105.335 123.574 106.38 123.326 107.411 123.416C108.439 123.506 109.547 123.941 110.76 124.912C112.043 125.938 112.622 126.965 112.799 127.962C112.978 128.98 112.764 130.107 112.193 131.363C111.031 133.92 108.58 136.636 106.057 139.398Z" stroke="url(#paint3_linear_110_612)" stroke-width="2"/>
<path d="M73.2538 106.667C70.6359 109.533 68.0086 111.705 65.5579 112.676C64.3469 113.156 63.2144 113.329 62.1607 113.18C61.1159 113.032 60.0788 112.557 59.0617 111.628C57.6852 110.371 57.0438 109.225 56.8353 108.176C56.627 107.128 56.8234 106.044 57.3775 104.857C57.9371 103.658 58.8373 102.408 59.9619 101.068C60.8122 100.056 61.7586 99.028 62.7495 97.9522C63.0705 97.6037 63.3962 97.2501 63.7248 96.8903C66.3951 93.9663 68.8278 91.5074 71.2363 90.2952C72.4149 89.7021 73.5404 89.4337 74.654 89.5314C75.7638 89.6288 76.9559 90.098 78.2568 91.1388C79.6335 92.2401 80.2608 93.3475 80.4519 94.4282C80.6465 95.5295 80.4132 96.7441 79.802 98.0893C78.5591 100.825 75.9392 103.726 73.2538 106.667Z" stroke="url(#paint4_linear_110_612)" stroke-width="2"/>
<path d="M101.303 71.6263L155.139 125.463C160.074 130.398 163.753 142.87 155.139 151.484C146.526 160.097 132.708 159.11 127.324 154.624L111.622 138.922M63.1683 90.917L47.4666 75.2154C39.2416 77.309 20.0998 77.9072 9.33254 63.5508C-1.43474 49.1945 0.658899 30.6508 3.05163 23.1735L31.625 49L50.625 32.5L23.2396 2.98489C33.8571 -0.00601864 57.8738 -1.86038 69.0005 14.6494C80.1272 31.1593 78.123 43.0631 75.7301 46.9513L79.3192 50.5404M102.2 81.4963L150.652 129.949C152.746 133.089 155.228 141.075 148.409 147.894C141.59 154.714 133.754 149.39 129.118 144.305" stroke="url(#paint5_linear_110_612)" stroke-width="2" stroke-linejoin="round"/>
<defs>
<linearGradient id="paint0_linear_110_612" x1="78.8509" y1="25.7872" x2="128.745" y2="123.351" gradientUnits="userSpaceOnUse">
<stop stop-color="#0044FF"/>
<stop offset="1" stop-color="#00A3FF"/>
</linearGradient>
<linearGradient id="paint1_linear_110_612" x1="92.7244" y1="100.812" x2="71.5466" y2="124.001" gradientUnits="userSpaceOnUse">
<stop stop-color="#0044FF"/>
<stop offset="1" stop-color="#00A3FF"/>
</linearGradient>
<linearGradient id="paint2_linear_110_612" x1="102.964" y1="113.229" x2="83.3003" y2="134.76" gradientUnits="userSpaceOnUse">
<stop stop-color="#0044FF"/>
<stop offset="1" stop-color="#00A3FF"/>
</linearGradient>
<linearGradient id="paint3_linear_110_612" x1="110.958" y1="126.06" x2="92.9381" y2="145.792" gradientUnits="userSpaceOnUse">
<stop stop-color="#0044FF"/>
<stop offset="1" stop-color="#00A3FF"/>
</linearGradient>
<linearGradient id="paint4_linear_110_612" x1="78.4271" y1="92.4135" x2="59.2296" y2="113.435" gradientUnits="userSpaceOnUse">
<stop stop-color="#0044FF"/>
<stop offset="1" stop-color="#00A3FF"/>
</linearGradient>
<linearGradient id="paint5_linear_110_612" x1="20.3874" y1="-5.13518" x2="152.054" y2="166.417" gradientUnits="userSpaceOnUse">
<stop stop-color="#0044FF"/>
<stop offset="1" stop-color="#00A3FF"/>
</linearGradient>
</defs>
</svg>
