<svg width="81" height="9" viewBox="0 0 81 9" fill="none" xmlns="http://www.w3.org/2000/svg">
<path d="M4.28162 6.49145L4.34465 5.99544L4.34465 5.99544L4.28162 6.49145ZM76.9466 4.05218L77.0365 4.54404L77.0486 4.54182L77.0606 4.53902L76.9466 4.05218ZM80.7628 3.52177C80.9084 3.28714 80.8362 2.97889 80.6016 2.83329L76.7779 0.460521C76.5433 0.314917 76.2351 0.387091 76.0895 0.621727C75.9439 0.856362 76.016 1.16461 76.2507 1.31021L79.6494 3.41934L77.5403 6.8181C77.3947 7.05274 77.4669 7.36098 77.7015 7.50659C77.9361 7.65219 78.2444 7.58002 78.39 7.34538L80.7628 3.52177ZM0.963679 6.57386L4.21859 6.98747L4.34465 5.99544L1.08974 5.58183L0.963679 6.57386ZM4.21859 6.98747C7.47218 7.40091 14.0424 8.23776 20.7432 7.29541L20.604 6.30516C14.0503 7.22682 7.60086 6.40922 4.34465 5.99544L4.21859 6.98747ZM20.7432 7.29541C24.0822 6.82585 27.47 5.90965 30.7694 5.18196C34.0919 4.44919 37.3544 3.89902 40.5481 4.11221L40.6147 3.11443C37.2725 2.89133 33.8947 3.46864 30.5541 4.20543C27.1904 4.94729 23.8923 5.84271 20.604 6.30516L20.7432 7.29541ZM40.5481 4.11221C43.749 4.32588 46.9061 5.30587 50.1425 6.26214C53.3554 7.2115 56.6418 8.13551 60.003 8.15874L60.0099 7.15876C56.8091 7.13664 53.6509 6.25608 50.4258 5.30313C47.2241 4.3571 43.9497 3.33705 40.6147 3.11443L40.5481 4.11221ZM60.003 8.15874C63.3543 8.18189 66.503 7.47365 69.3636 6.66604C72.2553 5.84967 74.7871 4.95506 77.0365 4.54404L76.8567 3.56033C74.5474 3.98231 71.8902 4.91365 69.0919 5.70365C66.2627 6.5024 63.2207 7.18095 60.0099 7.15876L60.003 8.15874ZM77.0606 4.53902L80.4519 3.74497L80.2239 2.7713L76.8326 3.56535L77.0606 4.53902Z" fill="url(#paint0_linear_75_1344)"/>
<defs>
<linearGradient id="paint0_linear_75_1344" x1="6.70869" y1="2.0009" x2="94.4285" y2="3.85911" gradientUnits="userSpaceOnUse">
<stop stop-color="#0038FF"/>
<stop offset="1" stop-color="#00A3FF"/>
</linearGradient>
</defs>
</svg>
