<svg width="67" height="64" viewBox="0 0 67 64" fill="none" xmlns="http://www.w3.org/2000/svg">
<path d="M32.4239 2.16312C32.7233 1.2418 34.0267 1.24182 34.3261 2.16312L40.731 21.8754C41.1326 23.1115 42.2845 23.9483 43.5841 23.9483H64.3108C65.2796 23.9483 65.6823 25.188 64.8986 25.7574L48.1304 37.9402C47.0789 38.7041 46.6389 40.0582 47.0406 41.2943L53.4454 61.0066C53.7448 61.9279 52.6903 62.694 51.9066 62.1246L35.1384 49.9418C34.0869 49.1778 32.6631 49.1778 31.6116 49.9418L14.8434 62.1246C14.0597 62.694 13.0052 61.9279 13.3045 61.0066L19.7094 41.2943C20.1111 40.0582 19.6711 38.7041 18.6196 37.9402L1.85138 25.7574C1.06766 25.188 1.47044 23.9483 2.43916 23.9483H23.1659C24.4655 23.9483 25.6174 23.1115 26.019 21.8754L32.4239 2.16312Z" stroke="url(#paint0_linear_131_1183)" stroke-width="2"/>
<defs>
<linearGradient id="paint0_linear_131_1183" x1="19.5083" y1="10.7333" x2="46.8083" y2="61" gradientUnits="userSpaceOnUse">
<stop stop-color="#0044FF"/>
<stop offset="1" stop-color="#00A3FF"/>
</linearGradient>
</defs>
</svg>
