<?xml version="1.0" encoding="UTF-8" standalone="no"?>
<svg
   width="402.94135"
   height="155.51587"
   viewBox="0 0 402.94135 155.51587"
   fill="none"
   version="1.1"
   id="svg31"
   sodipodi:docname="step-3.svg"
   inkscape:version="1.1.1 (3bf5ae0d25, 2021-09-20)"
   xmlns:inkscape="http://www.inkscape.org/namespaces/inkscape"
   xmlns:sodipodi="http://sodipodi.sourceforge.net/DTD/sodipodi-0.dtd"
   xmlns="http://www.w3.org/2000/svg"
   xmlns:svg="http://www.w3.org/2000/svg">
  <sodipodi:namedview
     id="namedview33"
     pagecolor="#ffffff"
     bordercolor="#666666"
     borderopacity="1.0"
     inkscape:pageshadow="2"
     inkscape:pageopacity="0.0"
     inkscape:pagecheckerboard="0"
     showgrid="false"
     inkscape:zoom="2.7234848"
     inkscape:cx="200.66203"
     inkscape:cy="132"
     inkscape:window-width="1920"
     inkscape:window-height="1001"
     inkscape:window-x="-9"
     inkscape:window-y="-9"
     inkscape:window-maximized="1"
     inkscape:current-layer="svg31" />
  <rect
     x="0.89349002"
     y="0.89349002"
     width="267.15399"
     height="61.650902"
     rx="29.9555"
     stroke="url(#paint0_linear_134_1300)"
     stroke-width="1.78698"
     id="rect2"
     style="stroke:url(#paint0_linear_134_1300)" />
  <rect
     x="134.89388"
     y="91.893501"
     width="267.15399"
     height="61.650902"
     rx="29.9555"
     stroke="url(#paint1_linear_134_1300)"
     stroke-width="1.78698"
     id="rect4"
     style="stroke:url(#paint1_linear_134_1300)" />
  <path
     d="m 64.66397,32.365999 c 0,1.3053 -0.1906,2.4567 -0.572,3.454 -0.3813,0.9973 -0.902,1.8333 -1.562,2.508 -0.6453,0.66 -1.4006,1.1587 -2.266,1.496 -0.8653,0.3373 -1.782,0.506 -2.75,0.506 -0.968,0 -1.8846,-0.1687 -2.75,-0.506 -0.8653,-0.3373 -1.628,-0.836 -2.288,-1.496 -0.6453,-0.6747 -1.1586,-1.5107 -1.54,-2.508 -0.3813,-0.9973 -0.572,-2.1487 -0.572,-3.454 0,-1.3053 0.1907,-2.4493 0.572,-3.432 0.3814,-0.9973 0.8947,-1.826 1.54,-2.486 0.66,-0.6747 1.4227,-1.1807 2.288,-1.518 0.8654,-0.3373 1.782,-0.506 2.75,-0.506 0.968,0 1.8847,0.1687 2.75,0.506 0.8654,0.3373 1.6207,0.8433 2.266,1.518 0.66,0.66 1.1807,1.4887 1.562,2.486 0.3814,0.9827 0.572,2.1267 0.572,3.432 z m -1.584,0 c 0,-1.0267 -0.132,-1.9433 -0.396,-2.75 -0.264,-0.8213 -0.638,-1.518 -1.122,-2.09 -0.484,-0.572 -1.0706,-1.0047 -1.76,-1.298 -0.6746,-0.308 -1.4373,-0.462 -2.288,-0.462 -0.8506,0 -1.6206,0.154 -2.31,0.462 -0.6746,0.2933 -1.254,0.726 -1.738,1.298 -0.484,0.572 -0.858,1.2687 -1.122,2.09 -0.264,0.8067 -0.396,1.7233 -0.396,2.75 0,1.0267 0.132,1.9507 0.396,2.772 0.264,0.8067 0.638,1.496 1.122,2.068 0.484,0.572 1.0634,1.012 1.738,1.32 0.6894,0.308 1.4594,0.462 2.31,0.462 0.8507,0 1.6134,-0.154 2.288,-0.462 0.6894,-0.308 1.276,-0.748 1.76,-1.32 0.484,-0.572 0.858,-1.2613 1.122,-2.068 0.264,-0.8213 0.396,-1.7453 0.396,-2.772 z m 11.9551,-3.806 c 0.7627,0 1.5254,0.1173 2.288,0.352 0.7627,0.22 1.4447,0.5647 2.046,1.034 0.616,0.4693 1.1147,1.0707 1.496,1.804 0.3814,0.7187 0.572,1.5767 0.572,2.574 0,0.9973 -0.1906,1.8627 -0.572,2.596 -0.3813,0.7187 -0.88,1.3127 -1.496,1.782 -0.6013,0.4693 -1.2833,0.8213 -2.046,1.056 -0.7626,0.22 -1.5253,0.33 -2.288,0.33 v 3.982 h -1.408 v -3.982 c -0.7626,0 -1.5253,-0.11 -2.288,-0.33 -0.7626,-0.2347 -1.452,-0.5867 -2.068,-1.056 -0.6013,-0.4693 -1.0926,-1.0633 -1.474,-1.782 -0.3813,-0.7333 -0.572,-1.5987 -0.572,-2.596 0,-0.9973 0.1907,-1.8553 0.572,-2.574 0.3814,-0.7333 0.8727,-1.3347 1.474,-1.804 0.616,-0.4693 1.3054,-0.814 2.068,-1.034 0.7627,-0.2347 1.5254,-0.352 2.288,-0.352 v -5.368 l 1.408,-0.264 z m -1.408,1.21 c -0.6893,0 -1.3346,0.11 -1.936,0.33 -0.6013,0.2053 -1.122,0.506 -1.562,0.902 -0.44,0.3813 -0.7846,0.858 -1.034,1.43 -0.2493,0.5573 -0.374,1.188 -0.374,1.892 0,0.704 0.1247,1.342 0.374,1.914 0.2494,0.5573 0.594,1.034 1.034,1.43 0.44,0.3813 0.9607,0.682 1.562,0.902 0.6014,0.2053 1.2467,0.308 1.936,0.308 z m 1.408,9.108 c 0.6894,0 1.3347,-0.1027 1.936,-0.308 0.6014,-0.22 1.122,-0.5207 1.562,-0.902 0.44,-0.396 0.7847,-0.8727 1.034,-1.43 0.2494,-0.572 0.374,-1.21 0.374,-1.914 0,-0.704 -0.1246,-1.3347 -0.374,-1.892 -0.2493,-0.572 -0.594,-1.0487 -1.034,-1.43 -0.44,-0.396 -0.9606,-0.6967 -1.562,-0.902 -0.6013,-0.22 -1.2466,-0.33 -1.936,-0.33 z m 19.182,-4.554 c 0,0.8947 -0.132,1.7087 -0.396,2.442 -0.2494,0.7333 -0.6087,1.3567 -1.078,1.87 -0.4547,0.5133 -0.9974,0.9167 -1.628,1.21 -0.6307,0.2787 -1.3274,0.418 -2.09,0.418 -0.7627,0 -1.4594,-0.1393 -2.09,-0.418 -0.6307,-0.2933 -1.1807,-0.6967 -1.65,-1.21 -0.4547,-0.5133 -0.814,-1.1367 -1.078,-1.87 -0.2494,-0.7333 -0.374,-1.5473 -0.374,-2.442 0,-0.8947 0.1246,-1.7087 0.374,-2.442 0.264,-0.7333 0.6233,-1.3567 1.078,-1.87 0.4693,-0.528 1.0193,-0.9313 1.65,-1.21 0.6306,-0.2933 1.3273,-0.44 2.09,-0.44 0.7626,0 1.4593,0.1467 2.09,0.44 0.6306,0.2787 1.1733,0.682 1.628,1.21 0.4693,0.5133 0.8286,1.1367 1.078,1.87 0.264,0.7333 0.396,1.5473 0.396,2.442 z m -1.518,0 c 0,-1.4227 -0.33,-2.552 -0.99,-3.388 -0.66,-0.8507 -1.5547,-1.276 -2.684,-1.276 -1.1294,0 -2.024,0.4253 -2.684,1.276 -0.66,0.836 -0.99,1.9653 -0.99,3.388 0,1.4227 0.33,2.552 0.99,3.388 0.66,0.836 1.5546,1.254 2.684,1.254 1.1293,0 2.024,-0.418 2.684,-1.254 0.66,-0.836 0.99,-1.9653 0.99,-3.388 z m 6.0508,3.63 c 0.132,0.1027 0.293,0.2127 0.484,0.33 0.205,0.1173 0.44,0.2273 0.704,0.33 0.264,0.1027 0.55,0.1907 0.858,0.264 0.308,0.0587 0.631,0.088 0.968,0.088 0.704,0 1.291,-0.1173 1.76,-0.352 0.484,-0.2493 0.873,-0.5793 1.166,-0.99 0.293,-0.4253 0.506,-0.9167 0.638,-1.474 0.132,-0.572 0.198,-1.1733 0.198,-1.804 0,-1.496 -0.374,-2.64 -1.122,-3.432 -0.748,-0.8067 -1.738,-1.21 -2.97,-1.21 -0.704,0 -1.276,0.0367 -1.716,0.11 -0.425,0.0587 -0.748,0.1247 -0.968,0.198 z m 0,6.116 h -1.4301 v -15.048 c 0.4253,-0.1467 0.9681,-0.286 1.6281,-0.418 0.66,-0.132 1.496,-0.198 2.508,-0.198 0.836,0 1.591,0.1393 2.266,0.418 0.689,0.264 1.276,0.6527 1.76,1.166 0.499,0.5133 0.88,1.1367 1.144,1.87 0.279,0.7333 0.418,1.562 0.418,2.486 0,0.8653 -0.117,1.6647 -0.352,2.398 -0.22,0.7187 -0.55,1.342 -0.99,1.87 -0.44,0.5133 -0.983,0.9167 -1.628,1.21 -0.631,0.2933 -1.357,0.44 -2.178,0.44 -0.748,0 -1.401,-0.1027 -1.958,-0.308 -0.543,-0.22 -0.939,-0.4253 -1.188,-0.616 z m 16.786,-5.654 c -0.088,-0.22 -0.22,-0.5207 -0.396,-0.902 -0.176,-0.396 -0.374,-0.8287 -0.594,-1.298 -0.205,-0.484 -0.433,-0.99 -0.682,-1.518 -0.249,-0.5427 -0.499,-1.0633 -0.748,-1.562 -0.235,-0.4987 -0.462,-0.968 -0.682,-1.408 -0.22,-0.44 -0.411,-0.7993 -0.572,-1.078 -0.191,1.6867 -0.33,3.2927 -0.418,4.818 -0.088,1.5107 -0.161,3.0213 -0.22,4.532 h -1.342 c 0.059,-1.892 0.154,-3.7987 0.286,-5.72 0.147,-1.9213 0.33,-3.806 0.55,-5.654 h 1.474 c 0.191,0.308 0.433,0.748 0.726,1.32 0.308,0.572 0.638,1.2247 0.99,1.958 0.367,0.7187 0.741,1.5033 1.122,2.354 0.396,0.836 0.792,1.6867 1.188,2.552 0.396,-0.8653 0.785,-1.716 1.166,-2.552 0.396,-0.8507 0.77,-1.6353 1.122,-2.354 0.367,-0.7333 0.697,-1.386 0.99,-1.958 0.293,-0.572 0.543,-1.012 0.748,-1.32 h 1.452 c 0.22,1.848 0.396,3.7327 0.528,5.654 0.147,1.9213 0.249,3.828 0.308,5.72 h -1.364 c -0.059,-1.5107 -0.132,-3.0213 -0.22,-4.532 -0.088,-1.5253 -0.227,-3.1313 -0.418,-4.818 -0.161,0.2933 -0.352,0.66 -0.572,1.1 -0.22,0.4253 -0.455,0.8873 -0.704,1.386 -0.235,0.4987 -0.477,1.0193 -0.726,1.562 -0.249,0.528 -0.484,1.034 -0.704,1.518 -0.205,0.4693 -0.396,0.902 -0.572,1.298 -0.176,0.3813 -0.308,0.682 -0.396,0.902 z m 18.252,-7.964 c -0.44,0.528 -0.953,1.1953 -1.54,2.002 -0.572,0.8067 -1.158,1.6573 -1.76,2.552 -0.586,0.8947 -1.151,1.782 -1.694,2.662 -0.542,0.88 -1.012,1.6573 -1.408,2.332 h -1.342 v -11.374 h 1.408 v 9.108 c 0.352,-0.6307 0.785,-1.3567 1.298,-2.178 0.528,-0.836 1.086,-1.672 1.672,-2.508 0.587,-0.8507 1.174,-1.6647 1.76,-2.442 0.602,-0.7773 1.159,-1.4373 1.672,-1.98 h 1.342 v 11.374 h -1.408 z m 12.516,-1.826 v 1.21 h -3.74 v 10.164 h -1.43 v -10.164 h -3.718 v -1.21 z m 2.213,0 h 1.43 v 4.554 c 0.264,-0.0733 0.653,-0.1467 1.166,-0.22 0.528,-0.088 1.071,-0.132 1.628,-0.132 0.616,0 1.195,0.066 1.738,0.198 0.543,0.132 1.019,0.3447 1.43,0.638 0.411,0.2933 0.733,0.6747 0.968,1.144 0.249,0.4693 0.374,1.0413 0.374,1.716 0,0.6747 -0.125,1.2467 -0.374,1.716 -0.235,0.4693 -0.565,0.858 -0.99,1.166 -0.411,0.2933 -0.909,0.506 -1.496,0.638 -0.572,0.132 -1.188,0.198 -1.848,0.198 -0.396,0 -0.799,-0.0147 -1.21,-0.044 -0.396,-0.0293 -0.77,-0.066 -1.122,-0.11 -0.352,-0.044 -0.675,-0.0953 -0.968,-0.154 -0.293,-0.0587 -0.535,-0.1247 -0.726,-0.198 z m 4.026,10.34 c 0.983,0 1.767,-0.1833 2.354,-0.55 0.587,-0.3813 0.88,-1.012 0.88,-1.892 0,-0.4107 -0.081,-0.77 -0.242,-1.078 -0.161,-0.308 -0.381,-0.5573 -0.66,-0.748 -0.264,-0.2053 -0.587,-0.352 -0.968,-0.44 -0.367,-0.1027 -0.77,-0.154 -1.21,-0.154 -0.484,0 -0.968,0.022 -1.452,0.066 -0.484,0.044 -0.917,0.132 -1.298,0.264 v 4.312 c 0.191,0.044 0.528,0.0953 1.012,0.154 0.484,0.044 1.012,0.066 1.584,0.066 z m 14.878,0 c 1.026,0 1.833,-0.1687 2.42,-0.506 0.586,-0.352 0.88,-0.8727 0.88,-1.562 0,-0.4987 -0.11,-0.8947 -0.33,-1.188 -0.22,-0.2933 -0.499,-0.5207 -0.836,-0.682 -0.323,-0.1613 -0.675,-0.264 -1.056,-0.308 -0.367,-0.0587 -0.704,-0.088 -1.012,-0.088 h -1.584 v -1.21 h 1.474 c 0.264,0 0.564,-0.022 0.902,-0.066 0.352,-0.044 0.674,-0.132 0.968,-0.264 0.293,-0.132 0.542,-0.3153 0.748,-0.55 0.205,-0.2493 0.308,-0.572 0.308,-0.968 0,-0.3813 -0.088,-0.6967 -0.264,-0.946 -0.162,-0.2493 -0.382,-0.4473 -0.66,-0.594 -0.279,-0.1467 -0.602,-0.2493 -0.968,-0.308 -0.352,-0.0587 -0.712,-0.088 -1.078,-0.088 -0.836,0 -1.496,0.088 -1.98,0.264 -0.484,0.1613 -0.814,0.286 -0.99,0.374 l -0.33,-1.276 c 0.205,-0.1027 0.594,-0.2273 1.166,-0.374 0.572,-0.1613 1.283,-0.242 2.134,-0.242 1.452,0 2.552,0.264 3.3,0.792 0.748,0.528 1.122,1.3127 1.122,2.354 0,0.6453 -0.191,1.1733 -0.572,1.584 -0.382,0.396 -0.829,0.6747 -1.342,0.836 0.718,0.2053 1.29,0.55 1.716,1.034 0.425,0.484 0.638,1.122 0.638,1.914 0,1.1293 -0.404,1.9727 -1.21,2.53 -0.807,0.5573 -1.988,0.836 -3.542,0.836 -1.042,0 -1.878,-0.088 -2.508,-0.264 -0.631,-0.176 -1.034,-0.308 -1.21,-0.396 l 0.374,-1.298 c 0.044,0.0293 0.139,0.0807 0.286,0.154 0.161,0.0587 0.381,0.132 0.66,0.22 0.278,0.0733 0.616,0.1393 1.012,0.198 0.396,0.0587 0.85,0.088 1.364,0.088 z m 11.43,0 c 0.558,0 1.042,-0.0147 1.452,-0.044 0.426,-0.044 0.785,-0.0953 1.078,-0.154 v -4.004 c -0.161,-0.0733 -0.418,-0.1467 -0.77,-0.22 -0.352,-0.088 -0.836,-0.132 -1.452,-0.132 -0.352,0 -0.718,0.0293 -1.1,0.088 -0.381,0.044 -0.733,0.154 -1.056,0.33 -0.322,0.1613 -0.586,0.3887 -0.792,0.682 -0.205,0.2933 -0.308,0.682 -0.308,1.166 0,0.4253 0.066,0.7847 0.198,1.078 0.147,0.2933 0.345,0.528 0.594,0.704 0.264,0.176 0.572,0.308 0.924,0.396 0.367,0.0733 0.778,0.11 1.232,0.11 z m -0.132,-10.604 c 0.748,0 1.379,0.11 1.892,0.33 0.528,0.2053 0.954,0.4987 1.276,0.88 0.323,0.3667 0.558,0.8067 0.704,1.32 0.147,0.5133 0.22,1.0707 0.22,1.672 v 7.172 c -0.146,0.044 -0.359,0.0953 -0.638,0.154 -0.278,0.044 -0.601,0.0953 -0.968,0.154 -0.366,0.0587 -0.777,0.1027 -1.232,0.132 -0.44,0.044 -0.894,0.066 -1.364,0.066 -0.601,0 -1.158,-0.066 -1.672,-0.198 -0.498,-0.132 -0.938,-0.3373 -1.32,-0.616 -0.366,-0.2933 -0.66,-0.66 -0.88,-1.1 -0.205,-0.4547 -0.308,-1.0047 -0.308,-1.65 0,-0.616 0.118,-1.144 0.352,-1.584 0.235,-0.44 0.565,-0.7993 0.99,-1.078 0.426,-0.2933 0.932,-0.506 1.518,-0.638 0.587,-0.132 1.225,-0.198 1.914,-0.198 0.206,0 0.418,0.0147 0.638,0.044 0.235,0.0147 0.455,0.044 0.66,0.088 0.22,0.0293 0.404,0.066 0.55,0.11 0.162,0.0293 0.272,0.0587 0.33,0.088 v -0.704 c 0,-0.396 -0.029,-0.7773 -0.088,-1.144 -0.058,-0.3813 -0.19,-0.7187 -0.396,-1.012 -0.19,-0.308 -0.469,-0.55 -0.836,-0.726 -0.352,-0.1907 -0.821,-0.286 -1.408,-0.286 -0.836,0 -1.459,0.0587 -1.87,0.176 -0.41,0.1173 -0.711,0.2127 -0.902,0.286 l -0.198,-1.254 c 0.25,-0.1173 0.631,-0.2273 1.144,-0.33 0.528,-0.1027 1.159,-0.154 1.892,-0.154 z m 7.74,11.638 v -11.374 h 1.43 v 5.258 c 0.41,-0.396 0.865,-0.836 1.364,-1.32 0.513,-0.4987 1.012,-0.99 1.496,-1.474 0.484,-0.4987 0.931,-0.9607 1.342,-1.386 0.425,-0.44 0.762,-0.7993 1.012,-1.078 h 1.716 c -0.338,0.3813 -0.741,0.814 -1.21,1.298 -0.47,0.4693 -0.954,0.946 -1.452,1.43 -0.484,0.484 -0.961,0.9533 -1.43,1.408 -0.455,0.4547 -0.858,0.8433 -1.21,1.166 0.498,0.3227 1.026,0.726 1.584,1.21 0.557,0.4693 1.092,0.9827 1.606,1.54 0.528,0.5427 1.012,1.1073 1.452,1.694 0.454,0.572 0.836,1.1147 1.144,1.628 h -1.694 c -0.352,-0.5427 -0.77,-1.0927 -1.254,-1.65 -0.47,-0.5573 -0.968,-1.0853 -1.496,-1.584 -0.514,-0.5133 -1.034,-0.9753 -1.562,-1.386 -0.514,-0.4107 -0.983,-0.7407 -1.408,-0.99 v 5.61 z m 14.714,-1.034 c 0.558,0 1.042,-0.0147 1.452,-0.044 0.426,-0.044 0.785,-0.0953 1.078,-0.154 v -4.004 c -0.161,-0.0733 -0.418,-0.1467 -0.77,-0.22 -0.352,-0.088 -0.836,-0.132 -1.452,-0.132 -0.352,0 -0.718,0.0293 -1.1,0.088 -0.381,0.044 -0.733,0.154 -1.056,0.33 -0.322,0.1613 -0.586,0.3887 -0.792,0.682 -0.205,0.2933 -0.308,0.682 -0.308,1.166 0,0.4253 0.066,0.7847 0.198,1.078 0.147,0.2933 0.345,0.528 0.594,0.704 0.264,0.176 0.572,0.308 0.924,0.396 0.367,0.0733 0.778,0.11 1.232,0.11 z m -0.132,-10.604 c 0.748,0 1.379,0.11 1.892,0.33 0.528,0.2053 0.954,0.4987 1.276,0.88 0.323,0.3667 0.558,0.8067 0.704,1.32 0.147,0.5133 0.22,1.0707 0.22,1.672 v 7.172 c -0.146,0.044 -0.359,0.0953 -0.638,0.154 -0.278,0.044 -0.601,0.0953 -0.968,0.154 -0.366,0.0587 -0.777,0.1027 -1.232,0.132 -0.44,0.044 -0.894,0.066 -1.364,0.066 -0.601,0 -1.158,-0.066 -1.672,-0.198 -0.498,-0.132 -0.938,-0.3373 -1.32,-0.616 -0.366,-0.2933 -0.66,-0.66 -0.88,-1.1 -0.205,-0.4547 -0.308,-1.0047 -0.308,-1.65 0,-0.616 0.118,-1.144 0.352,-1.584 0.235,-0.44 0.565,-0.7993 0.99,-1.078 0.426,-0.2933 0.932,-0.506 1.518,-0.638 0.587,-0.132 1.225,-0.198 1.914,-0.198 0.206,0 0.418,0.0147 0.638,0.044 0.235,0.0147 0.455,0.044 0.66,0.088 0.22,0.0293 0.404,0.066 0.55,0.11 0.162,0.0293 0.272,0.0587 0.33,0.088 v -0.704 c 0,-0.396 -0.029,-0.7773 -0.088,-1.144 -0.058,-0.3813 -0.19,-0.7187 -0.396,-1.012 -0.19,-0.308 -0.469,-0.55 -0.836,-0.726 -0.352,-0.1907 -0.821,-0.286 -1.408,-0.286 -0.836,0 -1.459,0.0587 -1.87,0.176 -0.41,0.1173 -0.711,0.2127 -0.902,0.286 l -0.198,-1.254 c 0.25,-0.1173 0.631,-0.2273 1.144,-0.33 0.528,-0.1027 1.159,-0.154 1.892,-0.154 z m 10.38,10.604 c 1.026,0 1.833,-0.1687 2.42,-0.506 0.586,-0.352 0.88,-0.8727 0.88,-1.562 0,-0.4987 -0.11,-0.8947 -0.33,-1.188 -0.22,-0.2933 -0.499,-0.5207 -0.836,-0.682 -0.323,-0.1613 -0.675,-0.264 -1.056,-0.308 -0.367,-0.0587 -0.704,-0.088 -1.012,-0.088 h -1.584 v -1.21 h 1.474 c 0.264,0 0.564,-0.022 0.902,-0.066 0.352,-0.044 0.674,-0.132 0.968,-0.264 0.293,-0.132 0.542,-0.3153 0.748,-0.55 0.205,-0.2493 0.308,-0.572 0.308,-0.968 0,-0.3813 -0.088,-0.6967 -0.264,-0.946 -0.162,-0.2493 -0.382,-0.4473 -0.66,-0.594 -0.279,-0.1467 -0.602,-0.2493 -0.968,-0.308 -0.352,-0.0587 -0.712,-0.088 -1.078,-0.088 -0.836,0 -1.496,0.088 -1.98,0.264 -0.484,0.1613 -0.814,0.286 -0.99,0.374 l -0.33,-1.276 c 0.205,-0.1027 0.594,-0.2273 1.166,-0.374 0.572,-0.1613 1.283,-0.242 2.134,-0.242 1.452,0 2.552,0.264 3.3,0.792 0.748,0.528 1.122,1.3127 1.122,2.354 0,0.6453 -0.191,1.1733 -0.572,1.584 -0.382,0.396 -0.829,0.6747 -1.342,0.836 0.718,0.2053 1.29,0.55 1.716,1.034 0.425,0.484 0.638,1.122 0.638,1.914 0,1.1293 -0.404,1.9727 -1.21,2.53 -0.807,0.5573 -1.988,0.836 -3.542,0.836 -1.042,0 -1.878,-0.088 -2.508,-0.264 -0.631,-0.176 -1.034,-0.308 -1.21,-0.396 l 0.374,-1.298 c 0.044,0.0293 0.139,0.0807 0.286,0.154 0.161,0.0587 0.381,0.132 0.66,0.22 0.278,0.0733 0.616,0.1393 1.012,0.198 0.396,0.0587 0.85,0.088 1.364,0.088 z"
     fill="#f6f6f6"
     id="path6" />
  <path
     d="m 195.47587,122.386 v 6.732 c 0.279,0.029 0.609,0.066 0.99,0.11 0.396,0.029 0.873,0.044 1.43,0.044 0.66,0 1.291,-0.051 1.892,-0.154 0.601,-0.103 1.122,-0.286 1.562,-0.55 0.455,-0.264 0.814,-0.616 1.078,-1.056 0.279,-0.44 0.418,-0.997 0.418,-1.672 0,-0.704 -0.132,-1.276 -0.396,-1.716 -0.249,-0.455 -0.616,-0.807 -1.1,-1.056 -0.469,-0.264 -1.041,-0.44 -1.716,-0.528 -0.675,-0.103 -1.43,-0.154 -2.266,-0.154 z m 2.09,-1.276 c 1.085,0 2.053,0.088 2.904,0.264 0.851,0.176 1.562,0.455 2.134,0.836 0.587,0.367 1.034,0.851 1.342,1.452 0.308,0.601 0.462,1.32 0.462,2.156 0,1.599 -0.557,2.794 -1.672,3.586 -1.115,0.777 -2.75,1.166 -4.906,1.166 -0.616,0 -1.283,-0.037 -2.002,-0.11 -0.704,-0.059 -1.32,-0.161 -1.848,-0.308 v -14.96 h 9.064 v 1.298 h -7.568 v 4.62 z m 9.797,-2.046 h 1.43 v 4.554 c 0.264,-0.073 0.652,-0.147 1.166,-0.22 0.513,-0.088 1.026,-0.132 1.54,-0.132 0.572,0 1.122,0.066 1.65,0.198 0.542,0.132 1.012,0.345 1.408,0.638 0.41,0.293 0.733,0.675 0.968,1.144 0.249,0.469 0.374,1.041 0.374,1.716 0,0.675 -0.125,1.247 -0.374,1.716 -0.235,0.469 -0.558,0.858 -0.968,1.166 -0.411,0.293 -0.902,0.506 -1.474,0.638 -0.558,0.132 -1.152,0.198 -1.782,0.198 -0.382,0 -0.77,-0.015 -1.166,-0.044 -0.382,-0.029 -0.748,-0.066 -1.1,-0.11 -0.338,-0.044 -0.653,-0.095 -0.946,-0.154 -0.294,-0.059 -0.536,-0.125 -0.726,-0.198 z m 3.938,10.34 c 0.924,0 1.672,-0.191 2.244,-0.572 0.586,-0.381 0.88,-1.005 0.88,-1.87 0,-0.411 -0.081,-0.77 -0.242,-1.078 -0.162,-0.308 -0.382,-0.557 -0.66,-0.748 -0.264,-0.205 -0.58,-0.352 -0.946,-0.44 -0.352,-0.103 -0.726,-0.154 -1.122,-0.154 -0.455,0 -0.917,0.022 -1.386,0.066 -0.47,0.044 -0.895,0.132 -1.276,0.264 v 4.312 c 0.19,0.044 0.52,0.095 0.99,0.154 0.469,0.044 0.975,0.066 1.518,0.066 z m 8.426,1.034 h -1.43 v -11.374 h 1.43 z m 8.5,0.242 c -0.88,0 -1.657,-0.139 -2.332,-0.418 -0.675,-0.279 -1.239,-0.675 -1.694,-1.188 -0.44,-0.528 -0.777,-1.151 -1.012,-1.87 -0.235,-0.733 -0.352,-1.54 -0.352,-2.42 0,-0.895 0.117,-1.709 0.352,-2.442 0.249,-0.733 0.601,-1.364 1.056,-1.892 0.455,-0.528 1.005,-0.931 1.65,-1.21 0.645,-0.293 1.371,-0.44 2.178,-0.44 0.616,0 1.188,0.051 1.716,0.154 0.543,0.103 0.961,0.235 1.254,0.396 l -0.374,1.232 c -0.293,-0.147 -0.623,-0.264 -0.99,-0.352 -0.367,-0.088 -0.858,-0.132 -1.474,-0.132 -1.261,0 -2.222,0.411 -2.882,1.232 -0.645,0.807 -0.968,1.958 -0.968,3.454 0,0.675 0.073,1.298 0.22,1.87 0.147,0.557 0.381,1.041 0.704,1.452 0.337,0.396 0.763,0.711 1.276,0.946 0.528,0.22 1.166,0.33 1.914,0.33 0.616,0 1.129,-0.066 1.54,-0.198 0.425,-0.147 0.733,-0.271 0.924,-0.374 l 0.308,1.232 c -0.264,0.147 -0.682,0.286 -1.254,0.418 -0.557,0.147 -1.144,0.22 -1.76,0.22 z m 13.059,-11.616 v 1.21 h -3.74 v 10.164 h -1.43 v -10.164 h -3.718 v -1.21 z m 3.644,9.328 c 0.132,0.103 0.293,0.213 0.484,0.33 0.205,0.117 0.44,0.227 0.704,0.33 0.264,0.103 0.55,0.191 0.858,0.264 0.308,0.059 0.63,0.088 0.968,0.088 0.704,0 1.29,-0.117 1.76,-0.352 0.484,-0.249 0.872,-0.579 1.166,-0.99 0.293,-0.425 0.506,-0.917 0.638,-1.474 0.132,-0.572 0.198,-1.173 0.198,-1.804 0,-1.496 -0.374,-2.64 -1.122,-3.432 -0.748,-0.807 -1.738,-1.21 -2.97,-1.21 -0.704,0 -1.276,0.037 -1.716,0.11 -0.426,0.059 -0.748,0.125 -0.968,0.198 z m 0,6.116 h -1.43 V 119.46 c 0.425,-0.147 0.968,-0.286 1.628,-0.418 0.66,-0.132 1.496,-0.198 2.508,-0.198 0.836,0 1.591,0.139 2.266,0.418 0.689,0.264 1.276,0.653 1.76,1.166 0.498,0.513 0.88,1.137 1.144,1.87 0.278,0.733 0.418,1.562 0.418,2.486 0,0.865 -0.118,1.665 -0.352,2.398 -0.22,0.719 -0.55,1.342 -0.99,1.87 -0.44,0.513 -0.983,0.917 -1.628,1.21 -0.631,0.293 -1.357,0.44 -2.178,0.44 -0.748,0 -1.401,-0.103 -1.958,-0.308 -0.543,-0.22 -0.939,-0.425 -1.188,-0.616 z m 11.396,-15.444 h 1.43 v 4.554 c 0.264,-0.073 0.652,-0.147 1.166,-0.22 0.513,-0.088 1.026,-0.132 1.54,-0.132 0.572,0 1.122,0.066 1.65,0.198 0.542,0.132 1.012,0.345 1.408,0.638 0.41,0.293 0.733,0.675 0.968,1.144 0.249,0.469 0.374,1.041 0.374,1.716 0,0.675 -0.125,1.247 -0.374,1.716 -0.235,0.469 -0.558,0.858 -0.968,1.166 -0.411,0.293 -0.902,0.506 -1.474,0.638 -0.558,0.132 -1.152,0.198 -1.782,0.198 -0.382,0 -0.77,-0.015 -1.166,-0.044 -0.382,-0.029 -0.748,-0.066 -1.1,-0.11 -0.338,-0.044 -0.653,-0.095 -0.946,-0.154 -0.294,-0.059 -0.536,-0.125 -0.726,-0.198 z m 3.938,10.34 c 0.924,0 1.672,-0.191 2.244,-0.572 0.586,-0.381 0.88,-1.005 0.88,-1.87 0,-0.411 -0.081,-0.77 -0.242,-1.078 -0.162,-0.308 -0.382,-0.557 -0.66,-0.748 -0.264,-0.205 -0.58,-0.352 -0.946,-0.44 -0.352,-0.103 -0.726,-0.154 -1.122,-0.154 -0.455,0 -0.917,0.022 -1.386,0.066 -0.47,0.044 -0.895,0.132 -1.276,0.264 v 4.312 c 0.19,0.044 0.52,0.095 0.99,0.154 0.469,0.044 0.975,0.066 1.518,0.066 z m 8.426,1.034 h -1.43 v -11.374 h 1.43 z m 11.536,-9.548 c -0.44,0.528 -0.953,1.195 -1.54,2.002 -0.572,0.807 -1.159,1.657 -1.76,2.552 -0.587,0.895 -1.151,1.782 -1.694,2.662 -0.543,0.88 -1.012,1.657 -1.408,2.332 h -1.342 v -11.374 h 1.408 v 9.108 c 0.352,-0.631 0.785,-1.357 1.298,-2.178 0.528,-0.836 1.085,-1.672 1.672,-2.508 0.587,-0.851 1.173,-1.665 1.76,-2.442 0.601,-0.777 1.159,-1.437 1.672,-1.98 h 1.342 v 11.374 h -1.408 z m -3.168,-3.762 c -0.821,0 -1.496,-0.227 -2.024,-0.682 -0.528,-0.455 -0.865,-1.1 -1.012,-1.936 l 1.166,-0.308 c 0.088,0.499 0.279,0.909 0.572,1.232 0.308,0.308 0.741,0.462 1.298,0.462 0.557,0 0.983,-0.154 1.276,-0.462 0.308,-0.323 0.506,-0.733 0.594,-1.232 l 1.166,0.308 c -0.147,0.836 -0.484,1.481 -1.012,1.936 -0.528,0.455 -1.203,0.682 -2.024,0.682 z m 16.003,12.276 c 1.027,0 1.834,-0.169 2.42,-0.506 0.587,-0.352 0.88,-0.873 0.88,-1.562 0,-0.499 -0.11,-0.895 -0.33,-1.188 -0.22,-0.293 -0.498,-0.521 -0.836,-0.682 -0.322,-0.161 -0.674,-0.264 -1.056,-0.308 -0.366,-0.059 -0.704,-0.088 -1.012,-0.088 h -1.584 v -1.21 h 1.474 c 0.264,0 0.565,-0.022 0.902,-0.066 0.352,-0.044 0.675,-0.132 0.968,-0.264 0.294,-0.132 0.543,-0.315 0.748,-0.55 0.206,-0.249 0.308,-0.572 0.308,-0.968 0,-0.381 -0.088,-0.697 -0.264,-0.946 -0.161,-0.249 -0.381,-0.447 -0.66,-0.594 -0.278,-0.147 -0.601,-0.249 -0.968,-0.308 -0.352,-0.059 -0.711,-0.088 -1.078,-0.088 -0.836,0 -1.496,0.088 -1.98,0.264 -0.484,0.161 -0.814,0.286 -0.99,0.374 l -0.33,-1.276 c 0.206,-0.103 0.594,-0.227 1.166,-0.374 0.572,-0.161 1.284,-0.242 2.134,-0.242 1.452,0 2.552,0.264 3.3,0.792 0.748,0.528 1.122,1.313 1.122,2.354 0,0.645 -0.19,1.173 -0.572,1.584 -0.381,0.396 -0.828,0.675 -1.342,0.836 0.719,0.205 1.291,0.55 1.716,1.034 0.426,0.484 0.638,1.122 0.638,1.914 0,1.129 -0.403,1.973 -1.21,2.53 -0.806,0.557 -1.987,0.836 -3.542,0.836 -1.041,0 -1.877,-0.088 -2.508,-0.264 -0.63,-0.176 -1.034,-0.308 -1.21,-0.396 l 0.374,-1.298 c 0.044,0.029 0.14,0.081 0.286,0.154 0.162,0.059 0.382,0.132 0.66,0.22 0.279,0.073 0.616,0.139 1.012,0.198 0.396,0.059 0.851,0.088 1.364,0.088 z m 11.431,0 c 0.557,0 1.041,-0.015 1.452,-0.044 0.425,-0.044 0.784,-0.095 1.078,-0.154 v -4.004 c -0.162,-0.073 -0.418,-0.147 -0.77,-0.22 -0.352,-0.088 -0.836,-0.132 -1.452,-0.132 -0.352,0 -0.719,0.029 -1.1,0.088 -0.382,0.044 -0.734,0.154 -1.056,0.33 -0.323,0.161 -0.587,0.389 -0.792,0.682 -0.206,0.293 -0.308,0.682 -0.308,1.166 0,0.425 0.066,0.785 0.198,1.078 0.146,0.293 0.344,0.528 0.594,0.704 0.264,0.176 0.572,0.308 0.924,0.396 0.366,0.073 0.777,0.11 1.232,0.11 z m -0.132,-10.604 c 0.748,0 1.378,0.11 1.892,0.33 0.528,0.205 0.953,0.499 1.276,0.88 0.322,0.367 0.557,0.807 0.704,1.32 0.146,0.513 0.22,1.071 0.22,1.672 v 7.172 c -0.147,0.044 -0.36,0.095 -0.638,0.154 -0.279,0.044 -0.602,0.095 -0.968,0.154 -0.367,0.059 -0.778,0.103 -1.232,0.132 -0.44,0.044 -0.895,0.066 -1.364,0.066 -0.602,0 -1.159,-0.066 -1.672,-0.198 -0.499,-0.132 -0.939,-0.337 -1.32,-0.616 -0.367,-0.293 -0.66,-0.66 -0.88,-1.1 -0.206,-0.455 -0.308,-1.005 -0.308,-1.65 0,-0.616 0.117,-1.144 0.352,-1.584 0.234,-0.44 0.564,-0.799 0.99,-1.078 0.425,-0.293 0.931,-0.506 1.518,-0.638 0.586,-0.132 1.224,-0.198 1.914,-0.198 0.205,0 0.418,0.015 0.638,0.044 0.234,0.015 0.454,0.044 0.66,0.088 0.22,0.029 0.403,0.066 0.55,0.11 0.161,0.029 0.271,0.059 0.33,0.088 v -0.704 c 0,-0.396 -0.03,-0.777 -0.088,-1.144 -0.059,-0.381 -0.191,-0.719 -0.396,-1.012 -0.191,-0.308 -0.47,-0.55 -0.836,-0.726 -0.352,-0.191 -0.822,-0.286 -1.408,-0.286 -0.836,0 -1.46,0.059 -1.87,0.176 -0.411,0.117 -0.712,0.213 -0.902,0.286 l -0.198,-1.254 c 0.249,-0.117 0.63,-0.227 1.144,-0.33 0.528,-0.103 1.158,-0.154 1.892,-0.154 z m 7.739,11.638 v -11.374 h 1.43 v 5.258 c 0.411,-0.396 0.865,-0.836 1.364,-1.32 0.513,-0.499 1.012,-0.99 1.496,-1.474 0.484,-0.499 0.931,-0.961 1.342,-1.386 0.425,-0.44 0.763,-0.799 1.012,-1.078 h 1.716 c -0.337,0.381 -0.741,0.814 -1.21,1.298 -0.469,0.469 -0.953,0.946 -1.452,1.43 -0.484,0.484 -0.961,0.953 -1.43,1.408 -0.455,0.455 -0.858,0.843 -1.21,1.166 0.499,0.323 1.027,0.726 1.584,1.21 0.557,0.469 1.093,0.983 1.606,1.54 0.528,0.543 1.012,1.107 1.452,1.694 0.455,0.572 0.836,1.115 1.144,1.628 h -1.694 c -0.352,-0.543 -0.77,-1.093 -1.254,-1.65 -0.469,-0.557 -0.968,-1.085 -1.496,-1.584 -0.513,-0.513 -1.034,-0.975 -1.562,-1.386 -0.513,-0.411 -0.983,-0.741 -1.408,-0.99 v 5.61 z m 14.715,-1.034 c 0.557,0 1.041,-0.015 1.452,-0.044 0.425,-0.044 0.785,-0.095 1.078,-0.154 v -4.004 c -0.161,-0.073 -0.418,-0.147 -0.77,-0.22 -0.352,-0.088 -0.836,-0.132 -1.452,-0.132 -0.352,0 -0.719,0.029 -1.1,0.088 -0.381,0.044 -0.733,0.154 -1.056,0.33 -0.323,0.161 -0.587,0.389 -0.792,0.682 -0.205,0.293 -0.308,0.682 -0.308,1.166 0,0.425 0.066,0.785 0.198,1.078 0.147,0.293 0.345,0.528 0.594,0.704 0.264,0.176 0.572,0.308 0.924,0.396 0.367,0.073 0.777,0.11 1.232,0.11 z m -0.132,-10.604 c 0.748,0 1.379,0.11 1.892,0.33 0.528,0.205 0.953,0.499 1.276,0.88 0.323,0.367 0.557,0.807 0.704,1.32 0.147,0.513 0.22,1.071 0.22,1.672 v 7.172 c -0.147,0.044 -0.359,0.095 -0.638,0.154 -0.279,0.044 -0.601,0.095 -0.968,0.154 -0.367,0.059 -0.777,0.103 -1.232,0.132 -0.44,0.044 -0.895,0.066 -1.364,0.066 -0.601,0 -1.159,-0.066 -1.672,-0.198 -0.499,-0.132 -0.939,-0.337 -1.32,-0.616 -0.367,-0.293 -0.66,-0.66 -0.88,-1.1 -0.205,-0.455 -0.308,-1.005 -0.308,-1.65 0,-0.616 0.117,-1.144 0.352,-1.584 0.235,-0.44 0.565,-0.799 0.99,-1.078 0.425,-0.293 0.931,-0.506 1.518,-0.638 0.587,-0.132 1.225,-0.198 1.914,-0.198 0.205,0 0.418,0.015 0.638,0.044 0.235,0.015 0.455,0.044 0.66,0.088 0.22,0.029 0.403,0.066 0.55,0.11 0.161,0.029 0.271,0.059 0.33,0.088 v -0.704 c 0,-0.396 -0.029,-0.777 -0.088,-1.144 -0.059,-0.381 -0.191,-0.719 -0.396,-1.012 -0.191,-0.308 -0.469,-0.55 -0.836,-0.726 -0.352,-0.191 -0.821,-0.286 -1.408,-0.286 -0.836,0 -1.459,0.059 -1.87,0.176 -0.411,0.117 -0.711,0.213 -0.902,0.286 l -0.198,-1.254 c 0.249,-0.117 0.631,-0.227 1.144,-0.33 0.528,-0.103 1.159,-0.154 1.892,-0.154 z m 10.379,10.604 c 1.027,0 1.834,-0.169 2.42,-0.506 0.587,-0.352 0.88,-0.873 0.88,-1.562 0,-0.499 -0.11,-0.895 -0.33,-1.188 -0.22,-0.293 -0.498,-0.521 -0.836,-0.682 -0.322,-0.161 -0.674,-0.264 -1.056,-0.308 -0.366,-0.059 -0.704,-0.088 -1.012,-0.088 h -1.584 v -1.21 h 1.474 c 0.264,0 0.565,-0.022 0.902,-0.066 0.352,-0.044 0.675,-0.132 0.968,-0.264 0.294,-0.132 0.543,-0.315 0.748,-0.55 0.206,-0.249 0.308,-0.572 0.308,-0.968 0,-0.381 -0.088,-0.697 -0.264,-0.946 -0.161,-0.249 -0.381,-0.447 -0.66,-0.594 -0.278,-0.147 -0.601,-0.249 -0.968,-0.308 -0.352,-0.059 -0.711,-0.088 -1.078,-0.088 -0.836,0 -1.496,0.088 -1.98,0.264 -0.484,0.161 -0.814,0.286 -0.99,0.374 l -0.33,-1.276 c 0.206,-0.103 0.594,-0.227 1.166,-0.374 0.572,-0.161 1.284,-0.242 2.134,-0.242 1.452,0 2.552,0.264 3.3,0.792 0.748,0.528 1.122,1.313 1.122,2.354 0,0.645 -0.19,1.173 -0.572,1.584 -0.381,0.396 -0.828,0.675 -1.342,0.836 0.719,0.205 1.291,0.55 1.716,1.034 0.426,0.484 0.638,1.122 0.638,1.914 0,1.129 -0.403,1.973 -1.21,2.53 -0.806,0.557 -1.987,0.836 -3.542,0.836 -1.041,0 -1.877,-0.088 -2.508,-0.264 -0.63,-0.176 -1.034,-0.308 -1.21,-0.396 l 0.374,-1.298 c 0.044,0.029 0.14,0.081 0.286,0.154 0.162,0.059 0.382,0.132 0.66,0.22 0.279,0.073 0.616,0.139 1.012,0.198 0.396,0.059 0.851,0.088 1.364,0.088 z"
     fill="#f6f6f6"
     id="path8" />
  <path
     d="m 59.54647,154.516 48.0904,-66.829201 -76.9891,24.640201 16.9729,11.663 -23.3203,16.233 7.8364,10.347 22.3407,-17.526 z"
     fill="#101014"
     stroke="url(#paint2_linear_134_1300)"
     stroke-width="2"
     stroke-linejoin="round"
     id="path12"
     style="stroke:url(#paint2_linear_134_1300)" />
  <defs
     id="defs29">
    <linearGradient
       id="paint0_linear_134_1300"
       x1="43.755699"
       y1="-10.444"
       x2="137.952"
       y2="61.265301"
       gradientUnits="userSpaceOnUse"
       gradientTransform="translate(-1.8281301)">
      <stop
         stop-color="#0044FF"
         id="stop14" />
      <stop
         offset="1"
         stop-color="#00A3FF"
         id="stop16" />
    </linearGradient>
    <linearGradient
       id="paint1_linear_134_1300"
       x1="177.756"
       y1="80.556"
       x2="271.952"
       y2="152.265"
       gradientUnits="userSpaceOnUse"
       gradientTransform="translate(-1.8281301)">
      <stop
         stop-color="#0044FF"
         id="stop19" />
      <stop
         offset="1"
         stop-color="#00A3FF"
         id="stop21" />
    </linearGradient>
    <linearGradient
       id="paint2_linear_134_1300"
       x1="104.264"
       y1="123.814"
       x2="30.0292"
       y2="113.128"
       gradientUnits="userSpaceOnUse"
       gradientTransform="translate(-1.8281301)">
      <stop
         stop-color="#0044FF"
         id="stop24" />
      <stop
         offset="1"
         stop-color="#00A3FF"
         id="stop26" />
    </linearGradient>
  </defs>
</svg>
