<?xml version="1.0" encoding="UTF-8" standalone="no"?>
<svg
   width="266"
   height="130"
   viewBox="0 0 266 130"
   fill="none"
   version="1.1"
   id="svg36"
   sodipodi:docname="step-1.svg"
   inkscape:version="1.1.1 (3bf5ae0d25, 2021-09-20)"
   xmlns:inkscape="http://www.inkscape.org/namespaces/inkscape"
   xmlns:sodipodi="http://sodipodi.sourceforge.net/DTD/sodipodi-0.dtd"
   xmlns="http://www.w3.org/2000/svg"
   xmlns:svg="http://www.w3.org/2000/svg">
  <sodipodi:namedview
     id="namedview38"
     pagecolor="#ffffff"
     bordercolor="#666666"
     borderopacity="1.0"
     inkscape:pageshadow="2"
     inkscape:pageopacity="0.0"
     inkscape:pagecheckerboard="0"
     showgrid="false"
     inkscape:zoom="3.5222424"
     inkscape:cx="130.17275"
     inkscape:cy="62.602165"
     inkscape:window-width="1920"
     inkscape:window-height="1001"
     inkscape:window-x="-9"
     inkscape:window-y="-9"
     inkscape:window-maximized="1"
     inkscape:current-layer="svg36" />
  <rect
     x="42.850826"
     width="173.29308"
     height="49.404301"
     rx="9.8461838"
     fill="#1d1d26"
     id="rect2"
     y="1.4719993"
     style="stroke-width:0.675669" />
  <path
     d="m 110.88822,33.71147 c -0.22235,0 -0.48392,-0.01398 -0.78474,-0.04189 -0.28772,-0.01398 -0.58853,-0.0419 -0.90243,-0.08376 -0.30081,-0.02793 -0.58855,-0.06283 -0.86319,-0.104718 -0.27466,-0.05584 -0.51006,-0.111699 -0.70598,-0.167551 V 19.344032 c 0.23513,-0.06981 0.49672,-0.125664 0.78446,-0.16755 0.28771,-0.05584 0.582,-0.09775 0.88279,-0.125665 0.31391,-0.04189 0.61471,-0.06982 0.90244,-0.08376 0.30082,-0.01397 0.57548,-0.02093 0.82399,-0.02093 0.73238,0 1.42554,0.06283 2.07949,0.188493 0.66699,0.125664 1.24902,0.335101 1.746,0.628316 0.49701,0.293211 0.88936,0.684162 1.17709,1.172849 0.30081,0.474727 0.45122,1.068135 0.45122,1.780224 0,0.781901 -0.18964,1.452103 -0.56893,2.010603 -0.36621,0.544539 -0.86319,0.921527 -1.49098,1.130965 0.39239,0.09775 0.75204,0.237361 1.079,0.418875 0.32698,0.181513 0.61472,0.418877 0.8632,0.71209 0.24849,0.27925 0.43815,0.628313 0.5689,1.04719 0.1439,0.404913 0.21582,0.893599 0.21582,1.466063 0,1.368329 -0.51006,2.415518 -1.53021,3.141569 -1.02013,0.712087 -2.59613,1.068134 -4.72794,1.068134 z m -1.92258,-7.078999 v 5.717653 c 0.19617,0.02793 0.49046,0.06283 0.88279,0.104718 0.39236,0.02793 0.79128,0.0419 1.19673,0.0419 0.60161,0 1.18361,-0.0419 1.74599,-0.125663 0.57547,-0.08376 1.079,-0.237362 1.51061,-0.460763 0.43159,-0.223401 0.77817,-0.530575 1.03975,-0.921526 0.26157,-0.390953 0.39236,-0.893603 0.39236,-1.507953 0,-0.558502 -0.0917,-1.019266 -0.27465,-1.382291 -0.1831,-0.376989 -0.44467,-0.670199 -0.78471,-0.879639 -0.34005,-0.223401 -0.75859,-0.376988 -1.25556,-0.460763 -0.48392,-0.08376 -1.02668,-0.125663 -1.62831,-0.125663 z m 0,-1.214741 h 2.58958 c 0.48391,0 0.94167,-0.03491 1.37326,-0.104719 0.4316,-0.08376 0.80435,-0.223401 1.11823,-0.418875 0.32698,-0.209438 0.58202,-0.481707 0.76513,-0.816807 0.18309,-0.349065 0.27465,-0.788884 0.27465,-1.31946 0,-0.474725 -0.098,-0.872658 -0.29428,-1.193795 -0.19618,-0.335101 -0.47739,-0.607371 -0.84359,-0.816809 -0.35313,-0.20944 -0.77817,-0.356045 -1.27517,-0.439818 -0.497,-0.09775 -1.04631,-0.146607 -1.64789,-0.146607 -0.48395,0 -0.89591,0.01397 -1.23597,0.0419 -0.32697,0.02793 -0.60163,0.06283 -0.82395,0.104718 z m 15.40868,8.168076 V 22.757869 h 1.27519 v 5.005566 c 0.36621,-0.376988 0.77164,-0.795864 1.21631,-1.256629 0.45775,-0.474724 0.90245,-0.94247 1.33405,-1.403233 0.43161,-0.474726 0.83047,-0.914546 1.19669,-1.319459 0.37929,-0.418874 0.68009,-0.760957 0.90243,-1.026245 h 1.53022 c -0.30084,0.363027 -0.66048,0.77492 -1.07901,1.235683 -0.41853,0.446801 -0.85012,0.900582 -1.29479,1.361346 -0.43158,0.460763 -0.85666,0.907564 -1.27517,1.340403 -0.40544,0.43284 -0.76511,0.802845 -1.07899,1.110021 0.44467,0.307175 0.91551,0.691144 1.41248,1.151908 0.497,0.446802 0.97437,0.935491 1.43213,1.466065 0.47083,0.516615 0.90244,1.054171 1.29479,1.612672 0.40545,0.544539 0.74552,1.061152 1.02014,1.549839 h -1.51059 c -0.31388,-0.516611 -0.68662,-1.040207 -1.11824,-1.570781 -0.4185,-0.530577 -0.86318,-1.033229 -1.33402,-1.507956 -0.45774,-0.488685 -0.92205,-0.928507 -1.39287,-1.319458 -0.45776,-0.390949 -0.87628,-0.705106 -1.25556,-0.942469 v 5.340664 z m 18.23109,-5.403496 c 0,0.851715 -0.11769,1.626634 -0.35314,2.324759 -0.22232,0.698128 -0.54276,1.291536 -0.96128,1.780225 -0.40545,0.488687 -0.88934,0.872655 -1.45172,1.151909 -0.56241,0.265287 -1.18363,0.397929 -1.86373,0.397929 -0.6801,0 -1.30132,-0.132642 -1.86373,-0.397929 -0.56238,-0.279254 -1.05284,-0.663222 -1.47133,-1.151909 -0.40544,-0.488689 -0.72589,-1.082097 -0.96129,-1.780225 -0.22236,-0.698125 -0.33353,-1.473044 -0.33353,-2.324759 0,-0.851713 0.11117,-1.626633 0.33353,-2.324761 0.2354,-0.698126 0.55585,-1.291532 0.96129,-1.78022 0.41849,-0.502652 0.90895,-0.886622 1.47133,-1.151908 0.56241,-0.279251 1.18363,-0.418876 1.86373,-0.418876 0.6801,0 1.30132,0.139625 1.86373,0.418876 0.56238,0.265286 1.04627,0.649256 1.45172,1.151908 0.41852,0.488688 0.73896,1.082094 0.96128,1.78022 0.23545,0.698128 0.35314,1.473048 0.35314,2.324761 z m -1.35365,0 c 0,-1.354365 -0.29425,-2.429479 -0.88281,-3.225344 -0.58854,-0.809826 -1.38636,-1.214739 -2.39341,-1.214739 -1.00705,0 -1.80485,0.404913 -2.39339,1.214739 -0.58856,0.795865 -0.88284,1.870979 -0.88284,3.225344 0,1.354366 0.29428,2.429479 0.88284,3.225343 0.58854,0.795863 1.38634,1.193796 2.39339,1.193796 1.00705,0 1.80487,-0.397933 2.39341,-1.193796 0.58856,-0.795864 0.88281,-1.870977 0.88281,-3.225343 z m 5.39498,3.455725 c 0.1177,0.09775 0.26157,0.202457 0.43159,0.314156 0.1831,0.111699 0.39236,0.21642 0.6278,0.314158 0.23539,0.09775 0.49045,0.181514 0.7651,0.251326 0.27465,0.05584 0.56236,0.08376 0.86317,0.08376 0.6278,0 1.15095,-0.111699 1.56945,-0.335101 0.43159,-0.237362 0.77819,-0.551518 1.03978,-0.94247 0.26155,-0.404913 0.4512,-0.872658 0.56892,-1.403235 0.1177,-0.544537 0.17655,-1.117001 0.17655,-1.717389 0,-1.424178 -0.33351,-2.513254 -1.00051,-3.267233 -0.66704,-0.767936 -1.54983,-1.151906 -2.64845,-1.151906 -0.62776,0 -1.13784,0.03491 -1.5302,0.104718 -0.37929,0.05584 -0.66704,0.118681 -0.8632,0.188493 z m 0,5.822374 h -1.27518 V 23.134857 c 0.37929,-0.139624 0.8632,-0.272269 1.45174,-0.397933 0.58853,-0.125662 1.33401,-0.188493 2.23644,-0.188493 0.7455,0 1.41907,0.132645 2.02069,0.39793 0.61469,0.251327 1.13785,0.621335 1.56944,1.110023 0.44467,0.488689 0.78471,1.082094 1.02014,1.780222 0.24848,0.698126 0.37274,1.487009 0.37274,2.366648 0,0.823789 -0.10458,1.584746 -0.31388,2.282872 -0.1962,0.684167 -0.49047,1.277573 -0.88283,1.780223 -0.39236,0.488687 -0.87626,0.872659 -1.45172,1.151908 -0.56241,0.279251 -1.2098,0.418875 -1.94218,0.418875 -0.66703,0 -1.24903,-0.09775 -1.74601,-0.293211 -0.48393,-0.209439 -0.83707,-0.404913 -1.05939,-0.586427 z m 12.51698,-4.85896 c 0.91552,0 1.63483,-0.160568 2.15799,-0.481707 0.52313,-0.335101 0.78474,-0.830769 0.78474,-1.487009 0,-0.474726 -0.098,-0.851714 -0.29428,-1.130965 -0.19619,-0.279249 -0.4447,-0.495669 -0.7455,-0.649256 -0.28773,-0.15359 -0.60161,-0.251325 -0.94166,-0.293215 -0.32698,-0.05584 -0.62779,-0.08376 -0.90244,-0.08376 h -1.41248 v -1.151912 h 1.31441 c 0.23539,0 0.50352,-0.02093 0.80433,-0.06283 0.31389,-0.0419 0.60162,-0.125661 0.86319,-0.251325 0.26159,-0.125663 0.48391,-0.300193 0.66701,-0.523594 0.18311,-0.237365 0.27464,-0.544538 0.27464,-0.921528 0,-0.363026 -0.0784,-0.66322 -0.2354,-0.900581 -0.14385,-0.237364 -0.34005,-0.425858 -0.58855,-0.565484 -0.24848,-0.139624 -0.53621,-0.237361 -0.86318,-0.293212 -0.31389,-0.05584 -0.63431,-0.08376 -0.9613,-0.08376 -0.74547,0 -1.33402,0.08376 -1.76561,0.251324 -0.43161,0.153589 -0.72587,0.272271 -0.88283,0.356046 l -0.29425,-1.21474 c 0.1831,-0.09775 0.52968,-0.216419 1.03973,-0.356044 0.51008,-0.153589 1.14441,-0.230381 1.90296,-0.230381 1.29479,0 2.27569,0.251324 2.94271,0.753975 0.66704,0.502651 1.00053,1.249647 1.00053,2.240986 0,0.61435 -0.17001,1.117002 -0.51006,1.507951 -0.34005,0.376989 -0.73896,0.642277 -1.19671,0.795865 0.64086,0.195475 1.15095,0.523596 1.53021,0.984359 0.37928,0.460763 0.56894,1.068132 0.56894,1.822108 0,1.075115 -0.35966,1.87796 -1.07902,2.408536 -0.7193,0.530576 -1.77216,0.795864 -3.1585,0.795864 -0.92859,0 -1.67408,-0.08376 -2.23645,-0.251324 -0.5624,-0.167551 -0.92207,-0.293214 -1.079,-0.376988 l 0.3335,-1.235683 c 0.0393,0.02792 0.12426,0.0768 0.25504,0.146603 0.14385,0.05584 0.34004,0.125665 0.58854,0.20944 0.24848,0.06981 0.54932,0.132644 0.90244,0.188494 0.35313,0.05584 0.75856,0.08376 1.21631,0.08376 z m 13.90073,-8.105245 c -0.39236,0.502652 -0.85012,1.137944 -1.37327,1.905885 -0.51008,0.767939 -1.03323,1.577764 -1.56944,2.429478 -0.52318,0.851714 -1.02669,1.696448 -1.51061,2.5342 -0.48392,0.837749 -0.90243,1.577766 -1.25555,2.220039 h -1.19669 V 22.757869 h 1.25554 v 8.670727 c 0.31389,-0.600389 0.69972,-1.291532 1.15747,-2.073434 0.47084,-0.795865 0.96785,-1.591727 1.49097,-2.387591 0.52315,-0.809828 1.04629,-1.584748 1.56945,-2.324762 0.53622,-0.740013 1.03323,-1.368326 1.49098,-1.88494 h 1.19669 v 10.827937 h -1.25554 z m 12.69027,9.089602 h -1.27518 v -5.047452 h -5.51266 v 5.047452 H 177.6917 V 22.757869 h 1.27518 v 4.628578 h 5.51266 v -4.628578 h 1.27518 z m 6.14113,0.230384 c -0.43162,-0.851714 -0.85013,-1.738335 -1.25557,-2.659863 -0.39235,-0.921525 -0.7651,-1.850033 -1.11824,-2.785522 -0.34005,-0.949453 -0.65394,-1.891923 -0.94166,-2.827411 -0.28773,-0.949452 -0.53622,-1.877962 -0.74549,-2.785525 h 1.35366 c 0.14386,0.670201 0.32696,1.396252 0.54931,2.178153 0.22233,0.767938 0.47082,1.563803 0.74548,2.387593 0.28773,0.823788 0.60162,1.668521 0.94166,2.534197 0.34004,0.865677 0.70624,1.717392 1.0986,2.555145 0.28775,-0.865679 0.54278,-1.682485 0.76511,-2.450424 0.22234,-0.76794 0.42508,-1.528898 0.60819,-2.282874 0.19615,-0.76794 0.37926,-1.54984 0.5493,-2.345705 0.18309,-0.795863 0.37272,-1.654558 0.56894,-2.576085 h 1.27516 c -0.41855,2.024567 -0.89591,3.993282 -1.43212,5.906147 -0.53626,1.912867 -1.11824,3.665164 -1.74602,5.256892 -0.2485,0.628313 -0.50355,1.165872 -0.76511,1.612671 -0.26157,0.460765 -0.55585,0.837753 -0.88282,1.130965 -0.31389,0.293213 -0.68663,0.509634 -1.11823,0.649257 -0.41852,0.139626 -0.9155,0.209438 -1.49096,0.209438 -0.32696,0 -0.6278,-0.0419 -0.90245,-0.125662 -0.26155,-0.08376 -0.42504,-0.146606 -0.49043,-0.188495 l 0.25503,-1.130965 c 0.0522,0.0419 0.19618,0.09775 0.43161,0.167552 0.24849,0.08376 0.50352,0.125663 0.76509,0.125663 0.36621,0 0.69317,-0.0419 0.9809,-0.125663 0.30082,-0.08376 0.56892,-0.230382 0.80435,-0.43982 0.2354,-0.195476 0.44467,-0.453782 0.62777,-0.774921 0.19618,-0.321137 0.38583,-0.72605 0.56894,-1.214738 z"
     fill="#f6f6f6"
     id="path4"
     style="stroke-width:0.675669" />
  <path
     d="m 48.759236,9.9625405 8.291922,0.8051485 1.250653,5.635973 2.769222,12.479707 h 21.70721 L 85.190156,16.403662 H 63.766688"
     stroke="url(#paint0_linear_134_1293)"
     stroke-width="2.03469"
     stroke-linecap="round"
     stroke-linejoin="round"
     id="path6"
     style="stroke:url(#paint0_linear_134_1293)" />
  <ellipse
     cx="65.005569"
     cy="36.767033"
     stroke="url(#paint1_linear_134_1293)"
     stroke-width="2.03469"
     stroke-linecap="round"
     stroke-linejoin="round"
     id="circle8"
     style="stroke:url(#paint1_linear_134_1293)"
     rx="3.4461706"
     ry="3.6790488" />
  <ellipse
     cx="78.790611"
     cy="36.767033"
     stroke="url(#paint2_linear_134_1293)"
     stroke-width="2.03469"
     stroke-linecap="round"
     stroke-linejoin="round"
     id="circle10"
     style="stroke:url(#paint2_linear_134_1293)"
     rx="3.4461706"
     ry="3.6790488" />
  <path
     d="M 76.089785,89.752162 104.3387,40.819581 55.271141,61.813707 l 11.615214,7.27552 -14.453489,12.466231 5.594292,6.814423 13.754171,-13.317468 z"
     fill="#101014"
     stroke="url(#paint3_linear_134_1293)"
     stroke-width="1.35135"
     stroke-linejoin="round"
     id="path12"
     style="stroke:url(#paint3_linear_134_1293)" />
  <defs
     id="defs34">
    <linearGradient
       id="paint0_linear_134_1293"
       x1="37.7184"
       y1="12.1619"
       x2="37.7184"
       y2="39.2642"
       gradientUnits="userSpaceOnUse"
       gradientTransform="matrix(0.65393605,0,0,0.6981263,42.309286,1.4719985)">
      <stop
         stop-color="#0044FF"
         id="stop14" />
      <stop
         offset="1"
         stop-color="#00A3FF"
         id="stop16" />
    </linearGradient>
    <linearGradient
       id="paint1_linear_134_1293"
       x1="34.7072"
       y1="43.7812"
       x2="34.7072"
       y2="57.3324"
       gradientUnits="userSpaceOnUse"
       gradientTransform="matrix(0.65393605,0,0,0.6981263,42.309286,1.4719985)">
      <stop
         stop-color="#0044FF"
         id="stop19" />
      <stop
         offset="1"
         stop-color="#00A3FF"
         id="stop21" />
    </linearGradient>
    <linearGradient
       id="paint2_linear_134_1293"
       x1="55.7873"
       y1="43.7812"
       x2="55.7873"
       y2="57.3324"
       gradientUnits="userSpaceOnUse"
       gradientTransform="matrix(0.65393605,0,0,0.6981263,42.309286,1.4719985)">
      <stop
         stop-color="#0044FF"
         id="stop24" />
      <stop
         offset="1"
         stop-color="#00A3FF"
         id="stop26" />
    </linearGradient>
    <linearGradient
       id="paint3_linear_134_1293"
       x1="92.2461"
       y1="92.7683"
       x2="17.438"
       y2="87.4066"
       gradientUnits="userSpaceOnUse"
       gradientTransform="matrix(0.65393605,0,0,0.6981263,42.309286,1.4719985)">
      <stop
         stop-color="#0044FF"
         id="stop29" />
      <stop
         offset="1"
         stop-color="#00A3FF"
         id="stop31" />
    </linearGradient>
  </defs>
</svg>
